M48
; DRILL file {KiCad 7.0.1} date lun. 22 mai 2023 18:49:41
; FORMAT={-:-/ absolute / metric / decimal}
; #@! TF.CreationDate,2023-05-22T18:49:41+02:00
; #@! TF.GenerationSoftware,Kicad,Pcbnew,7.0.1
; #@! TF.FileFunction,Plated,1,2,PTH
FMAT,2
METRIC
; #@! TA.AperFunction,Plated,PTH,ViaDrill
T1C0.400
; #@! TA.AperFunction,Plated,PTH,ComponentDrill
T2C0.700
; #@! TA.AperFunction,Plated,PTH,ComponentDrill
T3C0.800
; #@! TA.AperFunction,Plated,PTH,ComponentDrill
T4C1.000
; #@! TA.AperFunction,Plated,PTH,ComponentDrill
T5C1.100
%
G90
G05
T1
X125.67Y-83.85
X130.91Y-82.52
X131.29Y-78.76
X132.64Y-78.92
X133.4Y-77.8
X140.83Y-81.65
X140.88Y-77.16
X142.66Y-67.83
X142.8Y-51.52
X144.3Y-77.16
X144.7Y-75.1
X145.6Y-77.16
X145.9Y-75.2
X146.81Y-67.83
X149.1Y-62.0
X149.1Y-67.6
X149.1Y-70.1
X151.2Y-83.4
X156.79Y-65.13
X158.9Y-70.2
X158.9Y-73.0
X161.83Y-56.65
T2
X150.49Y-101.0
X155.97Y-47.15
X155.97Y-50.3
X155.97Y-53.45
X158.11Y-101.0
X161.59Y-101.0
X163.59Y-47.15
X163.59Y-50.3
X163.59Y-53.45
X165.24Y-81.18
X165.29Y-78.73
X169.21Y-101.0
X172.69Y-101.1
X172.86Y-81.18
X172.91Y-78.73
X180.31Y-101.1
T3
X127.54Y-99.87
X129.54Y-99.87
X131.54Y-99.87
X133.54Y-99.87
X136.16Y-44.94
X136.16Y-47.48
X136.16Y-50.02
X136.16Y-52.56
X136.16Y-55.1
X136.16Y-57.64
X136.16Y-60.18
X136.16Y-62.72
X136.16Y-65.26
X136.16Y-67.8
X136.16Y-70.34
X136.16Y-72.88
X136.16Y-75.42
X136.16Y-77.96
X136.16Y-80.5
X151.4Y-44.94
X151.4Y-47.48
X151.4Y-50.02
X151.4Y-52.56
X151.4Y-55.1
X151.4Y-57.64
X151.4Y-60.18
X151.4Y-62.72
X151.4Y-65.26
X151.4Y-67.8
X151.4Y-70.34
X151.4Y-72.88
X151.4Y-75.42
X151.4Y-77.96
X151.4Y-80.5
X156.5Y-39.1
X156.5Y-41.1
X156.5Y-43.1
X167.43Y-47.14
X167.43Y-49.14
X167.43Y-51.14
X167.43Y-53.14
X176.27Y-76.83
X176.27Y-78.83
X176.27Y-80.83
X176.27Y-82.83
X176.33Y-66.72
X176.33Y-68.72
X176.33Y-70.72
X176.34Y-40.7
X176.34Y-42.7
X176.34Y-44.7
X176.34Y-46.7
X176.35Y-50.18
X176.35Y-52.18
X176.35Y-54.18
X176.35Y-58.3
X176.35Y-60.3
X176.35Y-62.3
T4
X120.42Y-45.61
X120.42Y-48.15
X120.42Y-50.69
X120.42Y-53.23
X120.42Y-55.77
X120.42Y-58.31
X120.42Y-60.85
X120.42Y-63.39
X120.42Y-65.93
X120.42Y-68.47
X120.42Y-71.01
X120.42Y-73.55
X120.42Y-76.09
X120.42Y-78.63
X120.42Y-81.17
X120.42Y-83.71
X120.42Y-86.25
X120.42Y-88.79
X120.42Y-91.33
X120.42Y-93.87
X122.96Y-45.61
X122.96Y-48.15
X122.96Y-50.69
X122.96Y-53.23
X122.96Y-55.77
X122.96Y-58.31
X122.96Y-60.85
X122.96Y-63.39
X122.96Y-65.93
X122.96Y-68.47
X122.96Y-71.01
X122.96Y-73.55
X122.96Y-76.09
X122.96Y-78.63
X122.96Y-81.17
X122.96Y-83.71
X122.96Y-86.25
X122.96Y-88.79
X122.96Y-91.33
X122.96Y-93.87
X138.27Y-92.98
X140.77Y-97.98
X143.27Y-92.98
X161.4Y-63.2
X161.4Y-70.8
T5
X127.74Y-66.76
X127.74Y-76.92
X127.82Y-80.85
X127.82Y-91.01
X151.05Y-92.35
X151.05Y-96.85
X157.55Y-92.35
X157.55Y-96.85
X161.95Y-92.35
X161.95Y-96.85
X168.45Y-92.35
X168.45Y-96.85
X173.05Y-92.35
X173.05Y-96.85
X179.55Y-92.35
X179.55Y-96.85
T0
M30
