%TF.GenerationSoftware,KiCad,Pcbnew,7.0.1*%
%TF.CreationDate,2023-05-22T18:49:56+02:00*%
%TF.ProjectId,carte_v2,63617274-655f-4763-922e-6b696361645f,rev?*%
%TF.SameCoordinates,Original*%
%TF.FileFunction,Drillmap*%
%TF.FilePolarity,Positive*%
%FSLAX45Y45*%
G04 Gerber Fmt 4.5, Leading zero omitted, Abs format (unit mm)*
G04 Created by KiCad (PCBNEW 7.0.1) date 2023-05-22 18:49:56*
%MOMM*%
%LPD*%
G01*
G04 APERTURE LIST*
%ADD10C,0.100000*%
%ADD11C,0.200000*%
%ADD12C,0.300000*%
G04 APERTURE END LIST*
D10*
X12300000Y-3300000D02*
G75*
G03*
X11700000Y-3900000I0J-600000D01*
G01*
X19100000Y-3900000D02*
X19100000Y-10100000D01*
X18500000Y-10700000D02*
G75*
G03*
X19100000Y-10100000I0J600000D01*
G01*
X11700000Y-10100000D02*
X11700000Y-3900000D01*
X11700000Y-10100000D02*
G75*
G03*
X12300000Y-10700000I600000J0D01*
G01*
X18500000Y-3300000D02*
X12300000Y-3300000D01*
X19100000Y-3900000D02*
G75*
G03*
X18500000Y-3300000I-600000J0D01*
G01*
X18500000Y-10700000D02*
X12300000Y-10700000D01*
D11*
D12*
X12042000Y-3660000D02*
X12342000Y-3960000D01*
X12342000Y-3660000D02*
X12042000Y-3960000D01*
X12042000Y-10010000D02*
X12342000Y-10310000D01*
X12342000Y-10010000D02*
X12042000Y-10310000D01*
X18392000Y-3660000D02*
X18692000Y-3960000D01*
X18692000Y-3660000D02*
X18392000Y-3960000D01*
X18392000Y-10010000D02*
X18692000Y-10310000D01*
X18692000Y-10010000D02*
X18392000Y-10310000D01*
D11*
X11942619Y-11017524D02*
X11942619Y-10817524D01*
X11942619Y-10817524D02*
X11990238Y-10817524D01*
X11990238Y-10817524D02*
X12018809Y-10827048D01*
X12018809Y-10827048D02*
X12037857Y-10846095D01*
X12037857Y-10846095D02*
X12047381Y-10865143D01*
X12047381Y-10865143D02*
X12056905Y-10903238D01*
X12056905Y-10903238D02*
X12056905Y-10931810D01*
X12056905Y-10931810D02*
X12047381Y-10969905D01*
X12047381Y-10969905D02*
X12037857Y-10988952D01*
X12037857Y-10988952D02*
X12018809Y-11008000D01*
X12018809Y-11008000D02*
X11990238Y-11017524D01*
X11990238Y-11017524D02*
X11942619Y-11017524D01*
X12142619Y-11017524D02*
X12142619Y-10884190D01*
X12142619Y-10922286D02*
X12152143Y-10903238D01*
X12152143Y-10903238D02*
X12161667Y-10893714D01*
X12161667Y-10893714D02*
X12180714Y-10884190D01*
X12180714Y-10884190D02*
X12199762Y-10884190D01*
X12266428Y-11017524D02*
X12266428Y-10884190D01*
X12266428Y-10817524D02*
X12256905Y-10827048D01*
X12256905Y-10827048D02*
X12266428Y-10836571D01*
X12266428Y-10836571D02*
X12275952Y-10827048D01*
X12275952Y-10827048D02*
X12266428Y-10817524D01*
X12266428Y-10817524D02*
X12266428Y-10836571D01*
X12390238Y-11017524D02*
X12371190Y-11008000D01*
X12371190Y-11008000D02*
X12361667Y-10988952D01*
X12361667Y-10988952D02*
X12361667Y-10817524D01*
X12495000Y-11017524D02*
X12475952Y-11008000D01*
X12475952Y-11008000D02*
X12466428Y-10988952D01*
X12466428Y-10988952D02*
X12466428Y-10817524D01*
X12723571Y-11017524D02*
X12723571Y-10817524D01*
X12723571Y-10817524D02*
X12790238Y-10960381D01*
X12790238Y-10960381D02*
X12856905Y-10817524D01*
X12856905Y-10817524D02*
X12856905Y-11017524D01*
X13037857Y-11017524D02*
X13037857Y-10912762D01*
X13037857Y-10912762D02*
X13028333Y-10893714D01*
X13028333Y-10893714D02*
X13009286Y-10884190D01*
X13009286Y-10884190D02*
X12971190Y-10884190D01*
X12971190Y-10884190D02*
X12952143Y-10893714D01*
X13037857Y-11008000D02*
X13018809Y-11017524D01*
X13018809Y-11017524D02*
X12971190Y-11017524D01*
X12971190Y-11017524D02*
X12952143Y-11008000D01*
X12952143Y-11008000D02*
X12942619Y-10988952D01*
X12942619Y-10988952D02*
X12942619Y-10969905D01*
X12942619Y-10969905D02*
X12952143Y-10950857D01*
X12952143Y-10950857D02*
X12971190Y-10941333D01*
X12971190Y-10941333D02*
X13018809Y-10941333D01*
X13018809Y-10941333D02*
X13037857Y-10931810D01*
X13133095Y-10884190D02*
X13133095Y-11084190D01*
X13133095Y-10893714D02*
X13152143Y-10884190D01*
X13152143Y-10884190D02*
X13190238Y-10884190D01*
X13190238Y-10884190D02*
X13209286Y-10893714D01*
X13209286Y-10893714D02*
X13218809Y-10903238D01*
X13218809Y-10903238D02*
X13228333Y-10922286D01*
X13228333Y-10922286D02*
X13228333Y-10979429D01*
X13228333Y-10979429D02*
X13218809Y-10998476D01*
X13218809Y-10998476D02*
X13209286Y-11008000D01*
X13209286Y-11008000D02*
X13190238Y-11017524D01*
X13190238Y-11017524D02*
X13152143Y-11017524D01*
X13152143Y-11017524D02*
X13133095Y-11008000D01*
X13314048Y-10998476D02*
X13323571Y-11008000D01*
X13323571Y-11008000D02*
X13314048Y-11017524D01*
X13314048Y-11017524D02*
X13304524Y-11008000D01*
X13304524Y-11008000D02*
X13314048Y-10998476D01*
X13314048Y-10998476D02*
X13314048Y-11017524D01*
X13314048Y-10893714D02*
X13323571Y-10903238D01*
X13323571Y-10903238D02*
X13314048Y-10912762D01*
X13314048Y-10912762D02*
X13304524Y-10903238D01*
X13304524Y-10903238D02*
X13314048Y-10893714D01*
X13314048Y-10893714D02*
X13314048Y-10912762D01*
X11495000Y-11245000D02*
X11695000Y-11445000D01*
X11695000Y-11245000D02*
X11495000Y-11445000D01*
X11923571Y-11237524D02*
X12047381Y-11237524D01*
X12047381Y-11237524D02*
X11980714Y-11313714D01*
X11980714Y-11313714D02*
X12009286Y-11313714D01*
X12009286Y-11313714D02*
X12028333Y-11323238D01*
X12028333Y-11323238D02*
X12037857Y-11332762D01*
X12037857Y-11332762D02*
X12047381Y-11351809D01*
X12047381Y-11351809D02*
X12047381Y-11399428D01*
X12047381Y-11399428D02*
X12037857Y-11418476D01*
X12037857Y-11418476D02*
X12028333Y-11428000D01*
X12028333Y-11428000D02*
X12009286Y-11437524D01*
X12009286Y-11437524D02*
X11952143Y-11437524D01*
X11952143Y-11437524D02*
X11933095Y-11428000D01*
X11933095Y-11428000D02*
X11923571Y-11418476D01*
X12133095Y-11418476D02*
X12142619Y-11428000D01*
X12142619Y-11428000D02*
X12133095Y-11437524D01*
X12133095Y-11437524D02*
X12123571Y-11428000D01*
X12123571Y-11428000D02*
X12133095Y-11418476D01*
X12133095Y-11418476D02*
X12133095Y-11437524D01*
X12266428Y-11237524D02*
X12285476Y-11237524D01*
X12285476Y-11237524D02*
X12304524Y-11247048D01*
X12304524Y-11247048D02*
X12314048Y-11256571D01*
X12314048Y-11256571D02*
X12323571Y-11275619D01*
X12323571Y-11275619D02*
X12333095Y-11313714D01*
X12333095Y-11313714D02*
X12333095Y-11361333D01*
X12333095Y-11361333D02*
X12323571Y-11399428D01*
X12323571Y-11399428D02*
X12314048Y-11418476D01*
X12314048Y-11418476D02*
X12304524Y-11428000D01*
X12304524Y-11428000D02*
X12285476Y-11437524D01*
X12285476Y-11437524D02*
X12266428Y-11437524D01*
X12266428Y-11437524D02*
X12247381Y-11428000D01*
X12247381Y-11428000D02*
X12237857Y-11418476D01*
X12237857Y-11418476D02*
X12228333Y-11399428D01*
X12228333Y-11399428D02*
X12218809Y-11361333D01*
X12218809Y-11361333D02*
X12218809Y-11313714D01*
X12218809Y-11313714D02*
X12228333Y-11275619D01*
X12228333Y-11275619D02*
X12237857Y-11256571D01*
X12237857Y-11256571D02*
X12247381Y-11247048D01*
X12247381Y-11247048D02*
X12266428Y-11237524D01*
X12456905Y-11237524D02*
X12475952Y-11237524D01*
X12475952Y-11237524D02*
X12495000Y-11247048D01*
X12495000Y-11247048D02*
X12504524Y-11256571D01*
X12504524Y-11256571D02*
X12514048Y-11275619D01*
X12514048Y-11275619D02*
X12523571Y-11313714D01*
X12523571Y-11313714D02*
X12523571Y-11361333D01*
X12523571Y-11361333D02*
X12514048Y-11399428D01*
X12514048Y-11399428D02*
X12504524Y-11418476D01*
X12504524Y-11418476D02*
X12495000Y-11428000D01*
X12495000Y-11428000D02*
X12475952Y-11437524D01*
X12475952Y-11437524D02*
X12456905Y-11437524D01*
X12456905Y-11437524D02*
X12437857Y-11428000D01*
X12437857Y-11428000D02*
X12428333Y-11418476D01*
X12428333Y-11418476D02*
X12418809Y-11399428D01*
X12418809Y-11399428D02*
X12409286Y-11361333D01*
X12409286Y-11361333D02*
X12409286Y-11313714D01*
X12409286Y-11313714D02*
X12418809Y-11275619D01*
X12418809Y-11275619D02*
X12428333Y-11256571D01*
X12428333Y-11256571D02*
X12437857Y-11247048D01*
X12437857Y-11247048D02*
X12456905Y-11237524D01*
X12647381Y-11237524D02*
X12666429Y-11237524D01*
X12666429Y-11237524D02*
X12685476Y-11247048D01*
X12685476Y-11247048D02*
X12695000Y-11256571D01*
X12695000Y-11256571D02*
X12704524Y-11275619D01*
X12704524Y-11275619D02*
X12714048Y-11313714D01*
X12714048Y-11313714D02*
X12714048Y-11361333D01*
X12714048Y-11361333D02*
X12704524Y-11399428D01*
X12704524Y-11399428D02*
X12695000Y-11418476D01*
X12695000Y-11418476D02*
X12685476Y-11428000D01*
X12685476Y-11428000D02*
X12666429Y-11437524D01*
X12666429Y-11437524D02*
X12647381Y-11437524D01*
X12647381Y-11437524D02*
X12628333Y-11428000D01*
X12628333Y-11428000D02*
X12618809Y-11418476D01*
X12618809Y-11418476D02*
X12609286Y-11399428D01*
X12609286Y-11399428D02*
X12599762Y-11361333D01*
X12599762Y-11361333D02*
X12599762Y-11313714D01*
X12599762Y-11313714D02*
X12609286Y-11275619D01*
X12609286Y-11275619D02*
X12618809Y-11256571D01*
X12618809Y-11256571D02*
X12628333Y-11247048D01*
X12628333Y-11247048D02*
X12647381Y-11237524D01*
X12799762Y-11437524D02*
X12799762Y-11304190D01*
X12799762Y-11323238D02*
X12809286Y-11313714D01*
X12809286Y-11313714D02*
X12828333Y-11304190D01*
X12828333Y-11304190D02*
X12856905Y-11304190D01*
X12856905Y-11304190D02*
X12875952Y-11313714D01*
X12875952Y-11313714D02*
X12885476Y-11332762D01*
X12885476Y-11332762D02*
X12885476Y-11437524D01*
X12885476Y-11332762D02*
X12895000Y-11313714D01*
X12895000Y-11313714D02*
X12914048Y-11304190D01*
X12914048Y-11304190D02*
X12942619Y-11304190D01*
X12942619Y-11304190D02*
X12961667Y-11313714D01*
X12961667Y-11313714D02*
X12971190Y-11332762D01*
X12971190Y-11332762D02*
X12971190Y-11437524D01*
X13066429Y-11437524D02*
X13066429Y-11304190D01*
X13066429Y-11323238D02*
X13075952Y-11313714D01*
X13075952Y-11313714D02*
X13095000Y-11304190D01*
X13095000Y-11304190D02*
X13123571Y-11304190D01*
X13123571Y-11304190D02*
X13142619Y-11313714D01*
X13142619Y-11313714D02*
X13152143Y-11332762D01*
X13152143Y-11332762D02*
X13152143Y-11437524D01*
X13152143Y-11332762D02*
X13161667Y-11313714D01*
X13161667Y-11313714D02*
X13180714Y-11304190D01*
X13180714Y-11304190D02*
X13209286Y-11304190D01*
X13209286Y-11304190D02*
X13228333Y-11313714D01*
X13228333Y-11313714D02*
X13237857Y-11332762D01*
X13237857Y-11332762D02*
X13237857Y-11437524D01*
X13628333Y-11228000D02*
X13456905Y-11485143D01*
X13885476Y-11237524D02*
X13904524Y-11237524D01*
X13904524Y-11237524D02*
X13923572Y-11247048D01*
X13923572Y-11247048D02*
X13933095Y-11256571D01*
X13933095Y-11256571D02*
X13942619Y-11275619D01*
X13942619Y-11275619D02*
X13952143Y-11313714D01*
X13952143Y-11313714D02*
X13952143Y-11361333D01*
X13952143Y-11361333D02*
X13942619Y-11399428D01*
X13942619Y-11399428D02*
X13933095Y-11418476D01*
X13933095Y-11418476D02*
X13923572Y-11428000D01*
X13923572Y-11428000D02*
X13904524Y-11437524D01*
X13904524Y-11437524D02*
X13885476Y-11437524D01*
X13885476Y-11437524D02*
X13866429Y-11428000D01*
X13866429Y-11428000D02*
X13856905Y-11418476D01*
X13856905Y-11418476D02*
X13847381Y-11399428D01*
X13847381Y-11399428D02*
X13837857Y-11361333D01*
X13837857Y-11361333D02*
X13837857Y-11313714D01*
X13837857Y-11313714D02*
X13847381Y-11275619D01*
X13847381Y-11275619D02*
X13856905Y-11256571D01*
X13856905Y-11256571D02*
X13866429Y-11247048D01*
X13866429Y-11247048D02*
X13885476Y-11237524D01*
X14037857Y-11418476D02*
X14047381Y-11428000D01*
X14047381Y-11428000D02*
X14037857Y-11437524D01*
X14037857Y-11437524D02*
X14028333Y-11428000D01*
X14028333Y-11428000D02*
X14037857Y-11418476D01*
X14037857Y-11418476D02*
X14037857Y-11437524D01*
X14237857Y-11437524D02*
X14123572Y-11437524D01*
X14180714Y-11437524D02*
X14180714Y-11237524D01*
X14180714Y-11237524D02*
X14161667Y-11266095D01*
X14161667Y-11266095D02*
X14142619Y-11285143D01*
X14142619Y-11285143D02*
X14123572Y-11294667D01*
X14428333Y-11437524D02*
X14314048Y-11437524D01*
X14371191Y-11437524D02*
X14371191Y-11237524D01*
X14371191Y-11237524D02*
X14352143Y-11266095D01*
X14352143Y-11266095D02*
X14333095Y-11285143D01*
X14333095Y-11285143D02*
X14314048Y-11294667D01*
X14542619Y-11323238D02*
X14523572Y-11313714D01*
X14523572Y-11313714D02*
X14514048Y-11304190D01*
X14514048Y-11304190D02*
X14504524Y-11285143D01*
X14504524Y-11285143D02*
X14504524Y-11275619D01*
X14504524Y-11275619D02*
X14514048Y-11256571D01*
X14514048Y-11256571D02*
X14523572Y-11247048D01*
X14523572Y-11247048D02*
X14542619Y-11237524D01*
X14542619Y-11237524D02*
X14580714Y-11237524D01*
X14580714Y-11237524D02*
X14599762Y-11247048D01*
X14599762Y-11247048D02*
X14609286Y-11256571D01*
X14609286Y-11256571D02*
X14618810Y-11275619D01*
X14618810Y-11275619D02*
X14618810Y-11285143D01*
X14618810Y-11285143D02*
X14609286Y-11304190D01*
X14609286Y-11304190D02*
X14599762Y-11313714D01*
X14599762Y-11313714D02*
X14580714Y-11323238D01*
X14580714Y-11323238D02*
X14542619Y-11323238D01*
X14542619Y-11323238D02*
X14523572Y-11332762D01*
X14523572Y-11332762D02*
X14514048Y-11342286D01*
X14514048Y-11342286D02*
X14504524Y-11361333D01*
X14504524Y-11361333D02*
X14504524Y-11399428D01*
X14504524Y-11399428D02*
X14514048Y-11418476D01*
X14514048Y-11418476D02*
X14523572Y-11428000D01*
X14523572Y-11428000D02*
X14542619Y-11437524D01*
X14542619Y-11437524D02*
X14580714Y-11437524D01*
X14580714Y-11437524D02*
X14599762Y-11428000D01*
X14599762Y-11428000D02*
X14609286Y-11418476D01*
X14609286Y-11418476D02*
X14618810Y-11399428D01*
X14618810Y-11399428D02*
X14618810Y-11361333D01*
X14618810Y-11361333D02*
X14609286Y-11342286D01*
X14609286Y-11342286D02*
X14599762Y-11332762D01*
X14599762Y-11332762D02*
X14580714Y-11323238D01*
X14809286Y-11437524D02*
X14695000Y-11437524D01*
X14752143Y-11437524D02*
X14752143Y-11237524D01*
X14752143Y-11237524D02*
X14733095Y-11266095D01*
X14733095Y-11266095D02*
X14714048Y-11285143D01*
X14714048Y-11285143D02*
X14695000Y-11294667D01*
X14885476Y-11237524D02*
X14885476Y-11275619D01*
X14961667Y-11237524D02*
X14961667Y-11275619D01*
X15256905Y-11513714D02*
X15247381Y-11504190D01*
X15247381Y-11504190D02*
X15228334Y-11475619D01*
X15228334Y-11475619D02*
X15218810Y-11456571D01*
X15218810Y-11456571D02*
X15209286Y-11428000D01*
X15209286Y-11428000D02*
X15199762Y-11380381D01*
X15199762Y-11380381D02*
X15199762Y-11342286D01*
X15199762Y-11342286D02*
X15209286Y-11294667D01*
X15209286Y-11294667D02*
X15218810Y-11266095D01*
X15218810Y-11266095D02*
X15228334Y-11247048D01*
X15228334Y-11247048D02*
X15247381Y-11218476D01*
X15247381Y-11218476D02*
X15256905Y-11208952D01*
X15418810Y-11304190D02*
X15418810Y-11437524D01*
X15371191Y-11228000D02*
X15323572Y-11370857D01*
X15323572Y-11370857D02*
X15447381Y-11370857D01*
X15675953Y-11437524D02*
X15675953Y-11237524D01*
X15761667Y-11437524D02*
X15761667Y-11332762D01*
X15761667Y-11332762D02*
X15752143Y-11313714D01*
X15752143Y-11313714D02*
X15733096Y-11304190D01*
X15733096Y-11304190D02*
X15704524Y-11304190D01*
X15704524Y-11304190D02*
X15685476Y-11313714D01*
X15685476Y-11313714D02*
X15675953Y-11323238D01*
X15885476Y-11437524D02*
X15866429Y-11428000D01*
X15866429Y-11428000D02*
X15856905Y-11418476D01*
X15856905Y-11418476D02*
X15847381Y-11399428D01*
X15847381Y-11399428D02*
X15847381Y-11342286D01*
X15847381Y-11342286D02*
X15856905Y-11323238D01*
X15856905Y-11323238D02*
X15866429Y-11313714D01*
X15866429Y-11313714D02*
X15885476Y-11304190D01*
X15885476Y-11304190D02*
X15914048Y-11304190D01*
X15914048Y-11304190D02*
X15933096Y-11313714D01*
X15933096Y-11313714D02*
X15942619Y-11323238D01*
X15942619Y-11323238D02*
X15952143Y-11342286D01*
X15952143Y-11342286D02*
X15952143Y-11399428D01*
X15952143Y-11399428D02*
X15942619Y-11418476D01*
X15942619Y-11418476D02*
X15933096Y-11428000D01*
X15933096Y-11428000D02*
X15914048Y-11437524D01*
X15914048Y-11437524D02*
X15885476Y-11437524D01*
X16066429Y-11437524D02*
X16047381Y-11428000D01*
X16047381Y-11428000D02*
X16037857Y-11408952D01*
X16037857Y-11408952D02*
X16037857Y-11237524D01*
X16218810Y-11428000D02*
X16199762Y-11437524D01*
X16199762Y-11437524D02*
X16161667Y-11437524D01*
X16161667Y-11437524D02*
X16142619Y-11428000D01*
X16142619Y-11428000D02*
X16133096Y-11408952D01*
X16133096Y-11408952D02*
X16133096Y-11332762D01*
X16133096Y-11332762D02*
X16142619Y-11313714D01*
X16142619Y-11313714D02*
X16161667Y-11304190D01*
X16161667Y-11304190D02*
X16199762Y-11304190D01*
X16199762Y-11304190D02*
X16218810Y-11313714D01*
X16218810Y-11313714D02*
X16228334Y-11332762D01*
X16228334Y-11332762D02*
X16228334Y-11351809D01*
X16228334Y-11351809D02*
X16133096Y-11370857D01*
X16304524Y-11428000D02*
X16323572Y-11437524D01*
X16323572Y-11437524D02*
X16361667Y-11437524D01*
X16361667Y-11437524D02*
X16380715Y-11428000D01*
X16380715Y-11428000D02*
X16390238Y-11408952D01*
X16390238Y-11408952D02*
X16390238Y-11399428D01*
X16390238Y-11399428D02*
X16380715Y-11380381D01*
X16380715Y-11380381D02*
X16361667Y-11370857D01*
X16361667Y-11370857D02*
X16333096Y-11370857D01*
X16333096Y-11370857D02*
X16314048Y-11361333D01*
X16314048Y-11361333D02*
X16304524Y-11342286D01*
X16304524Y-11342286D02*
X16304524Y-11332762D01*
X16304524Y-11332762D02*
X16314048Y-11313714D01*
X16314048Y-11313714D02*
X16333096Y-11304190D01*
X16333096Y-11304190D02*
X16361667Y-11304190D01*
X16361667Y-11304190D02*
X16380715Y-11313714D01*
X16456905Y-11513714D02*
X16466429Y-11504190D01*
X16466429Y-11504190D02*
X16485477Y-11475619D01*
X16485477Y-11475619D02*
X16495000Y-11456571D01*
X16495000Y-11456571D02*
X16504524Y-11428000D01*
X16504524Y-11428000D02*
X16514048Y-11380381D01*
X16514048Y-11380381D02*
X16514048Y-11342286D01*
X16514048Y-11342286D02*
X16504524Y-11294667D01*
X16504524Y-11294667D02*
X16495000Y-11266095D01*
X16495000Y-11266095D02*
X16485477Y-11247048D01*
X16485477Y-11247048D02*
X16466429Y-11218476D01*
X16466429Y-11218476D02*
X16456905Y-11208952D01*
X16818810Y-11513714D02*
X16809286Y-11504190D01*
X16809286Y-11504190D02*
X16790239Y-11475619D01*
X16790239Y-11475619D02*
X16780715Y-11456571D01*
X16780715Y-11456571D02*
X16771191Y-11428000D01*
X16771191Y-11428000D02*
X16761667Y-11380381D01*
X16761667Y-11380381D02*
X16761667Y-11342286D01*
X16761667Y-11342286D02*
X16771191Y-11294667D01*
X16771191Y-11294667D02*
X16780715Y-11266095D01*
X16780715Y-11266095D02*
X16790239Y-11247048D01*
X16790239Y-11247048D02*
X16809286Y-11218476D01*
X16809286Y-11218476D02*
X16818810Y-11208952D01*
X16895000Y-11304190D02*
X16895000Y-11437524D01*
X16895000Y-11323238D02*
X16904524Y-11313714D01*
X16904524Y-11313714D02*
X16923572Y-11304190D01*
X16923572Y-11304190D02*
X16952143Y-11304190D01*
X16952143Y-11304190D02*
X16971191Y-11313714D01*
X16971191Y-11313714D02*
X16980715Y-11332762D01*
X16980715Y-11332762D02*
X16980715Y-11437524D01*
X17104524Y-11437524D02*
X17085477Y-11428000D01*
X17085477Y-11428000D02*
X17075953Y-11418476D01*
X17075953Y-11418476D02*
X17066429Y-11399428D01*
X17066429Y-11399428D02*
X17066429Y-11342286D01*
X17066429Y-11342286D02*
X17075953Y-11323238D01*
X17075953Y-11323238D02*
X17085477Y-11313714D01*
X17085477Y-11313714D02*
X17104524Y-11304190D01*
X17104524Y-11304190D02*
X17133096Y-11304190D01*
X17133096Y-11304190D02*
X17152143Y-11313714D01*
X17152143Y-11313714D02*
X17161667Y-11323238D01*
X17161667Y-11323238D02*
X17171191Y-11342286D01*
X17171191Y-11342286D02*
X17171191Y-11399428D01*
X17171191Y-11399428D02*
X17161667Y-11418476D01*
X17161667Y-11418476D02*
X17152143Y-11428000D01*
X17152143Y-11428000D02*
X17133096Y-11437524D01*
X17133096Y-11437524D02*
X17104524Y-11437524D01*
X17228334Y-11304190D02*
X17304524Y-11304190D01*
X17256905Y-11237524D02*
X17256905Y-11408952D01*
X17256905Y-11408952D02*
X17266429Y-11428000D01*
X17266429Y-11428000D02*
X17285477Y-11437524D01*
X17285477Y-11437524D02*
X17304524Y-11437524D01*
X17523572Y-11304190D02*
X17523572Y-11504190D01*
X17523572Y-11313714D02*
X17542620Y-11304190D01*
X17542620Y-11304190D02*
X17580715Y-11304190D01*
X17580715Y-11304190D02*
X17599762Y-11313714D01*
X17599762Y-11313714D02*
X17609286Y-11323238D01*
X17609286Y-11323238D02*
X17618810Y-11342286D01*
X17618810Y-11342286D02*
X17618810Y-11399428D01*
X17618810Y-11399428D02*
X17609286Y-11418476D01*
X17609286Y-11418476D02*
X17599762Y-11428000D01*
X17599762Y-11428000D02*
X17580715Y-11437524D01*
X17580715Y-11437524D02*
X17542620Y-11437524D01*
X17542620Y-11437524D02*
X17523572Y-11428000D01*
X17733096Y-11437524D02*
X17714048Y-11428000D01*
X17714048Y-11428000D02*
X17704524Y-11408952D01*
X17704524Y-11408952D02*
X17704524Y-11237524D01*
X17895001Y-11437524D02*
X17895001Y-11332762D01*
X17895001Y-11332762D02*
X17885477Y-11313714D01*
X17885477Y-11313714D02*
X17866429Y-11304190D01*
X17866429Y-11304190D02*
X17828334Y-11304190D01*
X17828334Y-11304190D02*
X17809286Y-11313714D01*
X17895001Y-11428000D02*
X17875953Y-11437524D01*
X17875953Y-11437524D02*
X17828334Y-11437524D01*
X17828334Y-11437524D02*
X17809286Y-11428000D01*
X17809286Y-11428000D02*
X17799762Y-11408952D01*
X17799762Y-11408952D02*
X17799762Y-11389905D01*
X17799762Y-11389905D02*
X17809286Y-11370857D01*
X17809286Y-11370857D02*
X17828334Y-11361333D01*
X17828334Y-11361333D02*
X17875953Y-11361333D01*
X17875953Y-11361333D02*
X17895001Y-11351809D01*
X17961667Y-11304190D02*
X18037858Y-11304190D01*
X17990239Y-11237524D02*
X17990239Y-11408952D01*
X17990239Y-11408952D02*
X17999762Y-11428000D01*
X17999762Y-11428000D02*
X18018810Y-11437524D01*
X18018810Y-11437524D02*
X18037858Y-11437524D01*
X18180715Y-11428000D02*
X18161667Y-11437524D01*
X18161667Y-11437524D02*
X18123572Y-11437524D01*
X18123572Y-11437524D02*
X18104524Y-11428000D01*
X18104524Y-11428000D02*
X18095001Y-11408952D01*
X18095001Y-11408952D02*
X18095001Y-11332762D01*
X18095001Y-11332762D02*
X18104524Y-11313714D01*
X18104524Y-11313714D02*
X18123572Y-11304190D01*
X18123572Y-11304190D02*
X18161667Y-11304190D01*
X18161667Y-11304190D02*
X18180715Y-11313714D01*
X18180715Y-11313714D02*
X18190239Y-11332762D01*
X18190239Y-11332762D02*
X18190239Y-11351809D01*
X18190239Y-11351809D02*
X18095001Y-11370857D01*
X18361667Y-11437524D02*
X18361667Y-11237524D01*
X18361667Y-11428000D02*
X18342620Y-11437524D01*
X18342620Y-11437524D02*
X18304524Y-11437524D01*
X18304524Y-11437524D02*
X18285477Y-11428000D01*
X18285477Y-11428000D02*
X18275953Y-11418476D01*
X18275953Y-11418476D02*
X18266429Y-11399428D01*
X18266429Y-11399428D02*
X18266429Y-11342286D01*
X18266429Y-11342286D02*
X18275953Y-11323238D01*
X18275953Y-11323238D02*
X18285477Y-11313714D01*
X18285477Y-11313714D02*
X18304524Y-11304190D01*
X18304524Y-11304190D02*
X18342620Y-11304190D01*
X18342620Y-11304190D02*
X18361667Y-11313714D01*
X18437858Y-11513714D02*
X18447382Y-11504190D01*
X18447382Y-11504190D02*
X18466429Y-11475619D01*
X18466429Y-11475619D02*
X18475953Y-11456571D01*
X18475953Y-11456571D02*
X18485477Y-11428000D01*
X18485477Y-11428000D02*
X18495001Y-11380381D01*
X18495001Y-11380381D02*
X18495001Y-11342286D01*
X18495001Y-11342286D02*
X18485477Y-11294667D01*
X18485477Y-11294667D02*
X18475953Y-11266095D01*
X18475953Y-11266095D02*
X18466429Y-11247048D01*
X18466429Y-11247048D02*
X18447382Y-11218476D01*
X18447382Y-11218476D02*
X18437858Y-11208952D01*
M02*
