%TF.GenerationSoftware,KiCad,Pcbnew,7.0.1*%
%TF.CreationDate,2023-05-22T18:49:56+02:00*%
%TF.ProjectId,carte_v2,63617274-655f-4763-922e-6b696361645f,rev?*%
%TF.SameCoordinates,Original*%
%TF.FileFunction,Drillmap*%
%TF.FilePolarity,Positive*%
%FSLAX45Y45*%
G04 Gerber Fmt 4.5, Leading zero omitted, Abs format (unit mm)*
G04 Created by KiCad (PCBNEW 7.0.1) date 2023-05-22 18:49:56*
%MOMM*%
%LPD*%
G01*
G04 APERTURE LIST*
%ADD10C,0.100000*%
%ADD11C,0.200000*%
%ADD12C,0.040000*%
%ADD13C,0.070000*%
%ADD14C,0.080000*%
%ADD15C,0.110000*%
G04 APERTURE END LIST*
D10*
X12300000Y-3300000D02*
G75*
G03*
X11700000Y-3900000I0J-600000D01*
G01*
X19100000Y-3900000D02*
X19100000Y-10100000D01*
X18500000Y-10700000D02*
G75*
G03*
X19100000Y-10100000I0J600000D01*
G01*
X11700000Y-10100000D02*
X11700000Y-3900000D01*
X11700000Y-10100000D02*
G75*
G03*
X12300000Y-10700000I600000J0D01*
G01*
X18500000Y-3300000D02*
X12300000Y-3300000D01*
X19100000Y-3900000D02*
G75*
G03*
X18500000Y-3300000I-600000J0D01*
G01*
X18500000Y-10700000D02*
X12300000Y-10700000D01*
D11*
D12*
X12547000Y-8365000D02*
X12587000Y-8405000D01*
X12587000Y-8365000D02*
X12547000Y-8405000D01*
X13071000Y-8232000D02*
X13111000Y-8272000D01*
X13111000Y-8232000D02*
X13071000Y-8272000D01*
X13109000Y-7856000D02*
X13149000Y-7896000D01*
X13149000Y-7856000D02*
X13109000Y-7896000D01*
X13244000Y-7872000D02*
X13284000Y-7912000D01*
X13284000Y-7872000D02*
X13244000Y-7912000D01*
X13320000Y-7760000D02*
X13360000Y-7800000D01*
X13360000Y-7760000D02*
X13320000Y-7800000D01*
X14063000Y-8145000D02*
X14103000Y-8185000D01*
X14103000Y-8145000D02*
X14063000Y-8185000D01*
X14068000Y-7696000D02*
X14108000Y-7736000D01*
X14108000Y-7696000D02*
X14068000Y-7736000D01*
X14246000Y-6763000D02*
X14286000Y-6803000D01*
X14286000Y-6763000D02*
X14246000Y-6803000D01*
X14260000Y-5132000D02*
X14300000Y-5172000D01*
X14300000Y-5132000D02*
X14260000Y-5172000D01*
X14410000Y-7696050D02*
X14450000Y-7736050D01*
X14450000Y-7696050D02*
X14410000Y-7736050D01*
X14450000Y-7490000D02*
X14490000Y-7530000D01*
X14490000Y-7490000D02*
X14450000Y-7530000D01*
X14540000Y-7696050D02*
X14580000Y-7736050D01*
X14580000Y-7696050D02*
X14540000Y-7736050D01*
X14570000Y-7500000D02*
X14610000Y-7540000D01*
X14610000Y-7500000D02*
X14570000Y-7540000D01*
X14661000Y-6763000D02*
X14701000Y-6803000D01*
X14701000Y-6763000D02*
X14661000Y-6803000D01*
X14890000Y-6180000D02*
X14930000Y-6220000D01*
X14930000Y-6180000D02*
X14890000Y-6220000D01*
X14890000Y-6740000D02*
X14930000Y-6780000D01*
X14930000Y-6740000D02*
X14890000Y-6780000D01*
X14890000Y-6990000D02*
X14930000Y-7030000D01*
X14930000Y-6990000D02*
X14890000Y-7030000D01*
X15100000Y-8320000D02*
X15140000Y-8360000D01*
X15140000Y-8320000D02*
X15100000Y-8360000D01*
X15659000Y-6493000D02*
X15699000Y-6533000D01*
X15699000Y-6493000D02*
X15659000Y-6533000D01*
X15870000Y-7000000D02*
X15910000Y-7040000D01*
X15910000Y-7000000D02*
X15870000Y-7040000D01*
X15870000Y-7280000D02*
X15910000Y-7320000D01*
X15910000Y-7280000D02*
X15870000Y-7320000D01*
X16163000Y-5645000D02*
X16203000Y-5685000D01*
X16203000Y-5645000D02*
X16163000Y-5685000D01*
D13*
X15084000Y-10100000D02*
G75*
G03*
X15084000Y-10100000I-35000J0D01*
G01*
X15632000Y-4715000D02*
G75*
G03*
X15632000Y-4715000I-35000J0D01*
G01*
X15632000Y-5030000D02*
G75*
G03*
X15632000Y-5030000I-35000J0D01*
G01*
X15632000Y-5345000D02*
G75*
G03*
X15632000Y-5345000I-35000J0D01*
G01*
X15846000Y-10100000D02*
G75*
G03*
X15846000Y-10100000I-35000J0D01*
G01*
X16194000Y-10100000D02*
G75*
G03*
X16194000Y-10100000I-35000J0D01*
G01*
X16394000Y-4715000D02*
G75*
G03*
X16394000Y-4715000I-35000J0D01*
G01*
X16394000Y-5030000D02*
G75*
G03*
X16394000Y-5030000I-35000J0D01*
G01*
X16394000Y-5345000D02*
G75*
G03*
X16394000Y-5345000I-35000J0D01*
G01*
X16559000Y-8118000D02*
G75*
G03*
X16559000Y-8118000I-35000J0D01*
G01*
X16564000Y-7873000D02*
G75*
G03*
X16564000Y-7873000I-35000J0D01*
G01*
X16956000Y-10100000D02*
G75*
G03*
X16956000Y-10100000I-35000J0D01*
G01*
X17304000Y-10110000D02*
G75*
G03*
X17304000Y-10110000I-35000J0D01*
G01*
X17321000Y-8118000D02*
G75*
G03*
X17321000Y-8118000I-35000J0D01*
G01*
X17326000Y-7873000D02*
G75*
G03*
X17326000Y-7873000I-35000J0D01*
G01*
X18066000Y-10110000D02*
G75*
G03*
X18066000Y-10110000I-35000J0D01*
G01*
D14*
X12754000Y-9947000D02*
X12754000Y-10027000D01*
X12714000Y-9987000D02*
X12794000Y-9987000D01*
X12954000Y-9947000D02*
X12954000Y-10027000D01*
X12914000Y-9987000D02*
X12994000Y-9987000D01*
X13154000Y-9947000D02*
X13154000Y-10027000D01*
X13114000Y-9987000D02*
X13194000Y-9987000D01*
X13354000Y-9947000D02*
X13354000Y-10027000D01*
X13314000Y-9987000D02*
X13394000Y-9987000D01*
X13616000Y-4454000D02*
X13616000Y-4534000D01*
X13576000Y-4494000D02*
X13656000Y-4494000D01*
X13616000Y-4708000D02*
X13616000Y-4788000D01*
X13576000Y-4748000D02*
X13656000Y-4748000D01*
X13616000Y-4962000D02*
X13616000Y-5042000D01*
X13576000Y-5002000D02*
X13656000Y-5002000D01*
X13616000Y-5216000D02*
X13616000Y-5296000D01*
X13576000Y-5256000D02*
X13656000Y-5256000D01*
X13616000Y-5470000D02*
X13616000Y-5550000D01*
X13576000Y-5510000D02*
X13656000Y-5510000D01*
X13616000Y-5724000D02*
X13616000Y-5804000D01*
X13576000Y-5764000D02*
X13656000Y-5764000D01*
X13616000Y-5978000D02*
X13616000Y-6058000D01*
X13576000Y-6018000D02*
X13656000Y-6018000D01*
X13616000Y-6232000D02*
X13616000Y-6312000D01*
X13576000Y-6272000D02*
X13656000Y-6272000D01*
X13616000Y-6486000D02*
X13616000Y-6566000D01*
X13576000Y-6526000D02*
X13656000Y-6526000D01*
X13616000Y-6740000D02*
X13616000Y-6820000D01*
X13576000Y-6780000D02*
X13656000Y-6780000D01*
X13616000Y-6994000D02*
X13616000Y-7074000D01*
X13576000Y-7034000D02*
X13656000Y-7034000D01*
X13616000Y-7248000D02*
X13616000Y-7328000D01*
X13576000Y-7288000D02*
X13656000Y-7288000D01*
X13616000Y-7502000D02*
X13616000Y-7582000D01*
X13576000Y-7542000D02*
X13656000Y-7542000D01*
X13616000Y-7756000D02*
X13616000Y-7836000D01*
X13576000Y-7796000D02*
X13656000Y-7796000D01*
X13616000Y-8010000D02*
X13616000Y-8090000D01*
X13576000Y-8050000D02*
X13656000Y-8050000D01*
X15140000Y-4454000D02*
X15140000Y-4534000D01*
X15100000Y-4494000D02*
X15180000Y-4494000D01*
X15140000Y-4708000D02*
X15140000Y-4788000D01*
X15100000Y-4748000D02*
X15180000Y-4748000D01*
X15140000Y-4962000D02*
X15140000Y-5042000D01*
X15100000Y-5002000D02*
X15180000Y-5002000D01*
X15140000Y-5216000D02*
X15140000Y-5296000D01*
X15100000Y-5256000D02*
X15180000Y-5256000D01*
X15140000Y-5470000D02*
X15140000Y-5550000D01*
X15100000Y-5510000D02*
X15180000Y-5510000D01*
X15140000Y-5724000D02*
X15140000Y-5804000D01*
X15100000Y-5764000D02*
X15180000Y-5764000D01*
X15140000Y-5978000D02*
X15140000Y-6058000D01*
X15100000Y-6018000D02*
X15180000Y-6018000D01*
X15140000Y-6232000D02*
X15140000Y-6312000D01*
X15100000Y-6272000D02*
X15180000Y-6272000D01*
X15140000Y-6486000D02*
X15140000Y-6566000D01*
X15100000Y-6526000D02*
X15180000Y-6526000D01*
X15140000Y-6740000D02*
X15140000Y-6820000D01*
X15100000Y-6780000D02*
X15180000Y-6780000D01*
X15140000Y-6994000D02*
X15140000Y-7074000D01*
X15100000Y-7034000D02*
X15180000Y-7034000D01*
X15140000Y-7248000D02*
X15140000Y-7328000D01*
X15100000Y-7288000D02*
X15180000Y-7288000D01*
X15140000Y-7502000D02*
X15140000Y-7582000D01*
X15100000Y-7542000D02*
X15180000Y-7542000D01*
X15140000Y-7756000D02*
X15140000Y-7836000D01*
X15100000Y-7796000D02*
X15180000Y-7796000D01*
X15140000Y-8010000D02*
X15140000Y-8090000D01*
X15100000Y-8050000D02*
X15180000Y-8050000D01*
X15650000Y-3870000D02*
X15650000Y-3950000D01*
X15610000Y-3910000D02*
X15690000Y-3910000D01*
X15650000Y-4070000D02*
X15650000Y-4150000D01*
X15610000Y-4110000D02*
X15690000Y-4110000D01*
X15650000Y-4270000D02*
X15650000Y-4350000D01*
X15610000Y-4310000D02*
X15690000Y-4310000D01*
X16743000Y-4674000D02*
X16743000Y-4754000D01*
X16703000Y-4714000D02*
X16783000Y-4714000D01*
X16743000Y-4874000D02*
X16743000Y-4954000D01*
X16703000Y-4914000D02*
X16783000Y-4914000D01*
X16743000Y-5074000D02*
X16743000Y-5154000D01*
X16703000Y-5114000D02*
X16783000Y-5114000D01*
X16743000Y-5274000D02*
X16743000Y-5354000D01*
X16703000Y-5314000D02*
X16783000Y-5314000D01*
X17627000Y-7643000D02*
X17627000Y-7723000D01*
X17587000Y-7683000D02*
X17667000Y-7683000D01*
X17627000Y-7843000D02*
X17627000Y-7923000D01*
X17587000Y-7883000D02*
X17667000Y-7883000D01*
X17627000Y-8043000D02*
X17627000Y-8123000D01*
X17587000Y-8083000D02*
X17667000Y-8083000D01*
X17627000Y-8243000D02*
X17627000Y-8323000D01*
X17587000Y-8283000D02*
X17667000Y-8283000D01*
X17633000Y-6632000D02*
X17633000Y-6712000D01*
X17593000Y-6672000D02*
X17673000Y-6672000D01*
X17633000Y-6832000D02*
X17633000Y-6912000D01*
X17593000Y-6872000D02*
X17673000Y-6872000D01*
X17633000Y-7032000D02*
X17633000Y-7112000D01*
X17593000Y-7072000D02*
X17673000Y-7072000D01*
X17634000Y-4030000D02*
X17634000Y-4110000D01*
X17594000Y-4070000D02*
X17674000Y-4070000D01*
X17634000Y-4230000D02*
X17634000Y-4310000D01*
X17594000Y-4270000D02*
X17674000Y-4270000D01*
X17634000Y-4430000D02*
X17634000Y-4510000D01*
X17594000Y-4470000D02*
X17674000Y-4470000D01*
X17634000Y-4630000D02*
X17634000Y-4710000D01*
X17594000Y-4670000D02*
X17674000Y-4670000D01*
X17635000Y-4978000D02*
X17635000Y-5058000D01*
X17595000Y-5018000D02*
X17675000Y-5018000D01*
X17635000Y-5178000D02*
X17635000Y-5258000D01*
X17595000Y-5218000D02*
X17675000Y-5218000D01*
X17635000Y-5378000D02*
X17635000Y-5458000D01*
X17595000Y-5418000D02*
X17675000Y-5418000D01*
X17635000Y-5790000D02*
X17635000Y-5870000D01*
X17595000Y-5830000D02*
X17675000Y-5830000D01*
X17635000Y-5990000D02*
X17635000Y-6070000D01*
X17595000Y-6030000D02*
X17675000Y-6030000D01*
X17635000Y-6190000D02*
X17635000Y-6270000D01*
X17595000Y-6230000D02*
X17675000Y-6230000D01*
D10*
X12077356Y-4596356D02*
X12077356Y-4525644D01*
X12006644Y-4525644D01*
X12006644Y-4596356D01*
X12077356Y-4596356D01*
X12077356Y-4850356D02*
X12077356Y-4779644D01*
X12006644Y-4779644D01*
X12006644Y-4850356D01*
X12077356Y-4850356D01*
X12077356Y-5104356D02*
X12077356Y-5033644D01*
X12006644Y-5033644D01*
X12006644Y-5104356D01*
X12077356Y-5104356D01*
X12077356Y-5358356D02*
X12077356Y-5287644D01*
X12006644Y-5287644D01*
X12006644Y-5358356D01*
X12077356Y-5358356D01*
X12077356Y-5612356D02*
X12077356Y-5541644D01*
X12006644Y-5541644D01*
X12006644Y-5612356D01*
X12077356Y-5612356D01*
X12077356Y-5866356D02*
X12077356Y-5795644D01*
X12006644Y-5795644D01*
X12006644Y-5866356D01*
X12077356Y-5866356D01*
X12077356Y-6120356D02*
X12077356Y-6049644D01*
X12006644Y-6049644D01*
X12006644Y-6120356D01*
X12077356Y-6120356D01*
X12077356Y-6374356D02*
X12077356Y-6303644D01*
X12006644Y-6303644D01*
X12006644Y-6374356D01*
X12077356Y-6374356D01*
X12077356Y-6628356D02*
X12077356Y-6557644D01*
X12006644Y-6557644D01*
X12006644Y-6628356D01*
X12077356Y-6628356D01*
X12077356Y-6882356D02*
X12077356Y-6811644D01*
X12006644Y-6811644D01*
X12006644Y-6882356D01*
X12077356Y-6882356D01*
X12077356Y-7136356D02*
X12077356Y-7065644D01*
X12006644Y-7065644D01*
X12006644Y-7136356D01*
X12077356Y-7136356D01*
X12077356Y-7390356D02*
X12077356Y-7319644D01*
X12006644Y-7319644D01*
X12006644Y-7390356D01*
X12077356Y-7390356D01*
X12077356Y-7644356D02*
X12077356Y-7573644D01*
X12006644Y-7573644D01*
X12006644Y-7644356D01*
X12077356Y-7644356D01*
X12077356Y-7898356D02*
X12077356Y-7827644D01*
X12006644Y-7827644D01*
X12006644Y-7898356D01*
X12077356Y-7898356D01*
X12077356Y-8152356D02*
X12077356Y-8081644D01*
X12006644Y-8081644D01*
X12006644Y-8152356D01*
X12077356Y-8152356D01*
X12077356Y-8406356D02*
X12077356Y-8335644D01*
X12006644Y-8335644D01*
X12006644Y-8406356D01*
X12077356Y-8406356D01*
X12077356Y-8660356D02*
X12077356Y-8589644D01*
X12006644Y-8589644D01*
X12006644Y-8660356D01*
X12077356Y-8660356D01*
X12077356Y-8914356D02*
X12077356Y-8843644D01*
X12006644Y-8843644D01*
X12006644Y-8914356D01*
X12077356Y-8914356D01*
X12077356Y-9168356D02*
X12077356Y-9097644D01*
X12006644Y-9097644D01*
X12006644Y-9168356D01*
X12077356Y-9168356D01*
X12077356Y-9422356D02*
X12077356Y-9351644D01*
X12006644Y-9351644D01*
X12006644Y-9422356D01*
X12077356Y-9422356D01*
X12331356Y-4596356D02*
X12331356Y-4525644D01*
X12260644Y-4525644D01*
X12260644Y-4596356D01*
X12331356Y-4596356D01*
X12331356Y-4850356D02*
X12331356Y-4779644D01*
X12260644Y-4779644D01*
X12260644Y-4850356D01*
X12331356Y-4850356D01*
X12331356Y-5104356D02*
X12331356Y-5033644D01*
X12260644Y-5033644D01*
X12260644Y-5104356D01*
X12331356Y-5104356D01*
X12331356Y-5358356D02*
X12331356Y-5287644D01*
X12260644Y-5287644D01*
X12260644Y-5358356D01*
X12331356Y-5358356D01*
X12331356Y-5612356D02*
X12331356Y-5541644D01*
X12260644Y-5541644D01*
X12260644Y-5612356D01*
X12331356Y-5612356D01*
X12331356Y-5866356D02*
X12331356Y-5795644D01*
X12260644Y-5795644D01*
X12260644Y-5866356D01*
X12331356Y-5866356D01*
X12331356Y-6120356D02*
X12331356Y-6049644D01*
X12260644Y-6049644D01*
X12260644Y-6120356D01*
X12331356Y-6120356D01*
X12331356Y-6374356D02*
X12331356Y-6303644D01*
X12260644Y-6303644D01*
X12260644Y-6374356D01*
X12331356Y-6374356D01*
X12331356Y-6628356D02*
X12331356Y-6557644D01*
X12260644Y-6557644D01*
X12260644Y-6628356D01*
X12331356Y-6628356D01*
X12331356Y-6882356D02*
X12331356Y-6811644D01*
X12260644Y-6811644D01*
X12260644Y-6882356D01*
X12331356Y-6882356D01*
X12331356Y-7136356D02*
X12331356Y-7065644D01*
X12260644Y-7065644D01*
X12260644Y-7136356D01*
X12331356Y-7136356D01*
X12331356Y-7390356D02*
X12331356Y-7319644D01*
X12260644Y-7319644D01*
X12260644Y-7390356D01*
X12331356Y-7390356D01*
X12331356Y-7644356D02*
X12331356Y-7573644D01*
X12260644Y-7573644D01*
X12260644Y-7644356D01*
X12331356Y-7644356D01*
X12331356Y-7898356D02*
X12331356Y-7827644D01*
X12260644Y-7827644D01*
X12260644Y-7898356D01*
X12331356Y-7898356D01*
X12331356Y-8152356D02*
X12331356Y-8081644D01*
X12260644Y-8081644D01*
X12260644Y-8152356D01*
X12331356Y-8152356D01*
X12331356Y-8406356D02*
X12331356Y-8335644D01*
X12260644Y-8335644D01*
X12260644Y-8406356D01*
X12331356Y-8406356D01*
X12331356Y-8660356D02*
X12331356Y-8589644D01*
X12260644Y-8589644D01*
X12260644Y-8660356D01*
X12331356Y-8660356D01*
X12331356Y-8914356D02*
X12331356Y-8843644D01*
X12260644Y-8843644D01*
X12260644Y-8914356D01*
X12331356Y-8914356D01*
X12331356Y-9168356D02*
X12331356Y-9097644D01*
X12260644Y-9097644D01*
X12260644Y-9168356D01*
X12331356Y-9168356D01*
X12331356Y-9422356D02*
X12331356Y-9351644D01*
X12260644Y-9351644D01*
X12260644Y-9422356D01*
X12331356Y-9422356D01*
X13862356Y-9333356D02*
X13862356Y-9262644D01*
X13791644Y-9262644D01*
X13791644Y-9333356D01*
X13862356Y-9333356D01*
X14112356Y-9833356D02*
X14112356Y-9762644D01*
X14041644Y-9762644D01*
X14041644Y-9833356D01*
X14112356Y-9833356D01*
X14362356Y-9333356D02*
X14362356Y-9262644D01*
X14291644Y-9262644D01*
X14291644Y-9333356D01*
X14362356Y-9333356D01*
X16175356Y-6355356D02*
X16175356Y-6284644D01*
X16104644Y-6284644D01*
X16104644Y-6355356D01*
X16175356Y-6355356D01*
X16175356Y-7115356D02*
X16175356Y-7044644D01*
X16104644Y-7044644D01*
X16104644Y-7115356D01*
X16175356Y-7115356D01*
D15*
X12774000Y-6731000D02*
X12829000Y-6676000D01*
X12774000Y-6621000D01*
X12719000Y-6676000D01*
X12774000Y-6731000D01*
X12774000Y-7747000D02*
X12829000Y-7692000D01*
X12774000Y-7637000D01*
X12719000Y-7692000D01*
X12774000Y-7747000D01*
X12782000Y-8140000D02*
X12837000Y-8085000D01*
X12782000Y-8030000D01*
X12727000Y-8085000D01*
X12782000Y-8140000D01*
X12782000Y-9156000D02*
X12837000Y-9101000D01*
X12782000Y-9046000D01*
X12727000Y-9101000D01*
X12782000Y-9156000D01*
X15105000Y-9290000D02*
X15160000Y-9235000D01*
X15105000Y-9180000D01*
X15050000Y-9235000D01*
X15105000Y-9290000D01*
X15105000Y-9740000D02*
X15160000Y-9685000D01*
X15105000Y-9630000D01*
X15050000Y-9685000D01*
X15105000Y-9740000D01*
X15755000Y-9290000D02*
X15810000Y-9235000D01*
X15755000Y-9180000D01*
X15700000Y-9235000D01*
X15755000Y-9290000D01*
X15755000Y-9740000D02*
X15810000Y-9685000D01*
X15755000Y-9630000D01*
X15700000Y-9685000D01*
X15755000Y-9740000D01*
X16195000Y-9290000D02*
X16250000Y-9235000D01*
X16195000Y-9180000D01*
X16140000Y-9235000D01*
X16195000Y-9290000D01*
X16195000Y-9740000D02*
X16250000Y-9685000D01*
X16195000Y-9630000D01*
X16140000Y-9685000D01*
X16195000Y-9740000D01*
X16845000Y-9290000D02*
X16900000Y-9235000D01*
X16845000Y-9180000D01*
X16790000Y-9235000D01*
X16845000Y-9290000D01*
X16845000Y-9740000D02*
X16900000Y-9685000D01*
X16845000Y-9630000D01*
X16790000Y-9685000D01*
X16845000Y-9740000D01*
X17305000Y-9290000D02*
X17360000Y-9235000D01*
X17305000Y-9180000D01*
X17250000Y-9235000D01*
X17305000Y-9290000D01*
X17305000Y-9740000D02*
X17360000Y-9685000D01*
X17305000Y-9630000D01*
X17250000Y-9685000D01*
X17305000Y-9740000D01*
X17955000Y-9290000D02*
X18010000Y-9235000D01*
X17955000Y-9180000D01*
X17900000Y-9235000D01*
X17955000Y-9290000D01*
X17955000Y-9740000D02*
X18010000Y-9685000D01*
X17955000Y-9630000D01*
X17900000Y-9685000D01*
X17955000Y-9740000D01*
D11*
X11942619Y-11017524D02*
X11942619Y-10817524D01*
X11942619Y-10817524D02*
X11990238Y-10817524D01*
X11990238Y-10817524D02*
X12018809Y-10827048D01*
X12018809Y-10827048D02*
X12037857Y-10846095D01*
X12037857Y-10846095D02*
X12047381Y-10865143D01*
X12047381Y-10865143D02*
X12056905Y-10903238D01*
X12056905Y-10903238D02*
X12056905Y-10931810D01*
X12056905Y-10931810D02*
X12047381Y-10969905D01*
X12047381Y-10969905D02*
X12037857Y-10988952D01*
X12037857Y-10988952D02*
X12018809Y-11008000D01*
X12018809Y-11008000D02*
X11990238Y-11017524D01*
X11990238Y-11017524D02*
X11942619Y-11017524D01*
X12142619Y-11017524D02*
X12142619Y-10884190D01*
X12142619Y-10922286D02*
X12152143Y-10903238D01*
X12152143Y-10903238D02*
X12161667Y-10893714D01*
X12161667Y-10893714D02*
X12180714Y-10884190D01*
X12180714Y-10884190D02*
X12199762Y-10884190D01*
X12266428Y-11017524D02*
X12266428Y-10884190D01*
X12266428Y-10817524D02*
X12256905Y-10827048D01*
X12256905Y-10827048D02*
X12266428Y-10836571D01*
X12266428Y-10836571D02*
X12275952Y-10827048D01*
X12275952Y-10827048D02*
X12266428Y-10817524D01*
X12266428Y-10817524D02*
X12266428Y-10836571D01*
X12390238Y-11017524D02*
X12371190Y-11008000D01*
X12371190Y-11008000D02*
X12361667Y-10988952D01*
X12361667Y-10988952D02*
X12361667Y-10817524D01*
X12495000Y-11017524D02*
X12475952Y-11008000D01*
X12475952Y-11008000D02*
X12466428Y-10988952D01*
X12466428Y-10988952D02*
X12466428Y-10817524D01*
X12723571Y-11017524D02*
X12723571Y-10817524D01*
X12723571Y-10817524D02*
X12790238Y-10960381D01*
X12790238Y-10960381D02*
X12856905Y-10817524D01*
X12856905Y-10817524D02*
X12856905Y-11017524D01*
X13037857Y-11017524D02*
X13037857Y-10912762D01*
X13037857Y-10912762D02*
X13028333Y-10893714D01*
X13028333Y-10893714D02*
X13009286Y-10884190D01*
X13009286Y-10884190D02*
X12971190Y-10884190D01*
X12971190Y-10884190D02*
X12952143Y-10893714D01*
X13037857Y-11008000D02*
X13018809Y-11017524D01*
X13018809Y-11017524D02*
X12971190Y-11017524D01*
X12971190Y-11017524D02*
X12952143Y-11008000D01*
X12952143Y-11008000D02*
X12942619Y-10988952D01*
X12942619Y-10988952D02*
X12942619Y-10969905D01*
X12942619Y-10969905D02*
X12952143Y-10950857D01*
X12952143Y-10950857D02*
X12971190Y-10941333D01*
X12971190Y-10941333D02*
X13018809Y-10941333D01*
X13018809Y-10941333D02*
X13037857Y-10931810D01*
X13133095Y-10884190D02*
X13133095Y-11084190D01*
X13133095Y-10893714D02*
X13152143Y-10884190D01*
X13152143Y-10884190D02*
X13190238Y-10884190D01*
X13190238Y-10884190D02*
X13209286Y-10893714D01*
X13209286Y-10893714D02*
X13218809Y-10903238D01*
X13218809Y-10903238D02*
X13228333Y-10922286D01*
X13228333Y-10922286D02*
X13228333Y-10979429D01*
X13228333Y-10979429D02*
X13218809Y-10998476D01*
X13218809Y-10998476D02*
X13209286Y-11008000D01*
X13209286Y-11008000D02*
X13190238Y-11017524D01*
X13190238Y-11017524D02*
X13152143Y-11017524D01*
X13152143Y-11017524D02*
X13133095Y-11008000D01*
X13314048Y-10998476D02*
X13323571Y-11008000D01*
X13323571Y-11008000D02*
X13314048Y-11017524D01*
X13314048Y-11017524D02*
X13304524Y-11008000D01*
X13304524Y-11008000D02*
X13314048Y-10998476D01*
X13314048Y-10998476D02*
X13314048Y-11017524D01*
X13314048Y-10893714D02*
X13323571Y-10903238D01*
X13323571Y-10903238D02*
X13314048Y-10912762D01*
X13314048Y-10912762D02*
X13304524Y-10903238D01*
X13304524Y-10903238D02*
X13314048Y-10893714D01*
X13314048Y-10893714D02*
X13314048Y-10912762D01*
D12*
X11655000Y-11325000D02*
X11695000Y-11365000D01*
X11695000Y-11325000D02*
X11655000Y-11365000D01*
D11*
X11980714Y-11237524D02*
X11999762Y-11237524D01*
X11999762Y-11237524D02*
X12018809Y-11247048D01*
X12018809Y-11247048D02*
X12028333Y-11256571D01*
X12028333Y-11256571D02*
X12037857Y-11275619D01*
X12037857Y-11275619D02*
X12047381Y-11313714D01*
X12047381Y-11313714D02*
X12047381Y-11361333D01*
X12047381Y-11361333D02*
X12037857Y-11399428D01*
X12037857Y-11399428D02*
X12028333Y-11418476D01*
X12028333Y-11418476D02*
X12018809Y-11428000D01*
X12018809Y-11428000D02*
X11999762Y-11437524D01*
X11999762Y-11437524D02*
X11980714Y-11437524D01*
X11980714Y-11437524D02*
X11961667Y-11428000D01*
X11961667Y-11428000D02*
X11952143Y-11418476D01*
X11952143Y-11418476D02*
X11942619Y-11399428D01*
X11942619Y-11399428D02*
X11933095Y-11361333D01*
X11933095Y-11361333D02*
X11933095Y-11313714D01*
X11933095Y-11313714D02*
X11942619Y-11275619D01*
X11942619Y-11275619D02*
X11952143Y-11256571D01*
X11952143Y-11256571D02*
X11961667Y-11247048D01*
X11961667Y-11247048D02*
X11980714Y-11237524D01*
X12133095Y-11418476D02*
X12142619Y-11428000D01*
X12142619Y-11428000D02*
X12133095Y-11437524D01*
X12133095Y-11437524D02*
X12123571Y-11428000D01*
X12123571Y-11428000D02*
X12133095Y-11418476D01*
X12133095Y-11418476D02*
X12133095Y-11437524D01*
X12314048Y-11304190D02*
X12314048Y-11437524D01*
X12266428Y-11228000D02*
X12218809Y-11370857D01*
X12218809Y-11370857D02*
X12342619Y-11370857D01*
X12456905Y-11237524D02*
X12475952Y-11237524D01*
X12475952Y-11237524D02*
X12495000Y-11247048D01*
X12495000Y-11247048D02*
X12504524Y-11256571D01*
X12504524Y-11256571D02*
X12514048Y-11275619D01*
X12514048Y-11275619D02*
X12523571Y-11313714D01*
X12523571Y-11313714D02*
X12523571Y-11361333D01*
X12523571Y-11361333D02*
X12514048Y-11399428D01*
X12514048Y-11399428D02*
X12504524Y-11418476D01*
X12504524Y-11418476D02*
X12495000Y-11428000D01*
X12495000Y-11428000D02*
X12475952Y-11437524D01*
X12475952Y-11437524D02*
X12456905Y-11437524D01*
X12456905Y-11437524D02*
X12437857Y-11428000D01*
X12437857Y-11428000D02*
X12428333Y-11418476D01*
X12428333Y-11418476D02*
X12418809Y-11399428D01*
X12418809Y-11399428D02*
X12409286Y-11361333D01*
X12409286Y-11361333D02*
X12409286Y-11313714D01*
X12409286Y-11313714D02*
X12418809Y-11275619D01*
X12418809Y-11275619D02*
X12428333Y-11256571D01*
X12428333Y-11256571D02*
X12437857Y-11247048D01*
X12437857Y-11247048D02*
X12456905Y-11237524D01*
X12647381Y-11237524D02*
X12666429Y-11237524D01*
X12666429Y-11237524D02*
X12685476Y-11247048D01*
X12685476Y-11247048D02*
X12695000Y-11256571D01*
X12695000Y-11256571D02*
X12704524Y-11275619D01*
X12704524Y-11275619D02*
X12714048Y-11313714D01*
X12714048Y-11313714D02*
X12714048Y-11361333D01*
X12714048Y-11361333D02*
X12704524Y-11399428D01*
X12704524Y-11399428D02*
X12695000Y-11418476D01*
X12695000Y-11418476D02*
X12685476Y-11428000D01*
X12685476Y-11428000D02*
X12666429Y-11437524D01*
X12666429Y-11437524D02*
X12647381Y-11437524D01*
X12647381Y-11437524D02*
X12628333Y-11428000D01*
X12628333Y-11428000D02*
X12618809Y-11418476D01*
X12618809Y-11418476D02*
X12609286Y-11399428D01*
X12609286Y-11399428D02*
X12599762Y-11361333D01*
X12599762Y-11361333D02*
X12599762Y-11313714D01*
X12599762Y-11313714D02*
X12609286Y-11275619D01*
X12609286Y-11275619D02*
X12618809Y-11256571D01*
X12618809Y-11256571D02*
X12628333Y-11247048D01*
X12628333Y-11247048D02*
X12647381Y-11237524D01*
X12799762Y-11437524D02*
X12799762Y-11304190D01*
X12799762Y-11323238D02*
X12809286Y-11313714D01*
X12809286Y-11313714D02*
X12828333Y-11304190D01*
X12828333Y-11304190D02*
X12856905Y-11304190D01*
X12856905Y-11304190D02*
X12875952Y-11313714D01*
X12875952Y-11313714D02*
X12885476Y-11332762D01*
X12885476Y-11332762D02*
X12885476Y-11437524D01*
X12885476Y-11332762D02*
X12895000Y-11313714D01*
X12895000Y-11313714D02*
X12914048Y-11304190D01*
X12914048Y-11304190D02*
X12942619Y-11304190D01*
X12942619Y-11304190D02*
X12961667Y-11313714D01*
X12961667Y-11313714D02*
X12971190Y-11332762D01*
X12971190Y-11332762D02*
X12971190Y-11437524D01*
X13066429Y-11437524D02*
X13066429Y-11304190D01*
X13066429Y-11323238D02*
X13075952Y-11313714D01*
X13075952Y-11313714D02*
X13095000Y-11304190D01*
X13095000Y-11304190D02*
X13123571Y-11304190D01*
X13123571Y-11304190D02*
X13142619Y-11313714D01*
X13142619Y-11313714D02*
X13152143Y-11332762D01*
X13152143Y-11332762D02*
X13152143Y-11437524D01*
X13152143Y-11332762D02*
X13161667Y-11313714D01*
X13161667Y-11313714D02*
X13180714Y-11304190D01*
X13180714Y-11304190D02*
X13209286Y-11304190D01*
X13209286Y-11304190D02*
X13228333Y-11313714D01*
X13228333Y-11313714D02*
X13237857Y-11332762D01*
X13237857Y-11332762D02*
X13237857Y-11437524D01*
X13628333Y-11228000D02*
X13456905Y-11485143D01*
X13885476Y-11237524D02*
X13904524Y-11237524D01*
X13904524Y-11237524D02*
X13923572Y-11247048D01*
X13923572Y-11247048D02*
X13933095Y-11256571D01*
X13933095Y-11256571D02*
X13942619Y-11275619D01*
X13942619Y-11275619D02*
X13952143Y-11313714D01*
X13952143Y-11313714D02*
X13952143Y-11361333D01*
X13952143Y-11361333D02*
X13942619Y-11399428D01*
X13942619Y-11399428D02*
X13933095Y-11418476D01*
X13933095Y-11418476D02*
X13923572Y-11428000D01*
X13923572Y-11428000D02*
X13904524Y-11437524D01*
X13904524Y-11437524D02*
X13885476Y-11437524D01*
X13885476Y-11437524D02*
X13866429Y-11428000D01*
X13866429Y-11428000D02*
X13856905Y-11418476D01*
X13856905Y-11418476D02*
X13847381Y-11399428D01*
X13847381Y-11399428D02*
X13837857Y-11361333D01*
X13837857Y-11361333D02*
X13837857Y-11313714D01*
X13837857Y-11313714D02*
X13847381Y-11275619D01*
X13847381Y-11275619D02*
X13856905Y-11256571D01*
X13856905Y-11256571D02*
X13866429Y-11247048D01*
X13866429Y-11247048D02*
X13885476Y-11237524D01*
X14037857Y-11418476D02*
X14047381Y-11428000D01*
X14047381Y-11428000D02*
X14037857Y-11437524D01*
X14037857Y-11437524D02*
X14028333Y-11428000D01*
X14028333Y-11428000D02*
X14037857Y-11418476D01*
X14037857Y-11418476D02*
X14037857Y-11437524D01*
X14171191Y-11237524D02*
X14190238Y-11237524D01*
X14190238Y-11237524D02*
X14209286Y-11247048D01*
X14209286Y-11247048D02*
X14218810Y-11256571D01*
X14218810Y-11256571D02*
X14228333Y-11275619D01*
X14228333Y-11275619D02*
X14237857Y-11313714D01*
X14237857Y-11313714D02*
X14237857Y-11361333D01*
X14237857Y-11361333D02*
X14228333Y-11399428D01*
X14228333Y-11399428D02*
X14218810Y-11418476D01*
X14218810Y-11418476D02*
X14209286Y-11428000D01*
X14209286Y-11428000D02*
X14190238Y-11437524D01*
X14190238Y-11437524D02*
X14171191Y-11437524D01*
X14171191Y-11437524D02*
X14152143Y-11428000D01*
X14152143Y-11428000D02*
X14142619Y-11418476D01*
X14142619Y-11418476D02*
X14133095Y-11399428D01*
X14133095Y-11399428D02*
X14123572Y-11361333D01*
X14123572Y-11361333D02*
X14123572Y-11313714D01*
X14123572Y-11313714D02*
X14133095Y-11275619D01*
X14133095Y-11275619D02*
X14142619Y-11256571D01*
X14142619Y-11256571D02*
X14152143Y-11247048D01*
X14152143Y-11247048D02*
X14171191Y-11237524D01*
X14428333Y-11437524D02*
X14314048Y-11437524D01*
X14371191Y-11437524D02*
X14371191Y-11237524D01*
X14371191Y-11237524D02*
X14352143Y-11266095D01*
X14352143Y-11266095D02*
X14333095Y-11285143D01*
X14333095Y-11285143D02*
X14314048Y-11294667D01*
X14609286Y-11237524D02*
X14514048Y-11237524D01*
X14514048Y-11237524D02*
X14504524Y-11332762D01*
X14504524Y-11332762D02*
X14514048Y-11323238D01*
X14514048Y-11323238D02*
X14533095Y-11313714D01*
X14533095Y-11313714D02*
X14580714Y-11313714D01*
X14580714Y-11313714D02*
X14599762Y-11323238D01*
X14599762Y-11323238D02*
X14609286Y-11332762D01*
X14609286Y-11332762D02*
X14618810Y-11351809D01*
X14618810Y-11351809D02*
X14618810Y-11399428D01*
X14618810Y-11399428D02*
X14609286Y-11418476D01*
X14609286Y-11418476D02*
X14599762Y-11428000D01*
X14599762Y-11428000D02*
X14580714Y-11437524D01*
X14580714Y-11437524D02*
X14533095Y-11437524D01*
X14533095Y-11437524D02*
X14514048Y-11428000D01*
X14514048Y-11428000D02*
X14504524Y-11418476D01*
X14685476Y-11237524D02*
X14818810Y-11237524D01*
X14818810Y-11237524D02*
X14733095Y-11437524D01*
X14885476Y-11237524D02*
X14885476Y-11275619D01*
X14961667Y-11237524D02*
X14961667Y-11275619D01*
X15256905Y-11513714D02*
X15247381Y-11504190D01*
X15247381Y-11504190D02*
X15228334Y-11475619D01*
X15228334Y-11475619D02*
X15218810Y-11456571D01*
X15218810Y-11456571D02*
X15209286Y-11428000D01*
X15209286Y-11428000D02*
X15199762Y-11380381D01*
X15199762Y-11380381D02*
X15199762Y-11342286D01*
X15199762Y-11342286D02*
X15209286Y-11294667D01*
X15209286Y-11294667D02*
X15218810Y-11266095D01*
X15218810Y-11266095D02*
X15228334Y-11247048D01*
X15228334Y-11247048D02*
X15247381Y-11218476D01*
X15247381Y-11218476D02*
X15256905Y-11208952D01*
X15323572Y-11256571D02*
X15333095Y-11247048D01*
X15333095Y-11247048D02*
X15352143Y-11237524D01*
X15352143Y-11237524D02*
X15399762Y-11237524D01*
X15399762Y-11237524D02*
X15418810Y-11247048D01*
X15418810Y-11247048D02*
X15428334Y-11256571D01*
X15428334Y-11256571D02*
X15437857Y-11275619D01*
X15437857Y-11275619D02*
X15437857Y-11294667D01*
X15437857Y-11294667D02*
X15428334Y-11323238D01*
X15428334Y-11323238D02*
X15314048Y-11437524D01*
X15314048Y-11437524D02*
X15437857Y-11437524D01*
X15514048Y-11256571D02*
X15523572Y-11247048D01*
X15523572Y-11247048D02*
X15542619Y-11237524D01*
X15542619Y-11237524D02*
X15590238Y-11237524D01*
X15590238Y-11237524D02*
X15609286Y-11247048D01*
X15609286Y-11247048D02*
X15618810Y-11256571D01*
X15618810Y-11256571D02*
X15628334Y-11275619D01*
X15628334Y-11275619D02*
X15628334Y-11294667D01*
X15628334Y-11294667D02*
X15618810Y-11323238D01*
X15618810Y-11323238D02*
X15504524Y-11437524D01*
X15504524Y-11437524D02*
X15628334Y-11437524D01*
X15866429Y-11437524D02*
X15866429Y-11237524D01*
X15952143Y-11437524D02*
X15952143Y-11332762D01*
X15952143Y-11332762D02*
X15942619Y-11313714D01*
X15942619Y-11313714D02*
X15923572Y-11304190D01*
X15923572Y-11304190D02*
X15895000Y-11304190D01*
X15895000Y-11304190D02*
X15875953Y-11313714D01*
X15875953Y-11313714D02*
X15866429Y-11323238D01*
X16075953Y-11437524D02*
X16056905Y-11428000D01*
X16056905Y-11428000D02*
X16047381Y-11418476D01*
X16047381Y-11418476D02*
X16037857Y-11399428D01*
X16037857Y-11399428D02*
X16037857Y-11342286D01*
X16037857Y-11342286D02*
X16047381Y-11323238D01*
X16047381Y-11323238D02*
X16056905Y-11313714D01*
X16056905Y-11313714D02*
X16075953Y-11304190D01*
X16075953Y-11304190D02*
X16104524Y-11304190D01*
X16104524Y-11304190D02*
X16123572Y-11313714D01*
X16123572Y-11313714D02*
X16133096Y-11323238D01*
X16133096Y-11323238D02*
X16142619Y-11342286D01*
X16142619Y-11342286D02*
X16142619Y-11399428D01*
X16142619Y-11399428D02*
X16133096Y-11418476D01*
X16133096Y-11418476D02*
X16123572Y-11428000D01*
X16123572Y-11428000D02*
X16104524Y-11437524D01*
X16104524Y-11437524D02*
X16075953Y-11437524D01*
X16256905Y-11437524D02*
X16237857Y-11428000D01*
X16237857Y-11428000D02*
X16228334Y-11408952D01*
X16228334Y-11408952D02*
X16228334Y-11237524D01*
X16409286Y-11428000D02*
X16390238Y-11437524D01*
X16390238Y-11437524D02*
X16352143Y-11437524D01*
X16352143Y-11437524D02*
X16333096Y-11428000D01*
X16333096Y-11428000D02*
X16323572Y-11408952D01*
X16323572Y-11408952D02*
X16323572Y-11332762D01*
X16323572Y-11332762D02*
X16333096Y-11313714D01*
X16333096Y-11313714D02*
X16352143Y-11304190D01*
X16352143Y-11304190D02*
X16390238Y-11304190D01*
X16390238Y-11304190D02*
X16409286Y-11313714D01*
X16409286Y-11313714D02*
X16418810Y-11332762D01*
X16418810Y-11332762D02*
X16418810Y-11351809D01*
X16418810Y-11351809D02*
X16323572Y-11370857D01*
X16495000Y-11428000D02*
X16514048Y-11437524D01*
X16514048Y-11437524D02*
X16552143Y-11437524D01*
X16552143Y-11437524D02*
X16571191Y-11428000D01*
X16571191Y-11428000D02*
X16580715Y-11408952D01*
X16580715Y-11408952D02*
X16580715Y-11399428D01*
X16580715Y-11399428D02*
X16571191Y-11380381D01*
X16571191Y-11380381D02*
X16552143Y-11370857D01*
X16552143Y-11370857D02*
X16523572Y-11370857D01*
X16523572Y-11370857D02*
X16504524Y-11361333D01*
X16504524Y-11361333D02*
X16495000Y-11342286D01*
X16495000Y-11342286D02*
X16495000Y-11332762D01*
X16495000Y-11332762D02*
X16504524Y-11313714D01*
X16504524Y-11313714D02*
X16523572Y-11304190D01*
X16523572Y-11304190D02*
X16552143Y-11304190D01*
X16552143Y-11304190D02*
X16571191Y-11313714D01*
X16647381Y-11513714D02*
X16656905Y-11504190D01*
X16656905Y-11504190D02*
X16675953Y-11475619D01*
X16675953Y-11475619D02*
X16685477Y-11456571D01*
X16685477Y-11456571D02*
X16695000Y-11428000D01*
X16695000Y-11428000D02*
X16704524Y-11380381D01*
X16704524Y-11380381D02*
X16704524Y-11342286D01*
X16704524Y-11342286D02*
X16695000Y-11294667D01*
X16695000Y-11294667D02*
X16685477Y-11266095D01*
X16685477Y-11266095D02*
X16675953Y-11247048D01*
X16675953Y-11247048D02*
X16656905Y-11218476D01*
X16656905Y-11218476D02*
X16647381Y-11208952D01*
D13*
X11695000Y-11609000D02*
G75*
G03*
X11695000Y-11609000I-35000J0D01*
G01*
D11*
X11980714Y-11501524D02*
X11999762Y-11501524D01*
X11999762Y-11501524D02*
X12018809Y-11511048D01*
X12018809Y-11511048D02*
X12028333Y-11520571D01*
X12028333Y-11520571D02*
X12037857Y-11539619D01*
X12037857Y-11539619D02*
X12047381Y-11577714D01*
X12047381Y-11577714D02*
X12047381Y-11625333D01*
X12047381Y-11625333D02*
X12037857Y-11663428D01*
X12037857Y-11663428D02*
X12028333Y-11682476D01*
X12028333Y-11682476D02*
X12018809Y-11692000D01*
X12018809Y-11692000D02*
X11999762Y-11701524D01*
X11999762Y-11701524D02*
X11980714Y-11701524D01*
X11980714Y-11701524D02*
X11961667Y-11692000D01*
X11961667Y-11692000D02*
X11952143Y-11682476D01*
X11952143Y-11682476D02*
X11942619Y-11663428D01*
X11942619Y-11663428D02*
X11933095Y-11625333D01*
X11933095Y-11625333D02*
X11933095Y-11577714D01*
X11933095Y-11577714D02*
X11942619Y-11539619D01*
X11942619Y-11539619D02*
X11952143Y-11520571D01*
X11952143Y-11520571D02*
X11961667Y-11511048D01*
X11961667Y-11511048D02*
X11980714Y-11501524D01*
X12133095Y-11682476D02*
X12142619Y-11692000D01*
X12142619Y-11692000D02*
X12133095Y-11701524D01*
X12133095Y-11701524D02*
X12123571Y-11692000D01*
X12123571Y-11692000D02*
X12133095Y-11682476D01*
X12133095Y-11682476D02*
X12133095Y-11701524D01*
X12209286Y-11501524D02*
X12342619Y-11501524D01*
X12342619Y-11501524D02*
X12256905Y-11701524D01*
X12456905Y-11501524D02*
X12475952Y-11501524D01*
X12475952Y-11501524D02*
X12495000Y-11511048D01*
X12495000Y-11511048D02*
X12504524Y-11520571D01*
X12504524Y-11520571D02*
X12514048Y-11539619D01*
X12514048Y-11539619D02*
X12523571Y-11577714D01*
X12523571Y-11577714D02*
X12523571Y-11625333D01*
X12523571Y-11625333D02*
X12514048Y-11663428D01*
X12514048Y-11663428D02*
X12504524Y-11682476D01*
X12504524Y-11682476D02*
X12495000Y-11692000D01*
X12495000Y-11692000D02*
X12475952Y-11701524D01*
X12475952Y-11701524D02*
X12456905Y-11701524D01*
X12456905Y-11701524D02*
X12437857Y-11692000D01*
X12437857Y-11692000D02*
X12428333Y-11682476D01*
X12428333Y-11682476D02*
X12418809Y-11663428D01*
X12418809Y-11663428D02*
X12409286Y-11625333D01*
X12409286Y-11625333D02*
X12409286Y-11577714D01*
X12409286Y-11577714D02*
X12418809Y-11539619D01*
X12418809Y-11539619D02*
X12428333Y-11520571D01*
X12428333Y-11520571D02*
X12437857Y-11511048D01*
X12437857Y-11511048D02*
X12456905Y-11501524D01*
X12647381Y-11501524D02*
X12666429Y-11501524D01*
X12666429Y-11501524D02*
X12685476Y-11511048D01*
X12685476Y-11511048D02*
X12695000Y-11520571D01*
X12695000Y-11520571D02*
X12704524Y-11539619D01*
X12704524Y-11539619D02*
X12714048Y-11577714D01*
X12714048Y-11577714D02*
X12714048Y-11625333D01*
X12714048Y-11625333D02*
X12704524Y-11663428D01*
X12704524Y-11663428D02*
X12695000Y-11682476D01*
X12695000Y-11682476D02*
X12685476Y-11692000D01*
X12685476Y-11692000D02*
X12666429Y-11701524D01*
X12666429Y-11701524D02*
X12647381Y-11701524D01*
X12647381Y-11701524D02*
X12628333Y-11692000D01*
X12628333Y-11692000D02*
X12618809Y-11682476D01*
X12618809Y-11682476D02*
X12609286Y-11663428D01*
X12609286Y-11663428D02*
X12599762Y-11625333D01*
X12599762Y-11625333D02*
X12599762Y-11577714D01*
X12599762Y-11577714D02*
X12609286Y-11539619D01*
X12609286Y-11539619D02*
X12618809Y-11520571D01*
X12618809Y-11520571D02*
X12628333Y-11511048D01*
X12628333Y-11511048D02*
X12647381Y-11501524D01*
X12799762Y-11701524D02*
X12799762Y-11568190D01*
X12799762Y-11587238D02*
X12809286Y-11577714D01*
X12809286Y-11577714D02*
X12828333Y-11568190D01*
X12828333Y-11568190D02*
X12856905Y-11568190D01*
X12856905Y-11568190D02*
X12875952Y-11577714D01*
X12875952Y-11577714D02*
X12885476Y-11596762D01*
X12885476Y-11596762D02*
X12885476Y-11701524D01*
X12885476Y-11596762D02*
X12895000Y-11577714D01*
X12895000Y-11577714D02*
X12914048Y-11568190D01*
X12914048Y-11568190D02*
X12942619Y-11568190D01*
X12942619Y-11568190D02*
X12961667Y-11577714D01*
X12961667Y-11577714D02*
X12971190Y-11596762D01*
X12971190Y-11596762D02*
X12971190Y-11701524D01*
X13066429Y-11701524D02*
X13066429Y-11568190D01*
X13066429Y-11587238D02*
X13075952Y-11577714D01*
X13075952Y-11577714D02*
X13095000Y-11568190D01*
X13095000Y-11568190D02*
X13123571Y-11568190D01*
X13123571Y-11568190D02*
X13142619Y-11577714D01*
X13142619Y-11577714D02*
X13152143Y-11596762D01*
X13152143Y-11596762D02*
X13152143Y-11701524D01*
X13152143Y-11596762D02*
X13161667Y-11577714D01*
X13161667Y-11577714D02*
X13180714Y-11568190D01*
X13180714Y-11568190D02*
X13209286Y-11568190D01*
X13209286Y-11568190D02*
X13228333Y-11577714D01*
X13228333Y-11577714D02*
X13237857Y-11596762D01*
X13237857Y-11596762D02*
X13237857Y-11701524D01*
X13628333Y-11492000D02*
X13456905Y-11749143D01*
X13885476Y-11501524D02*
X13904524Y-11501524D01*
X13904524Y-11501524D02*
X13923572Y-11511048D01*
X13923572Y-11511048D02*
X13933095Y-11520571D01*
X13933095Y-11520571D02*
X13942619Y-11539619D01*
X13942619Y-11539619D02*
X13952143Y-11577714D01*
X13952143Y-11577714D02*
X13952143Y-11625333D01*
X13952143Y-11625333D02*
X13942619Y-11663428D01*
X13942619Y-11663428D02*
X13933095Y-11682476D01*
X13933095Y-11682476D02*
X13923572Y-11692000D01*
X13923572Y-11692000D02*
X13904524Y-11701524D01*
X13904524Y-11701524D02*
X13885476Y-11701524D01*
X13885476Y-11701524D02*
X13866429Y-11692000D01*
X13866429Y-11692000D02*
X13856905Y-11682476D01*
X13856905Y-11682476D02*
X13847381Y-11663428D01*
X13847381Y-11663428D02*
X13837857Y-11625333D01*
X13837857Y-11625333D02*
X13837857Y-11577714D01*
X13837857Y-11577714D02*
X13847381Y-11539619D01*
X13847381Y-11539619D02*
X13856905Y-11520571D01*
X13856905Y-11520571D02*
X13866429Y-11511048D01*
X13866429Y-11511048D02*
X13885476Y-11501524D01*
X14037857Y-11682476D02*
X14047381Y-11692000D01*
X14047381Y-11692000D02*
X14037857Y-11701524D01*
X14037857Y-11701524D02*
X14028333Y-11692000D01*
X14028333Y-11692000D02*
X14037857Y-11682476D01*
X14037857Y-11682476D02*
X14037857Y-11701524D01*
X14171191Y-11501524D02*
X14190238Y-11501524D01*
X14190238Y-11501524D02*
X14209286Y-11511048D01*
X14209286Y-11511048D02*
X14218810Y-11520571D01*
X14218810Y-11520571D02*
X14228333Y-11539619D01*
X14228333Y-11539619D02*
X14237857Y-11577714D01*
X14237857Y-11577714D02*
X14237857Y-11625333D01*
X14237857Y-11625333D02*
X14228333Y-11663428D01*
X14228333Y-11663428D02*
X14218810Y-11682476D01*
X14218810Y-11682476D02*
X14209286Y-11692000D01*
X14209286Y-11692000D02*
X14190238Y-11701524D01*
X14190238Y-11701524D02*
X14171191Y-11701524D01*
X14171191Y-11701524D02*
X14152143Y-11692000D01*
X14152143Y-11692000D02*
X14142619Y-11682476D01*
X14142619Y-11682476D02*
X14133095Y-11663428D01*
X14133095Y-11663428D02*
X14123572Y-11625333D01*
X14123572Y-11625333D02*
X14123572Y-11577714D01*
X14123572Y-11577714D02*
X14133095Y-11539619D01*
X14133095Y-11539619D02*
X14142619Y-11520571D01*
X14142619Y-11520571D02*
X14152143Y-11511048D01*
X14152143Y-11511048D02*
X14171191Y-11501524D01*
X14314048Y-11520571D02*
X14323572Y-11511048D01*
X14323572Y-11511048D02*
X14342619Y-11501524D01*
X14342619Y-11501524D02*
X14390238Y-11501524D01*
X14390238Y-11501524D02*
X14409286Y-11511048D01*
X14409286Y-11511048D02*
X14418810Y-11520571D01*
X14418810Y-11520571D02*
X14428333Y-11539619D01*
X14428333Y-11539619D02*
X14428333Y-11558667D01*
X14428333Y-11558667D02*
X14418810Y-11587238D01*
X14418810Y-11587238D02*
X14304524Y-11701524D01*
X14304524Y-11701524D02*
X14428333Y-11701524D01*
X14495000Y-11501524D02*
X14628333Y-11501524D01*
X14628333Y-11501524D02*
X14542619Y-11701524D01*
X14790238Y-11501524D02*
X14752143Y-11501524D01*
X14752143Y-11501524D02*
X14733095Y-11511048D01*
X14733095Y-11511048D02*
X14723572Y-11520571D01*
X14723572Y-11520571D02*
X14704524Y-11549143D01*
X14704524Y-11549143D02*
X14695000Y-11587238D01*
X14695000Y-11587238D02*
X14695000Y-11663428D01*
X14695000Y-11663428D02*
X14704524Y-11682476D01*
X14704524Y-11682476D02*
X14714048Y-11692000D01*
X14714048Y-11692000D02*
X14733095Y-11701524D01*
X14733095Y-11701524D02*
X14771191Y-11701524D01*
X14771191Y-11701524D02*
X14790238Y-11692000D01*
X14790238Y-11692000D02*
X14799762Y-11682476D01*
X14799762Y-11682476D02*
X14809286Y-11663428D01*
X14809286Y-11663428D02*
X14809286Y-11615809D01*
X14809286Y-11615809D02*
X14799762Y-11596762D01*
X14799762Y-11596762D02*
X14790238Y-11587238D01*
X14790238Y-11587238D02*
X14771191Y-11577714D01*
X14771191Y-11577714D02*
X14733095Y-11577714D01*
X14733095Y-11577714D02*
X14714048Y-11587238D01*
X14714048Y-11587238D02*
X14704524Y-11596762D01*
X14704524Y-11596762D02*
X14695000Y-11615809D01*
X14885476Y-11501524D02*
X14885476Y-11539619D01*
X14961667Y-11501524D02*
X14961667Y-11539619D01*
X15256905Y-11777714D02*
X15247381Y-11768190D01*
X15247381Y-11768190D02*
X15228334Y-11739619D01*
X15228334Y-11739619D02*
X15218810Y-11720571D01*
X15218810Y-11720571D02*
X15209286Y-11692000D01*
X15209286Y-11692000D02*
X15199762Y-11644381D01*
X15199762Y-11644381D02*
X15199762Y-11606286D01*
X15199762Y-11606286D02*
X15209286Y-11558667D01*
X15209286Y-11558667D02*
X15218810Y-11530095D01*
X15218810Y-11530095D02*
X15228334Y-11511048D01*
X15228334Y-11511048D02*
X15247381Y-11482476D01*
X15247381Y-11482476D02*
X15256905Y-11472952D01*
X15437857Y-11701524D02*
X15323572Y-11701524D01*
X15380714Y-11701524D02*
X15380714Y-11501524D01*
X15380714Y-11501524D02*
X15361667Y-11530095D01*
X15361667Y-11530095D02*
X15342619Y-11549143D01*
X15342619Y-11549143D02*
X15323572Y-11558667D01*
X15609286Y-11501524D02*
X15571191Y-11501524D01*
X15571191Y-11501524D02*
X15552143Y-11511048D01*
X15552143Y-11511048D02*
X15542619Y-11520571D01*
X15542619Y-11520571D02*
X15523572Y-11549143D01*
X15523572Y-11549143D02*
X15514048Y-11587238D01*
X15514048Y-11587238D02*
X15514048Y-11663428D01*
X15514048Y-11663428D02*
X15523572Y-11682476D01*
X15523572Y-11682476D02*
X15533095Y-11692000D01*
X15533095Y-11692000D02*
X15552143Y-11701524D01*
X15552143Y-11701524D02*
X15590238Y-11701524D01*
X15590238Y-11701524D02*
X15609286Y-11692000D01*
X15609286Y-11692000D02*
X15618810Y-11682476D01*
X15618810Y-11682476D02*
X15628334Y-11663428D01*
X15628334Y-11663428D02*
X15628334Y-11615809D01*
X15628334Y-11615809D02*
X15618810Y-11596762D01*
X15618810Y-11596762D02*
X15609286Y-11587238D01*
X15609286Y-11587238D02*
X15590238Y-11577714D01*
X15590238Y-11577714D02*
X15552143Y-11577714D01*
X15552143Y-11577714D02*
X15533095Y-11587238D01*
X15533095Y-11587238D02*
X15523572Y-11596762D01*
X15523572Y-11596762D02*
X15514048Y-11615809D01*
X15866429Y-11701524D02*
X15866429Y-11501524D01*
X15952143Y-11701524D02*
X15952143Y-11596762D01*
X15952143Y-11596762D02*
X15942619Y-11577714D01*
X15942619Y-11577714D02*
X15923572Y-11568190D01*
X15923572Y-11568190D02*
X15895000Y-11568190D01*
X15895000Y-11568190D02*
X15875953Y-11577714D01*
X15875953Y-11577714D02*
X15866429Y-11587238D01*
X16075953Y-11701524D02*
X16056905Y-11692000D01*
X16056905Y-11692000D02*
X16047381Y-11682476D01*
X16047381Y-11682476D02*
X16037857Y-11663428D01*
X16037857Y-11663428D02*
X16037857Y-11606286D01*
X16037857Y-11606286D02*
X16047381Y-11587238D01*
X16047381Y-11587238D02*
X16056905Y-11577714D01*
X16056905Y-11577714D02*
X16075953Y-11568190D01*
X16075953Y-11568190D02*
X16104524Y-11568190D01*
X16104524Y-11568190D02*
X16123572Y-11577714D01*
X16123572Y-11577714D02*
X16133096Y-11587238D01*
X16133096Y-11587238D02*
X16142619Y-11606286D01*
X16142619Y-11606286D02*
X16142619Y-11663428D01*
X16142619Y-11663428D02*
X16133096Y-11682476D01*
X16133096Y-11682476D02*
X16123572Y-11692000D01*
X16123572Y-11692000D02*
X16104524Y-11701524D01*
X16104524Y-11701524D02*
X16075953Y-11701524D01*
X16256905Y-11701524D02*
X16237857Y-11692000D01*
X16237857Y-11692000D02*
X16228334Y-11672952D01*
X16228334Y-11672952D02*
X16228334Y-11501524D01*
X16409286Y-11692000D02*
X16390238Y-11701524D01*
X16390238Y-11701524D02*
X16352143Y-11701524D01*
X16352143Y-11701524D02*
X16333096Y-11692000D01*
X16333096Y-11692000D02*
X16323572Y-11672952D01*
X16323572Y-11672952D02*
X16323572Y-11596762D01*
X16323572Y-11596762D02*
X16333096Y-11577714D01*
X16333096Y-11577714D02*
X16352143Y-11568190D01*
X16352143Y-11568190D02*
X16390238Y-11568190D01*
X16390238Y-11568190D02*
X16409286Y-11577714D01*
X16409286Y-11577714D02*
X16418810Y-11596762D01*
X16418810Y-11596762D02*
X16418810Y-11615809D01*
X16418810Y-11615809D02*
X16323572Y-11634857D01*
X16495000Y-11692000D02*
X16514048Y-11701524D01*
X16514048Y-11701524D02*
X16552143Y-11701524D01*
X16552143Y-11701524D02*
X16571191Y-11692000D01*
X16571191Y-11692000D02*
X16580715Y-11672952D01*
X16580715Y-11672952D02*
X16580715Y-11663428D01*
X16580715Y-11663428D02*
X16571191Y-11644381D01*
X16571191Y-11644381D02*
X16552143Y-11634857D01*
X16552143Y-11634857D02*
X16523572Y-11634857D01*
X16523572Y-11634857D02*
X16504524Y-11625333D01*
X16504524Y-11625333D02*
X16495000Y-11606286D01*
X16495000Y-11606286D02*
X16495000Y-11596762D01*
X16495000Y-11596762D02*
X16504524Y-11577714D01*
X16504524Y-11577714D02*
X16523572Y-11568190D01*
X16523572Y-11568190D02*
X16552143Y-11568190D01*
X16552143Y-11568190D02*
X16571191Y-11577714D01*
X16647381Y-11777714D02*
X16656905Y-11768190D01*
X16656905Y-11768190D02*
X16675953Y-11739619D01*
X16675953Y-11739619D02*
X16685477Y-11720571D01*
X16685477Y-11720571D02*
X16695000Y-11692000D01*
X16695000Y-11692000D02*
X16704524Y-11644381D01*
X16704524Y-11644381D02*
X16704524Y-11606286D01*
X16704524Y-11606286D02*
X16695000Y-11558667D01*
X16695000Y-11558667D02*
X16685477Y-11530095D01*
X16685477Y-11530095D02*
X16675953Y-11511048D01*
X16675953Y-11511048D02*
X16656905Y-11482476D01*
X16656905Y-11482476D02*
X16647381Y-11472952D01*
D14*
X11655000Y-11833000D02*
X11655000Y-11913000D01*
X11615000Y-11873000D02*
X11695000Y-11873000D01*
D11*
X11980714Y-11765524D02*
X11999762Y-11765524D01*
X11999762Y-11765524D02*
X12018809Y-11775048D01*
X12018809Y-11775048D02*
X12028333Y-11784571D01*
X12028333Y-11784571D02*
X12037857Y-11803619D01*
X12037857Y-11803619D02*
X12047381Y-11841714D01*
X12047381Y-11841714D02*
X12047381Y-11889333D01*
X12047381Y-11889333D02*
X12037857Y-11927428D01*
X12037857Y-11927428D02*
X12028333Y-11946476D01*
X12028333Y-11946476D02*
X12018809Y-11956000D01*
X12018809Y-11956000D02*
X11999762Y-11965524D01*
X11999762Y-11965524D02*
X11980714Y-11965524D01*
X11980714Y-11965524D02*
X11961667Y-11956000D01*
X11961667Y-11956000D02*
X11952143Y-11946476D01*
X11952143Y-11946476D02*
X11942619Y-11927428D01*
X11942619Y-11927428D02*
X11933095Y-11889333D01*
X11933095Y-11889333D02*
X11933095Y-11841714D01*
X11933095Y-11841714D02*
X11942619Y-11803619D01*
X11942619Y-11803619D02*
X11952143Y-11784571D01*
X11952143Y-11784571D02*
X11961667Y-11775048D01*
X11961667Y-11775048D02*
X11980714Y-11765524D01*
X12133095Y-11946476D02*
X12142619Y-11956000D01*
X12142619Y-11956000D02*
X12133095Y-11965524D01*
X12133095Y-11965524D02*
X12123571Y-11956000D01*
X12123571Y-11956000D02*
X12133095Y-11946476D01*
X12133095Y-11946476D02*
X12133095Y-11965524D01*
X12256905Y-11851238D02*
X12237857Y-11841714D01*
X12237857Y-11841714D02*
X12228333Y-11832190D01*
X12228333Y-11832190D02*
X12218809Y-11813143D01*
X12218809Y-11813143D02*
X12218809Y-11803619D01*
X12218809Y-11803619D02*
X12228333Y-11784571D01*
X12228333Y-11784571D02*
X12237857Y-11775048D01*
X12237857Y-11775048D02*
X12256905Y-11765524D01*
X12256905Y-11765524D02*
X12295000Y-11765524D01*
X12295000Y-11765524D02*
X12314048Y-11775048D01*
X12314048Y-11775048D02*
X12323571Y-11784571D01*
X12323571Y-11784571D02*
X12333095Y-11803619D01*
X12333095Y-11803619D02*
X12333095Y-11813143D01*
X12333095Y-11813143D02*
X12323571Y-11832190D01*
X12323571Y-11832190D02*
X12314048Y-11841714D01*
X12314048Y-11841714D02*
X12295000Y-11851238D01*
X12295000Y-11851238D02*
X12256905Y-11851238D01*
X12256905Y-11851238D02*
X12237857Y-11860762D01*
X12237857Y-11860762D02*
X12228333Y-11870286D01*
X12228333Y-11870286D02*
X12218809Y-11889333D01*
X12218809Y-11889333D02*
X12218809Y-11927428D01*
X12218809Y-11927428D02*
X12228333Y-11946476D01*
X12228333Y-11946476D02*
X12237857Y-11956000D01*
X12237857Y-11956000D02*
X12256905Y-11965524D01*
X12256905Y-11965524D02*
X12295000Y-11965524D01*
X12295000Y-11965524D02*
X12314048Y-11956000D01*
X12314048Y-11956000D02*
X12323571Y-11946476D01*
X12323571Y-11946476D02*
X12333095Y-11927428D01*
X12333095Y-11927428D02*
X12333095Y-11889333D01*
X12333095Y-11889333D02*
X12323571Y-11870286D01*
X12323571Y-11870286D02*
X12314048Y-11860762D01*
X12314048Y-11860762D02*
X12295000Y-11851238D01*
X12456905Y-11765524D02*
X12475952Y-11765524D01*
X12475952Y-11765524D02*
X12495000Y-11775048D01*
X12495000Y-11775048D02*
X12504524Y-11784571D01*
X12504524Y-11784571D02*
X12514048Y-11803619D01*
X12514048Y-11803619D02*
X12523571Y-11841714D01*
X12523571Y-11841714D02*
X12523571Y-11889333D01*
X12523571Y-11889333D02*
X12514048Y-11927428D01*
X12514048Y-11927428D02*
X12504524Y-11946476D01*
X12504524Y-11946476D02*
X12495000Y-11956000D01*
X12495000Y-11956000D02*
X12475952Y-11965524D01*
X12475952Y-11965524D02*
X12456905Y-11965524D01*
X12456905Y-11965524D02*
X12437857Y-11956000D01*
X12437857Y-11956000D02*
X12428333Y-11946476D01*
X12428333Y-11946476D02*
X12418809Y-11927428D01*
X12418809Y-11927428D02*
X12409286Y-11889333D01*
X12409286Y-11889333D02*
X12409286Y-11841714D01*
X12409286Y-11841714D02*
X12418809Y-11803619D01*
X12418809Y-11803619D02*
X12428333Y-11784571D01*
X12428333Y-11784571D02*
X12437857Y-11775048D01*
X12437857Y-11775048D02*
X12456905Y-11765524D01*
X12647381Y-11765524D02*
X12666429Y-11765524D01*
X12666429Y-11765524D02*
X12685476Y-11775048D01*
X12685476Y-11775048D02*
X12695000Y-11784571D01*
X12695000Y-11784571D02*
X12704524Y-11803619D01*
X12704524Y-11803619D02*
X12714048Y-11841714D01*
X12714048Y-11841714D02*
X12714048Y-11889333D01*
X12714048Y-11889333D02*
X12704524Y-11927428D01*
X12704524Y-11927428D02*
X12695000Y-11946476D01*
X12695000Y-11946476D02*
X12685476Y-11956000D01*
X12685476Y-11956000D02*
X12666429Y-11965524D01*
X12666429Y-11965524D02*
X12647381Y-11965524D01*
X12647381Y-11965524D02*
X12628333Y-11956000D01*
X12628333Y-11956000D02*
X12618809Y-11946476D01*
X12618809Y-11946476D02*
X12609286Y-11927428D01*
X12609286Y-11927428D02*
X12599762Y-11889333D01*
X12599762Y-11889333D02*
X12599762Y-11841714D01*
X12599762Y-11841714D02*
X12609286Y-11803619D01*
X12609286Y-11803619D02*
X12618809Y-11784571D01*
X12618809Y-11784571D02*
X12628333Y-11775048D01*
X12628333Y-11775048D02*
X12647381Y-11765524D01*
X12799762Y-11965524D02*
X12799762Y-11832190D01*
X12799762Y-11851238D02*
X12809286Y-11841714D01*
X12809286Y-11841714D02*
X12828333Y-11832190D01*
X12828333Y-11832190D02*
X12856905Y-11832190D01*
X12856905Y-11832190D02*
X12875952Y-11841714D01*
X12875952Y-11841714D02*
X12885476Y-11860762D01*
X12885476Y-11860762D02*
X12885476Y-11965524D01*
X12885476Y-11860762D02*
X12895000Y-11841714D01*
X12895000Y-11841714D02*
X12914048Y-11832190D01*
X12914048Y-11832190D02*
X12942619Y-11832190D01*
X12942619Y-11832190D02*
X12961667Y-11841714D01*
X12961667Y-11841714D02*
X12971190Y-11860762D01*
X12971190Y-11860762D02*
X12971190Y-11965524D01*
X13066429Y-11965524D02*
X13066429Y-11832190D01*
X13066429Y-11851238D02*
X13075952Y-11841714D01*
X13075952Y-11841714D02*
X13095000Y-11832190D01*
X13095000Y-11832190D02*
X13123571Y-11832190D01*
X13123571Y-11832190D02*
X13142619Y-11841714D01*
X13142619Y-11841714D02*
X13152143Y-11860762D01*
X13152143Y-11860762D02*
X13152143Y-11965524D01*
X13152143Y-11860762D02*
X13161667Y-11841714D01*
X13161667Y-11841714D02*
X13180714Y-11832190D01*
X13180714Y-11832190D02*
X13209286Y-11832190D01*
X13209286Y-11832190D02*
X13228333Y-11841714D01*
X13228333Y-11841714D02*
X13237857Y-11860762D01*
X13237857Y-11860762D02*
X13237857Y-11965524D01*
X13628333Y-11756000D02*
X13456905Y-12013143D01*
X13885476Y-11765524D02*
X13904524Y-11765524D01*
X13904524Y-11765524D02*
X13923572Y-11775048D01*
X13923572Y-11775048D02*
X13933095Y-11784571D01*
X13933095Y-11784571D02*
X13942619Y-11803619D01*
X13942619Y-11803619D02*
X13952143Y-11841714D01*
X13952143Y-11841714D02*
X13952143Y-11889333D01*
X13952143Y-11889333D02*
X13942619Y-11927428D01*
X13942619Y-11927428D02*
X13933095Y-11946476D01*
X13933095Y-11946476D02*
X13923572Y-11956000D01*
X13923572Y-11956000D02*
X13904524Y-11965524D01*
X13904524Y-11965524D02*
X13885476Y-11965524D01*
X13885476Y-11965524D02*
X13866429Y-11956000D01*
X13866429Y-11956000D02*
X13856905Y-11946476D01*
X13856905Y-11946476D02*
X13847381Y-11927428D01*
X13847381Y-11927428D02*
X13837857Y-11889333D01*
X13837857Y-11889333D02*
X13837857Y-11841714D01*
X13837857Y-11841714D02*
X13847381Y-11803619D01*
X13847381Y-11803619D02*
X13856905Y-11784571D01*
X13856905Y-11784571D02*
X13866429Y-11775048D01*
X13866429Y-11775048D02*
X13885476Y-11765524D01*
X14037857Y-11946476D02*
X14047381Y-11956000D01*
X14047381Y-11956000D02*
X14037857Y-11965524D01*
X14037857Y-11965524D02*
X14028333Y-11956000D01*
X14028333Y-11956000D02*
X14037857Y-11946476D01*
X14037857Y-11946476D02*
X14037857Y-11965524D01*
X14171191Y-11765524D02*
X14190238Y-11765524D01*
X14190238Y-11765524D02*
X14209286Y-11775048D01*
X14209286Y-11775048D02*
X14218810Y-11784571D01*
X14218810Y-11784571D02*
X14228333Y-11803619D01*
X14228333Y-11803619D02*
X14237857Y-11841714D01*
X14237857Y-11841714D02*
X14237857Y-11889333D01*
X14237857Y-11889333D02*
X14228333Y-11927428D01*
X14228333Y-11927428D02*
X14218810Y-11946476D01*
X14218810Y-11946476D02*
X14209286Y-11956000D01*
X14209286Y-11956000D02*
X14190238Y-11965524D01*
X14190238Y-11965524D02*
X14171191Y-11965524D01*
X14171191Y-11965524D02*
X14152143Y-11956000D01*
X14152143Y-11956000D02*
X14142619Y-11946476D01*
X14142619Y-11946476D02*
X14133095Y-11927428D01*
X14133095Y-11927428D02*
X14123572Y-11889333D01*
X14123572Y-11889333D02*
X14123572Y-11841714D01*
X14123572Y-11841714D02*
X14133095Y-11803619D01*
X14133095Y-11803619D02*
X14142619Y-11784571D01*
X14142619Y-11784571D02*
X14152143Y-11775048D01*
X14152143Y-11775048D02*
X14171191Y-11765524D01*
X14304524Y-11765524D02*
X14428333Y-11765524D01*
X14428333Y-11765524D02*
X14361667Y-11841714D01*
X14361667Y-11841714D02*
X14390238Y-11841714D01*
X14390238Y-11841714D02*
X14409286Y-11851238D01*
X14409286Y-11851238D02*
X14418810Y-11860762D01*
X14418810Y-11860762D02*
X14428333Y-11879809D01*
X14428333Y-11879809D02*
X14428333Y-11927428D01*
X14428333Y-11927428D02*
X14418810Y-11946476D01*
X14418810Y-11946476D02*
X14409286Y-11956000D01*
X14409286Y-11956000D02*
X14390238Y-11965524D01*
X14390238Y-11965524D02*
X14333095Y-11965524D01*
X14333095Y-11965524D02*
X14314048Y-11956000D01*
X14314048Y-11956000D02*
X14304524Y-11946476D01*
X14618810Y-11965524D02*
X14504524Y-11965524D01*
X14561667Y-11965524D02*
X14561667Y-11765524D01*
X14561667Y-11765524D02*
X14542619Y-11794095D01*
X14542619Y-11794095D02*
X14523572Y-11813143D01*
X14523572Y-11813143D02*
X14504524Y-11822667D01*
X14799762Y-11765524D02*
X14704524Y-11765524D01*
X14704524Y-11765524D02*
X14695000Y-11860762D01*
X14695000Y-11860762D02*
X14704524Y-11851238D01*
X14704524Y-11851238D02*
X14723572Y-11841714D01*
X14723572Y-11841714D02*
X14771191Y-11841714D01*
X14771191Y-11841714D02*
X14790238Y-11851238D01*
X14790238Y-11851238D02*
X14799762Y-11860762D01*
X14799762Y-11860762D02*
X14809286Y-11879809D01*
X14809286Y-11879809D02*
X14809286Y-11927428D01*
X14809286Y-11927428D02*
X14799762Y-11946476D01*
X14799762Y-11946476D02*
X14790238Y-11956000D01*
X14790238Y-11956000D02*
X14771191Y-11965524D01*
X14771191Y-11965524D02*
X14723572Y-11965524D01*
X14723572Y-11965524D02*
X14704524Y-11956000D01*
X14704524Y-11956000D02*
X14695000Y-11946476D01*
X14885476Y-11765524D02*
X14885476Y-11803619D01*
X14961667Y-11765524D02*
X14961667Y-11803619D01*
X15256905Y-12041714D02*
X15247381Y-12032190D01*
X15247381Y-12032190D02*
X15228334Y-12003619D01*
X15228334Y-12003619D02*
X15218810Y-11984571D01*
X15218810Y-11984571D02*
X15209286Y-11956000D01*
X15209286Y-11956000D02*
X15199762Y-11908381D01*
X15199762Y-11908381D02*
X15199762Y-11870286D01*
X15199762Y-11870286D02*
X15209286Y-11822667D01*
X15209286Y-11822667D02*
X15218810Y-11794095D01*
X15218810Y-11794095D02*
X15228334Y-11775048D01*
X15228334Y-11775048D02*
X15247381Y-11746476D01*
X15247381Y-11746476D02*
X15256905Y-11736952D01*
X15428334Y-11765524D02*
X15333095Y-11765524D01*
X15333095Y-11765524D02*
X15323572Y-11860762D01*
X15323572Y-11860762D02*
X15333095Y-11851238D01*
X15333095Y-11851238D02*
X15352143Y-11841714D01*
X15352143Y-11841714D02*
X15399762Y-11841714D01*
X15399762Y-11841714D02*
X15418810Y-11851238D01*
X15418810Y-11851238D02*
X15428334Y-11860762D01*
X15428334Y-11860762D02*
X15437857Y-11879809D01*
X15437857Y-11879809D02*
X15437857Y-11927428D01*
X15437857Y-11927428D02*
X15428334Y-11946476D01*
X15428334Y-11946476D02*
X15418810Y-11956000D01*
X15418810Y-11956000D02*
X15399762Y-11965524D01*
X15399762Y-11965524D02*
X15352143Y-11965524D01*
X15352143Y-11965524D02*
X15333095Y-11956000D01*
X15333095Y-11956000D02*
X15323572Y-11946476D01*
X15552143Y-11851238D02*
X15533095Y-11841714D01*
X15533095Y-11841714D02*
X15523572Y-11832190D01*
X15523572Y-11832190D02*
X15514048Y-11813143D01*
X15514048Y-11813143D02*
X15514048Y-11803619D01*
X15514048Y-11803619D02*
X15523572Y-11784571D01*
X15523572Y-11784571D02*
X15533095Y-11775048D01*
X15533095Y-11775048D02*
X15552143Y-11765524D01*
X15552143Y-11765524D02*
X15590238Y-11765524D01*
X15590238Y-11765524D02*
X15609286Y-11775048D01*
X15609286Y-11775048D02*
X15618810Y-11784571D01*
X15618810Y-11784571D02*
X15628334Y-11803619D01*
X15628334Y-11803619D02*
X15628334Y-11813143D01*
X15628334Y-11813143D02*
X15618810Y-11832190D01*
X15618810Y-11832190D02*
X15609286Y-11841714D01*
X15609286Y-11841714D02*
X15590238Y-11851238D01*
X15590238Y-11851238D02*
X15552143Y-11851238D01*
X15552143Y-11851238D02*
X15533095Y-11860762D01*
X15533095Y-11860762D02*
X15523572Y-11870286D01*
X15523572Y-11870286D02*
X15514048Y-11889333D01*
X15514048Y-11889333D02*
X15514048Y-11927428D01*
X15514048Y-11927428D02*
X15523572Y-11946476D01*
X15523572Y-11946476D02*
X15533095Y-11956000D01*
X15533095Y-11956000D02*
X15552143Y-11965524D01*
X15552143Y-11965524D02*
X15590238Y-11965524D01*
X15590238Y-11965524D02*
X15609286Y-11956000D01*
X15609286Y-11956000D02*
X15618810Y-11946476D01*
X15618810Y-11946476D02*
X15628334Y-11927428D01*
X15628334Y-11927428D02*
X15628334Y-11889333D01*
X15628334Y-11889333D02*
X15618810Y-11870286D01*
X15618810Y-11870286D02*
X15609286Y-11860762D01*
X15609286Y-11860762D02*
X15590238Y-11851238D01*
X15866429Y-11965524D02*
X15866429Y-11765524D01*
X15952143Y-11965524D02*
X15952143Y-11860762D01*
X15952143Y-11860762D02*
X15942619Y-11841714D01*
X15942619Y-11841714D02*
X15923572Y-11832190D01*
X15923572Y-11832190D02*
X15895000Y-11832190D01*
X15895000Y-11832190D02*
X15875953Y-11841714D01*
X15875953Y-11841714D02*
X15866429Y-11851238D01*
X16075953Y-11965524D02*
X16056905Y-11956000D01*
X16056905Y-11956000D02*
X16047381Y-11946476D01*
X16047381Y-11946476D02*
X16037857Y-11927428D01*
X16037857Y-11927428D02*
X16037857Y-11870286D01*
X16037857Y-11870286D02*
X16047381Y-11851238D01*
X16047381Y-11851238D02*
X16056905Y-11841714D01*
X16056905Y-11841714D02*
X16075953Y-11832190D01*
X16075953Y-11832190D02*
X16104524Y-11832190D01*
X16104524Y-11832190D02*
X16123572Y-11841714D01*
X16123572Y-11841714D02*
X16133096Y-11851238D01*
X16133096Y-11851238D02*
X16142619Y-11870286D01*
X16142619Y-11870286D02*
X16142619Y-11927428D01*
X16142619Y-11927428D02*
X16133096Y-11946476D01*
X16133096Y-11946476D02*
X16123572Y-11956000D01*
X16123572Y-11956000D02*
X16104524Y-11965524D01*
X16104524Y-11965524D02*
X16075953Y-11965524D01*
X16256905Y-11965524D02*
X16237857Y-11956000D01*
X16237857Y-11956000D02*
X16228334Y-11936952D01*
X16228334Y-11936952D02*
X16228334Y-11765524D01*
X16409286Y-11956000D02*
X16390238Y-11965524D01*
X16390238Y-11965524D02*
X16352143Y-11965524D01*
X16352143Y-11965524D02*
X16333096Y-11956000D01*
X16333096Y-11956000D02*
X16323572Y-11936952D01*
X16323572Y-11936952D02*
X16323572Y-11860762D01*
X16323572Y-11860762D02*
X16333096Y-11841714D01*
X16333096Y-11841714D02*
X16352143Y-11832190D01*
X16352143Y-11832190D02*
X16390238Y-11832190D01*
X16390238Y-11832190D02*
X16409286Y-11841714D01*
X16409286Y-11841714D02*
X16418810Y-11860762D01*
X16418810Y-11860762D02*
X16418810Y-11879809D01*
X16418810Y-11879809D02*
X16323572Y-11898857D01*
X16495000Y-11956000D02*
X16514048Y-11965524D01*
X16514048Y-11965524D02*
X16552143Y-11965524D01*
X16552143Y-11965524D02*
X16571191Y-11956000D01*
X16571191Y-11956000D02*
X16580715Y-11936952D01*
X16580715Y-11936952D02*
X16580715Y-11927428D01*
X16580715Y-11927428D02*
X16571191Y-11908381D01*
X16571191Y-11908381D02*
X16552143Y-11898857D01*
X16552143Y-11898857D02*
X16523572Y-11898857D01*
X16523572Y-11898857D02*
X16504524Y-11889333D01*
X16504524Y-11889333D02*
X16495000Y-11870286D01*
X16495000Y-11870286D02*
X16495000Y-11860762D01*
X16495000Y-11860762D02*
X16504524Y-11841714D01*
X16504524Y-11841714D02*
X16523572Y-11832190D01*
X16523572Y-11832190D02*
X16552143Y-11832190D01*
X16552143Y-11832190D02*
X16571191Y-11841714D01*
X16647381Y-12041714D02*
X16656905Y-12032190D01*
X16656905Y-12032190D02*
X16675953Y-12003619D01*
X16675953Y-12003619D02*
X16685477Y-11984571D01*
X16685477Y-11984571D02*
X16695000Y-11956000D01*
X16695000Y-11956000D02*
X16704524Y-11908381D01*
X16704524Y-11908381D02*
X16704524Y-11870286D01*
X16704524Y-11870286D02*
X16695000Y-11822667D01*
X16695000Y-11822667D02*
X16685477Y-11794095D01*
X16685477Y-11794095D02*
X16675953Y-11775048D01*
X16675953Y-11775048D02*
X16656905Y-11746476D01*
X16656905Y-11746476D02*
X16647381Y-11736952D01*
D10*
X11680356Y-12172356D02*
X11680356Y-12101644D01*
X11609644Y-12101644D01*
X11609644Y-12172356D01*
X11680356Y-12172356D01*
D11*
X12047381Y-12229524D02*
X11933095Y-12229524D01*
X11990238Y-12229524D02*
X11990238Y-12029524D01*
X11990238Y-12029524D02*
X11971190Y-12058095D01*
X11971190Y-12058095D02*
X11952143Y-12077143D01*
X11952143Y-12077143D02*
X11933095Y-12086667D01*
X12133095Y-12210476D02*
X12142619Y-12220000D01*
X12142619Y-12220000D02*
X12133095Y-12229524D01*
X12133095Y-12229524D02*
X12123571Y-12220000D01*
X12123571Y-12220000D02*
X12133095Y-12210476D01*
X12133095Y-12210476D02*
X12133095Y-12229524D01*
X12266428Y-12029524D02*
X12285476Y-12029524D01*
X12285476Y-12029524D02*
X12304524Y-12039048D01*
X12304524Y-12039048D02*
X12314048Y-12048571D01*
X12314048Y-12048571D02*
X12323571Y-12067619D01*
X12323571Y-12067619D02*
X12333095Y-12105714D01*
X12333095Y-12105714D02*
X12333095Y-12153333D01*
X12333095Y-12153333D02*
X12323571Y-12191428D01*
X12323571Y-12191428D02*
X12314048Y-12210476D01*
X12314048Y-12210476D02*
X12304524Y-12220000D01*
X12304524Y-12220000D02*
X12285476Y-12229524D01*
X12285476Y-12229524D02*
X12266428Y-12229524D01*
X12266428Y-12229524D02*
X12247381Y-12220000D01*
X12247381Y-12220000D02*
X12237857Y-12210476D01*
X12237857Y-12210476D02*
X12228333Y-12191428D01*
X12228333Y-12191428D02*
X12218809Y-12153333D01*
X12218809Y-12153333D02*
X12218809Y-12105714D01*
X12218809Y-12105714D02*
X12228333Y-12067619D01*
X12228333Y-12067619D02*
X12237857Y-12048571D01*
X12237857Y-12048571D02*
X12247381Y-12039048D01*
X12247381Y-12039048D02*
X12266428Y-12029524D01*
X12456905Y-12029524D02*
X12475952Y-12029524D01*
X12475952Y-12029524D02*
X12495000Y-12039048D01*
X12495000Y-12039048D02*
X12504524Y-12048571D01*
X12504524Y-12048571D02*
X12514048Y-12067619D01*
X12514048Y-12067619D02*
X12523571Y-12105714D01*
X12523571Y-12105714D02*
X12523571Y-12153333D01*
X12523571Y-12153333D02*
X12514048Y-12191428D01*
X12514048Y-12191428D02*
X12504524Y-12210476D01*
X12504524Y-12210476D02*
X12495000Y-12220000D01*
X12495000Y-12220000D02*
X12475952Y-12229524D01*
X12475952Y-12229524D02*
X12456905Y-12229524D01*
X12456905Y-12229524D02*
X12437857Y-12220000D01*
X12437857Y-12220000D02*
X12428333Y-12210476D01*
X12428333Y-12210476D02*
X12418809Y-12191428D01*
X12418809Y-12191428D02*
X12409286Y-12153333D01*
X12409286Y-12153333D02*
X12409286Y-12105714D01*
X12409286Y-12105714D02*
X12418809Y-12067619D01*
X12418809Y-12067619D02*
X12428333Y-12048571D01*
X12428333Y-12048571D02*
X12437857Y-12039048D01*
X12437857Y-12039048D02*
X12456905Y-12029524D01*
X12647381Y-12029524D02*
X12666429Y-12029524D01*
X12666429Y-12029524D02*
X12685476Y-12039048D01*
X12685476Y-12039048D02*
X12695000Y-12048571D01*
X12695000Y-12048571D02*
X12704524Y-12067619D01*
X12704524Y-12067619D02*
X12714048Y-12105714D01*
X12714048Y-12105714D02*
X12714048Y-12153333D01*
X12714048Y-12153333D02*
X12704524Y-12191428D01*
X12704524Y-12191428D02*
X12695000Y-12210476D01*
X12695000Y-12210476D02*
X12685476Y-12220000D01*
X12685476Y-12220000D02*
X12666429Y-12229524D01*
X12666429Y-12229524D02*
X12647381Y-12229524D01*
X12647381Y-12229524D02*
X12628333Y-12220000D01*
X12628333Y-12220000D02*
X12618809Y-12210476D01*
X12618809Y-12210476D02*
X12609286Y-12191428D01*
X12609286Y-12191428D02*
X12599762Y-12153333D01*
X12599762Y-12153333D02*
X12599762Y-12105714D01*
X12599762Y-12105714D02*
X12609286Y-12067619D01*
X12609286Y-12067619D02*
X12618809Y-12048571D01*
X12618809Y-12048571D02*
X12628333Y-12039048D01*
X12628333Y-12039048D02*
X12647381Y-12029524D01*
X12799762Y-12229524D02*
X12799762Y-12096190D01*
X12799762Y-12115238D02*
X12809286Y-12105714D01*
X12809286Y-12105714D02*
X12828333Y-12096190D01*
X12828333Y-12096190D02*
X12856905Y-12096190D01*
X12856905Y-12096190D02*
X12875952Y-12105714D01*
X12875952Y-12105714D02*
X12885476Y-12124762D01*
X12885476Y-12124762D02*
X12885476Y-12229524D01*
X12885476Y-12124762D02*
X12895000Y-12105714D01*
X12895000Y-12105714D02*
X12914048Y-12096190D01*
X12914048Y-12096190D02*
X12942619Y-12096190D01*
X12942619Y-12096190D02*
X12961667Y-12105714D01*
X12961667Y-12105714D02*
X12971190Y-12124762D01*
X12971190Y-12124762D02*
X12971190Y-12229524D01*
X13066429Y-12229524D02*
X13066429Y-12096190D01*
X13066429Y-12115238D02*
X13075952Y-12105714D01*
X13075952Y-12105714D02*
X13095000Y-12096190D01*
X13095000Y-12096190D02*
X13123571Y-12096190D01*
X13123571Y-12096190D02*
X13142619Y-12105714D01*
X13142619Y-12105714D02*
X13152143Y-12124762D01*
X13152143Y-12124762D02*
X13152143Y-12229524D01*
X13152143Y-12124762D02*
X13161667Y-12105714D01*
X13161667Y-12105714D02*
X13180714Y-12096190D01*
X13180714Y-12096190D02*
X13209286Y-12096190D01*
X13209286Y-12096190D02*
X13228333Y-12105714D01*
X13228333Y-12105714D02*
X13237857Y-12124762D01*
X13237857Y-12124762D02*
X13237857Y-12229524D01*
X13628333Y-12020000D02*
X13456905Y-12277143D01*
X13885476Y-12029524D02*
X13904524Y-12029524D01*
X13904524Y-12029524D02*
X13923572Y-12039048D01*
X13923572Y-12039048D02*
X13933095Y-12048571D01*
X13933095Y-12048571D02*
X13942619Y-12067619D01*
X13942619Y-12067619D02*
X13952143Y-12105714D01*
X13952143Y-12105714D02*
X13952143Y-12153333D01*
X13952143Y-12153333D02*
X13942619Y-12191428D01*
X13942619Y-12191428D02*
X13933095Y-12210476D01*
X13933095Y-12210476D02*
X13923572Y-12220000D01*
X13923572Y-12220000D02*
X13904524Y-12229524D01*
X13904524Y-12229524D02*
X13885476Y-12229524D01*
X13885476Y-12229524D02*
X13866429Y-12220000D01*
X13866429Y-12220000D02*
X13856905Y-12210476D01*
X13856905Y-12210476D02*
X13847381Y-12191428D01*
X13847381Y-12191428D02*
X13837857Y-12153333D01*
X13837857Y-12153333D02*
X13837857Y-12105714D01*
X13837857Y-12105714D02*
X13847381Y-12067619D01*
X13847381Y-12067619D02*
X13856905Y-12048571D01*
X13856905Y-12048571D02*
X13866429Y-12039048D01*
X13866429Y-12039048D02*
X13885476Y-12029524D01*
X14037857Y-12210476D02*
X14047381Y-12220000D01*
X14047381Y-12220000D02*
X14037857Y-12229524D01*
X14037857Y-12229524D02*
X14028333Y-12220000D01*
X14028333Y-12220000D02*
X14037857Y-12210476D01*
X14037857Y-12210476D02*
X14037857Y-12229524D01*
X14171191Y-12029524D02*
X14190238Y-12029524D01*
X14190238Y-12029524D02*
X14209286Y-12039048D01*
X14209286Y-12039048D02*
X14218810Y-12048571D01*
X14218810Y-12048571D02*
X14228333Y-12067619D01*
X14228333Y-12067619D02*
X14237857Y-12105714D01*
X14237857Y-12105714D02*
X14237857Y-12153333D01*
X14237857Y-12153333D02*
X14228333Y-12191428D01*
X14228333Y-12191428D02*
X14218810Y-12210476D01*
X14218810Y-12210476D02*
X14209286Y-12220000D01*
X14209286Y-12220000D02*
X14190238Y-12229524D01*
X14190238Y-12229524D02*
X14171191Y-12229524D01*
X14171191Y-12229524D02*
X14152143Y-12220000D01*
X14152143Y-12220000D02*
X14142619Y-12210476D01*
X14142619Y-12210476D02*
X14133095Y-12191428D01*
X14133095Y-12191428D02*
X14123572Y-12153333D01*
X14123572Y-12153333D02*
X14123572Y-12105714D01*
X14123572Y-12105714D02*
X14133095Y-12067619D01*
X14133095Y-12067619D02*
X14142619Y-12048571D01*
X14142619Y-12048571D02*
X14152143Y-12039048D01*
X14152143Y-12039048D02*
X14171191Y-12029524D01*
X14304524Y-12029524D02*
X14428333Y-12029524D01*
X14428333Y-12029524D02*
X14361667Y-12105714D01*
X14361667Y-12105714D02*
X14390238Y-12105714D01*
X14390238Y-12105714D02*
X14409286Y-12115238D01*
X14409286Y-12115238D02*
X14418810Y-12124762D01*
X14418810Y-12124762D02*
X14428333Y-12143809D01*
X14428333Y-12143809D02*
X14428333Y-12191428D01*
X14428333Y-12191428D02*
X14418810Y-12210476D01*
X14418810Y-12210476D02*
X14409286Y-12220000D01*
X14409286Y-12220000D02*
X14390238Y-12229524D01*
X14390238Y-12229524D02*
X14333095Y-12229524D01*
X14333095Y-12229524D02*
X14314048Y-12220000D01*
X14314048Y-12220000D02*
X14304524Y-12210476D01*
X14523572Y-12229524D02*
X14561667Y-12229524D01*
X14561667Y-12229524D02*
X14580714Y-12220000D01*
X14580714Y-12220000D02*
X14590238Y-12210476D01*
X14590238Y-12210476D02*
X14609286Y-12181905D01*
X14609286Y-12181905D02*
X14618810Y-12143809D01*
X14618810Y-12143809D02*
X14618810Y-12067619D01*
X14618810Y-12067619D02*
X14609286Y-12048571D01*
X14609286Y-12048571D02*
X14599762Y-12039048D01*
X14599762Y-12039048D02*
X14580714Y-12029524D01*
X14580714Y-12029524D02*
X14542619Y-12029524D01*
X14542619Y-12029524D02*
X14523572Y-12039048D01*
X14523572Y-12039048D02*
X14514048Y-12048571D01*
X14514048Y-12048571D02*
X14504524Y-12067619D01*
X14504524Y-12067619D02*
X14504524Y-12115238D01*
X14504524Y-12115238D02*
X14514048Y-12134286D01*
X14514048Y-12134286D02*
X14523572Y-12143809D01*
X14523572Y-12143809D02*
X14542619Y-12153333D01*
X14542619Y-12153333D02*
X14580714Y-12153333D01*
X14580714Y-12153333D02*
X14599762Y-12143809D01*
X14599762Y-12143809D02*
X14609286Y-12134286D01*
X14609286Y-12134286D02*
X14618810Y-12115238D01*
X14790238Y-12096190D02*
X14790238Y-12229524D01*
X14742619Y-12020000D02*
X14695000Y-12162857D01*
X14695000Y-12162857D02*
X14818810Y-12162857D01*
X14885476Y-12029524D02*
X14885476Y-12067619D01*
X14961667Y-12029524D02*
X14961667Y-12067619D01*
X15256905Y-12305714D02*
X15247381Y-12296190D01*
X15247381Y-12296190D02*
X15228334Y-12267619D01*
X15228334Y-12267619D02*
X15218810Y-12248571D01*
X15218810Y-12248571D02*
X15209286Y-12220000D01*
X15209286Y-12220000D02*
X15199762Y-12172381D01*
X15199762Y-12172381D02*
X15199762Y-12134286D01*
X15199762Y-12134286D02*
X15209286Y-12086667D01*
X15209286Y-12086667D02*
X15218810Y-12058095D01*
X15218810Y-12058095D02*
X15228334Y-12039048D01*
X15228334Y-12039048D02*
X15247381Y-12010476D01*
X15247381Y-12010476D02*
X15256905Y-12000952D01*
X15418810Y-12096190D02*
X15418810Y-12229524D01*
X15371191Y-12020000D02*
X15323572Y-12162857D01*
X15323572Y-12162857D02*
X15447381Y-12162857D01*
X15618810Y-12029524D02*
X15523572Y-12029524D01*
X15523572Y-12029524D02*
X15514048Y-12124762D01*
X15514048Y-12124762D02*
X15523572Y-12115238D01*
X15523572Y-12115238D02*
X15542619Y-12105714D01*
X15542619Y-12105714D02*
X15590238Y-12105714D01*
X15590238Y-12105714D02*
X15609286Y-12115238D01*
X15609286Y-12115238D02*
X15618810Y-12124762D01*
X15618810Y-12124762D02*
X15628334Y-12143809D01*
X15628334Y-12143809D02*
X15628334Y-12191428D01*
X15628334Y-12191428D02*
X15618810Y-12210476D01*
X15618810Y-12210476D02*
X15609286Y-12220000D01*
X15609286Y-12220000D02*
X15590238Y-12229524D01*
X15590238Y-12229524D02*
X15542619Y-12229524D01*
X15542619Y-12229524D02*
X15523572Y-12220000D01*
X15523572Y-12220000D02*
X15514048Y-12210476D01*
X15866429Y-12229524D02*
X15866429Y-12029524D01*
X15952143Y-12229524D02*
X15952143Y-12124762D01*
X15952143Y-12124762D02*
X15942619Y-12105714D01*
X15942619Y-12105714D02*
X15923572Y-12096190D01*
X15923572Y-12096190D02*
X15895000Y-12096190D01*
X15895000Y-12096190D02*
X15875953Y-12105714D01*
X15875953Y-12105714D02*
X15866429Y-12115238D01*
X16075953Y-12229524D02*
X16056905Y-12220000D01*
X16056905Y-12220000D02*
X16047381Y-12210476D01*
X16047381Y-12210476D02*
X16037857Y-12191428D01*
X16037857Y-12191428D02*
X16037857Y-12134286D01*
X16037857Y-12134286D02*
X16047381Y-12115238D01*
X16047381Y-12115238D02*
X16056905Y-12105714D01*
X16056905Y-12105714D02*
X16075953Y-12096190D01*
X16075953Y-12096190D02*
X16104524Y-12096190D01*
X16104524Y-12096190D02*
X16123572Y-12105714D01*
X16123572Y-12105714D02*
X16133096Y-12115238D01*
X16133096Y-12115238D02*
X16142619Y-12134286D01*
X16142619Y-12134286D02*
X16142619Y-12191428D01*
X16142619Y-12191428D02*
X16133096Y-12210476D01*
X16133096Y-12210476D02*
X16123572Y-12220000D01*
X16123572Y-12220000D02*
X16104524Y-12229524D01*
X16104524Y-12229524D02*
X16075953Y-12229524D01*
X16256905Y-12229524D02*
X16237857Y-12220000D01*
X16237857Y-12220000D02*
X16228334Y-12200952D01*
X16228334Y-12200952D02*
X16228334Y-12029524D01*
X16409286Y-12220000D02*
X16390238Y-12229524D01*
X16390238Y-12229524D02*
X16352143Y-12229524D01*
X16352143Y-12229524D02*
X16333096Y-12220000D01*
X16333096Y-12220000D02*
X16323572Y-12200952D01*
X16323572Y-12200952D02*
X16323572Y-12124762D01*
X16323572Y-12124762D02*
X16333096Y-12105714D01*
X16333096Y-12105714D02*
X16352143Y-12096190D01*
X16352143Y-12096190D02*
X16390238Y-12096190D01*
X16390238Y-12096190D02*
X16409286Y-12105714D01*
X16409286Y-12105714D02*
X16418810Y-12124762D01*
X16418810Y-12124762D02*
X16418810Y-12143809D01*
X16418810Y-12143809D02*
X16323572Y-12162857D01*
X16495000Y-12220000D02*
X16514048Y-12229524D01*
X16514048Y-12229524D02*
X16552143Y-12229524D01*
X16552143Y-12229524D02*
X16571191Y-12220000D01*
X16571191Y-12220000D02*
X16580715Y-12200952D01*
X16580715Y-12200952D02*
X16580715Y-12191428D01*
X16580715Y-12191428D02*
X16571191Y-12172381D01*
X16571191Y-12172381D02*
X16552143Y-12162857D01*
X16552143Y-12162857D02*
X16523572Y-12162857D01*
X16523572Y-12162857D02*
X16504524Y-12153333D01*
X16504524Y-12153333D02*
X16495000Y-12134286D01*
X16495000Y-12134286D02*
X16495000Y-12124762D01*
X16495000Y-12124762D02*
X16504524Y-12105714D01*
X16504524Y-12105714D02*
X16523572Y-12096190D01*
X16523572Y-12096190D02*
X16552143Y-12096190D01*
X16552143Y-12096190D02*
X16571191Y-12105714D01*
X16647381Y-12305714D02*
X16656905Y-12296190D01*
X16656905Y-12296190D02*
X16675953Y-12267619D01*
X16675953Y-12267619D02*
X16685477Y-12248571D01*
X16685477Y-12248571D02*
X16695000Y-12220000D01*
X16695000Y-12220000D02*
X16704524Y-12172381D01*
X16704524Y-12172381D02*
X16704524Y-12134286D01*
X16704524Y-12134286D02*
X16695000Y-12086667D01*
X16695000Y-12086667D02*
X16685477Y-12058095D01*
X16685477Y-12058095D02*
X16675953Y-12039048D01*
X16675953Y-12039048D02*
X16656905Y-12010476D01*
X16656905Y-12010476D02*
X16647381Y-12000952D01*
D15*
X11640000Y-12456000D02*
X11695000Y-12401000D01*
X11640000Y-12346000D01*
X11585000Y-12401000D01*
X11640000Y-12456000D01*
D11*
X12047381Y-12493524D02*
X11933095Y-12493524D01*
X11990238Y-12493524D02*
X11990238Y-12293524D01*
X11990238Y-12293524D02*
X11971190Y-12322095D01*
X11971190Y-12322095D02*
X11952143Y-12341143D01*
X11952143Y-12341143D02*
X11933095Y-12350667D01*
X12133095Y-12474476D02*
X12142619Y-12484000D01*
X12142619Y-12484000D02*
X12133095Y-12493524D01*
X12133095Y-12493524D02*
X12123571Y-12484000D01*
X12123571Y-12484000D02*
X12133095Y-12474476D01*
X12133095Y-12474476D02*
X12133095Y-12493524D01*
X12333095Y-12493524D02*
X12218809Y-12493524D01*
X12275952Y-12493524D02*
X12275952Y-12293524D01*
X12275952Y-12293524D02*
X12256905Y-12322095D01*
X12256905Y-12322095D02*
X12237857Y-12341143D01*
X12237857Y-12341143D02*
X12218809Y-12350667D01*
X12456905Y-12293524D02*
X12475952Y-12293524D01*
X12475952Y-12293524D02*
X12495000Y-12303048D01*
X12495000Y-12303048D02*
X12504524Y-12312571D01*
X12504524Y-12312571D02*
X12514048Y-12331619D01*
X12514048Y-12331619D02*
X12523571Y-12369714D01*
X12523571Y-12369714D02*
X12523571Y-12417333D01*
X12523571Y-12417333D02*
X12514048Y-12455428D01*
X12514048Y-12455428D02*
X12504524Y-12474476D01*
X12504524Y-12474476D02*
X12495000Y-12484000D01*
X12495000Y-12484000D02*
X12475952Y-12493524D01*
X12475952Y-12493524D02*
X12456905Y-12493524D01*
X12456905Y-12493524D02*
X12437857Y-12484000D01*
X12437857Y-12484000D02*
X12428333Y-12474476D01*
X12428333Y-12474476D02*
X12418809Y-12455428D01*
X12418809Y-12455428D02*
X12409286Y-12417333D01*
X12409286Y-12417333D02*
X12409286Y-12369714D01*
X12409286Y-12369714D02*
X12418809Y-12331619D01*
X12418809Y-12331619D02*
X12428333Y-12312571D01*
X12428333Y-12312571D02*
X12437857Y-12303048D01*
X12437857Y-12303048D02*
X12456905Y-12293524D01*
X12647381Y-12293524D02*
X12666429Y-12293524D01*
X12666429Y-12293524D02*
X12685476Y-12303048D01*
X12685476Y-12303048D02*
X12695000Y-12312571D01*
X12695000Y-12312571D02*
X12704524Y-12331619D01*
X12704524Y-12331619D02*
X12714048Y-12369714D01*
X12714048Y-12369714D02*
X12714048Y-12417333D01*
X12714048Y-12417333D02*
X12704524Y-12455428D01*
X12704524Y-12455428D02*
X12695000Y-12474476D01*
X12695000Y-12474476D02*
X12685476Y-12484000D01*
X12685476Y-12484000D02*
X12666429Y-12493524D01*
X12666429Y-12493524D02*
X12647381Y-12493524D01*
X12647381Y-12493524D02*
X12628333Y-12484000D01*
X12628333Y-12484000D02*
X12618809Y-12474476D01*
X12618809Y-12474476D02*
X12609286Y-12455428D01*
X12609286Y-12455428D02*
X12599762Y-12417333D01*
X12599762Y-12417333D02*
X12599762Y-12369714D01*
X12599762Y-12369714D02*
X12609286Y-12331619D01*
X12609286Y-12331619D02*
X12618809Y-12312571D01*
X12618809Y-12312571D02*
X12628333Y-12303048D01*
X12628333Y-12303048D02*
X12647381Y-12293524D01*
X12799762Y-12493524D02*
X12799762Y-12360190D01*
X12799762Y-12379238D02*
X12809286Y-12369714D01*
X12809286Y-12369714D02*
X12828333Y-12360190D01*
X12828333Y-12360190D02*
X12856905Y-12360190D01*
X12856905Y-12360190D02*
X12875952Y-12369714D01*
X12875952Y-12369714D02*
X12885476Y-12388762D01*
X12885476Y-12388762D02*
X12885476Y-12493524D01*
X12885476Y-12388762D02*
X12895000Y-12369714D01*
X12895000Y-12369714D02*
X12914048Y-12360190D01*
X12914048Y-12360190D02*
X12942619Y-12360190D01*
X12942619Y-12360190D02*
X12961667Y-12369714D01*
X12961667Y-12369714D02*
X12971190Y-12388762D01*
X12971190Y-12388762D02*
X12971190Y-12493524D01*
X13066429Y-12493524D02*
X13066429Y-12360190D01*
X13066429Y-12379238D02*
X13075952Y-12369714D01*
X13075952Y-12369714D02*
X13095000Y-12360190D01*
X13095000Y-12360190D02*
X13123571Y-12360190D01*
X13123571Y-12360190D02*
X13142619Y-12369714D01*
X13142619Y-12369714D02*
X13152143Y-12388762D01*
X13152143Y-12388762D02*
X13152143Y-12493524D01*
X13152143Y-12388762D02*
X13161667Y-12369714D01*
X13161667Y-12369714D02*
X13180714Y-12360190D01*
X13180714Y-12360190D02*
X13209286Y-12360190D01*
X13209286Y-12360190D02*
X13228333Y-12369714D01*
X13228333Y-12369714D02*
X13237857Y-12388762D01*
X13237857Y-12388762D02*
X13237857Y-12493524D01*
X13628333Y-12284000D02*
X13456905Y-12541143D01*
X13885476Y-12293524D02*
X13904524Y-12293524D01*
X13904524Y-12293524D02*
X13923572Y-12303048D01*
X13923572Y-12303048D02*
X13933095Y-12312571D01*
X13933095Y-12312571D02*
X13942619Y-12331619D01*
X13942619Y-12331619D02*
X13952143Y-12369714D01*
X13952143Y-12369714D02*
X13952143Y-12417333D01*
X13952143Y-12417333D02*
X13942619Y-12455428D01*
X13942619Y-12455428D02*
X13933095Y-12474476D01*
X13933095Y-12474476D02*
X13923572Y-12484000D01*
X13923572Y-12484000D02*
X13904524Y-12493524D01*
X13904524Y-12493524D02*
X13885476Y-12493524D01*
X13885476Y-12493524D02*
X13866429Y-12484000D01*
X13866429Y-12484000D02*
X13856905Y-12474476D01*
X13856905Y-12474476D02*
X13847381Y-12455428D01*
X13847381Y-12455428D02*
X13837857Y-12417333D01*
X13837857Y-12417333D02*
X13837857Y-12369714D01*
X13837857Y-12369714D02*
X13847381Y-12331619D01*
X13847381Y-12331619D02*
X13856905Y-12312571D01*
X13856905Y-12312571D02*
X13866429Y-12303048D01*
X13866429Y-12303048D02*
X13885476Y-12293524D01*
X14037857Y-12474476D02*
X14047381Y-12484000D01*
X14047381Y-12484000D02*
X14037857Y-12493524D01*
X14037857Y-12493524D02*
X14028333Y-12484000D01*
X14028333Y-12484000D02*
X14037857Y-12474476D01*
X14037857Y-12474476D02*
X14037857Y-12493524D01*
X14171191Y-12293524D02*
X14190238Y-12293524D01*
X14190238Y-12293524D02*
X14209286Y-12303048D01*
X14209286Y-12303048D02*
X14218810Y-12312571D01*
X14218810Y-12312571D02*
X14228333Y-12331619D01*
X14228333Y-12331619D02*
X14237857Y-12369714D01*
X14237857Y-12369714D02*
X14237857Y-12417333D01*
X14237857Y-12417333D02*
X14228333Y-12455428D01*
X14228333Y-12455428D02*
X14218810Y-12474476D01*
X14218810Y-12474476D02*
X14209286Y-12484000D01*
X14209286Y-12484000D02*
X14190238Y-12493524D01*
X14190238Y-12493524D02*
X14171191Y-12493524D01*
X14171191Y-12493524D02*
X14152143Y-12484000D01*
X14152143Y-12484000D02*
X14142619Y-12474476D01*
X14142619Y-12474476D02*
X14133095Y-12455428D01*
X14133095Y-12455428D02*
X14123572Y-12417333D01*
X14123572Y-12417333D02*
X14123572Y-12369714D01*
X14123572Y-12369714D02*
X14133095Y-12331619D01*
X14133095Y-12331619D02*
X14142619Y-12312571D01*
X14142619Y-12312571D02*
X14152143Y-12303048D01*
X14152143Y-12303048D02*
X14171191Y-12293524D01*
X14409286Y-12360190D02*
X14409286Y-12493524D01*
X14361667Y-12284000D02*
X14314048Y-12426857D01*
X14314048Y-12426857D02*
X14437857Y-12426857D01*
X14495000Y-12293524D02*
X14618810Y-12293524D01*
X14618810Y-12293524D02*
X14552143Y-12369714D01*
X14552143Y-12369714D02*
X14580714Y-12369714D01*
X14580714Y-12369714D02*
X14599762Y-12379238D01*
X14599762Y-12379238D02*
X14609286Y-12388762D01*
X14609286Y-12388762D02*
X14618810Y-12407809D01*
X14618810Y-12407809D02*
X14618810Y-12455428D01*
X14618810Y-12455428D02*
X14609286Y-12474476D01*
X14609286Y-12474476D02*
X14599762Y-12484000D01*
X14599762Y-12484000D02*
X14580714Y-12493524D01*
X14580714Y-12493524D02*
X14523572Y-12493524D01*
X14523572Y-12493524D02*
X14504524Y-12484000D01*
X14504524Y-12484000D02*
X14495000Y-12474476D01*
X14685476Y-12293524D02*
X14809286Y-12293524D01*
X14809286Y-12293524D02*
X14742619Y-12369714D01*
X14742619Y-12369714D02*
X14771191Y-12369714D01*
X14771191Y-12369714D02*
X14790238Y-12379238D01*
X14790238Y-12379238D02*
X14799762Y-12388762D01*
X14799762Y-12388762D02*
X14809286Y-12407809D01*
X14809286Y-12407809D02*
X14809286Y-12455428D01*
X14809286Y-12455428D02*
X14799762Y-12474476D01*
X14799762Y-12474476D02*
X14790238Y-12484000D01*
X14790238Y-12484000D02*
X14771191Y-12493524D01*
X14771191Y-12493524D02*
X14714048Y-12493524D01*
X14714048Y-12493524D02*
X14695000Y-12484000D01*
X14695000Y-12484000D02*
X14685476Y-12474476D01*
X14885476Y-12293524D02*
X14885476Y-12331619D01*
X14961667Y-12293524D02*
X14961667Y-12331619D01*
X15256905Y-12569714D02*
X15247381Y-12560190D01*
X15247381Y-12560190D02*
X15228334Y-12531619D01*
X15228334Y-12531619D02*
X15218810Y-12512571D01*
X15218810Y-12512571D02*
X15209286Y-12484000D01*
X15209286Y-12484000D02*
X15199762Y-12436381D01*
X15199762Y-12436381D02*
X15199762Y-12398286D01*
X15199762Y-12398286D02*
X15209286Y-12350667D01*
X15209286Y-12350667D02*
X15218810Y-12322095D01*
X15218810Y-12322095D02*
X15228334Y-12303048D01*
X15228334Y-12303048D02*
X15247381Y-12274476D01*
X15247381Y-12274476D02*
X15256905Y-12264952D01*
X15437857Y-12493524D02*
X15323572Y-12493524D01*
X15380714Y-12493524D02*
X15380714Y-12293524D01*
X15380714Y-12293524D02*
X15361667Y-12322095D01*
X15361667Y-12322095D02*
X15342619Y-12341143D01*
X15342619Y-12341143D02*
X15323572Y-12350667D01*
X15609286Y-12293524D02*
X15571191Y-12293524D01*
X15571191Y-12293524D02*
X15552143Y-12303048D01*
X15552143Y-12303048D02*
X15542619Y-12312571D01*
X15542619Y-12312571D02*
X15523572Y-12341143D01*
X15523572Y-12341143D02*
X15514048Y-12379238D01*
X15514048Y-12379238D02*
X15514048Y-12455428D01*
X15514048Y-12455428D02*
X15523572Y-12474476D01*
X15523572Y-12474476D02*
X15533095Y-12484000D01*
X15533095Y-12484000D02*
X15552143Y-12493524D01*
X15552143Y-12493524D02*
X15590238Y-12493524D01*
X15590238Y-12493524D02*
X15609286Y-12484000D01*
X15609286Y-12484000D02*
X15618810Y-12474476D01*
X15618810Y-12474476D02*
X15628334Y-12455428D01*
X15628334Y-12455428D02*
X15628334Y-12407809D01*
X15628334Y-12407809D02*
X15618810Y-12388762D01*
X15618810Y-12388762D02*
X15609286Y-12379238D01*
X15609286Y-12379238D02*
X15590238Y-12369714D01*
X15590238Y-12369714D02*
X15552143Y-12369714D01*
X15552143Y-12369714D02*
X15533095Y-12379238D01*
X15533095Y-12379238D02*
X15523572Y-12388762D01*
X15523572Y-12388762D02*
X15514048Y-12407809D01*
X15866429Y-12493524D02*
X15866429Y-12293524D01*
X15952143Y-12493524D02*
X15952143Y-12388762D01*
X15952143Y-12388762D02*
X15942619Y-12369714D01*
X15942619Y-12369714D02*
X15923572Y-12360190D01*
X15923572Y-12360190D02*
X15895000Y-12360190D01*
X15895000Y-12360190D02*
X15875953Y-12369714D01*
X15875953Y-12369714D02*
X15866429Y-12379238D01*
X16075953Y-12493524D02*
X16056905Y-12484000D01*
X16056905Y-12484000D02*
X16047381Y-12474476D01*
X16047381Y-12474476D02*
X16037857Y-12455428D01*
X16037857Y-12455428D02*
X16037857Y-12398286D01*
X16037857Y-12398286D02*
X16047381Y-12379238D01*
X16047381Y-12379238D02*
X16056905Y-12369714D01*
X16056905Y-12369714D02*
X16075953Y-12360190D01*
X16075953Y-12360190D02*
X16104524Y-12360190D01*
X16104524Y-12360190D02*
X16123572Y-12369714D01*
X16123572Y-12369714D02*
X16133096Y-12379238D01*
X16133096Y-12379238D02*
X16142619Y-12398286D01*
X16142619Y-12398286D02*
X16142619Y-12455428D01*
X16142619Y-12455428D02*
X16133096Y-12474476D01*
X16133096Y-12474476D02*
X16123572Y-12484000D01*
X16123572Y-12484000D02*
X16104524Y-12493524D01*
X16104524Y-12493524D02*
X16075953Y-12493524D01*
X16256905Y-12493524D02*
X16237857Y-12484000D01*
X16237857Y-12484000D02*
X16228334Y-12464952D01*
X16228334Y-12464952D02*
X16228334Y-12293524D01*
X16409286Y-12484000D02*
X16390238Y-12493524D01*
X16390238Y-12493524D02*
X16352143Y-12493524D01*
X16352143Y-12493524D02*
X16333096Y-12484000D01*
X16333096Y-12484000D02*
X16323572Y-12464952D01*
X16323572Y-12464952D02*
X16323572Y-12388762D01*
X16323572Y-12388762D02*
X16333096Y-12369714D01*
X16333096Y-12369714D02*
X16352143Y-12360190D01*
X16352143Y-12360190D02*
X16390238Y-12360190D01*
X16390238Y-12360190D02*
X16409286Y-12369714D01*
X16409286Y-12369714D02*
X16418810Y-12388762D01*
X16418810Y-12388762D02*
X16418810Y-12407809D01*
X16418810Y-12407809D02*
X16323572Y-12426857D01*
X16495000Y-12484000D02*
X16514048Y-12493524D01*
X16514048Y-12493524D02*
X16552143Y-12493524D01*
X16552143Y-12493524D02*
X16571191Y-12484000D01*
X16571191Y-12484000D02*
X16580715Y-12464952D01*
X16580715Y-12464952D02*
X16580715Y-12455428D01*
X16580715Y-12455428D02*
X16571191Y-12436381D01*
X16571191Y-12436381D02*
X16552143Y-12426857D01*
X16552143Y-12426857D02*
X16523572Y-12426857D01*
X16523572Y-12426857D02*
X16504524Y-12417333D01*
X16504524Y-12417333D02*
X16495000Y-12398286D01*
X16495000Y-12398286D02*
X16495000Y-12388762D01*
X16495000Y-12388762D02*
X16504524Y-12369714D01*
X16504524Y-12369714D02*
X16523572Y-12360190D01*
X16523572Y-12360190D02*
X16552143Y-12360190D01*
X16552143Y-12360190D02*
X16571191Y-12369714D01*
X16647381Y-12569714D02*
X16656905Y-12560190D01*
X16656905Y-12560190D02*
X16675953Y-12531619D01*
X16675953Y-12531619D02*
X16685477Y-12512571D01*
X16685477Y-12512571D02*
X16695000Y-12484000D01*
X16695000Y-12484000D02*
X16704524Y-12436381D01*
X16704524Y-12436381D02*
X16704524Y-12398286D01*
X16704524Y-12398286D02*
X16695000Y-12350667D01*
X16695000Y-12350667D02*
X16685477Y-12322095D01*
X16685477Y-12322095D02*
X16675953Y-12303048D01*
X16675953Y-12303048D02*
X16656905Y-12274476D01*
X16656905Y-12274476D02*
X16647381Y-12264952D01*
M02*
