G04 #@! TF.GenerationSoftware,KiCad,Pcbnew,7.0.1*
G04 #@! TF.CreationDate,2023-05-07T18:37:19+02:00*
G04 #@! TF.ProjectId,carte_v2,63617274-655f-4763-922e-6b696361645f,rev?*
G04 #@! TF.SameCoordinates,Original*
G04 #@! TF.FileFunction,Soldermask,Bot*
G04 #@! TF.FilePolarity,Negative*
%FSLAX46Y46*%
G04 Gerber Fmt 4.6, Leading zero omitted, Abs format (unit mm)*
G04 Created by KiCad (PCBNEW 7.0.1) date 2023-05-07 18:37:19*
%MOMM*%
%LPD*%
G01*
G04 APERTURE LIST*
%ADD10O,1.350000X1.350000*%
%ADD11R,1.350000X1.350000*%
%ADD12O,1.400000X1.400000*%
%ADD13C,1.400000*%
%ADD14R,2.000000X2.000000*%
%ADD15C,2.000000*%
%ADD16C,3.000000*%
%ADD17R,2.200000X2.200000*%
%ADD18O,2.200000X2.200000*%
%ADD19R,1.560000X1.560000*%
%ADD20C,1.560000*%
%ADD21R,1.600000X1.600000*%
%ADD22O,1.600000X1.600000*%
G04 APERTURE END LIST*
D10*
X176270000Y-76830000D03*
X176270000Y-78830000D03*
X176270000Y-80830000D03*
D11*
X176270000Y-82830000D03*
D12*
X165240000Y-81180000D03*
D13*
X172860000Y-81180000D03*
X172910000Y-78730000D03*
D12*
X165290000Y-78730000D03*
D11*
X176350000Y-50180000D03*
D10*
X176350000Y-52180000D03*
X176350000Y-54180000D03*
D11*
X156500000Y-43100000D03*
D10*
X156500000Y-41100000D03*
X156500000Y-39100000D03*
D13*
X163590000Y-53450000D03*
D12*
X155970000Y-53450000D03*
D13*
X150490000Y-101000000D03*
D12*
X158110000Y-101000000D03*
D13*
X163590000Y-47150000D03*
D12*
X155970000Y-47150000D03*
D11*
X127540000Y-99870000D03*
D10*
X129540000Y-99870000D03*
X131540000Y-99870000D03*
X133540000Y-99870000D03*
D11*
X176350000Y-58300000D03*
D10*
X176350000Y-60300000D03*
X176350000Y-62300000D03*
D14*
X161400000Y-63200000D03*
D15*
X161400000Y-70800000D03*
D13*
X172690000Y-101100000D03*
D12*
X180310000Y-101100000D03*
D16*
X121920000Y-38100000D03*
X121920000Y-101600000D03*
D11*
X176330000Y-66720000D03*
D10*
X176330000Y-68720000D03*
X176330000Y-70720000D03*
D17*
X124710000Y-94890000D03*
D18*
X124710000Y-84730000D03*
D19*
X138270000Y-92980000D03*
D20*
X140770000Y-97980000D03*
X143270000Y-92980000D03*
D15*
X173050000Y-92350000D03*
X179550000Y-92350000D03*
X173050000Y-96850000D03*
X179550000Y-96850000D03*
D13*
X161590000Y-101000000D03*
D12*
X169210000Y-101000000D03*
D11*
X167430000Y-53140000D03*
D10*
X167430000Y-51140000D03*
X167430000Y-49140000D03*
X167430000Y-47140000D03*
D15*
X161950000Y-92350000D03*
X168450000Y-92350000D03*
X161950000Y-96850000D03*
X168450000Y-96850000D03*
D13*
X163590000Y-50300000D03*
D12*
X155970000Y-50300000D03*
D16*
X185420000Y-38100000D03*
X185420000Y-101600000D03*
D11*
X176340000Y-40700000D03*
D10*
X176340000Y-42700000D03*
X176340000Y-44700000D03*
X176340000Y-46700000D03*
D21*
X151400000Y-80500000D03*
D22*
X151400000Y-77960000D03*
X151400000Y-75420000D03*
X151400000Y-72880000D03*
X151400000Y-70340000D03*
X151400000Y-67800000D03*
X151400000Y-65260000D03*
X151400000Y-62720000D03*
X151400000Y-60180000D03*
X151400000Y-57640000D03*
X151400000Y-55100000D03*
X151400000Y-52560000D03*
X151400000Y-50020000D03*
X151400000Y-47480000D03*
X151400000Y-44940000D03*
X136160000Y-44940000D03*
X136160000Y-47480000D03*
X136160000Y-50020000D03*
X136160000Y-52560000D03*
X136160000Y-55100000D03*
X136160000Y-57640000D03*
X136160000Y-60180000D03*
X136160000Y-62720000D03*
X136160000Y-65260000D03*
X136160000Y-67800000D03*
X136160000Y-70340000D03*
X136160000Y-72880000D03*
X136160000Y-75420000D03*
X136160000Y-77960000D03*
X136160000Y-80500000D03*
D15*
X151050000Y-92350000D03*
X157550000Y-92350000D03*
X151050000Y-96850000D03*
X157550000Y-96850000D03*
D17*
X129240000Y-94900000D03*
D18*
X129240000Y-84740000D03*
D11*
X125800000Y-80600000D03*
D10*
X127800000Y-80600000D03*
X125800000Y-78600000D03*
X127800000Y-78600000D03*
X125800000Y-76600000D03*
X127800000Y-76600000D03*
X125800000Y-74600000D03*
X127800000Y-74600000D03*
X125800000Y-72600000D03*
X127800000Y-72600000D03*
X125800000Y-70600000D03*
X127800000Y-70600000D03*
X125800000Y-68600000D03*
X127800000Y-68600000D03*
X125800000Y-66600000D03*
X127800000Y-66600000D03*
X125800000Y-64600000D03*
X127800000Y-64600000D03*
X125800000Y-62600000D03*
X127800000Y-62600000D03*
X125800000Y-60600000D03*
X127800000Y-60600000D03*
X125800000Y-58600000D03*
X127800000Y-58600000D03*
X125800000Y-56600000D03*
X127800000Y-56600000D03*
X125800000Y-54600000D03*
X127800000Y-54600000D03*
X125800000Y-52600000D03*
X127800000Y-52600000D03*
X125800000Y-50600000D03*
X127800000Y-50600000D03*
X125800000Y-48600000D03*
X127800000Y-48600000D03*
X125800000Y-46600000D03*
X127800000Y-46600000D03*
X125800000Y-44600000D03*
X127800000Y-44600000D03*
X125800000Y-42600000D03*
X127800000Y-42600000D03*
M02*
