G04 #@! TF.GenerationSoftware,KiCad,Pcbnew,7.0.1*
G04 #@! TF.CreationDate,2023-05-22T18:49:14+02:00*
G04 #@! TF.ProjectId,carte_v2,63617274-655f-4763-922e-6b696361645f,rev?*
G04 #@! TF.SameCoordinates,Original*
G04 #@! TF.FileFunction,Legend,Top*
G04 #@! TF.FilePolarity,Positive*
%FSLAX46Y46*%
G04 Gerber Fmt 4.6, Leading zero omitted, Abs format (unit mm)*
G04 Created by KiCad (PCBNEW 7.0.1) date 2023-05-22 18:49:14*
%MOMM*%
%LPD*%
G01*
G04 APERTURE LIST*
%ADD10C,0.100000*%
%ADD11C,0.125000*%
%ADD12C,0.150000*%
%ADD13C,0.200000*%
%ADD14C,0.108000*%
%ADD15C,0.120000*%
%ADD16R,2.200000X2.200000*%
%ADD17O,2.200000X2.200000*%
%ADD18R,1.700000X1.700000*%
%ADD19O,1.700000X1.700000*%
%ADD20R,1.350000X1.350000*%
%ADD21O,1.350000X1.350000*%
%ADD22C,1.400000*%
%ADD23O,1.400000X1.400000*%
%ADD24R,2.000000X2.000000*%
%ADD25C,2.000000*%
%ADD26C,3.000000*%
%ADD27R,1.560000X1.560000*%
%ADD28C,1.560000*%
%ADD29R,1.600000X1.600000*%
%ADD30O,1.600000X1.600000*%
G04 APERTURE END LIST*
D10*
X122492857Y-96558000D02*
X122950000Y-96558000D01*
X122721428Y-96786571D02*
X122721428Y-96329428D01*
X123521428Y-96186571D02*
X123235714Y-96186571D01*
X123235714Y-96186571D02*
X123207142Y-96472285D01*
X123207142Y-96472285D02*
X123235714Y-96443714D01*
X123235714Y-96443714D02*
X123292857Y-96415142D01*
X123292857Y-96415142D02*
X123435714Y-96415142D01*
X123435714Y-96415142D02*
X123492857Y-96443714D01*
X123492857Y-96443714D02*
X123521428Y-96472285D01*
X123521428Y-96472285D02*
X123549999Y-96529428D01*
X123549999Y-96529428D02*
X123549999Y-96672285D01*
X123549999Y-96672285D02*
X123521428Y-96729428D01*
X123521428Y-96729428D02*
X123492857Y-96758000D01*
X123492857Y-96758000D02*
X123435714Y-96786571D01*
X123435714Y-96786571D02*
X123292857Y-96786571D01*
X123292857Y-96786571D02*
X123235714Y-96758000D01*
X123235714Y-96758000D02*
X123207142Y-96729428D01*
X123721428Y-96186571D02*
X123921428Y-96786571D01*
X123921428Y-96786571D02*
X124121428Y-96186571D01*
X117592857Y-96478000D02*
X118050000Y-96478000D01*
X117821428Y-96706571D02*
X117821428Y-96249428D01*
X118278571Y-96106571D02*
X118649999Y-96106571D01*
X118649999Y-96106571D02*
X118449999Y-96335142D01*
X118449999Y-96335142D02*
X118535714Y-96335142D01*
X118535714Y-96335142D02*
X118592857Y-96363714D01*
X118592857Y-96363714D02*
X118621428Y-96392285D01*
X118621428Y-96392285D02*
X118649999Y-96449428D01*
X118649999Y-96449428D02*
X118649999Y-96592285D01*
X118649999Y-96592285D02*
X118621428Y-96649428D01*
X118621428Y-96649428D02*
X118592857Y-96678000D01*
X118592857Y-96678000D02*
X118535714Y-96706571D01*
X118535714Y-96706571D02*
X118364285Y-96706571D01*
X118364285Y-96706571D02*
X118307142Y-96678000D01*
X118307142Y-96678000D02*
X118278571Y-96649428D01*
X118907143Y-96649428D02*
X118935714Y-96678000D01*
X118935714Y-96678000D02*
X118907143Y-96706571D01*
X118907143Y-96706571D02*
X118878571Y-96678000D01*
X118878571Y-96678000D02*
X118907143Y-96649428D01*
X118907143Y-96649428D02*
X118907143Y-96706571D01*
X119135714Y-96106571D02*
X119507142Y-96106571D01*
X119507142Y-96106571D02*
X119307142Y-96335142D01*
X119307142Y-96335142D02*
X119392857Y-96335142D01*
X119392857Y-96335142D02*
X119450000Y-96363714D01*
X119450000Y-96363714D02*
X119478571Y-96392285D01*
X119478571Y-96392285D02*
X119507142Y-96449428D01*
X119507142Y-96449428D02*
X119507142Y-96592285D01*
X119507142Y-96592285D02*
X119478571Y-96649428D01*
X119478571Y-96649428D02*
X119450000Y-96678000D01*
X119450000Y-96678000D02*
X119392857Y-96706571D01*
X119392857Y-96706571D02*
X119221428Y-96706571D01*
X119221428Y-96706571D02*
X119164285Y-96678000D01*
X119164285Y-96678000D02*
X119135714Y-96649428D01*
X119678571Y-96106571D02*
X119878571Y-96706571D01*
X119878571Y-96706571D02*
X120078571Y-96106571D01*
X124935714Y-84056571D02*
X124735714Y-83770857D01*
X124592857Y-84056571D02*
X124592857Y-83456571D01*
X124592857Y-83456571D02*
X124821428Y-83456571D01*
X124821428Y-83456571D02*
X124878571Y-83485142D01*
X124878571Y-83485142D02*
X124907142Y-83513714D01*
X124907142Y-83513714D02*
X124935714Y-83570857D01*
X124935714Y-83570857D02*
X124935714Y-83656571D01*
X124935714Y-83656571D02*
X124907142Y-83713714D01*
X124907142Y-83713714D02*
X124878571Y-83742285D01*
X124878571Y-83742285D02*
X124821428Y-83770857D01*
X124821428Y-83770857D02*
X124592857Y-83770857D01*
X125135714Y-84056571D02*
X125450000Y-83656571D01*
X125135714Y-83656571D02*
X125450000Y-84056571D01*
X124487142Y-86016571D02*
X124830000Y-86016571D01*
X124658571Y-86616571D02*
X124658571Y-86016571D01*
X124972857Y-86616571D02*
X125287143Y-86216571D01*
X124972857Y-86216571D02*
X125287143Y-86616571D01*
X117384285Y-91728000D02*
X117470000Y-91756571D01*
X117470000Y-91756571D02*
X117612857Y-91756571D01*
X117612857Y-91756571D02*
X117670000Y-91728000D01*
X117670000Y-91728000D02*
X117698571Y-91699428D01*
X117698571Y-91699428D02*
X117727142Y-91642285D01*
X117727142Y-91642285D02*
X117727142Y-91585142D01*
X117727142Y-91585142D02*
X117698571Y-91528000D01*
X117698571Y-91528000D02*
X117670000Y-91499428D01*
X117670000Y-91499428D02*
X117612857Y-91470857D01*
X117612857Y-91470857D02*
X117498571Y-91442285D01*
X117498571Y-91442285D02*
X117441428Y-91413714D01*
X117441428Y-91413714D02*
X117412857Y-91385142D01*
X117412857Y-91385142D02*
X117384285Y-91328000D01*
X117384285Y-91328000D02*
X117384285Y-91270857D01*
X117384285Y-91270857D02*
X117412857Y-91213714D01*
X117412857Y-91213714D02*
X117441428Y-91185142D01*
X117441428Y-91185142D02*
X117498571Y-91156571D01*
X117498571Y-91156571D02*
X117641428Y-91156571D01*
X117641428Y-91156571D02*
X117727142Y-91185142D01*
X117984286Y-91756571D02*
X117984286Y-91156571D01*
X117984286Y-91156571D02*
X118127143Y-91156571D01*
X118127143Y-91156571D02*
X118212857Y-91185142D01*
X118212857Y-91185142D02*
X118270000Y-91242285D01*
X118270000Y-91242285D02*
X118298571Y-91299428D01*
X118298571Y-91299428D02*
X118327143Y-91413714D01*
X118327143Y-91413714D02*
X118327143Y-91499428D01*
X118327143Y-91499428D02*
X118298571Y-91613714D01*
X118298571Y-91613714D02*
X118270000Y-91670857D01*
X118270000Y-91670857D02*
X118212857Y-91728000D01*
X118212857Y-91728000D02*
X118127143Y-91756571D01*
X118127143Y-91756571D02*
X117984286Y-91756571D01*
X118555714Y-91585142D02*
X118841429Y-91585142D01*
X118498571Y-91756571D02*
X118698571Y-91156571D01*
X118698571Y-91156571D02*
X118898571Y-91756571D01*
X117344285Y-89118000D02*
X117430000Y-89146571D01*
X117430000Y-89146571D02*
X117572857Y-89146571D01*
X117572857Y-89146571D02*
X117630000Y-89118000D01*
X117630000Y-89118000D02*
X117658571Y-89089428D01*
X117658571Y-89089428D02*
X117687142Y-89032285D01*
X117687142Y-89032285D02*
X117687142Y-88975142D01*
X117687142Y-88975142D02*
X117658571Y-88918000D01*
X117658571Y-88918000D02*
X117630000Y-88889428D01*
X117630000Y-88889428D02*
X117572857Y-88860857D01*
X117572857Y-88860857D02*
X117458571Y-88832285D01*
X117458571Y-88832285D02*
X117401428Y-88803714D01*
X117401428Y-88803714D02*
X117372857Y-88775142D01*
X117372857Y-88775142D02*
X117344285Y-88718000D01*
X117344285Y-88718000D02*
X117344285Y-88660857D01*
X117344285Y-88660857D02*
X117372857Y-88603714D01*
X117372857Y-88603714D02*
X117401428Y-88575142D01*
X117401428Y-88575142D02*
X117458571Y-88546571D01*
X117458571Y-88546571D02*
X117601428Y-88546571D01*
X117601428Y-88546571D02*
X117687142Y-88575142D01*
X118287143Y-89089428D02*
X118258571Y-89118000D01*
X118258571Y-89118000D02*
X118172857Y-89146571D01*
X118172857Y-89146571D02*
X118115714Y-89146571D01*
X118115714Y-89146571D02*
X118030000Y-89118000D01*
X118030000Y-89118000D02*
X117972857Y-89060857D01*
X117972857Y-89060857D02*
X117944286Y-89003714D01*
X117944286Y-89003714D02*
X117915714Y-88889428D01*
X117915714Y-88889428D02*
X117915714Y-88803714D01*
X117915714Y-88803714D02*
X117944286Y-88689428D01*
X117944286Y-88689428D02*
X117972857Y-88632285D01*
X117972857Y-88632285D02*
X118030000Y-88575142D01*
X118030000Y-88575142D02*
X118115714Y-88546571D01*
X118115714Y-88546571D02*
X118172857Y-88546571D01*
X118172857Y-88546571D02*
X118258571Y-88575142D01*
X118258571Y-88575142D02*
X118287143Y-88603714D01*
X118830000Y-89146571D02*
X118544286Y-89146571D01*
X118544286Y-89146571D02*
X118544286Y-88546571D01*
X124797142Y-88475142D02*
X124740000Y-88446571D01*
X124740000Y-88446571D02*
X124654285Y-88446571D01*
X124654285Y-88446571D02*
X124568571Y-88475142D01*
X124568571Y-88475142D02*
X124511428Y-88532285D01*
X124511428Y-88532285D02*
X124482857Y-88589428D01*
X124482857Y-88589428D02*
X124454285Y-88703714D01*
X124454285Y-88703714D02*
X124454285Y-88789428D01*
X124454285Y-88789428D02*
X124482857Y-88903714D01*
X124482857Y-88903714D02*
X124511428Y-88960857D01*
X124511428Y-88960857D02*
X124568571Y-89018000D01*
X124568571Y-89018000D02*
X124654285Y-89046571D01*
X124654285Y-89046571D02*
X124711428Y-89046571D01*
X124711428Y-89046571D02*
X124797142Y-89018000D01*
X124797142Y-89018000D02*
X124825714Y-88989428D01*
X124825714Y-88989428D02*
X124825714Y-88789428D01*
X124825714Y-88789428D02*
X124711428Y-88789428D01*
X125082857Y-89046571D02*
X125082857Y-88446571D01*
X125082857Y-88446571D02*
X125425714Y-89046571D01*
X125425714Y-89046571D02*
X125425714Y-88446571D01*
X125711428Y-89046571D02*
X125711428Y-88446571D01*
X125711428Y-88446571D02*
X125854285Y-88446571D01*
X125854285Y-88446571D02*
X125939999Y-88475142D01*
X125939999Y-88475142D02*
X125997142Y-88532285D01*
X125997142Y-88532285D02*
X126025713Y-88589428D01*
X126025713Y-88589428D02*
X126054285Y-88703714D01*
X126054285Y-88703714D02*
X126054285Y-88789428D01*
X126054285Y-88789428D02*
X126025713Y-88903714D01*
X126025713Y-88903714D02*
X125997142Y-88960857D01*
X125997142Y-88960857D02*
X125939999Y-89018000D01*
X125939999Y-89018000D02*
X125854285Y-89046571D01*
X125854285Y-89046571D02*
X125711428Y-89046571D01*
X117577142Y-83515142D02*
X117520000Y-83486571D01*
X117520000Y-83486571D02*
X117434285Y-83486571D01*
X117434285Y-83486571D02*
X117348571Y-83515142D01*
X117348571Y-83515142D02*
X117291428Y-83572285D01*
X117291428Y-83572285D02*
X117262857Y-83629428D01*
X117262857Y-83629428D02*
X117234285Y-83743714D01*
X117234285Y-83743714D02*
X117234285Y-83829428D01*
X117234285Y-83829428D02*
X117262857Y-83943714D01*
X117262857Y-83943714D02*
X117291428Y-84000857D01*
X117291428Y-84000857D02*
X117348571Y-84058000D01*
X117348571Y-84058000D02*
X117434285Y-84086571D01*
X117434285Y-84086571D02*
X117491428Y-84086571D01*
X117491428Y-84086571D02*
X117577142Y-84058000D01*
X117577142Y-84058000D02*
X117605714Y-84029428D01*
X117605714Y-84029428D02*
X117605714Y-83829428D01*
X117605714Y-83829428D02*
X117491428Y-83829428D01*
X117862857Y-84086571D02*
X117862857Y-83486571D01*
X117862857Y-83486571D02*
X118205714Y-84086571D01*
X118205714Y-84086571D02*
X118205714Y-83486571D01*
X118491428Y-84086571D02*
X118491428Y-83486571D01*
X118491428Y-83486571D02*
X118634285Y-83486571D01*
X118634285Y-83486571D02*
X118719999Y-83515142D01*
X118719999Y-83515142D02*
X118777142Y-83572285D01*
X118777142Y-83572285D02*
X118805713Y-83629428D01*
X118805713Y-83629428D02*
X118834285Y-83743714D01*
X118834285Y-83743714D02*
X118834285Y-83829428D01*
X118834285Y-83829428D02*
X118805713Y-83943714D01*
X118805713Y-83943714D02*
X118777142Y-84000857D01*
X118777142Y-84000857D02*
X118719999Y-84058000D01*
X118719999Y-84058000D02*
X118634285Y-84086571D01*
X118634285Y-84086571D02*
X118491428Y-84086571D01*
X124847142Y-78495142D02*
X124790000Y-78466571D01*
X124790000Y-78466571D02*
X124704285Y-78466571D01*
X124704285Y-78466571D02*
X124618571Y-78495142D01*
X124618571Y-78495142D02*
X124561428Y-78552285D01*
X124561428Y-78552285D02*
X124532857Y-78609428D01*
X124532857Y-78609428D02*
X124504285Y-78723714D01*
X124504285Y-78723714D02*
X124504285Y-78809428D01*
X124504285Y-78809428D02*
X124532857Y-78923714D01*
X124532857Y-78923714D02*
X124561428Y-78980857D01*
X124561428Y-78980857D02*
X124618571Y-79038000D01*
X124618571Y-79038000D02*
X124704285Y-79066571D01*
X124704285Y-79066571D02*
X124761428Y-79066571D01*
X124761428Y-79066571D02*
X124847142Y-79038000D01*
X124847142Y-79038000D02*
X124875714Y-79009428D01*
X124875714Y-79009428D02*
X124875714Y-78809428D01*
X124875714Y-78809428D02*
X124761428Y-78809428D01*
X125132857Y-79066571D02*
X125132857Y-78466571D01*
X125132857Y-78466571D02*
X125475714Y-79066571D01*
X125475714Y-79066571D02*
X125475714Y-78466571D01*
X125761428Y-79066571D02*
X125761428Y-78466571D01*
X125761428Y-78466571D02*
X125904285Y-78466571D01*
X125904285Y-78466571D02*
X125989999Y-78495142D01*
X125989999Y-78495142D02*
X126047142Y-78552285D01*
X126047142Y-78552285D02*
X126075713Y-78609428D01*
X126075713Y-78609428D02*
X126104285Y-78723714D01*
X126104285Y-78723714D02*
X126104285Y-78809428D01*
X126104285Y-78809428D02*
X126075713Y-78923714D01*
X126075713Y-78923714D02*
X126047142Y-78980857D01*
X126047142Y-78980857D02*
X125989999Y-79038000D01*
X125989999Y-79038000D02*
X125904285Y-79066571D01*
X125904285Y-79066571D02*
X125761428Y-79066571D01*
X124797142Y-70775142D02*
X124740000Y-70746571D01*
X124740000Y-70746571D02*
X124654285Y-70746571D01*
X124654285Y-70746571D02*
X124568571Y-70775142D01*
X124568571Y-70775142D02*
X124511428Y-70832285D01*
X124511428Y-70832285D02*
X124482857Y-70889428D01*
X124482857Y-70889428D02*
X124454285Y-71003714D01*
X124454285Y-71003714D02*
X124454285Y-71089428D01*
X124454285Y-71089428D02*
X124482857Y-71203714D01*
X124482857Y-71203714D02*
X124511428Y-71260857D01*
X124511428Y-71260857D02*
X124568571Y-71318000D01*
X124568571Y-71318000D02*
X124654285Y-71346571D01*
X124654285Y-71346571D02*
X124711428Y-71346571D01*
X124711428Y-71346571D02*
X124797142Y-71318000D01*
X124797142Y-71318000D02*
X124825714Y-71289428D01*
X124825714Y-71289428D02*
X124825714Y-71089428D01*
X124825714Y-71089428D02*
X124711428Y-71089428D01*
X125082857Y-71346571D02*
X125082857Y-70746571D01*
X125082857Y-70746571D02*
X125425714Y-71346571D01*
X125425714Y-71346571D02*
X125425714Y-70746571D01*
X125711428Y-71346571D02*
X125711428Y-70746571D01*
X125711428Y-70746571D02*
X125854285Y-70746571D01*
X125854285Y-70746571D02*
X125939999Y-70775142D01*
X125939999Y-70775142D02*
X125997142Y-70832285D01*
X125997142Y-70832285D02*
X126025713Y-70889428D01*
X126025713Y-70889428D02*
X126054285Y-71003714D01*
X126054285Y-71003714D02*
X126054285Y-71089428D01*
X126054285Y-71089428D02*
X126025713Y-71203714D01*
X126025713Y-71203714D02*
X125997142Y-71260857D01*
X125997142Y-71260857D02*
X125939999Y-71318000D01*
X125939999Y-71318000D02*
X125854285Y-71346571D01*
X125854285Y-71346571D02*
X125711428Y-71346571D01*
X117777142Y-45385142D02*
X117720000Y-45356571D01*
X117720000Y-45356571D02*
X117634285Y-45356571D01*
X117634285Y-45356571D02*
X117548571Y-45385142D01*
X117548571Y-45385142D02*
X117491428Y-45442285D01*
X117491428Y-45442285D02*
X117462857Y-45499428D01*
X117462857Y-45499428D02*
X117434285Y-45613714D01*
X117434285Y-45613714D02*
X117434285Y-45699428D01*
X117434285Y-45699428D02*
X117462857Y-45813714D01*
X117462857Y-45813714D02*
X117491428Y-45870857D01*
X117491428Y-45870857D02*
X117548571Y-45928000D01*
X117548571Y-45928000D02*
X117634285Y-45956571D01*
X117634285Y-45956571D02*
X117691428Y-45956571D01*
X117691428Y-45956571D02*
X117777142Y-45928000D01*
X117777142Y-45928000D02*
X117805714Y-45899428D01*
X117805714Y-45899428D02*
X117805714Y-45699428D01*
X117805714Y-45699428D02*
X117691428Y-45699428D01*
X118062857Y-45956571D02*
X118062857Y-45356571D01*
X118062857Y-45356571D02*
X118405714Y-45956571D01*
X118405714Y-45956571D02*
X118405714Y-45356571D01*
X118691428Y-45956571D02*
X118691428Y-45356571D01*
X118691428Y-45356571D02*
X118834285Y-45356571D01*
X118834285Y-45356571D02*
X118919999Y-45385142D01*
X118919999Y-45385142D02*
X118977142Y-45442285D01*
X118977142Y-45442285D02*
X119005713Y-45499428D01*
X119005713Y-45499428D02*
X119034285Y-45613714D01*
X119034285Y-45613714D02*
X119034285Y-45699428D01*
X119034285Y-45699428D02*
X119005713Y-45813714D01*
X119005713Y-45813714D02*
X118977142Y-45870857D01*
X118977142Y-45870857D02*
X118919999Y-45928000D01*
X118919999Y-45928000D02*
X118834285Y-45956571D01*
X118834285Y-45956571D02*
X118691428Y-45956571D01*
X117617142Y-63225142D02*
X117560000Y-63196571D01*
X117560000Y-63196571D02*
X117474285Y-63196571D01*
X117474285Y-63196571D02*
X117388571Y-63225142D01*
X117388571Y-63225142D02*
X117331428Y-63282285D01*
X117331428Y-63282285D02*
X117302857Y-63339428D01*
X117302857Y-63339428D02*
X117274285Y-63453714D01*
X117274285Y-63453714D02*
X117274285Y-63539428D01*
X117274285Y-63539428D02*
X117302857Y-63653714D01*
X117302857Y-63653714D02*
X117331428Y-63710857D01*
X117331428Y-63710857D02*
X117388571Y-63768000D01*
X117388571Y-63768000D02*
X117474285Y-63796571D01*
X117474285Y-63796571D02*
X117531428Y-63796571D01*
X117531428Y-63796571D02*
X117617142Y-63768000D01*
X117617142Y-63768000D02*
X117645714Y-63739428D01*
X117645714Y-63739428D02*
X117645714Y-63539428D01*
X117645714Y-63539428D02*
X117531428Y-63539428D01*
X117902857Y-63796571D02*
X117902857Y-63196571D01*
X117902857Y-63196571D02*
X118245714Y-63796571D01*
X118245714Y-63796571D02*
X118245714Y-63196571D01*
X118531428Y-63796571D02*
X118531428Y-63196571D01*
X118531428Y-63196571D02*
X118674285Y-63196571D01*
X118674285Y-63196571D02*
X118759999Y-63225142D01*
X118759999Y-63225142D02*
X118817142Y-63282285D01*
X118817142Y-63282285D02*
X118845713Y-63339428D01*
X118845713Y-63339428D02*
X118874285Y-63453714D01*
X118874285Y-63453714D02*
X118874285Y-63539428D01*
X118874285Y-63539428D02*
X118845713Y-63653714D01*
X118845713Y-63653714D02*
X118817142Y-63710857D01*
X118817142Y-63710857D02*
X118759999Y-63768000D01*
X118759999Y-63768000D02*
X118674285Y-63796571D01*
X118674285Y-63796571D02*
X118531428Y-63796571D01*
X125417142Y-58005142D02*
X125360000Y-57976571D01*
X125360000Y-57976571D02*
X125274285Y-57976571D01*
X125274285Y-57976571D02*
X125188571Y-58005142D01*
X125188571Y-58005142D02*
X125131428Y-58062285D01*
X125131428Y-58062285D02*
X125102857Y-58119428D01*
X125102857Y-58119428D02*
X125074285Y-58233714D01*
X125074285Y-58233714D02*
X125074285Y-58319428D01*
X125074285Y-58319428D02*
X125102857Y-58433714D01*
X125102857Y-58433714D02*
X125131428Y-58490857D01*
X125131428Y-58490857D02*
X125188571Y-58548000D01*
X125188571Y-58548000D02*
X125274285Y-58576571D01*
X125274285Y-58576571D02*
X125331428Y-58576571D01*
X125331428Y-58576571D02*
X125417142Y-58548000D01*
X125417142Y-58548000D02*
X125445714Y-58519428D01*
X125445714Y-58519428D02*
X125445714Y-58319428D01*
X125445714Y-58319428D02*
X125331428Y-58319428D01*
X125702857Y-58576571D02*
X125702857Y-57976571D01*
X125702857Y-57976571D02*
X126045714Y-58576571D01*
X126045714Y-58576571D02*
X126045714Y-57976571D01*
X126331428Y-58576571D02*
X126331428Y-57976571D01*
X126331428Y-57976571D02*
X126474285Y-57976571D01*
X126474285Y-57976571D02*
X126559999Y-58005142D01*
X126559999Y-58005142D02*
X126617142Y-58062285D01*
X126617142Y-58062285D02*
X126645713Y-58119428D01*
X126645713Y-58119428D02*
X126674285Y-58233714D01*
X126674285Y-58233714D02*
X126674285Y-58319428D01*
X126674285Y-58319428D02*
X126645713Y-58433714D01*
X126645713Y-58433714D02*
X126617142Y-58490857D01*
X126617142Y-58490857D02*
X126559999Y-58548000D01*
X126559999Y-58548000D02*
X126474285Y-58576571D01*
X126474285Y-58576571D02*
X126331428Y-58576571D01*
D11*
X129837380Y-102280952D02*
X129861190Y-102233333D01*
X129861190Y-102233333D02*
X129861190Y-102161904D01*
X129861190Y-102161904D02*
X129837380Y-102090476D01*
X129837380Y-102090476D02*
X129789761Y-102042857D01*
X129789761Y-102042857D02*
X129742142Y-102019047D01*
X129742142Y-102019047D02*
X129646904Y-101995238D01*
X129646904Y-101995238D02*
X129575476Y-101995238D01*
X129575476Y-101995238D02*
X129480238Y-102019047D01*
X129480238Y-102019047D02*
X129432619Y-102042857D01*
X129432619Y-102042857D02*
X129385000Y-102090476D01*
X129385000Y-102090476D02*
X129361190Y-102161904D01*
X129361190Y-102161904D02*
X129361190Y-102209523D01*
X129361190Y-102209523D02*
X129385000Y-102280952D01*
X129385000Y-102280952D02*
X129408809Y-102304761D01*
X129408809Y-102304761D02*
X129575476Y-102304761D01*
X129575476Y-102304761D02*
X129575476Y-102209523D01*
X129361190Y-102519047D02*
X129861190Y-102519047D01*
X129861190Y-102519047D02*
X129361190Y-102804761D01*
X129361190Y-102804761D02*
X129861190Y-102804761D01*
X129361190Y-103042857D02*
X129861190Y-103042857D01*
X129861190Y-103042857D02*
X129861190Y-103161905D01*
X129861190Y-103161905D02*
X129837380Y-103233333D01*
X129837380Y-103233333D02*
X129789761Y-103280952D01*
X129789761Y-103280952D02*
X129742142Y-103304762D01*
X129742142Y-103304762D02*
X129646904Y-103328571D01*
X129646904Y-103328571D02*
X129575476Y-103328571D01*
X129575476Y-103328571D02*
X129480238Y-103304762D01*
X129480238Y-103304762D02*
X129432619Y-103280952D01*
X129432619Y-103280952D02*
X129385000Y-103233333D01*
X129385000Y-103233333D02*
X129361190Y-103161905D01*
X129361190Y-103161905D02*
X129361190Y-103042857D01*
D12*
X178761904Y-70525238D02*
X178666666Y-70477619D01*
X178666666Y-70477619D02*
X178523809Y-70477619D01*
X178523809Y-70477619D02*
X178380952Y-70525238D01*
X178380952Y-70525238D02*
X178285714Y-70620476D01*
X178285714Y-70620476D02*
X178238095Y-70715714D01*
X178238095Y-70715714D02*
X178190476Y-70906190D01*
X178190476Y-70906190D02*
X178190476Y-71049047D01*
X178190476Y-71049047D02*
X178238095Y-71239523D01*
X178238095Y-71239523D02*
X178285714Y-71334761D01*
X178285714Y-71334761D02*
X178380952Y-71430000D01*
X178380952Y-71430000D02*
X178523809Y-71477619D01*
X178523809Y-71477619D02*
X178619047Y-71477619D01*
X178619047Y-71477619D02*
X178761904Y-71430000D01*
X178761904Y-71430000D02*
X178809523Y-71382380D01*
X178809523Y-71382380D02*
X178809523Y-71049047D01*
X178809523Y-71049047D02*
X178619047Y-71049047D01*
X179238095Y-71477619D02*
X179238095Y-70477619D01*
X179238095Y-70477619D02*
X179809523Y-71477619D01*
X179809523Y-71477619D02*
X179809523Y-70477619D01*
X180285714Y-71477619D02*
X180285714Y-70477619D01*
X180285714Y-70477619D02*
X180523809Y-70477619D01*
X180523809Y-70477619D02*
X180666666Y-70525238D01*
X180666666Y-70525238D02*
X180761904Y-70620476D01*
X180761904Y-70620476D02*
X180809523Y-70715714D01*
X180809523Y-70715714D02*
X180857142Y-70906190D01*
X180857142Y-70906190D02*
X180857142Y-71049047D01*
X180857142Y-71049047D02*
X180809523Y-71239523D01*
X180809523Y-71239523D02*
X180761904Y-71334761D01*
X180761904Y-71334761D02*
X180666666Y-71430000D01*
X180666666Y-71430000D02*
X180523809Y-71477619D01*
X180523809Y-71477619D02*
X180285714Y-71477619D01*
X169761904Y-50725238D02*
X169666666Y-50677619D01*
X169666666Y-50677619D02*
X169523809Y-50677619D01*
X169523809Y-50677619D02*
X169380952Y-50725238D01*
X169380952Y-50725238D02*
X169285714Y-50820476D01*
X169285714Y-50820476D02*
X169238095Y-50915714D01*
X169238095Y-50915714D02*
X169190476Y-51106190D01*
X169190476Y-51106190D02*
X169190476Y-51249047D01*
X169190476Y-51249047D02*
X169238095Y-51439523D01*
X169238095Y-51439523D02*
X169285714Y-51534761D01*
X169285714Y-51534761D02*
X169380952Y-51630000D01*
X169380952Y-51630000D02*
X169523809Y-51677619D01*
X169523809Y-51677619D02*
X169619047Y-51677619D01*
X169619047Y-51677619D02*
X169761904Y-51630000D01*
X169761904Y-51630000D02*
X169809523Y-51582380D01*
X169809523Y-51582380D02*
X169809523Y-51249047D01*
X169809523Y-51249047D02*
X169619047Y-51249047D01*
X178138095Y-76796666D02*
X178900000Y-76796666D01*
X178519047Y-77177619D02*
X178519047Y-76415714D01*
X179280952Y-76177619D02*
X179899999Y-76177619D01*
X179899999Y-76177619D02*
X179566666Y-76558571D01*
X179566666Y-76558571D02*
X179709523Y-76558571D01*
X179709523Y-76558571D02*
X179804761Y-76606190D01*
X179804761Y-76606190D02*
X179852380Y-76653809D01*
X179852380Y-76653809D02*
X179899999Y-76749047D01*
X179899999Y-76749047D02*
X179899999Y-76987142D01*
X179899999Y-76987142D02*
X179852380Y-77082380D01*
X179852380Y-77082380D02*
X179804761Y-77130000D01*
X179804761Y-77130000D02*
X179709523Y-77177619D01*
X179709523Y-77177619D02*
X179423809Y-77177619D01*
X179423809Y-77177619D02*
X179328571Y-77130000D01*
X179328571Y-77130000D02*
X179280952Y-77082380D01*
X180328571Y-77082380D02*
X180376190Y-77130000D01*
X180376190Y-77130000D02*
X180328571Y-77177619D01*
X180328571Y-77177619D02*
X180280952Y-77130000D01*
X180280952Y-77130000D02*
X180328571Y-77082380D01*
X180328571Y-77082380D02*
X180328571Y-77177619D01*
X180709523Y-76177619D02*
X181328570Y-76177619D01*
X181328570Y-76177619D02*
X180995237Y-76558571D01*
X180995237Y-76558571D02*
X181138094Y-76558571D01*
X181138094Y-76558571D02*
X181233332Y-76606190D01*
X181233332Y-76606190D02*
X181280951Y-76653809D01*
X181280951Y-76653809D02*
X181328570Y-76749047D01*
X181328570Y-76749047D02*
X181328570Y-76987142D01*
X181328570Y-76987142D02*
X181280951Y-77082380D01*
X181280951Y-77082380D02*
X181233332Y-77130000D01*
X181233332Y-77130000D02*
X181138094Y-77177619D01*
X181138094Y-77177619D02*
X180852380Y-77177619D01*
X180852380Y-77177619D02*
X180757142Y-77130000D01*
X180757142Y-77130000D02*
X180709523Y-77082380D01*
X181614285Y-76177619D02*
X181947618Y-77177619D01*
X181947618Y-77177619D02*
X182280951Y-76177619D01*
X178761904Y-46425238D02*
X178666666Y-46377619D01*
X178666666Y-46377619D02*
X178523809Y-46377619D01*
X178523809Y-46377619D02*
X178380952Y-46425238D01*
X178380952Y-46425238D02*
X178285714Y-46520476D01*
X178285714Y-46520476D02*
X178238095Y-46615714D01*
X178238095Y-46615714D02*
X178190476Y-46806190D01*
X178190476Y-46806190D02*
X178190476Y-46949047D01*
X178190476Y-46949047D02*
X178238095Y-47139523D01*
X178238095Y-47139523D02*
X178285714Y-47234761D01*
X178285714Y-47234761D02*
X178380952Y-47330000D01*
X178380952Y-47330000D02*
X178523809Y-47377619D01*
X178523809Y-47377619D02*
X178619047Y-47377619D01*
X178619047Y-47377619D02*
X178761904Y-47330000D01*
X178761904Y-47330000D02*
X178809523Y-47282380D01*
X178809523Y-47282380D02*
X178809523Y-46949047D01*
X178809523Y-46949047D02*
X178619047Y-46949047D01*
X179238095Y-47377619D02*
X179238095Y-46377619D01*
X179238095Y-46377619D02*
X179809523Y-47377619D01*
X179809523Y-47377619D02*
X179809523Y-46377619D01*
X180285714Y-47377619D02*
X180285714Y-46377619D01*
X180285714Y-46377619D02*
X180523809Y-46377619D01*
X180523809Y-46377619D02*
X180666666Y-46425238D01*
X180666666Y-46425238D02*
X180761904Y-46520476D01*
X180761904Y-46520476D02*
X180809523Y-46615714D01*
X180809523Y-46615714D02*
X180857142Y-46806190D01*
X180857142Y-46806190D02*
X180857142Y-46949047D01*
X180857142Y-46949047D02*
X180809523Y-47139523D01*
X180809523Y-47139523D02*
X180761904Y-47234761D01*
X180761904Y-47234761D02*
X180666666Y-47330000D01*
X180666666Y-47330000D02*
X180523809Y-47377619D01*
X180523809Y-47377619D02*
X180285714Y-47377619D01*
D10*
X125457142Y-52935142D02*
X125400000Y-52906571D01*
X125400000Y-52906571D02*
X125314285Y-52906571D01*
X125314285Y-52906571D02*
X125228571Y-52935142D01*
X125228571Y-52935142D02*
X125171428Y-52992285D01*
X125171428Y-52992285D02*
X125142857Y-53049428D01*
X125142857Y-53049428D02*
X125114285Y-53163714D01*
X125114285Y-53163714D02*
X125114285Y-53249428D01*
X125114285Y-53249428D02*
X125142857Y-53363714D01*
X125142857Y-53363714D02*
X125171428Y-53420857D01*
X125171428Y-53420857D02*
X125228571Y-53478000D01*
X125228571Y-53478000D02*
X125314285Y-53506571D01*
X125314285Y-53506571D02*
X125371428Y-53506571D01*
X125371428Y-53506571D02*
X125457142Y-53478000D01*
X125457142Y-53478000D02*
X125485714Y-53449428D01*
X125485714Y-53449428D02*
X125485714Y-53249428D01*
X125485714Y-53249428D02*
X125371428Y-53249428D01*
X125742857Y-53506571D02*
X125742857Y-52906571D01*
X125742857Y-52906571D02*
X126085714Y-53506571D01*
X126085714Y-53506571D02*
X126085714Y-52906571D01*
X126371428Y-53506571D02*
X126371428Y-52906571D01*
X126371428Y-52906571D02*
X126514285Y-52906571D01*
X126514285Y-52906571D02*
X126599999Y-52935142D01*
X126599999Y-52935142D02*
X126657142Y-52992285D01*
X126657142Y-52992285D02*
X126685713Y-53049428D01*
X126685713Y-53049428D02*
X126714285Y-53163714D01*
X126714285Y-53163714D02*
X126714285Y-53249428D01*
X126714285Y-53249428D02*
X126685713Y-53363714D01*
X126685713Y-53363714D02*
X126657142Y-53420857D01*
X126657142Y-53420857D02*
X126599999Y-53478000D01*
X126599999Y-53478000D02*
X126514285Y-53506571D01*
X126514285Y-53506571D02*
X126371428Y-53506571D01*
D12*
X178238095Y-52196666D02*
X179000000Y-52196666D01*
X178619047Y-52577619D02*
X178619047Y-51815714D01*
X179380952Y-51577619D02*
X179999999Y-51577619D01*
X179999999Y-51577619D02*
X179666666Y-51958571D01*
X179666666Y-51958571D02*
X179809523Y-51958571D01*
X179809523Y-51958571D02*
X179904761Y-52006190D01*
X179904761Y-52006190D02*
X179952380Y-52053809D01*
X179952380Y-52053809D02*
X179999999Y-52149047D01*
X179999999Y-52149047D02*
X179999999Y-52387142D01*
X179999999Y-52387142D02*
X179952380Y-52482380D01*
X179952380Y-52482380D02*
X179904761Y-52530000D01*
X179904761Y-52530000D02*
X179809523Y-52577619D01*
X179809523Y-52577619D02*
X179523809Y-52577619D01*
X179523809Y-52577619D02*
X179428571Y-52530000D01*
X179428571Y-52530000D02*
X179380952Y-52482380D01*
X180428571Y-52482380D02*
X180476190Y-52530000D01*
X180476190Y-52530000D02*
X180428571Y-52577619D01*
X180428571Y-52577619D02*
X180380952Y-52530000D01*
X180380952Y-52530000D02*
X180428571Y-52482380D01*
X180428571Y-52482380D02*
X180428571Y-52577619D01*
X180809523Y-51577619D02*
X181428570Y-51577619D01*
X181428570Y-51577619D02*
X181095237Y-51958571D01*
X181095237Y-51958571D02*
X181238094Y-51958571D01*
X181238094Y-51958571D02*
X181333332Y-52006190D01*
X181333332Y-52006190D02*
X181380951Y-52053809D01*
X181380951Y-52053809D02*
X181428570Y-52149047D01*
X181428570Y-52149047D02*
X181428570Y-52387142D01*
X181428570Y-52387142D02*
X181380951Y-52482380D01*
X181380951Y-52482380D02*
X181333332Y-52530000D01*
X181333332Y-52530000D02*
X181238094Y-52577619D01*
X181238094Y-52577619D02*
X180952380Y-52577619D01*
X180952380Y-52577619D02*
X180857142Y-52530000D01*
X180857142Y-52530000D02*
X180809523Y-52482380D01*
X181714285Y-51577619D02*
X182047618Y-52577619D01*
X182047618Y-52577619D02*
X182380951Y-51577619D01*
X169761904Y-48725238D02*
X169666666Y-48677619D01*
X169666666Y-48677619D02*
X169523809Y-48677619D01*
X169523809Y-48677619D02*
X169380952Y-48725238D01*
X169380952Y-48725238D02*
X169285714Y-48820476D01*
X169285714Y-48820476D02*
X169238095Y-48915714D01*
X169238095Y-48915714D02*
X169190476Y-49106190D01*
X169190476Y-49106190D02*
X169190476Y-49249047D01*
X169190476Y-49249047D02*
X169238095Y-49439523D01*
X169238095Y-49439523D02*
X169285714Y-49534761D01*
X169285714Y-49534761D02*
X169380952Y-49630000D01*
X169380952Y-49630000D02*
X169523809Y-49677619D01*
X169523809Y-49677619D02*
X169619047Y-49677619D01*
X169619047Y-49677619D02*
X169761904Y-49630000D01*
X169761904Y-49630000D02*
X169809523Y-49582380D01*
X169809523Y-49582380D02*
X169809523Y-49249047D01*
X169809523Y-49249047D02*
X169619047Y-49249047D01*
X170238095Y-49677619D02*
X170238095Y-48677619D01*
X170238095Y-48677619D02*
X170809523Y-49677619D01*
X170809523Y-49677619D02*
X170809523Y-48677619D01*
X171285714Y-49677619D02*
X171285714Y-48677619D01*
X171285714Y-48677619D02*
X171523809Y-48677619D01*
X171523809Y-48677619D02*
X171666666Y-48725238D01*
X171666666Y-48725238D02*
X171761904Y-48820476D01*
X171761904Y-48820476D02*
X171809523Y-48915714D01*
X171809523Y-48915714D02*
X171857142Y-49106190D01*
X171857142Y-49106190D02*
X171857142Y-49249047D01*
X171857142Y-49249047D02*
X171809523Y-49439523D01*
X171809523Y-49439523D02*
X171761904Y-49534761D01*
X171761904Y-49534761D02*
X171666666Y-49630000D01*
X171666666Y-49630000D02*
X171523809Y-49677619D01*
X171523809Y-49677619D02*
X171285714Y-49677619D01*
X158761904Y-40725238D02*
X158666666Y-40677619D01*
X158666666Y-40677619D02*
X158523809Y-40677619D01*
X158523809Y-40677619D02*
X158380952Y-40725238D01*
X158380952Y-40725238D02*
X158285714Y-40820476D01*
X158285714Y-40820476D02*
X158238095Y-40915714D01*
X158238095Y-40915714D02*
X158190476Y-41106190D01*
X158190476Y-41106190D02*
X158190476Y-41249047D01*
X158190476Y-41249047D02*
X158238095Y-41439523D01*
X158238095Y-41439523D02*
X158285714Y-41534761D01*
X158285714Y-41534761D02*
X158380952Y-41630000D01*
X158380952Y-41630000D02*
X158523809Y-41677619D01*
X158523809Y-41677619D02*
X158619047Y-41677619D01*
X158619047Y-41677619D02*
X158761904Y-41630000D01*
X158761904Y-41630000D02*
X158809523Y-41582380D01*
X158809523Y-41582380D02*
X158809523Y-41249047D01*
X158809523Y-41249047D02*
X158619047Y-41249047D01*
X159238095Y-41677619D02*
X159238095Y-40677619D01*
X159238095Y-40677619D02*
X159809523Y-41677619D01*
X159809523Y-41677619D02*
X159809523Y-40677619D01*
X160285714Y-41677619D02*
X160285714Y-40677619D01*
X160285714Y-40677619D02*
X160523809Y-40677619D01*
X160523809Y-40677619D02*
X160666666Y-40725238D01*
X160666666Y-40725238D02*
X160761904Y-40820476D01*
X160761904Y-40820476D02*
X160809523Y-40915714D01*
X160809523Y-40915714D02*
X160857142Y-41106190D01*
X160857142Y-41106190D02*
X160857142Y-41249047D01*
X160857142Y-41249047D02*
X160809523Y-41439523D01*
X160809523Y-41439523D02*
X160761904Y-41534761D01*
X160761904Y-41534761D02*
X160666666Y-41630000D01*
X160666666Y-41630000D02*
X160523809Y-41677619D01*
X160523809Y-41677619D02*
X160285714Y-41677619D01*
X169809523Y-47677619D02*
X169476190Y-47201428D01*
X169238095Y-47677619D02*
X169238095Y-46677619D01*
X169238095Y-46677619D02*
X169619047Y-46677619D01*
X169619047Y-46677619D02*
X169714285Y-46725238D01*
X169714285Y-46725238D02*
X169761904Y-46772857D01*
X169761904Y-46772857D02*
X169809523Y-46868095D01*
X169809523Y-46868095D02*
X169809523Y-47010952D01*
X169809523Y-47010952D02*
X169761904Y-47106190D01*
X169761904Y-47106190D02*
X169714285Y-47153809D01*
X169714285Y-47153809D02*
X169619047Y-47201428D01*
X169619047Y-47201428D02*
X169238095Y-47201428D01*
D13*
X156195238Y-84677619D02*
X156766666Y-84677619D01*
X156480952Y-85677619D02*
X156480952Y-84677619D01*
X157052381Y-85391904D02*
X157528571Y-85391904D01*
X156957143Y-85677619D02*
X157290476Y-84677619D01*
X157290476Y-84677619D02*
X157623809Y-85677619D01*
X157957143Y-85677619D02*
X157957143Y-84677619D01*
X158528571Y-85677619D02*
X158100000Y-85106190D01*
X158528571Y-84677619D02*
X157957143Y-85249047D01*
X158957143Y-85153809D02*
X159290476Y-85153809D01*
X159433333Y-85677619D02*
X158957143Y-85677619D01*
X158957143Y-85677619D02*
X158957143Y-84677619D01*
X158957143Y-84677619D02*
X159433333Y-84677619D01*
X160623810Y-85153809D02*
X160957143Y-85153809D01*
X161100000Y-85677619D02*
X160623810Y-85677619D01*
X160623810Y-85677619D02*
X160623810Y-84677619D01*
X160623810Y-84677619D02*
X161100000Y-84677619D01*
X161528572Y-85677619D02*
X161528572Y-84677619D01*
X162576190Y-85677619D02*
X162242857Y-85201428D01*
X162004762Y-85677619D02*
X162004762Y-84677619D01*
X162004762Y-84677619D02*
X162385714Y-84677619D01*
X162385714Y-84677619D02*
X162480952Y-84725238D01*
X162480952Y-84725238D02*
X162528571Y-84772857D01*
X162528571Y-84772857D02*
X162576190Y-84868095D01*
X162576190Y-84868095D02*
X162576190Y-85010952D01*
X162576190Y-85010952D02*
X162528571Y-85106190D01*
X162528571Y-85106190D02*
X162480952Y-85153809D01*
X162480952Y-85153809D02*
X162385714Y-85201428D01*
X162385714Y-85201428D02*
X162004762Y-85201428D01*
D12*
X178861904Y-53625238D02*
X178766666Y-53577619D01*
X178766666Y-53577619D02*
X178623809Y-53577619D01*
X178623809Y-53577619D02*
X178480952Y-53625238D01*
X178480952Y-53625238D02*
X178385714Y-53720476D01*
X178385714Y-53720476D02*
X178338095Y-53815714D01*
X178338095Y-53815714D02*
X178290476Y-54006190D01*
X178290476Y-54006190D02*
X178290476Y-54149047D01*
X178290476Y-54149047D02*
X178338095Y-54339523D01*
X178338095Y-54339523D02*
X178385714Y-54434761D01*
X178385714Y-54434761D02*
X178480952Y-54530000D01*
X178480952Y-54530000D02*
X178623809Y-54577619D01*
X178623809Y-54577619D02*
X178719047Y-54577619D01*
X178719047Y-54577619D02*
X178861904Y-54530000D01*
X178861904Y-54530000D02*
X178909523Y-54482380D01*
X178909523Y-54482380D02*
X178909523Y-54149047D01*
X178909523Y-54149047D02*
X178719047Y-54149047D01*
X179338095Y-54577619D02*
X179338095Y-53577619D01*
X179338095Y-53577619D02*
X179909523Y-54577619D01*
X179909523Y-54577619D02*
X179909523Y-53577619D01*
X180385714Y-54577619D02*
X180385714Y-53577619D01*
X180385714Y-53577619D02*
X180623809Y-53577619D01*
X180623809Y-53577619D02*
X180766666Y-53625238D01*
X180766666Y-53625238D02*
X180861904Y-53720476D01*
X180861904Y-53720476D02*
X180909523Y-53815714D01*
X180909523Y-53815714D02*
X180957142Y-54006190D01*
X180957142Y-54006190D02*
X180957142Y-54149047D01*
X180957142Y-54149047D02*
X180909523Y-54339523D01*
X180909523Y-54339523D02*
X180861904Y-54434761D01*
X180861904Y-54434761D02*
X180766666Y-54530000D01*
X180766666Y-54530000D02*
X180623809Y-54577619D01*
X180623809Y-54577619D02*
X180385714Y-54577619D01*
D10*
X155666667Y-86613666D02*
X155900001Y-86613666D01*
X156000001Y-86980333D02*
X155666667Y-86980333D01*
X155666667Y-86980333D02*
X155666667Y-86280333D01*
X155666667Y-86280333D02*
X156000001Y-86280333D01*
X156700000Y-86913666D02*
X156666667Y-86947000D01*
X156666667Y-86947000D02*
X156566667Y-86980333D01*
X156566667Y-86980333D02*
X156500000Y-86980333D01*
X156500000Y-86980333D02*
X156400000Y-86947000D01*
X156400000Y-86947000D02*
X156333334Y-86880333D01*
X156333334Y-86880333D02*
X156300000Y-86813666D01*
X156300000Y-86813666D02*
X156266667Y-86680333D01*
X156266667Y-86680333D02*
X156266667Y-86580333D01*
X156266667Y-86580333D02*
X156300000Y-86447000D01*
X156300000Y-86447000D02*
X156333334Y-86380333D01*
X156333334Y-86380333D02*
X156400000Y-86313666D01*
X156400000Y-86313666D02*
X156500000Y-86280333D01*
X156500000Y-86280333D02*
X156566667Y-86280333D01*
X156566667Y-86280333D02*
X156666667Y-86313666D01*
X156666667Y-86313666D02*
X156700000Y-86347000D01*
X157133334Y-86280333D02*
X157266667Y-86280333D01*
X157266667Y-86280333D02*
X157333334Y-86313666D01*
X157333334Y-86313666D02*
X157400000Y-86380333D01*
X157400000Y-86380333D02*
X157433334Y-86513666D01*
X157433334Y-86513666D02*
X157433334Y-86747000D01*
X157433334Y-86747000D02*
X157400000Y-86880333D01*
X157400000Y-86880333D02*
X157333334Y-86947000D01*
X157333334Y-86947000D02*
X157266667Y-86980333D01*
X157266667Y-86980333D02*
X157133334Y-86980333D01*
X157133334Y-86980333D02*
X157066667Y-86947000D01*
X157066667Y-86947000D02*
X157000000Y-86880333D01*
X157000000Y-86880333D02*
X156966667Y-86747000D01*
X156966667Y-86747000D02*
X156966667Y-86513666D01*
X156966667Y-86513666D02*
X157000000Y-86380333D01*
X157000000Y-86380333D02*
X157066667Y-86313666D01*
X157066667Y-86313666D02*
X157133334Y-86280333D01*
X157733333Y-86713666D02*
X158266667Y-86713666D01*
X158833334Y-86613666D02*
X158600000Y-86613666D01*
X158600000Y-86980333D02*
X158600000Y-86280333D01*
X158600000Y-86280333D02*
X158933334Y-86280333D01*
X159600000Y-86980333D02*
X159366667Y-86647000D01*
X159200000Y-86980333D02*
X159200000Y-86280333D01*
X159200000Y-86280333D02*
X159466667Y-86280333D01*
X159466667Y-86280333D02*
X159533334Y-86313666D01*
X159533334Y-86313666D02*
X159566667Y-86347000D01*
X159566667Y-86347000D02*
X159600000Y-86413666D01*
X159600000Y-86413666D02*
X159600000Y-86513666D01*
X159600000Y-86513666D02*
X159566667Y-86580333D01*
X159566667Y-86580333D02*
X159533334Y-86613666D01*
X159533334Y-86613666D02*
X159466667Y-86647000D01*
X159466667Y-86647000D02*
X159200000Y-86647000D01*
X159900000Y-86980333D02*
X159900000Y-86280333D01*
X160233333Y-86613666D02*
X160466667Y-86613666D01*
X160566667Y-86980333D02*
X160233333Y-86980333D01*
X160233333Y-86980333D02*
X160233333Y-86280333D01*
X160233333Y-86280333D02*
X160566667Y-86280333D01*
X160866666Y-86980333D02*
X160866666Y-86280333D01*
X160866666Y-86280333D02*
X161266666Y-86980333D01*
X161266666Y-86980333D02*
X161266666Y-86280333D01*
X161599999Y-86980333D02*
X161599999Y-86280333D01*
X161599999Y-86280333D02*
X161766666Y-86280333D01*
X161766666Y-86280333D02*
X161866666Y-86313666D01*
X161866666Y-86313666D02*
X161933333Y-86380333D01*
X161933333Y-86380333D02*
X161966666Y-86447000D01*
X161966666Y-86447000D02*
X161999999Y-86580333D01*
X161999999Y-86580333D02*
X161999999Y-86680333D01*
X161999999Y-86680333D02*
X161966666Y-86813666D01*
X161966666Y-86813666D02*
X161933333Y-86880333D01*
X161933333Y-86880333D02*
X161866666Y-86947000D01*
X161866666Y-86947000D02*
X161766666Y-86980333D01*
X161766666Y-86980333D02*
X161599999Y-86980333D01*
X162633333Y-86980333D02*
X162299999Y-86980333D01*
X162299999Y-86980333D02*
X162299999Y-86280333D01*
X163000000Y-86647000D02*
X163000000Y-86980333D01*
X162766666Y-86280333D02*
X163000000Y-86647000D01*
X163000000Y-86647000D02*
X163233333Y-86280333D01*
X154233335Y-88114333D02*
X154233335Y-87414333D01*
X154233335Y-87747666D02*
X154633335Y-87747666D01*
X154633335Y-88114333D02*
X154633335Y-87414333D01*
X154966668Y-87747666D02*
X155200002Y-87747666D01*
X155300002Y-88114333D02*
X154966668Y-88114333D01*
X154966668Y-88114333D02*
X154966668Y-87414333D01*
X154966668Y-87414333D02*
X155300002Y-87414333D01*
X155566668Y-87914333D02*
X155900001Y-87914333D01*
X155500001Y-88114333D02*
X155733335Y-87414333D01*
X155733335Y-87414333D02*
X155966668Y-88114333D01*
X156533335Y-88114333D02*
X156200001Y-88114333D01*
X156200001Y-88114333D02*
X156200001Y-87414333D01*
X156666668Y-87414333D02*
X157066668Y-87414333D01*
X156866668Y-88114333D02*
X156866668Y-87414333D01*
X157300001Y-88114333D02*
X157300001Y-87414333D01*
X157300001Y-87747666D02*
X157700001Y-87747666D01*
X157700001Y-88114333D02*
X157700001Y-87414333D01*
X158566667Y-88114333D02*
X158566667Y-87414333D01*
X158566667Y-87414333D02*
X158800001Y-87914333D01*
X158800001Y-87914333D02*
X159033334Y-87414333D01*
X159033334Y-87414333D02*
X159033334Y-88114333D01*
X159500001Y-87414333D02*
X159633334Y-87414333D01*
X159633334Y-87414333D02*
X159700001Y-87447666D01*
X159700001Y-87447666D02*
X159766667Y-87514333D01*
X159766667Y-87514333D02*
X159800001Y-87647666D01*
X159800001Y-87647666D02*
X159800001Y-87881000D01*
X159800001Y-87881000D02*
X159766667Y-88014333D01*
X159766667Y-88014333D02*
X159700001Y-88081000D01*
X159700001Y-88081000D02*
X159633334Y-88114333D01*
X159633334Y-88114333D02*
X159500001Y-88114333D01*
X159500001Y-88114333D02*
X159433334Y-88081000D01*
X159433334Y-88081000D02*
X159366667Y-88014333D01*
X159366667Y-88014333D02*
X159333334Y-87881000D01*
X159333334Y-87881000D02*
X159333334Y-87647666D01*
X159333334Y-87647666D02*
X159366667Y-87514333D01*
X159366667Y-87514333D02*
X159433334Y-87447666D01*
X159433334Y-87447666D02*
X159500001Y-87414333D01*
X160100000Y-88114333D02*
X160100000Y-87414333D01*
X160100000Y-87414333D02*
X160500000Y-88114333D01*
X160500000Y-88114333D02*
X160500000Y-87414333D01*
X160833333Y-88114333D02*
X160833333Y-87414333D01*
X161066666Y-87414333D02*
X161466666Y-87414333D01*
X161266666Y-88114333D02*
X161266666Y-87414333D01*
X161833333Y-87414333D02*
X161966666Y-87414333D01*
X161966666Y-87414333D02*
X162033333Y-87447666D01*
X162033333Y-87447666D02*
X162099999Y-87514333D01*
X162099999Y-87514333D02*
X162133333Y-87647666D01*
X162133333Y-87647666D02*
X162133333Y-87881000D01*
X162133333Y-87881000D02*
X162099999Y-88014333D01*
X162099999Y-88014333D02*
X162033333Y-88081000D01*
X162033333Y-88081000D02*
X161966666Y-88114333D01*
X161966666Y-88114333D02*
X161833333Y-88114333D01*
X161833333Y-88114333D02*
X161766666Y-88081000D01*
X161766666Y-88081000D02*
X161699999Y-88014333D01*
X161699999Y-88014333D02*
X161666666Y-87881000D01*
X161666666Y-87881000D02*
X161666666Y-87647666D01*
X161666666Y-87647666D02*
X161699999Y-87514333D01*
X161699999Y-87514333D02*
X161766666Y-87447666D01*
X161766666Y-87447666D02*
X161833333Y-87414333D01*
X162833332Y-88114333D02*
X162599999Y-87781000D01*
X162433332Y-88114333D02*
X162433332Y-87414333D01*
X162433332Y-87414333D02*
X162699999Y-87414333D01*
X162699999Y-87414333D02*
X162766666Y-87447666D01*
X162766666Y-87447666D02*
X162799999Y-87481000D01*
X162799999Y-87481000D02*
X162833332Y-87547666D01*
X162833332Y-87547666D02*
X162833332Y-87647666D01*
X162833332Y-87647666D02*
X162799999Y-87714333D01*
X162799999Y-87714333D02*
X162766666Y-87747666D01*
X162766666Y-87747666D02*
X162699999Y-87781000D01*
X162699999Y-87781000D02*
X162433332Y-87781000D01*
X163133332Y-88114333D02*
X163133332Y-87414333D01*
X163466665Y-88114333D02*
X163466665Y-87414333D01*
X163466665Y-87414333D02*
X163866665Y-88114333D01*
X163866665Y-88114333D02*
X163866665Y-87414333D01*
X164566665Y-87447666D02*
X164499998Y-87414333D01*
X164499998Y-87414333D02*
X164399998Y-87414333D01*
X164399998Y-87414333D02*
X164299998Y-87447666D01*
X164299998Y-87447666D02*
X164233332Y-87514333D01*
X164233332Y-87514333D02*
X164199998Y-87581000D01*
X164199998Y-87581000D02*
X164166665Y-87714333D01*
X164166665Y-87714333D02*
X164166665Y-87814333D01*
X164166665Y-87814333D02*
X164199998Y-87947666D01*
X164199998Y-87947666D02*
X164233332Y-88014333D01*
X164233332Y-88014333D02*
X164299998Y-88081000D01*
X164299998Y-88081000D02*
X164399998Y-88114333D01*
X164399998Y-88114333D02*
X164466665Y-88114333D01*
X164466665Y-88114333D02*
X164566665Y-88081000D01*
X164566665Y-88081000D02*
X164599998Y-88047666D01*
X164599998Y-88047666D02*
X164599998Y-87814333D01*
X164599998Y-87814333D02*
X164466665Y-87814333D01*
D12*
X178338095Y-50677619D02*
X178338095Y-49677619D01*
X178338095Y-49677619D02*
X178576190Y-49677619D01*
X178576190Y-49677619D02*
X178719047Y-49725238D01*
X178719047Y-49725238D02*
X178814285Y-49820476D01*
X178814285Y-49820476D02*
X178861904Y-49915714D01*
X178861904Y-49915714D02*
X178909523Y-50106190D01*
X178909523Y-50106190D02*
X178909523Y-50249047D01*
X178909523Y-50249047D02*
X178861904Y-50439523D01*
X178861904Y-50439523D02*
X178814285Y-50534761D01*
X178814285Y-50534761D02*
X178719047Y-50630000D01*
X178719047Y-50630000D02*
X178576190Y-50677619D01*
X178576190Y-50677619D02*
X178338095Y-50677619D01*
X179290476Y-50391904D02*
X179766666Y-50391904D01*
X179195238Y-50677619D02*
X179528571Y-49677619D01*
X179528571Y-49677619D02*
X179861904Y-50677619D01*
X180052381Y-49677619D02*
X180623809Y-49677619D01*
X180338095Y-50677619D02*
X180338095Y-49677619D01*
X180909524Y-50391904D02*
X181385714Y-50391904D01*
X180814286Y-50677619D02*
X181147619Y-49677619D01*
X181147619Y-49677619D02*
X181480952Y-50677619D01*
X178861904Y-57825238D02*
X178766666Y-57777619D01*
X178766666Y-57777619D02*
X178623809Y-57777619D01*
X178623809Y-57777619D02*
X178480952Y-57825238D01*
X178480952Y-57825238D02*
X178385714Y-57920476D01*
X178385714Y-57920476D02*
X178338095Y-58015714D01*
X178338095Y-58015714D02*
X178290476Y-58206190D01*
X178290476Y-58206190D02*
X178290476Y-58349047D01*
X178290476Y-58349047D02*
X178338095Y-58539523D01*
X178338095Y-58539523D02*
X178385714Y-58634761D01*
X178385714Y-58634761D02*
X178480952Y-58730000D01*
X178480952Y-58730000D02*
X178623809Y-58777619D01*
X178623809Y-58777619D02*
X178719047Y-58777619D01*
X178719047Y-58777619D02*
X178861904Y-58730000D01*
X178861904Y-58730000D02*
X178909523Y-58682380D01*
X178909523Y-58682380D02*
X178909523Y-58349047D01*
X178909523Y-58349047D02*
X178719047Y-58349047D01*
X179338095Y-58777619D02*
X179338095Y-57777619D01*
X179338095Y-57777619D02*
X179909523Y-58777619D01*
X179909523Y-58777619D02*
X179909523Y-57777619D01*
X180385714Y-58777619D02*
X180385714Y-57777619D01*
X180385714Y-57777619D02*
X180623809Y-57777619D01*
X180623809Y-57777619D02*
X180766666Y-57825238D01*
X180766666Y-57825238D02*
X180861904Y-57920476D01*
X180861904Y-57920476D02*
X180909523Y-58015714D01*
X180909523Y-58015714D02*
X180957142Y-58206190D01*
X180957142Y-58206190D02*
X180957142Y-58349047D01*
X180957142Y-58349047D02*
X180909523Y-58539523D01*
X180909523Y-58539523D02*
X180861904Y-58634761D01*
X180861904Y-58634761D02*
X180766666Y-58730000D01*
X180766666Y-58730000D02*
X180623809Y-58777619D01*
X180623809Y-58777619D02*
X180385714Y-58777619D01*
X178038095Y-40796666D02*
X178800000Y-40796666D01*
X178419047Y-41177619D02*
X178419047Y-40415714D01*
X179752380Y-40177619D02*
X179276190Y-40177619D01*
X179276190Y-40177619D02*
X179228571Y-40653809D01*
X179228571Y-40653809D02*
X179276190Y-40606190D01*
X179276190Y-40606190D02*
X179371428Y-40558571D01*
X179371428Y-40558571D02*
X179609523Y-40558571D01*
X179609523Y-40558571D02*
X179704761Y-40606190D01*
X179704761Y-40606190D02*
X179752380Y-40653809D01*
X179752380Y-40653809D02*
X179799999Y-40749047D01*
X179799999Y-40749047D02*
X179799999Y-40987142D01*
X179799999Y-40987142D02*
X179752380Y-41082380D01*
X179752380Y-41082380D02*
X179704761Y-41130000D01*
X179704761Y-41130000D02*
X179609523Y-41177619D01*
X179609523Y-41177619D02*
X179371428Y-41177619D01*
X179371428Y-41177619D02*
X179276190Y-41130000D01*
X179276190Y-41130000D02*
X179228571Y-41082380D01*
X180085714Y-40177619D02*
X180419047Y-41177619D01*
X180419047Y-41177619D02*
X180752380Y-40177619D01*
D11*
X131285000Y-101995238D02*
X131261190Y-102066666D01*
X131261190Y-102066666D02*
X131261190Y-102185714D01*
X131261190Y-102185714D02*
X131285000Y-102233333D01*
X131285000Y-102233333D02*
X131308809Y-102257142D01*
X131308809Y-102257142D02*
X131356428Y-102280952D01*
X131356428Y-102280952D02*
X131404047Y-102280952D01*
X131404047Y-102280952D02*
X131451666Y-102257142D01*
X131451666Y-102257142D02*
X131475476Y-102233333D01*
X131475476Y-102233333D02*
X131499285Y-102185714D01*
X131499285Y-102185714D02*
X131523095Y-102090476D01*
X131523095Y-102090476D02*
X131546904Y-102042857D01*
X131546904Y-102042857D02*
X131570714Y-102019047D01*
X131570714Y-102019047D02*
X131618333Y-101995238D01*
X131618333Y-101995238D02*
X131665952Y-101995238D01*
X131665952Y-101995238D02*
X131713571Y-102019047D01*
X131713571Y-102019047D02*
X131737380Y-102042857D01*
X131737380Y-102042857D02*
X131761190Y-102090476D01*
X131761190Y-102090476D02*
X131761190Y-102209523D01*
X131761190Y-102209523D02*
X131737380Y-102280952D01*
X131308809Y-102780951D02*
X131285000Y-102757142D01*
X131285000Y-102757142D02*
X131261190Y-102685713D01*
X131261190Y-102685713D02*
X131261190Y-102638094D01*
X131261190Y-102638094D02*
X131285000Y-102566666D01*
X131285000Y-102566666D02*
X131332619Y-102519047D01*
X131332619Y-102519047D02*
X131380238Y-102495237D01*
X131380238Y-102495237D02*
X131475476Y-102471428D01*
X131475476Y-102471428D02*
X131546904Y-102471428D01*
X131546904Y-102471428D02*
X131642142Y-102495237D01*
X131642142Y-102495237D02*
X131689761Y-102519047D01*
X131689761Y-102519047D02*
X131737380Y-102566666D01*
X131737380Y-102566666D02*
X131761190Y-102638094D01*
X131761190Y-102638094D02*
X131761190Y-102685713D01*
X131761190Y-102685713D02*
X131737380Y-102757142D01*
X131737380Y-102757142D02*
X131713571Y-102780951D01*
X131261190Y-103233332D02*
X131261190Y-102995237D01*
X131261190Y-102995237D02*
X131761190Y-102995237D01*
D12*
X178238095Y-60296666D02*
X179000000Y-60296666D01*
X178619047Y-60677619D02*
X178619047Y-59915714D01*
X179380952Y-59677619D02*
X179999999Y-59677619D01*
X179999999Y-59677619D02*
X179666666Y-60058571D01*
X179666666Y-60058571D02*
X179809523Y-60058571D01*
X179809523Y-60058571D02*
X179904761Y-60106190D01*
X179904761Y-60106190D02*
X179952380Y-60153809D01*
X179952380Y-60153809D02*
X179999999Y-60249047D01*
X179999999Y-60249047D02*
X179999999Y-60487142D01*
X179999999Y-60487142D02*
X179952380Y-60582380D01*
X179952380Y-60582380D02*
X179904761Y-60630000D01*
X179904761Y-60630000D02*
X179809523Y-60677619D01*
X179809523Y-60677619D02*
X179523809Y-60677619D01*
X179523809Y-60677619D02*
X179428571Y-60630000D01*
X179428571Y-60630000D02*
X179380952Y-60582380D01*
X180428571Y-60582380D02*
X180476190Y-60630000D01*
X180476190Y-60630000D02*
X180428571Y-60677619D01*
X180428571Y-60677619D02*
X180380952Y-60630000D01*
X180380952Y-60630000D02*
X180428571Y-60582380D01*
X180428571Y-60582380D02*
X180428571Y-60677619D01*
X180809523Y-59677619D02*
X181428570Y-59677619D01*
X181428570Y-59677619D02*
X181095237Y-60058571D01*
X181095237Y-60058571D02*
X181238094Y-60058571D01*
X181238094Y-60058571D02*
X181333332Y-60106190D01*
X181333332Y-60106190D02*
X181380951Y-60153809D01*
X181380951Y-60153809D02*
X181428570Y-60249047D01*
X181428570Y-60249047D02*
X181428570Y-60487142D01*
X181428570Y-60487142D02*
X181380951Y-60582380D01*
X181380951Y-60582380D02*
X181333332Y-60630000D01*
X181333332Y-60630000D02*
X181238094Y-60677619D01*
X181238094Y-60677619D02*
X180952380Y-60677619D01*
X180952380Y-60677619D02*
X180857142Y-60630000D01*
X180857142Y-60630000D02*
X180809523Y-60582380D01*
X181714285Y-59677619D02*
X182047618Y-60677619D01*
X182047618Y-60677619D02*
X182380951Y-59677619D01*
X158238095Y-43196666D02*
X159000000Y-43196666D01*
X158619047Y-43577619D02*
X158619047Y-42815714D01*
X159952380Y-42577619D02*
X159476190Y-42577619D01*
X159476190Y-42577619D02*
X159428571Y-43053809D01*
X159428571Y-43053809D02*
X159476190Y-43006190D01*
X159476190Y-43006190D02*
X159571428Y-42958571D01*
X159571428Y-42958571D02*
X159809523Y-42958571D01*
X159809523Y-42958571D02*
X159904761Y-43006190D01*
X159904761Y-43006190D02*
X159952380Y-43053809D01*
X159952380Y-43053809D02*
X159999999Y-43149047D01*
X159999999Y-43149047D02*
X159999999Y-43387142D01*
X159999999Y-43387142D02*
X159952380Y-43482380D01*
X159952380Y-43482380D02*
X159904761Y-43530000D01*
X159904761Y-43530000D02*
X159809523Y-43577619D01*
X159809523Y-43577619D02*
X159571428Y-43577619D01*
X159571428Y-43577619D02*
X159476190Y-43530000D01*
X159476190Y-43530000D02*
X159428571Y-43482380D01*
X160285714Y-42577619D02*
X160619047Y-43577619D01*
X160619047Y-43577619D02*
X160952380Y-42577619D01*
X178761904Y-82425238D02*
X178666666Y-82377619D01*
X178666666Y-82377619D02*
X178523809Y-82377619D01*
X178523809Y-82377619D02*
X178380952Y-82425238D01*
X178380952Y-82425238D02*
X178285714Y-82520476D01*
X178285714Y-82520476D02*
X178238095Y-82615714D01*
X178238095Y-82615714D02*
X178190476Y-82806190D01*
X178190476Y-82806190D02*
X178190476Y-82949047D01*
X178190476Y-82949047D02*
X178238095Y-83139523D01*
X178238095Y-83139523D02*
X178285714Y-83234761D01*
X178285714Y-83234761D02*
X178380952Y-83330000D01*
X178380952Y-83330000D02*
X178523809Y-83377619D01*
X178523809Y-83377619D02*
X178619047Y-83377619D01*
X178619047Y-83377619D02*
X178761904Y-83330000D01*
X178761904Y-83330000D02*
X178809523Y-83282380D01*
X178809523Y-83282380D02*
X178809523Y-82949047D01*
X178809523Y-82949047D02*
X178619047Y-82949047D01*
X179238095Y-83377619D02*
X179238095Y-82377619D01*
X179238095Y-82377619D02*
X179809523Y-83377619D01*
X179809523Y-83377619D02*
X179809523Y-82377619D01*
X180285714Y-83377619D02*
X180285714Y-82377619D01*
X180285714Y-82377619D02*
X180523809Y-82377619D01*
X180523809Y-82377619D02*
X180666666Y-82425238D01*
X180666666Y-82425238D02*
X180761904Y-82520476D01*
X180761904Y-82520476D02*
X180809523Y-82615714D01*
X180809523Y-82615714D02*
X180857142Y-82806190D01*
X180857142Y-82806190D02*
X180857142Y-82949047D01*
X180857142Y-82949047D02*
X180809523Y-83139523D01*
X180809523Y-83139523D02*
X180761904Y-83234761D01*
X180761904Y-83234761D02*
X180666666Y-83330000D01*
X180666666Y-83330000D02*
X180523809Y-83377619D01*
X180523809Y-83377619D02*
X180285714Y-83377619D01*
X158238095Y-39577619D02*
X158238095Y-38577619D01*
X158238095Y-38577619D02*
X158476190Y-38577619D01*
X158476190Y-38577619D02*
X158619047Y-38625238D01*
X158619047Y-38625238D02*
X158714285Y-38720476D01*
X158714285Y-38720476D02*
X158761904Y-38815714D01*
X158761904Y-38815714D02*
X158809523Y-39006190D01*
X158809523Y-39006190D02*
X158809523Y-39149047D01*
X158809523Y-39149047D02*
X158761904Y-39339523D01*
X158761904Y-39339523D02*
X158714285Y-39434761D01*
X158714285Y-39434761D02*
X158619047Y-39530000D01*
X158619047Y-39530000D02*
X158476190Y-39577619D01*
X158476190Y-39577619D02*
X158238095Y-39577619D01*
X159190476Y-39291904D02*
X159666666Y-39291904D01*
X159095238Y-39577619D02*
X159428571Y-38577619D01*
X159428571Y-38577619D02*
X159761904Y-39577619D01*
X159952381Y-38577619D02*
X160523809Y-38577619D01*
X160238095Y-39577619D02*
X160238095Y-38577619D01*
X160809524Y-39291904D02*
X161285714Y-39291904D01*
X160714286Y-39577619D02*
X161047619Y-38577619D01*
X161047619Y-38577619D02*
X161380952Y-39577619D01*
D11*
X133385000Y-101995238D02*
X133361190Y-102066666D01*
X133361190Y-102066666D02*
X133361190Y-102185714D01*
X133361190Y-102185714D02*
X133385000Y-102233333D01*
X133385000Y-102233333D02*
X133408809Y-102257142D01*
X133408809Y-102257142D02*
X133456428Y-102280952D01*
X133456428Y-102280952D02*
X133504047Y-102280952D01*
X133504047Y-102280952D02*
X133551666Y-102257142D01*
X133551666Y-102257142D02*
X133575476Y-102233333D01*
X133575476Y-102233333D02*
X133599285Y-102185714D01*
X133599285Y-102185714D02*
X133623095Y-102090476D01*
X133623095Y-102090476D02*
X133646904Y-102042857D01*
X133646904Y-102042857D02*
X133670714Y-102019047D01*
X133670714Y-102019047D02*
X133718333Y-101995238D01*
X133718333Y-101995238D02*
X133765952Y-101995238D01*
X133765952Y-101995238D02*
X133813571Y-102019047D01*
X133813571Y-102019047D02*
X133837380Y-102042857D01*
X133837380Y-102042857D02*
X133861190Y-102090476D01*
X133861190Y-102090476D02*
X133861190Y-102209523D01*
X133861190Y-102209523D02*
X133837380Y-102280952D01*
X133361190Y-102495237D02*
X133861190Y-102495237D01*
X133861190Y-102495237D02*
X133861190Y-102614285D01*
X133861190Y-102614285D02*
X133837380Y-102685713D01*
X133837380Y-102685713D02*
X133789761Y-102733332D01*
X133789761Y-102733332D02*
X133742142Y-102757142D01*
X133742142Y-102757142D02*
X133646904Y-102780951D01*
X133646904Y-102780951D02*
X133575476Y-102780951D01*
X133575476Y-102780951D02*
X133480238Y-102757142D01*
X133480238Y-102757142D02*
X133432619Y-102733332D01*
X133432619Y-102733332D02*
X133385000Y-102685713D01*
X133385000Y-102685713D02*
X133361190Y-102614285D01*
X133361190Y-102614285D02*
X133361190Y-102495237D01*
X133504047Y-102971428D02*
X133504047Y-103209523D01*
X133361190Y-102923809D02*
X133861190Y-103090475D01*
X133861190Y-103090475D02*
X133361190Y-103257142D01*
D12*
X178090476Y-79330000D02*
X178233333Y-79377619D01*
X178233333Y-79377619D02*
X178471428Y-79377619D01*
X178471428Y-79377619D02*
X178566666Y-79330000D01*
X178566666Y-79330000D02*
X178614285Y-79282380D01*
X178614285Y-79282380D02*
X178661904Y-79187142D01*
X178661904Y-79187142D02*
X178661904Y-79091904D01*
X178661904Y-79091904D02*
X178614285Y-78996666D01*
X178614285Y-78996666D02*
X178566666Y-78949047D01*
X178566666Y-78949047D02*
X178471428Y-78901428D01*
X178471428Y-78901428D02*
X178280952Y-78853809D01*
X178280952Y-78853809D02*
X178185714Y-78806190D01*
X178185714Y-78806190D02*
X178138095Y-78758571D01*
X178138095Y-78758571D02*
X178090476Y-78663333D01*
X178090476Y-78663333D02*
X178090476Y-78568095D01*
X178090476Y-78568095D02*
X178138095Y-78472857D01*
X178138095Y-78472857D02*
X178185714Y-78425238D01*
X178185714Y-78425238D02*
X178280952Y-78377619D01*
X178280952Y-78377619D02*
X178519047Y-78377619D01*
X178519047Y-78377619D02*
X178661904Y-78425238D01*
X179090476Y-79377619D02*
X179090476Y-78377619D01*
X179090476Y-78377619D02*
X179328571Y-78377619D01*
X179328571Y-78377619D02*
X179471428Y-78425238D01*
X179471428Y-78425238D02*
X179566666Y-78520476D01*
X179566666Y-78520476D02*
X179614285Y-78615714D01*
X179614285Y-78615714D02*
X179661904Y-78806190D01*
X179661904Y-78806190D02*
X179661904Y-78949047D01*
X179661904Y-78949047D02*
X179614285Y-79139523D01*
X179614285Y-79139523D02*
X179566666Y-79234761D01*
X179566666Y-79234761D02*
X179471428Y-79330000D01*
X179471428Y-79330000D02*
X179328571Y-79377619D01*
X179328571Y-79377619D02*
X179090476Y-79377619D01*
X180042857Y-79091904D02*
X180519047Y-79091904D01*
X179947619Y-79377619D02*
X180280952Y-78377619D01*
X180280952Y-78377619D02*
X180614285Y-79377619D01*
X178338095Y-67177619D02*
X178338095Y-66177619D01*
X178338095Y-66177619D02*
X178576190Y-66177619D01*
X178576190Y-66177619D02*
X178719047Y-66225238D01*
X178719047Y-66225238D02*
X178814285Y-66320476D01*
X178814285Y-66320476D02*
X178861904Y-66415714D01*
X178861904Y-66415714D02*
X178909523Y-66606190D01*
X178909523Y-66606190D02*
X178909523Y-66749047D01*
X178909523Y-66749047D02*
X178861904Y-66939523D01*
X178861904Y-66939523D02*
X178814285Y-67034761D01*
X178814285Y-67034761D02*
X178719047Y-67130000D01*
X178719047Y-67130000D02*
X178576190Y-67177619D01*
X178576190Y-67177619D02*
X178338095Y-67177619D01*
X179290476Y-66891904D02*
X179766666Y-66891904D01*
X179195238Y-67177619D02*
X179528571Y-66177619D01*
X179528571Y-66177619D02*
X179861904Y-67177619D01*
X180052381Y-66177619D02*
X180623809Y-66177619D01*
X180338095Y-67177619D02*
X180338095Y-66177619D01*
X180909524Y-66891904D02*
X181385714Y-66891904D01*
X180814286Y-67177619D02*
X181147619Y-66177619D01*
X181147619Y-66177619D02*
X181480952Y-67177619D01*
D13*
X189877619Y-97361904D02*
X188877619Y-97361904D01*
X189877619Y-96933333D02*
X189353809Y-96933333D01*
X189353809Y-96933333D02*
X189258571Y-96980952D01*
X189258571Y-96980952D02*
X189210952Y-97076190D01*
X189210952Y-97076190D02*
X189210952Y-97219047D01*
X189210952Y-97219047D02*
X189258571Y-97314285D01*
X189258571Y-97314285D02*
X189306190Y-97361904D01*
X189830000Y-96076190D02*
X189877619Y-96171428D01*
X189877619Y-96171428D02*
X189877619Y-96361904D01*
X189877619Y-96361904D02*
X189830000Y-96457142D01*
X189830000Y-96457142D02*
X189734761Y-96504761D01*
X189734761Y-96504761D02*
X189353809Y-96504761D01*
X189353809Y-96504761D02*
X189258571Y-96457142D01*
X189258571Y-96457142D02*
X189210952Y-96361904D01*
X189210952Y-96361904D02*
X189210952Y-96171428D01*
X189210952Y-96171428D02*
X189258571Y-96076190D01*
X189258571Y-96076190D02*
X189353809Y-96028571D01*
X189353809Y-96028571D02*
X189449047Y-96028571D01*
X189449047Y-96028571D02*
X189544285Y-96504761D01*
X189877619Y-95171428D02*
X189353809Y-95171428D01*
X189353809Y-95171428D02*
X189258571Y-95219047D01*
X189258571Y-95219047D02*
X189210952Y-95314285D01*
X189210952Y-95314285D02*
X189210952Y-95504761D01*
X189210952Y-95504761D02*
X189258571Y-95599999D01*
X189830000Y-95171428D02*
X189877619Y-95266666D01*
X189877619Y-95266666D02*
X189877619Y-95504761D01*
X189877619Y-95504761D02*
X189830000Y-95599999D01*
X189830000Y-95599999D02*
X189734761Y-95647618D01*
X189734761Y-95647618D02*
X189639523Y-95647618D01*
X189639523Y-95647618D02*
X189544285Y-95599999D01*
X189544285Y-95599999D02*
X189496666Y-95504761D01*
X189496666Y-95504761D02*
X189496666Y-95266666D01*
X189496666Y-95266666D02*
X189449047Y-95171428D01*
X189877619Y-94552380D02*
X189830000Y-94647618D01*
X189830000Y-94647618D02*
X189734761Y-94695237D01*
X189734761Y-94695237D02*
X188877619Y-94695237D01*
X189210952Y-94314284D02*
X189210952Y-93933332D01*
X188877619Y-94171427D02*
X189734761Y-94171427D01*
X189734761Y-94171427D02*
X189830000Y-94123808D01*
X189830000Y-94123808D02*
X189877619Y-94028570D01*
X189877619Y-94028570D02*
X189877619Y-93933332D01*
X189877619Y-93599998D02*
X188877619Y-93599998D01*
X189877619Y-93171427D02*
X189353809Y-93171427D01*
X189353809Y-93171427D02*
X189258571Y-93219046D01*
X189258571Y-93219046D02*
X189210952Y-93314284D01*
X189210952Y-93314284D02*
X189210952Y-93457141D01*
X189210952Y-93457141D02*
X189258571Y-93552379D01*
X189258571Y-93552379D02*
X189306190Y-93599998D01*
X189496666Y-92695236D02*
X189496666Y-91933332D01*
X189830000Y-91076189D02*
X189877619Y-91171427D01*
X189877619Y-91171427D02*
X189877619Y-91361903D01*
X189877619Y-91361903D02*
X189830000Y-91457141D01*
X189830000Y-91457141D02*
X189734761Y-91504760D01*
X189734761Y-91504760D02*
X189353809Y-91504760D01*
X189353809Y-91504760D02*
X189258571Y-91457141D01*
X189258571Y-91457141D02*
X189210952Y-91361903D01*
X189210952Y-91361903D02*
X189210952Y-91171427D01*
X189210952Y-91171427D02*
X189258571Y-91076189D01*
X189258571Y-91076189D02*
X189353809Y-91028570D01*
X189353809Y-91028570D02*
X189449047Y-91028570D01*
X189449047Y-91028570D02*
X189544285Y-91504760D01*
X189877619Y-90599998D02*
X189210952Y-90599998D01*
X188877619Y-90599998D02*
X188925238Y-90647617D01*
X188925238Y-90647617D02*
X188972857Y-90599998D01*
X188972857Y-90599998D02*
X188925238Y-90552379D01*
X188925238Y-90552379D02*
X188877619Y-90599998D01*
X188877619Y-90599998D02*
X188972857Y-90599998D01*
X189877619Y-90123808D02*
X189210952Y-90123808D01*
X189401428Y-90123808D02*
X189306190Y-90076189D01*
X189306190Y-90076189D02*
X189258571Y-90028570D01*
X189258571Y-90028570D02*
X189210952Y-89933332D01*
X189210952Y-89933332D02*
X189210952Y-89838094D01*
X189210952Y-88838093D02*
X189877619Y-88599998D01*
X189877619Y-88599998D02*
X189210952Y-88361903D01*
X188972857Y-88028569D02*
X188925238Y-87980950D01*
X188925238Y-87980950D02*
X188877619Y-87885712D01*
X188877619Y-87885712D02*
X188877619Y-87647617D01*
X188877619Y-87647617D02*
X188925238Y-87552379D01*
X188925238Y-87552379D02*
X188972857Y-87504760D01*
X188972857Y-87504760D02*
X189068095Y-87457141D01*
X189068095Y-87457141D02*
X189163333Y-87457141D01*
X189163333Y-87457141D02*
X189306190Y-87504760D01*
X189306190Y-87504760D02*
X189877619Y-88076188D01*
X189877619Y-88076188D02*
X189877619Y-87457141D01*
X189496666Y-86266664D02*
X189496666Y-85504760D01*
X189210952Y-84361902D02*
X189877619Y-84123807D01*
X189877619Y-84123807D02*
X189210952Y-83885712D01*
X189830000Y-83123807D02*
X189877619Y-83219045D01*
X189877619Y-83219045D02*
X189877619Y-83409521D01*
X189877619Y-83409521D02*
X189830000Y-83504759D01*
X189830000Y-83504759D02*
X189734761Y-83552378D01*
X189734761Y-83552378D02*
X189353809Y-83552378D01*
X189353809Y-83552378D02*
X189258571Y-83504759D01*
X189258571Y-83504759D02*
X189210952Y-83409521D01*
X189210952Y-83409521D02*
X189210952Y-83219045D01*
X189210952Y-83219045D02*
X189258571Y-83123807D01*
X189258571Y-83123807D02*
X189353809Y-83076188D01*
X189353809Y-83076188D02*
X189449047Y-83076188D01*
X189449047Y-83076188D02*
X189544285Y-83552378D01*
X189877619Y-82647616D02*
X189210952Y-82647616D01*
X189401428Y-82647616D02*
X189306190Y-82599997D01*
X189306190Y-82599997D02*
X189258571Y-82552378D01*
X189258571Y-82552378D02*
X189210952Y-82457140D01*
X189210952Y-82457140D02*
X189210952Y-82361902D01*
X189830000Y-82076187D02*
X189877619Y-81980949D01*
X189877619Y-81980949D02*
X189877619Y-81790473D01*
X189877619Y-81790473D02*
X189830000Y-81695235D01*
X189830000Y-81695235D02*
X189734761Y-81647616D01*
X189734761Y-81647616D02*
X189687142Y-81647616D01*
X189687142Y-81647616D02*
X189591904Y-81695235D01*
X189591904Y-81695235D02*
X189544285Y-81790473D01*
X189544285Y-81790473D02*
X189544285Y-81933330D01*
X189544285Y-81933330D02*
X189496666Y-82028568D01*
X189496666Y-82028568D02*
X189401428Y-82076187D01*
X189401428Y-82076187D02*
X189353809Y-82076187D01*
X189353809Y-82076187D02*
X189258571Y-82028568D01*
X189258571Y-82028568D02*
X189210952Y-81933330D01*
X189210952Y-81933330D02*
X189210952Y-81790473D01*
X189210952Y-81790473D02*
X189258571Y-81695235D01*
X189877619Y-81219044D02*
X189210952Y-81219044D01*
X188877619Y-81219044D02*
X188925238Y-81266663D01*
X188925238Y-81266663D02*
X188972857Y-81219044D01*
X188972857Y-81219044D02*
X188925238Y-81171425D01*
X188925238Y-81171425D02*
X188877619Y-81219044D01*
X188877619Y-81219044D02*
X188972857Y-81219044D01*
X189877619Y-80599997D02*
X189830000Y-80695235D01*
X189830000Y-80695235D02*
X189782380Y-80742854D01*
X189782380Y-80742854D02*
X189687142Y-80790473D01*
X189687142Y-80790473D02*
X189401428Y-80790473D01*
X189401428Y-80790473D02*
X189306190Y-80742854D01*
X189306190Y-80742854D02*
X189258571Y-80695235D01*
X189258571Y-80695235D02*
X189210952Y-80599997D01*
X189210952Y-80599997D02*
X189210952Y-80457140D01*
X189210952Y-80457140D02*
X189258571Y-80361902D01*
X189258571Y-80361902D02*
X189306190Y-80314283D01*
X189306190Y-80314283D02*
X189401428Y-80266664D01*
X189401428Y-80266664D02*
X189687142Y-80266664D01*
X189687142Y-80266664D02*
X189782380Y-80314283D01*
X189782380Y-80314283D02*
X189830000Y-80361902D01*
X189830000Y-80361902D02*
X189877619Y-80457140D01*
X189877619Y-80457140D02*
X189877619Y-80599997D01*
X189210952Y-79838092D02*
X189877619Y-79838092D01*
X189306190Y-79838092D02*
X189258571Y-79790473D01*
X189258571Y-79790473D02*
X189210952Y-79695235D01*
X189210952Y-79695235D02*
X189210952Y-79552378D01*
X189210952Y-79552378D02*
X189258571Y-79457140D01*
X189258571Y-79457140D02*
X189353809Y-79409521D01*
X189353809Y-79409521D02*
X189877619Y-79409521D01*
X189877619Y-77647616D02*
X189877619Y-78219044D01*
X189877619Y-77933330D02*
X188877619Y-77933330D01*
X188877619Y-77933330D02*
X189020476Y-78028568D01*
X189020476Y-78028568D02*
X189115714Y-78123806D01*
X189115714Y-78123806D02*
X189163333Y-78219044D01*
X189782380Y-77219044D02*
X189830000Y-77171425D01*
X189830000Y-77171425D02*
X189877619Y-77219044D01*
X189877619Y-77219044D02*
X189830000Y-77266663D01*
X189830000Y-77266663D02*
X189782380Y-77219044D01*
X189782380Y-77219044D02*
X189877619Y-77219044D01*
X189877619Y-76219045D02*
X189877619Y-76790473D01*
X189877619Y-76504759D02*
X188877619Y-76504759D01*
X188877619Y-76504759D02*
X189020476Y-76599997D01*
X189020476Y-76599997D02*
X189115714Y-76695235D01*
X189115714Y-76695235D02*
X189163333Y-76790473D01*
X189496666Y-75028568D02*
X189496666Y-74266664D01*
X189877619Y-73028568D02*
X188877619Y-73028568D01*
X188877619Y-73028568D02*
X189591904Y-72695235D01*
X189591904Y-72695235D02*
X188877619Y-72361902D01*
X188877619Y-72361902D02*
X189877619Y-72361902D01*
X189877619Y-71457140D02*
X189353809Y-71457140D01*
X189353809Y-71457140D02*
X189258571Y-71504759D01*
X189258571Y-71504759D02*
X189210952Y-71599997D01*
X189210952Y-71599997D02*
X189210952Y-71790473D01*
X189210952Y-71790473D02*
X189258571Y-71885711D01*
X189830000Y-71457140D02*
X189877619Y-71552378D01*
X189877619Y-71552378D02*
X189877619Y-71790473D01*
X189877619Y-71790473D02*
X189830000Y-71885711D01*
X189830000Y-71885711D02*
X189734761Y-71933330D01*
X189734761Y-71933330D02*
X189639523Y-71933330D01*
X189639523Y-71933330D02*
X189544285Y-71885711D01*
X189544285Y-71885711D02*
X189496666Y-71790473D01*
X189496666Y-71790473D02*
X189496666Y-71552378D01*
X189496666Y-71552378D02*
X189449047Y-71457140D01*
X189877619Y-70552378D02*
X188877619Y-70552378D01*
X189830000Y-70552378D02*
X189877619Y-70647616D01*
X189877619Y-70647616D02*
X189877619Y-70838092D01*
X189877619Y-70838092D02*
X189830000Y-70933330D01*
X189830000Y-70933330D02*
X189782380Y-70980949D01*
X189782380Y-70980949D02*
X189687142Y-71028568D01*
X189687142Y-71028568D02*
X189401428Y-71028568D01*
X189401428Y-71028568D02*
X189306190Y-70980949D01*
X189306190Y-70980949D02*
X189258571Y-70933330D01*
X189258571Y-70933330D02*
X189210952Y-70838092D01*
X189210952Y-70838092D02*
X189210952Y-70647616D01*
X189210952Y-70647616D02*
X189258571Y-70552378D01*
X189830000Y-69695235D02*
X189877619Y-69790473D01*
X189877619Y-69790473D02*
X189877619Y-69980949D01*
X189877619Y-69980949D02*
X189830000Y-70076187D01*
X189830000Y-70076187D02*
X189734761Y-70123806D01*
X189734761Y-70123806D02*
X189353809Y-70123806D01*
X189353809Y-70123806D02*
X189258571Y-70076187D01*
X189258571Y-70076187D02*
X189210952Y-69980949D01*
X189210952Y-69980949D02*
X189210952Y-69790473D01*
X189210952Y-69790473D02*
X189258571Y-69695235D01*
X189258571Y-69695235D02*
X189353809Y-69647616D01*
X189353809Y-69647616D02*
X189449047Y-69647616D01*
X189449047Y-69647616D02*
X189544285Y-70123806D01*
X189877619Y-68457139D02*
X188877619Y-68457139D01*
X189258571Y-68457139D02*
X189210952Y-68361901D01*
X189210952Y-68361901D02*
X189210952Y-68171425D01*
X189210952Y-68171425D02*
X189258571Y-68076187D01*
X189258571Y-68076187D02*
X189306190Y-68028568D01*
X189306190Y-68028568D02*
X189401428Y-67980949D01*
X189401428Y-67980949D02*
X189687142Y-67980949D01*
X189687142Y-67980949D02*
X189782380Y-68028568D01*
X189782380Y-68028568D02*
X189830000Y-68076187D01*
X189830000Y-68076187D02*
X189877619Y-68171425D01*
X189877619Y-68171425D02*
X189877619Y-68361901D01*
X189877619Y-68361901D02*
X189830000Y-68457139D01*
X189210952Y-67647615D02*
X189877619Y-67409520D01*
X189210952Y-67171425D02*
X189877619Y-67409520D01*
X189877619Y-67409520D02*
X190115714Y-67504758D01*
X190115714Y-67504758D02*
X190163333Y-67552377D01*
X190163333Y-67552377D02*
X190210952Y-67647615D01*
X188877619Y-66171424D02*
X188877619Y-65599996D01*
X189877619Y-65885710D02*
X188877619Y-65885710D01*
X189877619Y-65266662D02*
X188877619Y-65266662D01*
X189877619Y-64838091D02*
X189353809Y-64838091D01*
X189353809Y-64838091D02*
X189258571Y-64885710D01*
X189258571Y-64885710D02*
X189210952Y-64980948D01*
X189210952Y-64980948D02*
X189210952Y-65123805D01*
X189210952Y-65123805D02*
X189258571Y-65219043D01*
X189258571Y-65219043D02*
X189306190Y-65266662D01*
X189830000Y-63980948D02*
X189877619Y-64076186D01*
X189877619Y-64076186D02*
X189877619Y-64266662D01*
X189877619Y-64266662D02*
X189830000Y-64361900D01*
X189830000Y-64361900D02*
X189734761Y-64409519D01*
X189734761Y-64409519D02*
X189353809Y-64409519D01*
X189353809Y-64409519D02*
X189258571Y-64361900D01*
X189258571Y-64361900D02*
X189210952Y-64266662D01*
X189210952Y-64266662D02*
X189210952Y-64076186D01*
X189210952Y-64076186D02*
X189258571Y-63980948D01*
X189258571Y-63980948D02*
X189353809Y-63933329D01*
X189353809Y-63933329D02*
X189449047Y-63933329D01*
X189449047Y-63933329D02*
X189544285Y-64409519D01*
X189877619Y-63361900D02*
X189830000Y-63457138D01*
X189830000Y-63457138D02*
X189782380Y-63504757D01*
X189782380Y-63504757D02*
X189687142Y-63552376D01*
X189687142Y-63552376D02*
X189401428Y-63552376D01*
X189401428Y-63552376D02*
X189306190Y-63504757D01*
X189306190Y-63504757D02*
X189258571Y-63457138D01*
X189258571Y-63457138D02*
X189210952Y-63361900D01*
X189210952Y-63361900D02*
X189210952Y-63219043D01*
X189210952Y-63219043D02*
X189258571Y-63123805D01*
X189258571Y-63123805D02*
X189306190Y-63076186D01*
X189306190Y-63076186D02*
X189401428Y-63028567D01*
X189401428Y-63028567D02*
X189687142Y-63028567D01*
X189687142Y-63028567D02*
X189782380Y-63076186D01*
X189782380Y-63076186D02*
X189830000Y-63123805D01*
X189830000Y-63123805D02*
X189877619Y-63219043D01*
X189877619Y-63219043D02*
X189877619Y-63361900D01*
X189210952Y-62599995D02*
X190210952Y-62599995D01*
X189258571Y-62599995D02*
X189210952Y-62504757D01*
X189210952Y-62504757D02*
X189210952Y-62314281D01*
X189210952Y-62314281D02*
X189258571Y-62219043D01*
X189258571Y-62219043D02*
X189306190Y-62171424D01*
X189306190Y-62171424D02*
X189401428Y-62123805D01*
X189401428Y-62123805D02*
X189687142Y-62123805D01*
X189687142Y-62123805D02*
X189782380Y-62171424D01*
X189782380Y-62171424D02*
X189830000Y-62219043D01*
X189830000Y-62219043D02*
X189877619Y-62314281D01*
X189877619Y-62314281D02*
X189877619Y-62504757D01*
X189877619Y-62504757D02*
X189830000Y-62599995D01*
X189877619Y-61695233D02*
X188877619Y-61695233D01*
X189877619Y-61266662D02*
X189353809Y-61266662D01*
X189353809Y-61266662D02*
X189258571Y-61314281D01*
X189258571Y-61314281D02*
X189210952Y-61409519D01*
X189210952Y-61409519D02*
X189210952Y-61552376D01*
X189210952Y-61552376D02*
X189258571Y-61647614D01*
X189258571Y-61647614D02*
X189306190Y-61695233D01*
X189877619Y-60790471D02*
X189210952Y-60790471D01*
X188877619Y-60790471D02*
X188925238Y-60838090D01*
X188925238Y-60838090D02*
X188972857Y-60790471D01*
X188972857Y-60790471D02*
X188925238Y-60742852D01*
X188925238Y-60742852D02*
X188877619Y-60790471D01*
X188877619Y-60790471D02*
X188972857Y-60790471D01*
X189877619Y-60171424D02*
X189830000Y-60266662D01*
X189830000Y-60266662D02*
X189734761Y-60314281D01*
X189734761Y-60314281D02*
X188877619Y-60314281D01*
X189830000Y-59409519D02*
X189877619Y-59504757D01*
X189877619Y-59504757D02*
X189877619Y-59695233D01*
X189877619Y-59695233D02*
X189830000Y-59790471D01*
X189830000Y-59790471D02*
X189734761Y-59838090D01*
X189734761Y-59838090D02*
X189353809Y-59838090D01*
X189353809Y-59838090D02*
X189258571Y-59790471D01*
X189258571Y-59790471D02*
X189210952Y-59695233D01*
X189210952Y-59695233D02*
X189210952Y-59504757D01*
X189210952Y-59504757D02*
X189258571Y-59409519D01*
X189258571Y-59409519D02*
X189353809Y-59361900D01*
X189353809Y-59361900D02*
X189449047Y-59361900D01*
X189449047Y-59361900D02*
X189544285Y-59838090D01*
X188877619Y-58266661D02*
X189877619Y-58028566D01*
X189877619Y-58028566D02*
X189163333Y-57838090D01*
X189163333Y-57838090D02*
X189877619Y-57647614D01*
X189877619Y-57647614D02*
X188877619Y-57409519D01*
X189830000Y-56647614D02*
X189877619Y-56742852D01*
X189877619Y-56742852D02*
X189877619Y-56933328D01*
X189877619Y-56933328D02*
X189830000Y-57028566D01*
X189830000Y-57028566D02*
X189734761Y-57076185D01*
X189734761Y-57076185D02*
X189353809Y-57076185D01*
X189353809Y-57076185D02*
X189258571Y-57028566D01*
X189258571Y-57028566D02*
X189210952Y-56933328D01*
X189210952Y-56933328D02*
X189210952Y-56742852D01*
X189210952Y-56742852D02*
X189258571Y-56647614D01*
X189258571Y-56647614D02*
X189353809Y-56599995D01*
X189353809Y-56599995D02*
X189449047Y-56599995D01*
X189449047Y-56599995D02*
X189544285Y-57076185D01*
X189877619Y-56171423D02*
X189210952Y-56171423D01*
X189306190Y-56171423D02*
X189258571Y-56123804D01*
X189258571Y-56123804D02*
X189210952Y-56028566D01*
X189210952Y-56028566D02*
X189210952Y-55885709D01*
X189210952Y-55885709D02*
X189258571Y-55790471D01*
X189258571Y-55790471D02*
X189353809Y-55742852D01*
X189353809Y-55742852D02*
X189877619Y-55742852D01*
X189353809Y-55742852D02*
X189258571Y-55695233D01*
X189258571Y-55695233D02*
X189210952Y-55599995D01*
X189210952Y-55599995D02*
X189210952Y-55457138D01*
X189210952Y-55457138D02*
X189258571Y-55361899D01*
X189258571Y-55361899D02*
X189353809Y-55314280D01*
X189353809Y-55314280D02*
X189877619Y-55314280D01*
X189877619Y-54409519D02*
X189353809Y-54409519D01*
X189353809Y-54409519D02*
X189258571Y-54457138D01*
X189258571Y-54457138D02*
X189210952Y-54552376D01*
X189210952Y-54552376D02*
X189210952Y-54742852D01*
X189210952Y-54742852D02*
X189258571Y-54838090D01*
X189830000Y-54409519D02*
X189877619Y-54504757D01*
X189877619Y-54504757D02*
X189877619Y-54742852D01*
X189877619Y-54742852D02*
X189830000Y-54838090D01*
X189830000Y-54838090D02*
X189734761Y-54885709D01*
X189734761Y-54885709D02*
X189639523Y-54885709D01*
X189639523Y-54885709D02*
X189544285Y-54838090D01*
X189544285Y-54838090D02*
X189496666Y-54742852D01*
X189496666Y-54742852D02*
X189496666Y-54504757D01*
X189496666Y-54504757D02*
X189449047Y-54409519D01*
X189830000Y-53552376D02*
X189877619Y-53647614D01*
X189877619Y-53647614D02*
X189877619Y-53838090D01*
X189877619Y-53838090D02*
X189830000Y-53933328D01*
X189830000Y-53933328D02*
X189734761Y-53980947D01*
X189734761Y-53980947D02*
X189353809Y-53980947D01*
X189353809Y-53980947D02*
X189258571Y-53933328D01*
X189258571Y-53933328D02*
X189210952Y-53838090D01*
X189210952Y-53838090D02*
X189210952Y-53647614D01*
X189210952Y-53647614D02*
X189258571Y-53552376D01*
X189258571Y-53552376D02*
X189353809Y-53504757D01*
X189353809Y-53504757D02*
X189449047Y-53504757D01*
X189449047Y-53504757D02*
X189544285Y-53980947D01*
X189877619Y-53076185D02*
X189210952Y-53076185D01*
X189401428Y-53076185D02*
X189306190Y-53028566D01*
X189306190Y-53028566D02*
X189258571Y-52980947D01*
X189258571Y-52980947D02*
X189210952Y-52885709D01*
X189210952Y-52885709D02*
X189210952Y-52790471D01*
X189830000Y-52076185D02*
X189877619Y-52171423D01*
X189877619Y-52171423D02*
X189877619Y-52361899D01*
X189877619Y-52361899D02*
X189830000Y-52457137D01*
X189830000Y-52457137D02*
X189734761Y-52504756D01*
X189734761Y-52504756D02*
X189353809Y-52504756D01*
X189353809Y-52504756D02*
X189258571Y-52457137D01*
X189258571Y-52457137D02*
X189210952Y-52361899D01*
X189210952Y-52361899D02*
X189210952Y-52171423D01*
X189210952Y-52171423D02*
X189258571Y-52076185D01*
X189258571Y-52076185D02*
X189353809Y-52028566D01*
X189353809Y-52028566D02*
X189449047Y-52028566D01*
X189449047Y-52028566D02*
X189544285Y-52504756D01*
X189496666Y-50838089D02*
X189496666Y-50076185D01*
X189877619Y-48838089D02*
X188877619Y-48838089D01*
X188877619Y-48838089D02*
X189591904Y-48504756D01*
X189591904Y-48504756D02*
X188877619Y-48171423D01*
X188877619Y-48171423D02*
X189877619Y-48171423D01*
X189877619Y-47266661D02*
X189353809Y-47266661D01*
X189353809Y-47266661D02*
X189258571Y-47314280D01*
X189258571Y-47314280D02*
X189210952Y-47409518D01*
X189210952Y-47409518D02*
X189210952Y-47599994D01*
X189210952Y-47599994D02*
X189258571Y-47695232D01*
X189830000Y-47266661D02*
X189877619Y-47361899D01*
X189877619Y-47361899D02*
X189877619Y-47599994D01*
X189877619Y-47599994D02*
X189830000Y-47695232D01*
X189830000Y-47695232D02*
X189734761Y-47742851D01*
X189734761Y-47742851D02*
X189639523Y-47742851D01*
X189639523Y-47742851D02*
X189544285Y-47695232D01*
X189544285Y-47695232D02*
X189496666Y-47599994D01*
X189496666Y-47599994D02*
X189496666Y-47361899D01*
X189496666Y-47361899D02*
X189449047Y-47266661D01*
X189210952Y-46885708D02*
X189877619Y-46647613D01*
X189210952Y-46409518D02*
X189877619Y-46647613D01*
X189877619Y-46647613D02*
X190115714Y-46742851D01*
X190115714Y-46742851D02*
X190163333Y-46790470D01*
X190163333Y-46790470D02*
X190210952Y-46885708D01*
X188972857Y-45314279D02*
X188925238Y-45266660D01*
X188925238Y-45266660D02*
X188877619Y-45171422D01*
X188877619Y-45171422D02*
X188877619Y-44933327D01*
X188877619Y-44933327D02*
X188925238Y-44838089D01*
X188925238Y-44838089D02*
X188972857Y-44790470D01*
X188972857Y-44790470D02*
X189068095Y-44742851D01*
X189068095Y-44742851D02*
X189163333Y-44742851D01*
X189163333Y-44742851D02*
X189306190Y-44790470D01*
X189306190Y-44790470D02*
X189877619Y-45361898D01*
X189877619Y-45361898D02*
X189877619Y-44742851D01*
X188877619Y-44123803D02*
X188877619Y-44028565D01*
X188877619Y-44028565D02*
X188925238Y-43933327D01*
X188925238Y-43933327D02*
X188972857Y-43885708D01*
X188972857Y-43885708D02*
X189068095Y-43838089D01*
X189068095Y-43838089D02*
X189258571Y-43790470D01*
X189258571Y-43790470D02*
X189496666Y-43790470D01*
X189496666Y-43790470D02*
X189687142Y-43838089D01*
X189687142Y-43838089D02*
X189782380Y-43885708D01*
X189782380Y-43885708D02*
X189830000Y-43933327D01*
X189830000Y-43933327D02*
X189877619Y-44028565D01*
X189877619Y-44028565D02*
X189877619Y-44123803D01*
X189877619Y-44123803D02*
X189830000Y-44219041D01*
X189830000Y-44219041D02*
X189782380Y-44266660D01*
X189782380Y-44266660D02*
X189687142Y-44314279D01*
X189687142Y-44314279D02*
X189496666Y-44361898D01*
X189496666Y-44361898D02*
X189258571Y-44361898D01*
X189258571Y-44361898D02*
X189068095Y-44314279D01*
X189068095Y-44314279D02*
X188972857Y-44266660D01*
X188972857Y-44266660D02*
X188925238Y-44219041D01*
X188925238Y-44219041D02*
X188877619Y-44123803D01*
X188972857Y-43409517D02*
X188925238Y-43361898D01*
X188925238Y-43361898D02*
X188877619Y-43266660D01*
X188877619Y-43266660D02*
X188877619Y-43028565D01*
X188877619Y-43028565D02*
X188925238Y-42933327D01*
X188925238Y-42933327D02*
X188972857Y-42885708D01*
X188972857Y-42885708D02*
X189068095Y-42838089D01*
X189068095Y-42838089D02*
X189163333Y-42838089D01*
X189163333Y-42838089D02*
X189306190Y-42885708D01*
X189306190Y-42885708D02*
X189877619Y-43457136D01*
X189877619Y-43457136D02*
X189877619Y-42838089D01*
X188877619Y-42504755D02*
X188877619Y-41885708D01*
X188877619Y-41885708D02*
X189258571Y-42219041D01*
X189258571Y-42219041D02*
X189258571Y-42076184D01*
X189258571Y-42076184D02*
X189306190Y-41980946D01*
X189306190Y-41980946D02*
X189353809Y-41933327D01*
X189353809Y-41933327D02*
X189449047Y-41885708D01*
X189449047Y-41885708D02*
X189687142Y-41885708D01*
X189687142Y-41885708D02*
X189782380Y-41933327D01*
X189782380Y-41933327D02*
X189830000Y-41980946D01*
X189830000Y-41980946D02*
X189877619Y-42076184D01*
X189877619Y-42076184D02*
X189877619Y-42361898D01*
X189877619Y-42361898D02*
X189830000Y-42457136D01*
X189830000Y-42457136D02*
X189782380Y-42504755D01*
D12*
X178238095Y-43277619D02*
X178238095Y-42277619D01*
X178238095Y-42277619D02*
X178476190Y-42277619D01*
X178476190Y-42277619D02*
X178619047Y-42325238D01*
X178619047Y-42325238D02*
X178714285Y-42420476D01*
X178714285Y-42420476D02*
X178761904Y-42515714D01*
X178761904Y-42515714D02*
X178809523Y-42706190D01*
X178809523Y-42706190D02*
X178809523Y-42849047D01*
X178809523Y-42849047D02*
X178761904Y-43039523D01*
X178761904Y-43039523D02*
X178714285Y-43134761D01*
X178714285Y-43134761D02*
X178619047Y-43230000D01*
X178619047Y-43230000D02*
X178476190Y-43277619D01*
X178476190Y-43277619D02*
X178238095Y-43277619D01*
X179190476Y-42991904D02*
X179666666Y-42991904D01*
X179095238Y-43277619D02*
X179428571Y-42277619D01*
X179428571Y-42277619D02*
X179761904Y-43277619D01*
X179952381Y-42277619D02*
X180523809Y-42277619D01*
X180238095Y-43277619D02*
X180238095Y-42277619D01*
X180809524Y-42991904D02*
X181285714Y-42991904D01*
X180714286Y-43277619D02*
X181047619Y-42277619D01*
X181047619Y-42277619D02*
X181380952Y-43277619D01*
X178138095Y-68596666D02*
X178900000Y-68596666D01*
X178519047Y-68977619D02*
X178519047Y-68215714D01*
X179280952Y-67977619D02*
X179899999Y-67977619D01*
X179899999Y-67977619D02*
X179566666Y-68358571D01*
X179566666Y-68358571D02*
X179709523Y-68358571D01*
X179709523Y-68358571D02*
X179804761Y-68406190D01*
X179804761Y-68406190D02*
X179852380Y-68453809D01*
X179852380Y-68453809D02*
X179899999Y-68549047D01*
X179899999Y-68549047D02*
X179899999Y-68787142D01*
X179899999Y-68787142D02*
X179852380Y-68882380D01*
X179852380Y-68882380D02*
X179804761Y-68930000D01*
X179804761Y-68930000D02*
X179709523Y-68977619D01*
X179709523Y-68977619D02*
X179423809Y-68977619D01*
X179423809Y-68977619D02*
X179328571Y-68930000D01*
X179328571Y-68930000D02*
X179280952Y-68882380D01*
X180328571Y-68882380D02*
X180376190Y-68930000D01*
X180376190Y-68930000D02*
X180328571Y-68977619D01*
X180328571Y-68977619D02*
X180280952Y-68930000D01*
X180280952Y-68930000D02*
X180328571Y-68882380D01*
X180328571Y-68882380D02*
X180328571Y-68977619D01*
X180709523Y-67977619D02*
X181328570Y-67977619D01*
X181328570Y-67977619D02*
X180995237Y-68358571D01*
X180995237Y-68358571D02*
X181138094Y-68358571D01*
X181138094Y-68358571D02*
X181233332Y-68406190D01*
X181233332Y-68406190D02*
X181280951Y-68453809D01*
X181280951Y-68453809D02*
X181328570Y-68549047D01*
X181328570Y-68549047D02*
X181328570Y-68787142D01*
X181328570Y-68787142D02*
X181280951Y-68882380D01*
X181280951Y-68882380D02*
X181233332Y-68930000D01*
X181233332Y-68930000D02*
X181138094Y-68977619D01*
X181138094Y-68977619D02*
X180852380Y-68977619D01*
X180852380Y-68977619D02*
X180757142Y-68930000D01*
X180757142Y-68930000D02*
X180709523Y-68882380D01*
X181614285Y-67977619D02*
X181947618Y-68977619D01*
X181947618Y-68977619D02*
X182280951Y-67977619D01*
D11*
X127551666Y-101819047D02*
X127551666Y-102200000D01*
X127361190Y-102009523D02*
X127742142Y-102009523D01*
X127861190Y-102390476D02*
X127861190Y-102700000D01*
X127861190Y-102700000D02*
X127670714Y-102533333D01*
X127670714Y-102533333D02*
X127670714Y-102604762D01*
X127670714Y-102604762D02*
X127646904Y-102652381D01*
X127646904Y-102652381D02*
X127623095Y-102676190D01*
X127623095Y-102676190D02*
X127575476Y-102700000D01*
X127575476Y-102700000D02*
X127456428Y-102700000D01*
X127456428Y-102700000D02*
X127408809Y-102676190D01*
X127408809Y-102676190D02*
X127385000Y-102652381D01*
X127385000Y-102652381D02*
X127361190Y-102604762D01*
X127361190Y-102604762D02*
X127361190Y-102461905D01*
X127361190Y-102461905D02*
X127385000Y-102414286D01*
X127385000Y-102414286D02*
X127408809Y-102390476D01*
X127408809Y-102914285D02*
X127385000Y-102938095D01*
X127385000Y-102938095D02*
X127361190Y-102914285D01*
X127361190Y-102914285D02*
X127385000Y-102890476D01*
X127385000Y-102890476D02*
X127408809Y-102914285D01*
X127408809Y-102914285D02*
X127361190Y-102914285D01*
X127861190Y-103104761D02*
X127861190Y-103414285D01*
X127861190Y-103414285D02*
X127670714Y-103247618D01*
X127670714Y-103247618D02*
X127670714Y-103319047D01*
X127670714Y-103319047D02*
X127646904Y-103366666D01*
X127646904Y-103366666D02*
X127623095Y-103390475D01*
X127623095Y-103390475D02*
X127575476Y-103414285D01*
X127575476Y-103414285D02*
X127456428Y-103414285D01*
X127456428Y-103414285D02*
X127408809Y-103390475D01*
X127408809Y-103390475D02*
X127385000Y-103366666D01*
X127385000Y-103366666D02*
X127361190Y-103319047D01*
X127361190Y-103319047D02*
X127361190Y-103176190D01*
X127361190Y-103176190D02*
X127385000Y-103128571D01*
X127385000Y-103128571D02*
X127408809Y-103104761D01*
X127861190Y-103557142D02*
X127361190Y-103723808D01*
X127361190Y-103723808D02*
X127861190Y-103890475D01*
D12*
X178338095Y-62877619D02*
X178338095Y-61877619D01*
X178338095Y-61877619D02*
X178576190Y-61877619D01*
X178576190Y-61877619D02*
X178719047Y-61925238D01*
X178719047Y-61925238D02*
X178814285Y-62020476D01*
X178814285Y-62020476D02*
X178861904Y-62115714D01*
X178861904Y-62115714D02*
X178909523Y-62306190D01*
X178909523Y-62306190D02*
X178909523Y-62449047D01*
X178909523Y-62449047D02*
X178861904Y-62639523D01*
X178861904Y-62639523D02*
X178814285Y-62734761D01*
X178814285Y-62734761D02*
X178719047Y-62830000D01*
X178719047Y-62830000D02*
X178576190Y-62877619D01*
X178576190Y-62877619D02*
X178338095Y-62877619D01*
X179290476Y-62591904D02*
X179766666Y-62591904D01*
X179195238Y-62877619D02*
X179528571Y-61877619D01*
X179528571Y-61877619D02*
X179861904Y-62877619D01*
X180052381Y-61877619D02*
X180623809Y-61877619D01*
X180338095Y-62877619D02*
X180338095Y-61877619D01*
X180909524Y-62591904D02*
X181385714Y-62591904D01*
X180814286Y-62877619D02*
X181147619Y-61877619D01*
X181147619Y-61877619D02*
X181480952Y-62877619D01*
X178090476Y-81330000D02*
X178233333Y-81377619D01*
X178233333Y-81377619D02*
X178471428Y-81377619D01*
X178471428Y-81377619D02*
X178566666Y-81330000D01*
X178566666Y-81330000D02*
X178614285Y-81282380D01*
X178614285Y-81282380D02*
X178661904Y-81187142D01*
X178661904Y-81187142D02*
X178661904Y-81091904D01*
X178661904Y-81091904D02*
X178614285Y-80996666D01*
X178614285Y-80996666D02*
X178566666Y-80949047D01*
X178566666Y-80949047D02*
X178471428Y-80901428D01*
X178471428Y-80901428D02*
X178280952Y-80853809D01*
X178280952Y-80853809D02*
X178185714Y-80806190D01*
X178185714Y-80806190D02*
X178138095Y-80758571D01*
X178138095Y-80758571D02*
X178090476Y-80663333D01*
X178090476Y-80663333D02*
X178090476Y-80568095D01*
X178090476Y-80568095D02*
X178138095Y-80472857D01*
X178138095Y-80472857D02*
X178185714Y-80425238D01*
X178185714Y-80425238D02*
X178280952Y-80377619D01*
X178280952Y-80377619D02*
X178519047Y-80377619D01*
X178519047Y-80377619D02*
X178661904Y-80425238D01*
X179661904Y-81282380D02*
X179614285Y-81330000D01*
X179614285Y-81330000D02*
X179471428Y-81377619D01*
X179471428Y-81377619D02*
X179376190Y-81377619D01*
X179376190Y-81377619D02*
X179233333Y-81330000D01*
X179233333Y-81330000D02*
X179138095Y-81234761D01*
X179138095Y-81234761D02*
X179090476Y-81139523D01*
X179090476Y-81139523D02*
X179042857Y-80949047D01*
X179042857Y-80949047D02*
X179042857Y-80806190D01*
X179042857Y-80806190D02*
X179090476Y-80615714D01*
X179090476Y-80615714D02*
X179138095Y-80520476D01*
X179138095Y-80520476D02*
X179233333Y-80425238D01*
X179233333Y-80425238D02*
X179376190Y-80377619D01*
X179376190Y-80377619D02*
X179471428Y-80377619D01*
X179471428Y-80377619D02*
X179614285Y-80425238D01*
X179614285Y-80425238D02*
X179661904Y-80472857D01*
X180566666Y-81377619D02*
X180090476Y-81377619D01*
X180090476Y-81377619D02*
X180090476Y-80377619D01*
X169571428Y-53053809D02*
X169714285Y-53101428D01*
X169714285Y-53101428D02*
X169761904Y-53149047D01*
X169761904Y-53149047D02*
X169809523Y-53244285D01*
X169809523Y-53244285D02*
X169809523Y-53387142D01*
X169809523Y-53387142D02*
X169761904Y-53482380D01*
X169761904Y-53482380D02*
X169714285Y-53530000D01*
X169714285Y-53530000D02*
X169619047Y-53577619D01*
X169619047Y-53577619D02*
X169238095Y-53577619D01*
X169238095Y-53577619D02*
X169238095Y-52577619D01*
X169238095Y-52577619D02*
X169571428Y-52577619D01*
X169571428Y-52577619D02*
X169666666Y-52625238D01*
X169666666Y-52625238D02*
X169714285Y-52672857D01*
X169714285Y-52672857D02*
X169761904Y-52768095D01*
X169761904Y-52768095D02*
X169761904Y-52863333D01*
X169761904Y-52863333D02*
X169714285Y-52958571D01*
X169714285Y-52958571D02*
X169666666Y-53006190D01*
X169666666Y-53006190D02*
X169571428Y-53053809D01*
X169571428Y-53053809D02*
X169238095Y-53053809D01*
X128322619Y-86008094D02*
X127322619Y-86008094D01*
X127322619Y-86008094D02*
X127322619Y-85769999D01*
X127322619Y-85769999D02*
X127370238Y-85627142D01*
X127370238Y-85627142D02*
X127465476Y-85531904D01*
X127465476Y-85531904D02*
X127560714Y-85484285D01*
X127560714Y-85484285D02*
X127751190Y-85436666D01*
X127751190Y-85436666D02*
X127894047Y-85436666D01*
X127894047Y-85436666D02*
X128084523Y-85484285D01*
X128084523Y-85484285D02*
X128179761Y-85531904D01*
X128179761Y-85531904D02*
X128275000Y-85627142D01*
X128275000Y-85627142D02*
X128322619Y-85769999D01*
X128322619Y-85769999D02*
X128322619Y-86008094D01*
X128322619Y-84484285D02*
X128322619Y-85055713D01*
X128322619Y-84769999D02*
X127322619Y-84769999D01*
X127322619Y-84769999D02*
X127465476Y-84865237D01*
X127465476Y-84865237D02*
X127560714Y-84960475D01*
X127560714Y-84960475D02*
X127608333Y-85055713D01*
X121065238Y-43042619D02*
X120731905Y-42566428D01*
X120493810Y-43042619D02*
X120493810Y-42042619D01*
X120493810Y-42042619D02*
X120874762Y-42042619D01*
X120874762Y-42042619D02*
X120970000Y-42090238D01*
X120970000Y-42090238D02*
X121017619Y-42137857D01*
X121017619Y-42137857D02*
X121065238Y-42233095D01*
X121065238Y-42233095D02*
X121065238Y-42375952D01*
X121065238Y-42375952D02*
X121017619Y-42471190D01*
X121017619Y-42471190D02*
X120970000Y-42518809D01*
X120970000Y-42518809D02*
X120874762Y-42566428D01*
X120874762Y-42566428D02*
X120493810Y-42566428D01*
X121493810Y-43042619D02*
X121493810Y-42042619D01*
X121493810Y-42042619D02*
X121874762Y-42042619D01*
X121874762Y-42042619D02*
X121970000Y-42090238D01*
X121970000Y-42090238D02*
X122017619Y-42137857D01*
X122017619Y-42137857D02*
X122065238Y-42233095D01*
X122065238Y-42233095D02*
X122065238Y-42375952D01*
X122065238Y-42375952D02*
X122017619Y-42471190D01*
X122017619Y-42471190D02*
X121970000Y-42518809D01*
X121970000Y-42518809D02*
X121874762Y-42566428D01*
X121874762Y-42566428D02*
X121493810Y-42566428D01*
X122493810Y-43042619D02*
X122493810Y-42042619D01*
X123493809Y-43042619D02*
X122922381Y-43042619D01*
X123208095Y-43042619D02*
X123208095Y-42042619D01*
X123208095Y-42042619D02*
X123112857Y-42185476D01*
X123112857Y-42185476D02*
X123017619Y-42280714D01*
X123017619Y-42280714D02*
X122922381Y-42328333D01*
X173176190Y-85962619D02*
X173176190Y-84962619D01*
X173604761Y-85057857D02*
X173652380Y-85010238D01*
X173652380Y-85010238D02*
X173747618Y-84962619D01*
X173747618Y-84962619D02*
X173985713Y-84962619D01*
X173985713Y-84962619D02*
X174080951Y-85010238D01*
X174080951Y-85010238D02*
X174128570Y-85057857D01*
X174128570Y-85057857D02*
X174176189Y-85153095D01*
X174176189Y-85153095D02*
X174176189Y-85248333D01*
X174176189Y-85248333D02*
X174128570Y-85391190D01*
X174128570Y-85391190D02*
X173557142Y-85962619D01*
X173557142Y-85962619D02*
X174176189Y-85962619D01*
X175176189Y-85867380D02*
X175128570Y-85915000D01*
X175128570Y-85915000D02*
X174985713Y-85962619D01*
X174985713Y-85962619D02*
X174890475Y-85962619D01*
X174890475Y-85962619D02*
X174747618Y-85915000D01*
X174747618Y-85915000D02*
X174652380Y-85819761D01*
X174652380Y-85819761D02*
X174604761Y-85724523D01*
X174604761Y-85724523D02*
X174557142Y-85534047D01*
X174557142Y-85534047D02*
X174557142Y-85391190D01*
X174557142Y-85391190D02*
X174604761Y-85200714D01*
X174604761Y-85200714D02*
X174652380Y-85105476D01*
X174652380Y-85105476D02*
X174747618Y-85010238D01*
X174747618Y-85010238D02*
X174890475Y-84962619D01*
X174890475Y-84962619D02*
X174985713Y-84962619D01*
X174985713Y-84962619D02*
X175128570Y-85010238D01*
X175128570Y-85010238D02*
X175176189Y-85057857D01*
X175366666Y-86057857D02*
X176128570Y-86057857D01*
X176319047Y-85676904D02*
X176795237Y-85676904D01*
X176223809Y-85962619D02*
X176557142Y-84962619D01*
X176557142Y-84962619D02*
X176890475Y-85962619D01*
X177223809Y-85962619D02*
X177223809Y-85295952D01*
X177223809Y-85486428D02*
X177271428Y-85391190D01*
X177271428Y-85391190D02*
X177319047Y-85343571D01*
X177319047Y-85343571D02*
X177414285Y-85295952D01*
X177414285Y-85295952D02*
X177509523Y-85295952D01*
X178271428Y-85962619D02*
X178271428Y-84962619D01*
X178271428Y-85915000D02*
X178176190Y-85962619D01*
X178176190Y-85962619D02*
X177985714Y-85962619D01*
X177985714Y-85962619D02*
X177890476Y-85915000D01*
X177890476Y-85915000D02*
X177842857Y-85867380D01*
X177842857Y-85867380D02*
X177795238Y-85772142D01*
X177795238Y-85772142D02*
X177795238Y-85486428D01*
X177795238Y-85486428D02*
X177842857Y-85391190D01*
X177842857Y-85391190D02*
X177890476Y-85343571D01*
X177890476Y-85343571D02*
X177985714Y-85295952D01*
X177985714Y-85295952D02*
X178176190Y-85295952D01*
X178176190Y-85295952D02*
X178271428Y-85343571D01*
X179271428Y-85962619D02*
X178700000Y-85962619D01*
X178985714Y-85962619D02*
X178985714Y-84962619D01*
X178985714Y-84962619D02*
X178890476Y-85105476D01*
X178890476Y-85105476D02*
X178795238Y-85200714D01*
X178795238Y-85200714D02*
X178700000Y-85248333D01*
X168543333Y-83922619D02*
X168210000Y-83446428D01*
X167971905Y-83922619D02*
X167971905Y-82922619D01*
X167971905Y-82922619D02*
X168352857Y-82922619D01*
X168352857Y-82922619D02*
X168448095Y-82970238D01*
X168448095Y-82970238D02*
X168495714Y-83017857D01*
X168495714Y-83017857D02*
X168543333Y-83113095D01*
X168543333Y-83113095D02*
X168543333Y-83255952D01*
X168543333Y-83255952D02*
X168495714Y-83351190D01*
X168495714Y-83351190D02*
X168448095Y-83398809D01*
X168448095Y-83398809D02*
X168352857Y-83446428D01*
X168352857Y-83446428D02*
X167971905Y-83446428D01*
X169400476Y-83255952D02*
X169400476Y-83922619D01*
X169162381Y-82875000D02*
X168924286Y-83589285D01*
X168924286Y-83589285D02*
X169543333Y-83589285D01*
X168503333Y-76982619D02*
X168170000Y-76506428D01*
X167931905Y-76982619D02*
X167931905Y-75982619D01*
X167931905Y-75982619D02*
X168312857Y-75982619D01*
X168312857Y-75982619D02*
X168408095Y-76030238D01*
X168408095Y-76030238D02*
X168455714Y-76077857D01*
X168455714Y-76077857D02*
X168503333Y-76173095D01*
X168503333Y-76173095D02*
X168503333Y-76315952D01*
X168503333Y-76315952D02*
X168455714Y-76411190D01*
X168455714Y-76411190D02*
X168408095Y-76458809D01*
X168408095Y-76458809D02*
X168312857Y-76506428D01*
X168312857Y-76506428D02*
X167931905Y-76506428D01*
X169408095Y-75982619D02*
X168931905Y-75982619D01*
X168931905Y-75982619D02*
X168884286Y-76458809D01*
X168884286Y-76458809D02*
X168931905Y-76411190D01*
X168931905Y-76411190D02*
X169027143Y-76363571D01*
X169027143Y-76363571D02*
X169265238Y-76363571D01*
X169265238Y-76363571D02*
X169360476Y-76411190D01*
X169360476Y-76411190D02*
X169408095Y-76458809D01*
X169408095Y-76458809D02*
X169455714Y-76554047D01*
X169455714Y-76554047D02*
X169455714Y-76792142D01*
X169455714Y-76792142D02*
X169408095Y-76887380D01*
X169408095Y-76887380D02*
X169360476Y-76935000D01*
X169360476Y-76935000D02*
X169265238Y-76982619D01*
X169265238Y-76982619D02*
X169027143Y-76982619D01*
X169027143Y-76982619D02*
X168931905Y-76935000D01*
X168931905Y-76935000D02*
X168884286Y-76887380D01*
X174262619Y-55299999D02*
X173262619Y-55299999D01*
X173262619Y-55299999D02*
X173262619Y-55061904D01*
X173262619Y-55061904D02*
X173310238Y-54919047D01*
X173310238Y-54919047D02*
X173405476Y-54823809D01*
X173405476Y-54823809D02*
X173500714Y-54776190D01*
X173500714Y-54776190D02*
X173691190Y-54728571D01*
X173691190Y-54728571D02*
X173834047Y-54728571D01*
X173834047Y-54728571D02*
X174024523Y-54776190D01*
X174024523Y-54776190D02*
X174119761Y-54823809D01*
X174119761Y-54823809D02*
X174215000Y-54919047D01*
X174215000Y-54919047D02*
X174262619Y-55061904D01*
X174262619Y-55061904D02*
X174262619Y-55299999D01*
X173262619Y-54299999D02*
X174072142Y-54299999D01*
X174072142Y-54299999D02*
X174167380Y-54252380D01*
X174167380Y-54252380D02*
X174215000Y-54204761D01*
X174215000Y-54204761D02*
X174262619Y-54109523D01*
X174262619Y-54109523D02*
X174262619Y-53919047D01*
X174262619Y-53919047D02*
X174215000Y-53823809D01*
X174215000Y-53823809D02*
X174167380Y-53776190D01*
X174167380Y-53776190D02*
X174072142Y-53728571D01*
X174072142Y-53728571D02*
X173262619Y-53728571D01*
X174215000Y-53299999D02*
X174262619Y-53157142D01*
X174262619Y-53157142D02*
X174262619Y-52919047D01*
X174262619Y-52919047D02*
X174215000Y-52823809D01*
X174215000Y-52823809D02*
X174167380Y-52776190D01*
X174167380Y-52776190D02*
X174072142Y-52728571D01*
X174072142Y-52728571D02*
X173976904Y-52728571D01*
X173976904Y-52728571D02*
X173881666Y-52776190D01*
X173881666Y-52776190D02*
X173834047Y-52823809D01*
X173834047Y-52823809D02*
X173786428Y-52919047D01*
X173786428Y-52919047D02*
X173738809Y-53109523D01*
X173738809Y-53109523D02*
X173691190Y-53204761D01*
X173691190Y-53204761D02*
X173643571Y-53252380D01*
X173643571Y-53252380D02*
X173548333Y-53299999D01*
X173548333Y-53299999D02*
X173453095Y-53299999D01*
X173453095Y-53299999D02*
X173357857Y-53252380D01*
X173357857Y-53252380D02*
X173310238Y-53204761D01*
X173310238Y-53204761D02*
X173262619Y-53109523D01*
X173262619Y-53109523D02*
X173262619Y-52871428D01*
X173262619Y-52871428D02*
X173310238Y-52728571D01*
X173262619Y-52442856D02*
X173262619Y-51871428D01*
X174262619Y-52157142D02*
X173262619Y-52157142D01*
X174357857Y-51776190D02*
X174357857Y-51014285D01*
X174262619Y-50776189D02*
X173262619Y-50776189D01*
X173262619Y-50776189D02*
X173262619Y-50538094D01*
X173262619Y-50538094D02*
X173310238Y-50395237D01*
X173310238Y-50395237D02*
X173405476Y-50299999D01*
X173405476Y-50299999D02*
X173500714Y-50252380D01*
X173500714Y-50252380D02*
X173691190Y-50204761D01*
X173691190Y-50204761D02*
X173834047Y-50204761D01*
X173834047Y-50204761D02*
X174024523Y-50252380D01*
X174024523Y-50252380D02*
X174119761Y-50299999D01*
X174119761Y-50299999D02*
X174215000Y-50395237D01*
X174215000Y-50395237D02*
X174262619Y-50538094D01*
X174262619Y-50538094D02*
X174262619Y-50776189D01*
X174262619Y-49252380D02*
X174262619Y-49823808D01*
X174262619Y-49538094D02*
X173262619Y-49538094D01*
X173262619Y-49538094D02*
X173405476Y-49633332D01*
X173405476Y-49633332D02*
X173500714Y-49728570D01*
X173500714Y-49728570D02*
X173548333Y-49823808D01*
X154662619Y-43971427D02*
X153662619Y-43971427D01*
X153662619Y-43971427D02*
X154376904Y-43638094D01*
X154376904Y-43638094D02*
X153662619Y-43304761D01*
X153662619Y-43304761D02*
X154662619Y-43304761D01*
X154662619Y-42828570D02*
X153662619Y-42828570D01*
X154567380Y-41780952D02*
X154615000Y-41828571D01*
X154615000Y-41828571D02*
X154662619Y-41971428D01*
X154662619Y-41971428D02*
X154662619Y-42066666D01*
X154662619Y-42066666D02*
X154615000Y-42209523D01*
X154615000Y-42209523D02*
X154519761Y-42304761D01*
X154519761Y-42304761D02*
X154424523Y-42352380D01*
X154424523Y-42352380D02*
X154234047Y-42399999D01*
X154234047Y-42399999D02*
X154091190Y-42399999D01*
X154091190Y-42399999D02*
X153900714Y-42352380D01*
X153900714Y-42352380D02*
X153805476Y-42304761D01*
X153805476Y-42304761D02*
X153710238Y-42209523D01*
X153710238Y-42209523D02*
X153662619Y-42066666D01*
X153662619Y-42066666D02*
X153662619Y-41971428D01*
X153662619Y-41971428D02*
X153710238Y-41828571D01*
X153710238Y-41828571D02*
X153757857Y-41780952D01*
X154662619Y-40780952D02*
X154186428Y-41114285D01*
X154662619Y-41352380D02*
X153662619Y-41352380D01*
X153662619Y-41352380D02*
X153662619Y-40971428D01*
X153662619Y-40971428D02*
X153710238Y-40876190D01*
X153710238Y-40876190D02*
X153757857Y-40828571D01*
X153757857Y-40828571D02*
X153853095Y-40780952D01*
X153853095Y-40780952D02*
X153995952Y-40780952D01*
X153995952Y-40780952D02*
X154091190Y-40828571D01*
X154091190Y-40828571D02*
X154138809Y-40876190D01*
X154138809Y-40876190D02*
X154186428Y-40971428D01*
X154186428Y-40971428D02*
X154186428Y-41352380D01*
X153662619Y-40161904D02*
X153662619Y-39971428D01*
X153662619Y-39971428D02*
X153710238Y-39876190D01*
X153710238Y-39876190D02*
X153805476Y-39780952D01*
X153805476Y-39780952D02*
X153995952Y-39733333D01*
X153995952Y-39733333D02*
X154329285Y-39733333D01*
X154329285Y-39733333D02*
X154519761Y-39780952D01*
X154519761Y-39780952D02*
X154615000Y-39876190D01*
X154615000Y-39876190D02*
X154662619Y-39971428D01*
X154662619Y-39971428D02*
X154662619Y-40161904D01*
X154662619Y-40161904D02*
X154615000Y-40257142D01*
X154615000Y-40257142D02*
X154519761Y-40352380D01*
X154519761Y-40352380D02*
X154329285Y-40399999D01*
X154329285Y-40399999D02*
X153995952Y-40399999D01*
X153995952Y-40399999D02*
X153805476Y-40352380D01*
X153805476Y-40352380D02*
X153710238Y-40257142D01*
X153710238Y-40257142D02*
X153662619Y-40161904D01*
X154662619Y-38780952D02*
X154662619Y-39352380D01*
X154662619Y-39066666D02*
X153662619Y-39066666D01*
X153662619Y-39066666D02*
X153805476Y-39161904D01*
X153805476Y-39161904D02*
X153900714Y-39257142D01*
X153900714Y-39257142D02*
X153948333Y-39352380D01*
X153833333Y-53862619D02*
X153500000Y-53386428D01*
X153261905Y-53862619D02*
X153261905Y-52862619D01*
X153261905Y-52862619D02*
X153642857Y-52862619D01*
X153642857Y-52862619D02*
X153738095Y-52910238D01*
X153738095Y-52910238D02*
X153785714Y-52957857D01*
X153785714Y-52957857D02*
X153833333Y-53053095D01*
X153833333Y-53053095D02*
X153833333Y-53195952D01*
X153833333Y-53195952D02*
X153785714Y-53291190D01*
X153785714Y-53291190D02*
X153738095Y-53338809D01*
X153738095Y-53338809D02*
X153642857Y-53386428D01*
X153642857Y-53386428D02*
X153261905Y-53386428D01*
X154690476Y-52862619D02*
X154500000Y-52862619D01*
X154500000Y-52862619D02*
X154404762Y-52910238D01*
X154404762Y-52910238D02*
X154357143Y-52957857D01*
X154357143Y-52957857D02*
X154261905Y-53100714D01*
X154261905Y-53100714D02*
X154214286Y-53291190D01*
X154214286Y-53291190D02*
X154214286Y-53672142D01*
X154214286Y-53672142D02*
X154261905Y-53767380D01*
X154261905Y-53767380D02*
X154309524Y-53815000D01*
X154309524Y-53815000D02*
X154404762Y-53862619D01*
X154404762Y-53862619D02*
X154595238Y-53862619D01*
X154595238Y-53862619D02*
X154690476Y-53815000D01*
X154690476Y-53815000D02*
X154738095Y-53767380D01*
X154738095Y-53767380D02*
X154785714Y-53672142D01*
X154785714Y-53672142D02*
X154785714Y-53434047D01*
X154785714Y-53434047D02*
X154738095Y-53338809D01*
X154738095Y-53338809D02*
X154690476Y-53291190D01*
X154690476Y-53291190D02*
X154595238Y-53243571D01*
X154595238Y-53243571D02*
X154404762Y-53243571D01*
X154404762Y-53243571D02*
X154309524Y-53291190D01*
X154309524Y-53291190D02*
X154261905Y-53338809D01*
X154261905Y-53338809D02*
X154214286Y-53434047D01*
X154133333Y-99542619D02*
X153800000Y-99066428D01*
X153561905Y-99542619D02*
X153561905Y-98542619D01*
X153561905Y-98542619D02*
X153942857Y-98542619D01*
X153942857Y-98542619D02*
X154038095Y-98590238D01*
X154038095Y-98590238D02*
X154085714Y-98637857D01*
X154085714Y-98637857D02*
X154133333Y-98733095D01*
X154133333Y-98733095D02*
X154133333Y-98875952D01*
X154133333Y-98875952D02*
X154085714Y-98971190D01*
X154085714Y-98971190D02*
X154038095Y-99018809D01*
X154038095Y-99018809D02*
X153942857Y-99066428D01*
X153942857Y-99066428D02*
X153561905Y-99066428D01*
X155085714Y-99542619D02*
X154514286Y-99542619D01*
X154800000Y-99542619D02*
X154800000Y-98542619D01*
X154800000Y-98542619D02*
X154704762Y-98685476D01*
X154704762Y-98685476D02*
X154609524Y-98780714D01*
X154609524Y-98780714D02*
X154514286Y-98828333D01*
D14*
X153873571Y-101333085D02*
X153462143Y-101333085D01*
X153667857Y-101333085D02*
X153757857Y-100613085D01*
X153757857Y-100613085D02*
X153676428Y-100715942D01*
X153676428Y-100715942D02*
X153599286Y-100784514D01*
X153599286Y-100784514D02*
X153526428Y-100818800D01*
X154405000Y-100613085D02*
X154473572Y-100613085D01*
X154473572Y-100613085D02*
X154537857Y-100647371D01*
X154537857Y-100647371D02*
X154567857Y-100681657D01*
X154567857Y-100681657D02*
X154593572Y-100750228D01*
X154593572Y-100750228D02*
X154610715Y-100887371D01*
X154610715Y-100887371D02*
X154589286Y-101058800D01*
X154589286Y-101058800D02*
X154537857Y-101195942D01*
X154537857Y-101195942D02*
X154495000Y-101264514D01*
X154495000Y-101264514D02*
X154456429Y-101298800D01*
X154456429Y-101298800D02*
X154383572Y-101333085D01*
X154383572Y-101333085D02*
X154315000Y-101333085D01*
X154315000Y-101333085D02*
X154250715Y-101298800D01*
X154250715Y-101298800D02*
X154220715Y-101264514D01*
X154220715Y-101264514D02*
X154195000Y-101195942D01*
X154195000Y-101195942D02*
X154177857Y-101058800D01*
X154177857Y-101058800D02*
X154199286Y-100887371D01*
X154199286Y-100887371D02*
X154250715Y-100750228D01*
X154250715Y-100750228D02*
X154293572Y-100681657D01*
X154293572Y-100681657D02*
X154332143Y-100647371D01*
X154332143Y-100647371D02*
X154405000Y-100613085D01*
X154859286Y-101333085D02*
X154949286Y-100613085D01*
X154962144Y-101058800D02*
X155133572Y-101333085D01*
X155193572Y-100853085D02*
X154885001Y-101127371D01*
D12*
X153733333Y-47562619D02*
X153400000Y-47086428D01*
X153161905Y-47562619D02*
X153161905Y-46562619D01*
X153161905Y-46562619D02*
X153542857Y-46562619D01*
X153542857Y-46562619D02*
X153638095Y-46610238D01*
X153638095Y-46610238D02*
X153685714Y-46657857D01*
X153685714Y-46657857D02*
X153733333Y-46753095D01*
X153733333Y-46753095D02*
X153733333Y-46895952D01*
X153733333Y-46895952D02*
X153685714Y-46991190D01*
X153685714Y-46991190D02*
X153638095Y-47038809D01*
X153638095Y-47038809D02*
X153542857Y-47086428D01*
X153542857Y-47086428D02*
X153161905Y-47086428D01*
X154304762Y-46991190D02*
X154209524Y-46943571D01*
X154209524Y-46943571D02*
X154161905Y-46895952D01*
X154161905Y-46895952D02*
X154114286Y-46800714D01*
X154114286Y-46800714D02*
X154114286Y-46753095D01*
X154114286Y-46753095D02*
X154161905Y-46657857D01*
X154161905Y-46657857D02*
X154209524Y-46610238D01*
X154209524Y-46610238D02*
X154304762Y-46562619D01*
X154304762Y-46562619D02*
X154495238Y-46562619D01*
X154495238Y-46562619D02*
X154590476Y-46610238D01*
X154590476Y-46610238D02*
X154638095Y-46657857D01*
X154638095Y-46657857D02*
X154685714Y-46753095D01*
X154685714Y-46753095D02*
X154685714Y-46800714D01*
X154685714Y-46800714D02*
X154638095Y-46895952D01*
X154638095Y-46895952D02*
X154590476Y-46943571D01*
X154590476Y-46943571D02*
X154495238Y-46991190D01*
X154495238Y-46991190D02*
X154304762Y-46991190D01*
X154304762Y-46991190D02*
X154209524Y-47038809D01*
X154209524Y-47038809D02*
X154161905Y-47086428D01*
X154161905Y-47086428D02*
X154114286Y-47181666D01*
X154114286Y-47181666D02*
X154114286Y-47372142D01*
X154114286Y-47372142D02*
X154161905Y-47467380D01*
X154161905Y-47467380D02*
X154209524Y-47515000D01*
X154209524Y-47515000D02*
X154304762Y-47562619D01*
X154304762Y-47562619D02*
X154495238Y-47562619D01*
X154495238Y-47562619D02*
X154590476Y-47515000D01*
X154590476Y-47515000D02*
X154638095Y-47467380D01*
X154638095Y-47467380D02*
X154685714Y-47372142D01*
X154685714Y-47372142D02*
X154685714Y-47181666D01*
X154685714Y-47181666D02*
X154638095Y-47086428D01*
X154638095Y-47086428D02*
X154590476Y-47038809D01*
X154590476Y-47038809D02*
X154495238Y-46991190D01*
X127468572Y-97862619D02*
X127468572Y-96862619D01*
X127897143Y-96957857D02*
X127944762Y-96910238D01*
X127944762Y-96910238D02*
X128040000Y-96862619D01*
X128040000Y-96862619D02*
X128278095Y-96862619D01*
X128278095Y-96862619D02*
X128373333Y-96910238D01*
X128373333Y-96910238D02*
X128420952Y-96957857D01*
X128420952Y-96957857D02*
X128468571Y-97053095D01*
X128468571Y-97053095D02*
X128468571Y-97148333D01*
X128468571Y-97148333D02*
X128420952Y-97291190D01*
X128420952Y-97291190D02*
X127849524Y-97862619D01*
X127849524Y-97862619D02*
X128468571Y-97862619D01*
X129468571Y-97767380D02*
X129420952Y-97815000D01*
X129420952Y-97815000D02*
X129278095Y-97862619D01*
X129278095Y-97862619D02*
X129182857Y-97862619D01*
X129182857Y-97862619D02*
X129040000Y-97815000D01*
X129040000Y-97815000D02*
X128944762Y-97719761D01*
X128944762Y-97719761D02*
X128897143Y-97624523D01*
X128897143Y-97624523D02*
X128849524Y-97434047D01*
X128849524Y-97434047D02*
X128849524Y-97291190D01*
X128849524Y-97291190D02*
X128897143Y-97100714D01*
X128897143Y-97100714D02*
X128944762Y-97005476D01*
X128944762Y-97005476D02*
X129040000Y-96910238D01*
X129040000Y-96910238D02*
X129182857Y-96862619D01*
X129182857Y-96862619D02*
X129278095Y-96862619D01*
X129278095Y-96862619D02*
X129420952Y-96910238D01*
X129420952Y-96910238D02*
X129468571Y-96957857D01*
X129659048Y-97957857D02*
X130420952Y-97957857D01*
X131230476Y-97862619D02*
X130897143Y-97386428D01*
X130659048Y-97862619D02*
X130659048Y-96862619D01*
X130659048Y-96862619D02*
X131040000Y-96862619D01*
X131040000Y-96862619D02*
X131135238Y-96910238D01*
X131135238Y-96910238D02*
X131182857Y-96957857D01*
X131182857Y-96957857D02*
X131230476Y-97053095D01*
X131230476Y-97053095D02*
X131230476Y-97195952D01*
X131230476Y-97195952D02*
X131182857Y-97291190D01*
X131182857Y-97291190D02*
X131135238Y-97338809D01*
X131135238Y-97338809D02*
X131040000Y-97386428D01*
X131040000Y-97386428D02*
X130659048Y-97386428D01*
X131659048Y-97862619D02*
X131659048Y-96862619D01*
X131659048Y-96862619D02*
X132040000Y-96862619D01*
X132040000Y-96862619D02*
X132135238Y-96910238D01*
X132135238Y-96910238D02*
X132182857Y-96957857D01*
X132182857Y-96957857D02*
X132230476Y-97053095D01*
X132230476Y-97053095D02*
X132230476Y-97195952D01*
X132230476Y-97195952D02*
X132182857Y-97291190D01*
X132182857Y-97291190D02*
X132135238Y-97338809D01*
X132135238Y-97338809D02*
X132040000Y-97386428D01*
X132040000Y-97386428D02*
X131659048Y-97386428D01*
X132659048Y-97862619D02*
X132659048Y-96862619D01*
X133659047Y-97862619D02*
X133087619Y-97862619D01*
X133373333Y-97862619D02*
X133373333Y-96862619D01*
X133373333Y-96862619D02*
X133278095Y-97005476D01*
X133278095Y-97005476D02*
X133182857Y-97100714D01*
X133182857Y-97100714D02*
X133087619Y-97148333D01*
X174262619Y-63278571D02*
X173262619Y-63278571D01*
X173262619Y-63278571D02*
X173262619Y-63040476D01*
X173262619Y-63040476D02*
X173310238Y-62897619D01*
X173310238Y-62897619D02*
X173405476Y-62802381D01*
X173405476Y-62802381D02*
X173500714Y-62754762D01*
X173500714Y-62754762D02*
X173691190Y-62707143D01*
X173691190Y-62707143D02*
X173834047Y-62707143D01*
X173834047Y-62707143D02*
X174024523Y-62754762D01*
X174024523Y-62754762D02*
X174119761Y-62802381D01*
X174119761Y-62802381D02*
X174215000Y-62897619D01*
X174215000Y-62897619D02*
X174262619Y-63040476D01*
X174262619Y-63040476D02*
X174262619Y-63278571D01*
X173262619Y-62278571D02*
X174072142Y-62278571D01*
X174072142Y-62278571D02*
X174167380Y-62230952D01*
X174167380Y-62230952D02*
X174215000Y-62183333D01*
X174215000Y-62183333D02*
X174262619Y-62088095D01*
X174262619Y-62088095D02*
X174262619Y-61897619D01*
X174262619Y-61897619D02*
X174215000Y-61802381D01*
X174215000Y-61802381D02*
X174167380Y-61754762D01*
X174167380Y-61754762D02*
X174072142Y-61707143D01*
X174072142Y-61707143D02*
X173262619Y-61707143D01*
X174215000Y-61278571D02*
X174262619Y-61135714D01*
X174262619Y-61135714D02*
X174262619Y-60897619D01*
X174262619Y-60897619D02*
X174215000Y-60802381D01*
X174215000Y-60802381D02*
X174167380Y-60754762D01*
X174167380Y-60754762D02*
X174072142Y-60707143D01*
X174072142Y-60707143D02*
X173976904Y-60707143D01*
X173976904Y-60707143D02*
X173881666Y-60754762D01*
X173881666Y-60754762D02*
X173834047Y-60802381D01*
X173834047Y-60802381D02*
X173786428Y-60897619D01*
X173786428Y-60897619D02*
X173738809Y-61088095D01*
X173738809Y-61088095D02*
X173691190Y-61183333D01*
X173691190Y-61183333D02*
X173643571Y-61230952D01*
X173643571Y-61230952D02*
X173548333Y-61278571D01*
X173548333Y-61278571D02*
X173453095Y-61278571D01*
X173453095Y-61278571D02*
X173357857Y-61230952D01*
X173357857Y-61230952D02*
X173310238Y-61183333D01*
X173310238Y-61183333D02*
X173262619Y-61088095D01*
X173262619Y-61088095D02*
X173262619Y-60850000D01*
X173262619Y-60850000D02*
X173310238Y-60707143D01*
X173262619Y-60421428D02*
X173262619Y-59850000D01*
X174262619Y-60135714D02*
X173262619Y-60135714D01*
X174357857Y-59754762D02*
X174357857Y-58992857D01*
X173976904Y-58802380D02*
X173976904Y-58326190D01*
X174262619Y-58897618D02*
X173262619Y-58564285D01*
X173262619Y-58564285D02*
X174262619Y-58230952D01*
X174262619Y-57373809D02*
X174262619Y-57945237D01*
X174262619Y-57659523D02*
X173262619Y-57659523D01*
X173262619Y-57659523D02*
X173405476Y-57754761D01*
X173405476Y-57754761D02*
X173500714Y-57849999D01*
X173500714Y-57849999D02*
X173548333Y-57945237D01*
X170228809Y-69414762D02*
X170276428Y-69271905D01*
X170276428Y-69271905D02*
X170324047Y-69224286D01*
X170324047Y-69224286D02*
X170419285Y-69176667D01*
X170419285Y-69176667D02*
X170562142Y-69176667D01*
X170562142Y-69176667D02*
X170657380Y-69224286D01*
X170657380Y-69224286D02*
X170705000Y-69271905D01*
X170705000Y-69271905D02*
X170752619Y-69367143D01*
X170752619Y-69367143D02*
X170752619Y-69748095D01*
X170752619Y-69748095D02*
X169752619Y-69748095D01*
X169752619Y-69748095D02*
X169752619Y-69414762D01*
X169752619Y-69414762D02*
X169800238Y-69319524D01*
X169800238Y-69319524D02*
X169847857Y-69271905D01*
X169847857Y-69271905D02*
X169943095Y-69224286D01*
X169943095Y-69224286D02*
X170038333Y-69224286D01*
X170038333Y-69224286D02*
X170133571Y-69271905D01*
X170133571Y-69271905D02*
X170181190Y-69319524D01*
X170181190Y-69319524D02*
X170228809Y-69414762D01*
X170228809Y-69414762D02*
X170228809Y-69748095D01*
X170085952Y-68319524D02*
X170752619Y-68319524D01*
X170085952Y-68748095D02*
X170609761Y-68748095D01*
X170609761Y-68748095D02*
X170705000Y-68700476D01*
X170705000Y-68700476D02*
X170752619Y-68605238D01*
X170752619Y-68605238D02*
X170752619Y-68462381D01*
X170752619Y-68462381D02*
X170705000Y-68367143D01*
X170705000Y-68367143D02*
X170657380Y-68319524D01*
X170085952Y-67938571D02*
X170085952Y-67414762D01*
X170085952Y-67414762D02*
X170752619Y-67938571D01*
X170752619Y-67938571D02*
X170752619Y-67414762D01*
X170085952Y-67129047D02*
X170085952Y-66605238D01*
X170085952Y-66605238D02*
X170752619Y-67129047D01*
X170752619Y-67129047D02*
X170752619Y-66605238D01*
X170705000Y-65843333D02*
X170752619Y-65938571D01*
X170752619Y-65938571D02*
X170752619Y-66129047D01*
X170752619Y-66129047D02*
X170705000Y-66224285D01*
X170705000Y-66224285D02*
X170609761Y-66271904D01*
X170609761Y-66271904D02*
X170228809Y-66271904D01*
X170228809Y-66271904D02*
X170133571Y-66224285D01*
X170133571Y-66224285D02*
X170085952Y-66129047D01*
X170085952Y-66129047D02*
X170085952Y-65938571D01*
X170085952Y-65938571D02*
X170133571Y-65843333D01*
X170133571Y-65843333D02*
X170228809Y-65795714D01*
X170228809Y-65795714D02*
X170324047Y-65795714D01*
X170324047Y-65795714D02*
X170419285Y-66271904D01*
X170752619Y-65367142D02*
X170085952Y-65367142D01*
X170276428Y-65367142D02*
X170181190Y-65319523D01*
X170181190Y-65319523D02*
X170133571Y-65271904D01*
X170133571Y-65271904D02*
X170085952Y-65176666D01*
X170085952Y-65176666D02*
X170085952Y-65081428D01*
X170752619Y-64224285D02*
X170752619Y-64795713D01*
X170752619Y-64509999D02*
X169752619Y-64509999D01*
X169752619Y-64509999D02*
X169895476Y-64605237D01*
X169895476Y-64605237D02*
X169990714Y-64700475D01*
X169990714Y-64700475D02*
X170038333Y-64795713D01*
X164021666Y-63570951D02*
X164021666Y-62809047D01*
X164402619Y-63189999D02*
X163640714Y-63189999D01*
X176333333Y-99642619D02*
X176000000Y-99166428D01*
X175761905Y-99642619D02*
X175761905Y-98642619D01*
X175761905Y-98642619D02*
X176142857Y-98642619D01*
X176142857Y-98642619D02*
X176238095Y-98690238D01*
X176238095Y-98690238D02*
X176285714Y-98737857D01*
X176285714Y-98737857D02*
X176333333Y-98833095D01*
X176333333Y-98833095D02*
X176333333Y-98975952D01*
X176333333Y-98975952D02*
X176285714Y-99071190D01*
X176285714Y-99071190D02*
X176238095Y-99118809D01*
X176238095Y-99118809D02*
X176142857Y-99166428D01*
X176142857Y-99166428D02*
X175761905Y-99166428D01*
X176666667Y-98642619D02*
X177285714Y-98642619D01*
X177285714Y-98642619D02*
X176952381Y-99023571D01*
X176952381Y-99023571D02*
X177095238Y-99023571D01*
X177095238Y-99023571D02*
X177190476Y-99071190D01*
X177190476Y-99071190D02*
X177238095Y-99118809D01*
X177238095Y-99118809D02*
X177285714Y-99214047D01*
X177285714Y-99214047D02*
X177285714Y-99452142D01*
X177285714Y-99452142D02*
X177238095Y-99547380D01*
X177238095Y-99547380D02*
X177190476Y-99595000D01*
X177190476Y-99595000D02*
X177095238Y-99642619D01*
X177095238Y-99642619D02*
X176809524Y-99642619D01*
X176809524Y-99642619D02*
X176714286Y-99595000D01*
X176714286Y-99595000D02*
X176666667Y-99547380D01*
D14*
X176073571Y-101433085D02*
X175662143Y-101433085D01*
X175867857Y-101433085D02*
X175957857Y-100713085D01*
X175957857Y-100713085D02*
X175876428Y-100815942D01*
X175876428Y-100815942D02*
X175799286Y-100884514D01*
X175799286Y-100884514D02*
X175726428Y-100918800D01*
X176605000Y-100713085D02*
X176673572Y-100713085D01*
X176673572Y-100713085D02*
X176737857Y-100747371D01*
X176737857Y-100747371D02*
X176767857Y-100781657D01*
X176767857Y-100781657D02*
X176793572Y-100850228D01*
X176793572Y-100850228D02*
X176810715Y-100987371D01*
X176810715Y-100987371D02*
X176789286Y-101158800D01*
X176789286Y-101158800D02*
X176737857Y-101295942D01*
X176737857Y-101295942D02*
X176695000Y-101364514D01*
X176695000Y-101364514D02*
X176656429Y-101398800D01*
X176656429Y-101398800D02*
X176583572Y-101433085D01*
X176583572Y-101433085D02*
X176515000Y-101433085D01*
X176515000Y-101433085D02*
X176450715Y-101398800D01*
X176450715Y-101398800D02*
X176420715Y-101364514D01*
X176420715Y-101364514D02*
X176395000Y-101295942D01*
X176395000Y-101295942D02*
X176377857Y-101158800D01*
X176377857Y-101158800D02*
X176399286Y-100987371D01*
X176399286Y-100987371D02*
X176450715Y-100850228D01*
X176450715Y-100850228D02*
X176493572Y-100781657D01*
X176493572Y-100781657D02*
X176532143Y-100747371D01*
X176532143Y-100747371D02*
X176605000Y-100713085D01*
X177059286Y-101433085D02*
X177149286Y-100713085D01*
X177162144Y-101158800D02*
X177333572Y-101433085D01*
X177393572Y-100953085D02*
X177085001Y-101227371D01*
D12*
X173838809Y-70890475D02*
X173838809Y-70557142D01*
X174362619Y-70414285D02*
X174362619Y-70890475D01*
X174362619Y-70890475D02*
X173362619Y-70890475D01*
X173362619Y-70890475D02*
X173362619Y-70414285D01*
X174267380Y-69414285D02*
X174315000Y-69461904D01*
X174315000Y-69461904D02*
X174362619Y-69604761D01*
X174362619Y-69604761D02*
X174362619Y-69699999D01*
X174362619Y-69699999D02*
X174315000Y-69842856D01*
X174315000Y-69842856D02*
X174219761Y-69938094D01*
X174219761Y-69938094D02*
X174124523Y-69985713D01*
X174124523Y-69985713D02*
X173934047Y-70033332D01*
X173934047Y-70033332D02*
X173791190Y-70033332D01*
X173791190Y-70033332D02*
X173600714Y-69985713D01*
X173600714Y-69985713D02*
X173505476Y-69938094D01*
X173505476Y-69938094D02*
X173410238Y-69842856D01*
X173410238Y-69842856D02*
X173362619Y-69699999D01*
X173362619Y-69699999D02*
X173362619Y-69604761D01*
X173362619Y-69604761D02*
X173410238Y-69461904D01*
X173410238Y-69461904D02*
X173457857Y-69414285D01*
X173410238Y-68461904D02*
X173362619Y-68557142D01*
X173362619Y-68557142D02*
X173362619Y-68699999D01*
X173362619Y-68699999D02*
X173410238Y-68842856D01*
X173410238Y-68842856D02*
X173505476Y-68938094D01*
X173505476Y-68938094D02*
X173600714Y-68985713D01*
X173600714Y-68985713D02*
X173791190Y-69033332D01*
X173791190Y-69033332D02*
X173934047Y-69033332D01*
X173934047Y-69033332D02*
X174124523Y-68985713D01*
X174124523Y-68985713D02*
X174219761Y-68938094D01*
X174219761Y-68938094D02*
X174315000Y-68842856D01*
X174315000Y-68842856D02*
X174362619Y-68699999D01*
X174362619Y-68699999D02*
X174362619Y-68604761D01*
X174362619Y-68604761D02*
X174315000Y-68461904D01*
X174315000Y-68461904D02*
X174267380Y-68414285D01*
X174267380Y-68414285D02*
X173934047Y-68414285D01*
X173934047Y-68414285D02*
X173934047Y-68604761D01*
X174362619Y-67461904D02*
X174362619Y-68033332D01*
X174362619Y-67747618D02*
X173362619Y-67747618D01*
X173362619Y-67747618D02*
X173505476Y-67842856D01*
X173505476Y-67842856D02*
X173600714Y-67938094D01*
X173600714Y-67938094D02*
X173648333Y-68033332D01*
X128182619Y-72118094D02*
X127182619Y-72118094D01*
X127182619Y-72118094D02*
X127182619Y-71879999D01*
X127182619Y-71879999D02*
X127230238Y-71737142D01*
X127230238Y-71737142D02*
X127325476Y-71641904D01*
X127325476Y-71641904D02*
X127420714Y-71594285D01*
X127420714Y-71594285D02*
X127611190Y-71546666D01*
X127611190Y-71546666D02*
X127754047Y-71546666D01*
X127754047Y-71546666D02*
X127944523Y-71594285D01*
X127944523Y-71594285D02*
X128039761Y-71641904D01*
X128039761Y-71641904D02*
X128135000Y-71737142D01*
X128135000Y-71737142D02*
X128182619Y-71879999D01*
X128182619Y-71879999D02*
X128182619Y-72118094D01*
X127277857Y-71165713D02*
X127230238Y-71118094D01*
X127230238Y-71118094D02*
X127182619Y-71022856D01*
X127182619Y-71022856D02*
X127182619Y-70784761D01*
X127182619Y-70784761D02*
X127230238Y-70689523D01*
X127230238Y-70689523D02*
X127277857Y-70641904D01*
X127277857Y-70641904D02*
X127373095Y-70594285D01*
X127373095Y-70594285D02*
X127468333Y-70594285D01*
X127468333Y-70594285D02*
X127611190Y-70641904D01*
X127611190Y-70641904D02*
X128182619Y-71213332D01*
X128182619Y-71213332D02*
X128182619Y-70594285D01*
X138154761Y-89212619D02*
X137821428Y-88736428D01*
X137583333Y-89212619D02*
X137583333Y-88212619D01*
X137583333Y-88212619D02*
X137964285Y-88212619D01*
X137964285Y-88212619D02*
X138059523Y-88260238D01*
X138059523Y-88260238D02*
X138107142Y-88307857D01*
X138107142Y-88307857D02*
X138154761Y-88403095D01*
X138154761Y-88403095D02*
X138154761Y-88545952D01*
X138154761Y-88545952D02*
X138107142Y-88641190D01*
X138107142Y-88641190D02*
X138059523Y-88688809D01*
X138059523Y-88688809D02*
X137964285Y-88736428D01*
X137964285Y-88736428D02*
X137583333Y-88736428D01*
X138440476Y-88212619D02*
X138773809Y-89212619D01*
X138773809Y-89212619D02*
X139107142Y-88212619D01*
X139964285Y-89212619D02*
X139392857Y-89212619D01*
X139678571Y-89212619D02*
X139678571Y-88212619D01*
X139678571Y-88212619D02*
X139583333Y-88355476D01*
X139583333Y-88355476D02*
X139488095Y-88450714D01*
X139488095Y-88450714D02*
X139392857Y-88498333D01*
X174966667Y-90765000D02*
X175109524Y-90812619D01*
X175109524Y-90812619D02*
X175347619Y-90812619D01*
X175347619Y-90812619D02*
X175442857Y-90765000D01*
X175442857Y-90765000D02*
X175490476Y-90717380D01*
X175490476Y-90717380D02*
X175538095Y-90622142D01*
X175538095Y-90622142D02*
X175538095Y-90526904D01*
X175538095Y-90526904D02*
X175490476Y-90431666D01*
X175490476Y-90431666D02*
X175442857Y-90384047D01*
X175442857Y-90384047D02*
X175347619Y-90336428D01*
X175347619Y-90336428D02*
X175157143Y-90288809D01*
X175157143Y-90288809D02*
X175061905Y-90241190D01*
X175061905Y-90241190D02*
X175014286Y-90193571D01*
X175014286Y-90193571D02*
X174966667Y-90098333D01*
X174966667Y-90098333D02*
X174966667Y-90003095D01*
X174966667Y-90003095D02*
X175014286Y-89907857D01*
X175014286Y-89907857D02*
X175061905Y-89860238D01*
X175061905Y-89860238D02*
X175157143Y-89812619D01*
X175157143Y-89812619D02*
X175395238Y-89812619D01*
X175395238Y-89812619D02*
X175538095Y-89860238D01*
X175871429Y-89812619D02*
X176109524Y-90812619D01*
X176109524Y-90812619D02*
X176300000Y-90098333D01*
X176300000Y-90098333D02*
X176490476Y-90812619D01*
X176490476Y-90812619D02*
X176728572Y-89812619D01*
X177014286Y-89812619D02*
X177633333Y-89812619D01*
X177633333Y-89812619D02*
X177300000Y-90193571D01*
X177300000Y-90193571D02*
X177442857Y-90193571D01*
X177442857Y-90193571D02*
X177538095Y-90241190D01*
X177538095Y-90241190D02*
X177585714Y-90288809D01*
X177585714Y-90288809D02*
X177633333Y-90384047D01*
X177633333Y-90384047D02*
X177633333Y-90622142D01*
X177633333Y-90622142D02*
X177585714Y-90717380D01*
X177585714Y-90717380D02*
X177538095Y-90765000D01*
X177538095Y-90765000D02*
X177442857Y-90812619D01*
X177442857Y-90812619D02*
X177157143Y-90812619D01*
X177157143Y-90812619D02*
X177061905Y-90765000D01*
X177061905Y-90765000D02*
X177014286Y-90717380D01*
X165233333Y-99542619D02*
X164900000Y-99066428D01*
X164661905Y-99542619D02*
X164661905Y-98542619D01*
X164661905Y-98542619D02*
X165042857Y-98542619D01*
X165042857Y-98542619D02*
X165138095Y-98590238D01*
X165138095Y-98590238D02*
X165185714Y-98637857D01*
X165185714Y-98637857D02*
X165233333Y-98733095D01*
X165233333Y-98733095D02*
X165233333Y-98875952D01*
X165233333Y-98875952D02*
X165185714Y-98971190D01*
X165185714Y-98971190D02*
X165138095Y-99018809D01*
X165138095Y-99018809D02*
X165042857Y-99066428D01*
X165042857Y-99066428D02*
X164661905Y-99066428D01*
X165614286Y-98637857D02*
X165661905Y-98590238D01*
X165661905Y-98590238D02*
X165757143Y-98542619D01*
X165757143Y-98542619D02*
X165995238Y-98542619D01*
X165995238Y-98542619D02*
X166090476Y-98590238D01*
X166090476Y-98590238D02*
X166138095Y-98637857D01*
X166138095Y-98637857D02*
X166185714Y-98733095D01*
X166185714Y-98733095D02*
X166185714Y-98828333D01*
X166185714Y-98828333D02*
X166138095Y-98971190D01*
X166138095Y-98971190D02*
X165566667Y-99542619D01*
X165566667Y-99542619D02*
X166185714Y-99542619D01*
D14*
X164973571Y-101333085D02*
X164562143Y-101333085D01*
X164767857Y-101333085D02*
X164857857Y-100613085D01*
X164857857Y-100613085D02*
X164776428Y-100715942D01*
X164776428Y-100715942D02*
X164699286Y-100784514D01*
X164699286Y-100784514D02*
X164626428Y-100818800D01*
X165505000Y-100613085D02*
X165573572Y-100613085D01*
X165573572Y-100613085D02*
X165637857Y-100647371D01*
X165637857Y-100647371D02*
X165667857Y-100681657D01*
X165667857Y-100681657D02*
X165693572Y-100750228D01*
X165693572Y-100750228D02*
X165710715Y-100887371D01*
X165710715Y-100887371D02*
X165689286Y-101058800D01*
X165689286Y-101058800D02*
X165637857Y-101195942D01*
X165637857Y-101195942D02*
X165595000Y-101264514D01*
X165595000Y-101264514D02*
X165556429Y-101298800D01*
X165556429Y-101298800D02*
X165483572Y-101333085D01*
X165483572Y-101333085D02*
X165415000Y-101333085D01*
X165415000Y-101333085D02*
X165350715Y-101298800D01*
X165350715Y-101298800D02*
X165320715Y-101264514D01*
X165320715Y-101264514D02*
X165295000Y-101195942D01*
X165295000Y-101195942D02*
X165277857Y-101058800D01*
X165277857Y-101058800D02*
X165299286Y-100887371D01*
X165299286Y-100887371D02*
X165350715Y-100750228D01*
X165350715Y-100750228D02*
X165393572Y-100681657D01*
X165393572Y-100681657D02*
X165432143Y-100647371D01*
X165432143Y-100647371D02*
X165505000Y-100613085D01*
X165959286Y-101333085D02*
X166049286Y-100613085D01*
X166062144Y-101058800D02*
X166233572Y-101333085D01*
X166293572Y-100853085D02*
X165985001Y-101127371D01*
D12*
X166263333Y-55962619D02*
X165930000Y-55486428D01*
X165691905Y-55962619D02*
X165691905Y-54962619D01*
X165691905Y-54962619D02*
X166072857Y-54962619D01*
X166072857Y-54962619D02*
X166168095Y-55010238D01*
X166168095Y-55010238D02*
X166215714Y-55057857D01*
X166215714Y-55057857D02*
X166263333Y-55153095D01*
X166263333Y-55153095D02*
X166263333Y-55295952D01*
X166263333Y-55295952D02*
X166215714Y-55391190D01*
X166215714Y-55391190D02*
X166168095Y-55438809D01*
X166168095Y-55438809D02*
X166072857Y-55486428D01*
X166072857Y-55486428D02*
X165691905Y-55486428D01*
X167215714Y-55010238D02*
X167120476Y-54962619D01*
X167120476Y-54962619D02*
X166977619Y-54962619D01*
X166977619Y-54962619D02*
X166834762Y-55010238D01*
X166834762Y-55010238D02*
X166739524Y-55105476D01*
X166739524Y-55105476D02*
X166691905Y-55200714D01*
X166691905Y-55200714D02*
X166644286Y-55391190D01*
X166644286Y-55391190D02*
X166644286Y-55534047D01*
X166644286Y-55534047D02*
X166691905Y-55724523D01*
X166691905Y-55724523D02*
X166739524Y-55819761D01*
X166739524Y-55819761D02*
X166834762Y-55915000D01*
X166834762Y-55915000D02*
X166977619Y-55962619D01*
X166977619Y-55962619D02*
X167072857Y-55962619D01*
X167072857Y-55962619D02*
X167215714Y-55915000D01*
X167215714Y-55915000D02*
X167263333Y-55867380D01*
X167263333Y-55867380D02*
X167263333Y-55534047D01*
X167263333Y-55534047D02*
X167072857Y-55534047D01*
X168025238Y-55438809D02*
X168168095Y-55486428D01*
X168168095Y-55486428D02*
X168215714Y-55534047D01*
X168215714Y-55534047D02*
X168263333Y-55629285D01*
X168263333Y-55629285D02*
X168263333Y-55772142D01*
X168263333Y-55772142D02*
X168215714Y-55867380D01*
X168215714Y-55867380D02*
X168168095Y-55915000D01*
X168168095Y-55915000D02*
X168072857Y-55962619D01*
X168072857Y-55962619D02*
X167691905Y-55962619D01*
X167691905Y-55962619D02*
X167691905Y-54962619D01*
X167691905Y-54962619D02*
X168025238Y-54962619D01*
X168025238Y-54962619D02*
X168120476Y-55010238D01*
X168120476Y-55010238D02*
X168168095Y-55057857D01*
X168168095Y-55057857D02*
X168215714Y-55153095D01*
X168215714Y-55153095D02*
X168215714Y-55248333D01*
X168215714Y-55248333D02*
X168168095Y-55343571D01*
X168168095Y-55343571D02*
X168120476Y-55391190D01*
X168120476Y-55391190D02*
X168025238Y-55438809D01*
X168025238Y-55438809D02*
X167691905Y-55438809D01*
X169215714Y-55962619D02*
X168644286Y-55962619D01*
X168930000Y-55962619D02*
X168930000Y-54962619D01*
X168930000Y-54962619D02*
X168834762Y-55105476D01*
X168834762Y-55105476D02*
X168739524Y-55200714D01*
X168739524Y-55200714D02*
X168644286Y-55248333D01*
X163866667Y-90765000D02*
X164009524Y-90812619D01*
X164009524Y-90812619D02*
X164247619Y-90812619D01*
X164247619Y-90812619D02*
X164342857Y-90765000D01*
X164342857Y-90765000D02*
X164390476Y-90717380D01*
X164390476Y-90717380D02*
X164438095Y-90622142D01*
X164438095Y-90622142D02*
X164438095Y-90526904D01*
X164438095Y-90526904D02*
X164390476Y-90431666D01*
X164390476Y-90431666D02*
X164342857Y-90384047D01*
X164342857Y-90384047D02*
X164247619Y-90336428D01*
X164247619Y-90336428D02*
X164057143Y-90288809D01*
X164057143Y-90288809D02*
X163961905Y-90241190D01*
X163961905Y-90241190D02*
X163914286Y-90193571D01*
X163914286Y-90193571D02*
X163866667Y-90098333D01*
X163866667Y-90098333D02*
X163866667Y-90003095D01*
X163866667Y-90003095D02*
X163914286Y-89907857D01*
X163914286Y-89907857D02*
X163961905Y-89860238D01*
X163961905Y-89860238D02*
X164057143Y-89812619D01*
X164057143Y-89812619D02*
X164295238Y-89812619D01*
X164295238Y-89812619D02*
X164438095Y-89860238D01*
X164771429Y-89812619D02*
X165009524Y-90812619D01*
X165009524Y-90812619D02*
X165200000Y-90098333D01*
X165200000Y-90098333D02*
X165390476Y-90812619D01*
X165390476Y-90812619D02*
X165628572Y-89812619D01*
X165961905Y-89907857D02*
X166009524Y-89860238D01*
X166009524Y-89860238D02*
X166104762Y-89812619D01*
X166104762Y-89812619D02*
X166342857Y-89812619D01*
X166342857Y-89812619D02*
X166438095Y-89860238D01*
X166438095Y-89860238D02*
X166485714Y-89907857D01*
X166485714Y-89907857D02*
X166533333Y-90003095D01*
X166533333Y-90003095D02*
X166533333Y-90098333D01*
X166533333Y-90098333D02*
X166485714Y-90241190D01*
X166485714Y-90241190D02*
X165914286Y-90812619D01*
X165914286Y-90812619D02*
X166533333Y-90812619D01*
X153833333Y-50762619D02*
X153500000Y-50286428D01*
X153261905Y-50762619D02*
X153261905Y-49762619D01*
X153261905Y-49762619D02*
X153642857Y-49762619D01*
X153642857Y-49762619D02*
X153738095Y-49810238D01*
X153738095Y-49810238D02*
X153785714Y-49857857D01*
X153785714Y-49857857D02*
X153833333Y-49953095D01*
X153833333Y-49953095D02*
X153833333Y-50095952D01*
X153833333Y-50095952D02*
X153785714Y-50191190D01*
X153785714Y-50191190D02*
X153738095Y-50238809D01*
X153738095Y-50238809D02*
X153642857Y-50286428D01*
X153642857Y-50286428D02*
X153261905Y-50286428D01*
X154166667Y-49762619D02*
X154833333Y-49762619D01*
X154833333Y-49762619D02*
X154404762Y-50762619D01*
X174362619Y-46319047D02*
X173362619Y-46319047D01*
X173362619Y-46319047D02*
X173362619Y-46080952D01*
X173362619Y-46080952D02*
X173410238Y-45938095D01*
X173410238Y-45938095D02*
X173505476Y-45842857D01*
X173505476Y-45842857D02*
X173600714Y-45795238D01*
X173600714Y-45795238D02*
X173791190Y-45747619D01*
X173791190Y-45747619D02*
X173934047Y-45747619D01*
X173934047Y-45747619D02*
X174124523Y-45795238D01*
X174124523Y-45795238D02*
X174219761Y-45842857D01*
X174219761Y-45842857D02*
X174315000Y-45938095D01*
X174315000Y-45938095D02*
X174362619Y-46080952D01*
X174362619Y-46080952D02*
X174362619Y-46319047D01*
X174362619Y-45319047D02*
X173362619Y-45319047D01*
X173838809Y-45319047D02*
X173838809Y-44747619D01*
X174362619Y-44747619D02*
X173362619Y-44747619D01*
X173362619Y-44414285D02*
X173362619Y-43842857D01*
X174362619Y-44128571D02*
X173362619Y-44128571D01*
X174362619Y-42985714D02*
X174362619Y-43557142D01*
X174362619Y-43271428D02*
X173362619Y-43271428D01*
X173362619Y-43271428D02*
X173505476Y-43366666D01*
X173505476Y-43366666D02*
X173600714Y-43461904D01*
X173600714Y-43461904D02*
X173648333Y-43557142D01*
X174362619Y-42033333D02*
X174362619Y-42604761D01*
X174362619Y-42319047D02*
X173362619Y-42319047D01*
X173362619Y-42319047D02*
X173505476Y-42414285D01*
X173505476Y-42414285D02*
X173600714Y-42509523D01*
X173600714Y-42509523D02*
X173648333Y-42604761D01*
X143018095Y-85042619D02*
X143018095Y-85852142D01*
X143018095Y-85852142D02*
X143065714Y-85947380D01*
X143065714Y-85947380D02*
X143113333Y-85995000D01*
X143113333Y-85995000D02*
X143208571Y-86042619D01*
X143208571Y-86042619D02*
X143399047Y-86042619D01*
X143399047Y-86042619D02*
X143494285Y-85995000D01*
X143494285Y-85995000D02*
X143541904Y-85947380D01*
X143541904Y-85947380D02*
X143589523Y-85852142D01*
X143589523Y-85852142D02*
X143589523Y-85042619D01*
X144589523Y-86042619D02*
X144018095Y-86042619D01*
X144303809Y-86042619D02*
X144303809Y-85042619D01*
X144303809Y-85042619D02*
X144208571Y-85185476D01*
X144208571Y-85185476D02*
X144113333Y-85280714D01*
X144113333Y-85280714D02*
X144018095Y-85328333D01*
X152966667Y-90765000D02*
X153109524Y-90812619D01*
X153109524Y-90812619D02*
X153347619Y-90812619D01*
X153347619Y-90812619D02*
X153442857Y-90765000D01*
X153442857Y-90765000D02*
X153490476Y-90717380D01*
X153490476Y-90717380D02*
X153538095Y-90622142D01*
X153538095Y-90622142D02*
X153538095Y-90526904D01*
X153538095Y-90526904D02*
X153490476Y-90431666D01*
X153490476Y-90431666D02*
X153442857Y-90384047D01*
X153442857Y-90384047D02*
X153347619Y-90336428D01*
X153347619Y-90336428D02*
X153157143Y-90288809D01*
X153157143Y-90288809D02*
X153061905Y-90241190D01*
X153061905Y-90241190D02*
X153014286Y-90193571D01*
X153014286Y-90193571D02*
X152966667Y-90098333D01*
X152966667Y-90098333D02*
X152966667Y-90003095D01*
X152966667Y-90003095D02*
X153014286Y-89907857D01*
X153014286Y-89907857D02*
X153061905Y-89860238D01*
X153061905Y-89860238D02*
X153157143Y-89812619D01*
X153157143Y-89812619D02*
X153395238Y-89812619D01*
X153395238Y-89812619D02*
X153538095Y-89860238D01*
X153871429Y-89812619D02*
X154109524Y-90812619D01*
X154109524Y-90812619D02*
X154300000Y-90098333D01*
X154300000Y-90098333D02*
X154490476Y-90812619D01*
X154490476Y-90812619D02*
X154728572Y-89812619D01*
X155633333Y-90812619D02*
X155061905Y-90812619D01*
X155347619Y-90812619D02*
X155347619Y-89812619D01*
X155347619Y-89812619D02*
X155252381Y-89955476D01*
X155252381Y-89955476D02*
X155157143Y-90050714D01*
X155157143Y-90050714D02*
X155061905Y-90098333D01*
D15*
X127820000Y-89670000D02*
X127820000Y-88650000D01*
X126350000Y-88650000D02*
X129290000Y-88650000D01*
X129290000Y-88650000D02*
X129290000Y-83210000D01*
X126350000Y-87870000D02*
X129290000Y-87870000D01*
X126350000Y-87750000D02*
X129290000Y-87750000D01*
X126350000Y-87630000D02*
X129290000Y-87630000D01*
X126350000Y-83210000D02*
X126350000Y-88650000D01*
X129290000Y-83210000D02*
X126350000Y-83210000D01*
X127820000Y-82190000D02*
X127820000Y-83210000D01*
X177330000Y-83890000D02*
X176270000Y-83890000D01*
X177330000Y-82830000D02*
X177330000Y-83890000D01*
X177330000Y-81830000D02*
X177330000Y-75770000D01*
X177330000Y-81830000D02*
X175210000Y-81830000D01*
X177330000Y-75770000D02*
X175210000Y-75770000D01*
X175210000Y-81830000D02*
X175210000Y-75770000D01*
X171920000Y-81180000D02*
X170970000Y-81180000D01*
X170970000Y-82100000D02*
X170970000Y-80260000D01*
X170970000Y-80260000D02*
X167130000Y-80260000D01*
X167130000Y-82100000D02*
X170970000Y-82100000D01*
X167130000Y-80260000D02*
X167130000Y-82100000D01*
X166180000Y-81180000D02*
X167130000Y-81180000D01*
X171970000Y-78730000D02*
X171020000Y-78730000D01*
X171020000Y-79650000D02*
X171020000Y-77810000D01*
X171020000Y-77810000D02*
X167180000Y-77810000D01*
X167180000Y-79650000D02*
X171020000Y-79650000D01*
X167180000Y-77810000D02*
X167180000Y-79650000D01*
X166230000Y-78730000D02*
X167180000Y-78730000D01*
X175290000Y-49120000D02*
X176350000Y-49120000D01*
X175290000Y-50180000D02*
X175290000Y-49120000D01*
X175290000Y-51180000D02*
X175290000Y-55240000D01*
X175290000Y-51180000D02*
X177410000Y-51180000D01*
X175290000Y-55240000D02*
X177410000Y-55240000D01*
X177410000Y-51180000D02*
X177410000Y-55240000D01*
X157560000Y-44160000D02*
X156500000Y-44160000D01*
X157560000Y-43100000D02*
X157560000Y-44160000D01*
X157560000Y-42100000D02*
X157560000Y-38040000D01*
X157560000Y-42100000D02*
X155440000Y-42100000D01*
X157560000Y-38040000D02*
X155440000Y-38040000D01*
X155440000Y-42100000D02*
X155440000Y-38040000D01*
X162650000Y-53450000D02*
X161700000Y-53450000D01*
X161700000Y-54370000D02*
X161700000Y-52530000D01*
X161700000Y-52530000D02*
X157860000Y-52530000D01*
X157860000Y-54370000D02*
X161700000Y-54370000D01*
X157860000Y-52530000D02*
X157860000Y-54370000D01*
X156910000Y-53450000D02*
X157860000Y-53450000D01*
X151430000Y-101000000D02*
X152380000Y-101000000D01*
X152380000Y-100080000D02*
X152380000Y-101920000D01*
X152380000Y-101920000D02*
X156220000Y-101920000D01*
X156220000Y-100080000D02*
X152380000Y-100080000D01*
X156220000Y-101920000D02*
X156220000Y-100080000D01*
X157170000Y-101000000D02*
X156220000Y-101000000D01*
X162650000Y-47150000D02*
X161700000Y-47150000D01*
X161700000Y-48070000D02*
X161700000Y-46230000D01*
X161700000Y-46230000D02*
X157860000Y-46230000D01*
X157860000Y-48070000D02*
X161700000Y-48070000D01*
X157860000Y-46230000D02*
X157860000Y-48070000D01*
X156910000Y-47150000D02*
X157860000Y-47150000D01*
X126480000Y-100930000D02*
X126480000Y-99870000D01*
X127540000Y-100930000D02*
X126480000Y-100930000D01*
X128540000Y-100930000D02*
X134600000Y-100930000D01*
X128540000Y-100930000D02*
X128540000Y-98810000D01*
X134600000Y-100930000D02*
X134600000Y-98810000D01*
X128540000Y-98810000D02*
X134600000Y-98810000D01*
X175290000Y-57240000D02*
X176350000Y-57240000D01*
X175290000Y-58300000D02*
X175290000Y-57240000D01*
X175290000Y-59300000D02*
X175290000Y-63360000D01*
X175290000Y-59300000D02*
X177410000Y-59300000D01*
X175290000Y-63360000D02*
X177410000Y-63360000D01*
X177410000Y-59300000D02*
X177410000Y-63360000D01*
X169000000Y-67000000D02*
G75*
G03*
X169000000Y-67000000I-7600000J0D01*
G01*
X173630000Y-101100000D02*
X174580000Y-101100000D01*
X174580000Y-100180000D02*
X174580000Y-102020000D01*
X174580000Y-102020000D02*
X178420000Y-102020000D01*
X178420000Y-100180000D02*
X174580000Y-100180000D01*
X178420000Y-102020000D02*
X178420000Y-100180000D01*
X179370000Y-101100000D02*
X178420000Y-101100000D01*
X175270000Y-65660000D02*
X176330000Y-65660000D01*
X175270000Y-66720000D02*
X175270000Y-65660000D01*
X175270000Y-67720000D02*
X175270000Y-71780000D01*
X175270000Y-67720000D02*
X177390000Y-67720000D01*
X175270000Y-71780000D02*
X177390000Y-71780000D01*
X177390000Y-67720000D02*
X177390000Y-71780000D01*
X127740000Y-75580000D02*
X127740000Y-74560000D01*
X126270000Y-74560000D02*
X129210000Y-74560000D01*
X129210000Y-74560000D02*
X129210000Y-69120000D01*
X126270000Y-73780000D02*
X129210000Y-73780000D01*
X126270000Y-73660000D02*
X129210000Y-73660000D01*
X126270000Y-73540000D02*
X129210000Y-73540000D01*
X126270000Y-69120000D02*
X126270000Y-74560000D01*
X129210000Y-69120000D02*
X126270000Y-69120000D01*
X127740000Y-68100000D02*
X127740000Y-69120000D01*
X137460000Y-91770000D02*
X137460000Y-92020000D01*
X137460000Y-97480000D02*
X137460000Y-93940000D01*
X137560000Y-91570000D02*
X137560000Y-91770000D01*
X137560000Y-91570000D02*
X138980000Y-91570000D01*
X137560000Y-91770000D02*
X137460000Y-91770000D01*
X138980000Y-91770000D02*
X138980000Y-91570000D01*
X138980000Y-91770000D02*
X142560000Y-91770000D01*
X140260000Y-98790000D02*
X138770000Y-98790000D01*
X142560000Y-91570000D02*
X143980000Y-91570000D01*
X142560000Y-91770000D02*
X142560000Y-91570000D01*
X142770000Y-98790000D02*
X141280000Y-98790000D01*
X143980000Y-91570000D02*
X143980000Y-91770000D01*
X143980000Y-91770000D02*
X144080000Y-91770000D01*
X144080000Y-91770000D02*
X144080000Y-92460000D01*
X144080000Y-93500000D02*
X144080000Y-97480000D01*
X137460000Y-97480000D02*
G75*
G03*
X138770000Y-98790000I1310000J0D01*
G01*
X142770000Y-98790000D02*
G75*
G03*
X144080000Y-97480000I0J1310000D01*
G01*
X172800000Y-93850000D02*
X172800000Y-95350000D01*
X174050000Y-97850000D02*
X178550000Y-97850000D01*
X178550000Y-91350000D02*
X174050000Y-91350000D01*
X179800000Y-95350000D02*
X179800000Y-93850000D01*
X162530000Y-101000000D02*
X163480000Y-101000000D01*
X163480000Y-100080000D02*
X163480000Y-101920000D01*
X163480000Y-101920000D02*
X167320000Y-101920000D01*
X167320000Y-100080000D02*
X163480000Y-100080000D01*
X167320000Y-101920000D02*
X167320000Y-100080000D01*
X168270000Y-101000000D02*
X167320000Y-101000000D01*
X168490000Y-54200000D02*
X167430000Y-54200000D01*
X168490000Y-53140000D02*
X168490000Y-54200000D01*
X168490000Y-52140000D02*
X168490000Y-46080000D01*
X168490000Y-52140000D02*
X166370000Y-52140000D01*
X168490000Y-46080000D02*
X166370000Y-46080000D01*
X166370000Y-52140000D02*
X166370000Y-46080000D01*
X161700000Y-93850000D02*
X161700000Y-95350000D01*
X162950000Y-97850000D02*
X167450000Y-97850000D01*
X167450000Y-91350000D02*
X162950000Y-91350000D01*
X168700000Y-95350000D02*
X168700000Y-93850000D01*
X162650000Y-50300000D02*
X161700000Y-50300000D01*
X161700000Y-51220000D02*
X161700000Y-49380000D01*
X161700000Y-49380000D02*
X157860000Y-49380000D01*
X157860000Y-51220000D02*
X161700000Y-51220000D01*
X157860000Y-49380000D02*
X157860000Y-51220000D01*
X156910000Y-50300000D02*
X157860000Y-50300000D01*
G36*
X160570776Y-77199298D02*
G01*
X160573062Y-77221962D01*
X160570776Y-77224762D01*
X160559423Y-77222140D01*
X160558045Y-77212030D01*
X160565032Y-77196310D01*
X160570776Y-77199298D01*
G37*
G36*
X161701566Y-76117148D02*
G01*
X161773916Y-76123005D01*
X161966611Y-76147134D01*
X162162953Y-76181927D01*
X162352716Y-76225036D01*
X162525674Y-76274114D01*
X162671602Y-76326814D01*
X162683122Y-76331681D01*
X162769550Y-76368729D01*
X162537519Y-76613725D01*
X162387209Y-76771861D01*
X162260012Y-76904228D01*
X162153297Y-77013272D01*
X162064432Y-77101441D01*
X161990788Y-77171180D01*
X161929732Y-77224936D01*
X161878635Y-77265157D01*
X161834865Y-77294290D01*
X161795792Y-77314780D01*
X161774105Y-77323721D01*
X161691250Y-77348613D01*
X161603154Y-77360658D01*
X161507441Y-77362596D01*
X161429108Y-77360541D01*
X161361975Y-77357078D01*
X161318102Y-77352871D01*
X161312406Y-77351832D01*
X161224759Y-77327853D01*
X161119845Y-77292811D01*
X161014532Y-77252774D01*
X160925691Y-77213810D01*
X160917545Y-77209799D01*
X160809151Y-77155618D01*
X160828498Y-77083561D01*
X160883878Y-76949602D01*
X160974582Y-76824122D01*
X161098397Y-76708545D01*
X161253110Y-76604295D01*
X161436506Y-76512800D01*
X161646371Y-76435483D01*
X161880492Y-76373770D01*
X161954550Y-76358622D01*
X162034551Y-76341627D01*
X162079561Y-76327784D01*
X162089017Y-76316843D01*
X162062356Y-76308555D01*
X161999016Y-76302671D01*
X161898434Y-76298941D01*
X161816776Y-76297597D01*
X161590493Y-76311567D01*
X161382941Y-76358781D01*
X161194029Y-76439298D01*
X161023665Y-76553174D01*
X160871759Y-76700468D01*
X160738219Y-76881237D01*
X160650479Y-77037979D01*
X160618247Y-77099653D01*
X160593315Y-77141492D01*
X160579412Y-77157509D01*
X160577747Y-77154736D01*
X160583116Y-77114765D01*
X160598126Y-77047447D01*
X160620246Y-76961639D01*
X160646948Y-76866200D01*
X160675703Y-76769987D01*
X160703981Y-76681858D01*
X160729253Y-76610671D01*
X160741946Y-76579719D01*
X160800320Y-76477987D01*
X160880417Y-76389316D01*
X160987610Y-76308911D01*
X161127272Y-76231978D01*
X161136732Y-76227402D01*
X161277041Y-76168062D01*
X161409638Y-76131269D01*
X161546991Y-76114978D01*
X161701566Y-76117148D01*
G37*
G36*
X155885272Y-77691188D02*
G01*
X155887783Y-77713868D01*
X155888578Y-77769079D01*
X155887859Y-77851204D01*
X155885827Y-77954626D01*
X155882684Y-78073729D01*
X155878634Y-78202895D01*
X155873877Y-78336508D01*
X155868616Y-78468952D01*
X155863053Y-78594609D01*
X155857391Y-78707863D01*
X155851830Y-78803097D01*
X155846575Y-78874695D01*
X155841826Y-78917040D01*
X155841006Y-78921278D01*
X155790801Y-79059123D01*
X155705059Y-79185633D01*
X155585044Y-79299689D01*
X155432021Y-79400176D01*
X155247256Y-79485976D01*
X155169043Y-79514477D01*
X155081450Y-79542990D01*
X155021709Y-79556743D01*
X154981894Y-79554339D01*
X154954077Y-79534382D01*
X154930330Y-79495477D01*
X154918362Y-79470338D01*
X154889701Y-79376991D01*
X154875307Y-79259663D01*
X154875118Y-79129779D01*
X154889072Y-78998764D01*
X154917105Y-78878044D01*
X154921684Y-78863985D01*
X154987735Y-78699505D01*
X155076727Y-78523750D01*
X155181831Y-78349370D01*
X155261669Y-78234438D01*
X155317196Y-78158533D01*
X155348767Y-78111664D01*
X155355495Y-78092428D01*
X155336494Y-78099419D01*
X155290875Y-78131233D01*
X155226950Y-78179453D01*
X155073395Y-78314804D01*
X154942152Y-78467814D01*
X154837745Y-78631968D01*
X154764700Y-78800753D01*
X154743496Y-78875503D01*
X154719504Y-79034060D01*
X154715459Y-79209831D01*
X154730289Y-79389820D01*
X154762918Y-79561029D01*
X154812273Y-79710464D01*
X154812597Y-79711223D01*
X154836439Y-79770283D01*
X154843123Y-79795889D01*
X154833045Y-79788509D01*
X154806601Y-79748612D01*
X154764187Y-79676667D01*
X154725821Y-79608592D01*
X154674261Y-79511816D01*
X154623229Y-79409020D01*
X154579727Y-79314649D01*
X154557642Y-79261688D01*
X154521050Y-79146479D01*
X154505641Y-79036997D01*
X154511910Y-78924196D01*
X154540351Y-78799030D01*
X154590892Y-78653909D01*
X154627859Y-78563041D01*
X154660909Y-78495719D01*
X154698275Y-78439277D01*
X154748190Y-78381050D01*
X154809108Y-78318201D01*
X154943212Y-78197615D01*
X155106159Y-78075035D01*
X155289414Y-77956317D01*
X155484441Y-77847319D01*
X155525789Y-77826365D01*
X155627612Y-77777810D01*
X155720113Y-77737654D01*
X155797439Y-77708097D01*
X155853737Y-77691339D01*
X155883156Y-77689582D01*
X155885272Y-77691188D01*
G37*
G36*
X162304955Y-77484572D02*
G01*
X162445796Y-77498322D01*
X162586047Y-77520192D01*
X162717429Y-77548515D01*
X162831662Y-77581626D01*
X162920466Y-77617858D01*
X162955016Y-77638193D01*
X163024859Y-77699204D01*
X163101504Y-77785614D01*
X163177784Y-77887273D01*
X163246528Y-77994032D01*
X163300567Y-78095740D01*
X163328475Y-78166917D01*
X163354622Y-78282644D01*
X163373176Y-78427172D01*
X163384073Y-78591854D01*
X163387248Y-78768044D01*
X163382638Y-78947096D01*
X163370180Y-79120366D01*
X163349809Y-79279206D01*
X163337175Y-79347916D01*
X163317230Y-79438239D01*
X163300057Y-79494521D01*
X163282449Y-79520447D01*
X163261199Y-79519701D01*
X163233102Y-79495969D01*
X163220365Y-79482140D01*
X163192381Y-79457824D01*
X163138815Y-79417209D01*
X163066040Y-79364914D01*
X162980432Y-79305561D01*
X162926165Y-79268888D01*
X162750139Y-79150083D01*
X162603589Y-79048459D01*
X162483457Y-78961183D01*
X162386690Y-78885420D01*
X162310231Y-78818336D01*
X162251025Y-78757095D01*
X162206016Y-78698864D01*
X162172149Y-78640808D01*
X162146368Y-78580092D01*
X162130366Y-78530640D01*
X162112396Y-78431965D01*
X162106237Y-78308866D01*
X162111260Y-78173030D01*
X162126838Y-78036146D01*
X162152340Y-77909903D01*
X162166346Y-77861353D01*
X162212504Y-77718120D01*
X162285802Y-77724087D01*
X162400094Y-77747914D01*
X162522290Y-77798602D01*
X162639538Y-77870784D01*
X162740375Y-77960809D01*
X162843099Y-78081882D01*
X162943445Y-78227350D01*
X163037151Y-78390563D01*
X163119953Y-78564872D01*
X163174646Y-78705457D01*
X163200513Y-78776424D01*
X163223063Y-78833024D01*
X163238485Y-78865865D01*
X163241326Y-78869855D01*
X163247763Y-78861427D01*
X163248630Y-78822995D01*
X163244768Y-78762205D01*
X163237016Y-78686708D01*
X163226213Y-78604151D01*
X163213197Y-78522183D01*
X163198809Y-78448453D01*
X163191856Y-78418998D01*
X163121698Y-78218051D01*
X163019315Y-78036340D01*
X162886926Y-77876597D01*
X162726753Y-77741555D01*
X162562019Y-77644053D01*
X162467033Y-77600784D01*
X162365170Y-77560029D01*
X162272911Y-77528190D01*
X162238646Y-77518408D01*
X162170057Y-77500192D01*
X162135540Y-77489036D01*
X162131999Y-77483189D01*
X162156341Y-77480901D01*
X162171804Y-77480606D01*
X162304955Y-77484572D01*
G37*
G36*
X156396959Y-79844687D02*
G01*
X156480388Y-79889050D01*
X156543214Y-79954961D01*
X156582639Y-80035802D01*
X156595863Y-80124954D01*
X156580087Y-80215797D01*
X156532511Y-80301713D01*
X156507659Y-80329564D01*
X156451799Y-80385424D01*
X156456689Y-81887787D01*
X156461578Y-83390150D01*
X158070340Y-83394899D01*
X159679102Y-83399647D01*
X159724592Y-83328056D01*
X159762602Y-83274399D01*
X159800792Y-83229619D01*
X159809491Y-83221229D01*
X159872352Y-83181413D01*
X159954892Y-83150161D01*
X160038646Y-83134050D01*
X160056729Y-83133169D01*
X160099445Y-83136322D01*
X160116141Y-83154864D01*
X160118797Y-83191381D01*
X160118797Y-83250431D01*
X160228609Y-83246394D01*
X160304172Y-83244106D01*
X160350171Y-83245190D01*
X160375197Y-83251287D01*
X160387843Y-83264039D01*
X160394000Y-83277984D01*
X160396356Y-83318351D01*
X160366075Y-83345097D01*
X160301738Y-83358995D01*
X160240593Y-83361503D01*
X160118797Y-83361503D01*
X160118797Y-83513374D01*
X160118797Y-83665245D01*
X160236172Y-83670930D01*
X160311017Y-83678137D01*
X160355532Y-83692204D01*
X160374201Y-83709512D01*
X160384529Y-83747936D01*
X160359365Y-83773164D01*
X160299145Y-83784963D01*
X160232738Y-83784937D01*
X160118797Y-83779290D01*
X160118797Y-83847314D01*
X160114672Y-83888662D01*
X160097558Y-83910022D01*
X160060346Y-83913820D01*
X159995925Y-83902482D01*
X159972855Y-83897120D01*
X159878713Y-83859947D01*
X159793850Y-83800071D01*
X159736247Y-83732947D01*
X159695531Y-83667067D01*
X158068278Y-83667067D01*
X156441025Y-83667067D01*
X156356931Y-83624097D01*
X156297406Y-83586610D01*
X156246959Y-83543045D01*
X156233524Y-83527216D01*
X156226394Y-83516779D01*
X156220173Y-83504633D01*
X156214789Y-83488225D01*
X156210170Y-83465006D01*
X156206244Y-83432426D01*
X156202941Y-83387933D01*
X156200190Y-83328976D01*
X156197918Y-83253006D01*
X156196054Y-83157472D01*
X156194527Y-83039823D01*
X156193266Y-82897508D01*
X156192199Y-82727977D01*
X156191254Y-82528680D01*
X156190361Y-82297065D01*
X156189448Y-82030582D01*
X156189155Y-81942103D01*
X156184100Y-80410902D01*
X156117381Y-80349664D01*
X156054610Y-80278318D01*
X156021851Y-80201298D01*
X156012853Y-80108869D01*
X156030486Y-80011259D01*
X156079019Y-79928639D01*
X156152173Y-79867230D01*
X156243672Y-79833254D01*
X156295729Y-79828492D01*
X156396959Y-79844687D01*
G37*
G36*
X154756037Y-80234373D02*
G01*
X154822082Y-80247154D01*
X154887389Y-80269121D01*
X154956315Y-80299687D01*
X154973134Y-80307870D01*
X155061670Y-80361402D01*
X155161573Y-80437682D01*
X155262947Y-80527730D01*
X155355895Y-80622565D01*
X155430521Y-80713206D01*
X155448531Y-80739270D01*
X155478735Y-80788789D01*
X155488961Y-80820009D01*
X155481708Y-80845512D01*
X155472468Y-80859823D01*
X155439785Y-80895786D01*
X155390821Y-80938751D01*
X155369625Y-80955072D01*
X155231727Y-81033480D01*
X155068389Y-81085763D01*
X154882108Y-81111841D01*
X154675384Y-81111631D01*
X154450715Y-81085053D01*
X154210600Y-81032027D01*
X154088821Y-80996602D01*
X154030278Y-80980031D01*
X153991006Y-80972344D01*
X153979429Y-80975185D01*
X153979478Y-80975266D01*
X154006300Y-81000083D01*
X154059473Y-81036241D01*
X154130668Y-81079070D01*
X154211557Y-81123903D01*
X154293813Y-81166069D01*
X154369107Y-81200901D01*
X154413117Y-81218384D01*
X154546784Y-81253715D01*
X154699463Y-81274160D01*
X154856411Y-81278961D01*
X155002886Y-81267362D01*
X155078294Y-81252552D01*
X155291337Y-81178841D01*
X155494850Y-81069358D01*
X155685330Y-80926047D01*
X155715915Y-80898687D01*
X155757839Y-80861673D01*
X155777130Y-80848402D01*
X155773209Y-80859679D01*
X155745500Y-80896309D01*
X155693425Y-80959097D01*
X155616406Y-81048847D01*
X155569428Y-81102864D01*
X155442064Y-81239695D01*
X155324624Y-81347306D01*
X155219421Y-81423728D01*
X155152420Y-81458385D01*
X155071331Y-81480440D01*
X154962284Y-81493745D01*
X154834648Y-81497656D01*
X154697791Y-81491529D01*
X154685488Y-81490477D01*
X154594951Y-81478172D01*
X154502994Y-81458844D01*
X154429160Y-81436619D01*
X154427669Y-81436044D01*
X154322573Y-81386450D01*
X154198886Y-81313831D01*
X154063674Y-81223457D01*
X153924003Y-81120597D01*
X153786939Y-81010521D01*
X153659548Y-80898499D01*
X153548897Y-80789800D01*
X153521463Y-80760220D01*
X153460182Y-80688866D01*
X153426583Y-80639559D01*
X153419592Y-80609204D01*
X153438134Y-80594711D01*
X153463146Y-80592330D01*
X153494683Y-80586091D01*
X153556136Y-80568634D01*
X153641543Y-80541851D01*
X153744944Y-80507636D01*
X153860380Y-80467881D01*
X153907168Y-80451356D01*
X154100344Y-80383420D01*
X154262290Y-80328774D01*
X154397363Y-80286832D01*
X154509917Y-80257007D01*
X154604311Y-80238713D01*
X154684899Y-80231364D01*
X154756037Y-80234373D01*
G37*
G36*
X159297374Y-76820496D02*
G01*
X159345928Y-76828296D01*
X159391485Y-76839081D01*
X159436781Y-76854952D01*
X159484555Y-76878013D01*
X159537543Y-76910366D01*
X159598481Y-76954114D01*
X159670108Y-77011361D01*
X159755160Y-77084208D01*
X159856375Y-77174760D01*
X159976488Y-77285117D01*
X160118239Y-77417384D01*
X160284362Y-77573664D01*
X160313594Y-77601233D01*
X160450517Y-77730207D01*
X160579008Y-77850869D01*
X160696401Y-77960744D01*
X160800031Y-78057354D01*
X160887235Y-78138224D01*
X160955347Y-78200875D01*
X161001703Y-78242833D01*
X161023638Y-78261619D01*
X161024985Y-78262406D01*
X161029540Y-78244706D01*
X161033099Y-78197193D01*
X161035166Y-78128247D01*
X161035488Y-78084627D01*
X161036029Y-77992726D01*
X161041240Y-77926455D01*
X161056506Y-77881463D01*
X161087212Y-77853396D01*
X161138744Y-77837901D01*
X161216485Y-77830627D01*
X161325821Y-77827220D01*
X161354753Y-77826555D01*
X161461880Y-77824531D01*
X161537882Y-77824740D01*
X161589799Y-77827896D01*
X161624674Y-77834715D01*
X161649545Y-77845913D01*
X161666672Y-77858263D01*
X161713458Y-77896123D01*
X161719106Y-78412898D01*
X161724755Y-78929673D01*
X162320619Y-79488859D01*
X162449303Y-79609664D01*
X162571361Y-79724330D01*
X162683531Y-79829788D01*
X162782551Y-79922966D01*
X162865159Y-80000795D01*
X162928095Y-80060204D01*
X162968095Y-80098123D01*
X162978618Y-80108203D01*
X163029343Y-80177983D01*
X163042795Y-80250548D01*
X163018882Y-80322106D01*
X162984927Y-80364627D01*
X162932721Y-80405060D01*
X162874258Y-80419717D01*
X162851038Y-80420451D01*
X162820522Y-80418881D01*
X162792098Y-80411691D01*
X162760448Y-80395159D01*
X162720253Y-80365566D01*
X162666192Y-80319189D01*
X162592947Y-80252308D01*
X162539231Y-80202332D01*
X162305488Y-79984212D01*
X162300606Y-81619770D01*
X162295724Y-83255328D01*
X162351626Y-83299078D01*
X162404475Y-83359344D01*
X162443484Y-83439311D01*
X162462439Y-83523194D01*
X162460495Y-83575529D01*
X162424555Y-83676047D01*
X162362577Y-83754366D01*
X162280808Y-83806463D01*
X162185497Y-83828314D01*
X162085864Y-83816765D01*
X161997579Y-83774068D01*
X161931961Y-83707832D01*
X161890612Y-83625780D01*
X161875129Y-83535635D01*
X161887115Y-83445122D01*
X161928169Y-83361964D01*
X161980445Y-83307922D01*
X162028571Y-83270066D01*
X162028571Y-81493929D01*
X162028571Y-79717791D01*
X161956954Y-79655370D01*
X161922170Y-79623931D01*
X161864918Y-79570893D01*
X161790324Y-79501064D01*
X161703517Y-79419250D01*
X161609625Y-79330259D01*
X161570225Y-79292771D01*
X161399927Y-79130785D01*
X161223582Y-78963494D01*
X161043418Y-78792982D01*
X160861659Y-78621330D01*
X160680533Y-78450621D01*
X160502263Y-78282937D01*
X160329077Y-78120360D01*
X160163200Y-77964973D01*
X160006857Y-77818858D01*
X159862276Y-77684098D01*
X159731680Y-77562773D01*
X159617297Y-77456968D01*
X159521352Y-77368763D01*
X159446070Y-77300242D01*
X159393678Y-77253486D01*
X159366402Y-77230578D01*
X159364436Y-77229214D01*
X159288185Y-77199649D01*
X159199720Y-77193125D01*
X159111204Y-77207834D01*
X159034805Y-77241973D01*
X158988414Y-77285009D01*
X158953756Y-77321913D01*
X158932185Y-77337637D01*
X158902523Y-77358634D01*
X158854655Y-77396796D01*
X158798905Y-77443890D01*
X158798501Y-77444241D01*
X158749581Y-77486295D01*
X158678594Y-77546768D01*
X158592749Y-77619546D01*
X158499252Y-77698516D01*
X158426987Y-77759354D01*
X158332457Y-77838864D01*
X158239970Y-77916749D01*
X158156750Y-77986918D01*
X158090023Y-78043280D01*
X158054581Y-78073309D01*
X158023437Y-78099669D01*
X157965606Y-78148518D01*
X157883607Y-78217731D01*
X157779959Y-78305182D01*
X157657181Y-78408747D01*
X157517794Y-78526301D01*
X157364316Y-78655718D01*
X157199267Y-78794875D01*
X157025167Y-78941645D01*
X156844535Y-79093904D01*
X156833984Y-79102796D01*
X156653413Y-79255087D01*
X156479545Y-79401905D01*
X156314862Y-79541142D01*
X156161850Y-79670690D01*
X156022991Y-79788441D01*
X155900770Y-79892285D01*
X155797671Y-79980115D01*
X155716177Y-80049823D01*
X155658773Y-80099299D01*
X155627941Y-80126437D01*
X155626870Y-80127419D01*
X155572191Y-80174444D01*
X155529377Y-80199562D01*
X155484747Y-80209260D01*
X155451914Y-80210376D01*
X155391778Y-80205524D01*
X155350585Y-80185551D01*
X155317411Y-80151617D01*
X155275246Y-80077160D01*
X155270208Y-80001310D01*
X155302238Y-79928767D01*
X155320488Y-79906824D01*
X155346028Y-79882904D01*
X155398297Y-79836724D01*
X155475076Y-79770148D01*
X155574148Y-79685039D01*
X155693292Y-79583261D01*
X155830291Y-79466679D01*
X155982926Y-79337156D01*
X156148979Y-79196557D01*
X156326231Y-79046744D01*
X156512463Y-78889582D01*
X156705458Y-78726934D01*
X156902995Y-78560665D01*
X157102858Y-78392639D01*
X157302826Y-78224719D01*
X157500683Y-78058769D01*
X157694208Y-77896654D01*
X157881184Y-77740236D01*
X158059393Y-77591380D01*
X158226614Y-77451950D01*
X158380631Y-77323809D01*
X158519223Y-77208822D01*
X158640174Y-77108852D01*
X158741264Y-77025763D01*
X158820274Y-76961419D01*
X158874987Y-76917685D01*
X158903183Y-76896423D01*
X158905326Y-76895096D01*
X159008396Y-76852689D01*
X159127727Y-76825393D01*
X159244921Y-76816709D01*
X159297374Y-76820496D01*
G37*
G36*
X157129291Y-80766934D02*
G01*
X157344386Y-80766934D01*
X157765443Y-80760798D01*
X158186501Y-80754661D01*
X158342545Y-80673496D01*
X158457682Y-80620897D01*
X158550626Y-80596152D01*
X158625692Y-80599617D01*
X158687196Y-80631647D01*
X158739451Y-80692598D01*
X158748357Y-80706917D01*
X158763079Y-80741224D01*
X158785239Y-80804949D01*
X158812428Y-80890607D01*
X158842233Y-80990714D01*
X158860557Y-81055269D01*
X158888712Y-81154526D01*
X158913428Y-81238207D01*
X158932933Y-81300589D01*
X158945455Y-81335946D01*
X158949148Y-81341469D01*
X158954168Y-81320128D01*
X158966325Y-81265687D01*
X158984692Y-81182382D01*
X159008342Y-81074447D01*
X159036346Y-80946117D01*
X159067777Y-80801626D01*
X159101707Y-80645209D01*
X159102877Y-80639809D01*
X159251743Y-79952556D01*
X159328966Y-79946830D01*
X159406189Y-79941104D01*
X159545563Y-80428946D01*
X159583711Y-80559995D01*
X159619799Y-80679328D01*
X159652185Y-80781877D01*
X159679229Y-80862577D01*
X159699290Y-80916360D01*
X159710405Y-80937924D01*
X159734723Y-80945254D01*
X159773416Y-80932910D01*
X159829740Y-80901303D01*
X159893042Y-80863412D01*
X159949090Y-80833879D01*
X160003827Y-80811711D01*
X160063197Y-80795916D01*
X160133145Y-80785500D01*
X160219614Y-80779471D01*
X160328548Y-80776836D01*
X160465891Y-80776602D01*
X160572368Y-80777261D01*
X161035488Y-80780763D01*
X161035488Y-80642815D01*
X161017614Y-80449139D01*
X160966182Y-80267188D01*
X160884477Y-80100285D01*
X160775785Y-79951757D01*
X160643392Y-79824927D01*
X160490584Y-79723121D01*
X160320645Y-79649662D01*
X160136861Y-79607875D01*
X160004210Y-79599248D01*
X159815375Y-79617819D01*
X159630902Y-79671651D01*
X159458087Y-79757923D01*
X159311875Y-79866896D01*
X159202021Y-79965234D01*
X159083240Y-79857743D01*
X158922766Y-79736690D01*
X158749582Y-79650220D01*
X158567673Y-79598559D01*
X158381022Y-79581937D01*
X158193614Y-79600580D01*
X158009432Y-79654717D01*
X157832461Y-79744576D01*
X157775196Y-79782910D01*
X157630453Y-79909040D01*
X157514170Y-80059238D01*
X157428014Y-80230357D01*
X157373647Y-80419246D01*
X157354247Y-80579369D01*
X157344386Y-80766934D01*
X157129291Y-80766934D01*
X157127332Y-80755986D01*
X157118793Y-80582463D01*
X157131644Y-80417192D01*
X157139934Y-80370958D01*
X157152942Y-80307611D01*
X157162654Y-80258933D01*
X157166354Y-80239022D01*
X157178273Y-80203369D01*
X157204199Y-80144655D01*
X157239080Y-80072922D01*
X157277869Y-79998212D01*
X157315515Y-79930565D01*
X157346647Y-79880491D01*
X157448458Y-79755828D01*
X157574487Y-79638200D01*
X157674285Y-79564092D01*
X157729354Y-79526879D01*
X157770755Y-79497726D01*
X157788872Y-79483513D01*
X157810104Y-79472915D01*
X157858839Y-79453693D01*
X157926313Y-79429224D01*
X157960751Y-79417300D01*
X158035823Y-79393246D01*
X158101944Y-79376886D01*
X158170644Y-79366528D01*
X158253451Y-79360481D01*
X158361897Y-79357054D01*
X158373107Y-79356820D01*
X158475740Y-79355083D01*
X158551018Y-79355842D01*
X158609772Y-79360755D01*
X158662830Y-79371480D01*
X158721025Y-79389676D01*
X158795188Y-79417000D01*
X158814838Y-79424445D01*
X158907584Y-79463101D01*
X158998826Y-79507060D01*
X159074973Y-79549523D01*
X159105745Y-79569961D01*
X159204944Y-79642781D01*
X159256043Y-79601987D01*
X159326795Y-79555351D01*
X159422441Y-79505641D01*
X159530655Y-79458364D01*
X159639109Y-79419023D01*
X159712333Y-79398241D01*
X159871130Y-79374033D01*
X160045706Y-79370786D01*
X160221321Y-79387630D01*
X160383234Y-79423692D01*
X160434574Y-79440929D01*
X160518438Y-79474835D01*
X160599984Y-79512259D01*
X160663613Y-79545966D01*
X160671605Y-79550856D01*
X160711761Y-79579609D01*
X160765261Y-79622477D01*
X160825811Y-79673811D01*
X160887114Y-79727962D01*
X160942877Y-79779283D01*
X160986803Y-79822123D01*
X161012598Y-79850834D01*
X161015944Y-79859837D01*
X161019773Y-79873985D01*
X161038126Y-79898032D01*
X161071940Y-79946405D01*
X161113551Y-80021046D01*
X161157979Y-80112230D01*
X161200241Y-80210230D01*
X161207871Y-80229473D01*
X161237410Y-80335231D01*
X161255978Y-80465519D01*
X161263220Y-80608179D01*
X161258782Y-80751052D01*
X161242310Y-80881979D01*
X161228617Y-80942233D01*
X161204273Y-81025950D01*
X161178190Y-81102160D01*
X161147929Y-81174046D01*
X161111050Y-81244793D01*
X161065112Y-81317586D01*
X161007676Y-81395609D01*
X160936302Y-81482047D01*
X160848550Y-81580082D01*
X160741980Y-81692901D01*
X160614151Y-81823688D01*
X160462625Y-81975626D01*
X160354460Y-82083082D01*
X160196753Y-82239021D01*
X160062829Y-82370180D01*
X159949615Y-82478939D01*
X159854034Y-82567673D01*
X159773010Y-82638759D01*
X159703468Y-82694576D01*
X159642333Y-82737500D01*
X159586528Y-82769907D01*
X159532978Y-82794176D01*
X159478607Y-82812684D01*
X159420340Y-82827807D01*
X159379137Y-82836902D01*
X159281154Y-82855053D01*
X159202094Y-82861497D01*
X159124518Y-82856221D01*
X159030987Y-82839212D01*
X159018975Y-82836623D01*
X158956313Y-82821932D01*
X158899417Y-82805225D01*
X158845144Y-82784084D01*
X158790348Y-82756092D01*
X158731885Y-82718830D01*
X158666608Y-82669879D01*
X158591374Y-82606823D01*
X158503036Y-82527243D01*
X158398451Y-82428720D01*
X158274473Y-82308837D01*
X158127957Y-82165176D01*
X158065032Y-82103171D01*
X157890965Y-81930604D01*
X157742488Y-81780966D01*
X157617229Y-81651168D01*
X157512815Y-81538118D01*
X157426874Y-81438728D01*
X157357034Y-81349907D01*
X157300921Y-81268566D01*
X157256163Y-81191614D01*
X157220388Y-81115963D01*
X157191223Y-81038521D01*
X157166296Y-80956200D01*
X157156725Y-80920221D01*
X157156147Y-80916992D01*
X157402776Y-80916992D01*
X157415854Y-80969511D01*
X157428924Y-81012593D01*
X157448074Y-81056973D01*
X157475591Y-81105363D01*
X157513761Y-81160472D01*
X157564869Y-81225013D01*
X157631202Y-81301694D01*
X157715046Y-81393228D01*
X157818687Y-81502325D01*
X157944411Y-81631695D01*
X158094503Y-81784050D01*
X158150156Y-81840220D01*
X158307286Y-81998287D01*
X158440479Y-82131305D01*
X158552390Y-82241643D01*
X158645672Y-82331671D01*
X158722981Y-82403758D01*
X158786970Y-82460275D01*
X158840294Y-82503591D01*
X158885606Y-82536075D01*
X158925562Y-82560098D01*
X158962816Y-82578029D01*
X158987496Y-82587782D01*
X159081879Y-82609224D01*
X159195983Y-82615417D01*
X159314679Y-82606745D01*
X159422840Y-82583592D01*
X159444885Y-82576168D01*
X159472124Y-82565213D01*
X159499606Y-82551271D01*
X159529993Y-82531918D01*
X159565947Y-82504736D01*
X159610131Y-82467300D01*
X159665205Y-82417191D01*
X159733833Y-82351987D01*
X159818676Y-82269266D01*
X159922398Y-82166607D01*
X160047659Y-82041589D01*
X160195493Y-81893423D01*
X160359566Y-81728241D01*
X160498375Y-81587048D01*
X160614115Y-81467282D01*
X160708981Y-81366383D01*
X160785167Y-81281788D01*
X160844868Y-81210938D01*
X160890279Y-81151270D01*
X160923595Y-81100224D01*
X160947011Y-81055238D01*
X160962721Y-81013751D01*
X160969064Y-80990710D01*
X160981281Y-80940292D01*
X160662698Y-80926239D01*
X160486161Y-80920587D01*
X160341308Y-80921464D01*
X160222027Y-80929894D01*
X160122206Y-80946902D01*
X160035731Y-80973512D01*
X159956492Y-81010747D01*
X159882184Y-81057009D01*
X159793316Y-81100975D01*
X159710076Y-81107894D01*
X159634159Y-81077830D01*
X159596473Y-81045902D01*
X159573093Y-81018171D01*
X159551940Y-80983156D01*
X159530753Y-80934969D01*
X159507267Y-80867725D01*
X159479222Y-80775539D01*
X159444353Y-80652523D01*
X159442011Y-80644090D01*
X159411788Y-80538746D01*
X159384237Y-80449327D01*
X159361125Y-80381050D01*
X159344221Y-80339132D01*
X159335293Y-80328790D01*
X159335189Y-80328977D01*
X159328471Y-80352675D01*
X159314781Y-80409463D01*
X159295077Y-80495066D01*
X159270320Y-80605211D01*
X159241470Y-80735626D01*
X159209485Y-80882035D01*
X159175326Y-81040167D01*
X159172036Y-81055488D01*
X159021401Y-81757368D01*
X158954196Y-81745248D01*
X158909809Y-81736730D01*
X158886859Y-81731329D01*
X158886042Y-81730887D01*
X158880848Y-81712694D01*
X158866788Y-81662852D01*
X158845303Y-81586488D01*
X158817835Y-81488732D01*
X158785827Y-81374712D01*
X158764572Y-81298947D01*
X158718606Y-81135231D01*
X158681290Y-81005057D01*
X158650746Y-80905251D01*
X158625094Y-80832641D01*
X158602455Y-80784054D01*
X158580948Y-80756315D01*
X158558695Y-80746252D01*
X158533816Y-80750691D01*
X158504431Y-80766460D01*
X158468661Y-80790385D01*
X158464874Y-80792959D01*
X158397501Y-80833497D01*
X158325791Y-80864598D01*
X158243686Y-80887351D01*
X158145126Y-80902847D01*
X158024052Y-80912175D01*
X157874405Y-80916424D01*
X157775241Y-80916992D01*
X157402776Y-80916992D01*
X157156147Y-80916992D01*
X157129291Y-80766934D01*
G37*
X175280000Y-39640000D02*
X176340000Y-39640000D01*
X175280000Y-40700000D02*
X175280000Y-39640000D01*
X175280000Y-41700000D02*
X175280000Y-47760000D01*
X175280000Y-41700000D02*
X177400000Y-41700000D01*
X175280000Y-47760000D02*
X177400000Y-47760000D01*
X177400000Y-41700000D02*
X177400000Y-47760000D01*
X152797000Y-84437000D02*
X152797000Y-81770000D01*
X152797000Y-79230000D02*
X152797000Y-41003000D01*
X152797000Y-41003000D02*
X147717000Y-41003000D01*
X150130000Y-81770000D02*
X152797000Y-81770000D01*
X150130000Y-79230000D02*
X152797000Y-79230000D01*
X150130000Y-79230000D02*
X150130000Y-81770000D01*
X150130000Y-79230000D02*
X150130000Y-43670000D01*
X150130000Y-43670000D02*
X152800000Y-43670000D01*
X147717000Y-38463000D02*
X147717000Y-41003000D01*
X147717000Y-38463000D02*
X139843000Y-38463000D01*
X139843000Y-41003000D02*
X134763000Y-41003000D01*
X139843000Y-38463000D02*
X139843000Y-41003000D01*
X137430000Y-81770000D02*
X137430000Y-43670000D01*
X137430000Y-81770000D02*
X134760000Y-81770000D01*
X137430000Y-43670000D02*
X134760000Y-43670000D01*
X134763000Y-84437000D02*
X152797000Y-84437000D01*
X134763000Y-41003000D02*
X134763000Y-84437000D01*
X150800000Y-93850000D02*
X150800000Y-95350000D01*
X152050000Y-97850000D02*
X156550000Y-97850000D01*
X156550000Y-91350000D02*
X152050000Y-91350000D01*
X157800000Y-95350000D02*
X157800000Y-93850000D01*
%LPC*%
D16*
X127820000Y-91010000D03*
D17*
X127820000Y-80850000D03*
D18*
X120420000Y-93870000D03*
D19*
X122960000Y-93870000D03*
X120420000Y-91330000D03*
X122960000Y-91330000D03*
X120420000Y-88790000D03*
X122960000Y-88790000D03*
X120420000Y-86250000D03*
X122960000Y-86250000D03*
X120420000Y-83710000D03*
X122960000Y-83710000D03*
X120420000Y-81170000D03*
X122960000Y-81170000D03*
X120420000Y-78630000D03*
X122960000Y-78630000D03*
X120420000Y-76090000D03*
X122960000Y-76090000D03*
X120420000Y-73550000D03*
X122960000Y-73550000D03*
X120420000Y-71010000D03*
X122960000Y-71010000D03*
X120420000Y-68470000D03*
X122960000Y-68470000D03*
X120420000Y-65930000D03*
X122960000Y-65930000D03*
X120420000Y-63390000D03*
X122960000Y-63390000D03*
X120420000Y-60850000D03*
X122960000Y-60850000D03*
X120420000Y-58310000D03*
X122960000Y-58310000D03*
X120420000Y-55770000D03*
X122960000Y-55770000D03*
X120420000Y-53230000D03*
X122960000Y-53230000D03*
X120420000Y-50690000D03*
X122960000Y-50690000D03*
X120420000Y-48150000D03*
X122960000Y-48150000D03*
X120420000Y-45610000D03*
X122960000Y-45610000D03*
D20*
X176270000Y-82830000D03*
D21*
X176270000Y-80830000D03*
X176270000Y-78830000D03*
X176270000Y-76830000D03*
D22*
X172860000Y-81180000D03*
D23*
X165240000Y-81180000D03*
D22*
X172910000Y-78730000D03*
D23*
X165290000Y-78730000D03*
D20*
X176350000Y-50180000D03*
D21*
X176350000Y-52180000D03*
X176350000Y-54180000D03*
D20*
X156500000Y-43100000D03*
D21*
X156500000Y-41100000D03*
X156500000Y-39100000D03*
D22*
X163590000Y-53450000D03*
D23*
X155970000Y-53450000D03*
D22*
X150490000Y-101000000D03*
D23*
X158110000Y-101000000D03*
D22*
X163590000Y-47150000D03*
D23*
X155970000Y-47150000D03*
D20*
X127540000Y-99870000D03*
D21*
X129540000Y-99870000D03*
X131540000Y-99870000D03*
X133540000Y-99870000D03*
D20*
X176350000Y-58300000D03*
D21*
X176350000Y-60300000D03*
X176350000Y-62300000D03*
D24*
X161400000Y-63200000D03*
D25*
X161400000Y-70800000D03*
D22*
X172690000Y-101100000D03*
D23*
X180310000Y-101100000D03*
D26*
X121920000Y-38100000D03*
X121920000Y-101600000D03*
D20*
X176330000Y-66720000D03*
D21*
X176330000Y-68720000D03*
X176330000Y-70720000D03*
D16*
X127740000Y-76920000D03*
D17*
X127740000Y-66760000D03*
D27*
X138270000Y-92980000D03*
D28*
X140770000Y-97980000D03*
X143270000Y-92980000D03*
D25*
X173050000Y-92350000D03*
X179550000Y-92350000D03*
X173050000Y-96850000D03*
X179550000Y-96850000D03*
D22*
X161590000Y-101000000D03*
D23*
X169210000Y-101000000D03*
D20*
X167430000Y-53140000D03*
D21*
X167430000Y-51140000D03*
X167430000Y-49140000D03*
X167430000Y-47140000D03*
D25*
X161950000Y-92350000D03*
X168450000Y-92350000D03*
X161950000Y-96850000D03*
X168450000Y-96850000D03*
D22*
X163590000Y-50300000D03*
D23*
X155970000Y-50300000D03*
D26*
X185420000Y-38100000D03*
X185420000Y-101600000D03*
D20*
X176340000Y-40700000D03*
D21*
X176340000Y-42700000D03*
X176340000Y-44700000D03*
X176340000Y-46700000D03*
D29*
X151400000Y-80500000D03*
D30*
X151400000Y-77960000D03*
X151400000Y-75420000D03*
X151400000Y-72880000D03*
X151400000Y-70340000D03*
X151400000Y-67800000D03*
X151400000Y-65260000D03*
X151400000Y-62720000D03*
X151400000Y-60180000D03*
X151400000Y-57640000D03*
X151400000Y-55100000D03*
X151400000Y-52560000D03*
X151400000Y-50020000D03*
X151400000Y-47480000D03*
X151400000Y-44940000D03*
X136160000Y-44940000D03*
X136160000Y-47480000D03*
X136160000Y-50020000D03*
X136160000Y-52560000D03*
X136160000Y-55100000D03*
X136160000Y-57640000D03*
X136160000Y-60180000D03*
X136160000Y-62720000D03*
X136160000Y-65260000D03*
X136160000Y-67800000D03*
X136160000Y-70340000D03*
X136160000Y-72880000D03*
X136160000Y-75420000D03*
X136160000Y-77960000D03*
X136160000Y-80500000D03*
D25*
X151050000Y-92350000D03*
X157550000Y-92350000D03*
X151050000Y-96850000D03*
X157550000Y-96850000D03*
M02*
