G04 #@! TF.GenerationSoftware,KiCad,Pcbnew,7.0.1*
G04 #@! TF.CreationDate,2023-05-22T18:49:14+02:00*
G04 #@! TF.ProjectId,carte_v2,63617274-655f-4763-922e-6b696361645f,rev?*
G04 #@! TF.SameCoordinates,Original*
G04 #@! TF.FileFunction,Copper,L1,Top*
G04 #@! TF.FilePolarity,Positive*
%FSLAX46Y46*%
G04 Gerber Fmt 4.6, Leading zero omitted, Abs format (unit mm)*
G04 Created by KiCad (PCBNEW 7.0.1) date 2023-05-22 18:49:14*
%MOMM*%
%LPD*%
G01*
G04 APERTURE LIST*
G04 #@! TA.AperFunction,ComponentPad*
%ADD10R,2.200000X2.200000*%
G04 #@! TD*
G04 #@! TA.AperFunction,ComponentPad*
%ADD11O,2.200000X2.200000*%
G04 #@! TD*
G04 #@! TA.AperFunction,ComponentPad*
%ADD12R,1.700000X1.700000*%
G04 #@! TD*
G04 #@! TA.AperFunction,ComponentPad*
%ADD13O,1.700000X1.700000*%
G04 #@! TD*
G04 #@! TA.AperFunction,ComponentPad*
%ADD14R,1.350000X1.350000*%
G04 #@! TD*
G04 #@! TA.AperFunction,ComponentPad*
%ADD15O,1.350000X1.350000*%
G04 #@! TD*
G04 #@! TA.AperFunction,ComponentPad*
%ADD16C,1.400000*%
G04 #@! TD*
G04 #@! TA.AperFunction,ComponentPad*
%ADD17O,1.400000X1.400000*%
G04 #@! TD*
G04 #@! TA.AperFunction,ComponentPad*
%ADD18R,2.000000X2.000000*%
G04 #@! TD*
G04 #@! TA.AperFunction,ComponentPad*
%ADD19C,2.000000*%
G04 #@! TD*
G04 #@! TA.AperFunction,ComponentPad*
%ADD20R,1.560000X1.560000*%
G04 #@! TD*
G04 #@! TA.AperFunction,ComponentPad*
%ADD21C,1.560000*%
G04 #@! TD*
G04 #@! TA.AperFunction,ComponentPad*
%ADD22R,1.600000X1.600000*%
G04 #@! TD*
G04 #@! TA.AperFunction,ComponentPad*
%ADD23O,1.600000X1.600000*%
G04 #@! TD*
G04 #@! TA.AperFunction,ViaPad*
%ADD24C,0.800000*%
G04 #@! TD*
G04 #@! TA.AperFunction,Conductor*
%ADD25C,0.800000*%
G04 #@! TD*
G04 #@! TA.AperFunction,Conductor*
%ADD26C,0.400000*%
G04 #@! TD*
G04 #@! TA.AperFunction,Conductor*
%ADD27C,0.250000*%
G04 #@! TD*
G04 APERTURE END LIST*
D10*
X127820000Y-91010000D03*
D11*
X127820000Y-80850000D03*
D12*
X120420000Y-93870000D03*
D13*
X122960000Y-93870000D03*
X120420000Y-91330000D03*
X122960000Y-91330000D03*
X120420000Y-88790000D03*
X122960000Y-88790000D03*
X120420000Y-86250000D03*
X122960000Y-86250000D03*
X120420000Y-83710000D03*
X122960000Y-83710000D03*
X120420000Y-81170000D03*
X122960000Y-81170000D03*
X120420000Y-78630000D03*
X122960000Y-78630000D03*
X120420000Y-76090000D03*
X122960000Y-76090000D03*
X120420000Y-73550000D03*
X122960000Y-73550000D03*
X120420000Y-71010000D03*
X122960000Y-71010000D03*
X120420000Y-68470000D03*
X122960000Y-68470000D03*
X120420000Y-65930000D03*
X122960000Y-65930000D03*
X120420000Y-63390000D03*
X122960000Y-63390000D03*
X120420000Y-60850000D03*
X122960000Y-60850000D03*
X120420000Y-58310000D03*
X122960000Y-58310000D03*
X120420000Y-55770000D03*
X122960000Y-55770000D03*
X120420000Y-53230000D03*
X122960000Y-53230000D03*
X120420000Y-50690000D03*
X122960000Y-50690000D03*
X120420000Y-48150000D03*
X122960000Y-48150000D03*
X120420000Y-45610000D03*
X122960000Y-45610000D03*
D14*
X176270000Y-82830000D03*
D15*
X176270000Y-80830000D03*
X176270000Y-78830000D03*
X176270000Y-76830000D03*
D16*
X172860000Y-81180000D03*
D17*
X165240000Y-81180000D03*
D16*
X172910000Y-78730000D03*
D17*
X165290000Y-78730000D03*
D14*
X176350000Y-50180000D03*
D15*
X176350000Y-52180000D03*
X176350000Y-54180000D03*
D14*
X156500000Y-43100000D03*
D15*
X156500000Y-41100000D03*
X156500000Y-39100000D03*
D16*
X163590000Y-53450000D03*
D17*
X155970000Y-53450000D03*
D16*
X150490000Y-101000000D03*
D17*
X158110000Y-101000000D03*
D16*
X163590000Y-47150000D03*
D17*
X155970000Y-47150000D03*
D14*
X127540000Y-99870000D03*
D15*
X129540000Y-99870000D03*
X131540000Y-99870000D03*
X133540000Y-99870000D03*
D14*
X176350000Y-58300000D03*
D15*
X176350000Y-60300000D03*
X176350000Y-62300000D03*
D18*
X161400000Y-63200000D03*
D19*
X161400000Y-70800000D03*
D16*
X172690000Y-101100000D03*
D17*
X180310000Y-101100000D03*
D14*
X176330000Y-66720000D03*
D15*
X176330000Y-68720000D03*
X176330000Y-70720000D03*
D10*
X127740000Y-76920000D03*
D11*
X127740000Y-66760000D03*
D20*
X138270000Y-92980000D03*
D21*
X140770000Y-97980000D03*
X143270000Y-92980000D03*
D19*
X173050000Y-92350000D03*
X179550000Y-92350000D03*
X173050000Y-96850000D03*
X179550000Y-96850000D03*
D16*
X161590000Y-101000000D03*
D17*
X169210000Y-101000000D03*
D14*
X167430000Y-53140000D03*
D15*
X167430000Y-51140000D03*
X167430000Y-49140000D03*
X167430000Y-47140000D03*
D19*
X161950000Y-92350000D03*
X168450000Y-92350000D03*
X161950000Y-96850000D03*
X168450000Y-96850000D03*
D16*
X163590000Y-50300000D03*
D17*
X155970000Y-50300000D03*
D14*
X176340000Y-40700000D03*
D15*
X176340000Y-42700000D03*
X176340000Y-44700000D03*
X176340000Y-46700000D03*
D22*
X151400000Y-80500000D03*
D23*
X151400000Y-77960000D03*
X151400000Y-75420000D03*
X151400000Y-72880000D03*
X151400000Y-70340000D03*
X151400000Y-67800000D03*
X151400000Y-65260000D03*
X151400000Y-62720000D03*
X151400000Y-60180000D03*
X151400000Y-57640000D03*
X151400000Y-55100000D03*
X151400000Y-52560000D03*
X151400000Y-50020000D03*
X151400000Y-47480000D03*
X151400000Y-44940000D03*
X136160000Y-44940000D03*
X136160000Y-47480000D03*
X136160000Y-50020000D03*
X136160000Y-52560000D03*
X136160000Y-55100000D03*
X136160000Y-57640000D03*
X136160000Y-60180000D03*
X136160000Y-62720000D03*
X136160000Y-65260000D03*
X136160000Y-67800000D03*
X136160000Y-70340000D03*
X136160000Y-72880000D03*
X136160000Y-75420000D03*
X136160000Y-77960000D03*
X136160000Y-80500000D03*
D19*
X151050000Y-92350000D03*
X157550000Y-92350000D03*
X151050000Y-96850000D03*
X157550000Y-96850000D03*
D24*
X125670000Y-83850000D03*
X131290000Y-78760000D03*
X130910000Y-82520000D03*
X161830000Y-56650000D03*
X132640000Y-78920000D03*
X142800000Y-51520000D03*
X142660000Y-67830000D03*
X146810000Y-67830000D03*
X156790000Y-65130000D03*
X144300000Y-77160500D03*
X145600000Y-77160500D03*
X133400000Y-77800000D03*
X140880000Y-77160000D03*
X140830000Y-81650000D03*
X144700000Y-75100000D03*
X149100000Y-70100000D03*
X149100000Y-67600000D03*
X149100000Y-62000000D03*
X145900000Y-75200000D03*
X151200000Y-83400000D03*
X158900000Y-73000000D03*
X158900000Y-70200000D03*
D25*
X129540000Y-99870000D02*
X129540000Y-97490000D01*
X129540000Y-97490000D02*
X125310000Y-93260000D01*
X125310000Y-93260000D02*
X125310000Y-90120000D01*
X125310000Y-90120000D02*
X123980000Y-88790000D01*
X123980000Y-88790000D02*
X122960000Y-88790000D01*
D26*
X135662943Y-79300000D02*
X136657057Y-79300000D01*
X133068629Y-77000000D02*
X133731371Y-77000000D01*
X134200000Y-77837057D02*
X135662943Y-79300000D01*
X131650000Y-77200000D02*
X132868629Y-77200000D01*
X132868629Y-77200000D02*
X133068629Y-77000000D01*
X130250000Y-75800000D02*
X131650000Y-77200000D01*
X130250000Y-64120000D02*
X130250000Y-75800000D01*
X126350000Y-64120000D02*
X130250000Y-64120000D01*
X134200000Y-77468629D02*
X134200000Y-77837057D01*
X151390000Y-80510000D02*
X151400000Y-80500000D01*
X133731371Y-77000000D02*
X134200000Y-77468629D01*
X124890000Y-65580000D02*
X126350000Y-64120000D01*
X124890000Y-81780000D02*
X124890000Y-65580000D01*
X122960000Y-83710000D02*
X124890000Y-81780000D01*
X136657057Y-79300000D02*
X137867057Y-80510000D01*
X137867057Y-80510000D02*
X151390000Y-80510000D01*
X129920000Y-86250000D02*
X129940000Y-86270000D01*
X122960000Y-86250000D02*
X129920000Y-86250000D01*
X129940000Y-86270000D02*
X129940000Y-78860000D01*
X129940000Y-78860000D02*
X131000000Y-77800000D01*
X125670000Y-83850000D02*
X125670000Y-68830000D01*
X125670000Y-68830000D02*
X127740000Y-66760000D01*
D25*
X132100000Y-90960000D02*
X132050000Y-91010000D01*
X132050000Y-91010000D02*
X127820000Y-91010000D01*
X129540000Y-99870000D02*
X131670000Y-102000000D01*
X130910000Y-79140000D02*
X131290000Y-78760000D01*
X130910000Y-82520000D02*
X130910000Y-79140000D01*
X132100000Y-90960000D02*
X132640000Y-91500000D01*
D26*
X154420000Y-63200000D02*
X151400000Y-60180000D01*
X161400000Y-63200000D02*
X154420000Y-63200000D01*
D25*
X158110000Y-101000000D02*
X160010000Y-102900000D01*
X169940000Y-58270000D02*
X169940000Y-62260000D01*
X161830000Y-56650000D02*
X169940000Y-56650000D01*
X178510000Y-102900000D02*
X180310000Y-101100000D01*
X169940000Y-56650000D02*
X169940000Y-58270000D01*
X175760000Y-83340000D02*
X156250000Y-83340000D01*
X169940000Y-62260000D02*
X161400000Y-70800000D01*
D27*
X162260000Y-70800000D02*
X161400000Y-70800000D01*
D25*
X176350000Y-58300000D02*
X172850000Y-58300000D01*
D27*
X161400000Y-70800000D02*
X161400000Y-70720000D01*
D25*
X161400000Y-70800000D02*
X161400000Y-77410000D01*
X156250000Y-83340000D02*
X155860000Y-82950000D01*
X176330000Y-70720000D02*
X169940000Y-64330000D01*
X169940000Y-64330000D02*
X169940000Y-62260000D01*
X145830000Y-98900000D02*
X145830000Y-92980000D01*
X131670000Y-102000000D02*
X142730000Y-102000000D01*
X167430000Y-49140000D02*
X169940000Y-51650000D01*
X176340000Y-46700000D02*
X172850000Y-50190000D01*
X171110000Y-102900000D02*
X178510000Y-102900000D01*
X167310000Y-102900000D02*
X169210000Y-101000000D01*
X152780000Y-71500000D02*
X151400000Y-72880000D01*
X142730000Y-102000000D02*
X145830000Y-98900000D01*
X172850000Y-58300000D02*
X169970000Y-58300000D01*
X176270000Y-82830000D02*
X182400000Y-88960000D01*
X176270000Y-82830000D02*
X175760000Y-83340000D01*
X172850000Y-50190000D02*
X172850000Y-58300000D01*
X160700000Y-71500000D02*
X152780000Y-71500000D01*
X182400000Y-88960000D02*
X182400000Y-99010000D01*
X161400000Y-77410000D02*
X155860000Y-82950000D01*
X145830000Y-92980000D02*
X143270000Y-92980000D01*
X182400000Y-99010000D02*
X180310000Y-101100000D01*
D27*
X161400000Y-70720000D02*
X161360000Y-70680000D01*
D25*
X160010000Y-102900000D02*
X167310000Y-102900000D01*
X155860000Y-82950000D02*
X145830000Y-92980000D01*
X169970000Y-58300000D02*
X169940000Y-58270000D01*
X161400000Y-70800000D02*
X160700000Y-71500000D01*
X176350000Y-54180000D02*
X176350000Y-58300000D01*
X169210000Y-101000000D02*
X171110000Y-102900000D01*
X151400000Y-72880000D02*
X146120000Y-78160000D01*
X169940000Y-51650000D02*
X169940000Y-56650000D01*
X136360000Y-78160000D02*
X136160000Y-77960000D01*
X146120000Y-78160000D02*
X136360000Y-78160000D01*
X173050000Y-92350000D02*
X170700000Y-90000000D01*
X132640000Y-91500000D02*
X134120000Y-92980000D01*
X134120000Y-92980000D02*
X138270000Y-92980000D01*
X133110000Y-69830000D02*
X136160000Y-72880000D01*
X170700000Y-90000000D02*
X164300000Y-90000000D01*
X159600000Y-90000000D02*
X161950000Y-92350000D01*
X164300000Y-90000000D02*
X161950000Y-92350000D01*
X154000000Y-40600000D02*
X154000000Y-36920000D01*
X176340000Y-40700000D02*
X172560000Y-36920000D01*
X151050000Y-92350000D02*
X153400000Y-90000000D01*
X172560000Y-36920000D02*
X154000000Y-36920000D01*
X154000000Y-36920000D02*
X133110000Y-36920000D01*
X132640000Y-91500000D02*
X132640000Y-78920000D01*
X133110000Y-36920000D02*
X133110000Y-69830000D01*
X156500000Y-43100000D02*
X154000000Y-40600000D01*
X153400000Y-90000000D02*
X159600000Y-90000000D01*
X176330000Y-68720000D02*
X178360000Y-70750000D01*
X176350000Y-60300000D02*
X178440000Y-60300000D01*
X178360000Y-74740000D02*
X176270000Y-76830000D01*
X178440000Y-67130000D02*
X176850000Y-68720000D01*
X176350000Y-52180000D02*
X178440000Y-54270000D01*
X167190000Y-76830000D02*
X176270000Y-76830000D01*
D26*
X165290000Y-81130000D02*
X165240000Y-81180000D01*
D25*
X165290000Y-78730000D02*
X165290000Y-81130000D01*
X176850000Y-68720000D02*
X176330000Y-68720000D01*
X178440000Y-60300000D02*
X178440000Y-62390000D01*
X178360000Y-70750000D02*
X178360000Y-74740000D01*
X165290000Y-78730000D02*
X167190000Y-76830000D01*
X178440000Y-54270000D02*
X178440000Y-62390000D01*
X178440000Y-62390000D02*
X178440000Y-67130000D01*
D26*
X142800000Y-51520000D02*
X142800000Y-58860000D01*
X142800000Y-58860000D02*
X141480000Y-60180000D01*
X141480000Y-60180000D02*
X136160000Y-60180000D01*
X149960000Y-46140000D02*
X149530000Y-46570000D01*
X149530000Y-60850000D02*
X151400000Y-62720000D01*
X152600000Y-45437057D02*
X151897057Y-46140000D01*
X176340000Y-42700000D02*
X173602943Y-45437057D01*
X173602943Y-45437057D02*
X152600000Y-45437057D01*
X151897057Y-46140000D02*
X149960000Y-46140000D01*
X149530000Y-46570000D02*
X149530000Y-60850000D01*
X146810000Y-67830000D02*
X142660000Y-67830000D01*
X156790000Y-65130000D02*
X154120000Y-67800000D01*
X154120000Y-67800000D02*
X151400000Y-67800000D01*
X141940000Y-74800500D02*
X141940000Y-71040000D01*
X172860000Y-81180000D02*
X175920000Y-81180000D01*
X141940000Y-71040000D02*
X136160000Y-65260000D01*
X144300000Y-77160500D02*
X141940000Y-74800500D01*
X175920000Y-81180000D02*
X176270000Y-80830000D01*
D25*
X172910000Y-78730000D02*
X172910000Y-78660000D01*
D26*
X176170000Y-78730000D02*
X176270000Y-78830000D01*
X143010000Y-69570000D02*
X136160000Y-62720000D01*
D25*
X172910000Y-78660000D02*
X172950000Y-78620000D01*
D26*
X145600000Y-77160500D02*
X143010000Y-74570500D01*
X143010000Y-74570500D02*
X143010000Y-69570000D01*
X172910000Y-78730000D02*
X176170000Y-78730000D01*
D27*
X167120000Y-53450000D02*
X167430000Y-53140000D01*
D26*
X163590000Y-53450000D02*
X167120000Y-53450000D01*
X163590000Y-50300000D02*
X166590000Y-50300000D01*
X166590000Y-50300000D02*
X167430000Y-51140000D01*
X131000000Y-77800000D02*
X133400000Y-77800000D01*
D27*
X167420000Y-47150000D02*
X167430000Y-47140000D01*
D26*
X163590000Y-47150000D02*
X167420000Y-47150000D01*
X155970000Y-53450000D02*
X152290000Y-53450000D01*
X152290000Y-53450000D02*
X151400000Y-52560000D01*
D27*
X151680000Y-50300000D02*
X151400000Y-50020000D01*
D26*
X155970000Y-50300000D02*
X151680000Y-50300000D01*
D27*
X156060000Y-47150000D02*
X155730000Y-47480000D01*
X155970000Y-47150000D02*
X156060000Y-47150000D01*
D26*
X155730000Y-47480000D02*
X151400000Y-47480000D01*
X151050000Y-100440000D02*
X150490000Y-101000000D01*
X151050000Y-96850000D02*
X151050000Y-100440000D01*
X161950000Y-100640000D02*
X161590000Y-101000000D01*
X161950000Y-96850000D02*
X161950000Y-100640000D01*
X173050000Y-100740000D02*
X172690000Y-101100000D01*
X173050000Y-96850000D02*
X173050000Y-100740000D01*
X140770000Y-81710000D02*
X140830000Y-81650000D01*
X140770000Y-97980000D02*
X140770000Y-81710000D01*
X140880000Y-77160000D02*
X140880000Y-75060000D01*
X140880000Y-75060000D02*
X136160000Y-70340000D01*
X150200000Y-67800000D02*
X150200000Y-65300000D01*
X144700000Y-75100000D02*
X144700000Y-73300000D01*
X150200000Y-65300000D02*
X150240000Y-65260000D01*
X144700000Y-73300000D02*
X150200000Y-67800000D01*
X150240000Y-65260000D02*
X151400000Y-65260000D01*
X145900000Y-73300000D02*
X145900000Y-75200000D01*
X149100000Y-70100000D02*
X145900000Y-73300000D01*
X149100000Y-67600000D02*
X149100000Y-62000000D01*
X160400000Y-60500000D02*
X155000000Y-55100000D01*
X163700000Y-65400000D02*
X163700000Y-61600000D01*
X158900000Y-73000000D02*
X153900000Y-78000000D01*
X158900000Y-70200000D02*
X163700000Y-65400000D01*
X153900000Y-78000000D02*
X153900000Y-83400000D01*
X162600000Y-60500000D02*
X160400000Y-60500000D01*
X163700000Y-61600000D02*
X162600000Y-60500000D01*
X153900000Y-83400000D02*
X151200000Y-83400000D01*
X155000000Y-55100000D02*
X151400000Y-55100000D01*
G04 #@! TA.AperFunction,Conductor*
G36*
X153085148Y-37834852D02*
G01*
X153099500Y-37869500D01*
X153099500Y-40525274D01*
X153098897Y-40532938D01*
X153095781Y-40552611D01*
X153099433Y-40622302D01*
X153099500Y-40624866D01*
X153099500Y-40647192D01*
X153101521Y-40666428D01*
X153101833Y-40669396D01*
X153102034Y-40671951D01*
X153105687Y-40741646D01*
X153110842Y-40760883D01*
X153112242Y-40768441D01*
X153114325Y-40788253D01*
X153135889Y-40854623D01*
X153136617Y-40857081D01*
X153154679Y-40924487D01*
X153163722Y-40942233D01*
X153166664Y-40949334D01*
X153172821Y-40968284D01*
X153172822Y-40968285D01*
X153207714Y-41028720D01*
X153208921Y-41030943D01*
X153240062Y-41092061D01*
X153240618Y-41093151D01*
X153253152Y-41108628D01*
X153257508Y-41114966D01*
X153267467Y-41132216D01*
X153314161Y-41184076D01*
X153315826Y-41186025D01*
X153329881Y-41203381D01*
X153345666Y-41219165D01*
X153347432Y-41221026D01*
X153394129Y-41272888D01*
X153410251Y-41284601D01*
X153416091Y-41289590D01*
X155310148Y-43183648D01*
X155324500Y-43218296D01*
X155324500Y-43822874D01*
X155330908Y-43882481D01*
X155381204Y-44017332D01*
X155424329Y-44074938D01*
X155467454Y-44132546D01*
X155544406Y-44190152D01*
X155582667Y-44218795D01*
X155582668Y-44218795D01*
X155582669Y-44218796D01*
X155717517Y-44269091D01*
X155777127Y-44275500D01*
X157222872Y-44275499D01*
X157222874Y-44275499D01*
X157252677Y-44272294D01*
X157282483Y-44269091D01*
X157417331Y-44218796D01*
X157532546Y-44132546D01*
X157618796Y-44017331D01*
X157669091Y-43882483D01*
X157675500Y-43822873D01*
X157675499Y-42377128D01*
X157669091Y-42317517D01*
X157618796Y-42182669D01*
X157532546Y-42067454D01*
X157417331Y-41981204D01*
X157410204Y-41978546D01*
X157392801Y-41972054D01*
X157369308Y-41953551D01*
X157360943Y-41924840D01*
X157370823Y-41896615D01*
X157503285Y-41721207D01*
X157600349Y-41526276D01*
X157650505Y-41350000D01*
X156299000Y-41350000D01*
X156264352Y-41335648D01*
X156250000Y-41301000D01*
X156250000Y-40899000D01*
X156264352Y-40864352D01*
X156299000Y-40850000D01*
X157650505Y-40850000D01*
X157650505Y-40849999D01*
X157600349Y-40673723D01*
X157503285Y-40478792D01*
X157372057Y-40305016D01*
X157211126Y-40158311D01*
X157184708Y-40141954D01*
X157164289Y-40116579D01*
X157164290Y-40084008D01*
X157184707Y-40058635D01*
X157211432Y-40042088D01*
X157372427Y-39895322D01*
X157503712Y-39721472D01*
X157600817Y-39526459D01*
X157601375Y-39524500D01*
X157660434Y-39316925D01*
X157660435Y-39316923D01*
X157680536Y-39100000D01*
X157660435Y-38883077D01*
X157625012Y-38758577D01*
X157600818Y-38673543D01*
X157503712Y-38478528D01*
X157372428Y-38304678D01*
X157291803Y-38231180D01*
X157211432Y-38157912D01*
X157026210Y-38043228D01*
X157026208Y-38043227D01*
X156924639Y-38003879D01*
X156823069Y-37964530D01*
X156608926Y-37924500D01*
X156391074Y-37924500D01*
X156176931Y-37964530D01*
X156176928Y-37964530D01*
X156176928Y-37964531D01*
X155973791Y-38043227D01*
X155788568Y-38157912D01*
X155627571Y-38304678D01*
X155496287Y-38478528D01*
X155399181Y-38673543D01*
X155339565Y-38883074D01*
X155319463Y-39099999D01*
X155339565Y-39316925D01*
X155399181Y-39526456D01*
X155496287Y-39721471D01*
X155627571Y-39895321D01*
X155788569Y-40042089D01*
X155815290Y-40058634D01*
X155835709Y-40084009D01*
X155835709Y-40116579D01*
X155815290Y-40141954D01*
X155788873Y-40158311D01*
X155627942Y-40305016D01*
X155496714Y-40478792D01*
X155412578Y-40647761D01*
X155391229Y-40669441D01*
X155361199Y-40674340D01*
X155334067Y-40660568D01*
X154914852Y-40241353D01*
X154900500Y-40206705D01*
X154900500Y-37869500D01*
X154914852Y-37834852D01*
X154949500Y-37820500D01*
X172166705Y-37820500D01*
X172201353Y-37834852D01*
X175150148Y-40783647D01*
X175164500Y-40818295D01*
X175164500Y-41422874D01*
X175170908Y-41482481D01*
X175221204Y-41617332D01*
X175264328Y-41674938D01*
X175307454Y-41732546D01*
X175373343Y-41781870D01*
X175422668Y-41818796D01*
X175446706Y-41827761D01*
X175470201Y-41846263D01*
X175478567Y-41874975D01*
X175468687Y-41903201D01*
X175336287Y-42078528D01*
X175239181Y-42273543D01*
X175179565Y-42483074D01*
X175159463Y-42700000D01*
X175173443Y-42850872D01*
X175170740Y-42872034D01*
X175159300Y-42890041D01*
X173327138Y-44722205D01*
X173311242Y-44732827D01*
X173292490Y-44736557D01*
X152729464Y-44736557D01*
X152699635Y-44726431D01*
X152682134Y-44700239D01*
X152626739Y-44493505D01*
X152621876Y-44483077D01*
X152530568Y-44287266D01*
X152400047Y-44100861D01*
X152400046Y-44100860D01*
X152400044Y-44100857D01*
X152239142Y-43939955D01*
X152052731Y-43809430D01*
X151846495Y-43713260D01*
X151626696Y-43654365D01*
X151445338Y-43638498D01*
X151400000Y-43634532D01*
X151399999Y-43634532D01*
X151173303Y-43654365D01*
X150953504Y-43713260D01*
X150747268Y-43809430D01*
X150560857Y-43939955D01*
X150399955Y-44100857D01*
X150269430Y-44287268D01*
X150173260Y-44493504D01*
X150114365Y-44713303D01*
X150094532Y-44939999D01*
X150114365Y-45166696D01*
X150170935Y-45377818D01*
X150169650Y-45407259D01*
X150151710Y-45430638D01*
X150123605Y-45439500D01*
X149982657Y-45439500D01*
X149979698Y-45439411D01*
X149917394Y-45435642D01*
X149856006Y-45446891D01*
X149853081Y-45447336D01*
X149791127Y-45454859D01*
X149775287Y-45460867D01*
X149766746Y-45463248D01*
X149750068Y-45466304D01*
X149693162Y-45491916D01*
X149690428Y-45493048D01*
X149632072Y-45515180D01*
X149618116Y-45524813D01*
X149610395Y-45529167D01*
X149594944Y-45536121D01*
X149545821Y-45574605D01*
X149543440Y-45576357D01*
X149492070Y-45611817D01*
X149450685Y-45658530D01*
X149448657Y-45660684D01*
X149050684Y-46058657D01*
X149048530Y-46060685D01*
X149001817Y-46102070D01*
X148966358Y-46153438D01*
X148964606Y-46155819D01*
X148926121Y-46204943D01*
X148919166Y-46220396D01*
X148914811Y-46228118D01*
X148905182Y-46242067D01*
X148883051Y-46300422D01*
X148881918Y-46303156D01*
X148856304Y-46360068D01*
X148853248Y-46376745D01*
X148850867Y-46385287D01*
X148844859Y-46401127D01*
X148837338Y-46463065D01*
X148836893Y-46465989D01*
X148825642Y-46527393D01*
X148829411Y-46589698D01*
X148829500Y-46592657D01*
X148829500Y-60827343D01*
X148829411Y-60830302D01*
X148827304Y-60865140D01*
X148825642Y-60892606D01*
X148830931Y-60921471D01*
X148836891Y-60953993D01*
X148837336Y-60956918D01*
X148844860Y-61018874D01*
X148850867Y-61034715D01*
X148853248Y-61043255D01*
X148856304Y-61059932D01*
X148860635Y-61069554D01*
X148864230Y-61098043D01*
X148851246Y-61123655D01*
X148826140Y-61137592D01*
X148824344Y-61137974D01*
X148820199Y-61138855D01*
X148647268Y-61215849D01*
X148494128Y-61327112D01*
X148367467Y-61467783D01*
X148272822Y-61631713D01*
X148214326Y-61811743D01*
X148198989Y-61957667D01*
X148194540Y-62000000D01*
X148214326Y-62188256D01*
X148267369Y-62351506D01*
X148272822Y-62368286D01*
X148359603Y-62518596D01*
X148367467Y-62532216D01*
X148386915Y-62553815D01*
X148399500Y-62586602D01*
X148399500Y-67013398D01*
X148386915Y-67046185D01*
X148367465Y-67067786D01*
X148272822Y-67231713D01*
X148214326Y-67411743D01*
X148194687Y-67598596D01*
X148194540Y-67600000D01*
X148214326Y-67788256D01*
X148258652Y-67924678D01*
X148272822Y-67968286D01*
X148367467Y-68132216D01*
X148470364Y-68246495D01*
X148494129Y-68272888D01*
X148505941Y-68281470D01*
X148588067Y-68341138D01*
X148605011Y-68363220D01*
X148607195Y-68390968D01*
X148593914Y-68415428D01*
X144220684Y-72788657D01*
X144218530Y-72790685D01*
X144171817Y-72832070D01*
X144136358Y-72883438D01*
X144134606Y-72885819D01*
X144096121Y-72934943D01*
X144089166Y-72950396D01*
X144084811Y-72958118D01*
X144075182Y-72972067D01*
X144053051Y-73030422D01*
X144051918Y-73033156D01*
X144026304Y-73090068D01*
X144023248Y-73106745D01*
X144020867Y-73115287D01*
X144014859Y-73131127D01*
X144007338Y-73193065D01*
X144006893Y-73195989D01*
X143995642Y-73257393D01*
X143999411Y-73319698D01*
X143999500Y-73322657D01*
X143999500Y-74451047D01*
X143985148Y-74485695D01*
X143950500Y-74500047D01*
X143915852Y-74485695D01*
X143724852Y-74294695D01*
X143710500Y-74260047D01*
X143710500Y-69592657D01*
X143710589Y-69589698D01*
X143711394Y-69576388D01*
X143714358Y-69527394D01*
X143703104Y-69465987D01*
X143702661Y-69463076D01*
X143701923Y-69457001D01*
X143695140Y-69401128D01*
X143694152Y-69398524D01*
X143689131Y-69385285D01*
X143686751Y-69376747D01*
X143683695Y-69360069D01*
X143683694Y-69360066D01*
X143658077Y-69303148D01*
X143656944Y-69300413D01*
X143634818Y-69242070D01*
X143625190Y-69228122D01*
X143620833Y-69220395D01*
X143613879Y-69204944D01*
X143575387Y-69155813D01*
X143573633Y-69153429D01*
X143538183Y-69102071D01*
X143491469Y-69060686D01*
X143489314Y-69058657D01*
X143113957Y-68683300D01*
X143100676Y-68658839D01*
X143102860Y-68631092D01*
X143119801Y-68609013D01*
X143214985Y-68539858D01*
X143243787Y-68530500D01*
X146226213Y-68530500D01*
X146255014Y-68539858D01*
X146357268Y-68614150D01*
X146357269Y-68614150D01*
X146357270Y-68614151D01*
X146530197Y-68691144D01*
X146622775Y-68710821D01*
X146715353Y-68730500D01*
X146715354Y-68730500D01*
X146904646Y-68730500D01*
X146904647Y-68730500D01*
X146966364Y-68717381D01*
X147089803Y-68691144D01*
X147262730Y-68614151D01*
X147415871Y-68502888D01*
X147542533Y-68362216D01*
X147637179Y-68198284D01*
X147695674Y-68018256D01*
X147715460Y-67830000D01*
X147695674Y-67641744D01*
X147637179Y-67461716D01*
X147542533Y-67297784D01*
X147415871Y-67157112D01*
X147364986Y-67120142D01*
X147262731Y-67045849D01*
X147089801Y-66968855D01*
X146904647Y-66929500D01*
X146904646Y-66929500D01*
X146715354Y-66929500D01*
X146715353Y-66929500D01*
X146530198Y-66968855D01*
X146357268Y-67045849D01*
X146255014Y-67120142D01*
X146226213Y-67129500D01*
X143243787Y-67129500D01*
X143214986Y-67120142D01*
X143112731Y-67045849D01*
X142939801Y-66968855D01*
X142754647Y-66929500D01*
X142754646Y-66929500D01*
X142565354Y-66929500D01*
X142565353Y-66929500D01*
X142380198Y-66968855D01*
X142207268Y-67045849D01*
X142054128Y-67157112D01*
X141927468Y-67297782D01*
X141886546Y-67368659D01*
X141864819Y-67388567D01*
X141835602Y-67392414D01*
X141809463Y-67378806D01*
X137451208Y-63020551D01*
X137438525Y-62998584D01*
X137438525Y-62973222D01*
X137445635Y-62946692D01*
X137465468Y-62720000D01*
X137445635Y-62493308D01*
X137431204Y-62439452D01*
X137386739Y-62273504D01*
X137290569Y-62067268D01*
X137260297Y-62024035D01*
X137160047Y-61880861D01*
X137160046Y-61880860D01*
X137160044Y-61880857D01*
X136999142Y-61719955D01*
X136873122Y-61631716D01*
X136812734Y-61589432D01*
X136722843Y-61547515D01*
X136608957Y-61494408D01*
X136584128Y-61468090D01*
X136584128Y-61431908D01*
X136608956Y-61405591D01*
X136812734Y-61310568D01*
X136999139Y-61180047D01*
X137160047Y-61019139D01*
X137242491Y-60901394D01*
X137260004Y-60886037D01*
X137282630Y-60880500D01*
X141457343Y-60880500D01*
X141460302Y-60880589D01*
X141522606Y-60884358D01*
X141584017Y-60873103D01*
X141586908Y-60872663D01*
X141636561Y-60866634D01*
X141648873Y-60865140D01*
X141655177Y-60862748D01*
X141664711Y-60859132D01*
X141673245Y-60856752D01*
X141689932Y-60853695D01*
X141746871Y-60828067D01*
X141749570Y-60826950D01*
X141791477Y-60811057D01*
X141807928Y-60804819D01*
X141807928Y-60804818D01*
X141807930Y-60804818D01*
X141821882Y-60795186D01*
X141829595Y-60790835D01*
X141845057Y-60783878D01*
X141894201Y-60745374D01*
X141896541Y-60743653D01*
X141947929Y-60708183D01*
X141989329Y-60661450D01*
X141991324Y-60659331D01*
X143279331Y-59371324D01*
X143281450Y-59369329D01*
X143328183Y-59327929D01*
X143363653Y-59276541D01*
X143365382Y-59274192D01*
X143389642Y-59243228D01*
X143403878Y-59225057D01*
X143410835Y-59209595D01*
X143415186Y-59201882D01*
X143424818Y-59187930D01*
X143446944Y-59129586D01*
X143448077Y-59126849D01*
X143473695Y-59069931D01*
X143476752Y-59053245D01*
X143479132Y-59044711D01*
X143485140Y-59028872D01*
X143492663Y-58966907D01*
X143493103Y-58964016D01*
X143504358Y-58902606D01*
X143500589Y-58840302D01*
X143500500Y-58837343D01*
X143500500Y-52106602D01*
X143513085Y-52073815D01*
X143532533Y-52052216D01*
X143627179Y-51888284D01*
X143685674Y-51708256D01*
X143705460Y-51520000D01*
X143685674Y-51331744D01*
X143627179Y-51151716D01*
X143532533Y-50987784D01*
X143405871Y-50847112D01*
X143303234Y-50772542D01*
X143252731Y-50735849D01*
X143079801Y-50658855D01*
X142894647Y-50619500D01*
X142894646Y-50619500D01*
X142705354Y-50619500D01*
X142705353Y-50619500D01*
X142520198Y-50658855D01*
X142347268Y-50735849D01*
X142194128Y-50847112D01*
X142067467Y-50987783D01*
X141972822Y-51151713D01*
X141914326Y-51331743D01*
X141894540Y-51520000D01*
X141914326Y-51708256D01*
X141972822Y-51888286D01*
X142044385Y-52012238D01*
X142067467Y-52052216D01*
X142086915Y-52073815D01*
X142099500Y-52106602D01*
X142099500Y-58549547D01*
X142085148Y-58584195D01*
X141204195Y-59465148D01*
X141169547Y-59479500D01*
X137282630Y-59479500D01*
X137260004Y-59473963D01*
X137242491Y-59458605D01*
X137240969Y-59456432D01*
X137160047Y-59340861D01*
X137160046Y-59340860D01*
X137160044Y-59340857D01*
X136999142Y-59179955D01*
X136812731Y-59049430D01*
X136608958Y-58954409D01*
X136584128Y-58928091D01*
X136584128Y-58891909D01*
X136608958Y-58865591D01*
X136663190Y-58840302D01*
X136812734Y-58770568D01*
X136999139Y-58640047D01*
X137160047Y-58479139D01*
X137290568Y-58292734D01*
X137386739Y-58086496D01*
X137445635Y-57866692D01*
X137465468Y-57640000D01*
X137445635Y-57413308D01*
X137437489Y-57382908D01*
X137386739Y-57193504D01*
X137290569Y-56987268D01*
X137260297Y-56944035D01*
X137160047Y-56800861D01*
X137160046Y-56800860D01*
X137160044Y-56800857D01*
X136999142Y-56639955D01*
X136812731Y-56509430D01*
X136608958Y-56414409D01*
X136584128Y-56388091D01*
X136584128Y-56351909D01*
X136608958Y-56325591D01*
X136637167Y-56312437D01*
X136812734Y-56230568D01*
X136999139Y-56100047D01*
X137160047Y-55939139D01*
X137290568Y-55752734D01*
X137386739Y-55546496D01*
X137445635Y-55326692D01*
X137465468Y-55100000D01*
X137445635Y-54873308D01*
X137407639Y-54731506D01*
X137386739Y-54653504D01*
X137290569Y-54447268D01*
X137265961Y-54412124D01*
X137160047Y-54260861D01*
X137160046Y-54260860D01*
X137160044Y-54260857D01*
X136999142Y-54099955D01*
X136812731Y-53969430D01*
X136608958Y-53874409D01*
X136584128Y-53848091D01*
X136584128Y-53811909D01*
X136608958Y-53785591D01*
X136660895Y-53761372D01*
X136812734Y-53690568D01*
X136999139Y-53560047D01*
X137160047Y-53399139D01*
X137290568Y-53212734D01*
X137386739Y-53006496D01*
X137445635Y-52786692D01*
X137465468Y-52560000D01*
X137445635Y-52333308D01*
X137434133Y-52290383D01*
X137386739Y-52113504D01*
X137290569Y-51907268D01*
X137277276Y-51888284D01*
X137160047Y-51720861D01*
X137160046Y-51720860D01*
X137160044Y-51720857D01*
X136999142Y-51559955D01*
X136812731Y-51429430D01*
X136608958Y-51334409D01*
X136584128Y-51308091D01*
X136584128Y-51271909D01*
X136608958Y-51245591D01*
X136637167Y-51232437D01*
X136812734Y-51150568D01*
X136999139Y-51020047D01*
X137160047Y-50859139D01*
X137290568Y-50672734D01*
X137386739Y-50466496D01*
X137445635Y-50246692D01*
X137465468Y-50020000D01*
X137445635Y-49793308D01*
X137413983Y-49675182D01*
X137386739Y-49573504D01*
X137290569Y-49367268D01*
X137260297Y-49324035D01*
X137160047Y-49180861D01*
X137160046Y-49180860D01*
X137160044Y-49180857D01*
X136999142Y-49019955D01*
X136812731Y-48889430D01*
X136608958Y-48794409D01*
X136584128Y-48768091D01*
X136584128Y-48731909D01*
X136608958Y-48705591D01*
X136637167Y-48692437D01*
X136812734Y-48610568D01*
X136999139Y-48480047D01*
X137160047Y-48319139D01*
X137290568Y-48132734D01*
X137386739Y-47926496D01*
X137445635Y-47706692D01*
X137465468Y-47480000D01*
X137445635Y-47253308D01*
X137415274Y-47140000D01*
X137386739Y-47033504D01*
X137290569Y-46827268D01*
X137260297Y-46784035D01*
X137160047Y-46640861D01*
X137160046Y-46640860D01*
X137160044Y-46640857D01*
X136999142Y-46479955D01*
X136812731Y-46349430D01*
X136608958Y-46254409D01*
X136584128Y-46228091D01*
X136584128Y-46191909D01*
X136608958Y-46165591D01*
X136638436Y-46151845D01*
X136812734Y-46070568D01*
X136999139Y-45940047D01*
X137160047Y-45779139D01*
X137290568Y-45592734D01*
X137386739Y-45386496D01*
X137445635Y-45166692D01*
X137465468Y-44940000D01*
X137445635Y-44713308D01*
X137442133Y-44700239D01*
X137386739Y-44493504D01*
X137290569Y-44287268D01*
X137282328Y-44275499D01*
X137160047Y-44100861D01*
X137160046Y-44100860D01*
X137160044Y-44100857D01*
X136999142Y-43939955D01*
X136812731Y-43809430D01*
X136606495Y-43713260D01*
X136386696Y-43654365D01*
X136205338Y-43638498D01*
X136160000Y-43634532D01*
X136159999Y-43634532D01*
X135933303Y-43654365D01*
X135713504Y-43713260D01*
X135507268Y-43809430D01*
X135320857Y-43939955D01*
X135159955Y-44100857D01*
X135029430Y-44287268D01*
X134933260Y-44493504D01*
X134874365Y-44713303D01*
X134854532Y-44939999D01*
X134874365Y-45166696D01*
X134933260Y-45386495D01*
X135029430Y-45592731D01*
X135159955Y-45779142D01*
X135320857Y-45940044D01*
X135320860Y-45940046D01*
X135320861Y-45940047D01*
X135507266Y-46070568D01*
X135507267Y-46070568D01*
X135507268Y-46070569D01*
X135711041Y-46165591D01*
X135735871Y-46191909D01*
X135735871Y-46228091D01*
X135711041Y-46254409D01*
X135507268Y-46349430D01*
X135320857Y-46479955D01*
X135159955Y-46640857D01*
X135029430Y-46827268D01*
X134933260Y-47033504D01*
X134874365Y-47253303D01*
X134854532Y-47480000D01*
X134874365Y-47706696D01*
X134933260Y-47926495D01*
X135029430Y-48132731D01*
X135029431Y-48132733D01*
X135029432Y-48132734D01*
X135075349Y-48198311D01*
X135159955Y-48319142D01*
X135320857Y-48480044D01*
X135320860Y-48480046D01*
X135320861Y-48480047D01*
X135507266Y-48610568D01*
X135507267Y-48610568D01*
X135507268Y-48610569D01*
X135711041Y-48705591D01*
X135735871Y-48731909D01*
X135735871Y-48768091D01*
X135711041Y-48794409D01*
X135507268Y-48889430D01*
X135320857Y-49019955D01*
X135159955Y-49180857D01*
X135029430Y-49367268D01*
X134933260Y-49573504D01*
X134874365Y-49793303D01*
X134854532Y-50020000D01*
X134874365Y-50246696D01*
X134933260Y-50466495D01*
X135029430Y-50672731D01*
X135159955Y-50859142D01*
X135320857Y-51020044D01*
X135320860Y-51020046D01*
X135320861Y-51020047D01*
X135507266Y-51150568D01*
X135507267Y-51150568D01*
X135507268Y-51150569D01*
X135711041Y-51245591D01*
X135735871Y-51271909D01*
X135735871Y-51308091D01*
X135711041Y-51334409D01*
X135507268Y-51429430D01*
X135320857Y-51559955D01*
X135159955Y-51720857D01*
X135029430Y-51907268D01*
X134933260Y-52113504D01*
X134874365Y-52333303D01*
X134854532Y-52560000D01*
X134874365Y-52786696D01*
X134933260Y-53006495D01*
X135029430Y-53212731D01*
X135029431Y-53212733D01*
X135029432Y-53212734D01*
X135047341Y-53238311D01*
X135159955Y-53399142D01*
X135320857Y-53560044D01*
X135320860Y-53560046D01*
X135320861Y-53560047D01*
X135507266Y-53690568D01*
X135711041Y-53785590D01*
X135735871Y-53811908D01*
X135735871Y-53848090D01*
X135711042Y-53874408D01*
X135507266Y-53969432D01*
X135320857Y-54099955D01*
X135159955Y-54260857D01*
X135029430Y-54447268D01*
X134933260Y-54653504D01*
X134874365Y-54873303D01*
X134854532Y-55100000D01*
X134874365Y-55326696D01*
X134933260Y-55546495D01*
X135029430Y-55752731D01*
X135159955Y-55939142D01*
X135320857Y-56100044D01*
X135320860Y-56100046D01*
X135320861Y-56100047D01*
X135507266Y-56230568D01*
X135711041Y-56325590D01*
X135735871Y-56351908D01*
X135735871Y-56388090D01*
X135711042Y-56414408D01*
X135507266Y-56509432D01*
X135320857Y-56639955D01*
X135159955Y-56800857D01*
X135029430Y-56987268D01*
X134933260Y-57193504D01*
X134874365Y-57413303D01*
X134854532Y-57639999D01*
X134874365Y-57866696D01*
X134933260Y-58086495D01*
X135029430Y-58292731D01*
X135159955Y-58479142D01*
X135320857Y-58640044D01*
X135320860Y-58640046D01*
X135320861Y-58640047D01*
X135507266Y-58770568D01*
X135507267Y-58770568D01*
X135507268Y-58770569D01*
X135711041Y-58865591D01*
X135735871Y-58891909D01*
X135735871Y-58928091D01*
X135711041Y-58954409D01*
X135507268Y-59049430D01*
X135320857Y-59179955D01*
X135159955Y-59340857D01*
X135029430Y-59527268D01*
X134933260Y-59733504D01*
X134874365Y-59953303D01*
X134854532Y-60180000D01*
X134874365Y-60406696D01*
X134933260Y-60626495D01*
X135029430Y-60832731D01*
X135029431Y-60832733D01*
X135029432Y-60832734D01*
X135065579Y-60884358D01*
X135159955Y-61019142D01*
X135320857Y-61180044D01*
X135320860Y-61180046D01*
X135320861Y-61180047D01*
X135507266Y-61310568D01*
X135711041Y-61405590D01*
X135735871Y-61431908D01*
X135735871Y-61468090D01*
X135711042Y-61494408D01*
X135507266Y-61589432D01*
X135320857Y-61719955D01*
X135159955Y-61880857D01*
X135029430Y-62067268D01*
X134933260Y-62273504D01*
X134874365Y-62493303D01*
X134854532Y-62720000D01*
X134874365Y-62946696D01*
X134933260Y-63166495D01*
X135029430Y-63372731D01*
X135159955Y-63559142D01*
X135320857Y-63720044D01*
X135320860Y-63720046D01*
X135320861Y-63720047D01*
X135507266Y-63850568D01*
X135711041Y-63945590D01*
X135735871Y-63971908D01*
X135735871Y-64008090D01*
X135711042Y-64034408D01*
X135507266Y-64129432D01*
X135320857Y-64259955D01*
X135159955Y-64420857D01*
X135029430Y-64607268D01*
X134933260Y-64813504D01*
X134874365Y-65033303D01*
X134854532Y-65259999D01*
X134874365Y-65486696D01*
X134933260Y-65706495D01*
X135029430Y-65912731D01*
X135029431Y-65912733D01*
X135029432Y-65912734D01*
X135030424Y-65914151D01*
X135159955Y-66099142D01*
X135320857Y-66260044D01*
X135320860Y-66260046D01*
X135320861Y-66260047D01*
X135507266Y-66390568D01*
X135507267Y-66390568D01*
X135507268Y-66390569D01*
X135711041Y-66485591D01*
X135735871Y-66511909D01*
X135735871Y-66548091D01*
X135711041Y-66574409D01*
X135507268Y-66669430D01*
X135320857Y-66799955D01*
X135159955Y-66960857D01*
X135029430Y-67147268D01*
X134933260Y-67353504D01*
X134874365Y-67573303D01*
X134854532Y-67800000D01*
X134874365Y-68026696D01*
X134933260Y-68246495D01*
X135029430Y-68452731D01*
X135029431Y-68452733D01*
X135029432Y-68452734D01*
X135065579Y-68504358D01*
X135159955Y-68639142D01*
X135320857Y-68800044D01*
X135320860Y-68800046D01*
X135320861Y-68800047D01*
X135507266Y-68930568D01*
X135507267Y-68930568D01*
X135507268Y-68930569D01*
X135711041Y-69025591D01*
X135735871Y-69051909D01*
X135735871Y-69088091D01*
X135711041Y-69114409D01*
X135507268Y-69209430D01*
X135320857Y-69339955D01*
X135159955Y-69500857D01*
X135029430Y-69687268D01*
X134933260Y-69893504D01*
X134874365Y-70113303D01*
X134866825Y-70199487D01*
X134850586Y-70231820D01*
X134816586Y-70244195D01*
X134783363Y-70229864D01*
X134024852Y-69471353D01*
X134010500Y-69436705D01*
X134010500Y-37869500D01*
X134024852Y-37834852D01*
X134059500Y-37820500D01*
X153050500Y-37820500D01*
X153085148Y-37834852D01*
G37*
G04 #@! TD.AperFunction*
G04 #@! TA.AperFunction,Conductor*
G36*
X185000967Y-33000538D02*
G01*
X185241655Y-33009994D01*
X185475053Y-33019648D01*
X185478703Y-33019939D01*
X185723113Y-33048867D01*
X185955038Y-33077777D01*
X185958521Y-33078340D01*
X186199847Y-33126343D01*
X186200075Y-33126390D01*
X186428790Y-33174346D01*
X186431977Y-33175128D01*
X186668682Y-33241886D01*
X186669263Y-33242054D01*
X186893195Y-33308722D01*
X186896173Y-33309714D01*
X187126791Y-33394794D01*
X187127643Y-33395117D01*
X187345240Y-33480023D01*
X187347932Y-33481168D01*
X187571242Y-33584115D01*
X187572155Y-33584548D01*
X187782046Y-33687157D01*
X187784406Y-33688394D01*
X187998954Y-33808546D01*
X188000018Y-33809161D01*
X188200680Y-33928730D01*
X188202820Y-33930081D01*
X188407246Y-34066675D01*
X188408415Y-34067481D01*
X188598562Y-34203244D01*
X188600372Y-34204603D01*
X188701175Y-34284070D01*
X188793407Y-34356780D01*
X188794740Y-34357869D01*
X188868143Y-34420038D01*
X188973004Y-34508850D01*
X188974555Y-34510224D01*
X189155058Y-34677079D01*
X189156445Y-34678413D01*
X189321585Y-34843553D01*
X189322919Y-34844940D01*
X189489770Y-35025438D01*
X189491154Y-35027001D01*
X189546319Y-35092135D01*
X189642129Y-35205258D01*
X189643218Y-35206591D01*
X189702871Y-35282260D01*
X189795385Y-35399614D01*
X189796774Y-35401463D01*
X189932490Y-35591545D01*
X189933353Y-35592795D01*
X190069916Y-35797177D01*
X190071268Y-35799318D01*
X190190825Y-35999960D01*
X190191480Y-36001094D01*
X190289196Y-36175579D01*
X190311584Y-36215554D01*
X190312853Y-36217976D01*
X190415428Y-36427797D01*
X190415906Y-36428804D01*
X190518828Y-36652061D01*
X190519977Y-36654763D01*
X190604881Y-36872355D01*
X190605204Y-36873207D01*
X190690284Y-37103825D01*
X190691276Y-37106803D01*
X190757931Y-37330691D01*
X190758128Y-37331372D01*
X190824862Y-37567992D01*
X190825659Y-37571238D01*
X190873584Y-37799805D01*
X190873685Y-37800301D01*
X190921656Y-38041469D01*
X190922222Y-38044967D01*
X190951137Y-38276927D01*
X190951173Y-38277229D01*
X190980055Y-38521252D01*
X190980353Y-38524986D01*
X190990014Y-38758577D01*
X190990018Y-38758678D01*
X190999462Y-38999033D01*
X190999500Y-39000957D01*
X190999500Y-100999043D01*
X190999462Y-101000967D01*
X190990018Y-101241321D01*
X190990014Y-101241422D01*
X190980353Y-101475012D01*
X190980055Y-101478746D01*
X190951173Y-101722770D01*
X190951137Y-101723072D01*
X190922222Y-101955031D01*
X190921656Y-101958529D01*
X190873685Y-102199697D01*
X190873584Y-102200193D01*
X190825659Y-102428760D01*
X190824862Y-102432006D01*
X190758128Y-102668626D01*
X190757931Y-102669307D01*
X190691276Y-102893195D01*
X190690284Y-102896173D01*
X190605204Y-103126791D01*
X190604881Y-103127643D01*
X190519977Y-103345235D01*
X190518828Y-103347937D01*
X190415906Y-103571194D01*
X190415428Y-103572201D01*
X190312853Y-103782022D01*
X190311584Y-103784444D01*
X190191483Y-103998899D01*
X190190825Y-104000038D01*
X190071268Y-104200680D01*
X190069916Y-104202821D01*
X189933353Y-104407203D01*
X189932490Y-104408453D01*
X189796774Y-104598535D01*
X189795375Y-104600398D01*
X189643218Y-104793407D01*
X189642129Y-104794740D01*
X189491166Y-104972983D01*
X189489757Y-104974575D01*
X189322919Y-105155058D01*
X189321585Y-105156445D01*
X189156445Y-105321585D01*
X189155058Y-105322919D01*
X188974575Y-105489757D01*
X188972983Y-105491166D01*
X188794740Y-105642129D01*
X188793407Y-105643218D01*
X188600398Y-105795375D01*
X188598535Y-105796774D01*
X188408453Y-105932490D01*
X188407203Y-105933353D01*
X188202821Y-106069916D01*
X188200680Y-106071268D01*
X188000038Y-106190825D01*
X187998899Y-106191483D01*
X187784444Y-106311584D01*
X187782022Y-106312853D01*
X187572201Y-106415428D01*
X187571194Y-106415906D01*
X187347937Y-106518828D01*
X187345235Y-106519977D01*
X187127643Y-106604881D01*
X187126791Y-106605204D01*
X186896173Y-106690284D01*
X186893195Y-106691276D01*
X186669307Y-106757931D01*
X186668626Y-106758128D01*
X186432006Y-106824862D01*
X186428760Y-106825659D01*
X186200193Y-106873584D01*
X186199697Y-106873685D01*
X185958529Y-106921656D01*
X185955031Y-106922222D01*
X185723112Y-106951131D01*
X185722811Y-106951167D01*
X185478747Y-106980055D01*
X185475012Y-106980353D01*
X185241437Y-106990013D01*
X185241336Y-106990017D01*
X185000967Y-106999462D01*
X184999043Y-106999500D01*
X123000957Y-106999500D01*
X122999033Y-106999462D01*
X122758662Y-106990017D01*
X122758561Y-106990013D01*
X122524986Y-106980353D01*
X122521251Y-106980055D01*
X122277187Y-106951167D01*
X122276886Y-106951131D01*
X122044967Y-106922222D01*
X122041469Y-106921656D01*
X121800301Y-106873685D01*
X121799805Y-106873584D01*
X121571238Y-106825659D01*
X121567992Y-106824862D01*
X121331372Y-106758128D01*
X121330691Y-106757931D01*
X121106803Y-106691276D01*
X121103825Y-106690284D01*
X120873207Y-106605204D01*
X120872355Y-106604881D01*
X120654763Y-106519977D01*
X120652061Y-106518828D01*
X120428804Y-106415906D01*
X120427797Y-106415428D01*
X120217976Y-106312853D01*
X120215566Y-106311590D01*
X120001094Y-106191480D01*
X119999960Y-106190825D01*
X119799318Y-106071268D01*
X119797177Y-106069916D01*
X119592795Y-105933353D01*
X119591545Y-105932490D01*
X119401450Y-105796764D01*
X119399613Y-105795385D01*
X119298825Y-105715930D01*
X119206591Y-105643218D01*
X119205258Y-105642129D01*
X119092135Y-105546319D01*
X119027001Y-105491154D01*
X119025438Y-105489770D01*
X118844940Y-105322919D01*
X118843553Y-105321585D01*
X118678413Y-105156445D01*
X118677079Y-105155058D01*
X118510224Y-104974555D01*
X118508850Y-104973004D01*
X118420038Y-104868143D01*
X118357869Y-104794740D01*
X118356780Y-104793407D01*
X118297129Y-104717740D01*
X118204603Y-104600372D01*
X118203244Y-104598562D01*
X118067481Y-104408415D01*
X118066675Y-104407246D01*
X117930081Y-104202820D01*
X117928730Y-104200680D01*
X117809173Y-104000038D01*
X117808546Y-103998952D01*
X117688394Y-103784406D01*
X117687157Y-103782046D01*
X117584548Y-103572155D01*
X117584115Y-103571242D01*
X117481168Y-103347932D01*
X117480021Y-103345235D01*
X117395117Y-103127643D01*
X117394794Y-103126791D01*
X117309714Y-102896173D01*
X117308722Y-102893195D01*
X117242067Y-102669307D01*
X117241870Y-102668626D01*
X117175128Y-102431977D01*
X117174346Y-102428790D01*
X117126390Y-102200075D01*
X117126343Y-102199847D01*
X117078340Y-101958521D01*
X117077776Y-101955031D01*
X117072442Y-101912237D01*
X117049872Y-101731182D01*
X120169500Y-101731182D01*
X120208604Y-101990615D01*
X120208605Y-101990617D01*
X120285937Y-102241326D01*
X120399768Y-102477698D01*
X120399771Y-102477703D01*
X120399772Y-102477704D01*
X120547567Y-102694479D01*
X120726019Y-102886805D01*
X120931143Y-103050386D01*
X120931145Y-103050387D01*
X121158353Y-103181566D01*
X121158354Y-103181566D01*
X121158357Y-103181568D01*
X121402584Y-103277420D01*
X121530477Y-103306611D01*
X121658367Y-103335802D01*
X121805472Y-103346825D01*
X121854506Y-103350500D01*
X121985493Y-103350500D01*
X121985494Y-103350500D01*
X122055752Y-103345235D01*
X122181632Y-103335802D01*
X122266891Y-103316341D01*
X122437416Y-103277420D01*
X122681643Y-103181568D01*
X122908857Y-103050386D01*
X123113981Y-102886805D01*
X123292433Y-102694479D01*
X123440228Y-102477704D01*
X123545254Y-102259616D01*
X123554062Y-102241326D01*
X123566903Y-102199697D01*
X123631396Y-101990615D01*
X123670500Y-101731182D01*
X123670500Y-101468818D01*
X123631396Y-101209385D01*
X123566514Y-100999043D01*
X123554062Y-100958673D01*
X123440231Y-100722301D01*
X123440228Y-100722296D01*
X123351989Y-100592874D01*
X126364500Y-100592874D01*
X126370908Y-100652481D01*
X126421204Y-100787332D01*
X126439736Y-100812087D01*
X126507454Y-100902546D01*
X126539816Y-100926772D01*
X126622667Y-100988795D01*
X126622668Y-100988795D01*
X126622669Y-100988796D01*
X126757517Y-101039091D01*
X126817127Y-101045500D01*
X128262872Y-101045499D01*
X128262874Y-101045499D01*
X128292677Y-101042294D01*
X128322483Y-101039091D01*
X128457331Y-100988796D01*
X128572546Y-100902546D01*
X128658796Y-100787331D01*
X128669832Y-100757740D01*
X128689598Y-100733421D01*
X128720059Y-100726053D01*
X128748754Y-100738651D01*
X128828871Y-100811686D01*
X129014015Y-100926323D01*
X129217065Y-101004985D01*
X129290000Y-101018619D01*
X129790000Y-101018619D01*
X129862934Y-101004985D01*
X130065984Y-100926323D01*
X130251128Y-100811686D01*
X130412057Y-100664982D01*
X130500583Y-100547753D01*
X130524831Y-100530588D01*
X130554540Y-100530588D01*
X130578789Y-100547753D01*
X130667571Y-100665321D01*
X130713124Y-100706847D01*
X130828568Y-100812088D01*
X131013790Y-100926772D01*
X131216931Y-101005470D01*
X131431074Y-101045500D01*
X131648924Y-101045500D01*
X131648926Y-101045500D01*
X131863069Y-101005470D01*
X132066210Y-100926772D01*
X132251432Y-100812088D01*
X132412427Y-100665322D01*
X132500896Y-100548167D01*
X132525144Y-100531003D01*
X132554853Y-100531003D01*
X132579102Y-100548168D01*
X132667571Y-100665321D01*
X132713124Y-100706847D01*
X132828568Y-100812088D01*
X133013790Y-100926772D01*
X133216931Y-101005470D01*
X133431074Y-101045500D01*
X133648924Y-101045500D01*
X133648926Y-101045500D01*
X133863069Y-101005470D01*
X133877189Y-101000000D01*
X149284356Y-101000000D01*
X149304885Y-101221538D01*
X149365769Y-101435525D01*
X149464941Y-101634688D01*
X149599020Y-101812237D01*
X149763434Y-101962121D01*
X149763436Y-101962122D01*
X149763438Y-101962124D01*
X149952599Y-102079247D01*
X150160060Y-102159618D01*
X150378757Y-102200500D01*
X150601241Y-102200500D01*
X150601243Y-102200500D01*
X150819940Y-102159618D01*
X151027401Y-102079247D01*
X151216562Y-101962124D01*
X151380981Y-101812236D01*
X151515058Y-101634689D01*
X151614229Y-101435528D01*
X151667016Y-101250001D01*
X156933503Y-101250001D01*
X156986237Y-101435344D01*
X157085367Y-101634424D01*
X157219388Y-101811897D01*
X157383740Y-101961722D01*
X157572823Y-102078798D01*
X157780196Y-102159135D01*
X157860000Y-102174052D01*
X157860000Y-101250000D01*
X158360000Y-101250000D01*
X158360000Y-102174052D01*
X158439803Y-102159135D01*
X158647176Y-102078798D01*
X158836259Y-101961722D01*
X159000611Y-101811897D01*
X159134632Y-101634424D01*
X159233762Y-101435344D01*
X159286496Y-101250001D01*
X159286496Y-101250000D01*
X158360000Y-101250000D01*
X157860000Y-101250000D01*
X156933504Y-101250000D01*
X156933503Y-101250001D01*
X151667016Y-101250001D01*
X151675115Y-101221536D01*
X151695643Y-101000000D01*
X160384356Y-101000000D01*
X160404885Y-101221538D01*
X160465769Y-101435525D01*
X160564941Y-101634688D01*
X160699020Y-101812237D01*
X160863434Y-101962121D01*
X160863436Y-101962122D01*
X160863438Y-101962124D01*
X161052599Y-102079247D01*
X161260060Y-102159618D01*
X161478757Y-102200500D01*
X161701241Y-102200500D01*
X161701243Y-102200500D01*
X161919940Y-102159618D01*
X162127401Y-102079247D01*
X162316562Y-101962124D01*
X162480981Y-101812236D01*
X162615058Y-101634689D01*
X162714229Y-101435528D01*
X162767016Y-101250001D01*
X168033503Y-101250001D01*
X168086237Y-101435344D01*
X168185367Y-101634424D01*
X168319388Y-101811897D01*
X168483740Y-101961722D01*
X168672823Y-102078798D01*
X168880196Y-102159135D01*
X168960000Y-102174052D01*
X168960000Y-101250000D01*
X169460000Y-101250000D01*
X169460000Y-102174052D01*
X169539803Y-102159135D01*
X169747176Y-102078798D01*
X169936259Y-101961722D01*
X170100611Y-101811897D01*
X170234632Y-101634424D01*
X170333762Y-101435344D01*
X170386496Y-101250001D01*
X170386496Y-101250000D01*
X169460000Y-101250000D01*
X168960000Y-101250000D01*
X168033504Y-101250000D01*
X168033503Y-101250001D01*
X162767016Y-101250001D01*
X162775115Y-101221536D01*
X162786377Y-101099999D01*
X171484356Y-101099999D01*
X171504885Y-101321538D01*
X171565769Y-101535525D01*
X171664941Y-101734688D01*
X171799020Y-101912237D01*
X171963434Y-102062121D01*
X171963436Y-102062122D01*
X171963438Y-102062124D01*
X172152599Y-102179247D01*
X172360060Y-102259618D01*
X172578757Y-102300500D01*
X172801241Y-102300500D01*
X172801243Y-102300500D01*
X173019940Y-102259618D01*
X173227401Y-102179247D01*
X173416562Y-102062124D01*
X173580981Y-101912236D01*
X173715058Y-101734689D01*
X173814229Y-101535528D01*
X173867016Y-101350001D01*
X179133503Y-101350001D01*
X179186237Y-101535344D01*
X179285367Y-101734424D01*
X179419388Y-101911897D01*
X179583740Y-102061722D01*
X179772823Y-102178798D01*
X179980196Y-102259135D01*
X180060000Y-102274052D01*
X180060000Y-101350000D01*
X180560000Y-101350000D01*
X180560000Y-102274052D01*
X180639803Y-102259135D01*
X180847176Y-102178798D01*
X181036259Y-102061722D01*
X181200611Y-101911897D01*
X181334632Y-101734424D01*
X181336246Y-101731182D01*
X183669500Y-101731182D01*
X183708604Y-101990615D01*
X183708605Y-101990617D01*
X183785937Y-102241326D01*
X183899768Y-102477698D01*
X183899771Y-102477703D01*
X183899772Y-102477704D01*
X184047567Y-102694479D01*
X184226019Y-102886805D01*
X184431143Y-103050386D01*
X184431145Y-103050387D01*
X184658353Y-103181566D01*
X184658354Y-103181566D01*
X184658357Y-103181568D01*
X184902584Y-103277420D01*
X185030477Y-103306611D01*
X185158367Y-103335802D01*
X185305472Y-103346825D01*
X185354506Y-103350500D01*
X185485493Y-103350500D01*
X185485494Y-103350500D01*
X185555752Y-103345235D01*
X185681632Y-103335802D01*
X185766891Y-103316341D01*
X185937416Y-103277420D01*
X186181643Y-103181568D01*
X186408857Y-103050386D01*
X186613981Y-102886805D01*
X186792433Y-102694479D01*
X186940228Y-102477704D01*
X187045254Y-102259616D01*
X187054062Y-102241326D01*
X187066903Y-102199697D01*
X187131396Y-101990615D01*
X187170500Y-101731182D01*
X187170500Y-101468818D01*
X187131396Y-101209385D01*
X187066514Y-100999043D01*
X187054062Y-100958673D01*
X186940231Y-100722301D01*
X186940228Y-100722296D01*
X186792433Y-100505521D01*
X186613981Y-100313195D01*
X186408857Y-100149614D01*
X186388530Y-100137878D01*
X186181646Y-100018433D01*
X186024092Y-99956598D01*
X185937416Y-99922580D01*
X185937412Y-99922579D01*
X185681632Y-99864197D01*
X185497493Y-99850399D01*
X185485494Y-99849500D01*
X185354506Y-99849500D01*
X185343198Y-99850347D01*
X185158367Y-99864197D01*
X184902587Y-99922579D01*
X184658353Y-100018433D01*
X184431145Y-100149612D01*
X184294393Y-100258668D01*
X184257909Y-100287764D01*
X184226018Y-100313196D01*
X184047569Y-100505518D01*
X183899768Y-100722301D01*
X183785937Y-100958673D01*
X183713015Y-101195083D01*
X183708604Y-101209385D01*
X183669500Y-101468818D01*
X183669500Y-101731182D01*
X181336246Y-101731182D01*
X181433762Y-101535344D01*
X181486496Y-101350001D01*
X181486496Y-101350000D01*
X180560000Y-101350000D01*
X180060000Y-101350000D01*
X179133504Y-101350000D01*
X179133503Y-101350001D01*
X173867016Y-101350001D01*
X173875115Y-101321536D01*
X173895643Y-101100000D01*
X173875115Y-100878464D01*
X173867016Y-100849998D01*
X179133503Y-100849998D01*
X179133504Y-100850000D01*
X180060000Y-100850000D01*
X180060000Y-99925947D01*
X180560000Y-99925947D01*
X180560000Y-100850000D01*
X181486496Y-100850000D01*
X181486496Y-100849998D01*
X181433762Y-100664655D01*
X181334632Y-100465575D01*
X181200611Y-100288102D01*
X181036259Y-100138277D01*
X180847176Y-100021201D01*
X180639803Y-99940864D01*
X180560000Y-99925947D01*
X180060000Y-99925947D01*
X179980196Y-99940864D01*
X179772823Y-100021201D01*
X179583740Y-100138277D01*
X179419388Y-100288102D01*
X179285367Y-100465575D01*
X179186237Y-100664655D01*
X179133503Y-100849998D01*
X173867016Y-100849998D01*
X173849186Y-100787332D01*
X173814230Y-100664474D01*
X173755637Y-100546804D01*
X173750500Y-100524963D01*
X173750500Y-98206240D01*
X173757406Y-98181157D01*
X173776179Y-98163146D01*
X173873507Y-98110475D01*
X173873506Y-98110475D01*
X173873509Y-98110474D01*
X174069744Y-97957738D01*
X174238164Y-97774785D01*
X174374173Y-97566607D01*
X174474063Y-97338881D01*
X174535108Y-97097821D01*
X174555643Y-96850000D01*
X178044357Y-96850000D01*
X178064892Y-97097820D01*
X178125937Y-97338883D01*
X178225828Y-97566609D01*
X178350078Y-97756789D01*
X178361836Y-97774785D01*
X178530256Y-97957738D01*
X178530258Y-97957740D01*
X178726492Y-98110475D01*
X178945187Y-98228827D01*
X178945190Y-98228828D01*
X179180386Y-98309571D01*
X179425665Y-98350500D01*
X179674333Y-98350500D01*
X179674335Y-98350500D01*
X179919614Y-98309571D01*
X180154810Y-98228828D01*
X180373509Y-98110474D01*
X180569744Y-97957738D01*
X180738164Y-97774785D01*
X180874173Y-97566607D01*
X180974063Y-97338881D01*
X181035108Y-97097821D01*
X181055643Y-96850000D01*
X181035108Y-96602179D01*
X180974063Y-96361119D01*
X180874173Y-96133393D01*
X180738164Y-95925215D01*
X180569744Y-95742262D01*
X180569743Y-95742261D01*
X180569741Y-95742259D01*
X180373507Y-95589524D01*
X180154812Y-95471172D01*
X179993325Y-95415734D01*
X179919614Y-95390429D01*
X179674335Y-95349500D01*
X179425665Y-95349500D01*
X179180386Y-95390429D01*
X179180383Y-95390429D01*
X179180383Y-95390430D01*
X178945187Y-95471172D01*
X178726492Y-95589524D01*
X178530258Y-95742259D01*
X178361833Y-95925218D01*
X178225828Y-96133390D01*
X178125937Y-96361116D01*
X178064892Y-96602179D01*
X178044357Y-96850000D01*
X174555643Y-96850000D01*
X174535108Y-96602179D01*
X174474063Y-96361119D01*
X174374173Y-96133393D01*
X174238164Y-95925215D01*
X174069744Y-95742262D01*
X174069743Y-95742261D01*
X174069741Y-95742259D01*
X173873507Y-95589524D01*
X173654812Y-95471172D01*
X173493325Y-95415734D01*
X173419614Y-95390429D01*
X173174335Y-95349500D01*
X172925665Y-95349500D01*
X172680386Y-95390429D01*
X172680383Y-95390429D01*
X172680383Y-95390430D01*
X172445187Y-95471172D01*
X172226492Y-95589524D01*
X172030258Y-95742259D01*
X171861833Y-95925218D01*
X171725828Y-96133390D01*
X171625937Y-96361116D01*
X171564892Y-96602179D01*
X171544357Y-96850000D01*
X171564892Y-97097820D01*
X171625937Y-97338883D01*
X171725828Y-97566609D01*
X171850078Y-97756789D01*
X171861836Y-97774785D01*
X172030256Y-97957738D01*
X172030258Y-97957740D01*
X172226492Y-98110475D01*
X172323821Y-98163146D01*
X172342594Y-98181157D01*
X172349500Y-98206240D01*
X172349500Y-99910907D01*
X172340925Y-99938599D01*
X172318201Y-99956598D01*
X172152600Y-100020752D01*
X171963434Y-100137878D01*
X171799020Y-100287762D01*
X171664941Y-100465311D01*
X171565769Y-100664474D01*
X171504885Y-100878461D01*
X171484356Y-101099999D01*
X162786377Y-101099999D01*
X162795643Y-101000000D01*
X162775115Y-100778464D01*
X162767016Y-100749998D01*
X168033503Y-100749998D01*
X168033504Y-100750000D01*
X168960000Y-100750000D01*
X168960000Y-99825947D01*
X169460000Y-99825947D01*
X169460000Y-100750000D01*
X170386496Y-100750000D01*
X170386496Y-100749998D01*
X170333762Y-100564655D01*
X170234632Y-100365575D01*
X170100611Y-100188102D01*
X169936259Y-100038277D01*
X169747176Y-99921201D01*
X169539803Y-99840864D01*
X169460000Y-99825947D01*
X168960000Y-99825947D01*
X168880196Y-99840864D01*
X168672823Y-99921201D01*
X168483740Y-100038277D01*
X168319388Y-100188102D01*
X168185367Y-100365575D01*
X168086237Y-100564655D01*
X168033503Y-100749998D01*
X162767016Y-100749998D01*
X162742682Y-100664474D01*
X162714230Y-100564474D01*
X162655637Y-100446804D01*
X162650500Y-100424963D01*
X162650500Y-98206240D01*
X162657406Y-98181157D01*
X162676179Y-98163146D01*
X162773507Y-98110475D01*
X162773506Y-98110475D01*
X162773509Y-98110474D01*
X162969744Y-97957738D01*
X163138164Y-97774785D01*
X163274173Y-97566607D01*
X163374063Y-97338881D01*
X163435108Y-97097821D01*
X163455643Y-96850000D01*
X166944357Y-96850000D01*
X166964892Y-97097820D01*
X167025937Y-97338883D01*
X167125828Y-97566609D01*
X167250078Y-97756789D01*
X167261836Y-97774785D01*
X167430256Y-97957738D01*
X167430258Y-97957740D01*
X167626492Y-98110475D01*
X167845187Y-98228827D01*
X167845190Y-98228828D01*
X168080386Y-98309571D01*
X168325665Y-98350500D01*
X168574333Y-98350500D01*
X168574335Y-98350500D01*
X168819614Y-98309571D01*
X169054810Y-98228828D01*
X169273509Y-98110474D01*
X169469744Y-97957738D01*
X169638164Y-97774785D01*
X169774173Y-97566607D01*
X169874063Y-97338881D01*
X169935108Y-97097821D01*
X169955643Y-96850000D01*
X169935108Y-96602179D01*
X169874063Y-96361119D01*
X169774173Y-96133393D01*
X169638164Y-95925215D01*
X169469744Y-95742262D01*
X169469743Y-95742261D01*
X169469741Y-95742259D01*
X169273507Y-95589524D01*
X169054812Y-95471172D01*
X168893325Y-95415734D01*
X168819614Y-95390429D01*
X168574335Y-95349500D01*
X168325665Y-95349500D01*
X168080386Y-95390429D01*
X168080383Y-95390429D01*
X168080383Y-95390430D01*
X167845187Y-95471172D01*
X167626492Y-95589524D01*
X167430258Y-95742259D01*
X167261833Y-95925218D01*
X167125828Y-96133390D01*
X167025937Y-96361116D01*
X166964892Y-96602179D01*
X166944357Y-96850000D01*
X163455643Y-96850000D01*
X163435108Y-96602179D01*
X163374063Y-96361119D01*
X163274173Y-96133393D01*
X163138164Y-95925215D01*
X162969744Y-95742262D01*
X162969743Y-95742261D01*
X162969741Y-95742259D01*
X162773507Y-95589524D01*
X162554812Y-95471172D01*
X162393325Y-95415734D01*
X162319614Y-95390429D01*
X162074335Y-95349500D01*
X161825665Y-95349500D01*
X161580386Y-95390429D01*
X161580383Y-95390429D01*
X161580383Y-95390430D01*
X161345187Y-95471172D01*
X161126492Y-95589524D01*
X160930258Y-95742259D01*
X160761833Y-95925218D01*
X160625828Y-96133390D01*
X160525937Y-96361116D01*
X160464892Y-96602179D01*
X160444357Y-96850000D01*
X160464892Y-97097820D01*
X160525937Y-97338883D01*
X160625828Y-97566609D01*
X160750078Y-97756789D01*
X160761836Y-97774785D01*
X160930256Y-97957738D01*
X160930258Y-97957740D01*
X161126492Y-98110475D01*
X161223821Y-98163146D01*
X161242594Y-98181157D01*
X161249500Y-98206240D01*
X161249500Y-99810907D01*
X161240925Y-99838599D01*
X161218201Y-99856598D01*
X161052600Y-99920752D01*
X160863434Y-100037878D01*
X160699020Y-100187762D01*
X160564941Y-100365311D01*
X160465769Y-100564474D01*
X160404885Y-100778461D01*
X160384356Y-101000000D01*
X151695643Y-101000000D01*
X151675318Y-100780657D01*
X151678292Y-100758768D01*
X151681618Y-100749998D01*
X156933503Y-100749998D01*
X156933504Y-100750000D01*
X157860000Y-100750000D01*
X157860000Y-99825947D01*
X158360000Y-99825947D01*
X158360000Y-100750000D01*
X159286496Y-100750000D01*
X159286496Y-100749998D01*
X159233762Y-100564655D01*
X159134632Y-100365575D01*
X159000611Y-100188102D01*
X158836259Y-100038277D01*
X158647176Y-99921201D01*
X158439803Y-99840864D01*
X158360000Y-99825947D01*
X157860000Y-99825947D01*
X157780196Y-99840864D01*
X157572823Y-99921201D01*
X157383740Y-100038277D01*
X157219388Y-100188102D01*
X157085367Y-100365575D01*
X156986237Y-100564655D01*
X156933503Y-100749998D01*
X151681618Y-100749998D01*
X151696952Y-100709564D01*
X151698078Y-100706847D01*
X151716767Y-100665323D01*
X151723695Y-100649931D01*
X151726752Y-100633245D01*
X151729132Y-100624711D01*
X151735140Y-100608872D01*
X151742663Y-100546907D01*
X151743103Y-100544016D01*
X151754358Y-100482606D01*
X151750589Y-100420302D01*
X151750500Y-100417343D01*
X151750500Y-98206240D01*
X151757406Y-98181157D01*
X151776179Y-98163146D01*
X151873507Y-98110475D01*
X151873506Y-98110475D01*
X151873509Y-98110474D01*
X152069744Y-97957738D01*
X152238164Y-97774785D01*
X152374173Y-97566607D01*
X152474063Y-97338881D01*
X152535108Y-97097821D01*
X152555643Y-96850000D01*
X156044357Y-96850000D01*
X156064892Y-97097820D01*
X156125937Y-97338883D01*
X156225828Y-97566609D01*
X156350078Y-97756789D01*
X156361836Y-97774785D01*
X156530256Y-97957738D01*
X156530258Y-97957740D01*
X156726492Y-98110475D01*
X156945187Y-98228827D01*
X156945190Y-98228828D01*
X157180386Y-98309571D01*
X157425665Y-98350500D01*
X157674333Y-98350500D01*
X157674335Y-98350500D01*
X157919614Y-98309571D01*
X158154810Y-98228828D01*
X158373509Y-98110474D01*
X158569744Y-97957738D01*
X158738164Y-97774785D01*
X158874173Y-97566607D01*
X158974063Y-97338881D01*
X159035108Y-97097821D01*
X159055643Y-96850000D01*
X159035108Y-96602179D01*
X158974063Y-96361119D01*
X158874173Y-96133393D01*
X158738164Y-95925215D01*
X158569744Y-95742262D01*
X158569743Y-95742261D01*
X158569741Y-95742259D01*
X158373507Y-95589524D01*
X158154812Y-95471172D01*
X157993325Y-95415734D01*
X157919614Y-95390429D01*
X157674335Y-95349500D01*
X157425665Y-95349500D01*
X157180386Y-95390429D01*
X157180383Y-95390429D01*
X157180383Y-95390430D01*
X156945187Y-95471172D01*
X156726492Y-95589524D01*
X156530258Y-95742259D01*
X156361833Y-95925218D01*
X156225828Y-96133390D01*
X156125937Y-96361116D01*
X156064892Y-96602179D01*
X156044357Y-96850000D01*
X152555643Y-96850000D01*
X152535108Y-96602179D01*
X152474063Y-96361119D01*
X152374173Y-96133393D01*
X152238164Y-95925215D01*
X152069744Y-95742262D01*
X152069743Y-95742261D01*
X152069741Y-95742259D01*
X151873507Y-95589524D01*
X151654812Y-95471172D01*
X151493325Y-95415734D01*
X151419614Y-95390429D01*
X151174335Y-95349500D01*
X150925665Y-95349500D01*
X150680386Y-95390429D01*
X150680383Y-95390429D01*
X150680383Y-95390430D01*
X150445187Y-95471172D01*
X150226492Y-95589524D01*
X150030258Y-95742259D01*
X149861833Y-95925218D01*
X149725828Y-96133390D01*
X149625937Y-96361116D01*
X149564892Y-96602179D01*
X149544357Y-96850000D01*
X149564892Y-97097820D01*
X149625937Y-97338883D01*
X149725828Y-97566609D01*
X149850078Y-97756789D01*
X149861836Y-97774785D01*
X150030256Y-97957738D01*
X150030258Y-97957740D01*
X150226492Y-98110475D01*
X150323821Y-98163146D01*
X150342594Y-98181157D01*
X150349500Y-98206240D01*
X150349500Y-99764280D01*
X150338197Y-99795583D01*
X150309504Y-99812445D01*
X150160060Y-99840382D01*
X150160057Y-99840382D01*
X150160057Y-99840383D01*
X149952600Y-99920752D01*
X149763434Y-100037878D01*
X149599020Y-100187762D01*
X149464941Y-100365311D01*
X149365769Y-100564474D01*
X149304885Y-100778461D01*
X149284356Y-101000000D01*
X133877189Y-101000000D01*
X134066210Y-100926772D01*
X134251432Y-100812088D01*
X134412427Y-100665322D01*
X134413068Y-100664474D01*
X134467138Y-100592873D01*
X134543712Y-100491472D01*
X134640817Y-100296459D01*
X134700435Y-100086923D01*
X134720536Y-99870000D01*
X134700435Y-99653077D01*
X134640817Y-99443541D01*
X134543712Y-99248528D01*
X134412428Y-99074678D01*
X134278589Y-98952669D01*
X134251432Y-98927912D01*
X134066210Y-98813228D01*
X134066208Y-98813227D01*
X133864318Y-98735014D01*
X133863069Y-98734530D01*
X133648926Y-98694500D01*
X133431074Y-98694500D01*
X133216931Y-98734530D01*
X133216928Y-98734530D01*
X133216928Y-98734531D01*
X133013791Y-98813227D01*
X132828568Y-98927912D01*
X132667571Y-99074679D01*
X132579102Y-99191830D01*
X132554853Y-99208995D01*
X132525144Y-99208995D01*
X132500896Y-99191830D01*
X132412428Y-99074678D01*
X132278589Y-98952669D01*
X132251432Y-98927912D01*
X132066210Y-98813228D01*
X132066208Y-98813227D01*
X131864318Y-98735014D01*
X131863069Y-98734530D01*
X131648926Y-98694500D01*
X131431074Y-98694500D01*
X131216931Y-98734530D01*
X131216928Y-98734530D01*
X131216928Y-98734531D01*
X131013791Y-98813227D01*
X130828568Y-98927912D01*
X130667571Y-99074678D01*
X130578789Y-99192245D01*
X130554540Y-99209410D01*
X130524831Y-99209410D01*
X130500583Y-99192245D01*
X130412057Y-99075016D01*
X130251128Y-98928313D01*
X130065984Y-98813676D01*
X129862934Y-98735014D01*
X129790000Y-98721381D01*
X129790000Y-101018619D01*
X129290000Y-101018619D01*
X129290000Y-98721381D01*
X129217065Y-98735014D01*
X129014015Y-98813676D01*
X128828868Y-98928315D01*
X128748753Y-99001348D01*
X128720058Y-99013946D01*
X128689598Y-99006578D01*
X128669832Y-98982259D01*
X128658795Y-98952667D01*
X128630152Y-98914406D01*
X128572546Y-98837454D01*
X128514938Y-98794328D01*
X128457332Y-98751204D01*
X128322481Y-98700908D01*
X128262875Y-98694500D01*
X126817125Y-98694500D01*
X126757518Y-98700908D01*
X126622667Y-98751204D01*
X126507454Y-98837454D01*
X126421204Y-98952667D01*
X126370908Y-99087518D01*
X126364500Y-99147124D01*
X126364500Y-100592874D01*
X123351989Y-100592874D01*
X123292433Y-100505521D01*
X123113981Y-100313195D01*
X122908857Y-100149614D01*
X122888530Y-100137878D01*
X122681646Y-100018433D01*
X122524092Y-99956598D01*
X122437416Y-99922580D01*
X122437412Y-99922579D01*
X122181632Y-99864197D01*
X121997493Y-99850399D01*
X121985494Y-99849500D01*
X121854506Y-99849500D01*
X121843198Y-99850347D01*
X121658367Y-99864197D01*
X121402587Y-99922579D01*
X121158353Y-100018433D01*
X120931145Y-100149612D01*
X120794393Y-100258668D01*
X120757909Y-100287764D01*
X120726018Y-100313196D01*
X120547569Y-100505518D01*
X120399768Y-100722301D01*
X120285937Y-100958673D01*
X120213015Y-101195083D01*
X120208604Y-101209385D01*
X120169500Y-101468818D01*
X120169500Y-101731182D01*
X117049872Y-101731182D01*
X117048879Y-101723214D01*
X117019939Y-101478703D01*
X117019648Y-101475053D01*
X117009981Y-101241321D01*
X117000538Y-101000967D01*
X117000500Y-100999043D01*
X117000500Y-91330000D01*
X119064341Y-91330000D01*
X119084937Y-91565412D01*
X119146096Y-91793662D01*
X119245965Y-92007832D01*
X119381503Y-92201400D01*
X119548596Y-92368493D01*
X119636953Y-92430361D01*
X119655248Y-92454749D01*
X119655580Y-92485234D01*
X119637823Y-92510016D01*
X119608849Y-92519500D01*
X119522125Y-92519500D01*
X119462518Y-92525908D01*
X119327667Y-92576204D01*
X119212454Y-92662454D01*
X119126204Y-92777667D01*
X119075908Y-92912518D01*
X119069500Y-92972124D01*
X119069500Y-94767874D01*
X119075908Y-94827481D01*
X119126204Y-94962332D01*
X119169328Y-95019938D01*
X119212454Y-95077546D01*
X119289406Y-95135152D01*
X119327667Y-95163795D01*
X119327668Y-95163795D01*
X119327669Y-95163796D01*
X119462517Y-95214091D01*
X119522127Y-95220500D01*
X121317872Y-95220499D01*
X121317874Y-95220499D01*
X121347677Y-95217295D01*
X121377483Y-95214091D01*
X121512331Y-95163796D01*
X121627546Y-95077546D01*
X121713796Y-94962331D01*
X121764091Y-94827483D01*
X121770500Y-94767873D01*
X121770499Y-94681149D01*
X121779983Y-94652177D01*
X121804764Y-94634419D01*
X121835249Y-94634751D01*
X121859637Y-94653046D01*
X121921503Y-94741400D01*
X122088599Y-94908496D01*
X122282167Y-95044034D01*
X122496337Y-95143903D01*
X122724587Y-95205062D01*
X122724588Y-95205062D01*
X122724592Y-95205063D01*
X122960000Y-95225659D01*
X123195408Y-95205063D01*
X123423663Y-95143903D01*
X123637830Y-95044035D01*
X123637830Y-95044034D01*
X123637832Y-95044034D01*
X123831400Y-94908496D01*
X123998496Y-94741400D01*
X124134034Y-94547832D01*
X124134035Y-94547830D01*
X124233903Y-94333663D01*
X124295063Y-94105408D01*
X124315659Y-93870000D01*
X124295063Y-93634592D01*
X124294993Y-93634332D01*
X124233903Y-93406337D01*
X124134036Y-93192173D01*
X124073172Y-93105250D01*
X123998495Y-92998599D01*
X123998493Y-92998596D01*
X123831400Y-92831503D01*
X123637832Y-92695965D01*
X123552449Y-92656151D01*
X123527266Y-92644408D01*
X123502437Y-92618091D01*
X123502437Y-92581909D01*
X123527266Y-92555591D01*
X123637830Y-92504035D01*
X123637830Y-92504034D01*
X123637832Y-92504034D01*
X123831400Y-92368496D01*
X123998496Y-92201400D01*
X124134034Y-92007832D01*
X124156572Y-91959500D01*
X124233903Y-91793663D01*
X124295063Y-91565408D01*
X124315659Y-91330000D01*
X124295063Y-91094592D01*
X124233903Y-90866337D01*
X124134035Y-90652171D01*
X123998495Y-90458599D01*
X123998493Y-90458596D01*
X123831400Y-90291503D01*
X123637832Y-90155965D01*
X123526675Y-90104132D01*
X123501845Y-90077814D01*
X123501845Y-90041632D01*
X123526675Y-90015314D01*
X123637581Y-89963598D01*
X123831077Y-89828111D01*
X123998111Y-89661077D01*
X124133599Y-89467581D01*
X124233431Y-89253489D01*
X124290636Y-89040000D01*
X122759000Y-89040000D01*
X122724352Y-89025648D01*
X122710000Y-88991000D01*
X122710000Y-88589000D01*
X122724352Y-88554352D01*
X122759000Y-88540000D01*
X124290636Y-88540000D01*
X124290636Y-88539999D01*
X124233431Y-88326510D01*
X124133601Y-88112424D01*
X123998108Y-87918919D01*
X123831077Y-87751888D01*
X123637581Y-87616400D01*
X123526675Y-87564685D01*
X123501845Y-87538367D01*
X123501845Y-87502185D01*
X123526674Y-87475868D01*
X123637830Y-87424035D01*
X123637830Y-87424034D01*
X123637832Y-87424034D01*
X123831400Y-87288496D01*
X123998492Y-87121404D01*
X123998491Y-87121404D01*
X123998495Y-87121401D01*
X124103532Y-86971392D01*
X124121042Y-86956037D01*
X124143668Y-86950500D01*
X129762758Y-86950500D01*
X129771580Y-86951301D01*
X129791485Y-86954948D01*
X129794319Y-86955557D01*
X129854944Y-86970500D01*
X129871896Y-86970500D01*
X129880728Y-86971302D01*
X129897394Y-86974357D01*
X129959687Y-86970589D01*
X129962646Y-86970500D01*
X130025054Y-86970500D01*
X130025056Y-86970500D01*
X130041515Y-86966442D01*
X130050281Y-86965108D01*
X130067196Y-86964086D01*
X130126800Y-86945512D01*
X130129615Y-86944727D01*
X130190225Y-86929790D01*
X130205238Y-86921909D01*
X130213419Y-86918521D01*
X130229606Y-86913478D01*
X130283040Y-86881174D01*
X130285576Y-86879744D01*
X130340852Y-86850734D01*
X130353549Y-86839484D01*
X130360671Y-86834245D01*
X130375184Y-86825472D01*
X130419331Y-86781323D01*
X130421450Y-86779328D01*
X130468183Y-86737929D01*
X130477818Y-86723969D01*
X130483486Y-86717168D01*
X130495472Y-86705184D01*
X130527760Y-86651770D01*
X130529349Y-86649312D01*
X130564818Y-86597930D01*
X130570827Y-86582082D01*
X130574709Y-86574108D01*
X130583478Y-86559606D01*
X130602052Y-86499994D01*
X130602997Y-86497255D01*
X130625140Y-86438872D01*
X130627182Y-86422045D01*
X130629044Y-86413373D01*
X130634086Y-86397196D01*
X130637854Y-86334887D01*
X130638119Y-86331978D01*
X130640500Y-86312372D01*
X130640500Y-86292646D01*
X130640589Y-86289688D01*
X130640663Y-86288459D01*
X130644357Y-86227394D01*
X130641302Y-86210728D01*
X130640500Y-86201896D01*
X130640500Y-83443844D01*
X130648877Y-83416444D01*
X130671144Y-83398412D01*
X130699688Y-83395915D01*
X130815353Y-83420500D01*
X130815354Y-83420500D01*
X131004646Y-83420500D01*
X131004647Y-83420500D01*
X131066365Y-83407381D01*
X131189803Y-83381144D01*
X131362730Y-83304151D01*
X131515871Y-83192888D01*
X131642533Y-83052216D01*
X131648065Y-83042633D01*
X131671748Y-83021864D01*
X131703182Y-83019804D01*
X131729374Y-83037305D01*
X131739500Y-83067134D01*
X131739500Y-90060500D01*
X131725148Y-90095148D01*
X131690500Y-90109500D01*
X129469499Y-90109500D01*
X129434851Y-90095148D01*
X129420499Y-90060500D01*
X129420499Y-89862125D01*
X129414091Y-89802518D01*
X129363795Y-89667667D01*
X129335152Y-89629406D01*
X129277546Y-89552454D01*
X129219938Y-89509328D01*
X129162332Y-89466204D01*
X129027481Y-89415908D01*
X128967875Y-89409500D01*
X126672125Y-89409500D01*
X126612518Y-89415908D01*
X126477667Y-89466204D01*
X126362454Y-89552454D01*
X126276204Y-89667667D01*
X126225908Y-89802518D01*
X126219500Y-89862124D01*
X126219500Y-92157874D01*
X126225908Y-92217481D01*
X126276204Y-92352332D01*
X126288304Y-92368495D01*
X126362454Y-92467546D01*
X126411196Y-92504034D01*
X126477667Y-92553795D01*
X126477668Y-92553795D01*
X126477669Y-92553796D01*
X126612517Y-92604091D01*
X126672127Y-92610500D01*
X128967872Y-92610499D01*
X128967874Y-92610499D01*
X128997677Y-92607295D01*
X129027483Y-92604091D01*
X129162331Y-92553796D01*
X129277546Y-92467546D01*
X129363796Y-92352331D01*
X129414091Y-92217483D01*
X129420500Y-92157873D01*
X129420500Y-91959500D01*
X129434852Y-91924852D01*
X129469500Y-91910500D01*
X131756705Y-91910500D01*
X131791353Y-91924852D01*
X131985666Y-92119165D01*
X131987432Y-92121026D01*
X132020951Y-92158253D01*
X132034129Y-92172888D01*
X132050251Y-92184601D01*
X132056091Y-92189590D01*
X133430409Y-93563908D01*
X133435403Y-93569755D01*
X133447112Y-93585871D01*
X133474437Y-93610475D01*
X133498971Y-93632565D01*
X133500833Y-93634332D01*
X133516617Y-93650117D01*
X133533972Y-93664171D01*
X133535908Y-93665824D01*
X133563991Y-93691110D01*
X133587786Y-93712535D01*
X133605032Y-93722491D01*
X133611372Y-93726848D01*
X133626852Y-93739384D01*
X133689037Y-93771069D01*
X133691292Y-93772293D01*
X133751714Y-93807178D01*
X133751716Y-93807179D01*
X133770663Y-93813334D01*
X133777752Y-93816270D01*
X133795512Y-93825320D01*
X133795514Y-93825320D01*
X133795515Y-93825321D01*
X133813945Y-93830259D01*
X133862924Y-93843383D01*
X133865348Y-93844100D01*
X133931744Y-93865674D01*
X133951550Y-93867755D01*
X133959113Y-93869157D01*
X133965540Y-93870879D01*
X133978354Y-93874313D01*
X134048059Y-93877965D01*
X134050579Y-93878163D01*
X134072808Y-93880500D01*
X134095134Y-93880500D01*
X134097697Y-93880566D01*
X134167388Y-93884219D01*
X134187061Y-93881103D01*
X134194726Y-93880500D01*
X136966742Y-93880500D01*
X136994688Y-93889250D01*
X137012653Y-93912376D01*
X137046204Y-94002333D01*
X137103703Y-94079140D01*
X137132454Y-94117546D01*
X137209406Y-94175152D01*
X137247667Y-94203795D01*
X137247668Y-94203795D01*
X137247669Y-94203796D01*
X137382517Y-94254091D01*
X137442127Y-94260500D01*
X139097872Y-94260499D01*
X139097874Y-94260499D01*
X139127677Y-94257295D01*
X139157483Y-94254091D01*
X139292331Y-94203796D01*
X139407546Y-94117546D01*
X139493796Y-94002331D01*
X139544091Y-93867483D01*
X139550500Y-93807873D01*
X139550499Y-92152128D01*
X139548724Y-92135620D01*
X139544091Y-92092518D01*
X139512505Y-92007832D01*
X139493796Y-91957669D01*
X139407546Y-91842454D01*
X139342370Y-91793663D01*
X139292332Y-91756204D01*
X139157481Y-91705908D01*
X139097875Y-91699500D01*
X137442125Y-91699500D01*
X137382518Y-91705908D01*
X137247667Y-91756204D01*
X137132454Y-91842454D01*
X137046204Y-91957666D01*
X137012653Y-92047624D01*
X136994688Y-92070750D01*
X136966742Y-92079500D01*
X134513295Y-92079500D01*
X134478647Y-92065148D01*
X133554852Y-91141353D01*
X133540500Y-91106705D01*
X133540500Y-78969764D01*
X133540768Y-78964642D01*
X133542145Y-78951536D01*
X133545460Y-78920000D01*
X133526395Y-78738604D01*
X133535484Y-78704685D01*
X133564937Y-78685558D01*
X133679803Y-78661144D01*
X133852730Y-78584151D01*
X133878939Y-78565108D01*
X133911584Y-78555901D01*
X133942388Y-78570102D01*
X135078656Y-79706370D01*
X135092821Y-79736747D01*
X135084147Y-79769122D01*
X135029433Y-79847263D01*
X134933259Y-80053507D01*
X134874365Y-80273303D01*
X134854532Y-80499999D01*
X134874365Y-80726696D01*
X134933260Y-80946495D01*
X135029430Y-81152731D01*
X135029431Y-81152733D01*
X135029432Y-81152734D01*
X135077906Y-81221963D01*
X135159955Y-81339142D01*
X135320857Y-81500044D01*
X135320860Y-81500046D01*
X135320861Y-81500047D01*
X135507266Y-81630568D01*
X135507267Y-81630568D01*
X135507268Y-81630569D01*
X135713504Y-81726739D01*
X135933303Y-81785634D01*
X135933304Y-81785634D01*
X135933308Y-81785635D01*
X136160000Y-81805468D01*
X136386692Y-81785635D01*
X136606496Y-81726739D01*
X136812734Y-81630568D01*
X136999139Y-81500047D01*
X137160047Y-81339139D01*
X137290568Y-81152734D01*
X137332900Y-81061950D01*
X137351491Y-81041014D01*
X137378514Y-81033676D01*
X137405143Y-81042335D01*
X137450491Y-81073636D01*
X137452875Y-81075390D01*
X137501999Y-81113877D01*
X137517448Y-81120829D01*
X137525177Y-81125188D01*
X137539127Y-81134818D01*
X137597480Y-81156948D01*
X137600215Y-81158081D01*
X137626699Y-81170000D01*
X137657125Y-81183694D01*
X137660461Y-81184305D01*
X137673794Y-81186749D01*
X137682339Y-81189130D01*
X137698185Y-81195140D01*
X137760173Y-81202666D01*
X137763045Y-81203103D01*
X137824451Y-81214357D01*
X137882515Y-81210844D01*
X137886745Y-81210589D01*
X137889703Y-81210500D01*
X139959067Y-81210500D01*
X139990562Y-81221963D01*
X140007322Y-81250988D01*
X140002858Y-81276313D01*
X140004413Y-81276818D01*
X140002822Y-81281713D01*
X140002821Y-81281716D01*
X139981325Y-81347873D01*
X139947664Y-81451472D01*
X139944326Y-81461744D01*
X139924540Y-81650000D01*
X139944326Y-81838256D01*
X139998667Y-82005500D01*
X140002822Y-82018286D01*
X140062935Y-82122405D01*
X140069500Y-82146905D01*
X140069500Y-96881787D01*
X140063963Y-96904413D01*
X140048607Y-96921922D01*
X139985814Y-96965891D01*
X139943763Y-96995335D01*
X139785334Y-97153764D01*
X139656817Y-97337307D01*
X139562127Y-97540370D01*
X139504137Y-97756789D01*
X139484609Y-97980000D01*
X139504137Y-98203210D01*
X139562127Y-98419629D01*
X139656817Y-98622693D01*
X139785334Y-98806235D01*
X139943764Y-98964665D01*
X139943767Y-98964667D01*
X140127304Y-99093181D01*
X140127305Y-99093181D01*
X140127306Y-99093182D01*
X140330370Y-99187872D01*
X140546789Y-99245862D01*
X140546790Y-99245862D01*
X140546794Y-99245863D01*
X140770000Y-99265391D01*
X140993206Y-99245863D01*
X141209630Y-99187872D01*
X141412696Y-99093181D01*
X141596233Y-98964667D01*
X141754667Y-98806233D01*
X141883181Y-98622696D01*
X141977872Y-98419630D01*
X142035863Y-98203206D01*
X142055391Y-97980000D01*
X142035863Y-97756794D01*
X141977872Y-97540370D01*
X141883181Y-97337305D01*
X141754667Y-97153767D01*
X141754665Y-97153764D01*
X141596236Y-96995335D01*
X141588099Y-96989637D01*
X141491392Y-96921922D01*
X141476037Y-96904413D01*
X141470500Y-96881787D01*
X141470500Y-94044664D01*
X142558888Y-94044664D01*
X142627556Y-94092747D01*
X142830542Y-94187401D01*
X143046876Y-94245368D01*
X143270000Y-94264888D01*
X143493123Y-94245368D01*
X143709457Y-94187401D01*
X143912443Y-94092747D01*
X143981110Y-94044664D01*
X143981110Y-94044663D01*
X143270000Y-93333553D01*
X142558888Y-94044663D01*
X142558888Y-94044664D01*
X141470500Y-94044664D01*
X141470500Y-92979999D01*
X141985111Y-92979999D01*
X142004631Y-93203123D01*
X142062598Y-93419457D01*
X142157253Y-93622447D01*
X142205332Y-93691110D01*
X142205335Y-93691110D01*
X142916445Y-92980000D01*
X143623553Y-92980000D01*
X144334663Y-93691110D01*
X144334664Y-93691110D01*
X144382747Y-93622443D01*
X144477401Y-93419457D01*
X144535368Y-93203123D01*
X144554888Y-92979999D01*
X144535368Y-92756876D01*
X144477401Y-92540542D01*
X144388550Y-92350000D01*
X149544357Y-92350000D01*
X149563573Y-92581909D01*
X149564892Y-92597820D01*
X149625937Y-92838883D01*
X149695996Y-92998599D01*
X149722424Y-93058850D01*
X149725828Y-93066609D01*
X149807861Y-93192171D01*
X149861836Y-93274785D01*
X149915936Y-93333553D01*
X150030258Y-93457740D01*
X150226492Y-93610475D01*
X150445187Y-93728827D01*
X150445190Y-93728828D01*
X150680386Y-93809571D01*
X150925665Y-93850500D01*
X151174333Y-93850500D01*
X151174335Y-93850500D01*
X151419614Y-93809571D01*
X151654810Y-93728828D01*
X151873509Y-93610474D01*
X152069744Y-93457738D01*
X152238164Y-93274785D01*
X152374173Y-93066607D01*
X152474063Y-92838881D01*
X152535108Y-92597821D01*
X152555643Y-92350000D01*
X152539754Y-92158251D01*
X152542581Y-92137342D01*
X152553937Y-92119561D01*
X153758647Y-90914852D01*
X153793296Y-90900500D01*
X156882283Y-90900500D01*
X156912379Y-90910832D01*
X156929784Y-90937471D01*
X156927156Y-90969183D01*
X156905604Y-90992594D01*
X156726492Y-91089524D01*
X156530258Y-91242259D01*
X156361833Y-91425218D01*
X156225828Y-91633390D01*
X156125937Y-91861116D01*
X156064892Y-92102179D01*
X156063485Y-92119165D01*
X156044357Y-92350000D01*
X156063573Y-92581909D01*
X156064892Y-92597820D01*
X156125937Y-92838883D01*
X156195996Y-92998599D01*
X156222424Y-93058850D01*
X156225828Y-93066609D01*
X156307861Y-93192171D01*
X156361836Y-93274785D01*
X156415936Y-93333553D01*
X156530258Y-93457740D01*
X156726492Y-93610475D01*
X156945187Y-93728827D01*
X156945190Y-93728828D01*
X157180386Y-93809571D01*
X157425665Y-93850500D01*
X157674333Y-93850500D01*
X157674335Y-93850500D01*
X157919614Y-93809571D01*
X158154810Y-93728828D01*
X158373509Y-93610474D01*
X158569744Y-93457738D01*
X158738164Y-93274785D01*
X158874173Y-93066607D01*
X158974063Y-92838881D01*
X159035108Y-92597821D01*
X159055643Y-92350000D01*
X159035108Y-92102179D01*
X158974063Y-91861119D01*
X158874173Y-91633393D01*
X158738164Y-91425215D01*
X158569744Y-91242262D01*
X158569743Y-91242261D01*
X158569741Y-91242259D01*
X158373507Y-91089524D01*
X158194396Y-90992594D01*
X158172844Y-90969183D01*
X158170216Y-90937471D01*
X158187621Y-90910832D01*
X158217717Y-90900500D01*
X159206705Y-90900500D01*
X159225456Y-90904230D01*
X159241353Y-90914852D01*
X160446059Y-92119559D01*
X160457417Y-92137342D01*
X160460244Y-92158253D01*
X160445388Y-92337553D01*
X160444357Y-92350000D01*
X160463573Y-92581909D01*
X160464892Y-92597820D01*
X160525937Y-92838883D01*
X160595996Y-92998599D01*
X160622424Y-93058850D01*
X160625828Y-93066609D01*
X160707861Y-93192171D01*
X160761836Y-93274785D01*
X160815936Y-93333553D01*
X160930258Y-93457740D01*
X161126492Y-93610475D01*
X161345187Y-93728827D01*
X161345190Y-93728828D01*
X161580386Y-93809571D01*
X161825665Y-93850500D01*
X162074333Y-93850500D01*
X162074335Y-93850500D01*
X162319614Y-93809571D01*
X162554810Y-93728828D01*
X162773509Y-93610474D01*
X162969744Y-93457738D01*
X163138164Y-93274785D01*
X163274173Y-93066607D01*
X163374063Y-92838881D01*
X163435108Y-92597821D01*
X163455643Y-92350000D01*
X163439754Y-92158251D01*
X163442581Y-92137342D01*
X163453937Y-92119561D01*
X164658647Y-90914852D01*
X164693296Y-90900500D01*
X167782283Y-90900500D01*
X167812379Y-90910832D01*
X167829784Y-90937471D01*
X167827156Y-90969183D01*
X167805604Y-90992594D01*
X167626492Y-91089524D01*
X167430258Y-91242259D01*
X167261833Y-91425218D01*
X167125828Y-91633390D01*
X167025937Y-91861116D01*
X166964892Y-92102179D01*
X166963485Y-92119165D01*
X166944357Y-92350000D01*
X166963573Y-92581909D01*
X166964892Y-92597820D01*
X167025937Y-92838883D01*
X167095996Y-92998599D01*
X167122424Y-93058850D01*
X167125828Y-93066609D01*
X167207861Y-93192171D01*
X167261836Y-93274785D01*
X167315936Y-93333553D01*
X167430258Y-93457740D01*
X167626492Y-93610475D01*
X167845187Y-93728827D01*
X167845190Y-93728828D01*
X168080386Y-93809571D01*
X168325665Y-93850500D01*
X168574333Y-93850500D01*
X168574335Y-93850500D01*
X168819614Y-93809571D01*
X169054810Y-93728828D01*
X169273509Y-93610474D01*
X169469744Y-93457738D01*
X169638164Y-93274785D01*
X169774173Y-93066607D01*
X169874063Y-92838881D01*
X169935108Y-92597821D01*
X169955643Y-92350000D01*
X169935108Y-92102179D01*
X169874063Y-91861119D01*
X169774173Y-91633393D01*
X169638164Y-91425215D01*
X169469744Y-91242262D01*
X169469743Y-91242261D01*
X169469741Y-91242259D01*
X169273507Y-91089524D01*
X169094396Y-90992594D01*
X169072844Y-90969183D01*
X169070216Y-90937471D01*
X169087621Y-90910832D01*
X169117717Y-90900500D01*
X170306705Y-90900500D01*
X170325456Y-90904230D01*
X170341353Y-90914852D01*
X171546059Y-92119559D01*
X171557417Y-92137342D01*
X171560244Y-92158253D01*
X171545388Y-92337553D01*
X171544357Y-92350000D01*
X171563573Y-92581909D01*
X171564892Y-92597820D01*
X171625937Y-92838883D01*
X171695996Y-92998599D01*
X171722424Y-93058850D01*
X171725828Y-93066609D01*
X171807861Y-93192171D01*
X171861836Y-93274785D01*
X171915936Y-93333553D01*
X172030258Y-93457740D01*
X172226492Y-93610475D01*
X172445187Y-93728827D01*
X172445190Y-93728828D01*
X172680386Y-93809571D01*
X172925665Y-93850500D01*
X173174333Y-93850500D01*
X173174335Y-93850500D01*
X173419614Y-93809571D01*
X173654810Y-93728828D01*
X173873509Y-93610474D01*
X174069744Y-93457738D01*
X174238164Y-93274785D01*
X174374173Y-93066607D01*
X174474063Y-92838881D01*
X174535108Y-92597821D01*
X174555643Y-92350000D01*
X178044357Y-92350000D01*
X178063573Y-92581909D01*
X178064892Y-92597820D01*
X178125937Y-92838883D01*
X178195996Y-92998599D01*
X178222424Y-93058850D01*
X178225828Y-93066609D01*
X178307861Y-93192171D01*
X178361836Y-93274785D01*
X178415936Y-93333553D01*
X178530258Y-93457740D01*
X178726492Y-93610475D01*
X178945187Y-93728827D01*
X178945190Y-93728828D01*
X179180386Y-93809571D01*
X179425665Y-93850500D01*
X179674333Y-93850500D01*
X179674335Y-93850500D01*
X179919614Y-93809571D01*
X180154810Y-93728828D01*
X180373509Y-93610474D01*
X180569744Y-93457738D01*
X180738164Y-93274785D01*
X180874173Y-93066607D01*
X180974063Y-92838881D01*
X181035108Y-92597821D01*
X181055643Y-92350000D01*
X181035108Y-92102179D01*
X180974063Y-91861119D01*
X180874173Y-91633393D01*
X180738164Y-91425215D01*
X180569744Y-91242262D01*
X180569743Y-91242261D01*
X180569741Y-91242259D01*
X180373507Y-91089524D01*
X180154812Y-90971172D01*
X179979046Y-90910832D01*
X179919614Y-90890429D01*
X179674335Y-90849500D01*
X179425665Y-90849500D01*
X179180386Y-90890429D01*
X179180383Y-90890429D01*
X179180383Y-90890430D01*
X178945187Y-90971172D01*
X178726492Y-91089524D01*
X178530258Y-91242259D01*
X178361833Y-91425218D01*
X178225828Y-91633390D01*
X178125937Y-91861116D01*
X178064892Y-92102179D01*
X178063485Y-92119165D01*
X178044357Y-92350000D01*
X174555643Y-92350000D01*
X174535108Y-92102179D01*
X174474063Y-91861119D01*
X174374173Y-91633393D01*
X174238164Y-91425215D01*
X174069744Y-91242262D01*
X174069743Y-91242261D01*
X174069741Y-91242259D01*
X173873507Y-91089524D01*
X173654812Y-90971172D01*
X173479046Y-90910832D01*
X173419614Y-90890429D01*
X173174335Y-90849500D01*
X172925665Y-90849500D01*
X172862557Y-90860029D01*
X172839543Y-90858361D01*
X172819845Y-90846345D01*
X171389590Y-89416091D01*
X171384601Y-89410251D01*
X171372888Y-89394129D01*
X171321025Y-89347431D01*
X171319165Y-89345666D01*
X171303381Y-89329881D01*
X171286025Y-89315826D01*
X171284076Y-89314161D01*
X171232216Y-89267467D01*
X171214966Y-89257508D01*
X171208628Y-89253152D01*
X171193151Y-89240618D01*
X171192061Y-89240062D01*
X171130943Y-89208921D01*
X171128720Y-89207714D01*
X171128713Y-89207710D01*
X171068284Y-89172821D01*
X171049334Y-89166664D01*
X171042236Y-89163723D01*
X171035602Y-89160343D01*
X171024487Y-89154679D01*
X170957081Y-89136617D01*
X170954623Y-89135889D01*
X170888253Y-89114325D01*
X170868441Y-89112242D01*
X170860888Y-89110843D01*
X170841646Y-89105687D01*
X170803837Y-89103705D01*
X170771951Y-89102034D01*
X170769396Y-89101833D01*
X170766428Y-89101521D01*
X170747192Y-89099500D01*
X170747190Y-89099500D01*
X170724866Y-89099500D01*
X170722302Y-89099433D01*
X170712074Y-89098897D01*
X170652612Y-89095781D01*
X170652611Y-89095781D01*
X170632938Y-89098897D01*
X170625274Y-89099500D01*
X164374726Y-89099500D01*
X164367062Y-89098897D01*
X164347388Y-89095781D01*
X164277699Y-89099433D01*
X164275135Y-89099500D01*
X164252808Y-89099500D01*
X164246204Y-89100193D01*
X164230601Y-89101833D01*
X164228047Y-89102034D01*
X164158352Y-89105687D01*
X164139107Y-89110843D01*
X164131552Y-89112243D01*
X164111745Y-89114325D01*
X164045373Y-89135890D01*
X164042915Y-89136618D01*
X163975512Y-89154679D01*
X163957760Y-89163724D01*
X163950662Y-89166664D01*
X163931716Y-89172821D01*
X163871284Y-89207710D01*
X163869031Y-89208933D01*
X163806852Y-89240615D01*
X163791367Y-89253154D01*
X163785034Y-89257506D01*
X163767782Y-89267467D01*
X163715934Y-89314151D01*
X163713987Y-89315815D01*
X163696615Y-89329884D01*
X163680830Y-89345668D01*
X163678973Y-89347431D01*
X163627113Y-89394128D01*
X163615402Y-89410245D01*
X163610410Y-89416088D01*
X162180153Y-90846345D01*
X162160455Y-90858361D01*
X162137441Y-90860029D01*
X162074335Y-90849500D01*
X161825665Y-90849500D01*
X161762557Y-90860029D01*
X161739543Y-90858361D01*
X161719845Y-90846345D01*
X160289590Y-89416091D01*
X160284601Y-89410251D01*
X160272888Y-89394129D01*
X160221025Y-89347431D01*
X160219165Y-89345666D01*
X160203381Y-89329881D01*
X160186025Y-89315826D01*
X160184076Y-89314161D01*
X160132216Y-89267467D01*
X160114966Y-89257508D01*
X160108628Y-89253152D01*
X160093151Y-89240618D01*
X160092061Y-89240062D01*
X160030943Y-89208921D01*
X160028720Y-89207714D01*
X160028713Y-89207710D01*
X159968284Y-89172821D01*
X159949334Y-89166664D01*
X159942236Y-89163723D01*
X159935602Y-89160343D01*
X159924487Y-89154679D01*
X159857081Y-89136617D01*
X159854623Y-89135889D01*
X159788253Y-89114325D01*
X159768441Y-89112242D01*
X159760888Y-89110843D01*
X159741646Y-89105687D01*
X159703837Y-89103705D01*
X159671951Y-89102034D01*
X159669396Y-89101833D01*
X159666428Y-89101521D01*
X159647192Y-89099500D01*
X159647190Y-89099500D01*
X159624866Y-89099500D01*
X159622302Y-89099433D01*
X159612074Y-89098897D01*
X159552612Y-89095781D01*
X159552611Y-89095781D01*
X159532938Y-89098897D01*
X159525274Y-89099500D01*
X153474726Y-89099500D01*
X153467062Y-89098897D01*
X153447388Y-89095781D01*
X153377699Y-89099433D01*
X153375135Y-89099500D01*
X153352808Y-89099500D01*
X153346204Y-89100193D01*
X153330601Y-89101833D01*
X153328047Y-89102034D01*
X153258352Y-89105687D01*
X153239107Y-89110843D01*
X153231552Y-89112243D01*
X153211745Y-89114325D01*
X153145373Y-89135890D01*
X153142915Y-89136618D01*
X153075512Y-89154679D01*
X153057760Y-89163724D01*
X153050662Y-89166664D01*
X153031716Y-89172821D01*
X152971284Y-89207710D01*
X152969031Y-89208933D01*
X152906852Y-89240615D01*
X152891367Y-89253154D01*
X152885034Y-89257506D01*
X152867782Y-89267467D01*
X152815934Y-89314151D01*
X152813987Y-89315815D01*
X152796615Y-89329884D01*
X152780830Y-89345668D01*
X152778973Y-89347431D01*
X152727113Y-89394128D01*
X152715402Y-89410245D01*
X152710410Y-89416088D01*
X151280153Y-90846345D01*
X151260455Y-90858361D01*
X151237441Y-90860029D01*
X151174335Y-90849500D01*
X150925665Y-90849500D01*
X150680386Y-90890429D01*
X150680383Y-90890429D01*
X150680383Y-90890430D01*
X150445187Y-90971172D01*
X150226492Y-91089524D01*
X150030258Y-91242259D01*
X149861833Y-91425218D01*
X149725828Y-91633390D01*
X149625937Y-91861116D01*
X149564892Y-92102179D01*
X149563485Y-92119165D01*
X149544357Y-92350000D01*
X144388550Y-92350000D01*
X144382746Y-92337553D01*
X144334666Y-92268888D01*
X144334663Y-92268888D01*
X143623553Y-92980000D01*
X142916445Y-92980000D01*
X142916446Y-92979999D01*
X142205334Y-92268888D01*
X142157252Y-92337558D01*
X142062598Y-92540543D01*
X142004631Y-92756876D01*
X141985111Y-92979999D01*
X141470500Y-92979999D01*
X141470500Y-91915334D01*
X142558888Y-91915334D01*
X143270000Y-92626446D01*
X143981110Y-91915335D01*
X143981110Y-91915332D01*
X143912447Y-91867253D01*
X143709457Y-91772598D01*
X143493123Y-91714631D01*
X143270000Y-91695111D01*
X143046876Y-91714631D01*
X142830543Y-91772598D01*
X142627558Y-91867252D01*
X142558888Y-91915334D01*
X141470500Y-91915334D01*
X141470500Y-83400000D01*
X150294540Y-83400000D01*
X150314326Y-83588256D01*
X150371977Y-83765687D01*
X150372822Y-83768286D01*
X150467467Y-83932216D01*
X150592478Y-84071055D01*
X150594129Y-84072888D01*
X150632134Y-84100500D01*
X150747268Y-84184150D01*
X150747269Y-84184150D01*
X150747270Y-84184151D01*
X150920197Y-84261144D01*
X150993265Y-84276675D01*
X151105353Y-84300500D01*
X151105354Y-84300500D01*
X151294646Y-84300500D01*
X151294647Y-84300500D01*
X151356365Y-84287381D01*
X151479803Y-84261144D01*
X151652730Y-84184151D01*
X151754985Y-84109858D01*
X151783787Y-84100500D01*
X153985055Y-84100500D01*
X153985056Y-84100500D01*
X154023638Y-84090989D01*
X154029432Y-84089928D01*
X154068872Y-84085140D01*
X154088423Y-84077725D01*
X154106011Y-84071055D01*
X154111655Y-84069296D01*
X154150225Y-84059790D01*
X154185415Y-84041320D01*
X154190779Y-84038906D01*
X154227930Y-84024818D01*
X154260627Y-84002247D01*
X154265682Y-83999191D01*
X154300852Y-83980734D01*
X154330587Y-83954390D01*
X154335227Y-83950755D01*
X154367929Y-83928183D01*
X154394276Y-83898441D01*
X154398441Y-83894276D01*
X154428183Y-83867929D01*
X154450755Y-83835227D01*
X154454390Y-83830587D01*
X154480734Y-83800852D01*
X154499191Y-83765682D01*
X154502247Y-83760627D01*
X154524818Y-83727930D01*
X154538906Y-83690779D01*
X154541320Y-83685415D01*
X154559790Y-83650225D01*
X154569296Y-83611655D01*
X154571055Y-83606011D01*
X154585139Y-83568874D01*
X154585138Y-83568874D01*
X154585140Y-83568872D01*
X154589928Y-83529432D01*
X154590989Y-83523638D01*
X154600500Y-83485056D01*
X154600500Y-83314944D01*
X154600500Y-83080000D01*
X175095000Y-83080000D01*
X175095000Y-83552830D01*
X175101401Y-83612372D01*
X175151648Y-83747091D01*
X175237811Y-83862188D01*
X175352908Y-83948351D01*
X175487627Y-83998598D01*
X175547170Y-84005000D01*
X176020000Y-84005000D01*
X176020000Y-83080000D01*
X176520000Y-83080000D01*
X176520000Y-84005000D01*
X176992830Y-84005000D01*
X177052372Y-83998598D01*
X177187091Y-83948351D01*
X177302188Y-83862188D01*
X177388351Y-83747091D01*
X177438598Y-83612372D01*
X177445000Y-83552830D01*
X177445000Y-83080000D01*
X176520000Y-83080000D01*
X176020000Y-83080000D01*
X175095000Y-83080000D01*
X154600500Y-83080000D01*
X154600500Y-81180000D01*
X164034356Y-81180000D01*
X164054885Y-81401538D01*
X164115769Y-81615525D01*
X164214941Y-81814688D01*
X164214942Y-81814689D01*
X164314574Y-81946624D01*
X164349020Y-81992237D01*
X164513434Y-82142121D01*
X164513436Y-82142122D01*
X164513438Y-82142124D01*
X164702599Y-82259247D01*
X164910060Y-82339618D01*
X165128757Y-82380500D01*
X165351241Y-82380500D01*
X165351243Y-82380500D01*
X165569940Y-82339618D01*
X165777401Y-82259247D01*
X165966562Y-82142124D01*
X166130981Y-81992236D01*
X166265058Y-81814689D01*
X166364229Y-81615528D01*
X166425115Y-81401536D01*
X166445643Y-81180000D01*
X166425115Y-80958464D01*
X166364229Y-80744472D01*
X166265058Y-80545311D01*
X166200396Y-80459685D01*
X166190500Y-80430157D01*
X166190500Y-79546054D01*
X166200397Y-79516525D01*
X166244843Y-79457669D01*
X166315058Y-79364689D01*
X166414229Y-79165528D01*
X166415488Y-79161105D01*
X166475114Y-78951539D01*
X166475114Y-78951538D01*
X166475115Y-78951536D01*
X166487080Y-78822400D01*
X166501222Y-78792276D01*
X167548647Y-77744852D01*
X167583296Y-77730500D01*
X172097954Y-77730500D01*
X172125646Y-77739075D01*
X172143645Y-77761799D01*
X172145652Y-77790719D01*
X172130965Y-77815711D01*
X172019020Y-77917762D01*
X171884941Y-78095311D01*
X171785769Y-78294474D01*
X171724885Y-78508461D01*
X171704356Y-78730000D01*
X171724885Y-78951538D01*
X171785769Y-79165525D01*
X171884941Y-79364688D01*
X172019020Y-79542237D01*
X172183434Y-79692121D01*
X172183436Y-79692122D01*
X172183438Y-79692124D01*
X172372599Y-79809247D01*
X172580060Y-79889618D01*
X172647161Y-79902161D01*
X172675852Y-79919022D01*
X172687155Y-79950326D01*
X172675853Y-79981629D01*
X172647159Y-79998492D01*
X172617353Y-80004064D01*
X172530060Y-80020382D01*
X172530057Y-80020382D01*
X172530057Y-80020383D01*
X172322600Y-80100752D01*
X172133434Y-80217878D01*
X171969020Y-80367762D01*
X171834941Y-80545311D01*
X171735769Y-80744474D01*
X171674885Y-80958461D01*
X171654356Y-81180000D01*
X171674885Y-81401538D01*
X171735769Y-81615525D01*
X171834941Y-81814688D01*
X171834942Y-81814689D01*
X171934574Y-81946624D01*
X171969020Y-81992237D01*
X172133434Y-82142121D01*
X172133436Y-82142122D01*
X172133438Y-82142124D01*
X172322599Y-82259247D01*
X172530060Y-82339618D01*
X172748757Y-82380500D01*
X172971241Y-82380500D01*
X172971243Y-82380500D01*
X173189940Y-82339618D01*
X173397401Y-82259247D01*
X173586562Y-82142124D01*
X173750981Y-81992236D01*
X173820656Y-81899970D01*
X173837918Y-81885637D01*
X173859759Y-81880500D01*
X175093163Y-81880500D01*
X175122528Y-81890273D01*
X175140178Y-81915695D01*
X175139074Y-81946624D01*
X175101401Y-82047627D01*
X175095000Y-82107170D01*
X175095000Y-82580000D01*
X177445000Y-82580000D01*
X177445000Y-82107170D01*
X177438598Y-82047627D01*
X177388351Y-81912908D01*
X177302188Y-81797811D01*
X177187088Y-81711646D01*
X177162976Y-81702653D01*
X177139482Y-81684151D01*
X177131117Y-81655440D01*
X177140997Y-81627214D01*
X177142423Y-81625325D01*
X177142427Y-81625322D01*
X177273712Y-81451472D01*
X177370817Y-81256459D01*
X177430435Y-81046923D01*
X177450536Y-80830000D01*
X177430435Y-80613077D01*
X177396035Y-80492173D01*
X177370818Y-80403543D01*
X177273712Y-80208528D01*
X177142428Y-80034678D01*
X177043406Y-79944409D01*
X176981432Y-79887912D01*
X176981429Y-79887910D01*
X176955184Y-79871659D01*
X176934765Y-79846283D01*
X176934766Y-79813712D01*
X176955183Y-79788339D01*
X176981432Y-79772088D01*
X177142427Y-79625322D01*
X177273712Y-79451472D01*
X177370817Y-79256459D01*
X177374206Y-79244550D01*
X177417136Y-79093663D01*
X177430435Y-79046923D01*
X177450536Y-78830000D01*
X177430435Y-78613077D01*
X177392095Y-78478324D01*
X177370818Y-78403543D01*
X177273712Y-78208528D01*
X177142428Y-78034678D01*
X177088762Y-77985756D01*
X176981432Y-77887912D01*
X176955182Y-77871659D01*
X176934764Y-77846285D01*
X176934764Y-77813715D01*
X176955182Y-77788340D01*
X176981432Y-77772088D01*
X177142427Y-77625322D01*
X177273712Y-77451472D01*
X177370817Y-77256459D01*
X177371033Y-77255702D01*
X177403753Y-77140699D01*
X177430435Y-77046923D01*
X177439408Y-76950072D01*
X177453550Y-76919947D01*
X178943912Y-75429585D01*
X178949746Y-75424602D01*
X178965871Y-75412888D01*
X179012586Y-75361004D01*
X179014314Y-75359183D01*
X179030119Y-75343380D01*
X179044193Y-75325998D01*
X179045807Y-75324109D01*
X179092533Y-75272216D01*
X179102495Y-75254957D01*
X179106848Y-75248627D01*
X179107276Y-75248097D01*
X179119383Y-75233149D01*
X179151073Y-75170950D01*
X179152269Y-75168747D01*
X179187179Y-75108284D01*
X179193335Y-75089332D01*
X179196271Y-75082243D01*
X179205320Y-75064488D01*
X179223391Y-74997040D01*
X179224100Y-74994647D01*
X179245674Y-74928256D01*
X179247756Y-74908434D01*
X179249156Y-74900883D01*
X179254312Y-74881646D01*
X179257964Y-74811947D01*
X179258162Y-74809433D01*
X179260500Y-74787192D01*
X179260500Y-74764859D01*
X179260567Y-74762295D01*
X179262572Y-74724034D01*
X179264219Y-74692612D01*
X179261103Y-74672938D01*
X179260500Y-74665274D01*
X179260500Y-70824727D01*
X179261103Y-70817063D01*
X179263805Y-70800000D01*
X179264219Y-70797389D01*
X179260566Y-70727698D01*
X179260500Y-70725135D01*
X179260500Y-70702812D01*
X179258165Y-70680597D01*
X179257965Y-70678058D01*
X179254313Y-70608355D01*
X179249157Y-70589114D01*
X179247756Y-70581557D01*
X179245674Y-70561744D01*
X179224098Y-70495343D01*
X179223381Y-70492919D01*
X179205320Y-70425513D01*
X179196274Y-70407761D01*
X179193334Y-70400661D01*
X179187179Y-70381716D01*
X179165961Y-70344966D01*
X179152297Y-70321298D01*
X179151073Y-70319044D01*
X179135385Y-70288256D01*
X179119384Y-70256851D01*
X179115426Y-70251963D01*
X179106845Y-70241366D01*
X179102490Y-70235030D01*
X179092532Y-70217783D01*
X179045841Y-70165927D01*
X179044175Y-70163977D01*
X179036491Y-70154488D01*
X179030120Y-70146620D01*
X179014323Y-70130823D01*
X179012557Y-70128962D01*
X178965870Y-70077110D01*
X178949754Y-70065401D01*
X178943908Y-70060408D01*
X177898147Y-69014647D01*
X177883795Y-68979999D01*
X177898147Y-68945351D01*
X178439622Y-68403876D01*
X179023915Y-67819583D01*
X179029758Y-67814594D01*
X179045871Y-67802888D01*
X179092577Y-67751014D01*
X179094304Y-67749194D01*
X179110120Y-67733380D01*
X179124185Y-67716009D01*
X179125817Y-67714097D01*
X179172533Y-67662216D01*
X179182495Y-67644959D01*
X179186839Y-67638637D01*
X179199383Y-67623149D01*
X179231083Y-67560931D01*
X179232256Y-67558771D01*
X179267179Y-67498284D01*
X179273337Y-67479328D01*
X179276276Y-67472235D01*
X179285318Y-67454490D01*
X179285320Y-67454487D01*
X179303391Y-67387043D01*
X179304095Y-67384666D01*
X179325674Y-67318256D01*
X179327756Y-67298439D01*
X179329158Y-67290882D01*
X179334313Y-67271645D01*
X179337965Y-67201936D01*
X179338166Y-67199399D01*
X179340500Y-67177196D01*
X179340500Y-67154865D01*
X179340567Y-67152301D01*
X179343096Y-67104033D01*
X179344219Y-67082612D01*
X179341103Y-67062938D01*
X179340500Y-67055274D01*
X179340500Y-54344726D01*
X179341103Y-54337062D01*
X179341206Y-54336405D01*
X179344219Y-54317388D01*
X179340566Y-54247703D01*
X179340500Y-54245141D01*
X179340500Y-54222812D01*
X179338164Y-54200587D01*
X179337963Y-54198029D01*
X179334312Y-54128354D01*
X179329158Y-54109120D01*
X179327756Y-54101559D01*
X179325674Y-54081744D01*
X179304096Y-54015336D01*
X179303386Y-54012939D01*
X179285320Y-53945512D01*
X179276270Y-53927752D01*
X179273334Y-53920663D01*
X179267179Y-53901716D01*
X179251413Y-53874409D01*
X179232293Y-53841292D01*
X179231069Y-53839037D01*
X179199384Y-53776852D01*
X179186848Y-53761372D01*
X179182491Y-53755032D01*
X179172535Y-53737786D01*
X179161916Y-53725992D01*
X179125824Y-53685908D01*
X179124171Y-53683972D01*
X179110117Y-53666617D01*
X179094332Y-53650833D01*
X179092565Y-53648971D01*
X179045871Y-53597112D01*
X179029755Y-53585403D01*
X179023908Y-53580409D01*
X177533551Y-52090052D01*
X177519408Y-52059926D01*
X177510435Y-51963077D01*
X177494556Y-51907268D01*
X177450818Y-51753543D01*
X177353712Y-51558528D01*
X177221312Y-51383201D01*
X177211432Y-51354974D01*
X177219798Y-51326263D01*
X177243292Y-51307761D01*
X177267331Y-51298796D01*
X177382546Y-51212546D01*
X177468796Y-51097331D01*
X177519091Y-50962483D01*
X177525500Y-50902873D01*
X177525499Y-49457128D01*
X177523452Y-49438090D01*
X177519091Y-49397518D01*
X177510912Y-49375590D01*
X177468796Y-49262669D01*
X177382546Y-49147454D01*
X177318488Y-49099500D01*
X177267332Y-49061204D01*
X177132481Y-49010908D01*
X177072875Y-49004500D01*
X175627125Y-49004500D01*
X175567518Y-49010908D01*
X175432667Y-49061204D01*
X175317454Y-49147454D01*
X175231204Y-49262667D01*
X175180908Y-49397518D01*
X175174500Y-49457124D01*
X175174500Y-50902874D01*
X175180908Y-50962481D01*
X175231204Y-51097332D01*
X175263145Y-51139999D01*
X175317454Y-51212546D01*
X175383343Y-51261870D01*
X175432668Y-51298796D01*
X175456706Y-51307761D01*
X175480201Y-51326263D01*
X175488567Y-51354975D01*
X175478687Y-51383201D01*
X175346287Y-51558528D01*
X175249181Y-51753543D01*
X175189565Y-51963074D01*
X175169463Y-52179999D01*
X175189565Y-52396925D01*
X175249181Y-52606456D01*
X175346287Y-52801471D01*
X175477571Y-52975321D01*
X175638569Y-53122089D01*
X175665290Y-53138634D01*
X175685709Y-53164009D01*
X175685709Y-53196579D01*
X175665290Y-53221954D01*
X175638873Y-53238311D01*
X175477942Y-53385016D01*
X175346714Y-53558792D01*
X175249650Y-53753723D01*
X175199494Y-53929999D01*
X175199495Y-53930000D01*
X176551000Y-53930000D01*
X176585648Y-53944352D01*
X176600000Y-53979000D01*
X176600000Y-55328619D01*
X176672934Y-55314985D01*
X176875984Y-55236323D01*
X177061128Y-55121686D01*
X177222057Y-54974983D01*
X177353285Y-54801207D01*
X177437421Y-54632238D01*
X177458770Y-54610558D01*
X177488800Y-54605659D01*
X177515932Y-54619431D01*
X177525148Y-54628647D01*
X177539500Y-54663295D01*
X177539500Y-57330732D01*
X177530244Y-57359392D01*
X177505974Y-57377224D01*
X177475858Y-57377493D01*
X177451274Y-57360097D01*
X177382188Y-57267811D01*
X177267091Y-57181648D01*
X177132372Y-57131401D01*
X177072830Y-57125000D01*
X176600000Y-57125000D01*
X176600000Y-58501000D01*
X176585648Y-58535648D01*
X176551000Y-58550000D01*
X175175000Y-58550000D01*
X175175000Y-59022830D01*
X175181401Y-59082372D01*
X175231648Y-59217091D01*
X175317811Y-59332188D01*
X175432908Y-59418352D01*
X175457022Y-59427346D01*
X175480516Y-59445849D01*
X175488881Y-59474560D01*
X175479001Y-59502786D01*
X175346287Y-59678528D01*
X175249181Y-59873543D01*
X175189565Y-60083074D01*
X175169463Y-60299999D01*
X175189565Y-60516925D01*
X175249181Y-60726456D01*
X175346287Y-60921471D01*
X175477571Y-61095321D01*
X175638569Y-61242089D01*
X175664815Y-61258340D01*
X175685234Y-61283715D01*
X175685234Y-61316285D01*
X175664815Y-61341660D01*
X175638569Y-61357910D01*
X175477571Y-61504678D01*
X175346287Y-61678528D01*
X175249181Y-61873543D01*
X175189565Y-62083074D01*
X175169463Y-62299999D01*
X175189565Y-62516925D01*
X175249181Y-62726456D01*
X175346287Y-62921471D01*
X175477571Y-63095321D01*
X175542326Y-63154352D01*
X175638568Y-63242088D01*
X175823790Y-63356772D01*
X176026931Y-63435470D01*
X176241074Y-63475500D01*
X176458924Y-63475500D01*
X176458926Y-63475500D01*
X176673069Y-63435470D01*
X176876210Y-63356772D01*
X177061432Y-63242088D01*
X177222427Y-63095322D01*
X177353712Y-62921472D01*
X177446636Y-62734854D01*
X177469678Y-62712339D01*
X177501719Y-62708997D01*
X177528910Y-62726271D01*
X177539500Y-62756695D01*
X177539500Y-65776613D01*
X177530245Y-65805273D01*
X177505975Y-65823105D01*
X177475859Y-65823374D01*
X177451274Y-65805978D01*
X177392846Y-65727930D01*
X177362546Y-65687454D01*
X177304938Y-65644328D01*
X177247332Y-65601204D01*
X177112481Y-65550908D01*
X177052875Y-65544500D01*
X175607125Y-65544500D01*
X175547518Y-65550908D01*
X175412667Y-65601204D01*
X175297454Y-65687454D01*
X175211204Y-65802667D01*
X175160908Y-65937518D01*
X175154500Y-65997124D01*
X175154500Y-67442874D01*
X175160908Y-67502481D01*
X175211204Y-67637332D01*
X175233306Y-67666856D01*
X175297454Y-67752546D01*
X175350386Y-67792171D01*
X175412668Y-67838796D01*
X175436706Y-67847761D01*
X175460201Y-67866263D01*
X175468567Y-67894975D01*
X175458687Y-67923201D01*
X175326287Y-68098528D01*
X175229181Y-68293543D01*
X175169565Y-68503074D01*
X175149463Y-68720000D01*
X175169565Y-68936925D01*
X175229181Y-69146456D01*
X175326287Y-69341471D01*
X175457571Y-69515321D01*
X175618569Y-69662089D01*
X175645290Y-69678634D01*
X175665709Y-69704009D01*
X175665709Y-69736579D01*
X175645290Y-69761954D01*
X175618873Y-69778311D01*
X175457942Y-69925016D01*
X175326714Y-70098792D01*
X175229650Y-70293723D01*
X175179494Y-70469999D01*
X175179495Y-70470000D01*
X176531000Y-70470000D01*
X176565648Y-70484352D01*
X176580000Y-70519000D01*
X176580000Y-71868619D01*
X176652934Y-71854985D01*
X176855984Y-71776323D01*
X177041128Y-71661686D01*
X177202057Y-71514983D01*
X177333285Y-71341207D01*
X177366637Y-71274228D01*
X177389678Y-71251713D01*
X177421719Y-71248371D01*
X177448910Y-71265645D01*
X177459500Y-71296069D01*
X177459500Y-74346705D01*
X177455770Y-74365456D01*
X177445148Y-74381353D01*
X176185242Y-75641258D01*
X176159598Y-75654775D01*
X175946931Y-75694530D01*
X175946928Y-75694530D01*
X175946928Y-75694531D01*
X175743791Y-75773227D01*
X175558565Y-75887914D01*
X175526977Y-75916711D01*
X175493966Y-75929500D01*
X167264726Y-75929500D01*
X167257062Y-75928897D01*
X167237388Y-75925781D01*
X167167699Y-75929433D01*
X167165135Y-75929500D01*
X167142808Y-75929500D01*
X167136204Y-75930193D01*
X167120601Y-75931833D01*
X167118047Y-75932034D01*
X167048352Y-75935687D01*
X167029107Y-75940843D01*
X167021552Y-75942243D01*
X167001745Y-75944325D01*
X166935373Y-75965890D01*
X166932915Y-75966618D01*
X166865512Y-75984679D01*
X166847760Y-75993724D01*
X166840662Y-75996664D01*
X166821716Y-76002821D01*
X166761284Y-76037710D01*
X166759031Y-76038933D01*
X166696852Y-76070615D01*
X166681367Y-76083154D01*
X166675034Y-76087506D01*
X166657782Y-76097467D01*
X166605934Y-76144151D01*
X166603987Y-76145815D01*
X166586615Y-76159884D01*
X166570830Y-76175668D01*
X166568973Y-76177431D01*
X166517113Y-76224128D01*
X166505402Y-76240245D01*
X166500410Y-76246088D01*
X165231353Y-77515148D01*
X165215457Y-77525770D01*
X165196705Y-77529500D01*
X165178757Y-77529500D01*
X164960060Y-77570382D01*
X164960057Y-77570382D01*
X164960057Y-77570383D01*
X164752600Y-77650752D01*
X164563434Y-77767878D01*
X164399020Y-77917762D01*
X164264941Y-78095311D01*
X164165769Y-78294474D01*
X164104885Y-78508461D01*
X164084356Y-78730000D01*
X164104885Y-78951538D01*
X164165769Y-79165525D01*
X164264941Y-79364688D01*
X164379603Y-79516525D01*
X164389500Y-79546054D01*
X164389500Y-80309225D01*
X164385325Y-80329017D01*
X164373511Y-80345437D01*
X164349017Y-80367765D01*
X164214941Y-80545311D01*
X164115769Y-80744474D01*
X164054885Y-80958461D01*
X164034356Y-81180000D01*
X154600500Y-81180000D01*
X154600500Y-78310453D01*
X154614852Y-78275805D01*
X156793190Y-76097467D01*
X158978683Y-73911973D01*
X159003139Y-73898694D01*
X159179803Y-73861144D01*
X159352730Y-73784151D01*
X159505871Y-73672888D01*
X159632533Y-73532216D01*
X159727179Y-73368284D01*
X159785674Y-73188256D01*
X159805460Y-73000000D01*
X159785674Y-72811744D01*
X159727179Y-72631716D01*
X159632533Y-72467784D01*
X159505871Y-72327112D01*
X159501769Y-72324132D01*
X159352731Y-72215849D01*
X159179801Y-72138855D01*
X158994647Y-72099500D01*
X158994646Y-72099500D01*
X158805354Y-72099500D01*
X158805353Y-72099500D01*
X158620198Y-72138855D01*
X158447268Y-72215849D01*
X158294128Y-72327112D01*
X158167467Y-72467783D01*
X158072822Y-72631713D01*
X158014325Y-72811747D01*
X158006357Y-72887542D01*
X157992274Y-72917067D01*
X153420684Y-77488657D01*
X153418530Y-77490685D01*
X153371817Y-77532070D01*
X153336358Y-77583438D01*
X153334606Y-77585819D01*
X153296121Y-77634943D01*
X153289166Y-77650396D01*
X153284811Y-77658118D01*
X153275182Y-77672067D01*
X153253051Y-77730422D01*
X153251918Y-77733156D01*
X153226304Y-77790068D01*
X153223248Y-77806745D01*
X153220867Y-77815287D01*
X153214859Y-77831127D01*
X153207338Y-77893065D01*
X153206893Y-77895989D01*
X153195642Y-77957393D01*
X153199411Y-78019698D01*
X153199500Y-78022657D01*
X153199500Y-82650500D01*
X153185148Y-82685148D01*
X153150500Y-82699500D01*
X151783787Y-82699500D01*
X151754986Y-82690142D01*
X151652731Y-82615849D01*
X151479801Y-82538855D01*
X151294647Y-82499500D01*
X151294646Y-82499500D01*
X151105354Y-82499500D01*
X151105353Y-82499500D01*
X150920198Y-82538855D01*
X150747268Y-82615849D01*
X150594128Y-82727112D01*
X150467467Y-82867783D01*
X150372822Y-83031713D01*
X150314326Y-83211743D01*
X150303479Y-83314944D01*
X150294540Y-83400000D01*
X141470500Y-83400000D01*
X141470500Y-82303238D01*
X141483086Y-82270451D01*
X141538871Y-82208495D01*
X141562533Y-82182216D01*
X141657179Y-82018284D01*
X141715674Y-81838256D01*
X141735460Y-81650000D01*
X141715674Y-81461744D01*
X141657179Y-81281716D01*
X141657177Y-81281713D01*
X141655587Y-81276818D01*
X141657141Y-81276313D01*
X141652678Y-81250988D01*
X141669438Y-81221963D01*
X141700933Y-81210500D01*
X150050501Y-81210500D01*
X150085149Y-81224852D01*
X150099501Y-81259500D01*
X150099501Y-81347875D01*
X150105908Y-81407481D01*
X150156204Y-81542332D01*
X150183549Y-81578859D01*
X150242454Y-81657546D01*
X150302709Y-81702653D01*
X150357667Y-81743795D01*
X150357668Y-81743795D01*
X150357669Y-81743796D01*
X150492517Y-81794091D01*
X150552127Y-81800500D01*
X152247872Y-81800499D01*
X152247874Y-81800499D01*
X152277677Y-81797294D01*
X152307483Y-81794091D01*
X152442331Y-81743796D01*
X152557546Y-81657546D01*
X152643796Y-81542331D01*
X152694091Y-81407483D01*
X152700500Y-81347873D01*
X152700499Y-79652128D01*
X152697617Y-79625322D01*
X152694091Y-79592518D01*
X152675337Y-79542237D01*
X152643796Y-79457669D01*
X152639156Y-79451471D01*
X152588014Y-79383154D01*
X152557546Y-79342454D01*
X152453169Y-79264317D01*
X152442332Y-79256204D01*
X152307481Y-79205908D01*
X152247875Y-79199500D01*
X152247873Y-79199500D01*
X152040153Y-79199500D01*
X152009483Y-79188714D01*
X151992314Y-79161106D01*
X151996206Y-79128828D01*
X152019445Y-79106091D01*
X152052734Y-79090568D01*
X152239139Y-78960047D01*
X152400047Y-78799139D01*
X152530568Y-78612734D01*
X152626739Y-78406496D01*
X152685635Y-78186692D01*
X152705468Y-77960000D01*
X152685635Y-77733308D01*
X152685594Y-77733156D01*
X152626739Y-77513504D01*
X152530569Y-77307268D01*
X152508231Y-77275366D01*
X152400047Y-77120861D01*
X152400046Y-77120860D01*
X152400044Y-77120857D01*
X152239142Y-76959955D01*
X152145936Y-76894692D01*
X152052734Y-76829432D01*
X152052733Y-76829431D01*
X152052731Y-76829430D01*
X151848958Y-76734409D01*
X151824128Y-76708091D01*
X151824128Y-76671909D01*
X151848958Y-76645591D01*
X151887145Y-76627784D01*
X152052734Y-76550568D01*
X152239139Y-76420047D01*
X152400047Y-76259139D01*
X152530568Y-76072734D01*
X152626739Y-75866496D01*
X152685635Y-75646692D01*
X152705468Y-75420000D01*
X152685635Y-75193308D01*
X152679343Y-75169827D01*
X152626739Y-74973504D01*
X152530569Y-74767268D01*
X152528882Y-74764859D01*
X152400047Y-74580861D01*
X152400046Y-74580860D01*
X152400044Y-74580857D01*
X152239142Y-74419955D01*
X152082890Y-74310547D01*
X152052734Y-74289432D01*
X152052733Y-74289431D01*
X152052731Y-74289430D01*
X151848367Y-74194133D01*
X151823537Y-74167815D01*
X151823537Y-74131633D01*
X151848367Y-74105315D01*
X152052485Y-74010133D01*
X152238815Y-73879663D01*
X152399663Y-73718815D01*
X152530133Y-73532485D01*
X152626267Y-73326324D01*
X152678872Y-73130000D01*
X150121128Y-73130000D01*
X150173732Y-73326324D01*
X150269866Y-73532485D01*
X150400336Y-73718815D01*
X150561184Y-73879663D01*
X150747514Y-74010133D01*
X150951632Y-74105315D01*
X150976462Y-74131633D01*
X150976462Y-74167815D01*
X150951633Y-74194133D01*
X150747266Y-74289432D01*
X150560857Y-74419955D01*
X150399955Y-74580857D01*
X150269430Y-74767268D01*
X150173260Y-74973504D01*
X150114365Y-75193303D01*
X150094532Y-75420000D01*
X150114365Y-75646696D01*
X150173260Y-75866495D01*
X150269430Y-76072731D01*
X150269431Y-76072733D01*
X150269432Y-76072734D01*
X150278426Y-76085579D01*
X150399955Y-76259142D01*
X150560857Y-76420044D01*
X150560860Y-76420046D01*
X150560861Y-76420047D01*
X150747266Y-76550568D01*
X150747267Y-76550568D01*
X150747268Y-76550569D01*
X150951041Y-76645591D01*
X150975871Y-76671909D01*
X150975871Y-76708091D01*
X150951041Y-76734409D01*
X150747268Y-76829430D01*
X150560857Y-76959955D01*
X150399955Y-77120857D01*
X150269430Y-77307268D01*
X150173260Y-77513504D01*
X150114365Y-77733303D01*
X150094532Y-77959999D01*
X150114365Y-78186696D01*
X150173260Y-78406495D01*
X150269430Y-78612731D01*
X150269431Y-78612733D01*
X150269432Y-78612734D01*
X150281522Y-78630000D01*
X150399955Y-78799142D01*
X150560857Y-78960044D01*
X150560860Y-78960046D01*
X150560861Y-78960047D01*
X150747266Y-79090568D01*
X150747267Y-79090568D01*
X150747268Y-79090569D01*
X150780555Y-79106091D01*
X150803794Y-79128828D01*
X150807686Y-79161105D01*
X150790517Y-79188714D01*
X150759847Y-79199500D01*
X150552125Y-79199500D01*
X150492518Y-79205908D01*
X150357667Y-79256204D01*
X150242454Y-79342454D01*
X150156204Y-79457667D01*
X150105908Y-79592518D01*
X150099500Y-79652125D01*
X150099500Y-79760500D01*
X150085148Y-79795148D01*
X150050500Y-79809500D01*
X138177510Y-79809500D01*
X138142862Y-79795148D01*
X137183327Y-78835613D01*
X137169161Y-78805236D01*
X137177837Y-78772860D01*
X137290133Y-78612485D01*
X137386267Y-78406324D01*
X137438872Y-78210000D01*
X135959000Y-78210000D01*
X135924352Y-78195648D01*
X135910000Y-78161000D01*
X135910000Y-77759000D01*
X135924352Y-77724352D01*
X135959000Y-77710000D01*
X137438872Y-77710000D01*
X137386267Y-77513675D01*
X137290133Y-77307514D01*
X137159663Y-77121184D01*
X136998815Y-76960336D01*
X136812485Y-76829866D01*
X136608367Y-76734684D01*
X136583537Y-76708366D01*
X136583537Y-76672184D01*
X136608366Y-76645866D01*
X136812734Y-76550568D01*
X136999139Y-76420047D01*
X137160047Y-76259139D01*
X137290568Y-76072734D01*
X137386739Y-75866496D01*
X137445635Y-75646692D01*
X137465468Y-75420000D01*
X137445635Y-75193308D01*
X137439343Y-75169827D01*
X137386739Y-74973504D01*
X137290569Y-74767268D01*
X137288882Y-74764859D01*
X137160047Y-74580861D01*
X137160046Y-74580860D01*
X137160044Y-74580857D01*
X136999142Y-74419955D01*
X136842890Y-74310547D01*
X136812734Y-74289432D01*
X136812733Y-74289431D01*
X136812731Y-74289430D01*
X136608958Y-74194409D01*
X136584128Y-74168091D01*
X136584128Y-74131909D01*
X136608958Y-74105591D01*
X136637167Y-74092437D01*
X136812734Y-74010568D01*
X136999139Y-73880047D01*
X137160047Y-73719139D01*
X137290568Y-73532734D01*
X137386739Y-73326496D01*
X137445635Y-73106692D01*
X137465468Y-72880000D01*
X137453819Y-72746851D01*
X137460197Y-72718085D01*
X137481924Y-72698176D01*
X137511141Y-72694329D01*
X137537280Y-72707937D01*
X140165148Y-75335805D01*
X140179500Y-75370453D01*
X140179500Y-76573398D01*
X140166915Y-76606185D01*
X140147465Y-76627786D01*
X140052822Y-76791713D01*
X139994326Y-76971743D01*
X139975801Y-77147997D01*
X139974540Y-77160000D01*
X139994326Y-77348256D01*
X140048074Y-77513675D01*
X140052822Y-77528286D01*
X140147467Y-77692216D01*
X140266864Y-77824820D01*
X140274129Y-77832888D01*
X140327494Y-77871660D01*
X140427268Y-77944150D01*
X140427269Y-77944150D01*
X140427270Y-77944151D01*
X140600197Y-78021144D01*
X140663870Y-78034678D01*
X140785353Y-78060500D01*
X140785354Y-78060500D01*
X140974646Y-78060500D01*
X140974647Y-78060500D01*
X141036364Y-78047381D01*
X141159803Y-78021144D01*
X141332730Y-77944151D01*
X141485871Y-77832888D01*
X141612533Y-77692216D01*
X141707179Y-77528284D01*
X141765674Y-77348256D01*
X141785460Y-77160000D01*
X141765674Y-76971744D01*
X141707179Y-76791716D01*
X141612533Y-76627784D01*
X141593084Y-76606184D01*
X141580500Y-76573398D01*
X141580500Y-75549953D01*
X141594852Y-75515305D01*
X141629500Y-75500953D01*
X141664148Y-75515305D01*
X143392274Y-77243431D01*
X143406357Y-77272956D01*
X143414325Y-77348752D01*
X143414325Y-77348754D01*
X143414326Y-77348756D01*
X143472659Y-77528286D01*
X143472822Y-77528786D01*
X143567467Y-77692716D01*
X143678212Y-77815711D01*
X143694129Y-77833388D01*
X143751767Y-77875264D01*
X143847268Y-77944650D01*
X143847269Y-77944650D01*
X143847270Y-77944651D01*
X144020197Y-78021644D01*
X144057157Y-78029500D01*
X144205353Y-78061000D01*
X144205354Y-78061000D01*
X144394646Y-78061000D01*
X144394647Y-78061000D01*
X144456365Y-78047881D01*
X144579803Y-78021644D01*
X144752730Y-77944651D01*
X144905871Y-77833388D01*
X144913586Y-77824819D01*
X144936493Y-77810505D01*
X144963507Y-77810505D01*
X144986413Y-77824819D01*
X144992094Y-77831128D01*
X144994131Y-77833390D01*
X145147268Y-77944650D01*
X145147269Y-77944650D01*
X145147270Y-77944651D01*
X145320197Y-78021644D01*
X145357157Y-78029500D01*
X145505353Y-78061000D01*
X145505354Y-78061000D01*
X145694646Y-78061000D01*
X145694647Y-78061000D01*
X145756365Y-78047881D01*
X145879803Y-78021644D01*
X146052730Y-77944651D01*
X146205871Y-77833388D01*
X146332533Y-77692716D01*
X146427179Y-77528784D01*
X146485674Y-77348756D01*
X146505460Y-77160500D01*
X146485674Y-76972244D01*
X146427179Y-76792216D01*
X146332533Y-76628284D01*
X146205871Y-76487612D01*
X146202480Y-76485148D01*
X146052731Y-76376349D01*
X145938316Y-76325408D01*
X145879803Y-76299356D01*
X145879801Y-76299355D01*
X145879800Y-76299355D01*
X145703141Y-76261805D01*
X145678681Y-76248524D01*
X145573477Y-76143320D01*
X145559632Y-76115703D01*
X145565063Y-76085291D01*
X145587611Y-76064173D01*
X145618313Y-76060743D01*
X145620194Y-76061142D01*
X145620197Y-76061144D01*
X145723747Y-76083154D01*
X145805353Y-76100500D01*
X145805354Y-76100500D01*
X145994646Y-76100500D01*
X145994647Y-76100500D01*
X146076253Y-76083154D01*
X146179803Y-76061144D01*
X146352730Y-75984151D01*
X146505871Y-75872888D01*
X146632533Y-75732216D01*
X146727179Y-75568284D01*
X146785674Y-75388256D01*
X146805460Y-75200000D01*
X146785674Y-75011744D01*
X146727179Y-74831716D01*
X146632533Y-74667784D01*
X146613084Y-74646184D01*
X146600500Y-74613398D01*
X146600500Y-73610453D01*
X146614852Y-73575805D01*
X147892843Y-72297814D01*
X149178683Y-71011973D01*
X149203139Y-70998694D01*
X149379803Y-70961144D01*
X149552730Y-70884151D01*
X149705871Y-70772888D01*
X149832533Y-70632216D01*
X149927179Y-70468284D01*
X149985674Y-70288256D01*
X150005460Y-70100000D01*
X149985674Y-69911744D01*
X149927179Y-69731716D01*
X149832533Y-69567784D01*
X149705871Y-69427112D01*
X149669850Y-69400941D01*
X149652906Y-69378859D01*
X149650722Y-69351111D01*
X149664001Y-69326653D01*
X150341086Y-68649568D01*
X150375734Y-68635217D01*
X150410382Y-68649569D01*
X150560857Y-68800044D01*
X150560860Y-68800046D01*
X150560861Y-68800047D01*
X150747266Y-68930568D01*
X150747267Y-68930568D01*
X150747268Y-68930569D01*
X150951041Y-69025591D01*
X150975871Y-69051909D01*
X150975871Y-69088091D01*
X150951041Y-69114409D01*
X150747268Y-69209430D01*
X150560857Y-69339955D01*
X150399955Y-69500857D01*
X150269430Y-69687268D01*
X150173260Y-69893504D01*
X150114365Y-70113303D01*
X150101643Y-70258720D01*
X150094532Y-70340000D01*
X150095367Y-70349547D01*
X150114365Y-70566696D01*
X150173260Y-70786495D01*
X150269430Y-70992731D01*
X150399955Y-71179142D01*
X150560857Y-71340044D01*
X150560860Y-71340046D01*
X150560861Y-71340047D01*
X150747266Y-71470568D01*
X150747267Y-71470568D01*
X150747268Y-71470569D01*
X150951632Y-71565866D01*
X150976462Y-71592184D01*
X150976462Y-71628366D01*
X150951633Y-71654684D01*
X150747512Y-71749868D01*
X150561184Y-71880336D01*
X150400336Y-72041184D01*
X150269866Y-72227514D01*
X150173732Y-72433675D01*
X150121127Y-72630000D01*
X152678872Y-72630000D01*
X152626267Y-72433675D01*
X152530133Y-72227514D01*
X152399663Y-72041184D01*
X152382089Y-72023610D01*
X160529942Y-72023610D01*
X160576767Y-72060055D01*
X160795390Y-72178367D01*
X161030507Y-72259082D01*
X161275708Y-72300000D01*
X161524292Y-72300000D01*
X161769492Y-72259082D01*
X162004609Y-72178367D01*
X162223229Y-72060057D01*
X162270056Y-72023609D01*
X161400000Y-71153553D01*
X160529942Y-72023609D01*
X160529942Y-72023610D01*
X152382089Y-72023610D01*
X152238815Y-71880336D01*
X152052485Y-71749866D01*
X151848367Y-71654684D01*
X151823537Y-71628366D01*
X151823537Y-71592184D01*
X151848366Y-71565866D01*
X152052734Y-71470568D01*
X152239139Y-71340047D01*
X152400047Y-71179139D01*
X152530568Y-70992734D01*
X152626739Y-70786496D01*
X152685635Y-70566692D01*
X152705468Y-70340000D01*
X152685635Y-70113308D01*
X152681745Y-70098792D01*
X152626739Y-69893504D01*
X152530569Y-69687268D01*
X152524523Y-69678634D01*
X152400047Y-69500861D01*
X152400046Y-69500860D01*
X152400044Y-69500857D01*
X152239142Y-69339955D01*
X152074192Y-69224457D01*
X152052734Y-69209432D01*
X152052733Y-69209431D01*
X152052731Y-69209430D01*
X151848958Y-69114409D01*
X151824128Y-69088091D01*
X151824128Y-69051909D01*
X151848958Y-69025591D01*
X151877167Y-69012437D01*
X152052734Y-68930568D01*
X152239139Y-68800047D01*
X152400047Y-68639139D01*
X152482491Y-68521394D01*
X152500004Y-68506037D01*
X152522630Y-68500500D01*
X154097343Y-68500500D01*
X154100302Y-68500589D01*
X154162606Y-68504358D01*
X154224017Y-68493103D01*
X154226908Y-68492663D01*
X154276561Y-68486634D01*
X154288873Y-68485140D01*
X154295177Y-68482748D01*
X154304711Y-68479132D01*
X154313245Y-68476752D01*
X154329932Y-68473695D01*
X154386871Y-68448067D01*
X154389570Y-68446950D01*
X154431477Y-68431057D01*
X154447928Y-68424819D01*
X154447928Y-68424818D01*
X154447930Y-68424818D01*
X154461882Y-68415186D01*
X154469595Y-68410835D01*
X154485057Y-68403878D01*
X154534201Y-68365374D01*
X154536541Y-68363653D01*
X154587929Y-68328183D01*
X154629329Y-68281450D01*
X154631324Y-68279331D01*
X156868683Y-66041973D01*
X156893139Y-66028694D01*
X157069803Y-65991144D01*
X157242730Y-65914151D01*
X157395871Y-65802888D01*
X157522533Y-65662216D01*
X157617179Y-65498284D01*
X157675674Y-65318256D01*
X157695460Y-65130000D01*
X157675674Y-64941744D01*
X157617179Y-64761716D01*
X157522533Y-64597784D01*
X157395871Y-64457112D01*
X157375527Y-64442331D01*
X157242731Y-64345849D01*
X157069801Y-64268855D01*
X156884647Y-64229500D01*
X156884646Y-64229500D01*
X156695354Y-64229500D01*
X156695353Y-64229500D01*
X156510198Y-64268855D01*
X156337268Y-64345849D01*
X156184128Y-64457112D01*
X156057467Y-64597783D01*
X155962822Y-64761713D01*
X155904325Y-64941747D01*
X155896357Y-65017542D01*
X155882274Y-65047067D01*
X153844195Y-67085148D01*
X153828298Y-67095770D01*
X153809547Y-67099500D01*
X152522630Y-67099500D01*
X152500004Y-67093963D01*
X152482491Y-67078605D01*
X152468855Y-67059131D01*
X152400047Y-66960861D01*
X152400046Y-66960860D01*
X152400044Y-66960857D01*
X152239142Y-66799955D01*
X152145936Y-66734692D01*
X152052734Y-66669432D01*
X152052733Y-66669431D01*
X152052731Y-66669430D01*
X151848958Y-66574409D01*
X151824128Y-66548091D01*
X151824128Y-66511909D01*
X151848958Y-66485591D01*
X151899499Y-66462023D01*
X152052734Y-66390568D01*
X152239139Y-66260047D01*
X152400047Y-66099139D01*
X152530568Y-65912734D01*
X152626739Y-65706496D01*
X152685635Y-65486692D01*
X152705468Y-65260000D01*
X152685635Y-65033308D01*
X152661101Y-64941747D01*
X152626739Y-64813504D01*
X152530569Y-64607268D01*
X152523928Y-64597784D01*
X152400047Y-64420861D01*
X152400046Y-64420860D01*
X152400044Y-64420857D01*
X152239142Y-64259955D01*
X152195647Y-64229500D01*
X152052734Y-64129432D01*
X151941641Y-64077628D01*
X151848957Y-64034408D01*
X151824128Y-64008090D01*
X151824128Y-63971908D01*
X151848956Y-63945591D01*
X152052734Y-63850568D01*
X152239139Y-63720047D01*
X152400047Y-63559139D01*
X152530568Y-63372734D01*
X152626739Y-63166496D01*
X152685635Y-62946692D01*
X152705468Y-62720000D01*
X152693819Y-62586851D01*
X152700197Y-62558085D01*
X152721924Y-62538176D01*
X152751141Y-62534329D01*
X152777280Y-62547937D01*
X153908657Y-63679314D01*
X153910686Y-63681469D01*
X153952071Y-63728183D01*
X154003429Y-63763633D01*
X154005813Y-63765387D01*
X154054944Y-63803879D01*
X154070395Y-63810833D01*
X154078122Y-63815190D01*
X154092070Y-63824818D01*
X154150413Y-63846944D01*
X154153148Y-63848077D01*
X154210066Y-63873694D01*
X154210067Y-63873694D01*
X154210069Y-63873695D01*
X154226747Y-63876751D01*
X154235280Y-63879129D01*
X154243968Y-63882424D01*
X154251127Y-63885140D01*
X154263438Y-63886634D01*
X154313091Y-63892663D01*
X154315987Y-63893104D01*
X154377394Y-63904358D01*
X154439697Y-63900589D01*
X154442657Y-63900500D01*
X159850501Y-63900500D01*
X159885149Y-63914852D01*
X159899501Y-63949500D01*
X159899501Y-64247875D01*
X159905908Y-64307481D01*
X159956204Y-64442332D01*
X159967269Y-64457112D01*
X160042454Y-64557546D01*
X160092402Y-64594937D01*
X160157667Y-64643795D01*
X160157668Y-64643795D01*
X160157669Y-64643796D01*
X160292517Y-64694091D01*
X160352127Y-64700500D01*
X162447872Y-64700499D01*
X162447874Y-64700499D01*
X162477677Y-64697295D01*
X162507483Y-64694091D01*
X162642331Y-64643796D01*
X162757546Y-64557546D01*
X162843796Y-64442331D01*
X162894091Y-64307483D01*
X162900500Y-64247873D01*
X162900499Y-62152128D01*
X162894091Y-62092517D01*
X162843796Y-61957669D01*
X162757546Y-61842454D01*
X162699938Y-61799328D01*
X162642332Y-61756204D01*
X162507481Y-61705908D01*
X162447875Y-61699500D01*
X160352125Y-61699500D01*
X160292518Y-61705908D01*
X160157667Y-61756204D01*
X160042454Y-61842454D01*
X159956204Y-61957667D01*
X159905908Y-62092518D01*
X159899500Y-62152125D01*
X159899500Y-62450500D01*
X159885148Y-62485148D01*
X159850500Y-62499500D01*
X154730453Y-62499500D01*
X154695805Y-62485148D01*
X152691208Y-60480551D01*
X152678525Y-60458584D01*
X152678525Y-60433222D01*
X152685635Y-60406692D01*
X152705468Y-60180000D01*
X152685635Y-59953308D01*
X152667281Y-59884811D01*
X152626739Y-59733504D01*
X152530569Y-59527268D01*
X152514751Y-59504678D01*
X152400047Y-59340861D01*
X152400046Y-59340860D01*
X152400044Y-59340857D01*
X152239142Y-59179955D01*
X152052731Y-59049430D01*
X151848958Y-58954409D01*
X151824128Y-58928091D01*
X151824128Y-58891909D01*
X151848958Y-58865591D01*
X151903190Y-58840302D01*
X152052734Y-58770568D01*
X152239139Y-58640047D01*
X152400047Y-58479139D01*
X152530568Y-58292734D01*
X152626739Y-58086496D01*
X152685635Y-57866692D01*
X152705468Y-57640000D01*
X152685635Y-57413308D01*
X152677489Y-57382908D01*
X152626739Y-57193504D01*
X152530569Y-56987268D01*
X152500297Y-56944035D01*
X152400047Y-56800861D01*
X152400046Y-56800860D01*
X152400044Y-56800857D01*
X152239142Y-56639955D01*
X152052731Y-56509430D01*
X151848958Y-56414409D01*
X151824128Y-56388091D01*
X151824128Y-56351909D01*
X151848958Y-56325591D01*
X151877167Y-56312437D01*
X152052734Y-56230568D01*
X152239139Y-56100047D01*
X152400047Y-55939139D01*
X152482491Y-55821394D01*
X152500004Y-55806037D01*
X152522630Y-55800500D01*
X154689547Y-55800500D01*
X154724195Y-55814852D01*
X159888657Y-60979314D01*
X159890686Y-60981469D01*
X159932071Y-61028183D01*
X159983429Y-61063633D01*
X159985813Y-61065387D01*
X160024020Y-61095321D01*
X160034943Y-61103878D01*
X160050406Y-61110837D01*
X160058110Y-61115182D01*
X160072070Y-61124818D01*
X160130439Y-61146954D01*
X160133134Y-61148070D01*
X160190068Y-61173694D01*
X160190069Y-61173694D01*
X160190071Y-61173695D01*
X160206737Y-61176749D01*
X160215281Y-61179130D01*
X160229836Y-61184650D01*
X160231128Y-61185140D01*
X160293116Y-61192666D01*
X160295988Y-61193103D01*
X160357394Y-61204357D01*
X160419687Y-61200589D01*
X160422646Y-61200500D01*
X162289547Y-61200500D01*
X162324195Y-61214852D01*
X162985148Y-61875805D01*
X162999500Y-61910453D01*
X162999500Y-65089547D01*
X162995770Y-65108298D01*
X162985148Y-65124195D01*
X158821318Y-69288024D01*
X158796858Y-69301305D01*
X158620199Y-69338855D01*
X158447268Y-69415849D01*
X158294128Y-69527112D01*
X158167467Y-69667783D01*
X158072822Y-69831713D01*
X158014326Y-70011743D01*
X158007456Y-70077110D01*
X157994540Y-70200000D01*
X158014326Y-70388256D01*
X158056999Y-70519590D01*
X158072822Y-70568286D01*
X158167467Y-70732216D01*
X158250764Y-70824727D01*
X158294129Y-70872888D01*
X158351767Y-70914765D01*
X158447268Y-70984150D01*
X158447269Y-70984150D01*
X158447270Y-70984151D01*
X158620197Y-71061144D01*
X158712775Y-71080822D01*
X158805353Y-71100500D01*
X158805354Y-71100500D01*
X158994646Y-71100500D01*
X158994647Y-71100500D01*
X159056365Y-71087381D01*
X159179803Y-71061144D01*
X159352730Y-70984151D01*
X159505871Y-70872888D01*
X159632533Y-70732216D01*
X159727179Y-70568284D01*
X159785674Y-70388256D01*
X159793640Y-70312455D01*
X159807723Y-70282932D01*
X159946266Y-70144389D01*
X159976360Y-70130251D01*
X160008553Y-70138580D01*
X160028016Y-70165543D01*
X160025784Y-70198722D01*
X159976412Y-70311279D01*
X159915387Y-70552262D01*
X159894859Y-70799999D01*
X159915387Y-71047737D01*
X159976412Y-71288720D01*
X160076269Y-71516370D01*
X160176562Y-71669881D01*
X160176564Y-71669881D01*
X161046446Y-70800000D01*
X161753553Y-70800000D01*
X162623434Y-71669881D01*
X162723732Y-71516366D01*
X162823587Y-71288720D01*
X162884612Y-71047737D01*
X162891053Y-70970000D01*
X175179494Y-70970000D01*
X175229650Y-71146276D01*
X175326714Y-71341207D01*
X175457942Y-71514983D01*
X175618871Y-71661686D01*
X175804015Y-71776323D01*
X176007065Y-71854985D01*
X176080000Y-71868619D01*
X176080000Y-70970000D01*
X175179494Y-70970000D01*
X162891053Y-70970000D01*
X162905140Y-70799999D01*
X162884612Y-70552262D01*
X162823587Y-70311279D01*
X162723730Y-70083629D01*
X162623436Y-69930117D01*
X162623434Y-69930117D01*
X161753553Y-70800000D01*
X161046446Y-70800000D01*
X161400000Y-70446447D01*
X162270056Y-69576389D01*
X162270056Y-69576388D01*
X162223232Y-69539944D01*
X162004609Y-69421632D01*
X161769492Y-69340917D01*
X161524292Y-69300000D01*
X161275708Y-69300000D01*
X161030507Y-69340917D01*
X160803283Y-69418922D01*
X160770984Y-69418755D01*
X160745807Y-69398524D01*
X160738689Y-69367019D01*
X160752723Y-69337932D01*
X164179331Y-65911324D01*
X164181450Y-65909329D01*
X164228183Y-65867929D01*
X164263653Y-65816541D01*
X164265382Y-65814192D01*
X164271818Y-65805978D01*
X164303878Y-65765057D01*
X164310835Y-65749595D01*
X164315186Y-65741882D01*
X164324818Y-65727930D01*
X164346950Y-65669570D01*
X164348067Y-65666871D01*
X164373695Y-65609932D01*
X164376752Y-65593245D01*
X164379132Y-65584711D01*
X164385140Y-65568872D01*
X164392664Y-65506898D01*
X164393104Y-65504007D01*
X164404357Y-65442606D01*
X164400589Y-65380312D01*
X164400500Y-65377354D01*
X164400500Y-61622657D01*
X164400589Y-61619698D01*
X164400631Y-61618997D01*
X164404358Y-61557394D01*
X164393104Y-61495987D01*
X164392661Y-61493076D01*
X164389590Y-61467784D01*
X164385140Y-61431128D01*
X164379129Y-61415280D01*
X164376751Y-61406747D01*
X164373695Y-61390069D01*
X164359222Y-61357912D01*
X164348077Y-61333148D01*
X164346944Y-61330413D01*
X164324818Y-61272070D01*
X164315190Y-61258122D01*
X164310833Y-61250395D01*
X164303879Y-61234944D01*
X164265387Y-61185813D01*
X164263633Y-61183429D01*
X164261296Y-61180044D01*
X164228183Y-61132071D01*
X164209127Y-61115189D01*
X164181469Y-61090686D01*
X164179314Y-61088657D01*
X163111341Y-60020684D01*
X163109312Y-60018529D01*
X163067929Y-59971817D01*
X163016561Y-59936359D01*
X163014178Y-59934605D01*
X162965058Y-59896122D01*
X162949604Y-59889167D01*
X162941880Y-59884811D01*
X162938296Y-59882337D01*
X162927930Y-59875182D01*
X162869571Y-59853049D01*
X162866842Y-59851918D01*
X162809931Y-59826304D01*
X162793255Y-59823248D01*
X162784715Y-59820867D01*
X162768874Y-59814860D01*
X162706918Y-59807336D01*
X162703998Y-59806891D01*
X162642606Y-59795642D01*
X162642605Y-59795642D01*
X162580302Y-59799411D01*
X162577343Y-59799500D01*
X160710453Y-59799500D01*
X160675805Y-59785148D01*
X158940657Y-58050000D01*
X175175000Y-58050000D01*
X176100000Y-58050000D01*
X176100000Y-57125000D01*
X175627170Y-57125000D01*
X175567627Y-57131401D01*
X175432908Y-57181648D01*
X175317811Y-57267811D01*
X175231648Y-57382908D01*
X175181401Y-57517627D01*
X175175000Y-57577170D01*
X175175000Y-58050000D01*
X158940657Y-58050000D01*
X155576125Y-54685468D01*
X155562037Y-54655904D01*
X155569720Y-54624069D01*
X155595739Y-54604183D01*
X155628472Y-54605128D01*
X155640060Y-54609618D01*
X155858757Y-54650500D01*
X156081241Y-54650500D01*
X156081243Y-54650500D01*
X156299940Y-54609618D01*
X156507401Y-54529247D01*
X156696562Y-54412124D01*
X156860981Y-54262236D01*
X156995058Y-54084689D01*
X157094229Y-53885528D01*
X157155115Y-53671536D01*
X157175643Y-53450000D01*
X162384356Y-53450000D01*
X162404885Y-53671538D01*
X162465769Y-53885525D01*
X162564941Y-54084688D01*
X162580576Y-54105392D01*
X162696420Y-54258795D01*
X162699020Y-54262237D01*
X162863434Y-54412121D01*
X162863436Y-54412122D01*
X162863438Y-54412124D01*
X163052599Y-54529247D01*
X163260060Y-54609618D01*
X163478757Y-54650500D01*
X163701241Y-54650500D01*
X163701243Y-54650500D01*
X163919940Y-54609618D01*
X164127401Y-54529247D01*
X164287691Y-54430000D01*
X175199494Y-54430000D01*
X175249650Y-54606276D01*
X175346714Y-54801207D01*
X175477942Y-54974983D01*
X175638871Y-55121686D01*
X175824015Y-55236323D01*
X176027065Y-55314985D01*
X176100000Y-55328619D01*
X176100000Y-54430000D01*
X175199494Y-54430000D01*
X164287691Y-54430000D01*
X164316562Y-54412124D01*
X164480981Y-54262236D01*
X164550656Y-54169970D01*
X164567918Y-54155637D01*
X164589759Y-54150500D01*
X166356423Y-54150500D01*
X166378356Y-54155683D01*
X166395649Y-54170135D01*
X166397454Y-54172546D01*
X166512667Y-54258795D01*
X166512668Y-54258795D01*
X166512669Y-54258796D01*
X166647517Y-54309091D01*
X166707127Y-54315500D01*
X168152872Y-54315499D01*
X168152874Y-54315499D01*
X168182677Y-54312295D01*
X168212483Y-54309091D01*
X168347331Y-54258796D01*
X168462546Y-54172546D01*
X168548796Y-54057331D01*
X168599091Y-53922483D01*
X168605500Y-53862873D01*
X168605499Y-52417128D01*
X168599091Y-52357517D01*
X168548796Y-52222669D01*
X168462546Y-52107454D01*
X168399056Y-52059925D01*
X168347333Y-52021204D01*
X168323292Y-52012238D01*
X168299798Y-51993735D01*
X168291433Y-51965024D01*
X168301313Y-51936798D01*
X168398985Y-51807458D01*
X168433712Y-51761472D01*
X168530817Y-51566459D01*
X168532257Y-51561400D01*
X168587331Y-51367832D01*
X168590435Y-51356923D01*
X168610536Y-51140000D01*
X168590435Y-50923077D01*
X168539608Y-50744437D01*
X168530818Y-50713543D01*
X168433712Y-50518528D01*
X168302428Y-50344678D01*
X168141430Y-50197910D01*
X168114709Y-50181365D01*
X168094290Y-50155989D01*
X168094291Y-50123419D01*
X168114711Y-50098044D01*
X168141126Y-50081689D01*
X168302057Y-49934983D01*
X168433285Y-49761207D01*
X168530349Y-49566276D01*
X168580505Y-49390000D01*
X166279494Y-49390000D01*
X166321346Y-49537090D01*
X166320432Y-49566785D01*
X166302528Y-49590494D01*
X166274217Y-49599500D01*
X164589759Y-49599500D01*
X164567918Y-49594363D01*
X164550656Y-49580029D01*
X164545729Y-49573504D01*
X164480981Y-49487764D01*
X164440384Y-49450755D01*
X164316565Y-49337878D01*
X164294206Y-49324034D01*
X164127401Y-49220753D01*
X164127399Y-49220752D01*
X164023670Y-49180567D01*
X163919940Y-49140382D01*
X163701243Y-49099500D01*
X163478757Y-49099500D01*
X163260060Y-49140382D01*
X163260057Y-49140382D01*
X163260057Y-49140383D01*
X163052600Y-49220752D01*
X162863434Y-49337878D01*
X162699020Y-49487762D01*
X162564941Y-49665311D01*
X162465769Y-49864474D01*
X162404885Y-50078461D01*
X162384356Y-50300000D01*
X162404885Y-50521538D01*
X162465769Y-50735525D01*
X162564941Y-50934688D01*
X162699020Y-51112237D01*
X162863434Y-51262121D01*
X162863436Y-51262122D01*
X162863438Y-51262124D01*
X163052599Y-51379247D01*
X163260060Y-51459618D01*
X163478757Y-51500500D01*
X163701241Y-51500500D01*
X163701243Y-51500500D01*
X163919940Y-51459618D01*
X164127401Y-51379247D01*
X164316562Y-51262124D01*
X164480981Y-51112236D01*
X164550656Y-51019970D01*
X164567918Y-51005637D01*
X164589759Y-51000500D01*
X166208640Y-51000500D01*
X166234435Y-51007839D01*
X166252503Y-51027659D01*
X166257431Y-51054021D01*
X166249463Y-51139999D01*
X166269565Y-51356925D01*
X166329181Y-51566456D01*
X166426287Y-51761471D01*
X166558687Y-51936798D01*
X166568567Y-51965023D01*
X166560202Y-51993734D01*
X166536709Y-52012237D01*
X166512668Y-52021204D01*
X166397454Y-52107454D01*
X166311204Y-52222667D01*
X166260908Y-52357518D01*
X166254500Y-52417125D01*
X166254500Y-52700500D01*
X166240148Y-52735148D01*
X166205500Y-52749500D01*
X164589759Y-52749500D01*
X164567918Y-52744363D01*
X164550656Y-52730029D01*
X164528357Y-52700500D01*
X164480981Y-52637764D01*
X164446638Y-52606456D01*
X164316565Y-52487878D01*
X164316562Y-52487876D01*
X164127401Y-52370753D01*
X164127399Y-52370752D01*
X164023670Y-52330567D01*
X163919940Y-52290382D01*
X163701243Y-52249500D01*
X163478757Y-52249500D01*
X163260060Y-52290382D01*
X163260057Y-52290382D01*
X163260057Y-52290383D01*
X163052600Y-52370752D01*
X162863434Y-52487878D01*
X162699020Y-52637762D01*
X162564941Y-52815311D01*
X162465769Y-53014474D01*
X162404885Y-53228461D01*
X162384356Y-53450000D01*
X157175643Y-53450000D01*
X157155115Y-53228464D01*
X157124849Y-53122089D01*
X157094230Y-53014474D01*
X156995058Y-52815311D01*
X156958205Y-52766510D01*
X156860981Y-52637764D01*
X156826638Y-52606456D01*
X156696565Y-52487878D01*
X156696562Y-52487876D01*
X156507401Y-52370753D01*
X156507399Y-52370752D01*
X156403670Y-52330567D01*
X156299940Y-52290382D01*
X156081243Y-52249500D01*
X155858757Y-52249500D01*
X155640060Y-52290382D01*
X155640057Y-52290382D01*
X155640057Y-52290383D01*
X155432600Y-52370752D01*
X155243434Y-52487878D01*
X155079020Y-52637762D01*
X155009344Y-52730029D01*
X154992082Y-52744363D01*
X154970241Y-52749500D01*
X152742363Y-52749500D01*
X152716639Y-52742205D01*
X152698575Y-52722491D01*
X152693549Y-52696231D01*
X152705468Y-52560000D01*
X152685635Y-52333308D01*
X152674133Y-52290383D01*
X152626739Y-52113504D01*
X152530569Y-51907268D01*
X152517276Y-51888284D01*
X152400047Y-51720861D01*
X152400046Y-51720860D01*
X152400044Y-51720857D01*
X152239142Y-51559955D01*
X152052731Y-51429430D01*
X151848958Y-51334409D01*
X151824128Y-51308091D01*
X151824128Y-51271909D01*
X151848958Y-51245591D01*
X151877167Y-51232437D01*
X152052734Y-51150568D01*
X152239139Y-51020047D01*
X152239215Y-51019971D01*
X152244335Y-51014852D01*
X152278983Y-51000500D01*
X154970241Y-51000500D01*
X154992082Y-51005637D01*
X155009343Y-51019970D01*
X155067763Y-51097331D01*
X155079020Y-51112237D01*
X155243434Y-51262121D01*
X155243436Y-51262122D01*
X155243438Y-51262124D01*
X155432599Y-51379247D01*
X155640060Y-51459618D01*
X155858757Y-51500500D01*
X156081241Y-51500500D01*
X156081243Y-51500500D01*
X156299940Y-51459618D01*
X156507401Y-51379247D01*
X156696562Y-51262124D01*
X156860981Y-51112236D01*
X156995058Y-50934689D01*
X157094229Y-50735528D01*
X157155115Y-50521536D01*
X157175643Y-50300000D01*
X157155115Y-50078464D01*
X157126091Y-49976456D01*
X157094230Y-49864474D01*
X156995058Y-49665311D01*
X156860981Y-49487764D01*
X156820384Y-49450755D01*
X156696565Y-49337878D01*
X156674206Y-49324034D01*
X156507401Y-49220753D01*
X156507399Y-49220752D01*
X156403670Y-49180567D01*
X156299940Y-49140382D01*
X156081243Y-49099500D01*
X155858757Y-49099500D01*
X155640060Y-49140382D01*
X155640057Y-49140382D01*
X155640057Y-49140383D01*
X155432600Y-49220752D01*
X155243434Y-49337878D01*
X155079020Y-49487762D01*
X155009344Y-49580029D01*
X154992082Y-49594363D01*
X154970241Y-49599500D01*
X152670078Y-49599500D01*
X152643750Y-49591826D01*
X152625669Y-49571209D01*
X152599907Y-49515963D01*
X152530568Y-49367266D01*
X152400047Y-49180861D01*
X152400046Y-49180860D01*
X152400044Y-49180857D01*
X152239142Y-49019955D01*
X152052731Y-48889430D01*
X151848958Y-48794409D01*
X151824128Y-48768091D01*
X151824128Y-48731909D01*
X151848958Y-48705591D01*
X151877167Y-48692437D01*
X152052734Y-48610568D01*
X152239139Y-48480047D01*
X152400047Y-48319139D01*
X152482491Y-48201394D01*
X152500004Y-48186037D01*
X152522630Y-48180500D01*
X155339928Y-48180500D01*
X155365722Y-48187838D01*
X155432599Y-48229247D01*
X155640060Y-48309618D01*
X155858757Y-48350500D01*
X156081241Y-48350500D01*
X156081243Y-48350500D01*
X156299940Y-48309618D01*
X156507401Y-48229247D01*
X156696562Y-48112124D01*
X156860981Y-47962236D01*
X156995058Y-47784689D01*
X157094229Y-47585528D01*
X157099656Y-47566456D01*
X157155114Y-47371538D01*
X157155115Y-47371536D01*
X157175643Y-47150000D01*
X157155115Y-46928464D01*
X157116954Y-46794341D01*
X157094230Y-46714474D01*
X156995058Y-46515311D01*
X156955604Y-46463065D01*
X156860981Y-46337764D01*
X156823018Y-46303156D01*
X156734837Y-46222768D01*
X156720150Y-46197776D01*
X156722157Y-46168856D01*
X156740156Y-46146132D01*
X156767848Y-46137557D01*
X162792152Y-46137557D01*
X162819844Y-46146132D01*
X162837843Y-46168856D01*
X162839850Y-46197776D01*
X162825163Y-46222768D01*
X162699020Y-46337762D01*
X162564941Y-46515311D01*
X162465769Y-46714474D01*
X162404885Y-46928461D01*
X162384356Y-47149999D01*
X162404885Y-47371538D01*
X162465769Y-47585525D01*
X162564941Y-47784688D01*
X162564942Y-47784689D01*
X162672029Y-47926496D01*
X162699020Y-47962237D01*
X162863434Y-48112121D01*
X162863436Y-48112122D01*
X162863438Y-48112124D01*
X163052599Y-48229247D01*
X163260060Y-48309618D01*
X163478757Y-48350500D01*
X163701241Y-48350500D01*
X163701243Y-48350500D01*
X163919940Y-48309618D01*
X164127401Y-48229247D01*
X164316562Y-48112124D01*
X164480981Y-47962236D01*
X164550656Y-47869970D01*
X164567918Y-47855637D01*
X164589759Y-47850500D01*
X166469120Y-47850500D01*
X166490961Y-47855637D01*
X166508223Y-47869971D01*
X166557574Y-47935323D01*
X166718566Y-48082087D01*
X166745290Y-48098634D01*
X166765709Y-48124009D01*
X166765709Y-48156579D01*
X166745290Y-48181954D01*
X166718873Y-48198311D01*
X166557942Y-48345016D01*
X166426714Y-48518792D01*
X166329650Y-48713723D01*
X166279494Y-48889999D01*
X166279495Y-48890000D01*
X168580505Y-48890000D01*
X168580505Y-48889999D01*
X168530349Y-48713723D01*
X168433285Y-48518792D01*
X168302057Y-48345016D01*
X168141126Y-48198311D01*
X168114708Y-48181954D01*
X168094289Y-48156579D01*
X168094290Y-48124008D01*
X168114707Y-48098635D01*
X168141432Y-48082088D01*
X168302427Y-47935322D01*
X168433712Y-47761472D01*
X168530817Y-47566459D01*
X168590435Y-47356923D01*
X168610536Y-47140000D01*
X168592930Y-46950000D01*
X175189494Y-46950000D01*
X175239650Y-47126276D01*
X175336714Y-47321207D01*
X175467942Y-47494983D01*
X175628871Y-47641686D01*
X175814015Y-47756323D01*
X176017065Y-47834985D01*
X176090000Y-47848619D01*
X176090000Y-46950000D01*
X176590000Y-46950000D01*
X176590000Y-47848619D01*
X176662934Y-47834985D01*
X176865984Y-47756323D01*
X177051128Y-47641686D01*
X177212057Y-47494983D01*
X177343285Y-47321207D01*
X177440349Y-47126276D01*
X177490505Y-46950000D01*
X176590000Y-46950000D01*
X176090000Y-46950000D01*
X175189494Y-46950000D01*
X168592930Y-46950000D01*
X168590435Y-46923077D01*
X168563175Y-46827268D01*
X168530818Y-46713543D01*
X168433712Y-46518528D01*
X168302428Y-46344678D01*
X168168699Y-46222769D01*
X168154012Y-46197776D01*
X168156019Y-46168856D01*
X168174018Y-46146132D01*
X168201710Y-46137557D01*
X173580286Y-46137557D01*
X173583245Y-46137646D01*
X173645549Y-46141415D01*
X173706960Y-46130160D01*
X173709851Y-46129720D01*
X173759504Y-46123691D01*
X173771816Y-46122197D01*
X173778120Y-46119805D01*
X173787654Y-46116189D01*
X173796188Y-46113809D01*
X173812875Y-46110752D01*
X173869814Y-46085124D01*
X173872513Y-46084007D01*
X173914420Y-46068114D01*
X173930871Y-46061876D01*
X173930871Y-46061875D01*
X173930873Y-46061875D01*
X173944825Y-46052243D01*
X173952538Y-46047892D01*
X173968000Y-46040935D01*
X174017144Y-46002431D01*
X174019484Y-46000710D01*
X174070872Y-45965240D01*
X174112272Y-45918507D01*
X174114267Y-45916388D01*
X175106024Y-44924631D01*
X175136150Y-44910489D01*
X175168363Y-44918855D01*
X175187800Y-44945870D01*
X175239182Y-45126458D01*
X175336287Y-45321471D01*
X175467571Y-45495321D01*
X175628569Y-45642089D01*
X175655290Y-45658634D01*
X175675709Y-45684009D01*
X175675709Y-45716579D01*
X175655290Y-45741954D01*
X175628873Y-45758311D01*
X175467942Y-45905016D01*
X175336714Y-46078792D01*
X175239650Y-46273723D01*
X175189494Y-46449999D01*
X175189495Y-46450000D01*
X177490505Y-46450000D01*
X177490505Y-46449999D01*
X177440349Y-46273723D01*
X177343285Y-46078792D01*
X177212057Y-45905016D01*
X177051126Y-45758311D01*
X177024708Y-45741954D01*
X177004289Y-45716579D01*
X177004290Y-45684008D01*
X177024707Y-45658635D01*
X177051432Y-45642088D01*
X177212427Y-45495322D01*
X177343712Y-45321472D01*
X177440817Y-45126459D01*
X177500435Y-44916923D01*
X177520536Y-44700000D01*
X177500435Y-44483077D01*
X177458616Y-44336097D01*
X177440818Y-44273543D01*
X177343712Y-44078528D01*
X177212428Y-43904678D01*
X177122693Y-43822875D01*
X177051432Y-43757912D01*
X177025182Y-43741659D01*
X177004764Y-43716285D01*
X177004764Y-43683715D01*
X177025182Y-43658340D01*
X177051432Y-43642088D01*
X177212427Y-43495322D01*
X177343712Y-43321472D01*
X177440817Y-43126459D01*
X177500435Y-42916923D01*
X177520536Y-42700000D01*
X177500435Y-42483077D01*
X177453330Y-42317518D01*
X177440818Y-42273543D01*
X177343712Y-42078528D01*
X177211312Y-41903201D01*
X177201432Y-41874974D01*
X177209798Y-41846263D01*
X177233292Y-41827761D01*
X177257331Y-41818796D01*
X177372546Y-41732546D01*
X177458796Y-41617331D01*
X177509091Y-41482483D01*
X177515500Y-41422873D01*
X177515499Y-39977128D01*
X177509091Y-39917517D01*
X177458796Y-39782669D01*
X177372546Y-39667454D01*
X177314938Y-39624328D01*
X177257332Y-39581204D01*
X177122481Y-39530908D01*
X177062875Y-39524500D01*
X177062873Y-39524500D01*
X176458295Y-39524500D01*
X176423647Y-39510148D01*
X175144681Y-38231182D01*
X183669500Y-38231182D01*
X183708604Y-38490615D01*
X183719206Y-38524986D01*
X183785937Y-38741326D01*
X183899768Y-38977698D01*
X183899771Y-38977703D01*
X183899772Y-38977704D01*
X184047567Y-39194479D01*
X184226019Y-39386805D01*
X184431143Y-39550386D01*
X184431145Y-39550387D01*
X184658353Y-39681566D01*
X184658354Y-39681566D01*
X184658357Y-39681568D01*
X184902584Y-39777420D01*
X185030476Y-39806610D01*
X185158367Y-39835802D01*
X185305471Y-39846825D01*
X185354506Y-39850500D01*
X185485493Y-39850500D01*
X185485494Y-39850500D01*
X185550872Y-39845600D01*
X185681632Y-39835802D01*
X185766891Y-39816341D01*
X185937416Y-39777420D01*
X186181643Y-39681568D01*
X186408857Y-39550386D01*
X186613981Y-39386805D01*
X186792433Y-39194479D01*
X186940228Y-38977704D01*
X186985798Y-38883077D01*
X187054062Y-38741326D01*
X187074971Y-38673541D01*
X187131396Y-38490615D01*
X187170500Y-38231182D01*
X187170500Y-37968818D01*
X187131396Y-37709385D01*
X187054063Y-37458677D01*
X187054062Y-37458673D01*
X186940231Y-37222301D01*
X186888246Y-37146053D01*
X186792433Y-37005521D01*
X186613981Y-36813195D01*
X186408857Y-36649614D01*
X186408854Y-36649612D01*
X186181646Y-36518433D01*
X186051284Y-36467270D01*
X185937416Y-36422580D01*
X185937412Y-36422579D01*
X185681632Y-36364197D01*
X185497493Y-36350399D01*
X185485494Y-36349500D01*
X185354506Y-36349500D01*
X185343198Y-36350347D01*
X185158367Y-36364197D01*
X184902587Y-36422579D01*
X184902585Y-36422579D01*
X184902584Y-36422580D01*
X184881232Y-36430960D01*
X184658353Y-36518433D01*
X184431145Y-36649612D01*
X184328155Y-36731744D01*
X184265829Y-36781448D01*
X184226018Y-36813196D01*
X184047569Y-37005518D01*
X183899768Y-37222301D01*
X183785937Y-37458673D01*
X183713015Y-37695083D01*
X183708604Y-37709385D01*
X183669500Y-37968818D01*
X183669500Y-38231182D01*
X175144681Y-38231182D01*
X173249590Y-36336091D01*
X173244601Y-36330251D01*
X173232888Y-36314129D01*
X173181026Y-36267432D01*
X173179165Y-36265666D01*
X173163381Y-36249881D01*
X173146025Y-36235826D01*
X173144076Y-36234161D01*
X173092216Y-36187467D01*
X173074966Y-36177508D01*
X173068628Y-36173152D01*
X173053151Y-36160618D01*
X173052061Y-36160062D01*
X172990943Y-36128921D01*
X172988720Y-36127714D01*
X172969382Y-36116549D01*
X172928284Y-36092821D01*
X172909334Y-36086664D01*
X172902236Y-36083723D01*
X172891312Y-36078157D01*
X172884487Y-36074679D01*
X172817081Y-36056617D01*
X172814623Y-36055889D01*
X172748253Y-36034325D01*
X172728441Y-36032242D01*
X172720888Y-36030843D01*
X172701646Y-36025687D01*
X172663837Y-36023705D01*
X172631951Y-36022034D01*
X172629396Y-36021833D01*
X172626428Y-36021521D01*
X172607192Y-36019500D01*
X172607190Y-36019500D01*
X172584866Y-36019500D01*
X172582302Y-36019433D01*
X172572074Y-36018897D01*
X172512612Y-36015781D01*
X172512611Y-36015781D01*
X172492938Y-36018897D01*
X172485274Y-36019500D01*
X133015352Y-36019500D01*
X132971448Y-36028831D01*
X132966384Y-36029633D01*
X132921743Y-36034325D01*
X132879048Y-36048197D01*
X132874097Y-36049524D01*
X132830196Y-36058856D01*
X132789191Y-36077112D01*
X132784405Y-36078949D01*
X132741718Y-36092819D01*
X132702839Y-36115266D01*
X132698271Y-36117593D01*
X132657270Y-36135848D01*
X132620960Y-36162227D01*
X132616662Y-36165018D01*
X132577783Y-36187467D01*
X132544429Y-36217498D01*
X132540446Y-36220724D01*
X132504126Y-36247113D01*
X132474093Y-36280468D01*
X132470468Y-36284093D01*
X132437113Y-36314126D01*
X132410724Y-36350446D01*
X132407498Y-36354429D01*
X132377467Y-36387783D01*
X132355018Y-36426662D01*
X132352227Y-36430960D01*
X132325848Y-36467270D01*
X132307593Y-36508271D01*
X132305266Y-36512839D01*
X132282819Y-36551718D01*
X132268949Y-36594405D01*
X132267112Y-36599191D01*
X132248856Y-36640196D01*
X132239524Y-36684097D01*
X132238197Y-36689048D01*
X132224325Y-36731743D01*
X132219633Y-36776384D01*
X132218831Y-36781448D01*
X132209500Y-36825352D01*
X132209500Y-69755274D01*
X132208897Y-69762938D01*
X132205781Y-69782611D01*
X132209433Y-69852302D01*
X132209500Y-69854866D01*
X132209500Y-69877190D01*
X132211833Y-69899396D01*
X132212034Y-69901951D01*
X132215687Y-69971646D01*
X132215752Y-69971888D01*
X132220842Y-69990883D01*
X132222242Y-69998441D01*
X132224325Y-70018253D01*
X132245889Y-70084623D01*
X132246617Y-70087081D01*
X132264679Y-70154487D01*
X132273722Y-70172233D01*
X132276664Y-70179334D01*
X132282821Y-70198284D01*
X132316634Y-70256849D01*
X132317714Y-70258720D01*
X132318921Y-70260943D01*
X132344569Y-70311279D01*
X132350618Y-70323151D01*
X132363152Y-70338628D01*
X132367508Y-70344966D01*
X132377467Y-70362216D01*
X132424161Y-70414076D01*
X132425826Y-70416025D01*
X132439881Y-70433381D01*
X132455666Y-70449165D01*
X132457433Y-70451027D01*
X132497351Y-70495361D01*
X132504129Y-70502888D01*
X132520251Y-70514601D01*
X132526091Y-70519590D01*
X134840946Y-72834445D01*
X134852342Y-72852331D01*
X134855112Y-72873358D01*
X134854532Y-72879995D01*
X134854532Y-72880000D01*
X134862587Y-72972067D01*
X134874365Y-73106696D01*
X134933260Y-73326495D01*
X135029430Y-73532731D01*
X135159955Y-73719142D01*
X135320857Y-73880044D01*
X135320860Y-73880046D01*
X135320861Y-73880047D01*
X135507266Y-74010568D01*
X135507267Y-74010568D01*
X135507268Y-74010569D01*
X135711041Y-74105591D01*
X135735871Y-74131909D01*
X135735871Y-74168091D01*
X135711041Y-74194409D01*
X135507268Y-74289430D01*
X135320857Y-74419955D01*
X135159955Y-74580857D01*
X135029430Y-74767268D01*
X134933260Y-74973504D01*
X134874365Y-75193303D01*
X134854532Y-75420000D01*
X134874365Y-75646696D01*
X134933260Y-75866495D01*
X135029430Y-76072731D01*
X135029431Y-76072733D01*
X135029432Y-76072734D01*
X135038426Y-76085579D01*
X135159955Y-76259142D01*
X135320857Y-76420044D01*
X135320860Y-76420046D01*
X135320861Y-76420047D01*
X135507266Y-76550568D01*
X135682833Y-76632437D01*
X135711632Y-76645866D01*
X135736462Y-76672184D01*
X135736462Y-76708366D01*
X135711633Y-76734684D01*
X135507512Y-76829868D01*
X135321184Y-76960336D01*
X135160336Y-77121184D01*
X135029866Y-77307514D01*
X134989093Y-77394954D01*
X134968325Y-77417166D01*
X134938452Y-77422848D01*
X134910980Y-77409813D01*
X134896487Y-77383080D01*
X134893103Y-77364612D01*
X134892666Y-77361745D01*
X134885140Y-77299757D01*
X134879130Y-77283910D01*
X134876749Y-77275366D01*
X134873694Y-77258698D01*
X134872686Y-77256459D01*
X134856826Y-77221218D01*
X134848081Y-77201787D01*
X134846948Y-77199052D01*
X134824818Y-77140699D01*
X134816394Y-77128496D01*
X134815186Y-77126746D01*
X134810829Y-77119020D01*
X134803878Y-77103574D01*
X134803877Y-77103573D01*
X134803877Y-77103572D01*
X134765379Y-77054434D01*
X134763640Y-77052069D01*
X134760089Y-77046925D01*
X134728183Y-77000700D01*
X134695497Y-76971743D01*
X134681461Y-76959308D01*
X134679306Y-76957279D01*
X134242712Y-76520684D01*
X134240683Y-76518529D01*
X134199300Y-76471817D01*
X134147932Y-76436359D01*
X134145549Y-76434605D01*
X134096429Y-76396122D01*
X134080975Y-76389167D01*
X134073251Y-76384811D01*
X134069667Y-76382337D01*
X134059301Y-76375182D01*
X134000942Y-76353049D01*
X133998213Y-76351918D01*
X133941302Y-76326304D01*
X133924626Y-76323248D01*
X133916086Y-76320867D01*
X133900245Y-76314860D01*
X133838289Y-76307336D01*
X133835369Y-76306891D01*
X133773977Y-76295642D01*
X133773976Y-76295642D01*
X133711673Y-76299411D01*
X133708714Y-76299500D01*
X133091286Y-76299500D01*
X133088327Y-76299411D01*
X133026023Y-76295642D01*
X132964635Y-76306891D01*
X132961710Y-76307336D01*
X132899756Y-76314859D01*
X132883916Y-76320867D01*
X132875375Y-76323248D01*
X132858697Y-76326304D01*
X132801791Y-76351916D01*
X132799057Y-76353048D01*
X132740701Y-76375180D01*
X132726745Y-76384813D01*
X132719024Y-76389167D01*
X132703573Y-76396121D01*
X132654450Y-76434605D01*
X132652069Y-76436357D01*
X132600700Y-76471816D01*
X132590799Y-76482993D01*
X132574232Y-76495183D01*
X132554122Y-76499500D01*
X131960453Y-76499500D01*
X131925805Y-76485148D01*
X130964852Y-75524195D01*
X130950500Y-75489547D01*
X130950500Y-64034945D01*
X130950085Y-64033261D01*
X130940989Y-63996361D01*
X130939928Y-63990569D01*
X130935140Y-63951128D01*
X130921052Y-63913981D01*
X130919294Y-63908337D01*
X130918313Y-63904358D01*
X130909790Y-63869775D01*
X130891326Y-63834596D01*
X130888906Y-63829219D01*
X130874818Y-63792070D01*
X130855771Y-63764476D01*
X130852247Y-63759370D01*
X130849189Y-63754312D01*
X130830734Y-63719148D01*
X130804399Y-63689421D01*
X130800750Y-63684764D01*
X130778182Y-63652070D01*
X130748451Y-63625731D01*
X130744267Y-63621547D01*
X130717927Y-63591815D01*
X130685234Y-63569247D01*
X130680578Y-63565600D01*
X130669199Y-63555520D01*
X130650852Y-63539266D01*
X130615684Y-63520808D01*
X130610626Y-63517751D01*
X130577930Y-63495182D01*
X130577926Y-63495179D01*
X130540782Y-63481092D01*
X130535387Y-63478664D01*
X130500226Y-63460210D01*
X130461656Y-63450703D01*
X130456008Y-63448943D01*
X130418872Y-63434860D01*
X130379437Y-63430071D01*
X130373618Y-63429004D01*
X130335058Y-63419500D01*
X130335056Y-63419500D01*
X130292372Y-63419500D01*
X126372657Y-63419500D01*
X126369698Y-63419411D01*
X126307394Y-63415642D01*
X126246006Y-63426891D01*
X126243081Y-63427336D01*
X126181127Y-63434859D01*
X126165287Y-63440867D01*
X126156746Y-63443248D01*
X126140068Y-63446304D01*
X126083162Y-63471916D01*
X126080428Y-63473048D01*
X126022072Y-63495180D01*
X126008116Y-63504813D01*
X126000395Y-63509167D01*
X125984944Y-63516121D01*
X125935821Y-63554605D01*
X125933440Y-63556357D01*
X125882070Y-63591817D01*
X125840685Y-63638530D01*
X125838657Y-63640684D01*
X124410684Y-65068657D01*
X124408530Y-65070685D01*
X124361817Y-65112070D01*
X124326358Y-65163438D01*
X124324606Y-65165819D01*
X124286121Y-65214943D01*
X124279166Y-65230396D01*
X124274811Y-65238118D01*
X124265181Y-65252069D01*
X124247502Y-65298684D01*
X124221996Y-65325900D01*
X124184722Y-65327276D01*
X124157278Y-65302015D01*
X124134036Y-65252173D01*
X124133963Y-65252069D01*
X123998495Y-65058599D01*
X123998493Y-65058596D01*
X123831400Y-64891503D01*
X123637832Y-64755965D01*
X123552449Y-64716151D01*
X123527266Y-64704408D01*
X123502437Y-64678091D01*
X123502437Y-64641909D01*
X123527266Y-64615591D01*
X123637830Y-64564035D01*
X123637830Y-64564034D01*
X123637832Y-64564034D01*
X123831400Y-64428496D01*
X123998496Y-64261400D01*
X124134034Y-64067832D01*
X124134151Y-64067581D01*
X124233903Y-63853663D01*
X124291547Y-63638530D01*
X124295062Y-63625412D01*
X124295062Y-63625411D01*
X124295063Y-63625408D01*
X124315659Y-63390000D01*
X124295063Y-63154592D01*
X124233903Y-62926337D01*
X124134035Y-62712171D01*
X123998495Y-62518599D01*
X123998493Y-62518596D01*
X123831400Y-62351503D01*
X123637832Y-62215965D01*
X123527859Y-62164685D01*
X123527266Y-62164408D01*
X123502437Y-62138091D01*
X123502437Y-62101909D01*
X123527266Y-62075591D01*
X123637830Y-62024035D01*
X123637830Y-62024034D01*
X123637832Y-62024034D01*
X123831400Y-61888496D01*
X123998496Y-61721400D01*
X124134034Y-61527832D01*
X124179128Y-61431127D01*
X124233903Y-61313663D01*
X124293911Y-61089708D01*
X124295062Y-61085412D01*
X124295062Y-61085411D01*
X124295063Y-61085408D01*
X124315659Y-60850000D01*
X124295063Y-60614592D01*
X124233903Y-60386337D01*
X124134035Y-60172171D01*
X123998495Y-59978599D01*
X123998493Y-59978596D01*
X123831400Y-59811503D01*
X123637832Y-59675965D01*
X123526675Y-59624132D01*
X123501845Y-59597814D01*
X123501845Y-59561632D01*
X123526675Y-59535314D01*
X123637581Y-59483598D01*
X123831077Y-59348111D01*
X123998111Y-59181077D01*
X124133599Y-58987581D01*
X124233431Y-58773489D01*
X124290636Y-58560000D01*
X122759000Y-58560000D01*
X122724352Y-58545648D01*
X122710000Y-58511000D01*
X122710000Y-58109000D01*
X122724352Y-58074352D01*
X122759000Y-58060000D01*
X124290636Y-58060000D01*
X124290636Y-58059999D01*
X124233431Y-57846510D01*
X124133601Y-57632424D01*
X123998108Y-57438919D01*
X123831077Y-57271888D01*
X123637581Y-57136400D01*
X123526675Y-57084685D01*
X123501845Y-57058367D01*
X123501845Y-57022185D01*
X123526674Y-56995868D01*
X123637830Y-56944035D01*
X123637830Y-56944034D01*
X123637832Y-56944034D01*
X123831400Y-56808496D01*
X123998496Y-56641400D01*
X124134034Y-56447832D01*
X124134035Y-56447830D01*
X124233903Y-56233663D01*
X124295063Y-56005408D01*
X124315659Y-55770000D01*
X124295063Y-55534592D01*
X124233903Y-55306337D01*
X124134035Y-55092171D01*
X123998495Y-54898599D01*
X123998493Y-54898596D01*
X123831400Y-54731503D01*
X123637832Y-54595965D01*
X123526675Y-54544132D01*
X123501845Y-54517814D01*
X123501845Y-54481632D01*
X123526675Y-54455314D01*
X123637581Y-54403598D01*
X123831077Y-54268111D01*
X123998111Y-54101077D01*
X124133599Y-53907581D01*
X124233431Y-53693489D01*
X124290636Y-53480000D01*
X122759000Y-53480000D01*
X122724352Y-53465648D01*
X122710000Y-53431000D01*
X122710000Y-53029000D01*
X122724352Y-52994352D01*
X122759000Y-52980000D01*
X124290636Y-52980000D01*
X124290636Y-52979999D01*
X124233431Y-52766510D01*
X124133601Y-52552424D01*
X123998108Y-52358919D01*
X123831077Y-52191888D01*
X123637581Y-52056400D01*
X123526675Y-52004685D01*
X123501845Y-51978367D01*
X123501845Y-51942185D01*
X123526674Y-51915868D01*
X123637830Y-51864035D01*
X123637830Y-51864034D01*
X123637832Y-51864034D01*
X123831400Y-51728496D01*
X123998496Y-51561400D01*
X124134034Y-51367832D01*
X124149057Y-51335616D01*
X124233903Y-51153663D01*
X124292576Y-50934689D01*
X124295062Y-50925412D01*
X124295062Y-50925411D01*
X124295063Y-50925408D01*
X124315659Y-50690000D01*
X124295063Y-50454592D01*
X124233903Y-50226337D01*
X124134035Y-50012171D01*
X123998495Y-49818599D01*
X123998493Y-49818596D01*
X123831400Y-49651503D01*
X123637832Y-49515965D01*
X123527267Y-49464408D01*
X123502437Y-49438090D01*
X123502437Y-49401908D01*
X123527265Y-49375591D01*
X123637830Y-49324035D01*
X123831401Y-49188495D01*
X123998495Y-49021401D01*
X124005842Y-49010909D01*
X124134034Y-48827832D01*
X124134035Y-48827830D01*
X124233903Y-48613663D01*
X124295063Y-48385408D01*
X124315659Y-48150000D01*
X124295063Y-47914592D01*
X124252655Y-47756323D01*
X124233903Y-47686337D01*
X124134036Y-47472173D01*
X123998493Y-47278596D01*
X123831400Y-47111503D01*
X123637832Y-46975965D01*
X123552449Y-46936151D01*
X123527266Y-46924408D01*
X123502437Y-46898091D01*
X123502437Y-46861909D01*
X123527266Y-46835591D01*
X123637830Y-46784035D01*
X123637830Y-46784034D01*
X123637832Y-46784034D01*
X123831400Y-46648496D01*
X123998496Y-46481400D01*
X124134034Y-46287832D01*
X124140613Y-46273723D01*
X124233903Y-46073663D01*
X124295063Y-45845408D01*
X124315659Y-45610000D01*
X124295063Y-45374592D01*
X124280829Y-45321471D01*
X124233903Y-45146337D01*
X124134036Y-44932173D01*
X124123359Y-44916925D01*
X123998495Y-44738599D01*
X123998493Y-44738596D01*
X123831400Y-44571503D01*
X123637832Y-44435965D01*
X123423662Y-44336096D01*
X123195412Y-44274937D01*
X122960000Y-44254341D01*
X122724587Y-44274937D01*
X122496337Y-44336096D01*
X122282173Y-44435963D01*
X122088596Y-44571506D01*
X121921506Y-44738596D01*
X121785965Y-44932171D01*
X121734132Y-45043324D01*
X121707814Y-45068153D01*
X121671632Y-45068153D01*
X121645314Y-45043323D01*
X121593601Y-44932424D01*
X121458108Y-44738919D01*
X121291077Y-44571888D01*
X121097581Y-44436400D01*
X120883489Y-44336568D01*
X120670000Y-44279363D01*
X120670000Y-45811000D01*
X120655648Y-45845648D01*
X120621000Y-45860000D01*
X119089363Y-45860000D01*
X119146568Y-46073489D01*
X119246400Y-46287581D01*
X119381888Y-46481077D01*
X119548922Y-46648111D01*
X119742418Y-46783599D01*
X119853323Y-46835314D01*
X119878153Y-46861632D01*
X119878153Y-46897814D01*
X119853324Y-46924132D01*
X119742171Y-46975965D01*
X119548596Y-47111506D01*
X119381506Y-47278596D01*
X119245963Y-47472173D01*
X119146096Y-47686337D01*
X119084937Y-47914587D01*
X119064341Y-48149999D01*
X119084937Y-48385412D01*
X119146096Y-48613662D01*
X119245965Y-48827832D01*
X119381503Y-49021400D01*
X119548599Y-49188496D01*
X119742167Y-49324034D01*
X119852732Y-49375591D01*
X119877562Y-49401909D01*
X119877562Y-49438091D01*
X119852732Y-49464409D01*
X119742173Y-49515963D01*
X119548596Y-49651506D01*
X119381506Y-49818596D01*
X119245963Y-50012173D01*
X119146096Y-50226337D01*
X119084937Y-50454587D01*
X119064341Y-50689999D01*
X119084937Y-50925412D01*
X119146096Y-51153662D01*
X119245965Y-51367832D01*
X119381503Y-51561400D01*
X119548599Y-51728496D01*
X119742167Y-51864034D01*
X119852732Y-51915591D01*
X119877562Y-51941909D01*
X119877562Y-51978091D01*
X119852732Y-52004409D01*
X119742173Y-52055963D01*
X119548596Y-52191506D01*
X119381506Y-52358596D01*
X119245963Y-52552173D01*
X119146096Y-52766337D01*
X119084937Y-52994587D01*
X119064341Y-53230000D01*
X119084937Y-53465412D01*
X119146096Y-53693662D01*
X119245965Y-53907832D01*
X119381503Y-54101400D01*
X119548599Y-54268496D01*
X119742167Y-54404034D01*
X119852732Y-54455591D01*
X119877562Y-54481909D01*
X119877562Y-54518091D01*
X119852732Y-54544409D01*
X119742173Y-54595963D01*
X119548596Y-54731506D01*
X119381506Y-54898596D01*
X119245963Y-55092173D01*
X119146096Y-55306337D01*
X119084937Y-55534587D01*
X119064341Y-55769999D01*
X119084937Y-56005412D01*
X119146096Y-56233662D01*
X119245965Y-56447832D01*
X119381503Y-56641400D01*
X119548599Y-56808496D01*
X119742167Y-56944034D01*
X119852732Y-56995591D01*
X119877562Y-57021909D01*
X119877562Y-57058091D01*
X119852732Y-57084409D01*
X119742173Y-57135963D01*
X119548596Y-57271506D01*
X119381506Y-57438596D01*
X119245963Y-57632173D01*
X119146096Y-57846337D01*
X119084937Y-58074587D01*
X119064341Y-58310000D01*
X119084937Y-58545412D01*
X119146096Y-58773662D01*
X119245965Y-58987832D01*
X119381503Y-59181400D01*
X119548599Y-59348496D01*
X119742167Y-59484034D01*
X119852732Y-59535591D01*
X119877562Y-59561909D01*
X119877562Y-59598091D01*
X119852732Y-59624409D01*
X119742173Y-59675963D01*
X119548596Y-59811506D01*
X119381506Y-59978596D01*
X119245963Y-60172173D01*
X119146096Y-60386337D01*
X119084937Y-60614587D01*
X119064341Y-60849999D01*
X119084937Y-61085412D01*
X119146096Y-61313662D01*
X119245965Y-61527832D01*
X119381503Y-61721400D01*
X119548599Y-61888496D01*
X119742167Y-62024034D01*
X119853323Y-62075867D01*
X119878153Y-62102185D01*
X119878153Y-62138367D01*
X119853324Y-62164685D01*
X119742422Y-62216400D01*
X119548919Y-62351891D01*
X119381891Y-62518919D01*
X119246398Y-62712424D01*
X119146568Y-62926510D01*
X119089363Y-63139999D01*
X119089364Y-63140000D01*
X120621000Y-63140000D01*
X120655648Y-63154352D01*
X120670000Y-63189000D01*
X120670000Y-63591000D01*
X120655648Y-63625648D01*
X120621000Y-63640000D01*
X119089363Y-63640000D01*
X119146568Y-63853489D01*
X119246400Y-64067581D01*
X119381888Y-64261077D01*
X119548922Y-64428111D01*
X119742418Y-64563599D01*
X119853323Y-64615314D01*
X119878153Y-64641632D01*
X119878153Y-64677814D01*
X119853324Y-64704132D01*
X119742171Y-64755965D01*
X119548596Y-64891506D01*
X119381506Y-65058596D01*
X119245963Y-65252173D01*
X119146096Y-65466337D01*
X119084937Y-65694587D01*
X119064341Y-65930000D01*
X119084937Y-66165412D01*
X119146096Y-66393662D01*
X119245965Y-66607832D01*
X119381503Y-66801400D01*
X119548599Y-66968496D01*
X119742167Y-67104034D01*
X119834879Y-67147266D01*
X119845676Y-67152301D01*
X119852732Y-67155591D01*
X119877562Y-67181909D01*
X119877562Y-67218091D01*
X119852732Y-67244409D01*
X119742173Y-67295963D01*
X119548596Y-67431506D01*
X119381506Y-67598596D01*
X119245963Y-67792173D01*
X119146096Y-68006337D01*
X119084937Y-68234587D01*
X119064341Y-68469999D01*
X119084937Y-68705412D01*
X119146096Y-68933662D01*
X119245965Y-69147832D01*
X119381503Y-69341400D01*
X119548599Y-69508496D01*
X119742167Y-69644034D01*
X119852732Y-69695591D01*
X119877562Y-69721909D01*
X119877562Y-69758091D01*
X119852732Y-69784409D01*
X119742173Y-69835963D01*
X119548596Y-69971506D01*
X119381506Y-70138596D01*
X119245963Y-70332173D01*
X119146096Y-70546337D01*
X119084937Y-70774587D01*
X119064341Y-71010000D01*
X119084937Y-71245412D01*
X119146096Y-71473662D01*
X119245965Y-71687832D01*
X119381503Y-71881400D01*
X119548599Y-72048496D01*
X119742167Y-72184034D01*
X119852732Y-72235591D01*
X119877562Y-72261909D01*
X119877562Y-72298091D01*
X119852732Y-72324409D01*
X119742173Y-72375963D01*
X119548596Y-72511506D01*
X119381506Y-72678596D01*
X119245963Y-72872173D01*
X119146096Y-73086337D01*
X119084937Y-73314587D01*
X119064341Y-73549999D01*
X119084937Y-73785412D01*
X119146096Y-74013662D01*
X119245965Y-74227832D01*
X119381503Y-74421400D01*
X119548599Y-74588496D01*
X119742167Y-74724034D01*
X119852732Y-74775591D01*
X119877562Y-74801909D01*
X119877562Y-74838091D01*
X119852732Y-74864409D01*
X119742173Y-74915963D01*
X119548596Y-75051506D01*
X119381506Y-75218596D01*
X119245963Y-75412173D01*
X119146096Y-75626337D01*
X119084937Y-75854587D01*
X119064341Y-76089999D01*
X119084937Y-76325412D01*
X119146096Y-76553662D01*
X119245965Y-76767832D01*
X119381503Y-76961400D01*
X119548599Y-77128496D01*
X119742167Y-77264034D01*
X119852732Y-77315591D01*
X119877562Y-77341909D01*
X119877562Y-77378091D01*
X119852732Y-77404409D01*
X119742173Y-77455963D01*
X119548596Y-77591506D01*
X119381506Y-77758596D01*
X119245963Y-77952173D01*
X119146096Y-78166337D01*
X119084937Y-78394587D01*
X119064341Y-78630000D01*
X119084937Y-78865412D01*
X119146096Y-79093662D01*
X119245965Y-79307832D01*
X119381503Y-79501400D01*
X119548599Y-79668496D01*
X119742167Y-79804034D01*
X119852732Y-79855591D01*
X119877562Y-79881909D01*
X119877562Y-79918091D01*
X119852732Y-79944409D01*
X119742173Y-79995963D01*
X119548596Y-80131506D01*
X119381506Y-80298596D01*
X119245963Y-80492173D01*
X119146096Y-80706337D01*
X119084937Y-80934587D01*
X119064341Y-81169999D01*
X119084937Y-81405412D01*
X119146096Y-81633662D01*
X119245965Y-81847832D01*
X119381503Y-82041400D01*
X119548599Y-82208496D01*
X119742167Y-82344034D01*
X119853323Y-82395867D01*
X119878153Y-82422185D01*
X119878153Y-82458367D01*
X119853324Y-82484685D01*
X119742422Y-82536400D01*
X119548919Y-82671891D01*
X119381891Y-82838919D01*
X119246398Y-83032424D01*
X119146568Y-83246510D01*
X119089363Y-83459999D01*
X119089364Y-83460000D01*
X120621000Y-83460000D01*
X120655648Y-83474352D01*
X120670000Y-83509000D01*
X120670000Y-83911000D01*
X120655648Y-83945648D01*
X120621000Y-83960000D01*
X119089363Y-83960000D01*
X119146568Y-84173489D01*
X119246400Y-84387581D01*
X119381888Y-84581077D01*
X119548922Y-84748111D01*
X119742418Y-84883599D01*
X119853323Y-84935314D01*
X119878153Y-84961632D01*
X119878153Y-84997814D01*
X119853324Y-85024132D01*
X119742171Y-85075965D01*
X119548596Y-85211506D01*
X119381506Y-85378596D01*
X119245963Y-85572173D01*
X119146096Y-85786337D01*
X119084937Y-86014587D01*
X119064341Y-86250000D01*
X119084937Y-86485412D01*
X119146096Y-86713662D01*
X119245965Y-86927832D01*
X119381503Y-87121400D01*
X119548599Y-87288496D01*
X119742167Y-87424034D01*
X119852732Y-87475591D01*
X119877562Y-87501909D01*
X119877562Y-87538091D01*
X119852732Y-87564409D01*
X119742173Y-87615963D01*
X119548596Y-87751506D01*
X119381506Y-87918596D01*
X119245963Y-88112173D01*
X119146096Y-88326337D01*
X119084937Y-88554587D01*
X119064341Y-88789999D01*
X119084937Y-89025412D01*
X119146096Y-89253662D01*
X119245965Y-89467832D01*
X119381503Y-89661400D01*
X119548599Y-89828496D01*
X119742167Y-89964034D01*
X119852732Y-90015591D01*
X119877562Y-90041909D01*
X119877562Y-90078091D01*
X119852732Y-90104409D01*
X119742173Y-90155963D01*
X119548596Y-90291506D01*
X119381506Y-90458596D01*
X119245963Y-90652173D01*
X119146096Y-90866337D01*
X119084937Y-91094587D01*
X119064341Y-91330000D01*
X117000500Y-91330000D01*
X117000500Y-45359999D01*
X119089363Y-45359999D01*
X119089364Y-45360000D01*
X120170000Y-45360000D01*
X120170000Y-44279364D01*
X120169999Y-44279363D01*
X119956510Y-44336568D01*
X119742424Y-44436398D01*
X119548919Y-44571891D01*
X119381891Y-44738919D01*
X119246398Y-44932424D01*
X119146568Y-45146510D01*
X119089363Y-45359999D01*
X117000500Y-45359999D01*
X117000500Y-39000957D01*
X117000538Y-38999033D01*
X117005094Y-38883074D01*
X117009991Y-38758428D01*
X117019648Y-38524942D01*
X117019939Y-38521300D01*
X117048865Y-38276903D01*
X117054564Y-38231182D01*
X120169500Y-38231182D01*
X120208604Y-38490615D01*
X120219206Y-38524986D01*
X120285937Y-38741326D01*
X120399768Y-38977698D01*
X120399771Y-38977703D01*
X120399772Y-38977704D01*
X120547567Y-39194479D01*
X120726019Y-39386805D01*
X120931143Y-39550386D01*
X120931145Y-39550387D01*
X121158353Y-39681566D01*
X121158354Y-39681566D01*
X121158357Y-39681568D01*
X121402584Y-39777420D01*
X121530476Y-39806610D01*
X121658367Y-39835802D01*
X121805471Y-39846825D01*
X121854506Y-39850500D01*
X121985493Y-39850500D01*
X121985494Y-39850500D01*
X122050872Y-39845600D01*
X122181632Y-39835802D01*
X122266891Y-39816341D01*
X122437416Y-39777420D01*
X122681643Y-39681568D01*
X122908857Y-39550386D01*
X123113981Y-39386805D01*
X123292433Y-39194479D01*
X123440228Y-38977704D01*
X123485798Y-38883077D01*
X123554062Y-38741326D01*
X123574971Y-38673541D01*
X123631396Y-38490615D01*
X123670500Y-38231182D01*
X123670500Y-37968818D01*
X123631396Y-37709385D01*
X123554063Y-37458677D01*
X123554062Y-37458673D01*
X123440231Y-37222301D01*
X123388246Y-37146053D01*
X123292433Y-37005521D01*
X123113981Y-36813195D01*
X122908857Y-36649614D01*
X122908854Y-36649612D01*
X122681646Y-36518433D01*
X122551284Y-36467270D01*
X122437416Y-36422580D01*
X122437412Y-36422579D01*
X122181632Y-36364197D01*
X121997493Y-36350399D01*
X121985494Y-36349500D01*
X121854506Y-36349500D01*
X121843198Y-36350347D01*
X121658367Y-36364197D01*
X121402587Y-36422579D01*
X121402585Y-36422579D01*
X121402584Y-36422580D01*
X121381232Y-36430960D01*
X121158353Y-36518433D01*
X120931145Y-36649612D01*
X120828155Y-36731744D01*
X120765829Y-36781448D01*
X120726018Y-36813196D01*
X120547569Y-37005518D01*
X120399768Y-37222301D01*
X120285937Y-37458673D01*
X120213015Y-37695083D01*
X120208604Y-37709385D01*
X120169500Y-37968818D01*
X120169500Y-38231182D01*
X117054564Y-38231182D01*
X117077778Y-38044952D01*
X117078339Y-38041486D01*
X117126390Y-37799918D01*
X117174349Y-37571195D01*
X117175125Y-37568036D01*
X117241920Y-37331197D01*
X117242033Y-37330805D01*
X117308728Y-37106783D01*
X117309706Y-37103847D01*
X117394818Y-36873142D01*
X117395096Y-36872408D01*
X117480032Y-36654735D01*
X117481157Y-36652091D01*
X117584150Y-36428679D01*
X117584515Y-36427911D01*
X117687172Y-36217923D01*
X117688378Y-36215622D01*
X117808586Y-36000975D01*
X117809123Y-36000045D01*
X117928752Y-35799281D01*
X117930058Y-35797214D01*
X118066716Y-35592690D01*
X118067440Y-35591643D01*
X118203273Y-35401396D01*
X118204571Y-35399668D01*
X118356811Y-35206552D01*
X118357838Y-35205295D01*
X118508890Y-35026949D01*
X118510182Y-35025489D01*
X118677129Y-34844887D01*
X118678362Y-34843605D01*
X118843605Y-34678362D01*
X118844887Y-34677129D01*
X119025489Y-34510182D01*
X119026949Y-34508890D01*
X119205295Y-34357838D01*
X119206552Y-34356811D01*
X119399668Y-34204571D01*
X119401396Y-34203273D01*
X119591643Y-34067440D01*
X119592690Y-34066716D01*
X119797214Y-33930058D01*
X119799281Y-33928752D01*
X120000045Y-33809123D01*
X120000975Y-33808586D01*
X120215622Y-33688378D01*
X120217923Y-33687172D01*
X120427911Y-33584515D01*
X120428679Y-33584150D01*
X120652091Y-33481157D01*
X120654735Y-33480032D01*
X120872408Y-33395096D01*
X120873142Y-33394818D01*
X121103847Y-33309706D01*
X121106783Y-33308728D01*
X121330805Y-33242033D01*
X121331197Y-33241920D01*
X121568036Y-33175125D01*
X121571195Y-33174349D01*
X121799918Y-33126390D01*
X122041486Y-33078339D01*
X122044952Y-33077778D01*
X122276844Y-33048872D01*
X122521300Y-33019939D01*
X122524942Y-33019648D01*
X122758201Y-33010000D01*
X122992646Y-33000788D01*
X122999034Y-33000538D01*
X123000957Y-33000500D01*
X184999043Y-33000500D01*
X185000967Y-33000538D01*
G37*
G04 #@! TD.AperFunction*
M02*
