G04 #@! TF.GenerationSoftware,KiCad,Pcbnew,7.0.1*
G04 #@! TF.CreationDate,2023-05-22T18:49:14+02:00*
G04 #@! TF.ProjectId,carte_v2,63617274-655f-4763-922e-6b696361645f,rev?*
G04 #@! TF.SameCoordinates,Original*
G04 #@! TF.FileFunction,Legend,Bot*
G04 #@! TF.FilePolarity,Positive*
%FSLAX46Y46*%
G04 Gerber Fmt 4.6, Leading zero omitted, Abs format (unit mm)*
G04 Created by KiCad (PCBNEW 7.0.1) date 2023-05-22 18:49:14*
%MOMM*%
%LPD*%
G01*
G04 APERTURE LIST*
%ADD10C,0.120000*%
%ADD11R,2.200000X2.200000*%
%ADD12O,2.200000X2.200000*%
%ADD13R,1.700000X1.700000*%
%ADD14O,1.700000X1.700000*%
%ADD15R,1.350000X1.350000*%
%ADD16O,1.350000X1.350000*%
%ADD17C,1.400000*%
%ADD18O,1.400000X1.400000*%
%ADD19R,2.000000X2.000000*%
%ADD20C,2.000000*%
%ADD21C,3.000000*%
%ADD22R,1.560000X1.560000*%
%ADD23C,1.560000*%
%ADD24R,1.600000X1.600000*%
%ADD25O,1.600000X1.600000*%
G04 APERTURE END LIST*
D10*
X121690000Y-95200000D02*
X124290000Y-95200000D01*
X119090000Y-95200000D02*
X120420000Y-95200000D01*
X119090000Y-92600000D02*
X119090000Y-44280000D01*
X119090000Y-93870000D02*
X119090000Y-95200000D01*
X119090000Y-92600000D02*
X121690000Y-92600000D01*
X119090000Y-44280000D02*
X124290000Y-44280000D01*
X124290000Y-95200000D02*
X124290000Y-44280000D01*
X121690000Y-92600000D02*
X121690000Y-95200000D01*
%LPC*%
D11*
X127820000Y-91010000D03*
D12*
X127820000Y-80850000D03*
D13*
X120420000Y-93870000D03*
D14*
X122960000Y-93870000D03*
X120420000Y-91330000D03*
X122960000Y-91330000D03*
X120420000Y-88790000D03*
X122960000Y-88790000D03*
X120420000Y-86250000D03*
X122960000Y-86250000D03*
X120420000Y-83710000D03*
X122960000Y-83710000D03*
X120420000Y-81170000D03*
X122960000Y-81170000D03*
X120420000Y-78630000D03*
X122960000Y-78630000D03*
X120420000Y-76090000D03*
X122960000Y-76090000D03*
X120420000Y-73550000D03*
X122960000Y-73550000D03*
X120420000Y-71010000D03*
X122960000Y-71010000D03*
X120420000Y-68470000D03*
X122960000Y-68470000D03*
X120420000Y-65930000D03*
X122960000Y-65930000D03*
X120420000Y-63390000D03*
X122960000Y-63390000D03*
X120420000Y-60850000D03*
X122960000Y-60850000D03*
X120420000Y-58310000D03*
X122960000Y-58310000D03*
X120420000Y-55770000D03*
X122960000Y-55770000D03*
X120420000Y-53230000D03*
X122960000Y-53230000D03*
X120420000Y-50690000D03*
X122960000Y-50690000D03*
X120420000Y-48150000D03*
X122960000Y-48150000D03*
X120420000Y-45610000D03*
X122960000Y-45610000D03*
D15*
X176270000Y-82830000D03*
D16*
X176270000Y-80830000D03*
X176270000Y-78830000D03*
X176270000Y-76830000D03*
D17*
X172860000Y-81180000D03*
D18*
X165240000Y-81180000D03*
D17*
X172910000Y-78730000D03*
D18*
X165290000Y-78730000D03*
D15*
X176350000Y-50180000D03*
D16*
X176350000Y-52180000D03*
X176350000Y-54180000D03*
D15*
X156500000Y-43100000D03*
D16*
X156500000Y-41100000D03*
X156500000Y-39100000D03*
D17*
X163590000Y-53450000D03*
D18*
X155970000Y-53450000D03*
D17*
X150490000Y-101000000D03*
D18*
X158110000Y-101000000D03*
D17*
X163590000Y-47150000D03*
D18*
X155970000Y-47150000D03*
D15*
X127540000Y-99870000D03*
D16*
X129540000Y-99870000D03*
X131540000Y-99870000D03*
X133540000Y-99870000D03*
D15*
X176350000Y-58300000D03*
D16*
X176350000Y-60300000D03*
X176350000Y-62300000D03*
D19*
X161400000Y-63200000D03*
D20*
X161400000Y-70800000D03*
D17*
X172690000Y-101100000D03*
D18*
X180310000Y-101100000D03*
D21*
X121920000Y-38100000D03*
X121920000Y-101600000D03*
D15*
X176330000Y-66720000D03*
D16*
X176330000Y-68720000D03*
X176330000Y-70720000D03*
D11*
X127740000Y-76920000D03*
D12*
X127740000Y-66760000D03*
D22*
X138270000Y-92980000D03*
D23*
X140770000Y-97980000D03*
X143270000Y-92980000D03*
D20*
X173050000Y-92350000D03*
X179550000Y-92350000D03*
X173050000Y-96850000D03*
X179550000Y-96850000D03*
D17*
X161590000Y-101000000D03*
D18*
X169210000Y-101000000D03*
D15*
X167430000Y-53140000D03*
D16*
X167430000Y-51140000D03*
X167430000Y-49140000D03*
X167430000Y-47140000D03*
D20*
X161950000Y-92350000D03*
X168450000Y-92350000D03*
X161950000Y-96850000D03*
X168450000Y-96850000D03*
D17*
X163590000Y-50300000D03*
D18*
X155970000Y-50300000D03*
D21*
X185420000Y-38100000D03*
X185420000Y-101600000D03*
D15*
X176340000Y-40700000D03*
D16*
X176340000Y-42700000D03*
X176340000Y-44700000D03*
X176340000Y-46700000D03*
D24*
X151400000Y-80500000D03*
D25*
X151400000Y-77960000D03*
X151400000Y-75420000D03*
X151400000Y-72880000D03*
X151400000Y-70340000D03*
X151400000Y-67800000D03*
X151400000Y-65260000D03*
X151400000Y-62720000D03*
X151400000Y-60180000D03*
X151400000Y-57640000D03*
X151400000Y-55100000D03*
X151400000Y-52560000D03*
X151400000Y-50020000D03*
X151400000Y-47480000D03*
X151400000Y-44940000D03*
X136160000Y-44940000D03*
X136160000Y-47480000D03*
X136160000Y-50020000D03*
X136160000Y-52560000D03*
X136160000Y-55100000D03*
X136160000Y-57640000D03*
X136160000Y-60180000D03*
X136160000Y-62720000D03*
X136160000Y-65260000D03*
X136160000Y-67800000D03*
X136160000Y-70340000D03*
X136160000Y-72880000D03*
X136160000Y-75420000D03*
X136160000Y-77960000D03*
X136160000Y-80500000D03*
D20*
X151050000Y-92350000D03*
X157550000Y-92350000D03*
X151050000Y-96850000D03*
X157550000Y-96850000D03*
M02*
