G04 #@! TF.GenerationSoftware,KiCad,Pcbnew,7.0.1*
G04 #@! TF.CreationDate,2023-05-22T18:49:14+02:00*
G04 #@! TF.ProjectId,carte_v2,63617274-655f-4763-922e-6b696361645f,rev?*
G04 #@! TF.SameCoordinates,Original*
G04 #@! TF.FileFunction,Copper,L2,Bot*
G04 #@! TF.FilePolarity,Positive*
%FSLAX46Y46*%
G04 Gerber Fmt 4.6, Leading zero omitted, Abs format (unit mm)*
G04 Created by KiCad (PCBNEW 7.0.1) date 2023-05-22 18:49:14*
%MOMM*%
%LPD*%
G01*
G04 APERTURE LIST*
G04 #@! TA.AperFunction,ComponentPad*
%ADD10R,2.200000X2.200000*%
G04 #@! TD*
G04 #@! TA.AperFunction,ComponentPad*
%ADD11O,2.200000X2.200000*%
G04 #@! TD*
G04 #@! TA.AperFunction,ComponentPad*
%ADD12R,1.700000X1.700000*%
G04 #@! TD*
G04 #@! TA.AperFunction,ComponentPad*
%ADD13O,1.700000X1.700000*%
G04 #@! TD*
G04 #@! TA.AperFunction,ComponentPad*
%ADD14R,1.350000X1.350000*%
G04 #@! TD*
G04 #@! TA.AperFunction,ComponentPad*
%ADD15O,1.350000X1.350000*%
G04 #@! TD*
G04 #@! TA.AperFunction,ComponentPad*
%ADD16C,1.400000*%
G04 #@! TD*
G04 #@! TA.AperFunction,ComponentPad*
%ADD17O,1.400000X1.400000*%
G04 #@! TD*
G04 #@! TA.AperFunction,ComponentPad*
%ADD18R,2.000000X2.000000*%
G04 #@! TD*
G04 #@! TA.AperFunction,ComponentPad*
%ADD19C,2.000000*%
G04 #@! TD*
G04 #@! TA.AperFunction,ComponentPad*
%ADD20R,1.560000X1.560000*%
G04 #@! TD*
G04 #@! TA.AperFunction,ComponentPad*
%ADD21C,1.560000*%
G04 #@! TD*
G04 #@! TA.AperFunction,ComponentPad*
%ADD22R,1.600000X1.600000*%
G04 #@! TD*
G04 #@! TA.AperFunction,ComponentPad*
%ADD23O,1.600000X1.600000*%
G04 #@! TD*
G04 #@! TA.AperFunction,ViaPad*
%ADD24C,0.800000*%
G04 #@! TD*
G04 #@! TA.AperFunction,Conductor*
%ADD25C,0.400000*%
G04 #@! TD*
G04 #@! TA.AperFunction,Conductor*
%ADD26C,0.800000*%
G04 #@! TD*
G04 #@! TA.AperFunction,Conductor*
%ADD27C,0.250000*%
G04 #@! TD*
G04 APERTURE END LIST*
D10*
X127820000Y-91010000D03*
D11*
X127820000Y-80850000D03*
D12*
X120420000Y-93870000D03*
D13*
X122960000Y-93870000D03*
X120420000Y-91330000D03*
X122960000Y-91330000D03*
X120420000Y-88790000D03*
X122960000Y-88790000D03*
X120420000Y-86250000D03*
X122960000Y-86250000D03*
X120420000Y-83710000D03*
X122960000Y-83710000D03*
X120420000Y-81170000D03*
X122960000Y-81170000D03*
X120420000Y-78630000D03*
X122960000Y-78630000D03*
X120420000Y-76090000D03*
X122960000Y-76090000D03*
X120420000Y-73550000D03*
X122960000Y-73550000D03*
X120420000Y-71010000D03*
X122960000Y-71010000D03*
X120420000Y-68470000D03*
X122960000Y-68470000D03*
X120420000Y-65930000D03*
X122960000Y-65930000D03*
X120420000Y-63390000D03*
X122960000Y-63390000D03*
X120420000Y-60850000D03*
X122960000Y-60850000D03*
X120420000Y-58310000D03*
X122960000Y-58310000D03*
X120420000Y-55770000D03*
X122960000Y-55770000D03*
X120420000Y-53230000D03*
X122960000Y-53230000D03*
X120420000Y-50690000D03*
X122960000Y-50690000D03*
X120420000Y-48150000D03*
X122960000Y-48150000D03*
X120420000Y-45610000D03*
X122960000Y-45610000D03*
D14*
X176270000Y-82830000D03*
D15*
X176270000Y-80830000D03*
X176270000Y-78830000D03*
X176270000Y-76830000D03*
D16*
X172860000Y-81180000D03*
D17*
X165240000Y-81180000D03*
D16*
X172910000Y-78730000D03*
D17*
X165290000Y-78730000D03*
D14*
X176350000Y-50180000D03*
D15*
X176350000Y-52180000D03*
X176350000Y-54180000D03*
D14*
X156500000Y-43100000D03*
D15*
X156500000Y-41100000D03*
X156500000Y-39100000D03*
D16*
X163590000Y-53450000D03*
D17*
X155970000Y-53450000D03*
D16*
X150490000Y-101000000D03*
D17*
X158110000Y-101000000D03*
D16*
X163590000Y-47150000D03*
D17*
X155970000Y-47150000D03*
D14*
X127540000Y-99870000D03*
D15*
X129540000Y-99870000D03*
X131540000Y-99870000D03*
X133540000Y-99870000D03*
D14*
X176350000Y-58300000D03*
D15*
X176350000Y-60300000D03*
X176350000Y-62300000D03*
D18*
X161400000Y-63200000D03*
D19*
X161400000Y-70800000D03*
D16*
X172690000Y-101100000D03*
D17*
X180310000Y-101100000D03*
D14*
X176330000Y-66720000D03*
D15*
X176330000Y-68720000D03*
X176330000Y-70720000D03*
D10*
X127740000Y-76920000D03*
D11*
X127740000Y-66760000D03*
D20*
X138270000Y-92980000D03*
D21*
X140770000Y-97980000D03*
X143270000Y-92980000D03*
D19*
X173050000Y-92350000D03*
X179550000Y-92350000D03*
X173050000Y-96850000D03*
X179550000Y-96850000D03*
D16*
X161590000Y-101000000D03*
D17*
X169210000Y-101000000D03*
D14*
X167430000Y-53140000D03*
D15*
X167430000Y-51140000D03*
X167430000Y-49140000D03*
X167430000Y-47140000D03*
D19*
X161950000Y-92350000D03*
X168450000Y-92350000D03*
X161950000Y-96850000D03*
X168450000Y-96850000D03*
D16*
X163590000Y-50300000D03*
D17*
X155970000Y-50300000D03*
D14*
X176340000Y-40700000D03*
D15*
X176340000Y-42700000D03*
X176340000Y-44700000D03*
X176340000Y-46700000D03*
D22*
X151400000Y-80500000D03*
D23*
X151400000Y-77960000D03*
X151400000Y-75420000D03*
X151400000Y-72880000D03*
X151400000Y-70340000D03*
X151400000Y-67800000D03*
X151400000Y-65260000D03*
X151400000Y-62720000D03*
X151400000Y-60180000D03*
X151400000Y-57640000D03*
X151400000Y-55100000D03*
X151400000Y-52560000D03*
X151400000Y-50020000D03*
X151400000Y-47480000D03*
X151400000Y-44940000D03*
X136160000Y-44940000D03*
X136160000Y-47480000D03*
X136160000Y-50020000D03*
X136160000Y-52560000D03*
X136160000Y-55100000D03*
X136160000Y-57640000D03*
X136160000Y-60180000D03*
X136160000Y-62720000D03*
X136160000Y-65260000D03*
X136160000Y-67800000D03*
X136160000Y-70340000D03*
X136160000Y-72880000D03*
X136160000Y-75420000D03*
X136160000Y-77960000D03*
X136160000Y-80500000D03*
D19*
X151050000Y-92350000D03*
X157550000Y-92350000D03*
X151050000Y-96850000D03*
X157550000Y-96850000D03*
D24*
X125670000Y-83850000D03*
X131290000Y-78760000D03*
X130910000Y-82520000D03*
X161830000Y-56650000D03*
X132640000Y-78920000D03*
X142800000Y-51520000D03*
X142660000Y-67830000D03*
X146810000Y-67830000D03*
X156790000Y-65130000D03*
X144300000Y-77160500D03*
X145600000Y-77160500D03*
X133400000Y-77800000D03*
X140880000Y-77160000D03*
X140830000Y-81650000D03*
X144700000Y-75100000D03*
X149100000Y-70100000D03*
X149100000Y-67600000D03*
X149100000Y-62000000D03*
X145900000Y-75200000D03*
X151200000Y-83400000D03*
X158900000Y-73000000D03*
X158900000Y-70200000D03*
D25*
X120420000Y-88790000D02*
X118170000Y-91040000D01*
X118170000Y-91040000D02*
X118170000Y-96170000D01*
X118170000Y-96170000D02*
X119930000Y-97930000D01*
X120420000Y-91330000D02*
X118920000Y-92830000D01*
X118920000Y-92830000D02*
X118920000Y-95650000D01*
X125930000Y-98410000D02*
X125930000Y-100410000D01*
X118920000Y-95650000D02*
X120400000Y-97130000D01*
X120400000Y-97130000D02*
X124650000Y-97130000D01*
X124650000Y-97130000D02*
X125930000Y-98410000D01*
X125930000Y-100410000D02*
X127490000Y-101970000D01*
X127490000Y-101970000D02*
X133350000Y-101970000D01*
X133350000Y-101970000D02*
X133370000Y-101990000D01*
X133370000Y-101990000D02*
X133540000Y-101820000D01*
X133540000Y-101820000D02*
X133540000Y-99870000D01*
D26*
X136160000Y-77960000D02*
X134200000Y-79920000D01*
X134200000Y-79920000D02*
X130830000Y-79920000D01*
X130830000Y-79920000D02*
X129880000Y-78970000D01*
X123300000Y-78970000D02*
X122960000Y-78630000D01*
X129880000Y-78970000D02*
X123300000Y-78970000D01*
D25*
X119930000Y-97930000D02*
X124080000Y-97930000D01*
X135120000Y-97480000D02*
X132070000Y-97480000D01*
X124080000Y-97930000D02*
X125330000Y-99180000D01*
X125330000Y-99180000D02*
X125330000Y-100658528D01*
X125330000Y-100658528D02*
X125510000Y-100838528D01*
X136180000Y-103100000D02*
X136180000Y-98540000D01*
X136180000Y-98540000D02*
X135120000Y-97480000D01*
X125510000Y-100838528D02*
X125510000Y-102740000D01*
X132070000Y-97480000D02*
X131540000Y-98010000D01*
X125510000Y-102740000D02*
X125870000Y-103100000D01*
X125870000Y-103100000D02*
X136180000Y-103100000D01*
X131540000Y-98010000D02*
X131540000Y-99870000D01*
X119930000Y-97930000D02*
X119930000Y-97950000D01*
X125670000Y-95400000D02*
X125670000Y-83850000D01*
X124670000Y-96400000D02*
X125670000Y-95400000D01*
X120420000Y-95710000D02*
X121060000Y-96350000D01*
X120420000Y-93870000D02*
X120420000Y-95710000D01*
X121060000Y-96350000D02*
X124620000Y-96350000D01*
X124620000Y-96350000D02*
X124670000Y-96400000D01*
X122960000Y-93870000D02*
X124790000Y-92040000D01*
X124790000Y-92040000D02*
X124790000Y-82340000D01*
X124790000Y-82340000D02*
X126330000Y-82340000D01*
X126330000Y-82340000D02*
X127820000Y-80850000D01*
D26*
X127540000Y-99870000D02*
X127540000Y-98395000D01*
X127540000Y-98395000D02*
X130910000Y-95025000D01*
X131290000Y-78760000D02*
X131290000Y-75190000D01*
X130910000Y-95025000D02*
X130910000Y-82520000D01*
X131290000Y-75190000D02*
X131340000Y-75140000D01*
X122960000Y-71010000D02*
X125110000Y-68860000D01*
X125110000Y-68860000D02*
X125110000Y-60460000D01*
X125110000Y-60460000D02*
X122960000Y-58310000D01*
X122960000Y-71010000D02*
X125030000Y-73080000D01*
X125030000Y-73080000D02*
X125030000Y-76560000D01*
X125030000Y-76560000D02*
X122960000Y-78630000D01*
X120420000Y-83710000D02*
X118510000Y-81800000D01*
X118510000Y-81800000D02*
X118510000Y-65300000D01*
X118510000Y-65300000D02*
X120420000Y-63390000D01*
X120420000Y-45610000D02*
X119450000Y-45610000D01*
X119450000Y-45610000D02*
X117940000Y-47120000D01*
X117940000Y-47120000D02*
X117940000Y-61610000D01*
X117940000Y-61610000D02*
X119720000Y-63390000D01*
X119720000Y-63390000D02*
X120420000Y-63390000D01*
X122960000Y-58310000D02*
X124970000Y-56300000D01*
X124970000Y-56300000D02*
X124970000Y-55240000D01*
X124970000Y-55240000D02*
X122960000Y-53230000D01*
X122960000Y-53230000D02*
X125430000Y-50760000D01*
X125430000Y-50760000D02*
X125430000Y-44430000D01*
X125430000Y-44430000D02*
X124270000Y-43270000D01*
X124270000Y-43270000D02*
X121000000Y-43270000D01*
X120420000Y-43850000D02*
X120420000Y-45610000D01*
X121000000Y-43270000D02*
X120420000Y-43850000D01*
X136160000Y-47480000D02*
X131340000Y-52300000D01*
X131340000Y-52300000D02*
X131340000Y-75140000D01*
X129470000Y-77010000D02*
X128020000Y-77010000D01*
X131340000Y-75140000D02*
X129470000Y-77010000D01*
X160512297Y-44157703D02*
X161830000Y-45475406D01*
X161830000Y-45475406D02*
X161830000Y-56650000D01*
X157454594Y-41100000D02*
X160512297Y-44157703D01*
X156500000Y-41100000D02*
X157454594Y-41100000D01*
X150050000Y-91350000D02*
X139900000Y-91350000D01*
D25*
X132640000Y-78920000D02*
X132600000Y-78880000D01*
D26*
X132600000Y-78880000D02*
X132400000Y-78680000D01*
X139900000Y-91350000D02*
X138270000Y-92980000D01*
X133180000Y-72880000D02*
X135440000Y-72880000D01*
X132400000Y-78680000D02*
X132400000Y-73660000D01*
D25*
X135440000Y-72880000D02*
X136160000Y-72880000D01*
D26*
X151050000Y-92350000D02*
X150050000Y-91350000D01*
X132400000Y-73660000D02*
X133180000Y-72880000D01*
X179180000Y-38390000D02*
X179180000Y-52120000D01*
X136160000Y-47480000D02*
X148440000Y-35200000D01*
X175990000Y-35200000D02*
X179180000Y-38390000D01*
X148440000Y-35200000D02*
X175990000Y-35200000D01*
X179180000Y-52120000D02*
X179120000Y-52180000D01*
X179120000Y-52180000D02*
X176350000Y-52180000D01*
X142840101Y-51520000D02*
X142800000Y-51520000D01*
D25*
X155260101Y-39100000D02*
X142840101Y-51520000D01*
X156500000Y-39100000D02*
X155260101Y-39100000D01*
X142630000Y-67800000D02*
X136160000Y-67800000D01*
X142660000Y-67830000D02*
X142630000Y-67800000D01*
X172050000Y-66600000D02*
X148040000Y-66600000D01*
X176350000Y-62300000D02*
X172050000Y-66600000D01*
X148040000Y-66600000D02*
X146810000Y-67830000D01*
X174480000Y-52920000D02*
X162270000Y-65130000D01*
X162270000Y-65130000D02*
X156790000Y-65130000D01*
X174480000Y-52050000D02*
X174480000Y-52920000D01*
X176350000Y-50180000D02*
X174480000Y-52050000D01*
X149280000Y-82280000D02*
X174820000Y-82280000D01*
X144300000Y-77300000D02*
X149280000Y-82280000D01*
X174820000Y-82280000D02*
X176270000Y-80830000D01*
X144300000Y-77160500D02*
X144300000Y-77300000D01*
X154387057Y-79250000D02*
X154967057Y-79830000D01*
X147689500Y-79250000D02*
X154387057Y-79250000D01*
X154967057Y-79830000D02*
X175270000Y-79830000D01*
X175270000Y-79830000D02*
X176270000Y-78830000D01*
X145600000Y-77160500D02*
X147689500Y-79250000D01*
D26*
X174010000Y-69040000D02*
X152700000Y-69040000D01*
X176330000Y-66720000D02*
X174010000Y-69040000D01*
X152700000Y-69040000D02*
X151400000Y-70340000D01*
D27*
X139595000Y-74295000D02*
X139600000Y-74300000D01*
D25*
X147740000Y-74300000D02*
X151400000Y-77960000D01*
X135662943Y-74220000D02*
X136657057Y-74220000D01*
X139600000Y-74300000D02*
X147740000Y-74300000D01*
X135587943Y-74295000D02*
X135662943Y-74220000D01*
X134000000Y-77200000D02*
X134000000Y-75345304D01*
X136732057Y-74295000D02*
X139595000Y-74295000D01*
X133400000Y-77800000D02*
X134000000Y-77200000D01*
X135050304Y-74295000D02*
X135587943Y-74295000D01*
X134000000Y-75345304D02*
X135050304Y-74295000D01*
X136657057Y-74220000D02*
X136732057Y-74295000D01*
X140830000Y-81650000D02*
X140830000Y-77210000D01*
X140830000Y-77210000D02*
X140880000Y-77160000D01*
X141700000Y-81000000D02*
X141700000Y-75100000D01*
X141700000Y-75100000D02*
X144700000Y-75100000D01*
X157550000Y-96850000D02*
X141700000Y-81000000D01*
X142800000Y-75900000D02*
X145400000Y-75900000D01*
X149100000Y-62000000D02*
X149100000Y-59940000D01*
X145900000Y-75400000D02*
X145900000Y-75200000D01*
X149100000Y-59940000D02*
X151400000Y-57640000D01*
X168450000Y-96850000D02*
X160800000Y-89200000D01*
X151200000Y-89200000D02*
X142800000Y-80800000D01*
X142700000Y-76000000D02*
X142800000Y-75900000D01*
X145400000Y-75900000D02*
X145900000Y-75400000D01*
X160800000Y-89200000D02*
X151200000Y-89200000D01*
X142800000Y-80800000D02*
X142700000Y-80800000D01*
X142700000Y-80800000D02*
X142700000Y-76000000D01*
X149100000Y-70100000D02*
X149100000Y-67600000D01*
X179550000Y-96850000D02*
X166100000Y-83400000D01*
X166100000Y-83400000D02*
X151200000Y-83400000D01*
X158900000Y-73000000D02*
X158900000Y-70200000D01*
G04 #@! TA.AperFunction,Conductor*
G36*
X185000967Y-33000538D02*
G01*
X185241655Y-33009994D01*
X185475053Y-33019648D01*
X185478703Y-33019939D01*
X185723113Y-33048867D01*
X185955038Y-33077777D01*
X185958521Y-33078340D01*
X186199847Y-33126343D01*
X186200075Y-33126390D01*
X186428790Y-33174346D01*
X186431977Y-33175128D01*
X186668682Y-33241886D01*
X186669263Y-33242054D01*
X186893195Y-33308722D01*
X186896173Y-33309714D01*
X187126791Y-33394794D01*
X187127643Y-33395117D01*
X187345240Y-33480023D01*
X187347932Y-33481168D01*
X187571242Y-33584115D01*
X187572155Y-33584548D01*
X187782046Y-33687157D01*
X187784406Y-33688394D01*
X187998954Y-33808546D01*
X188000018Y-33809161D01*
X188200680Y-33928730D01*
X188202820Y-33930081D01*
X188407246Y-34066675D01*
X188408415Y-34067481D01*
X188598562Y-34203244D01*
X188600372Y-34204603D01*
X188723877Y-34301967D01*
X188793407Y-34356780D01*
X188794740Y-34357869D01*
X188853588Y-34407710D01*
X188973004Y-34508850D01*
X188974555Y-34510224D01*
X189089082Y-34616091D01*
X189155058Y-34677079D01*
X189156445Y-34678413D01*
X189321585Y-34843553D01*
X189322919Y-34844940D01*
X189489770Y-35025438D01*
X189491154Y-35027001D01*
X189546319Y-35092135D01*
X189642129Y-35205258D01*
X189643218Y-35206591D01*
X189702871Y-35282260D01*
X189795385Y-35399614D01*
X189796774Y-35401463D01*
X189932490Y-35591545D01*
X189933353Y-35592795D01*
X190069916Y-35797177D01*
X190071268Y-35799318D01*
X190190825Y-35999960D01*
X190191483Y-36001099D01*
X190311584Y-36215554D01*
X190312853Y-36217976D01*
X190415428Y-36427797D01*
X190415906Y-36428804D01*
X190518828Y-36652061D01*
X190519977Y-36654763D01*
X190604881Y-36872355D01*
X190605204Y-36873207D01*
X190690284Y-37103825D01*
X190691276Y-37106803D01*
X190757931Y-37330691D01*
X190758128Y-37331372D01*
X190824862Y-37567992D01*
X190825659Y-37571238D01*
X190873584Y-37799805D01*
X190873685Y-37800301D01*
X190921656Y-38041469D01*
X190922222Y-38044967D01*
X190951137Y-38276927D01*
X190951173Y-38277229D01*
X190980055Y-38521252D01*
X190980353Y-38524986D01*
X190990014Y-38758577D01*
X190990018Y-38758678D01*
X190999462Y-38999033D01*
X190999500Y-39000957D01*
X190999500Y-100999043D01*
X190999462Y-101000967D01*
X190990018Y-101241321D01*
X190990014Y-101241422D01*
X190980353Y-101475012D01*
X190980055Y-101478746D01*
X190951173Y-101722770D01*
X190951137Y-101723072D01*
X190922222Y-101955031D01*
X190921656Y-101958529D01*
X190873685Y-102199697D01*
X190873584Y-102200193D01*
X190825659Y-102428760D01*
X190824862Y-102432006D01*
X190758128Y-102668626D01*
X190757931Y-102669307D01*
X190691276Y-102893195D01*
X190690284Y-102896173D01*
X190605204Y-103126791D01*
X190604881Y-103127643D01*
X190519977Y-103345235D01*
X190518828Y-103347937D01*
X190415906Y-103571194D01*
X190415428Y-103572201D01*
X190312853Y-103782022D01*
X190311584Y-103784444D01*
X190191483Y-103998899D01*
X190190825Y-104000038D01*
X190071268Y-104200680D01*
X190069916Y-104202821D01*
X189933353Y-104407203D01*
X189932490Y-104408453D01*
X189796774Y-104598535D01*
X189795375Y-104600398D01*
X189643218Y-104793407D01*
X189642129Y-104794740D01*
X189491166Y-104972983D01*
X189489757Y-104974575D01*
X189322919Y-105155058D01*
X189321585Y-105156445D01*
X189156445Y-105321585D01*
X189155058Y-105322919D01*
X188974575Y-105489757D01*
X188972983Y-105491166D01*
X188794740Y-105642129D01*
X188793407Y-105643218D01*
X188600398Y-105795375D01*
X188598535Y-105796774D01*
X188408453Y-105932490D01*
X188407203Y-105933353D01*
X188202821Y-106069916D01*
X188200680Y-106071268D01*
X188000038Y-106190825D01*
X187998899Y-106191483D01*
X187784444Y-106311584D01*
X187782022Y-106312853D01*
X187572201Y-106415428D01*
X187571194Y-106415906D01*
X187347937Y-106518828D01*
X187345235Y-106519977D01*
X187127643Y-106604881D01*
X187126791Y-106605204D01*
X186896173Y-106690284D01*
X186893195Y-106691276D01*
X186669307Y-106757931D01*
X186668626Y-106758128D01*
X186432006Y-106824862D01*
X186428760Y-106825659D01*
X186200193Y-106873584D01*
X186199697Y-106873685D01*
X185958529Y-106921656D01*
X185955031Y-106922222D01*
X185723112Y-106951131D01*
X185722811Y-106951167D01*
X185478747Y-106980055D01*
X185475012Y-106980353D01*
X185241437Y-106990013D01*
X185241336Y-106990017D01*
X185000967Y-106999462D01*
X184999043Y-106999500D01*
X123000957Y-106999500D01*
X122999033Y-106999462D01*
X122758662Y-106990017D01*
X122758561Y-106990013D01*
X122524986Y-106980353D01*
X122521251Y-106980055D01*
X122277187Y-106951167D01*
X122276886Y-106951131D01*
X122044967Y-106922222D01*
X122041469Y-106921656D01*
X121800301Y-106873685D01*
X121799805Y-106873584D01*
X121571238Y-106825659D01*
X121567992Y-106824862D01*
X121331372Y-106758128D01*
X121330691Y-106757931D01*
X121106803Y-106691276D01*
X121103825Y-106690284D01*
X120873207Y-106605204D01*
X120872355Y-106604881D01*
X120654763Y-106519977D01*
X120652061Y-106518828D01*
X120428804Y-106415906D01*
X120427797Y-106415428D01*
X120217976Y-106312853D01*
X120215566Y-106311590D01*
X120001094Y-106191480D01*
X119999960Y-106190825D01*
X119799318Y-106071268D01*
X119797177Y-106069916D01*
X119592795Y-105933353D01*
X119591545Y-105932490D01*
X119401450Y-105796764D01*
X119399613Y-105795385D01*
X119298825Y-105715930D01*
X119206591Y-105643218D01*
X119205258Y-105642129D01*
X119092135Y-105546319D01*
X119027001Y-105491154D01*
X119025438Y-105489770D01*
X118844940Y-105322919D01*
X118843553Y-105321585D01*
X118678413Y-105156445D01*
X118677079Y-105155058D01*
X118510224Y-104974555D01*
X118508850Y-104973004D01*
X118420038Y-104868143D01*
X118357869Y-104794740D01*
X118356780Y-104793407D01*
X118297129Y-104717740D01*
X118204603Y-104600372D01*
X118203244Y-104598562D01*
X118067481Y-104408415D01*
X118066675Y-104407246D01*
X117930081Y-104202820D01*
X117928730Y-104200680D01*
X117809173Y-104000038D01*
X117808546Y-103998952D01*
X117688394Y-103784406D01*
X117687157Y-103782046D01*
X117584548Y-103572155D01*
X117584115Y-103571242D01*
X117481168Y-103347932D01*
X117480021Y-103345235D01*
X117395117Y-103127643D01*
X117394794Y-103126791D01*
X117309714Y-102896173D01*
X117308722Y-102893195D01*
X117242067Y-102669307D01*
X117241870Y-102668626D01*
X117175128Y-102431977D01*
X117174346Y-102428790D01*
X117126390Y-102200075D01*
X117126343Y-102199847D01*
X117078340Y-101958521D01*
X117077776Y-101955031D01*
X117049872Y-101731182D01*
X120169500Y-101731182D01*
X120208604Y-101990615D01*
X120220732Y-102029932D01*
X120285937Y-102241326D01*
X120399768Y-102477698D01*
X120399771Y-102477703D01*
X120399772Y-102477704D01*
X120547567Y-102694479D01*
X120726019Y-102886805D01*
X120931143Y-103050386D01*
X120961530Y-103067930D01*
X121158353Y-103181566D01*
X121158354Y-103181566D01*
X121158357Y-103181568D01*
X121402584Y-103277420D01*
X121527848Y-103306011D01*
X121658367Y-103335802D01*
X121805472Y-103346825D01*
X121854506Y-103350500D01*
X121985493Y-103350500D01*
X121985494Y-103350500D01*
X122055752Y-103345235D01*
X122181632Y-103335802D01*
X122300024Y-103308779D01*
X122437416Y-103277420D01*
X122681643Y-103181568D01*
X122908857Y-103050386D01*
X123113981Y-102886805D01*
X123292433Y-102694479D01*
X123440228Y-102477704D01*
X123507134Y-102338773D01*
X123554062Y-102241326D01*
X123566903Y-102199697D01*
X123631396Y-101990615D01*
X123670500Y-101731182D01*
X123670500Y-101468818D01*
X123631396Y-101209385D01*
X123566514Y-100999043D01*
X123554062Y-100958673D01*
X123440231Y-100722301D01*
X123401384Y-100665323D01*
X123292433Y-100505521D01*
X123113981Y-100313195D01*
X122908857Y-100149614D01*
X122888530Y-100137878D01*
X122681646Y-100018433D01*
X122623663Y-99995676D01*
X122437416Y-99922580D01*
X122437412Y-99922579D01*
X122181632Y-99864197D01*
X121997493Y-99850399D01*
X121985494Y-99849500D01*
X121854506Y-99849500D01*
X121843198Y-99850347D01*
X121658367Y-99864197D01*
X121402587Y-99922579D01*
X121158353Y-100018433D01*
X120931145Y-100149612D01*
X120794393Y-100258668D01*
X120757909Y-100287764D01*
X120726018Y-100313196D01*
X120547569Y-100505518D01*
X120399768Y-100722301D01*
X120285937Y-100958673D01*
X120213015Y-101195083D01*
X120208604Y-101209385D01*
X120169500Y-101468818D01*
X120169500Y-101731182D01*
X117049872Y-101731182D01*
X117048879Y-101723214D01*
X117019939Y-101478703D01*
X117019648Y-101475053D01*
X117009981Y-101241321D01*
X117000538Y-101000967D01*
X117000500Y-100999043D01*
X117000500Y-96212605D01*
X117465642Y-96212605D01*
X117476891Y-96273993D01*
X117477336Y-96276918D01*
X117484860Y-96338874D01*
X117490867Y-96354715D01*
X117493248Y-96363255D01*
X117496304Y-96379931D01*
X117521918Y-96436842D01*
X117523049Y-96439571D01*
X117545182Y-96497930D01*
X117552337Y-96508296D01*
X117554811Y-96511880D01*
X117559167Y-96519604D01*
X117566122Y-96535058D01*
X117604605Y-96584178D01*
X117606359Y-96586561D01*
X117641817Y-96637929D01*
X117688529Y-96679312D01*
X117690684Y-96681341D01*
X119341942Y-98332599D01*
X119347620Y-98339412D01*
X119401817Y-98417929D01*
X119529148Y-98530734D01*
X119679775Y-98609790D01*
X119762359Y-98630144D01*
X119844943Y-98650500D01*
X119844944Y-98650500D01*
X120015056Y-98650500D01*
X120015057Y-98650500D01*
X120090423Y-98631924D01*
X120102149Y-98630500D01*
X123769547Y-98630500D01*
X123804195Y-98644852D01*
X124615148Y-99455805D01*
X124629500Y-99490453D01*
X124629500Y-100635871D01*
X124629410Y-100638830D01*
X124625642Y-100701134D01*
X124634596Y-100750000D01*
X124636891Y-100762521D01*
X124637336Y-100765446D01*
X124644860Y-100827402D01*
X124650867Y-100843243D01*
X124653248Y-100851783D01*
X124656304Y-100868459D01*
X124681918Y-100925370D01*
X124683049Y-100928099D01*
X124705182Y-100986458D01*
X124706796Y-100988796D01*
X124714811Y-101000408D01*
X124719167Y-101008132D01*
X124726122Y-101023586D01*
X124764605Y-101072706D01*
X124766359Y-101075089D01*
X124800826Y-101125021D01*
X124809500Y-101152857D01*
X124809500Y-102717343D01*
X124809411Y-102720302D01*
X124805642Y-102782605D01*
X124816891Y-102843993D01*
X124817336Y-102846918D01*
X124824860Y-102908874D01*
X124830867Y-102924715D01*
X124833248Y-102933255D01*
X124836304Y-102949931D01*
X124861918Y-103006842D01*
X124863049Y-103009571D01*
X124885182Y-103067930D01*
X124892337Y-103078296D01*
X124894811Y-103081880D01*
X124899167Y-103089604D01*
X124906122Y-103105058D01*
X124944605Y-103154178D01*
X124946359Y-103156561D01*
X124981817Y-103207929D01*
X125028529Y-103249312D01*
X125030684Y-103251341D01*
X125358657Y-103579314D01*
X125360686Y-103581469D01*
X125402071Y-103628183D01*
X125437201Y-103652432D01*
X125453429Y-103663633D01*
X125455813Y-103665387D01*
X125504944Y-103703879D01*
X125520395Y-103710833D01*
X125528122Y-103715190D01*
X125542070Y-103724818D01*
X125600413Y-103746944D01*
X125603148Y-103748077D01*
X125660066Y-103773694D01*
X125660067Y-103773694D01*
X125660069Y-103773695D01*
X125676747Y-103776751D01*
X125685280Y-103779129D01*
X125692907Y-103782022D01*
X125701127Y-103785140D01*
X125713438Y-103786634D01*
X125763091Y-103792663D01*
X125765987Y-103793104D01*
X125827394Y-103804358D01*
X125889697Y-103800589D01*
X125892657Y-103800500D01*
X136265055Y-103800500D01*
X136265056Y-103800500D01*
X136303638Y-103790989D01*
X136309432Y-103789928D01*
X136348872Y-103785140D01*
X136368877Y-103777553D01*
X136386011Y-103771055D01*
X136391655Y-103769296D01*
X136430225Y-103759790D01*
X136465415Y-103741320D01*
X136470779Y-103738906D01*
X136507930Y-103724818D01*
X136540627Y-103702247D01*
X136545682Y-103699191D01*
X136580852Y-103680734D01*
X136610587Y-103654390D01*
X136615227Y-103650755D01*
X136647929Y-103628183D01*
X136674276Y-103598441D01*
X136678441Y-103594276D01*
X136708183Y-103567929D01*
X136730755Y-103535227D01*
X136734390Y-103530587D01*
X136760734Y-103500852D01*
X136779191Y-103465682D01*
X136782247Y-103460627D01*
X136804818Y-103427930D01*
X136818906Y-103390779D01*
X136821320Y-103385415D01*
X136839790Y-103350225D01*
X136849296Y-103311655D01*
X136851055Y-103306011D01*
X136865139Y-103268874D01*
X136865138Y-103268874D01*
X136865140Y-103268872D01*
X136869928Y-103229432D01*
X136870989Y-103223638D01*
X136880500Y-103185056D01*
X136880500Y-103014944D01*
X136880500Y-101000000D01*
X149284356Y-101000000D01*
X149304885Y-101221538D01*
X149365769Y-101435525D01*
X149464941Y-101634688D01*
X149464942Y-101634689D01*
X149590014Y-101800312D01*
X149599020Y-101812237D01*
X149763434Y-101962121D01*
X149763436Y-101962122D01*
X149763438Y-101962124D01*
X149952599Y-102079247D01*
X150160060Y-102159618D01*
X150378757Y-102200500D01*
X150601241Y-102200500D01*
X150601243Y-102200500D01*
X150819940Y-102159618D01*
X151027401Y-102079247D01*
X151216562Y-101962124D01*
X151380981Y-101812236D01*
X151515058Y-101634689D01*
X151614229Y-101435528D01*
X151667016Y-101250001D01*
X156933503Y-101250001D01*
X156986237Y-101435344D01*
X157085367Y-101634424D01*
X157219388Y-101811897D01*
X157383740Y-101961722D01*
X157572823Y-102078798D01*
X157780196Y-102159135D01*
X157860000Y-102174052D01*
X157860000Y-101250000D01*
X158360000Y-101250000D01*
X158360000Y-102174052D01*
X158439803Y-102159135D01*
X158647176Y-102078798D01*
X158836259Y-101961722D01*
X159000611Y-101811897D01*
X159134632Y-101634424D01*
X159233762Y-101435344D01*
X159286496Y-101250001D01*
X159286496Y-101250000D01*
X158360000Y-101250000D01*
X157860000Y-101250000D01*
X156933504Y-101250000D01*
X156933503Y-101250001D01*
X151667016Y-101250001D01*
X151675115Y-101221536D01*
X151695643Y-101000000D01*
X160384356Y-101000000D01*
X160404885Y-101221538D01*
X160465769Y-101435525D01*
X160564941Y-101634688D01*
X160564942Y-101634689D01*
X160690014Y-101800312D01*
X160699020Y-101812237D01*
X160863434Y-101962121D01*
X160863436Y-101962122D01*
X160863438Y-101962124D01*
X161052599Y-102079247D01*
X161260060Y-102159618D01*
X161478757Y-102200500D01*
X161701241Y-102200500D01*
X161701243Y-102200500D01*
X161919940Y-102159618D01*
X162127401Y-102079247D01*
X162316562Y-101962124D01*
X162480981Y-101812236D01*
X162615058Y-101634689D01*
X162714229Y-101435528D01*
X162767016Y-101250001D01*
X168033503Y-101250001D01*
X168086237Y-101435344D01*
X168185367Y-101634424D01*
X168319388Y-101811897D01*
X168483740Y-101961722D01*
X168672823Y-102078798D01*
X168880196Y-102159135D01*
X168960000Y-102174052D01*
X168960000Y-101250000D01*
X169460000Y-101250000D01*
X169460000Y-102174052D01*
X169539803Y-102159135D01*
X169747176Y-102078798D01*
X169936259Y-101961722D01*
X170100611Y-101811897D01*
X170234632Y-101634424D01*
X170333762Y-101435344D01*
X170386496Y-101250001D01*
X170386496Y-101250000D01*
X169460000Y-101250000D01*
X168960000Y-101250000D01*
X168033504Y-101250000D01*
X168033503Y-101250001D01*
X162767016Y-101250001D01*
X162775115Y-101221536D01*
X162786377Y-101099999D01*
X171484356Y-101099999D01*
X171504885Y-101321538D01*
X171565769Y-101535525D01*
X171664941Y-101734688D01*
X171799020Y-101912237D01*
X171963434Y-102062121D01*
X171963436Y-102062122D01*
X171963438Y-102062124D01*
X172152599Y-102179247D01*
X172360060Y-102259618D01*
X172578757Y-102300500D01*
X172801241Y-102300500D01*
X172801243Y-102300500D01*
X173019940Y-102259618D01*
X173227401Y-102179247D01*
X173416562Y-102062124D01*
X173580981Y-101912236D01*
X173715058Y-101734689D01*
X173814229Y-101535528D01*
X173867016Y-101350001D01*
X179133503Y-101350001D01*
X179186237Y-101535344D01*
X179285367Y-101734424D01*
X179419388Y-101911897D01*
X179583740Y-102061722D01*
X179772823Y-102178798D01*
X179980196Y-102259135D01*
X180060000Y-102274052D01*
X180060000Y-101350000D01*
X180560000Y-101350000D01*
X180560000Y-102274052D01*
X180639803Y-102259135D01*
X180847176Y-102178798D01*
X181036259Y-102061722D01*
X181200611Y-101911897D01*
X181334632Y-101734424D01*
X181336246Y-101731182D01*
X183669500Y-101731182D01*
X183708604Y-101990615D01*
X183720732Y-102029932D01*
X183785937Y-102241326D01*
X183899768Y-102477698D01*
X183899771Y-102477703D01*
X183899772Y-102477704D01*
X184047567Y-102694479D01*
X184226019Y-102886805D01*
X184431143Y-103050386D01*
X184461530Y-103067930D01*
X184658353Y-103181566D01*
X184658354Y-103181566D01*
X184658357Y-103181568D01*
X184902584Y-103277420D01*
X185027848Y-103306011D01*
X185158367Y-103335802D01*
X185305472Y-103346825D01*
X185354506Y-103350500D01*
X185485493Y-103350500D01*
X185485494Y-103350500D01*
X185555752Y-103345235D01*
X185681632Y-103335802D01*
X185800024Y-103308779D01*
X185937416Y-103277420D01*
X186181643Y-103181568D01*
X186408857Y-103050386D01*
X186613981Y-102886805D01*
X186792433Y-102694479D01*
X186940228Y-102477704D01*
X187007134Y-102338773D01*
X187054062Y-102241326D01*
X187066903Y-102199697D01*
X187131396Y-101990615D01*
X187170500Y-101731182D01*
X187170500Y-101468818D01*
X187131396Y-101209385D01*
X187066514Y-100999043D01*
X187054062Y-100958673D01*
X186940231Y-100722301D01*
X186901384Y-100665323D01*
X186792433Y-100505521D01*
X186613981Y-100313195D01*
X186408857Y-100149614D01*
X186388530Y-100137878D01*
X186181646Y-100018433D01*
X186123663Y-99995676D01*
X185937416Y-99922580D01*
X185937412Y-99922579D01*
X185681632Y-99864197D01*
X185497493Y-99850399D01*
X185485494Y-99849500D01*
X185354506Y-99849500D01*
X185343198Y-99850347D01*
X185158367Y-99864197D01*
X184902587Y-99922579D01*
X184658353Y-100018433D01*
X184431145Y-100149612D01*
X184294393Y-100258668D01*
X184257909Y-100287764D01*
X184226018Y-100313196D01*
X184047569Y-100505518D01*
X183899768Y-100722301D01*
X183785937Y-100958673D01*
X183713015Y-101195083D01*
X183708604Y-101209385D01*
X183669500Y-101468818D01*
X183669500Y-101731182D01*
X181336246Y-101731182D01*
X181433762Y-101535344D01*
X181486496Y-101350001D01*
X181486496Y-101350000D01*
X180560000Y-101350000D01*
X180060000Y-101350000D01*
X179133504Y-101350000D01*
X179133503Y-101350001D01*
X173867016Y-101350001D01*
X173875115Y-101321536D01*
X173895643Y-101100000D01*
X173875115Y-100878464D01*
X173867016Y-100849998D01*
X179133503Y-100849998D01*
X179133504Y-100850000D01*
X180060000Y-100850000D01*
X180060000Y-99925947D01*
X180560000Y-99925947D01*
X180560000Y-100850000D01*
X181486496Y-100850000D01*
X181486496Y-100849998D01*
X181433762Y-100664655D01*
X181334632Y-100465575D01*
X181200611Y-100288102D01*
X181036259Y-100138277D01*
X180847176Y-100021201D01*
X180639803Y-99940864D01*
X180560000Y-99925947D01*
X180060000Y-99925947D01*
X179980196Y-99940864D01*
X179772823Y-100021201D01*
X179583740Y-100138277D01*
X179419388Y-100288102D01*
X179285367Y-100465575D01*
X179186237Y-100664655D01*
X179133503Y-100849998D01*
X173867016Y-100849998D01*
X173854918Y-100807478D01*
X173814230Y-100664474D01*
X173715058Y-100465311D01*
X173639741Y-100365575D01*
X173580981Y-100287764D01*
X173580979Y-100287762D01*
X173416565Y-100137878D01*
X173334273Y-100086925D01*
X173227401Y-100020753D01*
X173227399Y-100020752D01*
X173021184Y-99940864D01*
X173019940Y-99940382D01*
X172801243Y-99899500D01*
X172578757Y-99899500D01*
X172360060Y-99940382D01*
X172360057Y-99940382D01*
X172360057Y-99940383D01*
X172152600Y-100020752D01*
X171963434Y-100137878D01*
X171799020Y-100287762D01*
X171664941Y-100465311D01*
X171565769Y-100664474D01*
X171504885Y-100878461D01*
X171484356Y-101099999D01*
X162786377Y-101099999D01*
X162795643Y-101000000D01*
X162775115Y-100778464D01*
X162767016Y-100749998D01*
X168033503Y-100749998D01*
X168033504Y-100750000D01*
X168960000Y-100750000D01*
X168960000Y-99825947D01*
X169460000Y-99825947D01*
X169460000Y-100750000D01*
X170386496Y-100750000D01*
X170386496Y-100749998D01*
X170333762Y-100564655D01*
X170234632Y-100365575D01*
X170100611Y-100188102D01*
X169936259Y-100038277D01*
X169747176Y-99921201D01*
X169539803Y-99840864D01*
X169460000Y-99825947D01*
X168960000Y-99825947D01*
X168880196Y-99840864D01*
X168672823Y-99921201D01*
X168483740Y-100038277D01*
X168319388Y-100188102D01*
X168185367Y-100365575D01*
X168086237Y-100564655D01*
X168033503Y-100749998D01*
X162767016Y-100749998D01*
X162742682Y-100664474D01*
X162714230Y-100564474D01*
X162615058Y-100365311D01*
X162563061Y-100296456D01*
X162480981Y-100187764D01*
X162439133Y-100149614D01*
X162316565Y-100037878D01*
X162288907Y-100020753D01*
X162127401Y-99920753D01*
X162127399Y-99920752D01*
X161921184Y-99840864D01*
X161919940Y-99840382D01*
X161701243Y-99799500D01*
X161478757Y-99799500D01*
X161260060Y-99840382D01*
X161260057Y-99840382D01*
X161260057Y-99840383D01*
X161052600Y-99920752D01*
X160863434Y-100037878D01*
X160699020Y-100187762D01*
X160564941Y-100365311D01*
X160465769Y-100564474D01*
X160404885Y-100778461D01*
X160384356Y-101000000D01*
X151695643Y-101000000D01*
X151675115Y-100778464D01*
X151667016Y-100749998D01*
X156933503Y-100749998D01*
X156933504Y-100750000D01*
X157860000Y-100750000D01*
X157860000Y-99825947D01*
X158360000Y-99825947D01*
X158360000Y-100750000D01*
X159286496Y-100750000D01*
X159286496Y-100749998D01*
X159233762Y-100564655D01*
X159134632Y-100365575D01*
X159000611Y-100188102D01*
X158836259Y-100038277D01*
X158647176Y-99921201D01*
X158439803Y-99840864D01*
X158360000Y-99825947D01*
X157860000Y-99825947D01*
X157780196Y-99840864D01*
X157572823Y-99921201D01*
X157383740Y-100038277D01*
X157219388Y-100188102D01*
X157085367Y-100365575D01*
X156986237Y-100564655D01*
X156933503Y-100749998D01*
X151667016Y-100749998D01*
X151642682Y-100664474D01*
X151614230Y-100564474D01*
X151515058Y-100365311D01*
X151463061Y-100296456D01*
X151380981Y-100187764D01*
X151339133Y-100149614D01*
X151216565Y-100037878D01*
X151188907Y-100020753D01*
X151027401Y-99920753D01*
X151027399Y-99920752D01*
X150821184Y-99840864D01*
X150819940Y-99840382D01*
X150601243Y-99799500D01*
X150378757Y-99799500D01*
X150160060Y-99840382D01*
X150160057Y-99840382D01*
X150160057Y-99840383D01*
X149952600Y-99920752D01*
X149763434Y-100037878D01*
X149599020Y-100187762D01*
X149464941Y-100365311D01*
X149365769Y-100564474D01*
X149304885Y-100778461D01*
X149284356Y-101000000D01*
X136880500Y-101000000D01*
X136880500Y-98562646D01*
X136880589Y-98559688D01*
X136882340Y-98530733D01*
X136884357Y-98497394D01*
X136873103Y-98435988D01*
X136872666Y-98433116D01*
X136865140Y-98371128D01*
X136859130Y-98355281D01*
X136856749Y-98346737D01*
X136853694Y-98330069D01*
X136851110Y-98324328D01*
X136840232Y-98300157D01*
X136828081Y-98273158D01*
X136826948Y-98270423D01*
X136804818Y-98212070D01*
X136795188Y-98198120D01*
X136790829Y-98190391D01*
X136783877Y-98174942D01*
X136745390Y-98125818D01*
X136743636Y-98123434D01*
X136734690Y-98110474D01*
X136708183Y-98072071D01*
X136661470Y-98030686D01*
X136659314Y-98028657D01*
X136610657Y-97980000D01*
X139484609Y-97980000D01*
X139504137Y-98203210D01*
X139562127Y-98419629D01*
X139656817Y-98622693D01*
X139785334Y-98806235D01*
X139943764Y-98964665D01*
X139943767Y-98964667D01*
X140127304Y-99093181D01*
X140127305Y-99093181D01*
X140127306Y-99093182D01*
X140330370Y-99187872D01*
X140546789Y-99245862D01*
X140546790Y-99245862D01*
X140546794Y-99245863D01*
X140770000Y-99265391D01*
X140993206Y-99245863D01*
X141209630Y-99187872D01*
X141412696Y-99093181D01*
X141596233Y-98964667D01*
X141754667Y-98806233D01*
X141883181Y-98622696D01*
X141977872Y-98419630D01*
X142028998Y-98228827D01*
X142035862Y-98203210D01*
X142035862Y-98203209D01*
X142035863Y-98203206D01*
X142055391Y-97980000D01*
X142035863Y-97756794D01*
X142022825Y-97708137D01*
X141977872Y-97540370D01*
X141883182Y-97337307D01*
X141754665Y-97153764D01*
X141596235Y-96995334D01*
X141416048Y-96869166D01*
X141412696Y-96866819D01*
X141412695Y-96866818D01*
X141412693Y-96866817D01*
X141376629Y-96850000D01*
X149544357Y-96850000D01*
X149564892Y-97097820D01*
X149625937Y-97338883D01*
X149725828Y-97566609D01*
X149861310Y-97773981D01*
X149861836Y-97774785D01*
X149979926Y-97903065D01*
X150030258Y-97957740D01*
X150226492Y-98110475D01*
X150445187Y-98228827D01*
X150445190Y-98228828D01*
X150680386Y-98309571D01*
X150925665Y-98350500D01*
X151174333Y-98350500D01*
X151174335Y-98350500D01*
X151419614Y-98309571D01*
X151654810Y-98228828D01*
X151873509Y-98110474D01*
X152069744Y-97957738D01*
X152238164Y-97774785D01*
X152374173Y-97566607D01*
X152474063Y-97338881D01*
X152535108Y-97097821D01*
X152555643Y-96850000D01*
X152535108Y-96602179D01*
X152474063Y-96361119D01*
X152464305Y-96338874D01*
X152408919Y-96212606D01*
X152374173Y-96133393D01*
X152238164Y-95925215D01*
X152069744Y-95742262D01*
X152069743Y-95742261D01*
X152069741Y-95742259D01*
X151873507Y-95589524D01*
X151654812Y-95471172D01*
X151468664Y-95407268D01*
X151419614Y-95390429D01*
X151174335Y-95349500D01*
X150925665Y-95349500D01*
X150680386Y-95390429D01*
X150680383Y-95390429D01*
X150680383Y-95390430D01*
X150445187Y-95471172D01*
X150226492Y-95589524D01*
X150030258Y-95742259D01*
X149861833Y-95925218D01*
X149725828Y-96133390D01*
X149625937Y-96361116D01*
X149564892Y-96602179D01*
X149544357Y-96850000D01*
X141376629Y-96850000D01*
X141209629Y-96772127D01*
X140993210Y-96714137D01*
X140770000Y-96694609D01*
X140546789Y-96714137D01*
X140330370Y-96772127D01*
X140127307Y-96866817D01*
X139943764Y-96995334D01*
X139785334Y-97153764D01*
X139656817Y-97337307D01*
X139562127Y-97540370D01*
X139504137Y-97756789D01*
X139484609Y-97980000D01*
X136610657Y-97980000D01*
X135631341Y-97000684D01*
X135629312Y-96998529D01*
X135626481Y-96995334D01*
X135587929Y-96951817D01*
X135536561Y-96916359D01*
X135534178Y-96914605D01*
X135485058Y-96876122D01*
X135469604Y-96869167D01*
X135461880Y-96864811D01*
X135458296Y-96862337D01*
X135447930Y-96855182D01*
X135389571Y-96833049D01*
X135386842Y-96831918D01*
X135386835Y-96831915D01*
X135372852Y-96825621D01*
X135329931Y-96806304D01*
X135313255Y-96803248D01*
X135304715Y-96800867D01*
X135288874Y-96794860D01*
X135226918Y-96787336D01*
X135223998Y-96786891D01*
X135162606Y-96775642D01*
X135162605Y-96775642D01*
X135100302Y-96779411D01*
X135097343Y-96779500D01*
X132092646Y-96779500D01*
X132089688Y-96779411D01*
X132072770Y-96778387D01*
X132027394Y-96775643D01*
X132027393Y-96775643D01*
X131966005Y-96786891D01*
X131963081Y-96787336D01*
X131901125Y-96794860D01*
X131885280Y-96800869D01*
X131876740Y-96803250D01*
X131860067Y-96806305D01*
X131803165Y-96831915D01*
X131800431Y-96833048D01*
X131742069Y-96855182D01*
X131728117Y-96864812D01*
X131720396Y-96869166D01*
X131704943Y-96876121D01*
X131655819Y-96914606D01*
X131653438Y-96916358D01*
X131602070Y-96951817D01*
X131560685Y-96998530D01*
X131558657Y-97000684D01*
X131060684Y-97498657D01*
X131058530Y-97500685D01*
X131011817Y-97542070D01*
X130976358Y-97593438D01*
X130974606Y-97595819D01*
X130936121Y-97644943D01*
X130929166Y-97660396D01*
X130924811Y-97668118D01*
X130915182Y-97682067D01*
X130893051Y-97740422D01*
X130891918Y-97743156D01*
X130866304Y-97800068D01*
X130863248Y-97816745D01*
X130860867Y-97825287D01*
X130854859Y-97841127D01*
X130847338Y-97903065D01*
X130846893Y-97905989D01*
X130840282Y-97942071D01*
X130835642Y-97967394D01*
X130838725Y-98018373D01*
X130839411Y-98029698D01*
X130839500Y-98032657D01*
X130839500Y-98896310D01*
X130835325Y-98916102D01*
X130823511Y-98932522D01*
X130667571Y-99074678D01*
X130578789Y-99192245D01*
X130554540Y-99209410D01*
X130524831Y-99209410D01*
X130500583Y-99192245D01*
X130412057Y-99075016D01*
X130251128Y-98928313D01*
X130065984Y-98813676D01*
X129862934Y-98735014D01*
X129790000Y-98721381D01*
X129790000Y-101018619D01*
X129862934Y-101004985D01*
X130065984Y-100926323D01*
X130251128Y-100811686D01*
X130412057Y-100664982D01*
X130500583Y-100547753D01*
X130524831Y-100530588D01*
X130554540Y-100530588D01*
X130578789Y-100547753D01*
X130667571Y-100665321D01*
X130706857Y-100701134D01*
X130828568Y-100812088D01*
X131013790Y-100926772D01*
X131216931Y-101005470D01*
X131431074Y-101045500D01*
X131648924Y-101045500D01*
X131648926Y-101045500D01*
X131863069Y-101005470D01*
X132066210Y-100926772D01*
X132251432Y-100812088D01*
X132412427Y-100665322D01*
X132500896Y-100548167D01*
X132525144Y-100531003D01*
X132554853Y-100531003D01*
X132579102Y-100548168D01*
X132667571Y-100665321D01*
X132823511Y-100807478D01*
X132835325Y-100823898D01*
X132839500Y-100843690D01*
X132839500Y-101220500D01*
X132825148Y-101255148D01*
X132790500Y-101269500D01*
X127800453Y-101269500D01*
X127765805Y-101255148D01*
X127639804Y-101129147D01*
X127625452Y-101094499D01*
X127639804Y-101059851D01*
X127674452Y-101045499D01*
X128262875Y-101045499D01*
X128298638Y-101041654D01*
X128322483Y-101039091D01*
X128457331Y-100988796D01*
X128572546Y-100902546D01*
X128658796Y-100787331D01*
X128669832Y-100757740D01*
X128689598Y-100733421D01*
X128720059Y-100726053D01*
X128748754Y-100738651D01*
X128828871Y-100811686D01*
X129014015Y-100926323D01*
X129217065Y-101004985D01*
X129290000Y-101018619D01*
X129290000Y-98721381D01*
X129217065Y-98735014D01*
X129014015Y-98813676D01*
X128828868Y-98928315D01*
X128748753Y-99001348D01*
X128720058Y-99013946D01*
X128689598Y-99006578D01*
X128669832Y-98982259D01*
X128658795Y-98952667D01*
X128630152Y-98914406D01*
X128572546Y-98837454D01*
X128502577Y-98785075D01*
X128486032Y-98762973D01*
X128484063Y-98735434D01*
X128497293Y-98711204D01*
X131493915Y-95714583D01*
X131499758Y-95709594D01*
X131515871Y-95697888D01*
X131562577Y-95646014D01*
X131564304Y-95644194D01*
X131580120Y-95628380D01*
X131594185Y-95611009D01*
X131595817Y-95609097D01*
X131642533Y-95557216D01*
X131652495Y-95539959D01*
X131656844Y-95533632D01*
X131669383Y-95518149D01*
X131701081Y-95455934D01*
X131702269Y-95453747D01*
X131737179Y-95393284D01*
X131743335Y-95374332D01*
X131746269Y-95367248D01*
X131755320Y-95349488D01*
X131773392Y-95282040D01*
X131774096Y-95279663D01*
X131795674Y-95213256D01*
X131797756Y-95193439D01*
X131799158Y-95185882D01*
X131804313Y-95166645D01*
X131807965Y-95096936D01*
X131808166Y-95094399D01*
X131810500Y-95072196D01*
X131810500Y-95049865D01*
X131810567Y-95047301D01*
X131810738Y-95044034D01*
X131814219Y-94977612D01*
X131811103Y-94957938D01*
X131810500Y-94950274D01*
X131810500Y-82569764D01*
X131810768Y-82564642D01*
X131813736Y-82536400D01*
X131815460Y-82520000D01*
X131795674Y-82331744D01*
X131737179Y-82151716D01*
X131642533Y-81987784D01*
X131515871Y-81847112D01*
X131503682Y-81838256D01*
X131362731Y-81735849D01*
X131189801Y-81658855D01*
X131004647Y-81619500D01*
X131004646Y-81619500D01*
X130815354Y-81619500D01*
X130815353Y-81619500D01*
X130630198Y-81658855D01*
X130457268Y-81735849D01*
X130304128Y-81847112D01*
X130177467Y-81987783D01*
X130082822Y-82151713D01*
X130024326Y-82331743D01*
X130004540Y-82520000D01*
X130009232Y-82564642D01*
X130009500Y-82569764D01*
X130009500Y-94631704D01*
X130005770Y-94650455D01*
X129995148Y-94666352D01*
X126956089Y-97705410D01*
X126950245Y-97710402D01*
X126934127Y-97722113D01*
X126887423Y-97773981D01*
X126885659Y-97775840D01*
X126869880Y-97791618D01*
X126855836Y-97808961D01*
X126854173Y-97810908D01*
X126807468Y-97862781D01*
X126797505Y-97880037D01*
X126793153Y-97886368D01*
X126780618Y-97901849D01*
X126748934Y-97964031D01*
X126747710Y-97966285D01*
X126712821Y-98026714D01*
X126706664Y-98045662D01*
X126703724Y-98052760D01*
X126694679Y-98070513D01*
X126676617Y-98137917D01*
X126675888Y-98140379D01*
X126673565Y-98147527D01*
X126656830Y-98171228D01*
X126629624Y-98181310D01*
X126601485Y-98174237D01*
X126582280Y-98152491D01*
X126578079Y-98143155D01*
X126576948Y-98140423D01*
X126554818Y-98082070D01*
X126554817Y-98082069D01*
X126545186Y-98068117D01*
X126540829Y-98060391D01*
X126533877Y-98044942D01*
X126495390Y-97995818D01*
X126493636Y-97993434D01*
X126458183Y-97942071D01*
X126411469Y-97900686D01*
X126409314Y-97898657D01*
X125320304Y-96809647D01*
X125305952Y-96774999D01*
X125320304Y-96740351D01*
X125721783Y-96338872D01*
X126149323Y-95911331D01*
X126151442Y-95909336D01*
X126198183Y-95867929D01*
X126233659Y-95816530D01*
X126235395Y-95814174D01*
X126273876Y-95765059D01*
X126273876Y-95765057D01*
X126273878Y-95765056D01*
X126280834Y-95749597D01*
X126285187Y-95741880D01*
X126294818Y-95727930D01*
X126316947Y-95669576D01*
X126318078Y-95666847D01*
X126343695Y-95609931D01*
X126346752Y-95593245D01*
X126349132Y-95584711D01*
X126355140Y-95568872D01*
X126362663Y-95506907D01*
X126363103Y-95504016D01*
X126374358Y-95442606D01*
X126370589Y-95380302D01*
X126370500Y-95377343D01*
X126370500Y-92571460D01*
X126383242Y-92538500D01*
X126414843Y-92522682D01*
X126448865Y-92532234D01*
X126477667Y-92553795D01*
X126477668Y-92553795D01*
X126477669Y-92553796D01*
X126612517Y-92604091D01*
X126672127Y-92610500D01*
X128967872Y-92610499D01*
X128967874Y-92610499D01*
X128997677Y-92607295D01*
X129027483Y-92604091D01*
X129162331Y-92553796D01*
X129277546Y-92467546D01*
X129363796Y-92352331D01*
X129414091Y-92217483D01*
X129420500Y-92157873D01*
X129420499Y-89862128D01*
X129414091Y-89802517D01*
X129363796Y-89667669D01*
X129358861Y-89661077D01*
X129335152Y-89629406D01*
X129277546Y-89552454D01*
X129203894Y-89497318D01*
X129162332Y-89466204D01*
X129027481Y-89415908D01*
X128967875Y-89409500D01*
X126672125Y-89409500D01*
X126612518Y-89415908D01*
X126477667Y-89466204D01*
X126448865Y-89487766D01*
X126414843Y-89497318D01*
X126383242Y-89481500D01*
X126370500Y-89448540D01*
X126370500Y-84436602D01*
X126383085Y-84403815D01*
X126402533Y-84382216D01*
X126497179Y-84218284D01*
X126555674Y-84038256D01*
X126575460Y-83850000D01*
X126555674Y-83661744D01*
X126497179Y-83481716D01*
X126402533Y-83317784D01*
X126275871Y-83177112D01*
X126209846Y-83129142D01*
X126192045Y-83104642D01*
X126192045Y-83074358D01*
X126209845Y-83049858D01*
X126238647Y-83040500D01*
X126307343Y-83040500D01*
X126310302Y-83040589D01*
X126372606Y-83044358D01*
X126434017Y-83033103D01*
X126436908Y-83032663D01*
X126486561Y-83026634D01*
X126498873Y-83025140D01*
X126505177Y-83022748D01*
X126514711Y-83019132D01*
X126523245Y-83016752D01*
X126539932Y-83013695D01*
X126596871Y-82988067D01*
X126599570Y-82986950D01*
X126641477Y-82971057D01*
X126657928Y-82964819D01*
X126657928Y-82964818D01*
X126657930Y-82964818D01*
X126671882Y-82955186D01*
X126679595Y-82950835D01*
X126695057Y-82943878D01*
X126744201Y-82905374D01*
X126746541Y-82903653D01*
X126797929Y-82868183D01*
X126839329Y-82821450D01*
X126841324Y-82819331D01*
X127272380Y-82388275D01*
X127297474Y-82374865D01*
X127319874Y-82377076D01*
X127320139Y-82375973D01*
X127371390Y-82388277D01*
X127568852Y-82435683D01*
X127820000Y-82455449D01*
X128071148Y-82435683D01*
X128316111Y-82376873D01*
X128548859Y-82280466D01*
X128727287Y-82171125D01*
X128763656Y-82148838D01*
X128763656Y-82148837D01*
X128763659Y-82148836D01*
X128955224Y-81985224D01*
X129118836Y-81793659D01*
X129152067Y-81739432D01*
X129216882Y-81633663D01*
X129250466Y-81578859D01*
X129346873Y-81346111D01*
X129405683Y-81101148D01*
X129425449Y-80850000D01*
X129405683Y-80598852D01*
X129381951Y-80499999D01*
X134854532Y-80499999D01*
X134874365Y-80726696D01*
X134933260Y-80946495D01*
X135029430Y-81152731D01*
X135159955Y-81339142D01*
X135320857Y-81500044D01*
X135320860Y-81500046D01*
X135320861Y-81500047D01*
X135507266Y-81630568D01*
X135507267Y-81630568D01*
X135507268Y-81630569D01*
X135713504Y-81726739D01*
X135933303Y-81785634D01*
X135933304Y-81785634D01*
X135933308Y-81785635D01*
X136160000Y-81805468D01*
X136386692Y-81785635D01*
X136606496Y-81726739D01*
X136812734Y-81630568D01*
X136999139Y-81500047D01*
X137160047Y-81339139D01*
X137290568Y-81152734D01*
X137386739Y-80946496D01*
X137445635Y-80726692D01*
X137465468Y-80500000D01*
X137445635Y-80273308D01*
X137428277Y-80208528D01*
X137386739Y-80053504D01*
X137290569Y-79847268D01*
X137289879Y-79846283D01*
X137160047Y-79660861D01*
X137160046Y-79660860D01*
X137160044Y-79660857D01*
X136999142Y-79499955D01*
X136812731Y-79369430D01*
X136608367Y-79274133D01*
X136583537Y-79247815D01*
X136583537Y-79211633D01*
X136608367Y-79185315D01*
X136812485Y-79090133D01*
X136998815Y-78959663D01*
X137159663Y-78798815D01*
X137290133Y-78612485D01*
X137386267Y-78406324D01*
X137438872Y-78210000D01*
X134881128Y-78210000D01*
X134933732Y-78406324D01*
X135029866Y-78612485D01*
X135160336Y-78798815D01*
X135321184Y-78959663D01*
X135507514Y-79090133D01*
X135711632Y-79185315D01*
X135736462Y-79211633D01*
X135736462Y-79247815D01*
X135711633Y-79274133D01*
X135507266Y-79369432D01*
X135320857Y-79499955D01*
X135159955Y-79660857D01*
X135029430Y-79847268D01*
X134933260Y-80053504D01*
X134874365Y-80273303D01*
X134854532Y-80499999D01*
X129381951Y-80499999D01*
X129346873Y-80353889D01*
X129250466Y-80121141D01*
X129209018Y-80053504D01*
X129118838Y-79906343D01*
X129068381Y-79847266D01*
X128955224Y-79714776D01*
X128812510Y-79592887D01*
X128763656Y-79551161D01*
X128548862Y-79419535D01*
X128316110Y-79323126D01*
X128071149Y-79264317D01*
X127820000Y-79244550D01*
X127568850Y-79264317D01*
X127323889Y-79323126D01*
X127091137Y-79419535D01*
X126876343Y-79551161D01*
X126684776Y-79714776D01*
X126521161Y-79906343D01*
X126389535Y-80121137D01*
X126293126Y-80353889D01*
X126234317Y-80598850D01*
X126214550Y-80850000D01*
X126234317Y-81101149D01*
X126294027Y-81349860D01*
X126292925Y-81350124D01*
X126295133Y-81372531D01*
X126281722Y-81397620D01*
X126054195Y-81625148D01*
X126038299Y-81635770D01*
X126019547Y-81639500D01*
X124704942Y-81639500D01*
X124666379Y-81649004D01*
X124660561Y-81650071D01*
X124621125Y-81654860D01*
X124583989Y-81668943D01*
X124578343Y-81670703D01*
X124539773Y-81680210D01*
X124504603Y-81698668D01*
X124499210Y-81701095D01*
X124462070Y-81715181D01*
X124429370Y-81737751D01*
X124424309Y-81740810D01*
X124389150Y-81759264D01*
X124359414Y-81785606D01*
X124354759Y-81789252D01*
X124322071Y-81811815D01*
X124295730Y-81841548D01*
X124291548Y-81845730D01*
X124261815Y-81872071D01*
X124239252Y-81904759D01*
X124235606Y-81909414D01*
X124209264Y-81939150D01*
X124190810Y-81974309D01*
X124187751Y-81979370D01*
X124165181Y-82012070D01*
X124151095Y-82049210D01*
X124148668Y-82054603D01*
X124130210Y-82089773D01*
X124120703Y-82128343D01*
X124118943Y-82133989D01*
X124104860Y-82171125D01*
X124100071Y-82210561D01*
X124099004Y-82216379D01*
X124089500Y-82254942D01*
X124089500Y-82813159D01*
X124080016Y-82842133D01*
X124055234Y-82859891D01*
X124024749Y-82859558D01*
X124000361Y-82841263D01*
X123998495Y-82838598D01*
X123831400Y-82671503D01*
X123637832Y-82535965D01*
X123527267Y-82484408D01*
X123502437Y-82458090D01*
X123502437Y-82421908D01*
X123527264Y-82395592D01*
X123637830Y-82344035D01*
X123766877Y-82253674D01*
X123831400Y-82208496D01*
X123998496Y-82041400D01*
X124134034Y-81847832D01*
X124163037Y-81785635D01*
X124233903Y-81633663D01*
X124295063Y-81405408D01*
X124315659Y-81170000D01*
X124295063Y-80934592D01*
X124233903Y-80706337D01*
X124134035Y-80492171D01*
X123998495Y-80298599D01*
X123998493Y-80298596D01*
X123831400Y-80131503D01*
X123637832Y-79995965D01*
X123526675Y-79944132D01*
X123501845Y-79917814D01*
X123501845Y-79881632D01*
X123526675Y-79855314D01*
X123637581Y-79803598D01*
X123831077Y-79668111D01*
X123998111Y-79501077D01*
X124133599Y-79307581D01*
X124233431Y-79093489D01*
X124290636Y-78880000D01*
X122759000Y-78880000D01*
X122724352Y-78865648D01*
X122710000Y-78831000D01*
X122710000Y-78429000D01*
X122724352Y-78394352D01*
X122759000Y-78380000D01*
X124290636Y-78380000D01*
X124290636Y-78379999D01*
X124233431Y-78166510D01*
X124187436Y-78067874D01*
X126139500Y-78067874D01*
X126145908Y-78127481D01*
X126196204Y-78262332D01*
X126220266Y-78294474D01*
X126282454Y-78377546D01*
X126351188Y-78429000D01*
X126397667Y-78463795D01*
X126397668Y-78463795D01*
X126397669Y-78463796D01*
X126532517Y-78514091D01*
X126592127Y-78520500D01*
X128887872Y-78520499D01*
X128887874Y-78520499D01*
X128917677Y-78517295D01*
X128947483Y-78514091D01*
X129082331Y-78463796D01*
X129197546Y-78377546D01*
X129283796Y-78262331D01*
X129334091Y-78127483D01*
X129337550Y-78095311D01*
X129340500Y-78067875D01*
X129340500Y-77959500D01*
X129354852Y-77924852D01*
X129389500Y-77910500D01*
X129395274Y-77910500D01*
X129402938Y-77911103D01*
X129422612Y-77914219D01*
X129492302Y-77910566D01*
X129494866Y-77910500D01*
X129517196Y-77910500D01*
X129539399Y-77908166D01*
X129541936Y-77907965D01*
X129611646Y-77904313D01*
X129630888Y-77899156D01*
X129638449Y-77897755D01*
X129639682Y-77897625D01*
X129658256Y-77895674D01*
X129724671Y-77874094D01*
X129727028Y-77873395D01*
X129794488Y-77855320D01*
X129812248Y-77846269D01*
X129819332Y-77843335D01*
X129838284Y-77837179D01*
X129898747Y-77802269D01*
X129900950Y-77801073D01*
X129963149Y-77769383D01*
X129978626Y-77756848D01*
X129984957Y-77752495D01*
X130002216Y-77742533D01*
X130054109Y-77695807D01*
X130055998Y-77694193D01*
X130073380Y-77680119D01*
X130089183Y-77664314D01*
X130091004Y-77662586D01*
X130142888Y-77615871D01*
X130154602Y-77599746D01*
X130159585Y-77593912D01*
X130267501Y-77485997D01*
X130305852Y-77447647D01*
X130340500Y-77433295D01*
X130375148Y-77447647D01*
X130389500Y-77482295D01*
X130389500Y-78710236D01*
X130389232Y-78715357D01*
X130384540Y-78760000D01*
X130404326Y-78948256D01*
X130462821Y-79128284D01*
X130557467Y-79292216D01*
X130684129Y-79432888D01*
X130709708Y-79451472D01*
X130837268Y-79544150D01*
X130837269Y-79544150D01*
X130837270Y-79544151D01*
X131010197Y-79621144D01*
X131102775Y-79640822D01*
X131195353Y-79660500D01*
X131195354Y-79660500D01*
X131384646Y-79660500D01*
X131384647Y-79660500D01*
X131446364Y-79647381D01*
X131569803Y-79621144D01*
X131742730Y-79544151D01*
X131852469Y-79464420D01*
X131885112Y-79455214D01*
X131915915Y-79469414D01*
X131983568Y-79537068D01*
X131985665Y-79539165D01*
X131987431Y-79541025D01*
X132034130Y-79592889D01*
X132187268Y-79704150D01*
X132187269Y-79704150D01*
X132187270Y-79704151D01*
X132360197Y-79781144D01*
X132394038Y-79788337D01*
X132545353Y-79820500D01*
X132545354Y-79820500D01*
X132734646Y-79820500D01*
X132734647Y-79820500D01*
X132812113Y-79804034D01*
X132919803Y-79781144D01*
X133092730Y-79704151D01*
X133245871Y-79592888D01*
X133372533Y-79452216D01*
X133467179Y-79288284D01*
X133525674Y-79108256D01*
X133545460Y-78920000D01*
X133526395Y-78738604D01*
X133535484Y-78704685D01*
X133564937Y-78685558D01*
X133679803Y-78661144D01*
X133852730Y-78584151D01*
X134005871Y-78472888D01*
X134132533Y-78332216D01*
X134227179Y-78168284D01*
X134285674Y-77988256D01*
X134293640Y-77912455D01*
X134307723Y-77882932D01*
X134479331Y-77711324D01*
X134481450Y-77709329D01*
X134528183Y-77667929D01*
X134563653Y-77616541D01*
X134565382Y-77614192D01*
X134581276Y-77593906D01*
X134603878Y-77565057D01*
X134610834Y-77549600D01*
X134615191Y-77541876D01*
X134624572Y-77528286D01*
X134624818Y-77527930D01*
X134646953Y-77469561D01*
X134648070Y-77466862D01*
X134673694Y-77409932D01*
X134676749Y-77393252D01*
X134679129Y-77384719D01*
X134685140Y-77368872D01*
X134692665Y-77306892D01*
X134693105Y-77304001D01*
X134704357Y-77242606D01*
X134700589Y-77180312D01*
X134700500Y-77177354D01*
X134700500Y-75655757D01*
X134714852Y-75621109D01*
X134743899Y-75592062D01*
X134785170Y-75550789D01*
X134818392Y-75536459D01*
X134852393Y-75548833D01*
X134868631Y-75581167D01*
X134874364Y-75646690D01*
X134933260Y-75866495D01*
X135029430Y-76072731D01*
X135159955Y-76259142D01*
X135320857Y-76420044D01*
X135320860Y-76420046D01*
X135320861Y-76420047D01*
X135507266Y-76550568D01*
X135701177Y-76640991D01*
X135711632Y-76645866D01*
X135736462Y-76672184D01*
X135736462Y-76708366D01*
X135711633Y-76734684D01*
X135507512Y-76829868D01*
X135321184Y-76960336D01*
X135160336Y-77121184D01*
X135029866Y-77307514D01*
X134933732Y-77513675D01*
X134881127Y-77710000D01*
X137438872Y-77710000D01*
X137386267Y-77513675D01*
X137290133Y-77307514D01*
X137159663Y-77121184D01*
X136998815Y-76960336D01*
X136812485Y-76829866D01*
X136608367Y-76734684D01*
X136583537Y-76708366D01*
X136583537Y-76672184D01*
X136608366Y-76645866D01*
X136812734Y-76550568D01*
X136999139Y-76420047D01*
X137160047Y-76259139D01*
X137290568Y-76072734D01*
X137386739Y-75866496D01*
X137445635Y-75646692D01*
X137465468Y-75420000D01*
X137445635Y-75193308D01*
X137435753Y-75156427D01*
X137409161Y-75057182D01*
X137410446Y-75027741D01*
X137428386Y-75004362D01*
X137456491Y-74995500D01*
X139513484Y-74995500D01*
X139519390Y-74995857D01*
X139557628Y-75000500D01*
X140950500Y-75000500D01*
X140985148Y-75014852D01*
X140999500Y-75049500D01*
X140999500Y-76210500D01*
X140985148Y-76245148D01*
X140950500Y-76259500D01*
X140785353Y-76259500D01*
X140600198Y-76298855D01*
X140427268Y-76375849D01*
X140274128Y-76487112D01*
X140147467Y-76627783D01*
X140052822Y-76791713D01*
X139994326Y-76971743D01*
X139978653Y-77120861D01*
X139974540Y-77160000D01*
X139994326Y-77348256D01*
X140048074Y-77513675D01*
X140052822Y-77528286D01*
X140122935Y-77649725D01*
X140129500Y-77674225D01*
X140129500Y-81063398D01*
X140116915Y-81096185D01*
X140097465Y-81117786D01*
X140002822Y-81281713D01*
X139947664Y-81451472D01*
X139944326Y-81461744D01*
X139924540Y-81650000D01*
X139944326Y-81838256D01*
X139999809Y-82009015D01*
X140002822Y-82018286D01*
X140097467Y-82182216D01*
X140125633Y-82213498D01*
X140224129Y-82322888D01*
X140281767Y-82364764D01*
X140377268Y-82434150D01*
X140377269Y-82434150D01*
X140377270Y-82434151D01*
X140550197Y-82511144D01*
X140642775Y-82530821D01*
X140735353Y-82550500D01*
X140735354Y-82550500D01*
X140924646Y-82550500D01*
X140924647Y-82550500D01*
X140993038Y-82535963D01*
X141109803Y-82511144D01*
X141282730Y-82434151D01*
X141435871Y-82322888D01*
X141562533Y-82182216D01*
X141651036Y-82028923D01*
X141672763Y-82009015D01*
X141701980Y-82005168D01*
X141728119Y-82018776D01*
X150073297Y-90363954D01*
X150086828Y-90389672D01*
X150083413Y-90418532D01*
X150064252Y-90440381D01*
X150036086Y-90447535D01*
X150011568Y-90446250D01*
X150002612Y-90445781D01*
X150002611Y-90445781D01*
X149982938Y-90448897D01*
X149975274Y-90449500D01*
X139974726Y-90449500D01*
X139967062Y-90448897D01*
X139947388Y-90445781D01*
X139877698Y-90449433D01*
X139875134Y-90449500D01*
X139852808Y-90449500D01*
X139846204Y-90450193D01*
X139830601Y-90451833D01*
X139828047Y-90452034D01*
X139758353Y-90455687D01*
X139739113Y-90460842D01*
X139731558Y-90462242D01*
X139711745Y-90464325D01*
X139645375Y-90485889D01*
X139642917Y-90486617D01*
X139575513Y-90504679D01*
X139557760Y-90513724D01*
X139550662Y-90516664D01*
X139531714Y-90522821D01*
X139471285Y-90557710D01*
X139469031Y-90558934D01*
X139406849Y-90590618D01*
X139391368Y-90603153D01*
X139385037Y-90607505D01*
X139367781Y-90617468D01*
X139315908Y-90664173D01*
X139313961Y-90665836D01*
X139296618Y-90679880D01*
X139280840Y-90695659D01*
X139278981Y-90697423D01*
X139227113Y-90744127D01*
X139215402Y-90760245D01*
X139210410Y-90766089D01*
X138291351Y-91685148D01*
X138256703Y-91699500D01*
X137442125Y-91699500D01*
X137382518Y-91705908D01*
X137247667Y-91756204D01*
X137132454Y-91842454D01*
X137046204Y-91957667D01*
X136995908Y-92092518D01*
X136989500Y-92152124D01*
X136989500Y-93807874D01*
X136995908Y-93867481D01*
X137046204Y-94002332D01*
X137089328Y-94059938D01*
X137132454Y-94117546D01*
X137209406Y-94175152D01*
X137247667Y-94203795D01*
X137247668Y-94203795D01*
X137247669Y-94203796D01*
X137382517Y-94254091D01*
X137442127Y-94260500D01*
X139097872Y-94260499D01*
X139097874Y-94260499D01*
X139127677Y-94257295D01*
X139157483Y-94254091D01*
X139292331Y-94203796D01*
X139407546Y-94117546D01*
X139462105Y-94044664D01*
X142558888Y-94044664D01*
X142627556Y-94092747D01*
X142830542Y-94187401D01*
X143046876Y-94245368D01*
X143270000Y-94264888D01*
X143493123Y-94245368D01*
X143709457Y-94187401D01*
X143912443Y-94092747D01*
X143981110Y-94044664D01*
X143981110Y-94044663D01*
X143270000Y-93333553D01*
X142558888Y-94044663D01*
X142558888Y-94044664D01*
X139462105Y-94044664D01*
X139493796Y-94002331D01*
X139544091Y-93867483D01*
X139550500Y-93807873D01*
X139550499Y-92993293D01*
X139554229Y-92974543D01*
X139564848Y-92958649D01*
X140258646Y-92264852D01*
X140293295Y-92250500D01*
X142124082Y-92250500D01*
X142156657Y-92262896D01*
X142172751Y-92293811D01*
X142164221Y-92327605D01*
X142157252Y-92337557D01*
X142062598Y-92540542D01*
X142004631Y-92756876D01*
X141985111Y-92979999D01*
X142004631Y-93203123D01*
X142062598Y-93419457D01*
X142157253Y-93622447D01*
X142205332Y-93691110D01*
X142205335Y-93691110D01*
X143235351Y-92661094D01*
X143257317Y-92648412D01*
X143282681Y-92648412D01*
X143304647Y-92661094D01*
X144334663Y-93691110D01*
X144334664Y-93691110D01*
X144382747Y-93622443D01*
X144477401Y-93419457D01*
X144535368Y-93203123D01*
X144554888Y-92979999D01*
X144535368Y-92756876D01*
X144477401Y-92540542D01*
X144382747Y-92337557D01*
X144375779Y-92327605D01*
X144367249Y-92293811D01*
X144383343Y-92262896D01*
X144415918Y-92250500D01*
X149499374Y-92250500D01*
X149525034Y-92257756D01*
X149543095Y-92277375D01*
X149548206Y-92303544D01*
X149544357Y-92350000D01*
X149564892Y-92597821D01*
X149580915Y-92661094D01*
X149625937Y-92838883D01*
X149695996Y-92998599D01*
X149722424Y-93058850D01*
X149725828Y-93066609D01*
X149807861Y-93192171D01*
X149861836Y-93274785D01*
X149915936Y-93333553D01*
X150030258Y-93457740D01*
X150226492Y-93610475D01*
X150445187Y-93728827D01*
X150445190Y-93728828D01*
X150680386Y-93809571D01*
X150925665Y-93850500D01*
X151174333Y-93850500D01*
X151174335Y-93850500D01*
X151419614Y-93809571D01*
X151654810Y-93728828D01*
X151873509Y-93610474D01*
X152069744Y-93457738D01*
X152238164Y-93274785D01*
X152374173Y-93066607D01*
X152467867Y-92853005D01*
X152488825Y-92829922D01*
X152519468Y-92824155D01*
X152547386Y-92838043D01*
X156095039Y-96385696D01*
X156107633Y-96407336D01*
X156107892Y-96432372D01*
X156064892Y-96602177D01*
X156044357Y-96850000D01*
X156064892Y-97097820D01*
X156125937Y-97338883D01*
X156225828Y-97566609D01*
X156361310Y-97773981D01*
X156361836Y-97774785D01*
X156479926Y-97903065D01*
X156530258Y-97957740D01*
X156726492Y-98110475D01*
X156945187Y-98228827D01*
X156945190Y-98228828D01*
X157180386Y-98309571D01*
X157425665Y-98350500D01*
X157674333Y-98350500D01*
X157674335Y-98350500D01*
X157919614Y-98309571D01*
X158154810Y-98228828D01*
X158373509Y-98110474D01*
X158569744Y-97957738D01*
X158738164Y-97774785D01*
X158874173Y-97566607D01*
X158974063Y-97338881D01*
X159035108Y-97097821D01*
X159055643Y-96850000D01*
X160444357Y-96850000D01*
X160464892Y-97097820D01*
X160525937Y-97338883D01*
X160625828Y-97566609D01*
X160761310Y-97773981D01*
X160761836Y-97774785D01*
X160879926Y-97903065D01*
X160930258Y-97957740D01*
X161126492Y-98110475D01*
X161345187Y-98228827D01*
X161345190Y-98228828D01*
X161580386Y-98309571D01*
X161825665Y-98350500D01*
X162074333Y-98350500D01*
X162074335Y-98350500D01*
X162319614Y-98309571D01*
X162554810Y-98228828D01*
X162773509Y-98110474D01*
X162969744Y-97957738D01*
X163138164Y-97774785D01*
X163274173Y-97566607D01*
X163374063Y-97338881D01*
X163435108Y-97097821D01*
X163455643Y-96850000D01*
X163435108Y-96602179D01*
X163374063Y-96361119D01*
X163364305Y-96338874D01*
X163308919Y-96212606D01*
X163274173Y-96133393D01*
X163138164Y-95925215D01*
X162969744Y-95742262D01*
X162969743Y-95742261D01*
X162969741Y-95742259D01*
X162773507Y-95589524D01*
X162554812Y-95471172D01*
X162368664Y-95407268D01*
X162319614Y-95390429D01*
X162074335Y-95349500D01*
X161825665Y-95349500D01*
X161580386Y-95390429D01*
X161580383Y-95390429D01*
X161580383Y-95390430D01*
X161345187Y-95471172D01*
X161126492Y-95589524D01*
X160930258Y-95742259D01*
X160761833Y-95925218D01*
X160625828Y-96133390D01*
X160525937Y-96361116D01*
X160464892Y-96602179D01*
X160444357Y-96850000D01*
X159055643Y-96850000D01*
X159035108Y-96602179D01*
X158974063Y-96361119D01*
X158964305Y-96338874D01*
X158908919Y-96212606D01*
X158874173Y-96133393D01*
X158738164Y-95925215D01*
X158569744Y-95742262D01*
X158569743Y-95742261D01*
X158569741Y-95742259D01*
X158373507Y-95589524D01*
X158154812Y-95471172D01*
X157968664Y-95407268D01*
X157919614Y-95390429D01*
X157674335Y-95349500D01*
X157425665Y-95349500D01*
X157185672Y-95389547D01*
X157180386Y-95390429D01*
X157135391Y-95405875D01*
X157108437Y-95407268D01*
X157084834Y-95394177D01*
X154040657Y-92350000D01*
X156044357Y-92350000D01*
X156064892Y-92597821D01*
X156080915Y-92661094D01*
X156125937Y-92838883D01*
X156195996Y-92998599D01*
X156222424Y-93058850D01*
X156225828Y-93066609D01*
X156307861Y-93192171D01*
X156361836Y-93274785D01*
X156415936Y-93333553D01*
X156530258Y-93457740D01*
X156726492Y-93610475D01*
X156945187Y-93728827D01*
X156945190Y-93728828D01*
X157180386Y-93809571D01*
X157425665Y-93850500D01*
X157674333Y-93850500D01*
X157674335Y-93850500D01*
X157919614Y-93809571D01*
X158154810Y-93728828D01*
X158373509Y-93610474D01*
X158569744Y-93457738D01*
X158738164Y-93274785D01*
X158874173Y-93066607D01*
X158974063Y-92838881D01*
X159035108Y-92597821D01*
X159055643Y-92350000D01*
X159035108Y-92102179D01*
X158974063Y-91861119D01*
X158949532Y-91805195D01*
X158928043Y-91756204D01*
X158874173Y-91633393D01*
X158738164Y-91425215D01*
X158569744Y-91242262D01*
X158569743Y-91242261D01*
X158569741Y-91242259D01*
X158373507Y-91089524D01*
X158154812Y-90971172D01*
X157979625Y-90911031D01*
X157919614Y-90890429D01*
X157674335Y-90849500D01*
X157425665Y-90849500D01*
X157180386Y-90890429D01*
X157180383Y-90890429D01*
X157180383Y-90890430D01*
X156945187Y-90971172D01*
X156726492Y-91089524D01*
X156530258Y-91242259D01*
X156361833Y-91425218D01*
X156225828Y-91633390D01*
X156125937Y-91861116D01*
X156064892Y-92102179D01*
X156051413Y-92264852D01*
X156044357Y-92350000D01*
X154040657Y-92350000D01*
X151674805Y-89984148D01*
X151660453Y-89949500D01*
X151674805Y-89914852D01*
X151709453Y-89900500D01*
X160489547Y-89900500D01*
X160524195Y-89914852D01*
X161464868Y-90855525D01*
X161478923Y-90884783D01*
X161471607Y-90916406D01*
X161446131Y-90936518D01*
X161345186Y-90971172D01*
X161126492Y-91089524D01*
X160930258Y-91242259D01*
X160761833Y-91425218D01*
X160625828Y-91633390D01*
X160525937Y-91861116D01*
X160464892Y-92102179D01*
X160451413Y-92264852D01*
X160444357Y-92350000D01*
X160464892Y-92597821D01*
X160480915Y-92661094D01*
X160525937Y-92838883D01*
X160595996Y-92998599D01*
X160622424Y-93058850D01*
X160625828Y-93066609D01*
X160707861Y-93192171D01*
X160761836Y-93274785D01*
X160815936Y-93333553D01*
X160930258Y-93457740D01*
X161126492Y-93610475D01*
X161345187Y-93728827D01*
X161345190Y-93728828D01*
X161580386Y-93809571D01*
X161825665Y-93850500D01*
X162074333Y-93850500D01*
X162074335Y-93850500D01*
X162319614Y-93809571D01*
X162554810Y-93728828D01*
X162773509Y-93610474D01*
X162969744Y-93457738D01*
X163138164Y-93274785D01*
X163274173Y-93066607D01*
X163367867Y-92853005D01*
X163388825Y-92829922D01*
X163419468Y-92824155D01*
X163447386Y-92838043D01*
X166995039Y-96385696D01*
X167007633Y-96407336D01*
X167007892Y-96432372D01*
X166964892Y-96602177D01*
X166944357Y-96850000D01*
X166964892Y-97097820D01*
X167025937Y-97338883D01*
X167125828Y-97566609D01*
X167261310Y-97773981D01*
X167261836Y-97774785D01*
X167379926Y-97903065D01*
X167430258Y-97957740D01*
X167626492Y-98110475D01*
X167845187Y-98228827D01*
X167845190Y-98228828D01*
X168080386Y-98309571D01*
X168325665Y-98350500D01*
X168574333Y-98350500D01*
X168574335Y-98350500D01*
X168819614Y-98309571D01*
X169054810Y-98228828D01*
X169273509Y-98110474D01*
X169469744Y-97957738D01*
X169638164Y-97774785D01*
X169774173Y-97566607D01*
X169874063Y-97338881D01*
X169935108Y-97097821D01*
X169955643Y-96850000D01*
X171544357Y-96850000D01*
X171564892Y-97097820D01*
X171625937Y-97338883D01*
X171725828Y-97566609D01*
X171861310Y-97773981D01*
X171861836Y-97774785D01*
X171979926Y-97903065D01*
X172030258Y-97957740D01*
X172226492Y-98110475D01*
X172445187Y-98228827D01*
X172445190Y-98228828D01*
X172680386Y-98309571D01*
X172925665Y-98350500D01*
X173174333Y-98350500D01*
X173174335Y-98350500D01*
X173419614Y-98309571D01*
X173654810Y-98228828D01*
X173873509Y-98110474D01*
X174069744Y-97957738D01*
X174238164Y-97774785D01*
X174374173Y-97566607D01*
X174474063Y-97338881D01*
X174535108Y-97097821D01*
X174555643Y-96850000D01*
X174535108Y-96602179D01*
X174474063Y-96361119D01*
X174464305Y-96338874D01*
X174408919Y-96212606D01*
X174374173Y-96133393D01*
X174238164Y-95925215D01*
X174069744Y-95742262D01*
X174069743Y-95742261D01*
X174069741Y-95742259D01*
X173873507Y-95589524D01*
X173654812Y-95471172D01*
X173468664Y-95407268D01*
X173419614Y-95390429D01*
X173174335Y-95349500D01*
X172925665Y-95349500D01*
X172680386Y-95390429D01*
X172680383Y-95390429D01*
X172680383Y-95390430D01*
X172445187Y-95471172D01*
X172226492Y-95589524D01*
X172030258Y-95742259D01*
X171861833Y-95925218D01*
X171725828Y-96133390D01*
X171625937Y-96361116D01*
X171564892Y-96602179D01*
X171544357Y-96850000D01*
X169955643Y-96850000D01*
X169935108Y-96602179D01*
X169874063Y-96361119D01*
X169864305Y-96338874D01*
X169808919Y-96212606D01*
X169774173Y-96133393D01*
X169638164Y-95925215D01*
X169469744Y-95742262D01*
X169469743Y-95742261D01*
X169469741Y-95742259D01*
X169273507Y-95589524D01*
X169054812Y-95471172D01*
X168868664Y-95407268D01*
X168819614Y-95390429D01*
X168574335Y-95349500D01*
X168325665Y-95349500D01*
X168085672Y-95389547D01*
X168080386Y-95390429D01*
X168035391Y-95405875D01*
X168008437Y-95407268D01*
X167984834Y-95394177D01*
X164940657Y-92350000D01*
X166944357Y-92350000D01*
X166964892Y-92597821D01*
X166980915Y-92661094D01*
X167025937Y-92838883D01*
X167095996Y-92998599D01*
X167122424Y-93058850D01*
X167125828Y-93066609D01*
X167207861Y-93192171D01*
X167261836Y-93274785D01*
X167315936Y-93333553D01*
X167430258Y-93457740D01*
X167626492Y-93610475D01*
X167845187Y-93728827D01*
X167845190Y-93728828D01*
X168080386Y-93809571D01*
X168325665Y-93850500D01*
X168574333Y-93850500D01*
X168574335Y-93850500D01*
X168819614Y-93809571D01*
X169054810Y-93728828D01*
X169273509Y-93610474D01*
X169469744Y-93457738D01*
X169638164Y-93274785D01*
X169774173Y-93066607D01*
X169874063Y-92838881D01*
X169935108Y-92597821D01*
X169955643Y-92350000D01*
X169935108Y-92102179D01*
X169874063Y-91861119D01*
X169849532Y-91805195D01*
X169828043Y-91756204D01*
X169774173Y-91633393D01*
X169638164Y-91425215D01*
X169469744Y-91242262D01*
X169469743Y-91242261D01*
X169469741Y-91242259D01*
X169273507Y-91089524D01*
X169054812Y-90971172D01*
X168879625Y-90911031D01*
X168819614Y-90890429D01*
X168574335Y-90849500D01*
X168325665Y-90849500D01*
X168080386Y-90890429D01*
X168080383Y-90890429D01*
X168080383Y-90890430D01*
X167845187Y-90971172D01*
X167626492Y-91089524D01*
X167430258Y-91242259D01*
X167261833Y-91425218D01*
X167125828Y-91633390D01*
X167025937Y-91861116D01*
X166964892Y-92102179D01*
X166951413Y-92264852D01*
X166944357Y-92350000D01*
X164940657Y-92350000D01*
X161311341Y-88720684D01*
X161309312Y-88718529D01*
X161267929Y-88671817D01*
X161216561Y-88636359D01*
X161214178Y-88634605D01*
X161165058Y-88596122D01*
X161149604Y-88589167D01*
X161141880Y-88584811D01*
X161138296Y-88582337D01*
X161127930Y-88575182D01*
X161069571Y-88553049D01*
X161066842Y-88551918D01*
X161009931Y-88526304D01*
X160993255Y-88523248D01*
X160984715Y-88520867D01*
X160968874Y-88514860D01*
X160906918Y-88507336D01*
X160903998Y-88506891D01*
X160842606Y-88495642D01*
X160842605Y-88495642D01*
X160780302Y-88499411D01*
X160777343Y-88499500D01*
X151510453Y-88499500D01*
X151475805Y-88485148D01*
X143414852Y-80424195D01*
X143400500Y-80389547D01*
X143400500Y-77586391D01*
X143410626Y-77556562D01*
X143436818Y-77539061D01*
X143468251Y-77541121D01*
X143491935Y-77561891D01*
X143528557Y-77625322D01*
X143567467Y-77692716D01*
X143694129Y-77833388D01*
X143749169Y-77873377D01*
X143847268Y-77944650D01*
X143847269Y-77944650D01*
X143847270Y-77944651D01*
X143864728Y-77952424D01*
X144024902Y-78023739D01*
X144024678Y-78024241D01*
X144044163Y-78034820D01*
X148768650Y-82759306D01*
X148770679Y-82761461D01*
X148812071Y-82808183D01*
X148861256Y-82842133D01*
X148863437Y-82843638D01*
X148865802Y-82845377D01*
X148914944Y-82883878D01*
X148930399Y-82890833D01*
X148938114Y-82895185D01*
X148952070Y-82904818D01*
X148994205Y-82920797D01*
X149010415Y-82926945D01*
X149013150Y-82928078D01*
X149070066Y-82953694D01*
X149070067Y-82953694D01*
X149070069Y-82953695D01*
X149086747Y-82956751D01*
X149095280Y-82959129D01*
X149103968Y-82962424D01*
X149111127Y-82965140D01*
X149123438Y-82966634D01*
X149173091Y-82972663D01*
X149175987Y-82973104D01*
X149237394Y-82984358D01*
X149299697Y-82980589D01*
X149302657Y-82980500D01*
X150322020Y-82980500D01*
X150350822Y-82989858D01*
X150368622Y-83014358D01*
X150368622Y-83044639D01*
X150314326Y-83211744D01*
X150294540Y-83400000D01*
X150314326Y-83588256D01*
X150353883Y-83710000D01*
X150372822Y-83768286D01*
X150467467Y-83932216D01*
X150594128Y-84072887D01*
X150747268Y-84184150D01*
X150747269Y-84184150D01*
X150747270Y-84184151D01*
X150920197Y-84261144D01*
X150993265Y-84276675D01*
X151105353Y-84300500D01*
X151105354Y-84300500D01*
X151294646Y-84300500D01*
X151294647Y-84300500D01*
X151356365Y-84287381D01*
X151479803Y-84261144D01*
X151652730Y-84184151D01*
X151754985Y-84109858D01*
X151783787Y-84100500D01*
X165789547Y-84100500D01*
X165824195Y-84114852D01*
X172564868Y-90855525D01*
X172578923Y-90884783D01*
X172571607Y-90916406D01*
X172546131Y-90936518D01*
X172445186Y-90971172D01*
X172226492Y-91089524D01*
X172030258Y-91242259D01*
X171861833Y-91425218D01*
X171725828Y-91633390D01*
X171625937Y-91861116D01*
X171564892Y-92102179D01*
X171551413Y-92264852D01*
X171544357Y-92350000D01*
X171564892Y-92597821D01*
X171580915Y-92661094D01*
X171625937Y-92838883D01*
X171695996Y-92998599D01*
X171722424Y-93058850D01*
X171725828Y-93066609D01*
X171807861Y-93192171D01*
X171861836Y-93274785D01*
X171915936Y-93333553D01*
X172030258Y-93457740D01*
X172226492Y-93610475D01*
X172445187Y-93728827D01*
X172445190Y-93728828D01*
X172680386Y-93809571D01*
X172925665Y-93850500D01*
X173174333Y-93850500D01*
X173174335Y-93850500D01*
X173419614Y-93809571D01*
X173654810Y-93728828D01*
X173873509Y-93610474D01*
X174069744Y-93457738D01*
X174238164Y-93274785D01*
X174374173Y-93066607D01*
X174467867Y-92853005D01*
X174488825Y-92829922D01*
X174519468Y-92824155D01*
X174547386Y-92838043D01*
X178095039Y-96385696D01*
X178107633Y-96407336D01*
X178107892Y-96432372D01*
X178064892Y-96602177D01*
X178044357Y-96850000D01*
X178064892Y-97097820D01*
X178125937Y-97338883D01*
X178225828Y-97566609D01*
X178361310Y-97773981D01*
X178361836Y-97774785D01*
X178479926Y-97903065D01*
X178530258Y-97957740D01*
X178726492Y-98110475D01*
X178945187Y-98228827D01*
X178945190Y-98228828D01*
X179180386Y-98309571D01*
X179425665Y-98350500D01*
X179674333Y-98350500D01*
X179674335Y-98350500D01*
X179919614Y-98309571D01*
X180154810Y-98228828D01*
X180373509Y-98110474D01*
X180569744Y-97957738D01*
X180738164Y-97774785D01*
X180874173Y-97566607D01*
X180974063Y-97338881D01*
X181035108Y-97097821D01*
X181055643Y-96850000D01*
X181035108Y-96602179D01*
X180974063Y-96361119D01*
X180964305Y-96338874D01*
X180908919Y-96212606D01*
X180874173Y-96133393D01*
X180738164Y-95925215D01*
X180569744Y-95742262D01*
X180569743Y-95742261D01*
X180569741Y-95742259D01*
X180373507Y-95589524D01*
X180154812Y-95471172D01*
X179968664Y-95407268D01*
X179919614Y-95390429D01*
X179674335Y-95349500D01*
X179425665Y-95349500D01*
X179185672Y-95389547D01*
X179180386Y-95390429D01*
X179135391Y-95405875D01*
X179108437Y-95407268D01*
X179084834Y-95394177D01*
X176040657Y-92350000D01*
X178044357Y-92350000D01*
X178064892Y-92597821D01*
X178080915Y-92661094D01*
X178125937Y-92838883D01*
X178195996Y-92998599D01*
X178222424Y-93058850D01*
X178225828Y-93066609D01*
X178307861Y-93192171D01*
X178361836Y-93274785D01*
X178415936Y-93333553D01*
X178530258Y-93457740D01*
X178726492Y-93610475D01*
X178945187Y-93728827D01*
X178945190Y-93728828D01*
X179180386Y-93809571D01*
X179425665Y-93850500D01*
X179674333Y-93850500D01*
X179674335Y-93850500D01*
X179919614Y-93809571D01*
X180154810Y-93728828D01*
X180373509Y-93610474D01*
X180569744Y-93457738D01*
X180738164Y-93274785D01*
X180874173Y-93066607D01*
X180974063Y-92838881D01*
X181035108Y-92597821D01*
X181055643Y-92350000D01*
X181035108Y-92102179D01*
X180974063Y-91861119D01*
X180949532Y-91805195D01*
X180928043Y-91756204D01*
X180874173Y-91633393D01*
X180738164Y-91425215D01*
X180569744Y-91242262D01*
X180569743Y-91242261D01*
X180569741Y-91242259D01*
X180373507Y-91089524D01*
X180154812Y-90971172D01*
X179979625Y-90911031D01*
X179919614Y-90890429D01*
X179674335Y-90849500D01*
X179425665Y-90849500D01*
X179180386Y-90890429D01*
X179180383Y-90890429D01*
X179180383Y-90890430D01*
X178945187Y-90971172D01*
X178726492Y-91089524D01*
X178530258Y-91242259D01*
X178361833Y-91425218D01*
X178225828Y-91633390D01*
X178125937Y-91861116D01*
X178064892Y-92102179D01*
X178051413Y-92264852D01*
X178044357Y-92350000D01*
X176040657Y-92350000D01*
X166754805Y-83064148D01*
X166740453Y-83029500D01*
X166754805Y-82994852D01*
X166789453Y-82980500D01*
X174797343Y-82980500D01*
X174800302Y-82980589D01*
X174862606Y-82984358D01*
X174924017Y-82973103D01*
X174926908Y-82972663D01*
X174976561Y-82966634D01*
X174988873Y-82965140D01*
X174995177Y-82962748D01*
X175004711Y-82959132D01*
X175013245Y-82956752D01*
X175029932Y-82953695D01*
X175029934Y-82953693D01*
X175035785Y-82952622D01*
X175036144Y-82954582D01*
X175057724Y-82952620D01*
X175084571Y-82969977D01*
X175095000Y-83000197D01*
X175095000Y-83552830D01*
X175101401Y-83612372D01*
X175151648Y-83747091D01*
X175237811Y-83862188D01*
X175352908Y-83948351D01*
X175487627Y-83998598D01*
X175547170Y-84005000D01*
X176020000Y-84005000D01*
X176020000Y-83080000D01*
X176520000Y-83080000D01*
X176520000Y-84005000D01*
X176992830Y-84005000D01*
X177052372Y-83998598D01*
X177187091Y-83948351D01*
X177302188Y-83862188D01*
X177388351Y-83747091D01*
X177438598Y-83612372D01*
X177445000Y-83552830D01*
X177445000Y-83080000D01*
X176520000Y-83080000D01*
X176020000Y-83080000D01*
X176020000Y-82629000D01*
X176034352Y-82594352D01*
X176069000Y-82580000D01*
X177445000Y-82580000D01*
X177445000Y-82107170D01*
X177438598Y-82047627D01*
X177388351Y-81912908D01*
X177302188Y-81797811D01*
X177187088Y-81711646D01*
X177162976Y-81702653D01*
X177139482Y-81684151D01*
X177131117Y-81655440D01*
X177140997Y-81627214D01*
X177142423Y-81625325D01*
X177142427Y-81625322D01*
X177273712Y-81451472D01*
X177370817Y-81256459D01*
X177430435Y-81046923D01*
X177450536Y-80830000D01*
X177430435Y-80613077D01*
X177404760Y-80522839D01*
X177370818Y-80403543D01*
X177273712Y-80208528D01*
X177142428Y-80034678D01*
X177043406Y-79944409D01*
X176981432Y-79887912D01*
X176981429Y-79887910D01*
X176955184Y-79871659D01*
X176934765Y-79846283D01*
X176934766Y-79813712D01*
X176955183Y-79788339D01*
X176981432Y-79772088D01*
X177142427Y-79625322D01*
X177273712Y-79451472D01*
X177370817Y-79256459D01*
X177373277Y-79247815D01*
X177417136Y-79093663D01*
X177430435Y-79046923D01*
X177450536Y-78830000D01*
X177430435Y-78613077D01*
X177371658Y-78406496D01*
X177370818Y-78403543D01*
X177273712Y-78208528D01*
X177142428Y-78034678D01*
X177088762Y-77985756D01*
X176981432Y-77887912D01*
X176955182Y-77871659D01*
X176934764Y-77846285D01*
X176934764Y-77813715D01*
X176955182Y-77788340D01*
X176981432Y-77772088D01*
X177142427Y-77625322D01*
X177273712Y-77451472D01*
X177370817Y-77256459D01*
X177430435Y-77046923D01*
X177450536Y-76830000D01*
X177430435Y-76613077D01*
X177394595Y-76487112D01*
X177370818Y-76403543D01*
X177273712Y-76208528D01*
X177142428Y-76034678D01*
X177061929Y-75961294D01*
X176981432Y-75887912D01*
X176796210Y-75773228D01*
X176796208Y-75773227D01*
X176639498Y-75712517D01*
X176593069Y-75694530D01*
X176378926Y-75654500D01*
X176161074Y-75654500D01*
X175946931Y-75694530D01*
X175946928Y-75694530D01*
X175946928Y-75694531D01*
X175743791Y-75773227D01*
X175558568Y-75887912D01*
X175397571Y-76034678D01*
X175266287Y-76208528D01*
X175169181Y-76403543D01*
X175109565Y-76613074D01*
X175089463Y-76829999D01*
X175109565Y-77046925D01*
X175169181Y-77256456D01*
X175266287Y-77451471D01*
X175397571Y-77625321D01*
X175558569Y-77772089D01*
X175584815Y-77788340D01*
X175605234Y-77813715D01*
X175605234Y-77846285D01*
X175584815Y-77871660D01*
X175558569Y-77887910D01*
X175397571Y-78034678D01*
X175266287Y-78208528D01*
X175169181Y-78403543D01*
X175109565Y-78613074D01*
X175089463Y-78830000D01*
X175103443Y-78980872D01*
X175100740Y-79002034D01*
X175089300Y-79020041D01*
X174994192Y-79115150D01*
X174978299Y-79125770D01*
X174959547Y-79129500D01*
X174109366Y-79129500D01*
X174081055Y-79120494D01*
X174063151Y-79096785D01*
X174062237Y-79067090D01*
X174095115Y-78951536D01*
X174115643Y-78730000D01*
X174095115Y-78508464D01*
X174066054Y-78406324D01*
X174034230Y-78294474D01*
X173935058Y-78095311D01*
X173914337Y-78067872D01*
X173800981Y-77917764D01*
X173800979Y-77917762D01*
X173636565Y-77767878D01*
X173618751Y-77756848D01*
X173447401Y-77650753D01*
X173447399Y-77650752D01*
X173294467Y-77591506D01*
X173239940Y-77570382D01*
X173021243Y-77529500D01*
X172798757Y-77529500D01*
X172580060Y-77570382D01*
X172580057Y-77570382D01*
X172580057Y-77570383D01*
X172372600Y-77650752D01*
X172183434Y-77767878D01*
X172019020Y-77917762D01*
X171884941Y-78095311D01*
X171785769Y-78294474D01*
X171724885Y-78508461D01*
X171704356Y-78730000D01*
X171724885Y-78951537D01*
X171744376Y-79020041D01*
X171752025Y-79046925D01*
X171757763Y-79067090D01*
X171756849Y-79096785D01*
X171738945Y-79120494D01*
X171710634Y-79129500D01*
X166489366Y-79129500D01*
X166461055Y-79120494D01*
X166443151Y-79096785D01*
X166442237Y-79067090D01*
X166475115Y-78951536D01*
X166495643Y-78730000D01*
X166475115Y-78508464D01*
X166446054Y-78406324D01*
X166414230Y-78294474D01*
X166315058Y-78095311D01*
X166294337Y-78067872D01*
X166180981Y-77917764D01*
X166180979Y-77917762D01*
X166016565Y-77767878D01*
X165998751Y-77756848D01*
X165827401Y-77650753D01*
X165827399Y-77650752D01*
X165674467Y-77591506D01*
X165619940Y-77570382D01*
X165401243Y-77529500D01*
X165178757Y-77529500D01*
X164960060Y-77570382D01*
X164960057Y-77570382D01*
X164960057Y-77570383D01*
X164752600Y-77650752D01*
X164563434Y-77767878D01*
X164399020Y-77917762D01*
X164264941Y-78095311D01*
X164165769Y-78294474D01*
X164104885Y-78508461D01*
X164084356Y-78730000D01*
X164104885Y-78951537D01*
X164124376Y-79020041D01*
X164132025Y-79046925D01*
X164137763Y-79067090D01*
X164136849Y-79096785D01*
X164118945Y-79120494D01*
X164090634Y-79129500D01*
X155277510Y-79129500D01*
X155242862Y-79115148D01*
X154898398Y-78770684D01*
X154896369Y-78768529D01*
X154854986Y-78721817D01*
X154803618Y-78686359D01*
X154801235Y-78684605D01*
X154752115Y-78646122D01*
X154736661Y-78639167D01*
X154728937Y-78634811D01*
X154721967Y-78630000D01*
X154714987Y-78625182D01*
X154656628Y-78603049D01*
X154653899Y-78601918D01*
X154596988Y-78576304D01*
X154580312Y-78573248D01*
X154571772Y-78570867D01*
X154555931Y-78564860D01*
X154493975Y-78557336D01*
X154491055Y-78556891D01*
X154429663Y-78545642D01*
X154429662Y-78545642D01*
X154367359Y-78549411D01*
X154364400Y-78549500D01*
X152636970Y-78549500D01*
X152606578Y-78538936D01*
X152589291Y-78511800D01*
X152592561Y-78479792D01*
X152626739Y-78406495D01*
X152629929Y-78394592D01*
X152685635Y-78186692D01*
X152705468Y-77960000D01*
X152685635Y-77733308D01*
X152674758Y-77692716D01*
X152626739Y-77513504D01*
X152530569Y-77307268D01*
X152529293Y-77305446D01*
X152400047Y-77120861D01*
X152400046Y-77120860D01*
X152400044Y-77120857D01*
X152239142Y-76959955D01*
X152052731Y-76829430D01*
X151848958Y-76734409D01*
X151824128Y-76708091D01*
X151824128Y-76671909D01*
X151848958Y-76645591D01*
X151945655Y-76600500D01*
X152052734Y-76550568D01*
X152239139Y-76420047D01*
X152400047Y-76259139D01*
X152530568Y-76072734D01*
X152626739Y-75866496D01*
X152685635Y-75646692D01*
X152705468Y-75420000D01*
X152685635Y-75193308D01*
X152648474Y-75054622D01*
X152626739Y-74973504D01*
X152530569Y-74767268D01*
X152500297Y-74724035D01*
X152400047Y-74580861D01*
X152400046Y-74580860D01*
X152400044Y-74580857D01*
X152239142Y-74419955D01*
X152052731Y-74289430D01*
X151848367Y-74194133D01*
X151823537Y-74167815D01*
X151823537Y-74131633D01*
X151848367Y-74105315D01*
X152052485Y-74010133D01*
X152238815Y-73879663D01*
X152399663Y-73718815D01*
X152530133Y-73532485D01*
X152626267Y-73326324D01*
X152678872Y-73130000D01*
X150121128Y-73130000D01*
X150173732Y-73326324D01*
X150269866Y-73532485D01*
X150400336Y-73718815D01*
X150561184Y-73879663D01*
X150747514Y-74010133D01*
X150951632Y-74105315D01*
X150976462Y-74131633D01*
X150976462Y-74167815D01*
X150951633Y-74194133D01*
X150747266Y-74289432D01*
X150560857Y-74419955D01*
X150399955Y-74580857D01*
X150269430Y-74767268D01*
X150173260Y-74973504D01*
X150114365Y-75193303D01*
X150102764Y-75325908D01*
X150094532Y-75420000D01*
X150105803Y-75548833D01*
X150106181Y-75553143D01*
X150099802Y-75581914D01*
X150078075Y-75601823D01*
X150048858Y-75605670D01*
X150022719Y-75592062D01*
X148251341Y-73820684D01*
X148249312Y-73818529D01*
X148207929Y-73771817D01*
X148156561Y-73736359D01*
X148154178Y-73734605D01*
X148105058Y-73696122D01*
X148089604Y-73689167D01*
X148081880Y-73684811D01*
X148078296Y-73682337D01*
X148067930Y-73675182D01*
X148009571Y-73653049D01*
X148006842Y-73651918D01*
X147949931Y-73626304D01*
X147933255Y-73623248D01*
X147924715Y-73620867D01*
X147908874Y-73614860D01*
X147846918Y-73607336D01*
X147843998Y-73606891D01*
X147782606Y-73595642D01*
X147782605Y-73595642D01*
X147720302Y-73599411D01*
X147717343Y-73599500D01*
X139681516Y-73599500D01*
X139675610Y-73599143D01*
X139673630Y-73598902D01*
X139637372Y-73594500D01*
X139637370Y-73594500D01*
X137338681Y-73594500D01*
X137308289Y-73583936D01*
X137291002Y-73556800D01*
X137294272Y-73524792D01*
X137386739Y-73326495D01*
X137389929Y-73314592D01*
X137445635Y-73106692D01*
X137465468Y-72880000D01*
X137445635Y-72653308D01*
X137439849Y-72631716D01*
X137386739Y-72433504D01*
X137290569Y-72227268D01*
X137290089Y-72226583D01*
X137160047Y-72040861D01*
X137160046Y-72040860D01*
X137160044Y-72040857D01*
X136999142Y-71879955D01*
X136812731Y-71749430D01*
X136608958Y-71654409D01*
X136584128Y-71628091D01*
X136584128Y-71591909D01*
X136608958Y-71565591D01*
X136714512Y-71516370D01*
X136812734Y-71470568D01*
X136999139Y-71340047D01*
X137160047Y-71179139D01*
X137290568Y-70992734D01*
X137386739Y-70786496D01*
X137445635Y-70566692D01*
X137465468Y-70340000D01*
X137445635Y-70113308D01*
X137441745Y-70098792D01*
X137386739Y-69893504D01*
X137290569Y-69687268D01*
X137284523Y-69678634D01*
X137160047Y-69500861D01*
X137160046Y-69500860D01*
X137160044Y-69500857D01*
X136999142Y-69339955D01*
X136812731Y-69209430D01*
X136608958Y-69114409D01*
X136584128Y-69088091D01*
X136584128Y-69051909D01*
X136608958Y-69025591D01*
X136637167Y-69012437D01*
X136812734Y-68930568D01*
X136999139Y-68800047D01*
X137160047Y-68639139D01*
X137242491Y-68521394D01*
X137260004Y-68506037D01*
X137282630Y-68500500D01*
X142034921Y-68500500D01*
X142063722Y-68509858D01*
X142207268Y-68614150D01*
X142207269Y-68614150D01*
X142207270Y-68614151D01*
X142380197Y-68691144D01*
X142472775Y-68710821D01*
X142565353Y-68730500D01*
X142565354Y-68730500D01*
X142754646Y-68730500D01*
X142754647Y-68730500D01*
X142816364Y-68717381D01*
X142939803Y-68691144D01*
X143112730Y-68614151D01*
X143265871Y-68502888D01*
X143392533Y-68362216D01*
X143487179Y-68198284D01*
X143545674Y-68018256D01*
X143565460Y-67830000D01*
X143545674Y-67641744D01*
X143487179Y-67461716D01*
X143392533Y-67297784D01*
X143265871Y-67157112D01*
X143252319Y-67147266D01*
X143112731Y-67045849D01*
X142939801Y-66968855D01*
X142754647Y-66929500D01*
X142754646Y-66929500D01*
X142565354Y-66929500D01*
X142565353Y-66929500D01*
X142380198Y-66968855D01*
X142207268Y-67045849D01*
X142146305Y-67090142D01*
X142117504Y-67099500D01*
X137282630Y-67099500D01*
X137260004Y-67093963D01*
X137242491Y-67078605D01*
X137219555Y-67045849D01*
X137160047Y-66960861D01*
X137160046Y-66960860D01*
X137160044Y-66960857D01*
X136999142Y-66799955D01*
X136812731Y-66669430D01*
X136608958Y-66574409D01*
X136584128Y-66548091D01*
X136584128Y-66511909D01*
X136608958Y-66485591D01*
X136637167Y-66472437D01*
X136812734Y-66390568D01*
X136999139Y-66260047D01*
X137160047Y-66099139D01*
X137290568Y-65912734D01*
X137386739Y-65706496D01*
X137445635Y-65486692D01*
X137465468Y-65260000D01*
X137445635Y-65033308D01*
X137421100Y-64941743D01*
X137386739Y-64813504D01*
X137290569Y-64607268D01*
X137283928Y-64597784D01*
X137160047Y-64420861D01*
X137160046Y-64420860D01*
X137160044Y-64420857D01*
X136999142Y-64259955D01*
X136955647Y-64229500D01*
X136812734Y-64129432D01*
X136722843Y-64087515D01*
X136608957Y-64034408D01*
X136584128Y-64008090D01*
X136584128Y-63971908D01*
X136608956Y-63945591D01*
X136812734Y-63850568D01*
X136999139Y-63720047D01*
X137160047Y-63559139D01*
X137290568Y-63372734D01*
X137386739Y-63166496D01*
X137445635Y-62946692D01*
X137465468Y-62720000D01*
X137445635Y-62493308D01*
X137440401Y-62473776D01*
X137386739Y-62273504D01*
X137290569Y-62067268D01*
X137260297Y-62024035D01*
X137160047Y-61880861D01*
X137160046Y-61880860D01*
X137160044Y-61880857D01*
X136999142Y-61719955D01*
X136873122Y-61631716D01*
X136812734Y-61589432D01*
X136722843Y-61547515D01*
X136608957Y-61494408D01*
X136584128Y-61468090D01*
X136584128Y-61431908D01*
X136608956Y-61405591D01*
X136812734Y-61310568D01*
X136999139Y-61180047D01*
X137160047Y-61019139D01*
X137290568Y-60832734D01*
X137386739Y-60626496D01*
X137445635Y-60406692D01*
X137465468Y-60180000D01*
X137445635Y-59953308D01*
X137407639Y-59811506D01*
X137386739Y-59733504D01*
X137290569Y-59527268D01*
X137289554Y-59525819D01*
X137160047Y-59340861D01*
X137160046Y-59340860D01*
X137160044Y-59340857D01*
X136999142Y-59179955D01*
X136812731Y-59049430D01*
X136608958Y-58954409D01*
X136584128Y-58928091D01*
X136584128Y-58891909D01*
X136608958Y-58865591D01*
X136638436Y-58851845D01*
X136812734Y-58770568D01*
X136999139Y-58640047D01*
X137160047Y-58479139D01*
X137290568Y-58292734D01*
X137386739Y-58086496D01*
X137445635Y-57866692D01*
X137465468Y-57640000D01*
X137445635Y-57413308D01*
X137437489Y-57382908D01*
X137386739Y-57193504D01*
X137290569Y-56987268D01*
X137260297Y-56944035D01*
X137160047Y-56800861D01*
X137160046Y-56800860D01*
X137160044Y-56800857D01*
X136999142Y-56639955D01*
X136812731Y-56509430D01*
X136608958Y-56414409D01*
X136584128Y-56388091D01*
X136584128Y-56351909D01*
X136608958Y-56325591D01*
X136637167Y-56312437D01*
X136812734Y-56230568D01*
X136999139Y-56100047D01*
X137160047Y-55939139D01*
X137290568Y-55752734D01*
X137386739Y-55546496D01*
X137445635Y-55326692D01*
X137465468Y-55100000D01*
X137445635Y-54873308D01*
X137407639Y-54731506D01*
X137386739Y-54653504D01*
X137290569Y-54447268D01*
X137265961Y-54412124D01*
X137160047Y-54260861D01*
X137160046Y-54260860D01*
X137160044Y-54260857D01*
X136999142Y-54099955D01*
X136812731Y-53969430D01*
X136608958Y-53874409D01*
X136584128Y-53848091D01*
X136584128Y-53811909D01*
X136608958Y-53785591D01*
X136638436Y-53771845D01*
X136812734Y-53690568D01*
X136999139Y-53560047D01*
X137160047Y-53399139D01*
X137290568Y-53212734D01*
X137386739Y-53006496D01*
X137445635Y-52786692D01*
X137465468Y-52560000D01*
X137445635Y-52333308D01*
X137438922Y-52308256D01*
X137386739Y-52113504D01*
X137290569Y-51907268D01*
X137277276Y-51888284D01*
X137160047Y-51720861D01*
X137160046Y-51720860D01*
X137160044Y-51720857D01*
X136999142Y-51559955D01*
X136812731Y-51429430D01*
X136608958Y-51334409D01*
X136584128Y-51308091D01*
X136584128Y-51271909D01*
X136608958Y-51245591D01*
X136641320Y-51230500D01*
X136812734Y-51150568D01*
X136999139Y-51020047D01*
X137160047Y-50859139D01*
X137290568Y-50672734D01*
X137386739Y-50466496D01*
X137445635Y-50246692D01*
X137465468Y-50020000D01*
X137445635Y-49793308D01*
X137411338Y-49665311D01*
X137386739Y-49573504D01*
X137290569Y-49367268D01*
X137260297Y-49324035D01*
X137160047Y-49180861D01*
X137160046Y-49180860D01*
X137160044Y-49180857D01*
X136999142Y-49019955D01*
X136812731Y-48889430D01*
X136608958Y-48794409D01*
X136584128Y-48768091D01*
X136584128Y-48731909D01*
X136608958Y-48705591D01*
X136637167Y-48692437D01*
X136812734Y-48610568D01*
X136999139Y-48480047D01*
X137160047Y-48319139D01*
X137290568Y-48132734D01*
X137386739Y-47926496D01*
X137445635Y-47706692D01*
X137465468Y-47480000D01*
X137464887Y-47473363D01*
X137467654Y-47452336D01*
X137479050Y-47434447D01*
X148798647Y-36114852D01*
X148833296Y-36100500D01*
X175596705Y-36100500D01*
X175631353Y-36114852D01*
X178265148Y-38748647D01*
X178279500Y-38783295D01*
X178279500Y-51230500D01*
X178265148Y-51265148D01*
X178230500Y-51279500D01*
X177430314Y-51279500D01*
X177397353Y-51266757D01*
X177381536Y-51235157D01*
X177391088Y-51201135D01*
X177392544Y-51199191D01*
X177468796Y-51097331D01*
X177519091Y-50962483D01*
X177525500Y-50902873D01*
X177525499Y-49457128D01*
X177523452Y-49438090D01*
X177519091Y-49397518D01*
X177510912Y-49375590D01*
X177468796Y-49262669D01*
X177382546Y-49147454D01*
X177318488Y-49099500D01*
X177267332Y-49061204D01*
X177132481Y-49010908D01*
X177072875Y-49004500D01*
X175627125Y-49004500D01*
X175567518Y-49010908D01*
X175432667Y-49061204D01*
X175317454Y-49147454D01*
X175231204Y-49262667D01*
X175180908Y-49397518D01*
X175174500Y-49457125D01*
X175174500Y-50344546D01*
X175170770Y-50363297D01*
X175160148Y-50379194D01*
X174000684Y-51538657D01*
X173998530Y-51540685D01*
X173951817Y-51582070D01*
X173916358Y-51633438D01*
X173914606Y-51635819D01*
X173876121Y-51684943D01*
X173869166Y-51700396D01*
X173864811Y-51708118D01*
X173855182Y-51722067D01*
X173833051Y-51780422D01*
X173831918Y-51783156D01*
X173806304Y-51840068D01*
X173803248Y-51856745D01*
X173800867Y-51865287D01*
X173794859Y-51881127D01*
X173787338Y-51943065D01*
X173786893Y-51945989D01*
X173775642Y-52007393D01*
X173779411Y-52069698D01*
X173779500Y-52072657D01*
X173779500Y-52609548D01*
X173775770Y-52628299D01*
X173765148Y-52644196D01*
X162984147Y-63425195D01*
X162949499Y-63439547D01*
X162914851Y-63425195D01*
X162900499Y-63390547D01*
X162900499Y-62152125D01*
X162894091Y-62092518D01*
X162884673Y-62067268D01*
X162843796Y-61957669D01*
X162757546Y-61842454D01*
X162699938Y-61799328D01*
X162642332Y-61756204D01*
X162507481Y-61705908D01*
X162447875Y-61699500D01*
X160352125Y-61699500D01*
X160292518Y-61705908D01*
X160157667Y-61756204D01*
X160042454Y-61842454D01*
X159956204Y-61957667D01*
X159905908Y-62092518D01*
X159899500Y-62152124D01*
X159899500Y-64247874D01*
X159905908Y-64307481D01*
X159926756Y-64363377D01*
X159927860Y-64394305D01*
X159910209Y-64419727D01*
X159880845Y-64429500D01*
X157373787Y-64429500D01*
X157344986Y-64420142D01*
X157242731Y-64345849D01*
X157069801Y-64268855D01*
X156884647Y-64229500D01*
X156884646Y-64229500D01*
X156695354Y-64229500D01*
X156695353Y-64229500D01*
X156510198Y-64268855D01*
X156337268Y-64345849D01*
X156184128Y-64457112D01*
X156057467Y-64597783D01*
X155962822Y-64761713D01*
X155904326Y-64941743D01*
X155884540Y-65130000D01*
X155904326Y-65318256D01*
X155962822Y-65498286D01*
X156057467Y-65662216D01*
X156128251Y-65740830D01*
X156184129Y-65802888D01*
X156190550Y-65807553D01*
X156195099Y-65810858D01*
X156212899Y-65835358D01*
X156212899Y-65865642D01*
X156195098Y-65890142D01*
X156166297Y-65899500D01*
X152613654Y-65899500D01*
X152583262Y-65888936D01*
X152565975Y-65861800D01*
X152569245Y-65829792D01*
X152609875Y-65742660D01*
X152626739Y-65706496D01*
X152685635Y-65486692D01*
X152705468Y-65260000D01*
X152685635Y-65033308D01*
X152661100Y-64941743D01*
X152626739Y-64813504D01*
X152530569Y-64607268D01*
X152523928Y-64597784D01*
X152400047Y-64420861D01*
X152400046Y-64420860D01*
X152400044Y-64420857D01*
X152239142Y-64259955D01*
X152195647Y-64229500D01*
X152052734Y-64129432D01*
X151962843Y-64087515D01*
X151848957Y-64034408D01*
X151824128Y-64008090D01*
X151824128Y-63971908D01*
X151848956Y-63945591D01*
X152052734Y-63850568D01*
X152239139Y-63720047D01*
X152400047Y-63559139D01*
X152530568Y-63372734D01*
X152626739Y-63166496D01*
X152685635Y-62946692D01*
X152705468Y-62720000D01*
X152685635Y-62493308D01*
X152680401Y-62473776D01*
X152626739Y-62273504D01*
X152530569Y-62067268D01*
X152500297Y-62024035D01*
X152400047Y-61880861D01*
X152400046Y-61880860D01*
X152400044Y-61880857D01*
X152239142Y-61719955D01*
X152113122Y-61631716D01*
X152052734Y-61589432D01*
X151962843Y-61547515D01*
X151848957Y-61494408D01*
X151824128Y-61468090D01*
X151824128Y-61431908D01*
X151848956Y-61405591D01*
X152052734Y-61310568D01*
X152239139Y-61180047D01*
X152400047Y-61019139D01*
X152530568Y-60832734D01*
X152626739Y-60626496D01*
X152685635Y-60406692D01*
X152705468Y-60180000D01*
X152685635Y-59953308D01*
X152647639Y-59811506D01*
X152626739Y-59733504D01*
X152530569Y-59527268D01*
X152529554Y-59525819D01*
X152400047Y-59340861D01*
X152400046Y-59340860D01*
X152400044Y-59340857D01*
X152239142Y-59179955D01*
X152052731Y-59049430D01*
X151848958Y-58954409D01*
X151824128Y-58928091D01*
X151824128Y-58891909D01*
X151848958Y-58865591D01*
X151878436Y-58851845D01*
X152052734Y-58770568D01*
X152239139Y-58640047D01*
X152400047Y-58479139D01*
X152530568Y-58292734D01*
X152626739Y-58086496D01*
X152685635Y-57866692D01*
X152705468Y-57640000D01*
X152685635Y-57413308D01*
X152677489Y-57382908D01*
X152626739Y-57193504D01*
X152530569Y-56987268D01*
X152500297Y-56944035D01*
X152400047Y-56800861D01*
X152400046Y-56800860D01*
X152400044Y-56800857D01*
X152239142Y-56639955D01*
X152052731Y-56509430D01*
X151848958Y-56414409D01*
X151824128Y-56388091D01*
X151824128Y-56351909D01*
X151848958Y-56325591D01*
X151877167Y-56312437D01*
X152052734Y-56230568D01*
X152239139Y-56100047D01*
X152400047Y-55939139D01*
X152530568Y-55752734D01*
X152626739Y-55546496D01*
X152685635Y-55326692D01*
X152705468Y-55100000D01*
X152685635Y-54873308D01*
X152647639Y-54731506D01*
X152626739Y-54653504D01*
X152530569Y-54447268D01*
X152505961Y-54412124D01*
X152400047Y-54260861D01*
X152400046Y-54260860D01*
X152400044Y-54260857D01*
X152239142Y-54099955D01*
X152052731Y-53969430D01*
X151848958Y-53874409D01*
X151824128Y-53848091D01*
X151824128Y-53811909D01*
X151848958Y-53785591D01*
X151878436Y-53771845D01*
X152052734Y-53690568D01*
X152239139Y-53560047D01*
X152349186Y-53450000D01*
X154764356Y-53450000D01*
X154784885Y-53671538D01*
X154845769Y-53885525D01*
X154944941Y-54084688D01*
X154957562Y-54101401D01*
X155076420Y-54258795D01*
X155079020Y-54262237D01*
X155243434Y-54412121D01*
X155243436Y-54412122D01*
X155243438Y-54412124D01*
X155432599Y-54529247D01*
X155640060Y-54609618D01*
X155858757Y-54650500D01*
X156081241Y-54650500D01*
X156081243Y-54650500D01*
X156299940Y-54609618D01*
X156507401Y-54529247D01*
X156696562Y-54412124D01*
X156860981Y-54262236D01*
X156995058Y-54084689D01*
X157094229Y-53885528D01*
X157155115Y-53671536D01*
X157175643Y-53450000D01*
X162384356Y-53450000D01*
X162404885Y-53671538D01*
X162465769Y-53885525D01*
X162564941Y-54084688D01*
X162577562Y-54101401D01*
X162696420Y-54258795D01*
X162699020Y-54262237D01*
X162863434Y-54412121D01*
X162863436Y-54412122D01*
X162863438Y-54412124D01*
X163052599Y-54529247D01*
X163260060Y-54609618D01*
X163478757Y-54650500D01*
X163701241Y-54650500D01*
X163701243Y-54650500D01*
X163919940Y-54609618D01*
X164127401Y-54529247D01*
X164316562Y-54412124D01*
X164480981Y-54262236D01*
X164615058Y-54084689D01*
X164714229Y-53885528D01*
X164775115Y-53671536D01*
X164795643Y-53450000D01*
X164775115Y-53228464D01*
X164744849Y-53122089D01*
X164714230Y-53014474D01*
X164615058Y-52815311D01*
X164578205Y-52766510D01*
X164480981Y-52637764D01*
X164470958Y-52628627D01*
X164316565Y-52487878D01*
X164316562Y-52487876D01*
X164127401Y-52370753D01*
X164127399Y-52370752D01*
X163966078Y-52308256D01*
X163919940Y-52290382D01*
X163701243Y-52249500D01*
X163478757Y-52249500D01*
X163260060Y-52290382D01*
X163260057Y-52290382D01*
X163260057Y-52290383D01*
X163052600Y-52370752D01*
X162863434Y-52487878D01*
X162699020Y-52637762D01*
X162564941Y-52815311D01*
X162465769Y-53014474D01*
X162404885Y-53228461D01*
X162384356Y-53450000D01*
X157175643Y-53450000D01*
X157155115Y-53228464D01*
X157124849Y-53122089D01*
X157094230Y-53014474D01*
X156995058Y-52815311D01*
X156958205Y-52766510D01*
X156860981Y-52637764D01*
X156850958Y-52628627D01*
X156696565Y-52487878D01*
X156696562Y-52487876D01*
X156507401Y-52370753D01*
X156507399Y-52370752D01*
X156346078Y-52308256D01*
X156299940Y-52290382D01*
X156081243Y-52249500D01*
X155858757Y-52249500D01*
X155640060Y-52290382D01*
X155640057Y-52290382D01*
X155640057Y-52290383D01*
X155432600Y-52370752D01*
X155243434Y-52487878D01*
X155079020Y-52637762D01*
X154944941Y-52815311D01*
X154845769Y-53014474D01*
X154784885Y-53228461D01*
X154764356Y-53450000D01*
X152349186Y-53450000D01*
X152400047Y-53399139D01*
X152530568Y-53212734D01*
X152626739Y-53006496D01*
X152685635Y-52786692D01*
X152705468Y-52560000D01*
X152685635Y-52333308D01*
X152678922Y-52308256D01*
X152626739Y-52113504D01*
X152530569Y-51907268D01*
X152517276Y-51888284D01*
X152400047Y-51720861D01*
X152400046Y-51720860D01*
X152400044Y-51720857D01*
X152239142Y-51559955D01*
X152052731Y-51429430D01*
X151848958Y-51334409D01*
X151824128Y-51308091D01*
X151824128Y-51271909D01*
X151848958Y-51245591D01*
X151881320Y-51230500D01*
X152052734Y-51150568D01*
X152239139Y-51020047D01*
X152400047Y-50859139D01*
X152530568Y-50672734D01*
X152626739Y-50466496D01*
X152671351Y-50300000D01*
X154764356Y-50300000D01*
X154784885Y-50521538D01*
X154845769Y-50735525D01*
X154944941Y-50934688D01*
X154965931Y-50962483D01*
X155077796Y-51110617D01*
X155079020Y-51112237D01*
X155243434Y-51262121D01*
X155243436Y-51262122D01*
X155243438Y-51262124D01*
X155432599Y-51379247D01*
X155640060Y-51459618D01*
X155858757Y-51500500D01*
X156081241Y-51500500D01*
X156081243Y-51500500D01*
X156299940Y-51459618D01*
X156507401Y-51379247D01*
X156696562Y-51262124D01*
X156860981Y-51112236D01*
X156995058Y-50934689D01*
X157094229Y-50735528D01*
X157155115Y-50521536D01*
X157175643Y-50300000D01*
X162384356Y-50300000D01*
X162404885Y-50521538D01*
X162465769Y-50735525D01*
X162564941Y-50934688D01*
X162585931Y-50962483D01*
X162697796Y-51110617D01*
X162699020Y-51112237D01*
X162863434Y-51262121D01*
X162863436Y-51262122D01*
X162863438Y-51262124D01*
X163052599Y-51379247D01*
X163260060Y-51459618D01*
X163478757Y-51500500D01*
X163701241Y-51500500D01*
X163701243Y-51500500D01*
X163919940Y-51459618D01*
X164127401Y-51379247D01*
X164316562Y-51262124D01*
X164450526Y-51139999D01*
X166249463Y-51139999D01*
X166269565Y-51356925D01*
X166329181Y-51566456D01*
X166426287Y-51761471D01*
X166558687Y-51936798D01*
X166568567Y-51965023D01*
X166560202Y-51993734D01*
X166536709Y-52012237D01*
X166512668Y-52021204D01*
X166397454Y-52107454D01*
X166311204Y-52222667D01*
X166260908Y-52357518D01*
X166254500Y-52417124D01*
X166254500Y-53862874D01*
X166260908Y-53922481D01*
X166311204Y-54057332D01*
X166331683Y-54084688D01*
X166397454Y-54172546D01*
X166474406Y-54230152D01*
X166512667Y-54258795D01*
X166512668Y-54258795D01*
X166512669Y-54258796D01*
X166647517Y-54309091D01*
X166707127Y-54315500D01*
X168152872Y-54315499D01*
X168152874Y-54315499D01*
X168182677Y-54312295D01*
X168212483Y-54309091D01*
X168347331Y-54258796D01*
X168462546Y-54172546D01*
X168548796Y-54057331D01*
X168599091Y-53922483D01*
X168605500Y-53862873D01*
X168605499Y-52417128D01*
X168604858Y-52411169D01*
X168599556Y-52361842D01*
X168599091Y-52357517D01*
X168548796Y-52222669D01*
X168548664Y-52222493D01*
X168501527Y-52159526D01*
X168462546Y-52107454D01*
X168412111Y-52069698D01*
X168347333Y-52021204D01*
X168323292Y-52012238D01*
X168299798Y-51993735D01*
X168291433Y-51965024D01*
X168301313Y-51936798D01*
X168370186Y-51845594D01*
X168433712Y-51761472D01*
X168530817Y-51566459D01*
X168532257Y-51561400D01*
X168587331Y-51367832D01*
X168590435Y-51356923D01*
X168610536Y-51140000D01*
X168590435Y-50923077D01*
X168561313Y-50820724D01*
X168530818Y-50713543D01*
X168433712Y-50518528D01*
X168302428Y-50344678D01*
X168141430Y-50197910D01*
X168114709Y-50181365D01*
X168094290Y-50155989D01*
X168094291Y-50123419D01*
X168114711Y-50098044D01*
X168141126Y-50081689D01*
X168302057Y-49934983D01*
X168433285Y-49761207D01*
X168530349Y-49566276D01*
X168580505Y-49390000D01*
X166279494Y-49390000D01*
X166329650Y-49566276D01*
X166426714Y-49761207D01*
X166557942Y-49934983D01*
X166718872Y-50081686D01*
X166745290Y-50098044D01*
X166765709Y-50123419D01*
X166765710Y-50155990D01*
X166745291Y-50181365D01*
X166718569Y-50197910D01*
X166557571Y-50344678D01*
X166426287Y-50518528D01*
X166329181Y-50713543D01*
X166269565Y-50923074D01*
X166249463Y-51139999D01*
X164450526Y-51139999D01*
X164480981Y-51112236D01*
X164615058Y-50934689D01*
X164714229Y-50735528D01*
X164775115Y-50521536D01*
X164795643Y-50300000D01*
X164775115Y-50078464D01*
X164754079Y-50004530D01*
X164714230Y-49864474D01*
X164615058Y-49665311D01*
X164604631Y-49651503D01*
X164480981Y-49487764D01*
X164447372Y-49457125D01*
X164316565Y-49337878D01*
X164294206Y-49324034D01*
X164127401Y-49220753D01*
X164127399Y-49220752D01*
X164023670Y-49180567D01*
X163919940Y-49140382D01*
X163701243Y-49099500D01*
X163478757Y-49099500D01*
X163260060Y-49140382D01*
X163260057Y-49140382D01*
X163260057Y-49140383D01*
X163052600Y-49220752D01*
X162863434Y-49337878D01*
X162699020Y-49487762D01*
X162564941Y-49665311D01*
X162465769Y-49864474D01*
X162404885Y-50078461D01*
X162384356Y-50300000D01*
X157175643Y-50300000D01*
X157155115Y-50078464D01*
X157134079Y-50004530D01*
X157094230Y-49864474D01*
X156995058Y-49665311D01*
X156984631Y-49651503D01*
X156860981Y-49487764D01*
X156827372Y-49457125D01*
X156696565Y-49337878D01*
X156674206Y-49324034D01*
X156507401Y-49220753D01*
X156507399Y-49220752D01*
X156403670Y-49180567D01*
X156299940Y-49140382D01*
X156081243Y-49099500D01*
X155858757Y-49099500D01*
X155640060Y-49140382D01*
X155640057Y-49140382D01*
X155640057Y-49140383D01*
X155432600Y-49220752D01*
X155243434Y-49337878D01*
X155079020Y-49487762D01*
X154944941Y-49665311D01*
X154845769Y-49864474D01*
X154784885Y-50078461D01*
X154764356Y-50300000D01*
X152671351Y-50300000D01*
X152685635Y-50246692D01*
X152705468Y-50020000D01*
X152685635Y-49793308D01*
X152651338Y-49665311D01*
X152626739Y-49573504D01*
X152530569Y-49367268D01*
X152500297Y-49324035D01*
X152400047Y-49180861D01*
X152400046Y-49180860D01*
X152400044Y-49180857D01*
X152239142Y-49019955D01*
X152052731Y-48889430D01*
X151848958Y-48794409D01*
X151824128Y-48768091D01*
X151824128Y-48731909D01*
X151848958Y-48705591D01*
X151877167Y-48692437D01*
X152052734Y-48610568D01*
X152239139Y-48480047D01*
X152400047Y-48319139D01*
X152530568Y-48132734D01*
X152626739Y-47926496D01*
X152685635Y-47706692D01*
X152705468Y-47480000D01*
X152685635Y-47253308D01*
X152657953Y-47149999D01*
X154764356Y-47149999D01*
X154784885Y-47371538D01*
X154845769Y-47585525D01*
X154944941Y-47784688D01*
X154944942Y-47784689D01*
X155052029Y-47926496D01*
X155079020Y-47962237D01*
X155243434Y-48112121D01*
X155243436Y-48112122D01*
X155243438Y-48112124D01*
X155432599Y-48229247D01*
X155640060Y-48309618D01*
X155858757Y-48350500D01*
X156081241Y-48350500D01*
X156081243Y-48350500D01*
X156299940Y-48309618D01*
X156507401Y-48229247D01*
X156696562Y-48112124D01*
X156860981Y-47962236D01*
X156995058Y-47784689D01*
X157094229Y-47585528D01*
X157099656Y-47566456D01*
X157124254Y-47480000D01*
X157155115Y-47371536D01*
X157175643Y-47150000D01*
X157175643Y-47149999D01*
X162384356Y-47149999D01*
X162404885Y-47371538D01*
X162465769Y-47585525D01*
X162564941Y-47784688D01*
X162564942Y-47784689D01*
X162672029Y-47926496D01*
X162699020Y-47962237D01*
X162863434Y-48112121D01*
X162863436Y-48112122D01*
X162863438Y-48112124D01*
X163052599Y-48229247D01*
X163260060Y-48309618D01*
X163478757Y-48350500D01*
X163701241Y-48350500D01*
X163701243Y-48350500D01*
X163919940Y-48309618D01*
X164127401Y-48229247D01*
X164316562Y-48112124D01*
X164480981Y-47962236D01*
X164615058Y-47784689D01*
X164714229Y-47585528D01*
X164719656Y-47566456D01*
X164744254Y-47480000D01*
X164775115Y-47371536D01*
X164795643Y-47150000D01*
X164794716Y-47139999D01*
X166249463Y-47139999D01*
X166269565Y-47356925D01*
X166329181Y-47566456D01*
X166426287Y-47761471D01*
X166557571Y-47935321D01*
X166718569Y-48082089D01*
X166745290Y-48098634D01*
X166765709Y-48124009D01*
X166765709Y-48156579D01*
X166745290Y-48181954D01*
X166718873Y-48198311D01*
X166557942Y-48345016D01*
X166426714Y-48518792D01*
X166329650Y-48713723D01*
X166279494Y-48889999D01*
X166279495Y-48890000D01*
X168580505Y-48890000D01*
X168580505Y-48889999D01*
X168530349Y-48713723D01*
X168433285Y-48518792D01*
X168302057Y-48345016D01*
X168141126Y-48198311D01*
X168114708Y-48181954D01*
X168094289Y-48156579D01*
X168094290Y-48124008D01*
X168114707Y-48098635D01*
X168141432Y-48082088D01*
X168302427Y-47935322D01*
X168433712Y-47761472D01*
X168530817Y-47566459D01*
X168590435Y-47356923D01*
X168610536Y-47140000D01*
X168592930Y-46950000D01*
X175189494Y-46950000D01*
X175239650Y-47126276D01*
X175336714Y-47321207D01*
X175467942Y-47494983D01*
X175628871Y-47641686D01*
X175814015Y-47756323D01*
X176017065Y-47834985D01*
X176090000Y-47848619D01*
X176090000Y-46950000D01*
X176590000Y-46950000D01*
X176590000Y-47848619D01*
X176662934Y-47834985D01*
X176865984Y-47756323D01*
X177051128Y-47641686D01*
X177212057Y-47494983D01*
X177343285Y-47321207D01*
X177440349Y-47126276D01*
X177490505Y-46950000D01*
X176590000Y-46950000D01*
X176090000Y-46950000D01*
X175189494Y-46950000D01*
X168592930Y-46950000D01*
X168590435Y-46923077D01*
X168563175Y-46827268D01*
X168530818Y-46713543D01*
X168433712Y-46518528D01*
X168302428Y-46344678D01*
X168202147Y-46253261D01*
X168141432Y-46197912D01*
X167956210Y-46083228D01*
X167956208Y-46083227D01*
X167854639Y-46043878D01*
X167753069Y-46004530D01*
X167538926Y-45964500D01*
X167321074Y-45964500D01*
X167106931Y-46004530D01*
X167106928Y-46004530D01*
X167106928Y-46004531D01*
X166903791Y-46083227D01*
X166718568Y-46197912D01*
X166557571Y-46344678D01*
X166426287Y-46518528D01*
X166329181Y-46713543D01*
X166269565Y-46923074D01*
X166249463Y-47139999D01*
X164794716Y-47139999D01*
X164775115Y-46928464D01*
X164736954Y-46794341D01*
X164714230Y-46714474D01*
X164615058Y-46515311D01*
X164588357Y-46479953D01*
X164480981Y-46337764D01*
X164480979Y-46337762D01*
X164316565Y-46187878D01*
X164316562Y-46187876D01*
X164127401Y-46070753D01*
X164127399Y-46070752D01*
X164023670Y-46030567D01*
X163919940Y-45990382D01*
X163701243Y-45949500D01*
X163478757Y-45949500D01*
X163260060Y-45990382D01*
X163260057Y-45990382D01*
X163260057Y-45990383D01*
X163052600Y-46070752D01*
X162863434Y-46187878D01*
X162699020Y-46337762D01*
X162564941Y-46515311D01*
X162465769Y-46714474D01*
X162404885Y-46928461D01*
X162384356Y-47149999D01*
X157175643Y-47149999D01*
X157155115Y-46928464D01*
X157116954Y-46794341D01*
X157094230Y-46714474D01*
X156995058Y-46515311D01*
X156968357Y-46479953D01*
X156860981Y-46337764D01*
X156860979Y-46337762D01*
X156696565Y-46187878D01*
X156696562Y-46187876D01*
X156507401Y-46070753D01*
X156507399Y-46070752D01*
X156403670Y-46030567D01*
X156299940Y-45990382D01*
X156081243Y-45949500D01*
X155858757Y-45949500D01*
X155640060Y-45990382D01*
X155640057Y-45990382D01*
X155640057Y-45990383D01*
X155432600Y-46070752D01*
X155243434Y-46187878D01*
X155079020Y-46337762D01*
X154944941Y-46515311D01*
X154845769Y-46714474D01*
X154784885Y-46928461D01*
X154764356Y-47149999D01*
X152657953Y-47149999D01*
X152655274Y-47140000D01*
X152626739Y-47033504D01*
X152530569Y-46827268D01*
X152500297Y-46784035D01*
X152400047Y-46640861D01*
X152400046Y-46640860D01*
X152400044Y-46640857D01*
X152239142Y-46479955D01*
X152052731Y-46349430D01*
X151848958Y-46254409D01*
X151824128Y-46228091D01*
X151824128Y-46191909D01*
X151848958Y-46165591D01*
X151878436Y-46151845D01*
X152052734Y-46070568D01*
X152239139Y-45940047D01*
X152400047Y-45779139D01*
X152530568Y-45592734D01*
X152626739Y-45386496D01*
X152685635Y-45166692D01*
X152705468Y-44940000D01*
X152685635Y-44713308D01*
X152682069Y-44699999D01*
X175159463Y-44699999D01*
X175179565Y-44916925D01*
X175239181Y-45126456D01*
X175336287Y-45321471D01*
X175467571Y-45495321D01*
X175628569Y-45642089D01*
X175655290Y-45658634D01*
X175675709Y-45684009D01*
X175675709Y-45716579D01*
X175655290Y-45741954D01*
X175628873Y-45758311D01*
X175467942Y-45905016D01*
X175336714Y-46078792D01*
X175239650Y-46273723D01*
X175189494Y-46449999D01*
X175189495Y-46450000D01*
X177490505Y-46450000D01*
X177490505Y-46449999D01*
X177440349Y-46273723D01*
X177343285Y-46078792D01*
X177212057Y-45905016D01*
X177051126Y-45758311D01*
X177024708Y-45741954D01*
X177004289Y-45716579D01*
X177004290Y-45684008D01*
X177024707Y-45658635D01*
X177051432Y-45642088D01*
X177212427Y-45495322D01*
X177343712Y-45321472D01*
X177440817Y-45126459D01*
X177500435Y-44916923D01*
X177520536Y-44700000D01*
X177500435Y-44483077D01*
X177458616Y-44336097D01*
X177440818Y-44273543D01*
X177343712Y-44078528D01*
X177212428Y-43904678D01*
X177122693Y-43822875D01*
X177051432Y-43757912D01*
X177025182Y-43741659D01*
X177004764Y-43716285D01*
X177004764Y-43683715D01*
X177025182Y-43658340D01*
X177051432Y-43642088D01*
X177212427Y-43495322D01*
X177343712Y-43321472D01*
X177440817Y-43126459D01*
X177500435Y-42916923D01*
X177520536Y-42700000D01*
X177500435Y-42483077D01*
X177453330Y-42317518D01*
X177440818Y-42273543D01*
X177343712Y-42078528D01*
X177211312Y-41903201D01*
X177201432Y-41874974D01*
X177209798Y-41846263D01*
X177233292Y-41827761D01*
X177257331Y-41818796D01*
X177372546Y-41732546D01*
X177458796Y-41617331D01*
X177509091Y-41482483D01*
X177515500Y-41422873D01*
X177515499Y-39977128D01*
X177509091Y-39917517D01*
X177458796Y-39782669D01*
X177372546Y-39667454D01*
X177314938Y-39624328D01*
X177257332Y-39581204D01*
X177122481Y-39530908D01*
X177062875Y-39524500D01*
X175617125Y-39524500D01*
X175557518Y-39530908D01*
X175422667Y-39581204D01*
X175307454Y-39667454D01*
X175221204Y-39782667D01*
X175170908Y-39917518D01*
X175164500Y-39977124D01*
X175164500Y-41422874D01*
X175170908Y-41482481D01*
X175221204Y-41617332D01*
X175264328Y-41674938D01*
X175307454Y-41732546D01*
X175373343Y-41781870D01*
X175422668Y-41818796D01*
X175446706Y-41827761D01*
X175470201Y-41846263D01*
X175478567Y-41874975D01*
X175468687Y-41903201D01*
X175336287Y-42078528D01*
X175239181Y-42273543D01*
X175179565Y-42483074D01*
X175159463Y-42699999D01*
X175179565Y-42916925D01*
X175239181Y-43126456D01*
X175336287Y-43321471D01*
X175467571Y-43495321D01*
X175628569Y-43642089D01*
X175654815Y-43658340D01*
X175675234Y-43683715D01*
X175675234Y-43716285D01*
X175654815Y-43741660D01*
X175628569Y-43757910D01*
X175467571Y-43904678D01*
X175336287Y-44078528D01*
X175239181Y-44273543D01*
X175179565Y-44483074D01*
X175159463Y-44699999D01*
X152682069Y-44699999D01*
X152647639Y-44571506D01*
X152626739Y-44493504D01*
X152530569Y-44287268D01*
X152522328Y-44275499D01*
X152400047Y-44100861D01*
X152400046Y-44100860D01*
X152400044Y-44100857D01*
X152239142Y-43939955D01*
X152071931Y-43822874D01*
X155324500Y-43822874D01*
X155330908Y-43882481D01*
X155381204Y-44017332D01*
X155424329Y-44074938D01*
X155467454Y-44132546D01*
X155544406Y-44190152D01*
X155582667Y-44218795D01*
X155582668Y-44218795D01*
X155582669Y-44218796D01*
X155717517Y-44269091D01*
X155777127Y-44275500D01*
X157222872Y-44275499D01*
X157222874Y-44275499D01*
X157252677Y-44272294D01*
X157282483Y-44269091D01*
X157417331Y-44218796D01*
X157532546Y-44132546D01*
X157618796Y-44017331D01*
X157669091Y-43882483D01*
X157675500Y-43822873D01*
X157675499Y-42377128D01*
X157669091Y-42317517D01*
X157618796Y-42182669D01*
X157532546Y-42067454D01*
X157417331Y-41981204D01*
X157410204Y-41978546D01*
X157392801Y-41972054D01*
X157369308Y-41953551D01*
X157360943Y-41924840D01*
X157370823Y-41896615D01*
X157503285Y-41721207D01*
X157600349Y-41526276D01*
X157650505Y-41350000D01*
X155349494Y-41350000D01*
X155399650Y-41526276D01*
X155496714Y-41721207D01*
X155629176Y-41896616D01*
X155639056Y-41924842D01*
X155630691Y-41953553D01*
X155607197Y-41972055D01*
X155582669Y-41981203D01*
X155467454Y-42067454D01*
X155381204Y-42182667D01*
X155330908Y-42317518D01*
X155324500Y-42377124D01*
X155324500Y-43822874D01*
X152071931Y-43822874D01*
X152052731Y-43809430D01*
X151846494Y-43713260D01*
X151763641Y-43691059D01*
X151736184Y-43671834D01*
X151727509Y-43639458D01*
X151741674Y-43609082D01*
X155513695Y-39837062D01*
X155537858Y-39823846D01*
X155565336Y-39825754D01*
X155587444Y-39842183D01*
X155627571Y-39895321D01*
X155788569Y-40042089D01*
X155815290Y-40058634D01*
X155835709Y-40084009D01*
X155835709Y-40116579D01*
X155815290Y-40141954D01*
X155788873Y-40158311D01*
X155627942Y-40305016D01*
X155496714Y-40478792D01*
X155399650Y-40673723D01*
X155349494Y-40849999D01*
X155349495Y-40850000D01*
X157650505Y-40850000D01*
X157650505Y-40849999D01*
X157600349Y-40673723D01*
X157503285Y-40478792D01*
X157372057Y-40305016D01*
X157211126Y-40158311D01*
X157184708Y-40141954D01*
X157164289Y-40116579D01*
X157164290Y-40084008D01*
X157184707Y-40058635D01*
X157211432Y-40042088D01*
X157372427Y-39895322D01*
X157503712Y-39721472D01*
X157600817Y-39526459D01*
X157601375Y-39524500D01*
X157660434Y-39316925D01*
X157660435Y-39316923D01*
X157680536Y-39100000D01*
X157660435Y-38883077D01*
X157625012Y-38758577D01*
X157600818Y-38673543D01*
X157503712Y-38478528D01*
X157372428Y-38304678D01*
X157285454Y-38225392D01*
X157211432Y-38157912D01*
X157026210Y-38043228D01*
X157026208Y-38043227D01*
X156924639Y-38003879D01*
X156823069Y-37964530D01*
X156608926Y-37924500D01*
X156391074Y-37924500D01*
X156176931Y-37964530D01*
X156176928Y-37964530D01*
X156176928Y-37964531D01*
X155973791Y-38043227D01*
X155788568Y-38157912D01*
X155627571Y-38304678D01*
X155570671Y-38380029D01*
X155553409Y-38394363D01*
X155531568Y-38399500D01*
X155282747Y-38399500D01*
X155279789Y-38399411D01*
X155244005Y-38397246D01*
X155217495Y-38395643D01*
X155217494Y-38395643D01*
X155156106Y-38406891D01*
X155153182Y-38407336D01*
X155091226Y-38414860D01*
X155075381Y-38420869D01*
X155066841Y-38423250D01*
X155050168Y-38426305D01*
X154993271Y-38451913D01*
X154990537Y-38453046D01*
X154932168Y-38475183D01*
X154918220Y-38484811D01*
X154910497Y-38489167D01*
X154895044Y-38496122D01*
X154845925Y-38534603D01*
X154843543Y-38536355D01*
X154792172Y-38571815D01*
X154750786Y-38618530D01*
X154748758Y-38620684D01*
X142764296Y-50605148D01*
X142748399Y-50615770D01*
X142729648Y-50619500D01*
X142705352Y-50619500D01*
X142661448Y-50628831D01*
X142656384Y-50629633D01*
X142611743Y-50634325D01*
X142569048Y-50648197D01*
X142564097Y-50649524D01*
X142520196Y-50658856D01*
X142479191Y-50677112D01*
X142474405Y-50678949D01*
X142431718Y-50692819D01*
X142392839Y-50715266D01*
X142388271Y-50717593D01*
X142347270Y-50735848D01*
X142310960Y-50762227D01*
X142306662Y-50765018D01*
X142267783Y-50787467D01*
X142234429Y-50817498D01*
X142230446Y-50820724D01*
X142194126Y-50847113D01*
X142164093Y-50880468D01*
X142160468Y-50884093D01*
X142127113Y-50914126D01*
X142100724Y-50950446D01*
X142097498Y-50954429D01*
X142067467Y-50987783D01*
X142045018Y-51026662D01*
X142042227Y-51030960D01*
X142015848Y-51067270D01*
X141997593Y-51108271D01*
X141995266Y-51112839D01*
X141972819Y-51151718D01*
X141958949Y-51194405D01*
X141957112Y-51199191D01*
X141938856Y-51240196D01*
X141929524Y-51284097D01*
X141928197Y-51289048D01*
X141914325Y-51331743D01*
X141909633Y-51376384D01*
X141908831Y-51381448D01*
X141899500Y-51425352D01*
X141899500Y-51470236D01*
X141899232Y-51475358D01*
X141894540Y-51519999D01*
X141899232Y-51564642D01*
X141899500Y-51569764D01*
X141899500Y-51614648D01*
X141908829Y-51658541D01*
X141909631Y-51663604D01*
X141914325Y-51708254D01*
X141928197Y-51750949D01*
X141929524Y-51755901D01*
X141932050Y-51767784D01*
X141938856Y-51799803D01*
X141956515Y-51839467D01*
X141957112Y-51840806D01*
X141958950Y-51845594D01*
X141972821Y-51888284D01*
X141988587Y-51915591D01*
X141995263Y-51927154D01*
X141997587Y-51931714D01*
X142002249Y-51942185D01*
X142015849Y-51972731D01*
X142042225Y-52009035D01*
X142045018Y-52013335D01*
X142067466Y-52052215D01*
X142097505Y-52085576D01*
X142100733Y-52089563D01*
X142127112Y-52125872D01*
X142160462Y-52155900D01*
X142164089Y-52159526D01*
X142188989Y-52187180D01*
X142194129Y-52192888D01*
X142230439Y-52219268D01*
X142234421Y-52222493D01*
X142243426Y-52230601D01*
X142267784Y-52252533D01*
X142306663Y-52274980D01*
X142310959Y-52277770D01*
X142347268Y-52304150D01*
X142388274Y-52322407D01*
X142392844Y-52324736D01*
X142431714Y-52347178D01*
X142431716Y-52347179D01*
X142474413Y-52361051D01*
X142479180Y-52362881D01*
X142520197Y-52381144D01*
X142564107Y-52390476D01*
X142569047Y-52391800D01*
X142611744Y-52405674D01*
X142656390Y-52410366D01*
X142661455Y-52411169D01*
X142705353Y-52420500D01*
X142705354Y-52420500D01*
X142752808Y-52420500D01*
X142894646Y-52420500D01*
X142899325Y-52419505D01*
X142904375Y-52418704D01*
X143028357Y-52405674D01*
X143208385Y-52347179D01*
X143372317Y-52252533D01*
X143512989Y-52125871D01*
X143624252Y-51972730D01*
X143701245Y-51799803D01*
X143738795Y-51623139D01*
X143752074Y-51598683D01*
X150069082Y-45281674D01*
X150099458Y-45267509D01*
X150131834Y-45276184D01*
X150151059Y-45303641D01*
X150173260Y-45386494D01*
X150269430Y-45592731D01*
X150399955Y-45779142D01*
X150560857Y-45940044D01*
X150560860Y-45940046D01*
X150560861Y-45940047D01*
X150747266Y-46070568D01*
X150747267Y-46070568D01*
X150747268Y-46070569D01*
X150951041Y-46165591D01*
X150975871Y-46191909D01*
X150975871Y-46228091D01*
X150951041Y-46254409D01*
X150747268Y-46349430D01*
X150560857Y-46479955D01*
X150399955Y-46640857D01*
X150269430Y-46827268D01*
X150173260Y-47033504D01*
X150114365Y-47253303D01*
X150112152Y-47278599D01*
X150094532Y-47480000D01*
X150108678Y-47641686D01*
X150114365Y-47706696D01*
X150173260Y-47926495D01*
X150269430Y-48132731D01*
X150269431Y-48132733D01*
X150269432Y-48132734D01*
X150315349Y-48198311D01*
X150399955Y-48319142D01*
X150560857Y-48480044D01*
X150560860Y-48480046D01*
X150560861Y-48480047D01*
X150747266Y-48610568D01*
X150747267Y-48610568D01*
X150747268Y-48610569D01*
X150951041Y-48705591D01*
X150975871Y-48731909D01*
X150975871Y-48768091D01*
X150951041Y-48794409D01*
X150747268Y-48889430D01*
X150560857Y-49019955D01*
X150399955Y-49180857D01*
X150269430Y-49367268D01*
X150173260Y-49573504D01*
X150114365Y-49793303D01*
X150094532Y-50019999D01*
X150114365Y-50246696D01*
X150173260Y-50466495D01*
X150269430Y-50672731D01*
X150269431Y-50672733D01*
X150269432Y-50672734D01*
X150313625Y-50735849D01*
X150399955Y-50859142D01*
X150560857Y-51020044D01*
X150560860Y-51020046D01*
X150560861Y-51020047D01*
X150747266Y-51150568D01*
X150747267Y-51150568D01*
X150747268Y-51150569D01*
X150951041Y-51245591D01*
X150975871Y-51271909D01*
X150975871Y-51308091D01*
X150951041Y-51334409D01*
X150747268Y-51429430D01*
X150560857Y-51559955D01*
X150399955Y-51720857D01*
X150269430Y-51907268D01*
X150173260Y-52113504D01*
X150114365Y-52333303D01*
X150094532Y-52560000D01*
X150114365Y-52786696D01*
X150173260Y-53006495D01*
X150269430Y-53212731D01*
X150269431Y-53212733D01*
X150269432Y-53212734D01*
X150287341Y-53238311D01*
X150399955Y-53399142D01*
X150560857Y-53560044D01*
X150560860Y-53560046D01*
X150560861Y-53560047D01*
X150747266Y-53690568D01*
X150951041Y-53785590D01*
X150975871Y-53811908D01*
X150975871Y-53848090D01*
X150951042Y-53874408D01*
X150747266Y-53969432D01*
X150560857Y-54099955D01*
X150399955Y-54260857D01*
X150269430Y-54447268D01*
X150173260Y-54653504D01*
X150114365Y-54873303D01*
X150094532Y-55100000D01*
X150114365Y-55326696D01*
X150173260Y-55546495D01*
X150269430Y-55752731D01*
X150399955Y-55939142D01*
X150560857Y-56100044D01*
X150560860Y-56100046D01*
X150560861Y-56100047D01*
X150747266Y-56230568D01*
X150747267Y-56230568D01*
X150747268Y-56230569D01*
X150951041Y-56325591D01*
X150975871Y-56351909D01*
X150975871Y-56388091D01*
X150951041Y-56414409D01*
X150747268Y-56509430D01*
X150560857Y-56639955D01*
X150399955Y-56800857D01*
X150269430Y-56987268D01*
X150173260Y-57193504D01*
X150114365Y-57413303D01*
X150094532Y-57639999D01*
X150114365Y-57866695D01*
X150121473Y-57893219D01*
X150121473Y-57918584D01*
X150108791Y-57940550D01*
X148620684Y-59428657D01*
X148618530Y-59430685D01*
X148571817Y-59472070D01*
X148536358Y-59523438D01*
X148534606Y-59525819D01*
X148496121Y-59574943D01*
X148489166Y-59590396D01*
X148484811Y-59598118D01*
X148475182Y-59612067D01*
X148453051Y-59670422D01*
X148451918Y-59673156D01*
X148426304Y-59730068D01*
X148423248Y-59746745D01*
X148420867Y-59755287D01*
X148414859Y-59771127D01*
X148407338Y-59833065D01*
X148406893Y-59835989D01*
X148395642Y-59897393D01*
X148399411Y-59959698D01*
X148399500Y-59962657D01*
X148399500Y-61413398D01*
X148386915Y-61446185D01*
X148367465Y-61467786D01*
X148272822Y-61631713D01*
X148250797Y-61699500D01*
X148214326Y-61811744D01*
X148194540Y-62000000D01*
X148214326Y-62188256D01*
X148267369Y-62351506D01*
X148272822Y-62368286D01*
X148367467Y-62532216D01*
X148494128Y-62672887D01*
X148647268Y-62784150D01*
X148647269Y-62784150D01*
X148647270Y-62784151D01*
X148820197Y-62861144D01*
X148912775Y-62880822D01*
X149005353Y-62900500D01*
X149005354Y-62900500D01*
X149194646Y-62900500D01*
X149194647Y-62900500D01*
X149256364Y-62887381D01*
X149379803Y-62861144D01*
X149552730Y-62784151D01*
X149705871Y-62672888D01*
X149832533Y-62532216D01*
X149927179Y-62368284D01*
X149985674Y-62188256D01*
X150005460Y-62000000D01*
X149985674Y-61811744D01*
X149927179Y-61631716D01*
X149832533Y-61467784D01*
X149813084Y-61446184D01*
X149800500Y-61413398D01*
X149800500Y-60250453D01*
X149814852Y-60215805D01*
X149858486Y-60172171D01*
X150022719Y-60007936D01*
X150048858Y-59994329D01*
X150078075Y-59998176D01*
X150099802Y-60018085D01*
X150106181Y-60046856D01*
X150094532Y-60179999D01*
X150114365Y-60406696D01*
X150173260Y-60626495D01*
X150269430Y-60832731D01*
X150399955Y-61019142D01*
X150560857Y-61180044D01*
X150560860Y-61180046D01*
X150560861Y-61180047D01*
X150747266Y-61310568D01*
X150951041Y-61405590D01*
X150975871Y-61431908D01*
X150975871Y-61468090D01*
X150951042Y-61494408D01*
X150747266Y-61589432D01*
X150560857Y-61719955D01*
X150399955Y-61880857D01*
X150269430Y-62067268D01*
X150173260Y-62273504D01*
X150114365Y-62493303D01*
X150094532Y-62720000D01*
X150114365Y-62946696D01*
X150173260Y-63166495D01*
X150269430Y-63372731D01*
X150399955Y-63559142D01*
X150560857Y-63720044D01*
X150560860Y-63720046D01*
X150560861Y-63720047D01*
X150747266Y-63850568D01*
X150951041Y-63945590D01*
X150975871Y-63971908D01*
X150975871Y-64008090D01*
X150951042Y-64034408D01*
X150747266Y-64129432D01*
X150560857Y-64259955D01*
X150399955Y-64420857D01*
X150269430Y-64607268D01*
X150173260Y-64813504D01*
X150114365Y-65033303D01*
X150094532Y-65259999D01*
X150114365Y-65486696D01*
X150173260Y-65706495D01*
X150230755Y-65829792D01*
X150234025Y-65861800D01*
X150216738Y-65888936D01*
X150186346Y-65899500D01*
X148062657Y-65899500D01*
X148059698Y-65899411D01*
X147997394Y-65895642D01*
X147936006Y-65906891D01*
X147933081Y-65907336D01*
X147871127Y-65914859D01*
X147855287Y-65920867D01*
X147846746Y-65923248D01*
X147830068Y-65926304D01*
X147773162Y-65951916D01*
X147770428Y-65953048D01*
X147712072Y-65975180D01*
X147698116Y-65984813D01*
X147690395Y-65989167D01*
X147674944Y-65996121D01*
X147625821Y-66034605D01*
X147623440Y-66036357D01*
X147572070Y-66071817D01*
X147530685Y-66118530D01*
X147528657Y-66120684D01*
X146731318Y-66918024D01*
X146706858Y-66931305D01*
X146530199Y-66968855D01*
X146357268Y-67045849D01*
X146204128Y-67157112D01*
X146077467Y-67297783D01*
X145982822Y-67461713D01*
X145924326Y-67641743D01*
X145912680Y-67752546D01*
X145904540Y-67830000D01*
X145924326Y-68018256D01*
X145979025Y-68186602D01*
X145982822Y-68198286D01*
X146077467Y-68362216D01*
X146174515Y-68469999D01*
X146204129Y-68502888D01*
X146229602Y-68521395D01*
X146357268Y-68614150D01*
X146357269Y-68614150D01*
X146357270Y-68614151D01*
X146530197Y-68691144D01*
X146622775Y-68710821D01*
X146715353Y-68730500D01*
X146715354Y-68730500D01*
X146904646Y-68730500D01*
X146904647Y-68730500D01*
X146966364Y-68717381D01*
X147089803Y-68691144D01*
X147262730Y-68614151D01*
X147415871Y-68502888D01*
X147542533Y-68362216D01*
X147637179Y-68198284D01*
X147695674Y-68018256D01*
X147703640Y-67942455D01*
X147717723Y-67912932D01*
X148115946Y-67514709D01*
X148142294Y-67501067D01*
X148171687Y-67505132D01*
X148193344Y-67525416D01*
X148199324Y-67554480D01*
X148194687Y-67598599D01*
X148194540Y-67600000D01*
X148214326Y-67788256D01*
X148264429Y-67942457D01*
X148272822Y-67968286D01*
X148352165Y-68105713D01*
X148367467Y-68132216D01*
X148371853Y-68137087D01*
X148386915Y-68153815D01*
X148399500Y-68186602D01*
X148399500Y-69513398D01*
X148386915Y-69546185D01*
X148367465Y-69567786D01*
X148272822Y-69731713D01*
X148216808Y-69904106D01*
X148214326Y-69911744D01*
X148194540Y-70100000D01*
X148214326Y-70288256D01*
X148231138Y-70339999D01*
X148272822Y-70468286D01*
X148367467Y-70632216D01*
X148489540Y-70767792D01*
X148494129Y-70772888D01*
X148512858Y-70786495D01*
X148647268Y-70884150D01*
X148647269Y-70884150D01*
X148647270Y-70884151D01*
X148820197Y-70961144D01*
X148861862Y-70970000D01*
X149005353Y-71000500D01*
X149005354Y-71000500D01*
X149194646Y-71000500D01*
X149194647Y-71000500D01*
X149256365Y-70987381D01*
X149379803Y-70961144D01*
X149552730Y-70884151D01*
X149705871Y-70772888D01*
X149832533Y-70632216D01*
X149927179Y-70468284D01*
X149985674Y-70288256D01*
X150005460Y-70100000D01*
X149985674Y-69911744D01*
X149927179Y-69731716D01*
X149832533Y-69567784D01*
X149813084Y-69546184D01*
X149800500Y-69513398D01*
X149800500Y-68186602D01*
X149813085Y-68153815D01*
X149832533Y-68132216D01*
X149927179Y-67968284D01*
X149985674Y-67788256D01*
X150005460Y-67600000D01*
X149985674Y-67411744D01*
X149970369Y-67364641D01*
X149970369Y-67334358D01*
X149988169Y-67309858D01*
X150016971Y-67300500D01*
X150123605Y-67300500D01*
X150151710Y-67309362D01*
X150169650Y-67332741D01*
X150170935Y-67362182D01*
X150114365Y-67573303D01*
X150094532Y-67800000D01*
X150114365Y-68026696D01*
X150173260Y-68246495D01*
X150269430Y-68452731D01*
X150399955Y-68639142D01*
X150560857Y-68800044D01*
X150560860Y-68800046D01*
X150560861Y-68800047D01*
X150747266Y-68930568D01*
X150747267Y-68930568D01*
X150747268Y-68930569D01*
X150951041Y-69025591D01*
X150975871Y-69051909D01*
X150975871Y-69088091D01*
X150951041Y-69114409D01*
X150747268Y-69209430D01*
X150560857Y-69339955D01*
X150399955Y-69500857D01*
X150269430Y-69687268D01*
X150173260Y-69893504D01*
X150114365Y-70113303D01*
X150094532Y-70339999D01*
X150114365Y-70566696D01*
X150173260Y-70786495D01*
X150269430Y-70992731D01*
X150399955Y-71179142D01*
X150560857Y-71340044D01*
X150560860Y-71340046D01*
X150560861Y-71340047D01*
X150747266Y-71470568D01*
X150747267Y-71470568D01*
X150747268Y-71470569D01*
X150951632Y-71565866D01*
X150976462Y-71592184D01*
X150976462Y-71628366D01*
X150951633Y-71654684D01*
X150747512Y-71749868D01*
X150561184Y-71880336D01*
X150400336Y-72041184D01*
X150269866Y-72227514D01*
X150173732Y-72433675D01*
X150121127Y-72630000D01*
X152678872Y-72630000D01*
X152626267Y-72433675D01*
X152530133Y-72227514D01*
X152399663Y-72041184D01*
X152238815Y-71880336D01*
X152052485Y-71749866D01*
X151848367Y-71654684D01*
X151823537Y-71628366D01*
X151823537Y-71592184D01*
X151848366Y-71565866D01*
X152052734Y-71470568D01*
X152239139Y-71340047D01*
X152400047Y-71179139D01*
X152530568Y-70992734D01*
X152626739Y-70786496D01*
X152685635Y-70566692D01*
X152705468Y-70340000D01*
X152704887Y-70333362D01*
X152707656Y-70312335D01*
X152719053Y-70294446D01*
X153058648Y-69954852D01*
X153093296Y-69940500D01*
X157970032Y-69940500D01*
X157998833Y-69949858D01*
X158016634Y-69974358D01*
X158016634Y-70004641D01*
X158014326Y-70011744D01*
X157994540Y-70200000D01*
X158014326Y-70388256D01*
X158072821Y-70568284D01*
X158167467Y-70732216D01*
X158186915Y-70753815D01*
X158199500Y-70786602D01*
X158199500Y-72413398D01*
X158186915Y-72446185D01*
X158167465Y-72467786D01*
X158072822Y-72631713D01*
X158072821Y-72631715D01*
X158072821Y-72631716D01*
X158014326Y-72811744D01*
X157994540Y-73000000D01*
X158014326Y-73188256D01*
X158059187Y-73326324D01*
X158072822Y-73368286D01*
X158167467Y-73532216D01*
X158235105Y-73607336D01*
X158294129Y-73672888D01*
X158310540Y-73684811D01*
X158447268Y-73784150D01*
X158447269Y-73784150D01*
X158447270Y-73784151D01*
X158620197Y-73861144D01*
X158707323Y-73879663D01*
X158805353Y-73900500D01*
X158805354Y-73900500D01*
X158994646Y-73900500D01*
X158994647Y-73900500D01*
X159092677Y-73879663D01*
X159179803Y-73861144D01*
X159352730Y-73784151D01*
X159505871Y-73672888D01*
X159632533Y-73532216D01*
X159727179Y-73368284D01*
X159785674Y-73188256D01*
X159805460Y-73000000D01*
X159785674Y-72811744D01*
X159727179Y-72631716D01*
X159632533Y-72467784D01*
X159613084Y-72446184D01*
X159600500Y-72413398D01*
X159600500Y-72023610D01*
X160529942Y-72023610D01*
X160576767Y-72060055D01*
X160795390Y-72178367D01*
X161030507Y-72259082D01*
X161275708Y-72300000D01*
X161524292Y-72300000D01*
X161769492Y-72259082D01*
X162004609Y-72178367D01*
X162223229Y-72060057D01*
X162270056Y-72023609D01*
X161400000Y-71153553D01*
X160529942Y-72023609D01*
X160529942Y-72023610D01*
X159600500Y-72023610D01*
X159600500Y-70786602D01*
X159613085Y-70753815D01*
X159632533Y-70732216D01*
X159727179Y-70568284D01*
X159785674Y-70388256D01*
X159805460Y-70200000D01*
X159785674Y-70011744D01*
X159783366Y-70004641D01*
X159783366Y-69974358D01*
X159801167Y-69949858D01*
X159829968Y-69940500D01*
X160079237Y-69940500D01*
X160111418Y-69952549D01*
X160127773Y-69982770D01*
X160120258Y-70016301D01*
X160076267Y-70083632D01*
X159976412Y-70311279D01*
X159915387Y-70552262D01*
X159894859Y-70799999D01*
X159915387Y-71047737D01*
X159976412Y-71288720D01*
X160076269Y-71516370D01*
X160176562Y-71669881D01*
X160176564Y-71669881D01*
X161365351Y-70481094D01*
X161387317Y-70468412D01*
X161412681Y-70468412D01*
X161434647Y-70481094D01*
X162623434Y-71669881D01*
X162723732Y-71516366D01*
X162823587Y-71288720D01*
X162884612Y-71047737D01*
X162891053Y-70970000D01*
X175179494Y-70970000D01*
X175229650Y-71146276D01*
X175326714Y-71341207D01*
X175457942Y-71514983D01*
X175618871Y-71661686D01*
X175804015Y-71776323D01*
X176007065Y-71854985D01*
X176080000Y-71868619D01*
X176080000Y-70970000D01*
X176580000Y-70970000D01*
X176580000Y-71868619D01*
X176652934Y-71854985D01*
X176855984Y-71776323D01*
X177041128Y-71661686D01*
X177202057Y-71514983D01*
X177333285Y-71341207D01*
X177430349Y-71146276D01*
X177480505Y-70970000D01*
X176580000Y-70970000D01*
X176080000Y-70970000D01*
X175179494Y-70970000D01*
X162891053Y-70970000D01*
X162905140Y-70799999D01*
X162884612Y-70552262D01*
X162823587Y-70311279D01*
X162723732Y-70083632D01*
X162679742Y-70016301D01*
X162672227Y-69982770D01*
X162688582Y-69952549D01*
X162720763Y-69940500D01*
X173935274Y-69940500D01*
X173942938Y-69941103D01*
X173962612Y-69944219D01*
X174032302Y-69940566D01*
X174034866Y-69940500D01*
X174057196Y-69940500D01*
X174079399Y-69938166D01*
X174081936Y-69937965D01*
X174151646Y-69934313D01*
X174170888Y-69929156D01*
X174178449Y-69927755D01*
X174179682Y-69927625D01*
X174198256Y-69925674D01*
X174264671Y-69904094D01*
X174267028Y-69903395D01*
X174334488Y-69885320D01*
X174352248Y-69876269D01*
X174359332Y-69873335D01*
X174378284Y-69867179D01*
X174438747Y-69832269D01*
X174440950Y-69831073D01*
X174503149Y-69799383D01*
X174518626Y-69786848D01*
X174524957Y-69782495D01*
X174542216Y-69772533D01*
X174594109Y-69725807D01*
X174595998Y-69724193D01*
X174613380Y-69710119D01*
X174629183Y-69694314D01*
X174631004Y-69692586D01*
X174682888Y-69645871D01*
X174694602Y-69629746D01*
X174699585Y-69623912D01*
X175163695Y-69159802D01*
X175190825Y-69146032D01*
X175220855Y-69150930D01*
X175242204Y-69172611D01*
X175326287Y-69341471D01*
X175457571Y-69515321D01*
X175618569Y-69662089D01*
X175645290Y-69678634D01*
X175665709Y-69704009D01*
X175665709Y-69736579D01*
X175645290Y-69761954D01*
X175618873Y-69778311D01*
X175457942Y-69925016D01*
X175326714Y-70098792D01*
X175229650Y-70293723D01*
X175179494Y-70469999D01*
X175179495Y-70470000D01*
X177480505Y-70470000D01*
X177480505Y-70469999D01*
X177430349Y-70293723D01*
X177333285Y-70098792D01*
X177202057Y-69925016D01*
X177041126Y-69778311D01*
X177014708Y-69761954D01*
X176994289Y-69736579D01*
X176994290Y-69704008D01*
X177014707Y-69678635D01*
X177041432Y-69662088D01*
X177202427Y-69515322D01*
X177207583Y-69508495D01*
X177234571Y-69472755D01*
X177333712Y-69341472D01*
X177430817Y-69146459D01*
X177430939Y-69146032D01*
X177490434Y-68936925D01*
X177490435Y-68936923D01*
X177510536Y-68720000D01*
X177490435Y-68503077D01*
X177445653Y-68345683D01*
X177430818Y-68293543D01*
X177333712Y-68098528D01*
X177201312Y-67923201D01*
X177191432Y-67894974D01*
X177199798Y-67866263D01*
X177223292Y-67847761D01*
X177247331Y-67838796D01*
X177362546Y-67752546D01*
X177448796Y-67637331D01*
X177499091Y-67502483D01*
X177505500Y-67442873D01*
X177505499Y-65997128D01*
X177499091Y-65937517D01*
X177448796Y-65802669D01*
X177362546Y-65687454D01*
X177304938Y-65644328D01*
X177247332Y-65601204D01*
X177112481Y-65550908D01*
X177052875Y-65544500D01*
X175607125Y-65544500D01*
X175547518Y-65550908D01*
X175412667Y-65601204D01*
X175297454Y-65687454D01*
X175211204Y-65802667D01*
X175160908Y-65937518D01*
X175154500Y-65997125D01*
X175154500Y-66601704D01*
X175140148Y-66636352D01*
X173651353Y-68125148D01*
X173635456Y-68135770D01*
X173616705Y-68139500D01*
X152774726Y-68139500D01*
X152767062Y-68138897D01*
X152747388Y-68135781D01*
X152722457Y-68137087D01*
X152693206Y-68129248D01*
X152674148Y-68105713D01*
X152672564Y-68075472D01*
X152685635Y-68026692D01*
X152705468Y-67800000D01*
X152685635Y-67573308D01*
X152680590Y-67554480D01*
X152629065Y-67362182D01*
X152630350Y-67332741D01*
X152648290Y-67309362D01*
X152676395Y-67300500D01*
X172027343Y-67300500D01*
X172030302Y-67300589D01*
X172092606Y-67304358D01*
X172154017Y-67293103D01*
X172156908Y-67292663D01*
X172206561Y-67286634D01*
X172218873Y-67285140D01*
X172225177Y-67282748D01*
X172234711Y-67279132D01*
X172243245Y-67276752D01*
X172259932Y-67273695D01*
X172316871Y-67248067D01*
X172319570Y-67246950D01*
X172361477Y-67231057D01*
X172377928Y-67224819D01*
X172377928Y-67224818D01*
X172377930Y-67224818D01*
X172391882Y-67215186D01*
X172399595Y-67210835D01*
X172415057Y-67203878D01*
X172464201Y-67165374D01*
X172466541Y-67163653D01*
X172517929Y-67128183D01*
X172559329Y-67081450D01*
X172561324Y-67079331D01*
X176158851Y-63481804D01*
X176179003Y-63469647D01*
X176202500Y-63468289D01*
X176218728Y-63471322D01*
X176241072Y-63475500D01*
X176241074Y-63475500D01*
X176458924Y-63475500D01*
X176458926Y-63475500D01*
X176673069Y-63435470D01*
X176876210Y-63356772D01*
X177061432Y-63242088D01*
X177222427Y-63095322D01*
X177353712Y-62921472D01*
X177450817Y-62726459D01*
X177510435Y-62516923D01*
X177530536Y-62300000D01*
X177510435Y-62083077D01*
X177486798Y-62000000D01*
X177450818Y-61873543D01*
X177353712Y-61678528D01*
X177222428Y-61504678D01*
X177142931Y-61432208D01*
X177061432Y-61357912D01*
X177035182Y-61341659D01*
X177014764Y-61316285D01*
X177014764Y-61283715D01*
X177035182Y-61258340D01*
X177061432Y-61242088D01*
X177222427Y-61095322D01*
X177353712Y-60921472D01*
X177450817Y-60726459D01*
X177510435Y-60516923D01*
X177530536Y-60300000D01*
X177510435Y-60083077D01*
X177457604Y-59897394D01*
X177450818Y-59873543D01*
X177353712Y-59678528D01*
X177220998Y-59502785D01*
X177211118Y-59474559D01*
X177219484Y-59445847D01*
X177242979Y-59427345D01*
X177267089Y-59418353D01*
X177382188Y-59332188D01*
X177468351Y-59217091D01*
X177518598Y-59082372D01*
X177525000Y-59022830D01*
X177525000Y-58550000D01*
X175175000Y-58550000D01*
X175175000Y-59022830D01*
X175181401Y-59082372D01*
X175231648Y-59217091D01*
X175317811Y-59332188D01*
X175432908Y-59418352D01*
X175457022Y-59427346D01*
X175480516Y-59445849D01*
X175488881Y-59474560D01*
X175479001Y-59502786D01*
X175346287Y-59678528D01*
X175249181Y-59873543D01*
X175189565Y-60083074D01*
X175169463Y-60299999D01*
X175189565Y-60516925D01*
X175249181Y-60726456D01*
X175346287Y-60921471D01*
X175477571Y-61095321D01*
X175638569Y-61242089D01*
X175664815Y-61258340D01*
X175685234Y-61283715D01*
X175685234Y-61316285D01*
X175664815Y-61341660D01*
X175638569Y-61357910D01*
X175477571Y-61504678D01*
X175346287Y-61678528D01*
X175249181Y-61873543D01*
X175189565Y-62083074D01*
X175169463Y-62300000D01*
X175183443Y-62450872D01*
X175180740Y-62472034D01*
X175169300Y-62490041D01*
X171774195Y-65885148D01*
X171758298Y-65895770D01*
X171739547Y-65899500D01*
X162495327Y-65899500D01*
X162464529Y-65888611D01*
X162447418Y-65860784D01*
X162451600Y-65828387D01*
X162475216Y-65805817D01*
X162479929Y-65803695D01*
X162479932Y-65803695D01*
X162536871Y-65778067D01*
X162539570Y-65776950D01*
X162581477Y-65761057D01*
X162597928Y-65754819D01*
X162597928Y-65754818D01*
X162597930Y-65754818D01*
X162611882Y-65745186D01*
X162619595Y-65740835D01*
X162635057Y-65733878D01*
X162684201Y-65695374D01*
X162686541Y-65693653D01*
X162737929Y-65658183D01*
X162779329Y-65611450D01*
X162781324Y-65609331D01*
X170340654Y-58050000D01*
X175175000Y-58050000D01*
X176100000Y-58050000D01*
X176100000Y-57125000D01*
X176600000Y-57125000D01*
X176600000Y-58050000D01*
X177525000Y-58050000D01*
X177525000Y-57577170D01*
X177518598Y-57517627D01*
X177468351Y-57382908D01*
X177382188Y-57267811D01*
X177267091Y-57181648D01*
X177132372Y-57131401D01*
X177072830Y-57125000D01*
X176600000Y-57125000D01*
X176100000Y-57125000D01*
X175627170Y-57125000D01*
X175567627Y-57131401D01*
X175432908Y-57181648D01*
X175317811Y-57267811D01*
X175231648Y-57382908D01*
X175181401Y-57517627D01*
X175175000Y-57577170D01*
X175175000Y-58050000D01*
X170340654Y-58050000D01*
X173960654Y-54430000D01*
X175199494Y-54430000D01*
X175249650Y-54606276D01*
X175346714Y-54801207D01*
X175477942Y-54974983D01*
X175638871Y-55121686D01*
X175824015Y-55236323D01*
X176027065Y-55314985D01*
X176100000Y-55328619D01*
X176100000Y-54430000D01*
X176600000Y-54430000D01*
X176600000Y-55328619D01*
X176672934Y-55314985D01*
X176875984Y-55236323D01*
X177061128Y-55121686D01*
X177222057Y-54974983D01*
X177353285Y-54801207D01*
X177450349Y-54606276D01*
X177500505Y-54430000D01*
X176600000Y-54430000D01*
X176100000Y-54430000D01*
X175199494Y-54430000D01*
X173960654Y-54430000D01*
X174959323Y-53431331D01*
X174961442Y-53429336D01*
X175008183Y-53387929D01*
X175043659Y-53336530D01*
X175045395Y-53334174D01*
X175083876Y-53285059D01*
X175083876Y-53285057D01*
X175083878Y-53285056D01*
X175090834Y-53269597D01*
X175095187Y-53261880D01*
X175104818Y-53247930D01*
X175126947Y-53189576D01*
X175128078Y-53186847D01*
X175138357Y-53164009D01*
X175153695Y-53129931D01*
X175156752Y-53113245D01*
X175159132Y-53104711D01*
X175165140Y-53088872D01*
X175166157Y-53080500D01*
X175167704Y-53067755D01*
X175172663Y-53026907D01*
X175173103Y-53024016D01*
X175184358Y-52962606D01*
X175180589Y-52900302D01*
X175180500Y-52897343D01*
X175180500Y-52676861D01*
X175191090Y-52646437D01*
X175218281Y-52629163D01*
X175250322Y-52632505D01*
X175273363Y-52655020D01*
X175346287Y-52801471D01*
X175477571Y-52975321D01*
X175638569Y-53122089D01*
X175665290Y-53138634D01*
X175685709Y-53164009D01*
X175685709Y-53196579D01*
X175665290Y-53221954D01*
X175638873Y-53238311D01*
X175477942Y-53385016D01*
X175346714Y-53558792D01*
X175249650Y-53753723D01*
X175199494Y-53929999D01*
X175199495Y-53930000D01*
X177500505Y-53930000D01*
X177500505Y-53929999D01*
X177450349Y-53753723D01*
X177353285Y-53558792D01*
X177222057Y-53385016D01*
X177061126Y-53238311D01*
X177034708Y-53221954D01*
X177014289Y-53196579D01*
X177014290Y-53164008D01*
X177034707Y-53138635D01*
X177061432Y-53122088D01*
X177093025Y-53093287D01*
X177126034Y-53080500D01*
X179045274Y-53080500D01*
X179052938Y-53081103D01*
X179072612Y-53084219D01*
X179142302Y-53080566D01*
X179144866Y-53080500D01*
X179167196Y-53080500D01*
X179189399Y-53078166D01*
X179191936Y-53077965D01*
X179261646Y-53074313D01*
X179280888Y-53069156D01*
X179288449Y-53067755D01*
X179289682Y-53067625D01*
X179308256Y-53065674D01*
X179374671Y-53044094D01*
X179377028Y-53043395D01*
X179444488Y-53025320D01*
X179462248Y-53016269D01*
X179469332Y-53013335D01*
X179488284Y-53007179D01*
X179548747Y-52972269D01*
X179550950Y-52971073D01*
X179613149Y-52939383D01*
X179628626Y-52926848D01*
X179634957Y-52922495D01*
X179652216Y-52912533D01*
X179704109Y-52865807D01*
X179705998Y-52864193D01*
X179723380Y-52850119D01*
X179739184Y-52834313D01*
X179740987Y-52832601D01*
X179779963Y-52797507D01*
X179783910Y-52794312D01*
X179785871Y-52792888D01*
X179787474Y-52791106D01*
X179791111Y-52787470D01*
X179792888Y-52785871D01*
X179794305Y-52783919D01*
X179797530Y-52779938D01*
X179809621Y-52766510D01*
X179832559Y-52741033D01*
X179834326Y-52739172D01*
X179850118Y-52723382D01*
X179850120Y-52723380D01*
X179864187Y-52706006D01*
X179865817Y-52704097D01*
X179912533Y-52652216D01*
X179922495Y-52634959D01*
X179926844Y-52628632D01*
X179939383Y-52613149D01*
X179971081Y-52550934D01*
X179972269Y-52548747D01*
X180007179Y-52488284D01*
X180013335Y-52469332D01*
X180016269Y-52462248D01*
X180025320Y-52444488D01*
X180043392Y-52377040D01*
X180044096Y-52374663D01*
X180065674Y-52308256D01*
X180067756Y-52288439D01*
X180069158Y-52280882D01*
X180070698Y-52275134D01*
X180074313Y-52261645D01*
X180077965Y-52191936D01*
X180078166Y-52189399D01*
X180080500Y-52167196D01*
X180080500Y-52144865D01*
X180080567Y-52142301D01*
X180082393Y-52107454D01*
X180084219Y-52072612D01*
X180081103Y-52052938D01*
X180080500Y-52045274D01*
X180080500Y-38464726D01*
X180081103Y-38457062D01*
X180081918Y-38451913D01*
X180084219Y-38437388D01*
X180080566Y-38367703D01*
X180080500Y-38365141D01*
X180080500Y-38342812D01*
X180078164Y-38320587D01*
X180077963Y-38318029D01*
X180074312Y-38248354D01*
X180069711Y-38231182D01*
X183669500Y-38231182D01*
X183708604Y-38490615D01*
X183722455Y-38535520D01*
X183785937Y-38741326D01*
X183899768Y-38977698D01*
X183899771Y-38977703D01*
X183899772Y-38977704D01*
X184047567Y-39194479D01*
X184226019Y-39386805D01*
X184431143Y-39550386D01*
X184431145Y-39550387D01*
X184658353Y-39681566D01*
X184658354Y-39681566D01*
X184658357Y-39681568D01*
X184902584Y-39777420D01*
X185030476Y-39806610D01*
X185158367Y-39835802D01*
X185305471Y-39846825D01*
X185354506Y-39850500D01*
X185485493Y-39850500D01*
X185485494Y-39850500D01*
X185550872Y-39845600D01*
X185681632Y-39835802D01*
X185766891Y-39816341D01*
X185937416Y-39777420D01*
X186181643Y-39681568D01*
X186408857Y-39550386D01*
X186613981Y-39386805D01*
X186792433Y-39194479D01*
X186940228Y-38977704D01*
X186985798Y-38883077D01*
X187054062Y-38741326D01*
X187074971Y-38673541D01*
X187131396Y-38490615D01*
X187170500Y-38231182D01*
X187170500Y-37968818D01*
X187131396Y-37709385D01*
X187054063Y-37458677D01*
X187054062Y-37458673D01*
X186940231Y-37222301D01*
X186888246Y-37146053D01*
X186792433Y-37005521D01*
X186613981Y-36813195D01*
X186408857Y-36649614D01*
X186408854Y-36649612D01*
X186181646Y-36518433D01*
X186098737Y-36485894D01*
X185937416Y-36422580D01*
X185937412Y-36422579D01*
X185681632Y-36364197D01*
X185497493Y-36350399D01*
X185485494Y-36349500D01*
X185354506Y-36349500D01*
X185343198Y-36350347D01*
X185158367Y-36364197D01*
X184902587Y-36422579D01*
X184902585Y-36422579D01*
X184902584Y-36422580D01*
X184889001Y-36427911D01*
X184658353Y-36518433D01*
X184431145Y-36649612D01*
X184226018Y-36813196D01*
X184047569Y-37005518D01*
X183899768Y-37222301D01*
X183785937Y-37458673D01*
X183713015Y-37695083D01*
X183708604Y-37709385D01*
X183669500Y-37968818D01*
X183669500Y-38231182D01*
X180069711Y-38231182D01*
X180069158Y-38229120D01*
X180067756Y-38221559D01*
X180065674Y-38201744D01*
X180044096Y-38135336D01*
X180043386Y-38132939D01*
X180025320Y-38065512D01*
X180016270Y-38047752D01*
X180013334Y-38040663D01*
X180007179Y-38021716D01*
X179972293Y-37961292D01*
X179971069Y-37959037D01*
X179939384Y-37896852D01*
X179926848Y-37881372D01*
X179922491Y-37875032D01*
X179912535Y-37857786D01*
X179886127Y-37828457D01*
X179865824Y-37805908D01*
X179864171Y-37803972D01*
X179850117Y-37786617D01*
X179834332Y-37770833D01*
X179832565Y-37768971D01*
X179785871Y-37717112D01*
X179769755Y-37705403D01*
X179763908Y-37700409D01*
X176679590Y-34616091D01*
X176674601Y-34610251D01*
X176662888Y-34594129D01*
X176658633Y-34590298D01*
X176611027Y-34547433D01*
X176609165Y-34545666D01*
X176593381Y-34529881D01*
X176576025Y-34515826D01*
X176574076Y-34514161D01*
X176522216Y-34467467D01*
X176504966Y-34457508D01*
X176498628Y-34453152D01*
X176483151Y-34440618D01*
X176477903Y-34437944D01*
X176420943Y-34408921D01*
X176418720Y-34407714D01*
X176418713Y-34407710D01*
X176358284Y-34372821D01*
X176339334Y-34366664D01*
X176332236Y-34363723D01*
X176320686Y-34357838D01*
X176314487Y-34354679D01*
X176247081Y-34336617D01*
X176244623Y-34335889D01*
X176178253Y-34314325D01*
X176158441Y-34312242D01*
X176150888Y-34310843D01*
X176131646Y-34305687D01*
X176093837Y-34303705D01*
X176061951Y-34302034D01*
X176059396Y-34301833D01*
X176056428Y-34301521D01*
X176037192Y-34299500D01*
X176037190Y-34299500D01*
X176014866Y-34299500D01*
X176012302Y-34299433D01*
X176002074Y-34298897D01*
X175942612Y-34295781D01*
X175942611Y-34295781D01*
X175922938Y-34298897D01*
X175915274Y-34299500D01*
X148514726Y-34299500D01*
X148507062Y-34298897D01*
X148487388Y-34295781D01*
X148417699Y-34299433D01*
X148415135Y-34299500D01*
X148392808Y-34299500D01*
X148386204Y-34300193D01*
X148370601Y-34301833D01*
X148368047Y-34302034D01*
X148298352Y-34305687D01*
X148279107Y-34310843D01*
X148271552Y-34312243D01*
X148251745Y-34314325D01*
X148185370Y-34335891D01*
X148182912Y-34336619D01*
X148115512Y-34354680D01*
X148097760Y-34363724D01*
X148090662Y-34366664D01*
X148071717Y-34372820D01*
X148011284Y-34407710D01*
X148009031Y-34408933D01*
X147946849Y-34440617D01*
X147931364Y-34453155D01*
X147925033Y-34457507D01*
X147907785Y-34467466D01*
X147855934Y-34514152D01*
X147853987Y-34515815D01*
X147836615Y-34529884D01*
X147820830Y-34545668D01*
X147818973Y-34547431D01*
X147767113Y-34594128D01*
X147755402Y-34610245D01*
X147750410Y-34616088D01*
X137536636Y-44829863D01*
X137503413Y-44844194D01*
X137469413Y-44831819D01*
X137453174Y-44799487D01*
X137445635Y-44713308D01*
X137407639Y-44571506D01*
X137386739Y-44493504D01*
X137290569Y-44287268D01*
X137282328Y-44275499D01*
X137160047Y-44100861D01*
X137160046Y-44100860D01*
X137160044Y-44100857D01*
X136999142Y-43939955D01*
X136812731Y-43809430D01*
X136606495Y-43713260D01*
X136386696Y-43654365D01*
X136205338Y-43638498D01*
X136160000Y-43634532D01*
X136159999Y-43634532D01*
X135933303Y-43654365D01*
X135713504Y-43713260D01*
X135507268Y-43809430D01*
X135320857Y-43939955D01*
X135159955Y-44100857D01*
X135029430Y-44287268D01*
X134933260Y-44493504D01*
X134874365Y-44713303D01*
X134854532Y-44939999D01*
X134874365Y-45166696D01*
X134933260Y-45386495D01*
X135029430Y-45592731D01*
X135159955Y-45779142D01*
X135320857Y-45940044D01*
X135320860Y-45940046D01*
X135320861Y-45940047D01*
X135507266Y-46070568D01*
X135507267Y-46070568D01*
X135507268Y-46070569D01*
X135711041Y-46165591D01*
X135735871Y-46191909D01*
X135735871Y-46228091D01*
X135711041Y-46254409D01*
X135507268Y-46349430D01*
X135320857Y-46479955D01*
X135159955Y-46640857D01*
X135029430Y-46827268D01*
X134933260Y-47033504D01*
X134874365Y-47253303D01*
X134865300Y-47356923D01*
X134854533Y-47479997D01*
X134854532Y-47480004D01*
X134855112Y-47486639D01*
X134852342Y-47507666D01*
X134840946Y-47525553D01*
X130756089Y-51610410D01*
X130750245Y-51615402D01*
X130734127Y-51627113D01*
X130687423Y-51678981D01*
X130685659Y-51680840D01*
X130669880Y-51696618D01*
X130655836Y-51713961D01*
X130654173Y-51715908D01*
X130607468Y-51767781D01*
X130597505Y-51785037D01*
X130593153Y-51791368D01*
X130580618Y-51806849D01*
X130548934Y-51869031D01*
X130547710Y-51871285D01*
X130512821Y-51931714D01*
X130506664Y-51950662D01*
X130503724Y-51957760D01*
X130494679Y-51975513D01*
X130476617Y-52042917D01*
X130475889Y-52045375D01*
X130454325Y-52111745D01*
X130452242Y-52131558D01*
X130450842Y-52139113D01*
X130445687Y-52158353D01*
X130442034Y-52228047D01*
X130441833Y-52230601D01*
X130439500Y-52252809D01*
X130439500Y-52275134D01*
X130439433Y-52277698D01*
X130435781Y-52347388D01*
X130438897Y-52367062D01*
X130439500Y-52374726D01*
X130439500Y-74746705D01*
X130435770Y-74765457D01*
X130425148Y-74781353D01*
X129422031Y-75784468D01*
X129389132Y-75798789D01*
X129355295Y-75786852D01*
X129338664Y-75755057D01*
X129334091Y-75712518D01*
X129327382Y-75694531D01*
X129283796Y-75577669D01*
X129276770Y-75568284D01*
X129242670Y-75522732D01*
X129197546Y-75462454D01*
X129130377Y-75412171D01*
X129082332Y-75376204D01*
X128947481Y-75325908D01*
X128887875Y-75319500D01*
X126592125Y-75319500D01*
X126532518Y-75325908D01*
X126397667Y-75376204D01*
X126282454Y-75462454D01*
X126196204Y-75577667D01*
X126145908Y-75712518D01*
X126139500Y-75772124D01*
X126139500Y-78067874D01*
X124187436Y-78067874D01*
X124133601Y-77952424D01*
X123998108Y-77758919D01*
X123831077Y-77591888D01*
X123637581Y-77456400D01*
X123526675Y-77404685D01*
X123501845Y-77378367D01*
X123501845Y-77342185D01*
X123526674Y-77315868D01*
X123637830Y-77264035D01*
X123637830Y-77264034D01*
X123637832Y-77264034D01*
X123831400Y-77128496D01*
X123998496Y-76961400D01*
X124134034Y-76767832D01*
X124149526Y-76734609D01*
X124233903Y-76553663D01*
X124295063Y-76325408D01*
X124315659Y-76090000D01*
X124295063Y-75854592D01*
X124276912Y-75786852D01*
X124233903Y-75626337D01*
X124134036Y-75412173D01*
X124117289Y-75388256D01*
X123998495Y-75218599D01*
X123998493Y-75218596D01*
X123831400Y-75051503D01*
X123637832Y-74915965D01*
X123552449Y-74876151D01*
X123527266Y-74864408D01*
X123502437Y-74838091D01*
X123502437Y-74801909D01*
X123527266Y-74775591D01*
X123637830Y-74724035D01*
X123637830Y-74724034D01*
X123637832Y-74724034D01*
X123831400Y-74588496D01*
X123998496Y-74421400D01*
X124134034Y-74227832D01*
X124150155Y-74193261D01*
X124233903Y-74013663D01*
X124295063Y-73785408D01*
X124315659Y-73550000D01*
X124295063Y-73314592D01*
X124233903Y-73086337D01*
X124134035Y-72872171D01*
X123998495Y-72678599D01*
X123998493Y-72678596D01*
X123831400Y-72511503D01*
X123637832Y-72375965D01*
X123526675Y-72324132D01*
X123501845Y-72297814D01*
X123501845Y-72261632D01*
X123526675Y-72235314D01*
X123637581Y-72183598D01*
X123831077Y-72048111D01*
X123998111Y-71881077D01*
X124133599Y-71687581D01*
X124233431Y-71473489D01*
X124290636Y-71260000D01*
X122759000Y-71260000D01*
X122724352Y-71245648D01*
X122710000Y-71211000D01*
X122710000Y-70809000D01*
X122724352Y-70774352D01*
X122759000Y-70760000D01*
X124290636Y-70760000D01*
X124290636Y-70759999D01*
X124233431Y-70546510D01*
X124133601Y-70332424D01*
X123998108Y-70138919D01*
X123831077Y-69971888D01*
X123637581Y-69836400D01*
X123526675Y-69784685D01*
X123501845Y-69758367D01*
X123501845Y-69722185D01*
X123526674Y-69695868D01*
X123637830Y-69644035D01*
X123637830Y-69644034D01*
X123637832Y-69644034D01*
X123831400Y-69508496D01*
X123998496Y-69341400D01*
X124134034Y-69147832D01*
X124134873Y-69146032D01*
X124233903Y-68933663D01*
X124295063Y-68705408D01*
X124315659Y-68470000D01*
X124295063Y-68234592D01*
X124285334Y-68198284D01*
X124233903Y-68006337D01*
X124134036Y-67792173D01*
X124131293Y-67788256D01*
X123998495Y-67598599D01*
X123998493Y-67598596D01*
X123831400Y-67431503D01*
X123637832Y-67295965D01*
X123527267Y-67244408D01*
X123502437Y-67218090D01*
X123502437Y-67181908D01*
X123527264Y-67155592D01*
X123637830Y-67104035D01*
X123770486Y-67011148D01*
X123831400Y-66968496D01*
X123998496Y-66801400D01*
X124027485Y-66759999D01*
X126134550Y-66759999D01*
X126154317Y-67011149D01*
X126213126Y-67256110D01*
X126309535Y-67488862D01*
X126441161Y-67703656D01*
X126482917Y-67752546D01*
X126604776Y-67895224D01*
X126690321Y-67968286D01*
X126796343Y-68058838D01*
X127011137Y-68190464D01*
X127011139Y-68190464D01*
X127011141Y-68190466D01*
X127243889Y-68286873D01*
X127488852Y-68345683D01*
X127718544Y-68363760D01*
X127739999Y-68365449D01*
X127739999Y-68365448D01*
X127740000Y-68365449D01*
X127991148Y-68345683D01*
X128236111Y-68286873D01*
X128468859Y-68190466D01*
X128683659Y-68058836D01*
X128875224Y-67895224D01*
X129038836Y-67703659D01*
X129170466Y-67488859D01*
X129266873Y-67256111D01*
X129325683Y-67011148D01*
X129345449Y-66760000D01*
X129325683Y-66508852D01*
X129266873Y-66263889D01*
X129170466Y-66031141D01*
X129149623Y-65997128D01*
X129038838Y-65816343D01*
X128975906Y-65742660D01*
X128875224Y-65624776D01*
X128713553Y-65486696D01*
X128683656Y-65461161D01*
X128468862Y-65329535D01*
X128236110Y-65233126D01*
X127991149Y-65174317D01*
X127740000Y-65154550D01*
X127488850Y-65174317D01*
X127243889Y-65233126D01*
X127011137Y-65329535D01*
X126796343Y-65461161D01*
X126604776Y-65624776D01*
X126441161Y-65816343D01*
X126309535Y-66031137D01*
X126213126Y-66263889D01*
X126154317Y-66508850D01*
X126134550Y-66759999D01*
X124027485Y-66759999D01*
X124134034Y-66607832D01*
X124136892Y-66601704D01*
X124233903Y-66393663D01*
X124295063Y-66165408D01*
X124315659Y-65930000D01*
X124295063Y-65694592D01*
X124294804Y-65693626D01*
X124233903Y-65466337D01*
X124134036Y-65252173D01*
X124120699Y-65233126D01*
X123998495Y-65058599D01*
X123998493Y-65058596D01*
X123831400Y-64891503D01*
X123637832Y-64755965D01*
X123552449Y-64716151D01*
X123527266Y-64704408D01*
X123502437Y-64678091D01*
X123502437Y-64641909D01*
X123527266Y-64615591D01*
X123637830Y-64564035D01*
X123637830Y-64564034D01*
X123637832Y-64564034D01*
X123831400Y-64428496D01*
X123998496Y-64261400D01*
X124134034Y-64067832D01*
X124178764Y-63971908D01*
X124233903Y-63853663D01*
X124295063Y-63625408D01*
X124315659Y-63390000D01*
X124295063Y-63154592D01*
X124233903Y-62926337D01*
X124134035Y-62712171D01*
X123998495Y-62518599D01*
X123998493Y-62518596D01*
X123831400Y-62351503D01*
X123637832Y-62215965D01*
X123527859Y-62164685D01*
X123527266Y-62164408D01*
X123502437Y-62138091D01*
X123502437Y-62101909D01*
X123527266Y-62075591D01*
X123637830Y-62024035D01*
X123637830Y-62024034D01*
X123637832Y-62024034D01*
X123831400Y-61888496D01*
X123998496Y-61721400D01*
X124134034Y-61527832D01*
X124178764Y-61431908D01*
X124233903Y-61313663D01*
X124295063Y-61085408D01*
X124315659Y-60850000D01*
X124295063Y-60614592D01*
X124233903Y-60386337D01*
X124134035Y-60172171D01*
X123998495Y-59978599D01*
X123998493Y-59978596D01*
X123831400Y-59811503D01*
X123637832Y-59675965D01*
X123526675Y-59624132D01*
X123501845Y-59597814D01*
X123501845Y-59561632D01*
X123526675Y-59535314D01*
X123637581Y-59483598D01*
X123831077Y-59348111D01*
X123998111Y-59181077D01*
X124133599Y-58987581D01*
X124233431Y-58773489D01*
X124290636Y-58560000D01*
X122759000Y-58560000D01*
X122724352Y-58545648D01*
X122710000Y-58511000D01*
X122710000Y-58109000D01*
X122724352Y-58074352D01*
X122759000Y-58060000D01*
X124290636Y-58060000D01*
X124290636Y-58059999D01*
X124233431Y-57846510D01*
X124133601Y-57632424D01*
X123998108Y-57438919D01*
X123831077Y-57271888D01*
X123637581Y-57136400D01*
X123526675Y-57084685D01*
X123501845Y-57058367D01*
X123501845Y-57022185D01*
X123526674Y-56995868D01*
X123637830Y-56944035D01*
X123637830Y-56944034D01*
X123637832Y-56944034D01*
X123831400Y-56808496D01*
X123998496Y-56641400D01*
X124134034Y-56447832D01*
X124134035Y-56447830D01*
X124233903Y-56233663D01*
X124295063Y-56005408D01*
X124315659Y-55770000D01*
X124295063Y-55534592D01*
X124233903Y-55306337D01*
X124134035Y-55092171D01*
X123998495Y-54898599D01*
X123998493Y-54898596D01*
X123831400Y-54731503D01*
X123637832Y-54595965D01*
X123526675Y-54544132D01*
X123501845Y-54517814D01*
X123501845Y-54481632D01*
X123526675Y-54455314D01*
X123637581Y-54403598D01*
X123831077Y-54268111D01*
X123998111Y-54101077D01*
X124133599Y-53907581D01*
X124233431Y-53693489D01*
X124290636Y-53480000D01*
X122759000Y-53480000D01*
X122724352Y-53465648D01*
X122710000Y-53431000D01*
X122710000Y-53029000D01*
X122724352Y-52994352D01*
X122759000Y-52980000D01*
X124290636Y-52980000D01*
X124290636Y-52979999D01*
X124233431Y-52766510D01*
X124133601Y-52552424D01*
X123998108Y-52358919D01*
X123831077Y-52191888D01*
X123637581Y-52056400D01*
X123526675Y-52004685D01*
X123501845Y-51978367D01*
X123501845Y-51942185D01*
X123526674Y-51915868D01*
X123637830Y-51864035D01*
X123637830Y-51864034D01*
X123637832Y-51864034D01*
X123831400Y-51728496D01*
X123998496Y-51561400D01*
X124134034Y-51367832D01*
X124139121Y-51356923D01*
X124233903Y-51153663D01*
X124292576Y-50934689D01*
X124295062Y-50925412D01*
X124295062Y-50925411D01*
X124295063Y-50925408D01*
X124315659Y-50690000D01*
X124295063Y-50454592D01*
X124274860Y-50379194D01*
X124233903Y-50226337D01*
X124134036Y-50012173D01*
X124128684Y-50004530D01*
X123998495Y-49818599D01*
X123998493Y-49818596D01*
X123831400Y-49651503D01*
X123637832Y-49515965D01*
X123527267Y-49464408D01*
X123502437Y-49438090D01*
X123502437Y-49401908D01*
X123527265Y-49375591D01*
X123637830Y-49324035D01*
X123831401Y-49188495D01*
X123998495Y-49021401D01*
X124005842Y-49010909D01*
X124134034Y-48827832D01*
X124134035Y-48827830D01*
X124233903Y-48613663D01*
X124295063Y-48385408D01*
X124315659Y-48150000D01*
X124295063Y-47914592D01*
X124252655Y-47756323D01*
X124233903Y-47686337D01*
X124134036Y-47472173D01*
X123998493Y-47278596D01*
X123831400Y-47111503D01*
X123637832Y-46975965D01*
X123552449Y-46936151D01*
X123527266Y-46924408D01*
X123502437Y-46898091D01*
X123502437Y-46861909D01*
X123527266Y-46835591D01*
X123637830Y-46784035D01*
X123637830Y-46784034D01*
X123637832Y-46784034D01*
X123831400Y-46648496D01*
X123998496Y-46481400D01*
X124134034Y-46287832D01*
X124140613Y-46273723D01*
X124233903Y-46073663D01*
X124295063Y-45845408D01*
X124315659Y-45610000D01*
X124295063Y-45374592D01*
X124280829Y-45321471D01*
X124233903Y-45146337D01*
X124134036Y-44932173D01*
X124123359Y-44916925D01*
X123998495Y-44738599D01*
X123998493Y-44738596D01*
X123831400Y-44571503D01*
X123637832Y-44435965D01*
X123423662Y-44336096D01*
X123195412Y-44274937D01*
X122960000Y-44254341D01*
X122724587Y-44274937D01*
X122496337Y-44336096D01*
X122282173Y-44435963D01*
X122088596Y-44571506D01*
X121921506Y-44738596D01*
X121785965Y-44932171D01*
X121734132Y-45043324D01*
X121707814Y-45068153D01*
X121671632Y-45068153D01*
X121645314Y-45043323D01*
X121593601Y-44932424D01*
X121458108Y-44738919D01*
X121291077Y-44571888D01*
X121097581Y-44436400D01*
X120883489Y-44336568D01*
X120670000Y-44279363D01*
X120670000Y-45811000D01*
X120655648Y-45845648D01*
X120621000Y-45860000D01*
X119089363Y-45860000D01*
X119146568Y-46073489D01*
X119246400Y-46287581D01*
X119381888Y-46481077D01*
X119548922Y-46648111D01*
X119742418Y-46783599D01*
X119853323Y-46835314D01*
X119878153Y-46861632D01*
X119878153Y-46897814D01*
X119853324Y-46924132D01*
X119742171Y-46975965D01*
X119548596Y-47111506D01*
X119381506Y-47278596D01*
X119245963Y-47472173D01*
X119146096Y-47686337D01*
X119084937Y-47914587D01*
X119064341Y-48149999D01*
X119084937Y-48385412D01*
X119146096Y-48613662D01*
X119245965Y-48827832D01*
X119381503Y-49021400D01*
X119548599Y-49188496D01*
X119742167Y-49324034D01*
X119852732Y-49375591D01*
X119877562Y-49401909D01*
X119877562Y-49438091D01*
X119852732Y-49464409D01*
X119742173Y-49515963D01*
X119548596Y-49651506D01*
X119381506Y-49818596D01*
X119245963Y-50012173D01*
X119146096Y-50226337D01*
X119084937Y-50454587D01*
X119064341Y-50689999D01*
X119084937Y-50925412D01*
X119146096Y-51153662D01*
X119245965Y-51367832D01*
X119381503Y-51561400D01*
X119548599Y-51728496D01*
X119742167Y-51864034D01*
X119852732Y-51915591D01*
X119877562Y-51941909D01*
X119877562Y-51978091D01*
X119852732Y-52004409D01*
X119742173Y-52055963D01*
X119548596Y-52191506D01*
X119381506Y-52358596D01*
X119245963Y-52552173D01*
X119146096Y-52766337D01*
X119084937Y-52994587D01*
X119064341Y-53230000D01*
X119084937Y-53465412D01*
X119146096Y-53693662D01*
X119245965Y-53907832D01*
X119381503Y-54101400D01*
X119548599Y-54268496D01*
X119742167Y-54404034D01*
X119852732Y-54455591D01*
X119877562Y-54481909D01*
X119877562Y-54518091D01*
X119852732Y-54544409D01*
X119742173Y-54595963D01*
X119548596Y-54731506D01*
X119381506Y-54898596D01*
X119245963Y-55092173D01*
X119146096Y-55306337D01*
X119084937Y-55534587D01*
X119064341Y-55769999D01*
X119084937Y-56005412D01*
X119146096Y-56233662D01*
X119245965Y-56447832D01*
X119381503Y-56641400D01*
X119548599Y-56808496D01*
X119742167Y-56944034D01*
X119852732Y-56995591D01*
X119877562Y-57021909D01*
X119877562Y-57058091D01*
X119852732Y-57084409D01*
X119742173Y-57135963D01*
X119548596Y-57271506D01*
X119381506Y-57438596D01*
X119245963Y-57632173D01*
X119146096Y-57846337D01*
X119084937Y-58074587D01*
X119064341Y-58310000D01*
X119084937Y-58545412D01*
X119146096Y-58773662D01*
X119245965Y-58987832D01*
X119381503Y-59181400D01*
X119548599Y-59348496D01*
X119742167Y-59484034D01*
X119852732Y-59535591D01*
X119877562Y-59561909D01*
X119877562Y-59598091D01*
X119852732Y-59624409D01*
X119742173Y-59675963D01*
X119548596Y-59811506D01*
X119381506Y-59978596D01*
X119245963Y-60172173D01*
X119146096Y-60386337D01*
X119084937Y-60614587D01*
X119064341Y-60849999D01*
X119084937Y-61085412D01*
X119146096Y-61313662D01*
X119245965Y-61527832D01*
X119381503Y-61721400D01*
X119548599Y-61888496D01*
X119742167Y-62024034D01*
X119853323Y-62075867D01*
X119878153Y-62102185D01*
X119878153Y-62138367D01*
X119853324Y-62164685D01*
X119742422Y-62216400D01*
X119548919Y-62351891D01*
X119381891Y-62518919D01*
X119246398Y-62712424D01*
X119146568Y-62926510D01*
X119089363Y-63139999D01*
X119089364Y-63140000D01*
X120621000Y-63140000D01*
X120655648Y-63154352D01*
X120670000Y-63189000D01*
X120670000Y-63591000D01*
X120655648Y-63625648D01*
X120621000Y-63640000D01*
X119089363Y-63640000D01*
X119146568Y-63853489D01*
X119246400Y-64067581D01*
X119381888Y-64261077D01*
X119548922Y-64428111D01*
X119742418Y-64563599D01*
X119853323Y-64615314D01*
X119878153Y-64641632D01*
X119878153Y-64677814D01*
X119853324Y-64704132D01*
X119742171Y-64755965D01*
X119548596Y-64891506D01*
X119381506Y-65058596D01*
X119245963Y-65252173D01*
X119146096Y-65466337D01*
X119084937Y-65694587D01*
X119064341Y-65930000D01*
X119084937Y-66165412D01*
X119146096Y-66393662D01*
X119245965Y-66607832D01*
X119381503Y-66801400D01*
X119548599Y-66968496D01*
X119742167Y-67104034D01*
X119852732Y-67155591D01*
X119877562Y-67181909D01*
X119877562Y-67218091D01*
X119852732Y-67244409D01*
X119742173Y-67295963D01*
X119548596Y-67431506D01*
X119381506Y-67598596D01*
X119245963Y-67792173D01*
X119146096Y-68006337D01*
X119084937Y-68234587D01*
X119064341Y-68469999D01*
X119084937Y-68705412D01*
X119146096Y-68933662D01*
X119245965Y-69147832D01*
X119381503Y-69341400D01*
X119548599Y-69508496D01*
X119742167Y-69644034D01*
X119834879Y-69687266D01*
X119846240Y-69692564D01*
X119852732Y-69695591D01*
X119877562Y-69721909D01*
X119877562Y-69758091D01*
X119852732Y-69784409D01*
X119742173Y-69835963D01*
X119548596Y-69971506D01*
X119381506Y-70138596D01*
X119245963Y-70332173D01*
X119146096Y-70546337D01*
X119084937Y-70774587D01*
X119064341Y-71010000D01*
X119084937Y-71245412D01*
X119146096Y-71473662D01*
X119245965Y-71687832D01*
X119381503Y-71881400D01*
X119548599Y-72048496D01*
X119742167Y-72184034D01*
X119852732Y-72235591D01*
X119877562Y-72261909D01*
X119877562Y-72298091D01*
X119852732Y-72324409D01*
X119742173Y-72375963D01*
X119548596Y-72511506D01*
X119381506Y-72678596D01*
X119245963Y-72872173D01*
X119146096Y-73086337D01*
X119084937Y-73314587D01*
X119064341Y-73549999D01*
X119084937Y-73785412D01*
X119146096Y-74013662D01*
X119245965Y-74227832D01*
X119381503Y-74421400D01*
X119548599Y-74588496D01*
X119742167Y-74724034D01*
X119852732Y-74775591D01*
X119877562Y-74801909D01*
X119877562Y-74838091D01*
X119852732Y-74864409D01*
X119742173Y-74915963D01*
X119548596Y-75051506D01*
X119381506Y-75218596D01*
X119245963Y-75412173D01*
X119146096Y-75626337D01*
X119084937Y-75854587D01*
X119064341Y-76089999D01*
X119084937Y-76325412D01*
X119146096Y-76553662D01*
X119245965Y-76767832D01*
X119381503Y-76961400D01*
X119548599Y-77128496D01*
X119742167Y-77264034D01*
X119852732Y-77315591D01*
X119877562Y-77341909D01*
X119877562Y-77378091D01*
X119852732Y-77404409D01*
X119742173Y-77455963D01*
X119548596Y-77591506D01*
X119381506Y-77758596D01*
X119245963Y-77952173D01*
X119146096Y-78166337D01*
X119084937Y-78394587D01*
X119064341Y-78630000D01*
X119084937Y-78865412D01*
X119146096Y-79093662D01*
X119245965Y-79307832D01*
X119381503Y-79501400D01*
X119548599Y-79668496D01*
X119742167Y-79804034D01*
X119852732Y-79855591D01*
X119877562Y-79881909D01*
X119877562Y-79918091D01*
X119852732Y-79944409D01*
X119742173Y-79995963D01*
X119548596Y-80131506D01*
X119381506Y-80298596D01*
X119245963Y-80492173D01*
X119146096Y-80706337D01*
X119084937Y-80934587D01*
X119064341Y-81169999D01*
X119084937Y-81405412D01*
X119146096Y-81633662D01*
X119245965Y-81847832D01*
X119381503Y-82041400D01*
X119548599Y-82208496D01*
X119742167Y-82344034D01*
X119853323Y-82395867D01*
X119878153Y-82422185D01*
X119878153Y-82458367D01*
X119853324Y-82484685D01*
X119742422Y-82536400D01*
X119548919Y-82671891D01*
X119381891Y-82838919D01*
X119246398Y-83032424D01*
X119146568Y-83246510D01*
X119089363Y-83459999D01*
X119089364Y-83460000D01*
X120621000Y-83460000D01*
X120655648Y-83474352D01*
X120670000Y-83509000D01*
X120670000Y-83911000D01*
X120655648Y-83945648D01*
X120621000Y-83960000D01*
X119089363Y-83960000D01*
X119146568Y-84173489D01*
X119246400Y-84387581D01*
X119381888Y-84581077D01*
X119548922Y-84748111D01*
X119742418Y-84883599D01*
X119853323Y-84935314D01*
X119878153Y-84961632D01*
X119878153Y-84997814D01*
X119853324Y-85024132D01*
X119742171Y-85075965D01*
X119548596Y-85211506D01*
X119381506Y-85378596D01*
X119245963Y-85572173D01*
X119146096Y-85786337D01*
X119084937Y-86014587D01*
X119064341Y-86250000D01*
X119084937Y-86485412D01*
X119146096Y-86713662D01*
X119245965Y-86927832D01*
X119381503Y-87121400D01*
X119548599Y-87288496D01*
X119742167Y-87424034D01*
X119852732Y-87475591D01*
X119877562Y-87501909D01*
X119877562Y-87538091D01*
X119852732Y-87564409D01*
X119742173Y-87615963D01*
X119548596Y-87751506D01*
X119381506Y-87918596D01*
X119245963Y-88112173D01*
X119146096Y-88326337D01*
X119084937Y-88554587D01*
X119064341Y-88789999D01*
X119084937Y-89025409D01*
X119100648Y-89084047D01*
X119100647Y-89109411D01*
X119087965Y-89131376D01*
X117690684Y-90528657D01*
X117688530Y-90530685D01*
X117641817Y-90572070D01*
X117606358Y-90623438D01*
X117604606Y-90625819D01*
X117566121Y-90674943D01*
X117559166Y-90690396D01*
X117554811Y-90698118D01*
X117545182Y-90712067D01*
X117523051Y-90770422D01*
X117521918Y-90773156D01*
X117496304Y-90830068D01*
X117493248Y-90846745D01*
X117490867Y-90855287D01*
X117484859Y-90871127D01*
X117477338Y-90933065D01*
X117476893Y-90935989D01*
X117465642Y-90997393D01*
X117469411Y-91059698D01*
X117469500Y-91062657D01*
X117469500Y-96147343D01*
X117469411Y-96150302D01*
X117465642Y-96212605D01*
X117000500Y-96212605D01*
X117000500Y-45359999D01*
X119089363Y-45359999D01*
X119089364Y-45360000D01*
X120170000Y-45360000D01*
X120170000Y-44279364D01*
X120169999Y-44279363D01*
X119956510Y-44336568D01*
X119742424Y-44436398D01*
X119548919Y-44571891D01*
X119381891Y-44738919D01*
X119246398Y-44932424D01*
X119146568Y-45146510D01*
X119089363Y-45359999D01*
X117000500Y-45359999D01*
X117000500Y-39000957D01*
X117000538Y-38999033D01*
X117009014Y-38783295D01*
X117009991Y-38758430D01*
X117010396Y-38748647D01*
X117019648Y-38524942D01*
X117019939Y-38521300D01*
X117048865Y-38276903D01*
X117054564Y-38231182D01*
X120169500Y-38231182D01*
X120208604Y-38490615D01*
X120222455Y-38535520D01*
X120285937Y-38741326D01*
X120399768Y-38977698D01*
X120399771Y-38977703D01*
X120399772Y-38977704D01*
X120547567Y-39194479D01*
X120726019Y-39386805D01*
X120931143Y-39550386D01*
X120931145Y-39550387D01*
X121158353Y-39681566D01*
X121158354Y-39681566D01*
X121158357Y-39681568D01*
X121402584Y-39777420D01*
X121530476Y-39806610D01*
X121658367Y-39835802D01*
X121805471Y-39846825D01*
X121854506Y-39850500D01*
X121985493Y-39850500D01*
X121985494Y-39850500D01*
X122050872Y-39845600D01*
X122181632Y-39835802D01*
X122266891Y-39816341D01*
X122437416Y-39777420D01*
X122681643Y-39681568D01*
X122908857Y-39550386D01*
X123113981Y-39386805D01*
X123292433Y-39194479D01*
X123440228Y-38977704D01*
X123485798Y-38883077D01*
X123554062Y-38741326D01*
X123574971Y-38673541D01*
X123631396Y-38490615D01*
X123670500Y-38231182D01*
X123670500Y-37968818D01*
X123631396Y-37709385D01*
X123554063Y-37458677D01*
X123554062Y-37458673D01*
X123440231Y-37222301D01*
X123388246Y-37146053D01*
X123292433Y-37005521D01*
X123113981Y-36813195D01*
X122908857Y-36649614D01*
X122908854Y-36649612D01*
X122681646Y-36518433D01*
X122598737Y-36485894D01*
X122437416Y-36422580D01*
X122437412Y-36422579D01*
X122181632Y-36364197D01*
X121997493Y-36350399D01*
X121985494Y-36349500D01*
X121854506Y-36349500D01*
X121843198Y-36350347D01*
X121658367Y-36364197D01*
X121402587Y-36422579D01*
X121402585Y-36422579D01*
X121402584Y-36422580D01*
X121389001Y-36427911D01*
X121158353Y-36518433D01*
X120931145Y-36649612D01*
X120726018Y-36813196D01*
X120547569Y-37005518D01*
X120399768Y-37222301D01*
X120285937Y-37458673D01*
X120213015Y-37695083D01*
X120208604Y-37709385D01*
X120169500Y-37968818D01*
X120169500Y-38231182D01*
X117054564Y-38231182D01*
X117077778Y-38044952D01*
X117078339Y-38041486D01*
X117126390Y-37799918D01*
X117174349Y-37571195D01*
X117175125Y-37568036D01*
X117241920Y-37331197D01*
X117242033Y-37330805D01*
X117308728Y-37106783D01*
X117309706Y-37103847D01*
X117394818Y-36873142D01*
X117395096Y-36872408D01*
X117480032Y-36654735D01*
X117481157Y-36652091D01*
X117584150Y-36428679D01*
X117584515Y-36427911D01*
X117687172Y-36217923D01*
X117688378Y-36215622D01*
X117808586Y-36000975D01*
X117809123Y-36000045D01*
X117928752Y-35799281D01*
X117930058Y-35797214D01*
X118066716Y-35592690D01*
X118067440Y-35591643D01*
X118203273Y-35401396D01*
X118204571Y-35399668D01*
X118356811Y-35206552D01*
X118357838Y-35205295D01*
X118508890Y-35026949D01*
X118510182Y-35025489D01*
X118677129Y-34844887D01*
X118678362Y-34843605D01*
X118843605Y-34678362D01*
X118844887Y-34677129D01*
X119025489Y-34510182D01*
X119026949Y-34508890D01*
X119205295Y-34357838D01*
X119206552Y-34356811D01*
X119399668Y-34204571D01*
X119401396Y-34203273D01*
X119591643Y-34067440D01*
X119592690Y-34066716D01*
X119797214Y-33930058D01*
X119799281Y-33928752D01*
X120000045Y-33809123D01*
X120000975Y-33808586D01*
X120215622Y-33688378D01*
X120217923Y-33687172D01*
X120427911Y-33584515D01*
X120428679Y-33584150D01*
X120652091Y-33481157D01*
X120654735Y-33480032D01*
X120872408Y-33395096D01*
X120873142Y-33394818D01*
X121103847Y-33309706D01*
X121106783Y-33308728D01*
X121330805Y-33242033D01*
X121331197Y-33241920D01*
X121568036Y-33175125D01*
X121571195Y-33174349D01*
X121799918Y-33126390D01*
X122041486Y-33078339D01*
X122044952Y-33077778D01*
X122276844Y-33048872D01*
X122521300Y-33019939D01*
X122524942Y-33019648D01*
X122758201Y-33010000D01*
X122992646Y-33000788D01*
X122999034Y-33000538D01*
X123000957Y-33000500D01*
X184999043Y-33000500D01*
X185000967Y-33000538D01*
G37*
G04 #@! TD.AperFunction*
M02*
